# Blender 5.1.0
# www.blender.org
mtllib Tree-03-4.mtl
o Tree-03-4
v 23.434275 5.264625 22.271347
v 23.434275 5.264625 22.271347
v 23.434275 5.264625 22.271347
v 23.422367 5.266335 22.269964
v 23.422367 5.266335 22.269964
v 23.422367 5.266335 22.269964
v 23.422367 5.266335 22.269964
v 23.424280 5.266706 22.260513
v 23.424280 5.266706 22.260513
v 23.424280 5.266706 22.260513
v 23.434927 5.264688 22.262424
v 23.434927 5.264688 22.262424
v 23.434927 5.264688 22.262424
v 23.434927 5.264688 22.262424
v 23.436295 4.486101 22.269913
v 23.436295 4.486101 22.269913
v 23.418936 4.485862 22.269585
v 23.418936 4.485862 22.269585
v 23.411507 4.478454 22.253174
v 23.411507 4.478454 22.253174
v 23.411507 4.478454 22.253174
v 23.427710 4.480775 22.248077
v 23.427710 4.480775 22.248077
v 23.435095 4.483054 22.253065
v 23.435095 4.483054 22.253065
v 23.603184 4.014766 22.412930
v 23.603184 4.014766 22.412930
v 23.603184 4.014766 22.412930
v 23.585243 4.011005 22.422121
v 23.585243 4.011005 22.422121
v 23.585243 4.011005 22.422121
v 23.569969 4.005740 22.390535
v 23.569969 4.005740 22.390535
v 23.569969 4.005740 22.390535
v 23.569969 4.005740 22.390535
v 23.587908 4.009501 22.381346
v 23.587908 4.009501 22.381346
v 23.587908 4.009501 22.381346
v 23.601492 4.012648 22.403328
v 23.601492 4.012648 22.403328
v 23.627005 3.660969 22.345705
v 23.627005 3.660969 22.345705
v 23.590992 3.664187 22.352150
v 23.590992 3.664187 22.352150
v 23.590992 3.664187 22.352150
v 23.590992 3.664187 22.352150
v 23.585335 3.668160 22.322796
v 23.585335 3.668160 22.322796
v 23.607496 3.667023 22.311445
v 23.607496 3.667023 22.311445
v 23.627991 3.662795 22.328768
v 23.461773 2.925460 22.357208
v 23.461773 2.925460 22.357208
v 23.461773 2.925460 22.357208
v 23.418859 2.939223 22.370043
v 23.418859 2.939223 22.370043
v 23.407167 2.944501 22.362329
v 23.407167 2.944501 22.362329
v 23.404760 2.951200 22.319590
v 23.404760 2.951200 22.319590
v 23.452568 2.939123 22.304892
v 23.452568 2.939123 22.304892
v 23.033461 1.977001 22.246183
v 23.033461 1.977001 22.246183
v 23.033461 1.977001 22.246183
v 23.033461 1.977001 22.246183
v 23.033461 1.977001 22.246183
v 23.033461 1.977001 22.246183
v 22.991819 1.995544 22.218725
v 22.991819 1.995544 22.218725
v 22.991819 1.995544 22.218725
v 22.991819 1.995544 22.218725
v 22.991819 1.995544 22.218725
v 22.991819 1.995544 22.218725
v 23.083151 1.975108 22.169775
v 23.083151 1.975108 22.169775
v 23.010668 1.398697 22.119621
v 23.010668 1.398697 22.119621
v 22.959333 1.396363 22.167278
v 22.959333 1.396363 22.167278
v 22.907511 1.403262 22.132915
v 22.907511 1.403262 22.132915
v 22.914022 1.404790 22.099874
v 22.914022 1.404790 22.099874
v 22.967659 1.408307 22.043039
v 22.967659 1.408307 22.043039
v 23.019482 1.401408 22.077402
v 23.019482 1.401408 22.077402
v 22.973589 0.480243 22.169277
v 22.973589 0.480243 22.169277
v 22.973589 0.480243 22.169277
v 22.909428 0.480543 22.126583
v 22.909428 0.480543 22.126583
v 22.909428 0.480543 22.126583
v 23.047531 0.478899 22.058147
v 23.047531 0.478899 22.058147
v 23.047531 0.478899 22.058147
v 23.047531 0.478899 22.058147
v 23.047531 0.478899 22.058147
v 23.047531 0.478899 22.058147
v 22.947481 -0.001896 22.233837
v 22.851786 0.000000 22.170143
v 22.851786 0.000000 22.170143
v 22.867947 0.000000 22.094246
v 22.408358 5.474988 22.919041
v 22.408358 5.474988 22.919041
v 22.408358 5.474988 22.919041
v 22.408358 5.474988 22.919041
v 22.411980 5.471150 22.931662
v 22.411980 5.471150 22.931662
v 22.411980 5.471150 22.931662
v 22.411980 5.471150 22.931662
v 22.398888 5.470905 22.928045
v 22.398888 5.470905 22.928045
v 22.398888 5.470905 22.928045
v 22.398888 5.470905 22.928045
v 22.400837 5.473545 22.920839
v 22.400837 5.473545 22.920839
v 22.400837 5.473545 22.920839
v 22.400837 5.473545 22.920839
v 22.526974 4.291952 22.590588
v 22.526974 4.291952 22.590588
v 22.531347 4.293325 22.596107
v 22.531347 4.293325 22.596107
v 22.525259 4.284758 22.614698
v 22.525259 4.284758 22.614698
v 22.516077 4.281318 22.616526
v 22.516077 4.281318 22.616526
v 22.498316 4.280949 22.602682
v 22.498316 4.280949 22.602682
v 22.502644 4.287412 22.586496
v 22.502644 4.287412 22.586496
v 22.903957 3.417725 22.360106
v 22.903957 3.417725 22.360106
v 22.923845 3.419007 22.382013
v 22.923845 3.419007 22.382013
v 22.916077 3.410360 22.409491
v 22.916077 3.410360 22.409491
v 22.888422 3.400431 22.415064
v 22.888422 3.400431 22.415064
v 22.868534 3.399150 22.393158
v 22.868534 3.399150 22.393158
v 22.876303 3.407797 22.365679
v 22.876303 3.407797 22.365679
v 23.041506 1.993651 22.142323
v 23.041506 1.993651 22.142323
v 23.041506 1.993651 22.142323
v 23.041506 1.993651 22.142323
v 23.041506 1.993651 22.142323
v 23.088337 1.993370 22.182810
v 23.088337 1.993370 22.182810
v 23.079126 1.966783 22.221708
v 23.079126 1.966783 22.221708
v 23.079126 1.966783 22.221708
v 23.079126 1.966783 22.221708
v 23.079126 1.966783 22.221708
v 22.995842 2.003869 22.166796
v 22.995842 2.003869 22.166796
v 22.995842 2.003869 22.166796
v 22.995842 2.003869 22.166796
v 22.995842 2.003869 22.166796
v 22.995842 2.003869 22.166796
v 22.983370 0.479200 22.015451
v 22.983370 0.479200 22.015451
v 22.983370 0.479200 22.015451
v 22.962088 0.000000 22.004374
v 22.962088 0.000000 22.004374
v 23.067114 0.000000 22.060686
v 23.067114 0.000000 22.060686
v 23.071148 0.000000 22.152630
v 23.071148 0.000000 22.152630
v 22.947479 0.000000 22.233839
v 24.774895 2.152776 20.596746
v 23.303644 0.737773 20.743385
v 24.070217 3.257366 22.272062
v 22.598965 1.842362 22.418701
v 23.963602 1.607667 20.543907
v 23.292027 2.615316 22.289139
v 23.296772 2.216858 21.455759
v 22.934155 1.301547 21.499861
v 24.392614 2.736373 21.381830
v 24.838692 5.625773 22.527269
v 23.511652 6.053118 21.827091
v 24.272890 3.783167 22.676891
v 22.945850 4.210511 21.976713
v 24.152168 5.865642 22.319616
v 23.591448 4.011111 22.387274
v 23.628967 4.845866 22.435566
v 23.225653 5.190492 21.937159
v 24.542580 4.731230 22.640522
v 20.856712 1.641206 23.006727
v 22.521120 0.402285 22.850872
v 22.079082 3.745847 22.333706
v 23.743490 2.506927 22.177851
v 21.697954 1.099503 23.168354
v 21.697954 1.099503 23.168354
v 22.924803 3.154547 22.363270
v 22.642828 2.256652 22.943253
v 23.116877 1.415401 22.605307
v 21.473989 2.691187 22.750528
v 25.164856 2.247678 22.690882
v 23.456581 4.065344 22.481314
v 23.821026 0.628587 22.122820
v 22.112751 2.446253 21.913252
v 24.298309 3.080135 22.820368
v 22.951601 1.513162 22.122831
v 23.272943 2.286071 22.646547
v 22.801805 3.287540 22.283468
v 24.486423 1.441536 22.484203
v 24.381409 3.908378 23.494598
v 21.895607 4.246336 23.318415
v 24.275927 2.163823 22.237108
v 21.790127 2.501781 22.060926
v 23.163786 3.884703 23.641027
v 23.163786 3.884703 23.641027
v 23.030384 2.247560 22.254116
v 22.806564 2.734016 23.061855
v 21.834034 3.361062 22.793833
v 24.317827 2.991872 22.949183
v 23.918325 3.588251 20.984251
v 24.909073 2.168471 24.062326
v 22.386820 1.359423 20.633686
v 23.377567 -0.060357 23.711761
v 24.616381 2.761252 22.315388
v 22.979498 0.588511 22.096102
v 23.996361 1.161322 22.328186
v 24.253656 1.063337 23.855042
v 23.237291 2.443599 20.770256
v 23.557396 1.002095 23.285440
v 23.908245 0.186347 22.453856
v 22.768118 1.524253 22.532171
v 23.118969 0.708505 21.700588
v 23.798304 0.691175 22.860140
v 22.975155 1.155621 22.107368
v 23.426851 0.976944 22.299274
v 23.557030 0.458020 22.087015
v 23.192778 1.283215 22.905342
v 24.810703 1.082000 23.169151
v 24.453701 2.664182 22.482172
v 23.195030 0.206434 22.354231
v 22.838030 1.788615 21.667252
v 24.549597 1.885612 22.988794
v 22.977137 1.012150 22.080650
v 23.476870 1.575894 22.549917
v 23.658566 2.265088 22.141224
v 23.987007 0.667900 22.814686
v 22.674084 2.950430 19.942059
v 22.664907 1.184474 20.388376
v 23.423399 3.587463 22.025566
v 23.414223 1.821506 22.471882
v 22.433661 2.031712 20.251230
v 22.433661 2.031712 20.251230
v 23.312119 2.687874 22.287746
v 23.312119 2.687874 22.287746
v 22.667286 2.560863 21.444481
v 22.667286 2.560863 21.444481
v 22.938257 3.243452 20.898773
v 22.946905 1.494190 21.399654
v 21.616659 3.751899 21.500975
v 22.438116 2.997851 20.392347
v 22.630085 2.739597 22.816824
v 23.451542 1.985549 21.708199
v 21.928379 3.194937 20.902134
v 21.928379 3.194937 20.902134
v 22.996227 2.280981 22.242090
v 22.996227 2.280981 22.242090
v 22.327406 2.564525 21.732790
v 22.327406 2.564525 21.732790
v 22.032713 3.250291 22.089188
v 22.879601 2.468905 21.014662
v 22.945822 1.387423 20.660833
v 22.279402 0.498487 21.297777
v 23.392868 1.985340 21.813242
v 22.726448 1.096403 22.450186
v 22.485249 1.006445 20.997498
v 23.001873 1.569371 22.140104
v 22.709785 1.494625 21.589930
v 23.114283 1.684273 21.177013
v 22.458740 0.811497 21.843845
v 21.239573 2.904271 21.763697
v 23.425714 3.794329 21.985216
v 21.828505 1.034406 22.115993
v 24.014648 1.924463 22.337511
v 22.441698 3.346942 21.633947
v 22.971458 1.478591 22.118002
v 22.615196 2.190921 21.614063
v 21.514828 2.055336 21.845915
v 23.716503 2.896643 22.074869
v 22.821836 1.098789 20.315569
v 21.220932 1.760352 21.264481
v 23.817364 1.589352 21.714502
v 22.216461 2.250915 22.663414
v 21.983450 1.597911 20.764589
v 22.999350 1.996456 22.177689
v 22.694304 1.935343 21.425741
v 23.273369 1.363667 20.925827
v 21.698410 2.038968 21.910652
v 22.697338 4.588532 20.500761
v 23.598892 5.870331 21.666201
v 23.018171 2.888391 21.786798
v 23.919725 4.170190 22.952236
v 23.373461 5.226253 21.013123
v 23.373461 5.226253 21.013123
v 23.571119 3.528173 22.337978
v 23.634068 4.121119 21.550116
v 22.901035 3.811495 21.044392
v 23.812263 5.048852 22.242455
v 22.079058 5.072728 24.307194
v 21.588949 5.899733 22.646393
v 23.056580 3.434710 23.349482
v 22.566469 4.261714 21.688681
v 21.651205 5.398982 23.423334
v 22.728704 3.808948 22.494480
v 22.110277 4.312437 23.027554
v 22.466797 4.302500 23.878080
v 22.000910 5.086201 22.192438
v 21.949762 6.127968 23.126614
v 21.735201 5.807533 21.991703
v 22.638947 4.881526 23.285070
v 22.424385 4.561091 22.150160
v 21.729635 5.895153 22.555471
v 22.480560 4.688385 22.715664
v 22.051445 5.170306 22.769613
v 22.226694 5.549698 23.208220
v 22.029291 5.196488 22.077660
v 22.011763 2.932990 22.866074
v 20.781670 1.487781 22.128874
v 23.595098 1.559415 22.433506
v 22.365005 0.114206 21.696304
v 21.332470 2.066408 22.665037
v 22.950680 0.771313 22.140526
v 22.311699 1.339136 22.639061
v 22.715219 2.287349 22.730793
v 21.526060 0.805833 21.983692
v 24.711706 2.477956 20.994253
v 22.911077 2.210100 20.746859
v 24.412931 3.228222 22.502340
v 22.612305 2.960366 22.254946
v 23.742455 2.477414 20.798801
v 23.480980 3.154570 22.346119
v 23.721359 3.037756 21.618921
v 24.574984 2.858199 21.651577
v 22.766542 2.610797 21.442884
v 25.368135 2.479329 22.869366
v 24.641348 1.550165 21.535036
v 23.824900 3.572653 23.085272
v 23.098110 2.643489 21.750942
v 25.048193 2.118045 22.043816
v 23.480980 3.154570 22.346119
v 24.295193 2.922004 22.188332
v 24.696360 3.011086 22.931452
v 23.929985 2.111223 21.601944
v 23.417397 4.481094 22.251352
v 23.417397 4.481094 22.251352
v 22.725464 5.931410 22.278858
v 22.725464 5.931410 22.278858
v 23.036829 5.228232 22.129147
v 23.036829 5.228232 22.129147
v 22.369408 5.644278 22.528660
v 22.546303 4.931524 22.435987
v 23.056665 6.135700 22.409969
v 23.553156 5.477506 22.256557
v 23.619827 4.611123 22.301582
v 23.067722 4.216341 22.396933
v 23.426743 5.243340 22.271881
v 23.426743 5.243340 22.271881
v 23.608366 6.144779 21.926695
v 23.608366 6.144779 21.926695
v 23.440985 5.739995 22.106951
v 23.440985 5.739995 22.106951
v 23.779398 6.173003 22.166628
v 23.660322 5.822751 22.397997
v 23.663780 6.040068 21.718327
v 23.476831 5.561393 21.812881
v 23.442965 5.185796 22.143309
v 23.535845 5.292589 22.503448
v 22.404057 5.426882 22.910509
v 22.404057 5.426882 22.910509
v 22.428503 6.302053 23.189060
v 22.428503 6.302053 23.189060
v 22.386681 5.911066 22.986469
v 22.386681 5.911066 22.986469
v 22.235060 6.204993 23.361086
v 22.137831 5.832651 23.212921
v 22.644587 6.289631 23.215254
v 22.696817 5.873491 22.980217
v 22.533154 5.427739 22.911200
v 22.204163 5.359746 23.028353
v 22.642466 3.942012 22.517456
v 22.642466 3.942012 22.517456
v 22.670345 5.042222 23.997950
v 22.670345 5.042222 23.997950
v 22.564844 4.368721 23.385838
v 22.564844 4.368721 23.385838
v 23.302341 4.917654 23.962643
v 23.364227 4.248846 23.422682
v 22.408878 5.455356 23.764015
v 22.121843 4.876397 23.025770
v 22.455801 4.170063 22.396423
v 23.173561 3.738103 22.555988
v 23.340513 2.796886 22.332909
v 23.340513 2.796886 22.332909
v 23.928921 3.901658 22.837234
v 23.928921 3.901658 22.837234
v 23.539101 3.391724 22.713379
v 23.539101 3.391724 22.713379
v 24.300396 3.485420 22.944561
v 24.031569 2.915998 22.886759
v 23.888714 4.146045 22.468899
v 23.401009 3.728807 22.197847
v 23.290817 2.958003 22.129873
v 23.621542 2.427294 22.511995
v 23.100054 2.180018 22.240248
v 23.623896 0.922499 23.841497
v 23.507929 1.581878 23.057003
v 23.264864 1.537323 24.240753
v 23.088360 2.311330 23.643394
v 23.566662 0.352726 23.545561
v 23.470396 0.797940 22.540308
v 23.097260 1.831597 22.053165
v 22.854811 2.783237 22.611643
v 22.642466 3.942012 22.517456
v 22.642466 3.942012 22.517456
v 21.360500 5.268146 22.066919
v 21.360500 5.268146 22.066919
v 21.921616 4.517463 22.141768
v 21.921616 4.517463 22.141768
v 21.096233 5.052748 22.623669
v 21.516237 4.295697 22.816837
v 21.712673 5.672005 21.987385
v 22.475245 5.018380 21.966858
v 22.848963 4.172109 22.432779
v 22.353748 3.674632 22.943933
v 23.358593 5.848311 23.321722
v 23.371780 6.351255 22.249557
v 23.507149 4.533775 22.817602
v 23.520338 5.036719 21.745438
v 23.179651 6.076291 22.799414
v 23.179651 6.076291 22.799414
v 23.430170 4.788414 22.258345
v 23.385275 5.710402 22.003067
v 23.374062 5.181271 23.065176
v 23.174627 5.430394 22.526802
v 23.670376 3.052504 23.285675
v 23.317230 3.833310 22.680569
v 23.610638 2.409284 22.639542
v 23.257492 3.190090 22.034435
v 23.332760 3.390615 23.054218
v 23.332760 3.390615 23.054218
v 23.351524 2.797446 22.352556
v 23.235289 3.510206 22.386311
v 23.586361 2.716427 22.978893
v 23.225178 3.071861 22.748539
v 22.825117 2.987708 23.922058
v 20.980207 2.065487 23.050566
v 23.920530 1.938283 22.514282
v 22.075623 1.016061 21.642790
v 21.956591 2.278089 23.698507
v 21.956591 2.278089 23.698507
v 22.971870 1.339452 22.150629
v 21.516155 1.473120 22.430313
v 23.382917 2.373085 23.274866
v 22.470427 1.628672 23.069056
v 25.103781 4.035965 21.420103
v 24.021645 5.315597 21.855841
v 24.093639 2.748387 22.013929
v 23.011503 4.028019 22.449667
v 23.560181 3.439398 22.327385
v 24.638716 4.718961 21.825432
v 24.638716 4.718961 21.825432
v 24.257046 4.074934 22.186134
v 24.594027 3.354058 21.797234
v 23.513823 4.636202 22.231712
v 22.712984 3.404036 20.936993
v 22.692026 4.331702 21.858913
v 23.316084 2.334827 21.833447
v 23.295124 3.262493 22.755367
v 23.373272 2.857017 22.302181
v 22.853228 3.946127 21.364719
v 22.853228 3.946127 21.364719
v 23.220276 3.440971 21.723957
v 23.085480 2.852463 21.400841
v 23.063259 3.782192 22.321030
v 24.494732 2.166261 22.646646
v 23.697895 2.456434 23.510597
v 24.023823 3.326550 21.892570
v 23.226986 3.616722 22.756519
v 23.560181 3.439398 22.327385
v 23.995720 2.224218 23.037647
v 23.757669 2.708662 22.618792
v 24.213936 2.757031 22.224861
v 23.418068 3.044976 23.090317
vn 0.9998 0.0016 -0.0214
vn 0.9856 0.1431 -0.0904
vn 0.9847 0.1474 -0.0925
vn 0.9998 0.0015 -0.0214
vn -0.0584 -0.0011 0.9983
vn 0.0540 0.1612 0.9854
vn 0.0787 0.1965 0.9773
vn -0.9116 0.0038 0.4110
vn -0.8939 -0.0913 0.4388
vn -0.8987 -0.0700 0.4329
vn -0.9801 0.0177 -0.1977
vn -0.1179 0.0152 -0.9929
vn -0.2157 -0.1721 -0.9612
vn -0.2191 -0.1787 -0.9592
vn -0.1178 0.0152 -0.9929
vn 0.5575 0.0101 -0.8301
vn 0.6743 0.0463 -0.7370
vn 0.6806 0.0484 -0.7310
vn 0.9761 0.1927 -0.1005
vn 0.9806 0.1748 -0.0892
vn 0.1901 0.3531 0.9161
vn -0.8854 -0.1317 0.4459
vn -0.8821 -0.1333 0.4519
vn -0.3059 -0.3564 -0.8828
vn 0.7628 0.1342 -0.6326
vn 0.7631 0.1331 -0.6324
vn 0.9973 -0.0739 0.0034
vn 0.9558 -0.0426 -0.2909
vn 0.2758 -0.1735 0.9454
vn 0.2537 -0.1037 0.9617
vn 0.2533 -0.1026 0.9619
vn -0.9817 0.0838 0.1712
vn -0.8854 -0.1317 0.4457
vn -0.9832 0.0816 0.1631
vn -0.9817 0.0838 0.1711
vn -0.4584 0.1536 -0.8754
vn -0.3962 0.1185 -0.9105
vn -0.3974 0.1191 -0.9099
vn 0.8345 -0.0049 -0.5509
vn 0.8331 -0.2104 -0.5116
vn 0.2754 -0.1420 0.9508
vn 0.2766 -0.1449 0.9500
vn -0.5005 0.1399 0.8544
vn -0.5086 0.1194 0.8527
vn -0.5093 0.1177 0.8525
vn -0.9435 0.3170 0.0969
vn -0.9419 0.3227 0.0932
vn -0.3246 0.1835 -0.9279
vn -0.3240 0.1892 -0.9269
vn 0.8383 -0.2088 -0.5036
vn 0.9281 -0.3722 0.0123
vn 0.9649 -0.2540 0.0666
vn 0.9646 -0.2555 0.0659
vn 0.3175 -0.2504 0.9146
vn -0.5172 0.0977 0.8503
vn -0.9188 0.3921 0.0465
vn -0.3116 0.2860 -0.9061
vn -0.3116 0.2860 -0.9062
vn 0.6845 -0.0706 -0.7256
vn 0.6916 -0.0801 -0.7178
vn 0.8847 -0.0811 0.4591
vn 0.9851 -0.0536 0.1633
vn 0.5747 -0.1965 0.7944
vn 0.6918 -0.0969 0.7156
vn 0.8846 -0.0811 0.4592
vn -0.5589 -0.0408 0.8282
vn -0.5564 -0.0240 0.8306
vn -0.5563 -0.0235 0.8307
vn -0.9831 0.1505 -0.1044
vn -0.8914 0.0868 -0.4448
vn -0.9859 0.0759 -0.1491
vn -0.6145 0.1883 -0.7661
vn -0.7135 0.0936 -0.6944
vn -0.8913 0.0868 -0.4450
vn 0.5589 0.0515 -0.8276
vn 0.5590 0.0519 -0.8275
vn 0.7478 0.0579 0.6614
vn 0.7404 0.0612 0.6694
vn 0.7478 0.0581 0.6614
vn -0.5519 0.0679 0.8312
vn -0.5520 0.0681 0.8311
vn -0.7977 0.0400 -0.6018
vn -0.7810 0.0379 -0.6233
vn 0.5296 0.0202 -0.8480
vn 0.5297 0.0203 -0.8479
vn -0.5472 0.1403 0.8251
vn -0.5468 0.1404 0.8254
vn -0.8940 0.0910 -0.4386
vn -0.9734 0.0980 -0.2073
vn -0.7645 0.0789 -0.6398
vn 0.0183 0.2710 -0.9624
vn -0.0352 0.2421 -0.9696
vn -0.0337 0.2428 -0.9695
vn 0.7276 0.2503 -0.6388
vn 0.6973 0.3363 -0.6330
vn 0.6863 0.3635 -0.6300
vn 0.9919 0.0702 0.1062
vn 0.9468 0.1971 0.2545
vn 0.9539 0.1828 0.2379
vn -0.0347 -0.2587 0.9653
vn 0.1084 -0.1887 0.9760
vn 0.0984 -0.1938 0.9761
vn -0.5905 -0.2584 0.7645
vn -0.6060 -0.3374 0.7203
vn -0.6064 -0.3400 0.7188
vn -0.9649 -0.0089 -0.2624
vn -0.9402 -0.1470 -0.3072
vn -0.9374 -0.1579 -0.3104
vn -0.2293 0.1614 -0.9599
vn -0.2404 0.1572 -0.9579
vn 0.6673 0.3129 -0.6759
vn 0.6674 0.3111 -0.6766
vn 0.9254 0.1847 0.3308
vn 0.9231 0.1915 0.3336
vn 0.3110 -0.0967 0.9455
vn 0.3062 -0.0982 0.9469
vn -0.6366 -0.2859 0.7162
vn -0.6365 -0.2866 0.7160
vn -0.9481 -0.1833 -0.2598
vn -0.9512 -0.1758 -0.2536
vn -0.3769 0.1014 -0.9207
vn 0.6709 0.1765 -0.7202
vn 0.6709 0.1765 -0.7203
vn 0.9566 0.0711 0.2825
vn 0.9567 0.0711 0.2824
vn 0.3780 -0.0742 0.9228
vn 0.3779 -0.0742 0.9229
vn -0.6440 -0.1522 0.7497
vn -0.6441 -0.1522 0.7496
vn -0.9851 -0.0639 -0.1599
vn -0.1052 0.9426 0.3169
vn -0.1051 0.9426 0.3168
vn 0.1565 0.9866 0.0452
vn 0.5051 0.0068 -0.8631
vn 0.9982 0.0406 -0.0438
vn 0.7403 0.0612 0.6695
vn 0.6931 0.1161 0.7114
vn 0.6931 0.1162 0.7114
vn -0.3650 0.6404 -0.6758
vn -0.5348 0.4987 -0.6822
vn -0.6278 0.5479 -0.5528
vn -0.4202 0.6886 -0.5910
vn -0.6282 0.6296 -0.4571
vn -0.7431 0.3718 -0.5564
vn -0.7953 0.4564 -0.3990
vn -0.4783 0.7339 -0.4823
vn -0.6948 0.3095 -0.6492
vn -0.2025 0.2015 0.9583
vn -0.3767 0.2680 0.8867
vn -0.4489 0.1630 0.8786
vn -0.2419 0.1304 0.9615
vn -0.4396 0.0711 0.8954
vn -0.5845 0.2441 0.7738
vn -0.6197 0.1046 0.7778
vn -0.2874 0.0432 0.9568
vn -0.5557 0.3305 0.7629
vn -0.0507 0.2469 0.9677
vn 0.2859 0.2037 0.9363
vn 0.0237 0.3254 0.9453
vn 0.2995 0.3206 0.8986
vn 0.4448 0.0224 0.8953
vn 0.5351 0.1741 0.8266
vn 0.1099 0.4118 0.9046
vn 0.3815 -0.0709 0.9216
vn 0.3815 -0.0710 0.9216
vn -0.0271 -0.2039 0.9786
vn -0.1682 -0.0537 0.9843
vn -0.3207 -0.1404 0.9367
vn -0.1261 -0.2826 0.9509
vn -0.3632 -0.2695 0.8919
vn -0.4155 0.0237 0.9093
vn -0.5422 -0.1211 0.8315
vn -0.2296 -0.3614 0.9037
vn -0.3204 0.1203 0.9396
vn 0.1326 -0.4944 0.8591
vn 0.1326 -0.4943 0.8591
vn -0.1872 -0.6263 0.7568
vn 0.1093 -0.6190 0.7778
vn -0.1307 -0.7560 0.6414
vn -0.4035 -0.5290 0.7466
vn -0.4033 -0.7120 0.5748
vn 0.0783 -0.7494 0.6575
vn -0.3878 -0.3764 0.8414
vn 0.7404 -0.3072 -0.5978
vn 0.8167 -0.3529 -0.4566
vn 0.7429 -0.5156 -0.4269
vn 0.6791 -0.4054 -0.6120
vn 0.6323 -0.6007 -0.4892
vn 0.8018 -0.5341 -0.2680
vn 0.6689 -0.6796 -0.3011
vn 0.5865 -0.5233 -0.6182
vn 0.8859 -0.4009 -0.2334
vn 0.6907 0.7148 -0.1097
vn 0.7677 0.5932 -0.2422
vn 0.6864 0.6261 -0.3699
vn 0.6321 0.7518 -0.1876
vn 0.5960 0.6922 -0.4069
vn 0.7497 0.4751 -0.4607
vn 0.6262 0.5388 -0.5636
vn 0.5544 0.7849 -0.2767
vn 0.8201 0.4243 -0.3839
vn -0.4034 0.0558 0.9133
vn -0.4557 0.2644 0.8500
vn -0.5871 0.2463 0.7711
vn -0.4914 0.0324 0.8703
vn -0.6548 0.1576 0.7392
vn -0.5809 0.4385 0.6858
vn -0.7130 0.3586 0.6025
vn -0.5868 0.0051 0.8097
vn -0.4870 0.4825 0.7280
vn -0.9351 0.3440 0.0850
vn -0.8894 0.3788 0.2559
vn -0.9034 0.3713 0.2143
vn -0.8440 -0.1291 0.5206
vn -0.8853 -0.1748 0.4309
vn -0.8966 -0.1892 0.4004
vn -0.8339 0.3972 0.3833
vn -0.8339 0.3970 0.3833
vn -0.9239 -0.2319 0.3044
vn -0.8622 -0.4968 0.0989
vn -0.7748 -0.5926 0.2201
vn -0.8067 -0.5628 0.1805
vn -0.4575 -0.8844 -0.0919
vn -0.5063 -0.8422 -0.1856
vn -0.5164 -0.8310 -0.2066
vn -0.6998 -0.6483 0.3001
vn -0.5570 -0.7757 -0.2967
vn -0.6752 0.6934 -0.2516
vn -0.8411 0.5349 -0.0795
vn -0.7668 0.6414 0.0237
vn -0.6460 0.7516 -0.1330
vn -0.7371 0.6592 0.1487
vn -0.8892 0.4352 0.1411
vn -0.8308 0.4988 0.2470
vn -0.5892 0.8075 0.0276
vn -0.9226 0.3813 0.0589
vn -0.1396 -0.0620 -0.9883
vn 0.1400 -0.0006 -0.9902
vn 0.1419 -0.1942 -0.9706
vn -0.0724 -0.2220 -0.9724
vn 0.2296 -0.3247 -0.9175
vn 0.3750 -0.0824 -0.9234
vn 0.4089 -0.2416 -0.8800
vn 0.0108 -0.4042 -0.9146
vn 0.3407 0.0451 -0.9391
vn 0.2152 0.7916 -0.5718
vn 0.0615 0.8796 -0.4718
vn 0.1703 0.9063 -0.3867
vn 0.2782 0.8290 -0.4852
vn 0.2053 0.9364 -0.2847
vn -0.0023 0.9526 -0.3041
vn 0.0767 0.9728 -0.2185
vn 0.3577 0.8626 -0.3577
vn -0.0690 0.9252 -0.3732
vn 0.6691 -0.2390 -0.7037
vn 0.8593 -0.2421 -0.4505
vn 0.7102 -0.3430 -0.6148
vn 0.8835 -0.3186 -0.3434
vn 0.9606 -0.0462 -0.2741
vn 0.9675 -0.1655 -0.1913
vn 0.7413 -0.4635 -0.4855
vn 0.9429 0.0409 -0.3307
vn 0.9429 0.0409 -0.3306
vn -0.8225 -0.4976 0.2755
vn -0.9051 -0.4244 0.0241
vn -0.8298 -0.5581 0.0007
vn -0.7768 -0.5932 0.2115
vn -0.7764 -0.6251 -0.0809
vn -0.8811 -0.4237 -0.2103
vn -0.8123 -0.5236 -0.2569
vn -0.6968 -0.7071 0.1203
vn -0.9223 -0.3448 -0.1744
vn -0.8296 -0.2702 0.4886
vn -0.8988 -0.3556 0.2564
vn -0.8254 -0.4703 0.3123
vn -0.7838 -0.3640 0.5031
vn -0.7733 -0.5628 0.2920
vn -0.8666 -0.4951 0.0618
vn -0.8017 -0.5897 0.0974
vn -0.6970 -0.4996 0.5144
vn -0.9104 -0.4125 0.0322
vn -0.0238 -0.1454 0.9891
vn -0.1816 -0.3326 0.9254
vn -0.0363 -0.4054 0.9134
vn 0.0676 -0.2202 0.9731
vn 0.0329 -0.4981 0.8665
vn -0.2178 -0.5495 0.8066
vn -0.1013 -0.6095 0.7863
vn 0.2038 -0.3275 0.9226
vn -0.3184 -0.4881 0.8126
vn 0.1477 0.8414 -0.5199
vn -0.0712 0.8384 -0.5404
vn -0.0525 0.9091 -0.4132
vn 0.1224 0.8998 -0.4187
vn -0.1048 0.9433 -0.3151
vn -0.2523 0.8555 -0.4523
vn -0.2582 0.9042 -0.3402
vn 0.0858 0.9580 -0.2737
vn -0.2448 0.8066 -0.5380
vn 0.5717 0.6806 -0.4582
vn 0.4444 0.5808 -0.6820
vn 0.3445 0.6962 -0.6298
vn 0.4661 0.7573 -0.4575
vn 0.2265 0.7368 -0.6370
vn 0.2455 0.5368 -0.8072
vn 0.1408 0.6144 -0.7763
vn 0.3132 0.8392 -0.4446
vn 0.3215 0.4720 -0.8209
vn 0.2546 -0.0296 -0.9666
vn 0.1974 0.1312 -0.9715
vn 0.1923 0.1448 -0.9706
vn 0.2545 -0.0296 -0.9666
vn -0.4281 -0.1503 -0.8911
vn -0.5306 -0.0380 -0.8468
vn -0.4371 -0.1410 -0.8883
vn 0.1337 0.2903 -0.9475
vn 0.1337 0.2903 -0.9476
vn -0.3233 -0.2513 -0.9123
vn -0.9932 -0.0112 -0.1161
vn -0.9626 0.1441 -0.2296
vn -0.9686 0.1244 -0.2155
vn -0.7997 0.3882 0.4580
vn -0.7378 0.5167 0.4344
vn -0.8036 0.3785 0.4594
vn -0.9105 0.2669 -0.3159
vn -0.8482 0.2391 0.4727
vn -0.8482 0.2390 0.4727
vn 0.0005 0.1540 -0.9881
vn 0.0424 0.3296 -0.9432
vn 0.0400 0.3200 -0.9466
vn 0.0003 0.1540 -0.9881
vn -0.6717 0.2785 -0.6865
vn -0.6959 0.4006 -0.5960
vn -0.6726 0.2821 -0.6841
vn 0.0784 0.4760 -0.8760
vn 0.0784 0.4759 -0.8760
vn -0.6321 0.1516 -0.7599
vn -0.6321 0.1515 -0.7599
vn -0.8053 -0.5579 0.2007
vn -0.8249 -0.4355 0.3603
vn -0.8251 -0.4219 0.3758
vn -0.1754 -0.7605 0.6252
vn -0.1110 -0.6452 0.7559
vn -0.1738 -0.7578 0.6289
vn -0.8105 -0.2929 0.5072
vn -0.2335 -0.8490 0.4739
vn -0.9411 0.1075 0.3205
vn -0.8628 0.3027 0.4048
vn -0.8475 0.3303 0.4156
vn -0.4624 -0.1095 0.8799
vn -0.2925 0.0176 0.9561
vn -0.2924 0.0176 0.9561
vn -0.4351 -0.0882 0.8960
vn -0.7319 0.4920 0.4714
vn -0.7320 0.4920 0.4713
vn -0.5884 -0.2132 0.7800
vn -0.5884 -0.2132 0.7799
vn 0.9229 0.3432 -0.1747
vn 0.9611 0.2663 -0.0733
vn 0.9739 0.0771 -0.2136
vn 0.9257 0.1753 -0.3351
vn 0.9006 0.4280 0.0759
vn 0.9043 0.3772 0.1999
vn 0.9847 0.1728 0.0238
vn 0.9931 0.0008 -0.1173
vn 0.8836 0.4669 -0.0364
vn 0.1167 -0.4379 -0.8914
vn -0.0009 -0.3036 -0.9528
vn -0.0148 -0.2869 -0.9579
vn -0.5243 -0.6393 -0.5625
vn -0.6566 -0.5237 -0.5428
vn -0.5308 -0.6344 -0.5620
vn -0.1224 -0.1533 -0.9806
vn -0.3801 -0.7325 -0.5648
vn -0.9509 -0.1222 0.2843
vn -0.9904 -0.1214 -0.0661
vn -0.9559 -0.2295 0.1833
vn -0.9632 -0.2386 -0.1241
vn -0.9472 -0.0066 -0.3205
vn -0.9297 -0.1397 -0.3409
vn -0.9430 -0.3203 0.0904
vn -0.9481 0.1134 -0.2970
vn -0.9481 0.1136 -0.2970
vn -0.7298 -0.3408 0.5926
vn -0.7299 -0.3407 0.5926
vn -0.9379 -0.2348 0.2555
vn -0.7951 -0.4443 0.4128
vn -0.9313 -0.3525 0.0914
vn -0.9984 -0.0038 0.0558
vn -0.9850 -0.1573 -0.0706
vn -0.8212 -0.5172 0.2410
vn -0.9770 0.1330 0.1664
vn 0.2699 -0.5614 0.7823
vn 0.2697 -0.5614 0.7823
vn 0.1002 -0.7896 0.6054
vn 0.3233 -0.6609 0.6773
vn 0.1787 -0.8571 0.4832
vn -0.1233 -0.8611 0.4933
vn -0.0081 -0.9180 0.3965
vn 0.3705 -0.7473 0.5516
vn -0.2362 -0.7812 0.5779
vn 0.2031 0.0856 0.9754
vn 0.3260 -0.0418 0.9445
vn 0.4375 0.0451 0.8981
vn 0.2547 0.1913 0.9479
vn 0.6695 -0.0372 0.7419
vn 0.5432 -0.1138 0.8319
vn 0.6694 -0.0372 0.7420
vn 0.4387 -0.1686 0.8827
vn 0.3047 0.2986 0.9044
vn 0.9480 0.3180 -0.0138
vn 0.9686 0.1881 -0.1628
vn 0.9237 0.2729 -0.2689
vn 0.9074 0.4167 -0.0542
vn 0.8267 0.1577 -0.5401
vn 0.9079 0.0977 -0.4076
vn 0.8266 0.1577 -0.5402
vn 0.9512 0.0523 -0.3040
vn 0.8494 0.5186 -0.0977
vn -0.8245 -0.4252 -0.3734
vn -0.7337 -0.4591 -0.5009
vn -0.6869 -0.5623 -0.4603
vn -0.8207 -0.4839 -0.3038
vn -0.6649 -0.6321 -0.3979
vn -0.5494 -0.5730 -0.6082
vn -0.4737 -0.6728 -0.5682
vn -0.6043 -0.4838 -0.6331
vn -0.8057 -0.5536 -0.2106
vt 0.966382 8.503631
vt 0.966382 6.725045
vt 0.810921 6.725045
vt 0.810921 8.503631
vt 0.189079 8.503631
vt 0.189079 6.725048
vt 0.033618 6.725048
vt 0.033618 8.503633
vt 0.344539 8.503631
vt 0.344539 6.725048
vt 0.500000 8.503631
vt 0.655461 8.503631
vt 0.655461 6.725048
vt 0.500000 6.725048
vt 0.966382 4.946462
vt 0.810921 4.946462
vt 0.189079 4.946462
vt 0.033618 4.946462
vt 0.344539 4.946462
vt 0.655461 4.946462
vt 0.500000 4.946462
vt 0.966382 3.167876
vt 0.810921 3.167876
vt 0.189079 3.167876
vt 0.033618 3.167878
vt 0.500000 3.167876
vt 0.344539 3.167876
vt 0.655461 3.167876
vt 0.810921 1.389293
vt 0.189079 1.389293
vt 0.033618 1.389293
vt 0.344539 1.389293
vt 0.500000 1.389293
vt 0.655461 1.389293
vt 0.966382 1.389293
vt 0.966382 -0.389294
vt 0.810921 -0.389293
vt 0.189079 -0.389293
vt 0.033618 -0.389292
vt 0.344539 -0.389293
vt 0.500000 -0.389293
vt 0.655461 -0.389293
vt 0.966382 -2.167878
vt 0.810921 -2.167878
vt 0.189079 -2.167876
vt 0.033618 -2.167876
vt 0.344539 -2.167877
vt 0.500000 -2.167877
vt 0.655461 -2.167877
vt 0.810921 -3.946462
vt 0.189079 -3.946462
vt 0.033618 -3.946462
vt 0.344539 -3.946462
vt 0.655461 -3.946462
vt 0.500000 -3.946462
vt 0.344539 -5.725046
vt 0.189079 -5.725045
vt 0.500000 -5.725046
vt 0.655461 -5.725046
vt 0.966382 -7.503632
vt 0.810921 -7.503630
vt 0.189079 -7.503630
vt 0.033618 -7.503630
vt 0.344539 -7.503630
vt 0.500000 -7.503630
vt 0.655461 -7.503630
vt 0.000000 0.000000
vt 0.475004 0.000000
vt 0.581436 0.594393
vt 0.000000 0.491831
vt 0.494355 1.000000
vt 1.000000 0.474417
vt 1.000000 1.000000
vt 0.000000 1.000000
vt 1.000000 0.000000
vt 0.533479 0.000000
vt 0.447807 0.563622
vt 0.000000 0.448746
vt 0.515396 1.000000
vt 1.000000 0.474699
vt 0.509433 1.000000
vt 0.557025 0.488493
vt 0.943530 0.531260
vt 0.672370 1.000000
vt 0.124045 0.440587
vt 0.259966 0.000000
vt 0.602475 0.000000
vt 0.860970 0.000000
vt 0.189556 1.000000
vt 0.480173 0.000000
vt 0.499095 0.494221
vt 0.000000 0.504135
vt 0.518459 1.000000
vt 1.000000 0.484268
vt 0.532232 1.000000
vt 0.477364 0.470556
vt 1.000000 0.533264
vt 0.516556 0.000000
vt 0.000000 0.535225
s 1
usemtl trunk-01
f 3/1/1 16/2/2 25/3/3
f 3/1/1 25/3/3 14/4/4
f 6/5/5 18/6/6 15/7/7
f 6/5/5 15/7/7 1/8/5
f 5/9/8 20/10/9 17/6/10
s 0
f 8/11/11 19/10/11 4/9/11
s 1
f 11/12/12 22/13/13 21/14/14
f 11/12/12 21/14/14 9/11/15
f 13/4/16 24/3/17 23/13/18
f 16/2/2 28/15/19 40/16/20
f 16/2/2 40/16/20 25/3/3
f 18/6/6 30/17/21 26/18/21
f 18/6/6 26/18/21 15/7/7
f 20/10/9 32/19/22 29/17/23
f 20/10/9 29/17/23 17/6/10
f 22/13/13 37/20/24 35/21/24
f 22/13/13 35/21/24 21/14/14
f 24/3/17 39/16/25 38/20/26
f 24/3/17 38/20/26 23/13/18
f 28/15/19 42/22/27 51/23/28
f 28/15/19 51/23/28 40/16/20
f 31/17/29 46/24/30 41/25/31
f 31/17/29 41/25/31 27/18/29
f 32/19/22 43/24/32 29/17/23
f 33/21/33 47/26/34 44/27/35
f 36/20/36 49/28/37 48/26/38
f 36/20/36 48/26/38 34/21/36
f 39/16/25 51/23/28 50/28/39
f 39/16/25 50/28/39 38/20/26
f 42/22/27 53/29/40 51/23/28
f 46/24/30 56/30/41 52/31/42
f 46/24/30 52/31/42 41/25/31
f 45/27/43 58/32/44 55/30/45
f 47/26/34 59/33/46 57/32/47
f 47/26/34 57/32/47 44/27/35
f 49/28/37 61/34/48 60/33/49
f 49/28/37 60/33/49 48/26/38
f 51/23/28 53/29/40 62/34/50
f 51/23/28 62/34/50 50/28/39
f 54/35/51 156/36/52 76/37/53
f 56/30/41 66/38/54 152/39/54
f 56/30/41 152/39/54 52/31/42
f 58/32/44 74/40/55 65/38/55
f 58/32/44 65/38/55 55/30/45
f 59/33/46 159/41/56 71/40/56
f 59/33/46 71/40/56 57/32/47
f 61/34/48 147/42/57 162/41/58
f 61/34/48 162/41/58 60/33/49
f 53/29/40 75/37/59 149/42/60
f 53/29/40 149/42/60 62/34/50
f 156/36/52 78/43/61 88/44/62
f 156/36/52 88/44/62 76/37/53
f 68/38/63 80/45/64 77/46/65
f 68/38/63 77/46/65 154/39/63
f 73/40/66 82/47/67 79/45/68
f 73/40/66 79/45/68 64/38/66
f 158/41/69 84/48/70 81/47/71
f 158/41/69 81/47/71 70/40/69
f 145/42/72 85/49/73 83/48/74
f 145/42/72 83/48/74 160/41/72
f 75/37/59 87/44/75 86/49/76
f 75/37/59 86/49/76 149/42/60
f 78/43/61 99/50/77 88/44/62
f 80/45/64 90/51/78 97/52/79
f 80/45/64 97/52/79 77/46/65
f 82/47/67 94/53/80 89/51/81
f 82/47/67 89/51/81 79/45/68
f 84/48/70 92/53/82 81/47/71
f 85/49/73 163/54/83 93/55/82
f 85/49/73 93/55/82 83/48/74
f 87/44/75 96/50/84 165/54/85
f 87/44/75 165/54/85 86/49/76
f 94/53/80 103/56/86 101/57/87
f 94/53/80 101/57/87 89/51/81
f 93/55/82 104/58/88 102/56/89
f 163/54/83 166/59/90 104/58/88
f 163/54/83 104/58/88 93/55/82
f 106/1/91 121/22/92 132/23/93
f 106/1/91 132/23/93 120/4/91
f 107/5/94 123/24/95 122/25/96
f 112/9/97 126/27/98 124/24/99
f 112/9/97 124/24/99 108/5/97
f 116/11/100 128/26/101 125/27/102
f 116/11/100 125/27/102 111/9/100
f 114/12/103 130/28/104 127/26/105
f 117/4/106 131/23/107 129/28/108
f 117/4/106 129/28/108 113/12/106
f 121/22/92 133/43/109 144/44/110
f 121/22/92 144/44/110 132/23/93
f 123/24/95 135/45/111 134/46/112
f 123/24/95 134/46/112 122/25/96
f 126/27/98 138/47/113 136/45/114
f 126/27/98 136/45/114 124/24/99
f 128/26/101 140/48/115 137/47/116
f 128/26/101 137/47/116 125/27/102
f 130/28/104 142/49/117 139/48/118
f 130/28/104 139/48/118 127/26/105
f 131/23/107 143/44/119 141/49/120
f 131/23/107 141/49/120 129/28/108
f 133/43/109 146/60/121 161/61/121
f 133/43/109 161/61/121 144/44/110
f 135/45/111 150/62/122 148/63/123
f 135/45/111 148/63/123 134/46/112
f 138/47/113 155/64/124 151/62/125
f 138/47/113 151/62/125 136/45/114
f 140/48/115 67/65/126 153/64/127
f 140/48/115 153/64/127 137/47/116
f 142/49/117 72/66/128 63/65/129
f 142/49/117 63/65/129 139/48/118
f 143/44/119 157/61/130 69/66/130
f 143/44/119 69/66/130 141/49/120
s 0
f 119/4/131 115/12/131 110/9/131
f 118/4/132 109/9/132 105/5/132
s 1
f 12/12/133 10/11/133 7/9/133
f 12/12/133 7/9/133 2/8/133
f 95/53/84 168/56/134 167/57/134
f 95/53/84 167/57/134 164/51/85
s 0
f 100/55/135 171/58/135 169/56/135
s 1
f 91/54/136 172/59/137 170/58/138
f 91/54/136 170/58/138 98/55/79
usemtl branch-02
f 173/67/139 177/68/140 179/69/141
f 173/67/139 179/69/141 181/70/142
f 178/71/143 179/69/141 180/72/144
f 178/71/143 180/72/144 176/73/145
f 181/70/142 179/69/141 178/71/143
f 181/70/142 178/71/143 175/74/146
f 180/72/144 179/69/141 177/68/140
f 180/72/144 177/68/140 174/75/147
f 182/67/148 186/68/149 188/69/150
f 182/67/148 188/69/150 190/70/151
f 187/71/152 188/69/150 189/72/153
f 187/71/152 189/72/153 185/73/154
f 190/70/151 188/69/150 187/71/152
f 190/70/151 187/71/152 184/74/155
f 189/72/153 188/69/150 186/68/149
f 189/72/153 186/68/149 183/75/156
f 191/67/157 195/68/157 198/69/158
f 191/67/157 198/69/158 200/70/159
f 197/71/160 198/69/158 199/72/161
f 197/71/160 199/72/161 194/73/162
f 200/70/159 198/69/158 197/71/160
f 200/70/159 197/71/160 193/74/163
f 199/72/161 198/69/158 196/68/164
f 199/72/161 196/68/164 192/75/165
f 201/67/166 205/68/167 207/69/168
f 201/67/166 207/69/168 209/70/169
f 206/71/170 207/69/168 208/72/171
f 206/71/170 208/72/171 204/73/172
f 209/70/169 207/69/168 206/71/170
f 209/70/169 206/71/170 203/74/173
f 208/72/171 207/69/168 205/68/167
f 208/72/171 205/68/167 202/75/174
f 210/67/175 215/68/176 217/69/177
f 210/67/175 217/69/177 219/70/178
f 216/71/179 217/69/177 218/72/180
f 216/71/179 218/72/180 213/73/181
f 219/70/178 217/69/177 216/71/179
f 219/70/178 216/71/179 212/74/182
f 218/72/180 217/69/177 214/68/183
f 218/72/180 214/68/183 211/75/183
f 220/67/184 224/68/185 226/69/186
f 220/67/184 226/69/186 228/70/187
f 225/71/188 226/69/186 227/72/189
f 225/71/188 227/72/189 223/73/190
f 228/70/187 226/69/186 225/71/188
f 228/70/187 225/71/188 222/74/191
f 227/72/189 226/69/186 224/68/185
f 227/72/189 224/68/185 221/75/192
f 229/67/193 233/68/194 235/69/195
f 229/67/193 235/69/195 237/70/196
f 234/71/197 235/69/195 236/72/198
f 234/71/197 236/72/198 232/73/199
f 237/70/196 235/69/195 234/71/197
f 237/70/196 234/71/197 231/74/200
f 236/72/198 235/69/195 233/68/194
f 236/72/198 233/68/194 230/75/201
f 238/67/202 242/68/203 244/69/204
f 238/67/202 244/69/204 246/70/205
f 243/71/206 244/69/204 245/72/207
f 243/71/206 245/72/207 241/73/208
f 246/70/205 244/69/204 243/71/206
f 246/70/205 243/71/206 240/74/209
f 245/72/207 244/69/204 242/68/203
f 245/72/207 242/68/203 239/75/210
usemtl branch-01
f 247/67/211 251/76/211 255/77/212
f 247/67/211 255/77/212 257/78/213
f 253/79/214 256/77/215 258/80/216
f 253/79/214 258/80/216 250/73/214
f 257/78/213 255/77/212 254/79/217
f 257/78/213 254/79/217 249/74/218
f 258/80/216 256/77/215 252/76/219
f 258/80/216 252/76/219 248/75/219
f 259/67/220 263/76/220 267/77/221
f 259/67/220 267/77/221 269/78/222
f 266/79/223 268/77/224 270/80/225
f 266/79/223 270/80/225 262/73/223
f 269/78/222 267/77/221 265/79/226
f 269/78/222 265/79/226 261/74/226
f 270/80/225 268/77/224 264/76/227
f 270/80/225 264/76/227 260/75/227
f 271/67/228 275/76/229 277/77/230
f 271/67/228 277/77/230 278/78/231
f 276/79/232 277/77/230 279/80/233
f 276/79/232 279/80/233 274/73/234
f 278/78/231 277/77/230 276/79/232
f 278/78/231 276/79/232 273/74/235
f 279/80/233 277/77/230 275/76/229
f 279/80/233 275/76/229 272/75/236
f 280/67/237 284/76/238 286/77/239
f 280/67/237 286/77/239 287/78/240
f 285/79/241 286/77/239 288/80/242
f 285/79/241 288/80/242 283/73/243
f 287/78/240 286/77/239 285/79/241
f 287/78/240 285/79/241 282/74/244
f 288/80/242 286/77/239 284/76/238
f 288/80/242 284/76/238 281/75/245
f 289/67/246 293/76/247 295/77/248
f 289/67/246 295/77/248 296/78/249
f 294/79/250 295/77/248 297/80/251
f 294/79/250 297/80/251 292/73/252
f 296/78/249 295/77/248 294/79/250
f 296/78/249 294/79/250 291/74/253
f 297/80/251 295/77/248 293/76/247
f 297/80/251 293/76/247 290/75/254
f 298/67/255 302/76/255 305/77/256
f 298/67/255 305/77/256 306/78/257
f 304/79/258 305/77/256 307/80/259
f 304/79/258 307/80/259 301/73/260
f 306/78/257 305/77/256 304/79/258
f 306/78/257 304/79/258 300/74/261
f 307/80/259 305/77/256 303/76/262
f 307/80/259 303/76/262 299/75/263
f 308/67/264 312/76/265 314/77/266
f 308/67/264 314/77/266 315/78/267
f 313/79/268 314/77/266 316/80/269
f 313/79/268 316/80/269 311/73/270
f 315/78/267 314/77/266 313/79/268
f 315/78/267 313/79/268 310/74/271
f 316/80/269 314/77/266 312/76/265
f 316/80/269 312/76/265 309/75/272
f 317/67/273 321/76/274 323/77/275
f 317/67/273 323/77/275 324/78/276
f 322/79/277 323/77/275 325/80/278
f 322/79/277 325/80/278 320/73/279
f 324/78/276 323/77/275 322/79/277
f 324/78/276 322/79/277 319/74/280
f 325/80/278 323/77/275 321/76/274
f 325/80/278 321/76/274 318/75/281
f 326/67/282 330/76/283 332/77/284
f 326/67/282 332/77/284 333/78/285
f 331/79/286 332/77/284 334/80/287
f 331/79/286 334/80/287 329/73/288
f 333/78/285 332/77/284 331/79/286
f 333/78/285 331/79/286 328/74/289
f 334/80/287 332/77/284 330/76/283
f 334/80/287 330/76/283 327/75/290
f 335/67/291 339/76/292 341/77/293
f 335/67/291 341/77/293 342/78/294
f 340/79/295 341/77/293 343/80/296
f 340/79/295 343/80/296 338/73/297
f 342/78/294 341/77/293 340/79/295
f 342/78/294 340/79/295 337/74/298
f 343/80/296 341/77/293 339/76/292
f 343/80/296 339/76/292 336/75/299
f 344/67/300 348/76/301 350/77/302
f 344/67/300 350/77/302 351/78/303
f 349/79/304 350/77/302 352/80/305
f 349/79/304 352/80/305 347/73/306
f 351/78/303 350/77/302 349/79/304
f 351/78/303 349/79/304 346/74/307
f 352/80/305 350/77/302 348/76/301
f 352/80/305 348/76/301 345/75/308
usemtl branch-04
f 354/81/309 358/82/310 362/83/311
f 354/81/309 362/83/311 363/84/312
f 360/85/313 359/86/314 355/87/314
f 360/85/313 355/87/314 357/82/315
f 361/88/316 362/83/311 358/82/310
f 361/88/316 358/82/310 356/87/317
f 364/89/318 360/85/313 357/82/315
f 364/89/318 357/82/315 353/81/318
f 365/81/319 369/82/320 374/83/321
f 365/81/319 374/83/321 375/84/319
f 372/85/322 371/86/323 368/87/323
f 372/85/322 368/87/323 370/82/324
f 373/88/325 374/83/321 369/82/320
f 373/88/325 369/82/320 367/87/325
f 376/89/326 372/85/322 370/82/324
f 376/89/326 370/82/324 366/81/327
f 378/81/328 382/82/329 386/83/330
f 378/81/328 386/83/330 387/84/331
f 384/85/332 383/86/333 379/87/333
f 384/85/332 379/87/333 381/82/334
f 385/88/335 386/83/330 382/82/329
f 385/88/335 382/82/329 380/87/336
f 388/89/337 384/85/332 381/82/334
f 388/89/337 381/82/334 377/81/338
f 389/81/339 393/82/340 398/83/341
f 389/81/339 398/83/341 399/84/339
f 396/85/342 395/86/343 392/87/343
f 396/85/342 392/87/343 394/82/344
f 397/88/345 398/83/341 393/82/340
f 397/88/345 393/82/340 391/87/345
f 400/89/346 396/85/342 394/82/344
f 400/89/346 394/82/344 390/81/346
f 401/81/347 405/82/348 410/83/349
f 401/81/347 410/83/349 411/84/347
f 408/85/350 407/86/351 404/87/352
f 408/85/350 404/87/352 406/82/353
f 409/88/354 410/83/349 405/82/348
f 409/88/354 405/82/348 403/87/355
f 412/89/356 408/85/350 406/82/353
f 412/89/356 406/82/353 402/81/357
f 413/81/358 415/82/359 419/83/360
f 413/81/358 419/83/360 420/84/361
f 417/85/362 416/86/363 414/87/364
f 417/85/362 414/87/364 415/82/359
f 418/88/365 419/83/360 415/82/359
f 418/88/365 415/82/359 414/87/364
f 421/89/366 417/85/362 415/82/359
f 421/89/366 415/82/359 413/81/358
f 423/81/367 427/82/368 431/83/369
f 423/81/367 431/83/369 432/84/367
f 429/85/370 428/86/371 424/87/371
f 429/85/370 424/87/371 426/82/372
f 430/88/373 431/83/369 427/82/368
f 430/88/373 427/82/368 425/87/373
f 433/89/374 429/85/370 426/82/372
f 433/89/374 426/82/372 422/81/374
usemtl branch-05
f 434/67/375 438/90/375 443/91/376
f 434/67/375 443/91/376 442/92/377
f 440/93/378 443/91/376 441/94/379
f 440/93/378 441/94/379 437/73/380
f 442/92/377 443/91/376 440/93/378
f 442/92/377 440/93/378 436/74/381
f 441/94/379 443/91/376 439/90/382
f 441/94/379 439/90/382 435/75/383
f 444/67/384 449/90/385 453/91/386
f 444/67/384 453/91/386 452/92/387
f 450/93/388 453/91/386 451/94/389
f 450/93/388 451/94/389 447/73/390
f 452/92/387 453/91/386 450/93/388
f 452/92/387 450/93/388 446/74/391
f 451/94/389 453/91/386 448/90/392
f 451/94/389 448/90/392 445/75/392
f 454/67/393 459/90/394 463/91/395
f 454/67/393 463/91/395 462/92/396
f 460/93/397 463/91/395 461/94/398
f 460/93/397 461/94/398 457/73/399
f 462/92/396 463/91/395 460/93/397
f 462/92/396 460/93/397 456/74/400
f 461/94/398 463/91/395 458/90/401
f 461/94/398 458/90/401 455/75/401
usemtl branch-03
f 467/73/402 468/95/403 471/96/404
f 467/73/402 471/96/404 473/97/405
f 470/98/406 471/96/404 472/99/407
f 470/98/406 472/99/407 464/67/408
f 472/99/407 471/96/404 468/95/403
f 472/99/407 468/95/403 466/74/409
f 473/97/405 471/96/404 469/98/410
f 473/97/405 469/98/410 465/75/410
f 477/73/411 478/95/412 481/96/413
f 477/73/411 481/96/413 483/97/414
f 479/98/415 481/96/413 482/99/416
f 479/98/415 482/99/416 474/67/417
f 482/99/416 481/96/413 478/95/412
f 482/99/416 478/95/412 476/74/418
f 483/97/414 481/96/413 480/98/419
f 483/97/414 480/98/419 475/75/419
f 487/73/420 488/95/421 490/96/422
f 487/73/420 490/96/422 492/97/423
f 489/98/424 490/96/422 491/99/425
f 489/98/424 491/99/425 484/67/426
f 491/99/425 490/96/422 488/95/421
f 491/99/425 488/95/421 486/74/427
f 492/97/423 490/96/422 489/98/424
f 492/97/423 489/98/424 485/75/428
