# Blender 5.1.0
# www.blender.org
mtllib Flowers-04.mtl
o Flowers-04
v 2.266433 0.528127 11.786601
v 3.044051 0.296634 12.065503
v 2.556078 0.528127 10.979031
v 3.333696 0.296634 11.257932
v 2.769176 0.474790 10.948684
v 2.769176 0.474790 10.948684
v 2.452454 0.462649 11.960096
v 2.452454 0.462649 11.960096
v 2.261079 0.555247 11.514862
v 2.261079 0.555247 11.514862
v 2.550092 0.636024 11.626156
v 2.550092 0.636024 11.626156
v 2.550092 0.636024 11.626156
v 2.550092 0.636024 11.626156
v 3.198644 0.269515 11.921141
v 3.198644 0.269515 11.921141
v 2.383077 0.555247 11.174717
v 2.383077 0.555247 11.174717
v 3.295986 0.269515 11.649737
v 3.295986 0.269515 11.649737
v 2.704371 0.633107 11.310429
v 2.704371 0.633107 11.310429
v 2.704371 0.633107 11.310429
v 2.704371 0.633107 11.310429
v 3.150443 0.361289 11.085430
v 3.150443 0.361289 11.085430
v 2.977741 0.508426 11.860833
v 2.977741 0.508426 11.860833
v 2.977741 0.508426 11.860833
v 2.977741 0.508426 11.860833
v 3.078086 0.520437 11.388596
v 3.078086 0.520437 11.388596
v 3.078086 0.520437 11.388596
v 3.078086 0.520437 11.388596
v 2.806239 0.357328 12.086986
v 2.806239 0.357328 12.086986
v 2.505068 -0.079986 10.996188
v 3.218142 -0.079986 11.996939
v 2.445914 0.538098 10.913170
v 3.218142 0.729051 11.996939
v 2.974977 -0.079986 11.415782
v 2.974977 -0.079986 11.415782
v 2.945400 0.708578 11.374272
v 2.945400 0.708578 11.374272
v 2.110898 -0.100370 11.527428
v 3.331578 -0.100370 11.386305
v 2.009635 0.684080 11.539134
v 3.331578 0.786386 11.386305
v 2.705390 -0.100370 11.319786
v 2.705390 -0.100370 11.319786
v 2.654759 0.760668 11.325639
v 2.654759 0.760668 11.325639
v 2.200440 -0.100370 11.174426
v 3.121611 -0.100370 11.987703
v 2.200440 0.657214 11.174426
v 3.121611 0.832039 11.987703
v 2.585680 -0.100370 11.666406
v 2.585680 -0.100370 11.666406
v 2.585680 0.702486 11.666406
v 2.585680 0.702486 11.666406
v 3.252164 -0.100370 11.384149
v 2.167102 -0.100370 11.960877
v 3.252164 0.842616 11.384148
v 2.167103 0.665967 11.960877
v 2.778534 -0.100370 11.802143
v 2.778534 -0.100370 11.802143
v 2.778534 0.713064 11.802143
v 2.778534 0.713064 11.802143
v 2.737555 -0.079986 10.945472
v 2.609769 -0.079986 12.167620
v 2.737555 0.516711 10.945472
v 2.609769 0.662263 12.167620
v 3.223336 -0.079986 11.831050
v 2.123988 -0.079986 11.282043
v 3.223336 0.670683 11.831050
v 2.123988 0.523679 11.282043
v 2.691984 -0.100370 10.960402
v 2.850279 -0.100370 12.178975
v 2.691984 0.726647 10.960402
v 2.850279 0.786386 12.178975
v 3.137018 -0.079986 11.156876
v 2.236463 -0.079986 11.992923
v 3.137018 0.729051 11.156876
v 2.236463 0.571984 11.992923
v 2.125630 0.033490 11.129564
v 2.151325 0.206174 12.114996
v 2.565864 0.211911 11.072377
v 2.637013 0.403017 12.051904
v 2.798921 0.379339 11.486756
v 2.798921 0.379339 11.486756
v 2.137462 0.030416 11.583333
v 2.137462 0.030416 11.583333
v 3.298622 0.655859 11.304127
v 2.341192 0.618626 10.990028
v 3.194676 0.484447 11.620974
v 2.226514 0.453373 11.339589
v 2.711815 0.333019 11.639142
v 2.711815 0.333019 11.639142
v 2.884359 0.655859 10.989126
v 2.884359 0.655859 10.989126
v 2.599996 0.116326 12.316302
v 3.419408 0.246019 11.751232
v 2.316677 0.268735 11.956597
v 3.106836 0.414164 11.354388
v 2.542620 0.403742 11.521500
v 2.542620 0.403742 11.521500
v 3.069862 0.085185 12.073106
v 3.069862 0.085185 12.073106
v 2.129814 0.579579 11.071598
v 2.259617 0.579579 12.070838
v 2.508756 0.479851 11.022372
v 2.677684 0.453174 12.016530
v 2.757791 0.349850 11.446968
v 2.757791 0.349850 11.446968
v 2.064580 0.565989 11.604579
v 2.064580 0.565989 11.604579
v 3.326338 0.073378 11.291913
v 2.465705 0.261595 10.841748
v 3.199095 0.268505 11.679775
v 2.310398 0.476173 11.273452
v 2.741330 0.466702 11.674191
v 2.741330 0.466702 11.674191
v 2.937589 0.056159 10.989470
v 2.937589 0.056159 10.989470
v 2.618302 0.571589 12.279190
v 3.409881 0.728574 11.655707
v 2.397852 0.446059 11.999305
v 3.166670 0.416890 11.346925
v 2.642911 0.303914 11.578099
v 2.642911 0.303914 11.578099
v 3.056103 0.661463 12.114426
v 3.056103 0.661463 12.114426
v 2.781652 -0.100370 10.960963
v 2.305330 -0.100370 12.093699
v 2.781652 0.726647 10.960963
v 2.305330 0.726647 12.093699
v 2.407979 -0.100370 11.470347
v 2.407979 -0.100370 11.470347
v 2.407979 0.726647 11.470347
v 2.407979 0.726647 11.470347
v 3.288307 -0.079986 11.471311
v 2.089391 -0.079986 11.740712
v 3.288307 0.729051 11.471311
v 2.089392 0.571984 11.740712
v 2.245359 0.307009 12.013968
v 3.073875 0.585227 12.013968
v 2.245359 0.307009 11.139986
v 3.073875 0.585227 11.139986
v 2.442680 0.373270 11.053123
v 2.442680 0.373270 11.053123
v 2.484886 0.387443 12.100831
v 2.484886 0.387443 12.100831
v 2.163015 0.279357 11.750113
v 2.163015 0.279357 11.750113
v 2.374253 0.509156 11.757223
v 2.374253 0.509156 11.757223
v 2.374253 0.509156 11.757223
v 2.374253 0.509156 11.757223
v 3.156219 0.612878 11.815311
v 3.156219 0.612878 11.815311
v 2.163015 0.279357 11.392590
v 2.163015 0.279357 11.392590
v 3.156219 0.612878 11.530043
v 3.156219 0.612878 11.530043
v 2.407480 0.528262 11.411658
v 2.407480 0.528262 11.411658
v 2.407480 0.528262 11.411658
v 2.407480 0.528262 11.411658
v 2.837212 0.505755 11.053123
v 2.837212 0.505755 11.053123
v 2.839395 0.672791 11.832933
v 2.839395 0.672791 11.832933
v 2.839395 0.672791 11.832933
v 2.839395 0.672791 11.832933
v 2.779554 0.646469 11.359627
v 2.779554 0.646469 11.359627
v 2.779554 0.646469 11.359627
v 2.779554 0.646469 11.359627
v 2.850979 0.510378 12.100831
v 2.850979 0.510378 12.100831
vn -0.1985 0.9391 0.2806
vn -0.1984 0.9391 0.2807
vn 0.3576 0.8693 -0.3413
vn 0.4057 0.6977 0.5905
vn 0.4057 0.6976 0.5906
vn 0.4057 0.6976 0.5905
vn -0.2144 0.9722 -0.0946
vn -0.2143 0.9722 -0.0945
vn 0.6666 0.7211 0.1889
vn 0.0173 0.9509 -0.3089
vn 0.0173 0.9509 -0.3090
vn 0.2524 0.9631 0.0928
vn 0.2526 0.9631 0.0927
vn 0.6457 0.7624 -0.0426
vn 0.6458 0.7623 -0.0426
vn 0.0211 0.8607 0.5087
vn 0.0211 0.8606 0.5088
vn 0.0212 0.8607 0.5087
vn -0.9191 -0.0068 0.3940
vn -0.9190 -0.0068 0.3941
vn -0.6743 0.0226 0.7381
vn -0.6744 0.0228 0.7380
vn -0.6745 0.0228 0.7379
vn -0.0971 -0.0061 0.9953
vn -0.0970 -0.0061 0.9953
vn 0.3205 0.0195 0.9470
vn 0.3206 0.0195 0.9470
vn -0.5142 -0.0000 0.8577
vn -0.7873 -0.0000 0.6165
vn -0.2513 -0.0000 -0.9679
vn -0.6617 -0.0000 -0.7498
vn -0.9946 -0.0000 -0.1040
vn 0.4468 -0.0000 -0.8946
vn -0.9917 -0.0000 0.1288
vn -0.6804 -0.0000 -0.7329
vn 0.4366 -0.8984 0.0469
vn 0.4366 -0.8984 0.0470
vn 0.4439 -0.8692 0.2179
vn 0.4440 -0.8692 0.2178
vn 0.4439 -0.8692 0.2180
vn 0.2737 -0.8858 -0.3747
vn 0.2735 -0.8859 -0.3747
vn 0.0508 -0.9031 -0.4264
vn -0.1765 -0.9296 -0.3235
vn -0.1765 -0.9296 -0.3234
vn -0.0537 -0.9069 -0.4179
vn -0.0536 -0.9069 -0.4179
vn -0.2967 -0.9511 -0.0856
vn -0.2968 -0.9511 -0.0857
vn -0.2967 -0.9511 -0.0857
vn -0.2678 -0.9536 0.1375
vn -0.2678 -0.9537 0.1373
vn -0.2679 -0.9536 0.1375
vn -0.2678 -0.9536 0.1373
vn -0.3256 -0.8620 0.3885
vn -0.3257 -0.8620 0.3885
vn -0.4100 -0.8448 0.3439
vn -0.4099 -0.8447 0.3441
vn 0.2344 -0.9054 0.3539
vn 0.4315 -0.8397 0.3297
vn 0.4316 -0.8397 0.3297
vn -0.9867 -0.0000 -0.1625
vn -0.8063 -0.0000 -0.5915
vn -0.2192 -0.0000 -0.9757
vn -0.5824 0.7548 0.3019
vn -0.5824 0.7548 0.3018
vn -0.3075 0.8528 -0.4221
vn 0.0486 0.9224 0.3831
vn 0.0487 0.9224 0.3832
vn -0.7238 0.6898 -0.0155
vn -0.7238 0.6899 -0.0155
vn -0.7236 0.6900 -0.0152
vn -0.7238 0.6899 -0.0154
vn 0.1433 0.9886 -0.0456
vn 0.1434 0.9886 -0.0456
vn -0.5862 0.7632 -0.2718
vn -0.3191 0.9477 0.0020
vn 0.0262 0.9715 -0.2357
vn 0.0263 0.9714 -0.2358
vn 0.0263 0.9715 -0.2358
vn 0.0262 0.9715 -0.2358
vn -0.3273 0.8302 0.4512
vn -0.3273 0.8303 0.4512
vt 0.000000 0.000000
vt 0.324074 0.000000
vt 0.260954 0.327961
vt 0.000000 0.334749
vt 0.281579 1.000000
vt 0.296823 0.657791
vt 0.669396 0.707454
vt 0.678811 1.000000
vt 1.000000 0.272518
vt 0.731539 0.255699
vt 0.692672 0.000000
vt 1.000000 0.000000
vt 0.000000 0.675992
vt 1.000000 0.544797
vt 0.000000 1.000000
vt 1.000000 1.000000
vt 0.500000 0.000000
vt 0.500000 1.000000
vt 0.000000 0.510166
vt 0.449704 0.263710
vt 0.460477 1.000000
vt 1.000000 0.459592
vt 0.470851 1.000000
vt 0.473875 1.000000
vt 0.506543 1.000000
vt 0.490245 1.000000
vt 0.517017 1.000000
s 1
usemtl flowers-01.002
f 1/1/1 7/2/2 12/3/1
f 1/1/1 12/3/1 10/4/1
f 6/5/3 24/6/3 32/7/3
f 6/5/3 32/7/3 25/8/3
f 15/9/4 29/10/5 36/11/4
f 15/9/4 36/11/4 2/12/6
f 9/4/7 11/3/7 21/6/8
f 9/4/7 21/6/8 17/13/7
f 20/14/9 34/7/9 30/10/9
f 20/14/9 30/10/9 16/9/9
f 18/13/10 22/6/11 5/5/10
f 18/13/10 5/5/10 3/15/11
f 28/10/12 31/7/13 23/6/13
f 28/10/12 23/6/13 14/3/13
f 26/8/14 33/7/15 19/14/14
f 26/8/14 19/14/14 4/16/14
f 35/11/16 27/10/17 13/3/17
f 35/11/16 13/3/17 8/2/18
usemtl shrubbery-1-01
f 41/17/19 38/12/19 40/16/20
f 41/17/19 40/16/20 43/18/19
f 37/1/21 42/17/22 44/18/22
f 37/1/21 44/18/22 39/15/23
f 49/17/24 46/12/25 48/16/24
f 49/17/24 48/16/24 51/18/25
f 45/1/26 50/17/26 52/18/27
f 45/1/26 52/18/27 47/15/26
s 0
usemtl shrubbery-1-02
f 58/17/28 54/12/28 56/16/28
f 58/17/28 56/16/28 60/18/28
f 53/1/29 57/17/29 59/18/29
f 53/1/29 59/18/29 55/15/29
f 66/17/30 62/12/30 64/16/30
f 66/17/30 64/16/30 68/18/30
f 61/1/31 65/17/31 67/18/31
f 61/1/31 67/18/31 63/15/31
f 69/1/32 70/12/32 72/16/32
f 69/1/32 72/16/32 71/15/32
f 73/1/33 74/12/33 76/16/33
f 73/1/33 76/16/33 75/15/33
usemtl shrubbery-1-03
f 77/1/34 78/12/34 80/16/34
f 77/1/34 80/16/34 79/15/34
f 81/1/35 82/12/35 84/16/35
f 81/1/35 84/16/35 83/15/35
s 1
f 87/19/36 89/20/37 91/21/36
f 87/19/36 91/21/36 85/15/36
f 92/21/38 90/20/38 88/22/39
f 92/21/38 88/22/39 86/16/40
f 95/19/41 98/20/42 100/23/42
f 95/19/41 100/23/42 93/15/42
f 99/23/43 97/20/43 96/22/43
f 99/23/43 96/22/43 94/16/43
f 103/19/44 105/20/45 107/24/45
f 103/19/44 107/24/45 101/15/45
f 108/24/46 106/20/46 104/22/46
f 108/24/46 104/22/46 102/16/47
f 111/19/48 113/20/49 115/25/48
f 111/19/48 115/25/48 109/15/50
f 116/25/51 114/20/52 112/22/53
f 116/25/51 112/22/53 110/16/54
f 119/19/55 122/20/56 124/26/55
f 119/19/55 124/26/55 117/15/55
f 123/26/57 121/20/57 120/22/58
f 123/26/57 120/22/58 118/16/57
f 127/19/59 129/20/59 131/27/59
f 127/19/59 131/27/59 125/15/59
f 132/27/60 130/20/60 128/22/60
f 132/27/60 128/22/60 126/16/61
s 0
usemtl shrubbery-1-04
f 137/17/62 134/12/62 136/16/62
f 137/17/62 136/16/62 139/18/62
f 133/1/63 138/17/63 140/18/63
f 133/1/63 140/18/63 135/15/63
f 141/1/64 142/12/64 144/16/64
f 141/1/64 144/16/64 143/15/64
s 1
usemtl flowers-01.001
f 145/1/65 151/2/65 156/3/65
f 145/1/65 156/3/65 154/4/66
f 150/5/67 168/6/67 176/7/67
f 150/5/67 176/7/67 169/8/67
f 159/9/68 173/10/69 180/11/68
f 159/9/68 180/11/68 146/12/69
f 153/4/70 155/3/71 165/6/72
f 153/4/70 165/6/72 161/13/73
f 164/14/74 178/7/74 174/10/75
f 164/14/74 174/10/75 160/9/75
f 162/13/76 166/6/76 149/5/76
f 162/13/76 149/5/76 147/15/76
f 172/10/77 175/7/77 167/6/77
f 172/10/77 167/6/77 158/3/77
f 170/8/78 177/7/79 163/14/80
f 170/8/78 163/14/80 148/16/81
f 179/11/82 171/10/82 157/3/82
f 179/11/82 157/3/82 152/2/83
