# Blender 5.1.0
# www.blender.org
mtllib Tree-03-3.mtl
o Tree-03-3
v 23.015490 -0.006606 15.712374
v 23.015490 -0.006606 15.712374
v 22.728571 6.318449 16.229532
v 22.728571 6.318449 16.229532
v 22.728571 6.318449 16.229532
v 22.735043 6.319908 16.219135
v 22.735043 6.319908 16.219135
v 22.735043 6.319908 16.219135
v 22.735043 6.319908 16.219135
v 22.742939 6.320224 16.225021
v 22.742939 6.320224 16.225021
v 22.742939 6.320224 16.225021
v 22.736530 6.318503 16.234026
v 22.736530 6.318503 16.234026
v 22.736530 6.318503 16.234026
v 22.736530 6.318503 16.234026
v 22.729015 5.654834 16.232023
v 22.729015 5.654834 16.232023
v 22.736889 5.654631 16.216129
v 22.736889 5.654631 16.216129
v 22.755291 5.648316 16.216421
v 22.755291 5.648316 16.216421
v 22.755291 5.648316 16.216421
v 22.752934 5.650295 16.233614
v 22.752934 5.650295 16.233614
v 22.745106 5.652237 16.238262
v 22.745106 5.652237 16.238262
v 22.524111 5.253068 16.323847
v 22.524111 5.253068 16.323847
v 22.524111 5.253068 16.323847
v 22.523441 5.249862 16.303267
v 22.523441 5.249862 16.303267
v 22.523441 5.249862 16.303267
v 22.559282 5.245374 16.302925
v 22.559282 5.245374 16.302925
v 22.559282 5.245374 16.302925
v 22.559282 5.245374 16.302925
v 22.559952 5.248580 16.323507
v 22.559952 5.248580 16.323507
v 22.559952 5.248580 16.323507
v 22.533720 5.251263 16.326471
v 22.533720 5.251263 16.326471
v 22.575832 4.951491 16.375170
v 22.575832 4.951491 16.375170
v 22.585581 4.954234 16.339087
v 22.585581 4.954234 16.339087
v 22.585581 4.954234 16.339087
v 22.585581 4.954234 16.339087
v 22.615168 4.957621 16.346661
v 22.615168 4.957621 16.346661
v 22.615992 4.956651 16.372086
v 22.615992 4.956651 16.372086
v 22.615992 4.956651 16.372086
v 22.591049 4.953047 16.383465
v 22.591049 4.953047 16.383465
v 22.637255 4.324543 16.217497
v 22.637255 4.324543 16.217497
v 22.637255 4.324543 16.217497
v 22.644110 4.336273 16.172253
v 22.644110 4.336273 16.172253
v 22.656336 4.340773 16.164814
v 22.656336 4.340773 16.164814
v 22.696869 4.346482 16.181229
v 22.696869 4.346482 16.181229
v 22.689602 4.336188 16.231806
v 22.689602 4.336188 16.231806
v 22.926600 3.516074 15.870195
v 22.926600 3.516074 15.870195
v 22.926600 3.516074 15.870195
v 22.926600 3.516074 15.870195
v 22.926600 3.516074 15.870195
v 22.926600 3.516074 15.870195
v 22.970125 3.531880 15.843697
v 22.970125 3.531880 15.843697
v 22.970125 3.531880 15.843697
v 22.970125 3.531880 15.843697
v 22.970125 3.531880 15.843697
v 22.970125 3.531880 15.843697
v 22.975525 3.514460 15.949423
v 22.975525 3.514460 15.949423
v 23.053469 3.023127 15.904325
v 23.053469 3.023127 15.904325
v 23.031822 3.021137 15.836118
v 23.031822 3.021137 15.836118
v 23.086168 3.027018 15.803225
v 23.086168 3.027018 15.803225
v 23.113855 3.028320 15.823647
v 23.113855 3.028320 15.823647
v 23.142977 3.031318 15.897986
v 23.142977 3.031318 15.897986
v 23.088631 3.025437 15.930880
v 23.088631 3.025437 15.930880
v 23.023760 2.240235 15.848416
v 23.023760 2.240235 15.848416
v 23.091183 2.240491 15.807755
v 23.091183 2.240491 15.807755
v 23.091183 2.240491 15.807755
v 23.161612 2.239346 15.924529
v 23.161612 2.239346 15.924529
v 23.094189 2.239089 15.965190
v 23.094189 2.239089 15.965190
v 23.094189 2.239089 15.965190
v 23.094189 2.239089 15.965190
v 23.001749 1.230495 15.888992
v 23.001749 1.230495 15.888992
v 22.999954 1.231882 15.795047
v 22.999954 1.231882 15.795047
v 23.080425 1.233175 15.746530
v 23.080425 1.233175 15.746530
v 23.130890 1.228751 15.784956
v 23.164484 1.231695 15.885904
v 23.164484 1.231695 15.885904
v 23.084015 1.230402 15.934422
v 23.084015 1.230402 15.934422
v 22.962843 -0.006606 15.944090
v 22.962843 -0.006606 15.944090
v 22.961676 -0.006606 15.792549
v 22.961676 -0.006606 15.792549
v 23.234049 -0.006606 15.847198
v 23.234049 -0.006606 15.847198
v 23.258665 -0.006606 15.912740
v 23.258665 -0.006606 15.912740
v 23.122957 -0.006606 16.058826
v 23.122957 -0.006606 16.058826
v 22.577534 6.497764 14.999262
v 22.577534 6.497764 14.999262
v 22.577534 6.497764 14.999262
v 22.577534 6.497764 14.999262
v 22.564295 6.494493 14.997105
v 22.564295 6.494493 14.997105
v 22.564295 6.494493 14.997105
v 22.564295 6.494493 14.997105
v 22.573343 6.494283 14.986586
v 22.573343 6.494283 14.986586
v 22.573343 6.494283 14.986586
v 22.573343 6.494283 14.986586
v 22.579151 6.496534 14.991529
v 22.579151 6.496534 14.991529
v 22.579151 6.496534 14.991529
v 22.579151 6.496534 14.991529
v 22.829264 5.489341 15.252075
v 22.829264 5.489341 15.252075
v 22.822258 5.490513 15.253708
v 22.822258 5.490513 15.253708
v 22.807737 5.483210 15.239978
v 22.807737 5.483210 15.239978
v 22.810053 5.480278 15.230698
v 22.810053 5.480278 15.230698
v 22.830587 5.479963 15.220325
v 22.830587 5.479963 15.220325
v 22.843655 5.485472 15.231380
v 22.843655 5.485472 15.231380
v 22.877817 4.744150 15.700871
v 22.877817 4.744150 15.700871
v 22.848907 4.745242 15.709693
v 22.848907 4.745242 15.709693
v 22.826906 4.737872 15.690535
v 22.826906 4.737872 15.690535
v 22.833818 4.729408 15.662555
v 22.833818 4.729408 15.662555
v 22.862728 4.728316 15.653732
v 22.862728 4.728316 15.653732
v 22.884729 4.735686 15.672892
v 22.884729 4.735686 15.672892
v 23.019047 3.530266 15.922918
v 23.019047 3.530266 15.922918
v 23.019047 3.530266 15.922918
v 23.019047 3.530266 15.922918
v 23.019047 3.530266 15.922918
v 22.961222 3.530026 15.948531
v 22.961222 3.530026 15.948531
v 22.929298 3.507363 15.923059
v 22.929298 3.507363 15.923059
v 22.929298 3.507363 15.923059
v 22.929298 3.507363 15.923059
v 22.929298 3.507363 15.923059
v 23.016350 3.538976 15.870058
v 23.016350 3.538976 15.870058
v 23.016350 3.538976 15.870058
v 23.016350 3.538976 15.870058
v 23.016350 3.538976 15.870058
v 23.016350 3.538976 15.870058
v 23.152046 0.892719 13.226465
v 22.218355 -0.362117 15.453219
v 23.649395 2.946305 14.798961
v 22.715704 1.691469 17.025713
v 22.474062 0.370058 14.234610
v 23.081743 2.359172 15.877341
v 22.479746 1.516786 15.365997
v 22.380951 0.635099 16.183729
v 23.322218 1.926035 13.984129
v 25.767670 2.410065 16.686819
v 24.760630 0.899890 15.131714
v 23.584538 3.636163 16.697203
v 22.577499 2.125987 15.142098
v 25.367119 1.802145 15.772524
v 23.121897 2.939100 15.848982
v 24.025524 2.459123 15.470460
v 23.749254 1.515802 15.081699
v 24.718636 3.047835 16.636173
v 23.478586 2.859598 18.382950
v 24.203838 1.927065 16.415022
v 22.326534 4.468246 17.059938
v 23.051786 3.535713 15.092012
v 24.019991 2.533635 17.455404
v 22.774147 4.060170 16.090353
v 23.572439 3.485634 16.465439
v 23.718887 2.726835 15.789625
v 22.974485 3.687923 17.734547
v 21.740000 6.564228 17.522058
v 23.258369 7.015529 16.381357
v 21.853359 5.009196 16.947838
v 23.371729 5.460497 15.807136
v 22.348370 6.817614 16.848188
v 22.552916 5.249950 16.324194
v 22.485630 5.973056 16.278162
v 23.276840 6.290001 16.067631
v 21.759922 5.811802 17.197723
v 24.916212 2.285441 13.593876
v 22.743214 0.989067 15.590971
v 24.067957 5.149565 14.862173
v 21.894958 3.853191 16.859268
v 23.601242 1.694231 14.253608
v 23.601242 1.694231 14.253608
v 22.865791 4.519812 15.718753
v 22.635944 3.278640 14.985240
v 22.252317 2.355543 16.102293
v 24.409237 3.701906 14.125947
v 22.825369 3.878509 17.739532
v 22.867104 5.034079 15.955056
v 23.159182 2.560534 16.741417
v 23.200916 3.716105 14.956942
v 22.616259 4.402867 16.867815
v 23.076246 3.120694 15.848355
v 22.633060 3.722517 16.065042
v 22.953848 4.401132 15.473999
v 22.916868 3.222497 17.240982
v 20.304316 6.060515 17.283169
v 22.793371 6.469192 13.281225
v 21.853075 3.649636 17.956264
v 24.342129 4.058313 13.954320
v 21.126421 6.022608 15.130269
v 22.920595 3.746698 15.863895
v 22.019161 4.444521 14.899645
v 23.415438 5.252841 13.521727
v 20.951687 4.801107 17.534227
v 24.461399 5.894909 17.371841
v 19.697790 4.877790 15.403114
v 25.484989 2.923522 16.704451
v 20.721380 1.906402 14.735723
v 22.059566 5.309577 16.835495
v 23.067144 2.374470 15.911618
v 22.047930 3.352094 16.553381
v 20.139881 3.436142 15.211259
v 24.920671 4.401044 17.170208
v 21.142746 2.358287 15.538215
v 22.062731 1.318625 16.565052
v 22.644539 3.294496 15.309910
v 23.564522 2.254833 16.336748
v 21.537569 1.942674 16.157106
v 23.080257 2.815924 15.876861
v 22.493864 2.452075 16.237270
v 22.762012 1.787252 16.497768
v 21.867985 2.843579 15.467561
v 21.710478 2.526384 17.988312
v 22.536503 3.935882 17.956678
v 22.771601 1.960042 15.954842
v 23.597628 3.369539 15.923209
v 21.935131 3.277235 17.865284
v 21.935131 3.277235 17.865284
v 23.104080 2.693630 15.890345
v 23.104080 2.693630 15.890345
v 22.517471 3.156722 16.565464
v 22.517471 3.156722 16.565464
v 22.987450 3.692645 16.958179
v 22.179127 2.273661 16.953901
v 26.363674 4.281147 16.732729
v 25.846869 2.376028 16.475685
v 23.007751 5.090309 16.411654
v 22.490946 3.185190 16.154610
v 26.143848 3.294872 16.220596
v 26.143848 3.294872 16.220596
v 22.766672 4.122020 16.109524
v 22.766672 4.122020 16.109524
v 24.341614 3.938339 15.759946
v 24.341614 3.938339 15.759946
v 24.874819 4.653456 16.473885
v 24.271301 2.769545 16.205923
v 24.531851 5.785735 15.209154
v 25.573980 4.461411 16.138334
v 22.385439 4.504090 15.463532
v 23.427568 3.179766 16.392714
v 25.140974 4.976772 15.473099
v 25.140974 4.976772 15.473099
v 22.946602 3.775184 15.837584
v 22.946602 3.775184 15.837584
v 23.884705 4.285429 15.350410
v 23.884705 4.285429 15.350410
v 23.584929 5.179245 15.252380
v 24.571718 3.820952 16.186565
v 24.915394 2.892849 17.744068
v 25.008247 1.577267 16.111555
v 22.927109 3.784148 16.784424
v 23.019960 2.468566 15.151910
v 25.105074 2.329177 16.749899
v 23.038364 3.168607 15.887271
v 24.089230 3.055400 16.249718
v 24.066048 3.335099 17.275711
v 24.108265 2.043600 15.617443
v 22.913378 5.097059 12.699818
v 22.506985 6.251219 17.289762
v 23.047390 2.472208 13.489604
v 22.640999 3.626369 18.079548
v 23.214062 5.766200 15.178445
v 23.072046 3.091226 15.868810
v 23.740749 4.230877 15.254480
v 23.131882 3.935517 13.063408
v 23.131882 3.935517 13.063408
v 22.732534 5.021922 17.674057
v 25.163836 2.005856 16.522175
v 24.636562 2.369690 14.031406
v 23.225880 3.282756 17.152258
v 22.698606 3.646590 14.661489
v 24.994429 2.337841 15.193456
v 23.004740 3.532655 15.868550
v 24.037344 3.137296 15.762017
v 24.328426 2.621057 16.804939
v 23.751627 3.018981 14.330523
v 24.667551 5.686742 16.304895
v 23.159037 6.808074 16.638172
v 23.376631 4.280499 16.038286
v 21.868116 5.401830 16.371563
v 23.880861 6.240440 16.740992
v 23.880861 6.240440 16.740992
v 22.607323 4.838293 16.326908
v 22.607323 4.838293 16.326908
v 23.297047 5.315974 16.769983
v 23.297047 5.315974 16.769983
v 24.093786 5.042075 16.264303
v 22.551893 6.126603 16.592442
v 24.463472 6.305975 14.458400
v 23.230137 7.108065 16.049156
v 23.398764 4.693717 14.591049
v 22.165428 5.495806 16.181805
v 23.953547 6.668700 15.460539
v 22.830076 5.077626 15.480363
v 23.578213 5.638844 15.522519
v 24.030991 5.562536 14.564902
v 22.771044 6.322332 16.160158
v 23.577877 6.737410 14.266870
v 22.534210 7.244605 15.179739
v 23.224863 5.562209 14.632851
v 22.181196 6.069404 15.545719
v 23.124931 7.016044 14.867297
v 22.733932 5.827260 15.154655
v 23.098913 6.316705 15.086624
v 23.451239 6.212508 14.465816
v 22.399126 6.689259 15.388965
v 25.369549 2.457537 14.006624
v 23.734232 0.997629 13.504524
v 23.962894 3.162618 16.171762
v 22.327578 1.702710 15.669663
v 24.365046 1.851461 13.576974
v 24.365046 1.851461 13.576974
v 23.060297 2.488341 15.839789
v 23.606047 2.512923 14.710140
v 24.697893 2.826808 14.928707
v 23.025158 1.386390 14.481686
v 21.745243 2.270777 17.902681
v 23.173182 1.203826 17.538912
v 22.284899 3.428151 16.020081
v 23.712837 2.361200 15.656312
v 22.631830 1.808728 17.828154
v 23.077318 2.926721 15.886673
v 22.914074 2.638661 16.894415
v 22.025608 2.822934 17.094454
v 23.468412 1.786759 16.682650
v 23.884510 3.622048 18.219696
v 25.115030 4.220683 16.213745
v 21.996517 4.147959 17.246517
v 23.227037 4.746594 15.240565
v 24.559502 4.081415 17.210178
v 22.639109 4.519833 16.240080
v 23.404881 4.439187 16.882296
v 23.042953 3.900895 17.801537
v 24.224602 4.514144 15.770745
v 21.038212 3.283068 17.394312
v 22.939932 2.525661 17.126654
v 21.630901 4.874609 16.297302
v 23.532621 4.117201 16.029644
v 22.114782 2.957675 17.429964
v 22.639109 4.519833 16.240080
v 22.335827 3.982883 16.978163
v 21.323166 4.021340 16.956644
v 23.240696 3.305781 16.661743
v 22.754389 5.650564 16.222660
v 22.754389 5.650564 16.222660
v 23.041058 6.819769 15.631057
v 23.041058 6.819769 15.631057
v 23.058294 6.253779 15.959863
v 23.058294 6.253779 15.959863
v 22.944908 6.561414 15.165607
v 22.964821 5.980343 15.341020
v 22.744741 7.002654 15.888956
v 22.678585 6.482671 16.395042
v 22.605019 5.767068 16.394690
v 22.765820 5.412601 15.813592
v 22.731348 6.300304 16.222342
v 22.731348 6.300304 16.222342
v 22.970703 7.007599 16.501907
v 22.970703 7.007599 16.501907
v 22.879650 6.695387 16.279942
v 22.879650 6.695387 16.279942
v 22.638737 7.035623 16.559305
v 22.469711 6.768363 16.358173
v 23.160563 6.908352 16.658894
v 23.169403 6.532188 16.461599
v 22.857174 6.245666 16.300983
v 22.437969 6.347908 16.220980
v 22.587275 6.456756 14.999010
v 22.587275 6.456756 14.999010
v 22.354120 7.148791 14.923519
v 22.354120 7.148791 14.923519
v 22.549145 6.844650 14.961920
v 22.549145 6.844650 14.961920
v 22.274010 7.056835 14.635862
v 22.443707 6.763721 14.591073
v 22.224287 7.138649 15.137042
v 22.404346 6.817019 15.288474
v 22.524734 6.458428 15.133963
v 22.564678 6.392703 14.731342
v 22.846455 5.191050 15.390668
v 22.846455 5.191050 15.390668
v 21.787554 6.568696 15.384151
v 21.787554 6.568696 15.384151
v 22.225128 5.871274 15.199771
v 22.225128 5.871274 15.199771
v 21.449776 6.244548 15.878464
v 21.735107 5.520862 15.812176
v 22.229391 6.870684 15.451019
v 22.897236 6.256078 15.205451
v 23.106005 5.375587 15.388206
v 22.479706 4.872584 15.731592
v 22.712564 4.214942 16.116064
v 22.712564 4.214942 16.116064
v 21.909266 5.252600 16.446022
v 21.909266 5.252600 16.446022
v 22.215906 4.777435 16.099609
v 22.215906 4.777435 16.099609
v 22.215906 4.777435 16.099609
v 21.634663 4.856079 16.802366
v 21.818211 4.323873 16.552158
v 22.317677 5.477449 16.611544
v 22.823488 5.088889 16.241116
v 22.823488 5.088889 16.241116
v 22.949600 4.364218 16.176342
v 22.400904 3.865043 16.329638
v 22.903028 3.689123 15.934311
v 20.605352 2.025701 15.363083
v 20.605352 2.025701 15.363083
v 21.748919 2.732224 15.828664
v 20.025972 2.813171 15.608927
v 20.900990 3.647743 16.133772
v 20.992968 1.680120 14.740012
v 22.443506 2.227271 15.006967
v 23.152388 3.446072 15.585938
v 22.375557 4.356302 16.283976
v 21.780340 6.689544 15.711899
v 22.858427 7.158859 16.237045
v 22.138083 5.675162 16.045937
v 23.216169 6.144476 16.571083
v 22.398216 6.901729 15.772213
v 22.398216 6.901729 15.772213
v 22.742359 5.912525 16.231411
v 23.063282 6.663472 16.338289
v 21.992830 6.173935 15.818766
v 22.637981 6.403687 15.865751
v 21.314348 4.519471 15.966759
v 22.288513 5.428760 15.881499
v 22.171875 3.765285 16.284721
v 23.146038 4.674574 16.199463
v 21.810131 4.909018 15.654266
v 21.810131 4.909018 15.654266
v 22.689613 4.215420 16.117668
v 22.689613 4.215420 16.117668
v 22.712624 5.048683 15.949814
v 21.755644 4.124162 16.039957
v 22.264271 4.533496 15.694456
v 22.264271 4.533496 15.694456
v 21.683886 5.416085 14.913608
v 23.855932 4.305861 13.270136
v 22.041410 3.642359 16.798355
v 24.213459 2.532136 15.154884
v 22.448757 4.674915 13.922596
v 22.448757 4.674915 13.922596
v 23.041721 2.972623 15.854961
v 23.941345 3.381264 14.119180
v 21.774933 4.455151 15.799030
v 22.548435 3.688918 14.737241
v 22.812458 5.329927 18.353029
v 22.889709 6.545815 17.026756
v 22.700769 4.104643 17.022579
v 22.778023 5.320530 15.696307
v 22.621881 4.762621 16.321423
v 22.587097 5.981972 17.678385
v 22.587097 5.981972 17.678385
v 22.386768 5.370833 17.110014
v 22.665409 4.682011 17.644377
v 22.743019 5.900289 16.320707
v 25.179020 5.006748 16.131838
v 23.849285 6.254622 15.466865
v 23.450481 3.561105 16.390945
v 22.120747 4.808979 15.725971
v 22.726669 4.266198 16.159729
v 24.456581 5.741827 16.059572
v 24.456581 5.741827 16.059572
v 23.675919 5.062037 16.355556
v 24.242165 4.262773 16.359753
v 22.915838 5.513434 15.694129
v 22.065014 1.941892 17.810198
v 23.435850 0.846213 16.902849
v 22.290083 3.217843 16.334240
v 23.660919 2.122164 15.426890
v 23.093412 2.674013 15.906737
v 22.936096 1.462839 17.464001
v 23.077204 2.153619 16.871883
v 22.239092 2.653411 17.060530
v 23.609404 1.555185 16.156012
v 21.218372 3.573944 17.374378
v 20.551468 4.236008 16.350328
v 22.957329 4.472408 16.926517
v 22.290424 5.134471 15.902468
v 22.621881 4.762621 16.321423
v 20.916981 3.778539 16.712633
v 20.916981 3.778539 16.712633
v 21.784916 4.100397 16.469578
v 22.163286 4.009622 17.090992
v 21.492949 4.669995 16.067890
vn -0.4075 0.0019 0.9132
vn -0.3357 0.1746 0.9257
vn -0.3388 0.1678 0.9258
vn -0.8778 -0.0013 -0.4790
vn -0.9086 0.1845 -0.3746
vn -0.9098 0.2340 -0.3428
vn 0.0174 0.0046 -0.9998
vn -0.0134 -0.1027 -0.9946
vn -0.0094 -0.0888 -0.9960
vn 0.5970 0.0212 -0.8020
vn 0.9482 0.0182 0.3171
vn 0.9549 -0.2073 0.2126
vn 0.9553 -0.2037 0.2144
vn 0.5127 0.0121 0.8585
vn 0.3727 0.0573 0.9262
vn 0.3784 0.0555 0.9240
vn -0.3262 0.2241 0.9184
vn -0.3344 0.2103 0.9187
vn -0.8858 0.4121 -0.2134
vn -0.8858 0.4121 -0.2135
vn -0.0243 -0.1578 -0.9872
vn -0.0320 -0.1580 -0.9869
vn 0.9042 -0.4158 0.0975
vn 0.2461 0.1621 0.9556
vn 0.2449 0.1575 0.9567
vn -0.4277 -0.0841 0.9000
vn -0.2799 -0.1434 0.9493
vn -0.9664 -0.2066 -0.1531
vn -0.9758 -0.1222 -0.1812
vn -0.9757 -0.1239 -0.1807
vn 0.2619 0.0939 -0.9605
vn -0.0242 -0.1578 -0.9872
vn 0.2720 0.1024 -0.9568
vn 0.2621 0.0938 -0.9605
vn 0.9822 0.1832 -0.0408
vn 0.9894 0.1418 0.0298
vn 0.9894 0.1419 0.0297
vn 0.2598 0.2182 0.9407
vn 0.1013 -0.2494 0.9631
vn -0.9724 -0.1762 -0.1532
vn -0.9737 -0.1639 -0.1583
vn -0.5566 0.1670 -0.8138
vn -0.5519 0.1410 -0.8219
vn -0.5522 0.1424 -0.8214
vn 0.3089 0.3731 -0.8749
vn 0.3097 0.3752 -0.8737
vn 0.9723 0.2105 0.1016
vn 0.9677 0.2305 0.1020
vn 0.1002 -0.2483 0.9635
vn 0.0100 -0.2372 0.9714
vn -0.3954 -0.4332 0.8099
vn -0.4642 -0.3030 0.8323
vn -0.4678 -0.2954 0.8330
vn -0.9497 -0.2961 -0.1019
vn -0.5471 0.1168 -0.8289
vn 0.3389 0.4549 -0.8235
vn 0.9359 0.3368 0.1032
vn 0.3543 -0.0949 0.9303
vn 0.3662 -0.0817 0.9269
vn -0.7904 -0.0970 0.6048
vn -0.5686 -0.0624 0.8202
vn -0.9557 -0.2336 0.1792
vn -0.9405 -0.1159 0.3195
vn -0.7905 -0.0970 0.6047
vn -0.5102 -0.0489 -0.8587
vn -0.5137 -0.0282 -0.8575
vn -0.5137 -0.0286 -0.8575
vn -0.5102 -0.0489 -0.8586
vn 0.5115 0.1795 -0.8403
vn 0.7823 0.1033 -0.6143
vn 0.5545 0.0916 -0.8271
vn 0.9478 0.2239 -0.2270
vn 0.9303 0.1105 -0.3497
vn 0.7824 0.1033 -0.6142
vn 0.5094 0.0620 0.8583
vn 0.5096 0.0616 0.8582
vn -0.9187 0.0182 0.3946
vn -0.9226 0.0181 0.3853
vn -0.9186 0.0182 0.3947
vn -0.5166 0.0248 -0.8558
vn -0.5164 0.0248 -0.8560
vn 0.8879 0.0138 -0.4598
vn 0.8947 0.0135 -0.4465
vn 0.8879 0.0139 -0.4598
vn 0.5164 0.0046 0.8563
vn 0.5164 0.0046 0.8564
vn -0.4833 -0.0218 0.8752
vn -0.5190 0.0210 0.8545
vn -0.5182 0.0200 0.8550
vn -0.9851 0.0329 0.1690
vn -0.9848 0.0329 0.1705
vn -0.6065 0.0488 -0.7936
vn -0.6088 0.0486 -0.7919
vn 0.7744 0.0341 -0.6317
vn 0.5755 0.0205 -0.8175
vn 0.9229 0.0475 -0.3820
vn 0.5961 0.0259 0.8025
vn 0.5962 0.0259 0.8024
vn -0.5503 0.0604 0.8328
vn -0.9994 0.0314 0.0122
vn -0.6916 0.0395 -0.7212
vn 0.5414 -0.0012 -0.8408
vn 0.9417 0.0632 -0.3304
vn 0.6666 0.0811 0.7410
vn 0.8490 0.3197 0.4206
vn 0.8818 0.2852 0.3756
vn 0.8786 0.2888 0.3804
vn 0.8500 0.3159 0.4216
vn 0.2635 0.2960 0.9181
vn 0.2683 0.3938 0.8792
vn 0.2690 0.4207 0.8664
vn -0.5189 0.0841 0.8507
vn -0.6212 0.2227 0.7513
vn -0.6237 0.2263 0.7482
vn -0.8459 -0.3057 -0.4371
vn -0.9176 -0.2299 -0.3244
vn -0.9214 -0.2250 -0.3169
vn -0.8459 -0.3056 -0.4371
vn -0.4331 -0.3053 -0.8481
vn -0.3842 -0.3933 -0.8353
vn -0.3820 -0.3970 -0.8345
vn 0.6492 -0.0106 -0.7606
vn 0.6770 -0.1854 -0.7123
vn 0.6759 -0.1749 -0.7160
vn 0.6491 -0.0106 -0.7606
vn 0.9636 0.1874 0.1905
vn 0.9614 0.1909 0.1981
vn 0.3210 0.3634 0.8746
vn 0.3209 0.3635 0.8746
vn -0.6898 0.2256 0.6879
vn -0.6888 0.2182 0.6913
vn -0.9851 -0.1172 -0.1262
vn -0.9858 -0.1154 -0.1216
vn -0.3697 -0.3354 -0.8665
vn -0.3702 -0.3337 -0.8669
vn 0.6308 -0.2088 -0.7473
vn 0.6337 -0.2151 -0.7431
vn 0.9913 0.1213 0.0520
vn 0.9913 0.1212 0.0520
vn 0.3626 0.2101 0.9080
vn 0.3625 0.2101 0.9080
vn -0.6630 0.0851 0.7438
vn -0.9947 -0.0888 -0.0521
vn -0.4010 -0.1815 -0.8979
vn 0.5645 -0.0766 -0.8219
vn 0.5646 -0.0766 -0.8218
vn -0.2052 0.9590 -0.1956
vn -0.2051 0.9590 -0.1955
vn -0.0902 0.9906 0.1025
vn -0.8368 0.3957 -0.3784
vn -0.9227 0.2919 -0.2519
vn -0.9171 0.3795 -0.1221
vn -0.8244 0.4699 -0.3156
vn -0.8665 0.4917 -0.0867
vn -0.9683 0.2499 0.0031
vn -0.9170 0.3887 0.0894
vn -0.7959 0.5603 -0.2293
vn -0.9887 0.1346 -0.0655
vn 0.4449 0.6549 -0.6108
vn 0.3996 0.5333 -0.7456
vn 0.2600 0.5676 -0.7812
vn 0.3647 0.6964 -0.6181
vn 0.1796 0.6447 -0.7431
vn 0.2169 0.4145 -0.8838
vn 0.0806 0.5002 -0.8621
vn 0.2552 0.7419 -0.6201
vn 0.3172 0.3418 -0.8846
vn 0.7476 0.6197 0.2389
vn 0.8442 0.5291 0.0857
vn 0.7936 0.6069 -0.0438
vn 0.7067 0.6852 0.1764
vn 0.7100 0.7007 -0.0699
vn 0.8584 0.4777 -0.1869
vn 0.7574 0.5966 -0.2653
vn 0.6437 0.7596 0.0935
vn 0.9185 0.3761 -0.1224
vn -0.7734 0.2500 -0.5825
vn -0.6467 0.3239 -0.6905
vn -0.5925 0.1855 -0.7839
vn -0.7633 0.1461 -0.6293
vn -0.6139 0.0426 -0.7883
vn -0.4437 0.2667 -0.8556
vn -0.4320 0.0790 -0.8984
vn -0.7362 0.0129 -0.6766
vn -0.4415 0.4064 -0.7999
vn -0.4727 0.1348 -0.8709
vn -0.7494 0.1376 -0.6477
vn -0.5156 0.2435 -0.8215
vn -0.7367 0.2985 -0.6067
vn -0.8716 -0.0214 -0.4897
vn -0.8943 0.1810 -0.4091
vn -0.5593 0.3796 -0.7369
vn -0.8242 -0.1806 -0.5368
vn -0.9699 -0.2057 0.1306
vn -0.9980 -0.0610 -0.0191
vn -0.9643 -0.1765 -0.1972
vn -0.9481 -0.3150 0.0430
vn -0.9047 -0.3502 -0.2426
vn -0.9408 -0.0169 -0.3384
vn -0.8700 -0.2132 -0.4446
vn -0.8929 -0.4448 -0.0697
vn -0.9606 0.1517 -0.2329
vn -0.8393 -0.4576 -0.2936
vn -0.7701 -0.4202 -0.4800
vn -0.6092 -0.6106 -0.5060
vn -0.7425 -0.6134 -0.2692
vn -0.5100 -0.7742 -0.3749
vn -0.5099 -0.5471 -0.6638
vn -0.3520 -0.7517 -0.5577
vn -0.6044 -0.7624 -0.2311
vn -0.6146 -0.3357 -0.7139
vn -0.1640 -0.1577 0.9738
vn -0.3221 -0.1713 0.9311
vn -0.3282 -0.3714 0.8685
vn -0.1331 -0.3074 0.9422
vn -0.2127 -0.5104 0.8332
vn -0.4715 -0.3621 0.8041
vn -0.3806 -0.5681 0.7297
vn -0.0962 -0.4602 0.8826
vn -0.5252 -0.1824 0.8312
vn -0.3857 0.6457 0.6590
vn -0.3183 0.5293 0.7864
vn -0.1765 0.5701 0.8024
vn -0.3066 0.6909 0.6547
vn -0.1046 0.6502 0.7525
vn -0.1138 0.4223 0.8993
vn 0.0148 0.5133 0.8581
vn -0.1995 0.7412 0.6409
vn -0.2107 0.3447 0.9147
vn -0.8876 0.1721 -0.4272
vn -0.8264 0.1596 -0.5400
vn -0.8458 0.1636 -0.5079
vn -0.4906 0.6090 -0.6233
vn -0.5431 0.6520 -0.5291
vn -0.5649 0.6687 -0.4834
vn -0.4907 0.6089 -0.6233
vn -0.7745 0.1492 -0.6147
vn -0.7745 0.1493 -0.6147
vn -0.6053 0.6980 -0.3826
vn -0.6054 0.6979 -0.3826
vn 0.3220 0.4555 -0.8299
vn 0.1412 0.4940 -0.8579
vn 0.2087 0.4818 -0.8511
vn -0.1231 -0.2062 -0.9707
vn -0.0243 -0.2644 -0.9641
vn 0.0027 -0.2796 -0.9601
vn -0.1231 -0.2061 -0.9708
vn 0.0201 0.5098 -0.8601
vn 0.0201 0.5097 -0.8601
vn 0.1006 -0.3326 -0.9377
vn 0.1205 -0.1445 -0.9821
vn -0.0136 -0.2540 -0.9671
vn 0.0177 -0.2291 -0.9732
vn 0.1665 -0.7119 -0.6822
vn 0.2622 -0.6750 -0.6897
vn 0.2935 -0.6610 -0.6906
vn 0.1665 -0.7119 -0.6823
vn -0.1194 -0.3352 -0.9345
vn -0.1193 -0.3352 -0.9346
vn 0.3851 -0.6146 -0.6884
vn 0.6043 0.7559 -0.2519
vn 0.6304 0.6114 -0.4783
vn 0.5051 0.6974 -0.5085
vn 0.5103 0.8043 -0.3045
vn 0.4034 0.7152 -0.5708
vn 0.5271 0.5042 -0.6841
vn 0.4175 0.5673 -0.7098
vn 0.3643 0.8537 -0.3720
vn 0.6145 0.4431 -0.6527
vn 0.9469 0.2240 -0.2307
vn 0.9609 0.2721 0.0511
vn 0.9989 -0.0015 0.0462
vn 0.9619 -0.2171 0.1664
vn 0.9488 0.0817 0.3050
vn 0.9321 -0.1461 0.3315
vn 0.9503 -0.3033 -0.0710
vn 0.9184 0.2940 0.2649
vn 0.6534 0.7441 0.1393
vn 0.6096 0.7921 -0.0308
vn 0.5295 0.8477 0.0329
vn 0.5756 0.8022 0.1590
vn 0.4469 0.8941 0.0303
vn 0.4993 0.8559 -0.1348
vn 0.4220 0.9015 -0.0961
vn 0.4671 0.8653 0.1821
vn 0.5601 0.8116 -0.1660
vn 0.3761 -0.2840 0.8820
vn 0.2308 -0.4536 0.8608
vn 0.2719 -0.4093 0.8709
vn -0.2744 -0.2054 0.9394
vn -0.2005 -0.0690 0.9773
vn -0.1953 -0.0597 0.9789
vn -0.2743 -0.2054 0.9395
vn 0.1122 -0.5678 0.8155
vn 0.1122 -0.5676 0.8156
vn -0.1172 0.0766 0.9901
vn 0.8171 -0.3271 0.4747
vn 0.6875 -0.2495 0.6820
vn 0.6264 -0.4154 0.6596
vn 0.7451 -0.4521 0.4904
vn 0.5187 -0.5124 0.6844
vn 0.4854 -0.2918 0.8242
vn 0.4185 -0.4200 0.8053
vn 0.6223 -0.6062 0.4953
vn 0.5380 -0.1686 0.8259
vn 0.8433 0.0766 0.5320
vn 0.6796 0.1589 0.7162
vn 0.6737 -0.0280 0.7385
vn 0.8116 -0.0633 0.5808
vn 0.5932 -0.1482 0.7913
vn 0.4868 0.0871 0.8691
vn 0.4599 -0.0621 0.8858
vn 0.7374 -0.2533 0.6261
vn 0.5015 0.2213 0.8364
vn -0.1909 0.8177 -0.5430
vn -0.4761 0.7306 -0.4895
vn -0.2607 0.8541 -0.4501
vn -0.5530 0.7352 -0.3920
vn -0.6477 0.5168 -0.5598
vn -0.6930 0.5685 -0.4433
vn -0.3533 0.8838 -0.3068
vn -0.6005 0.4662 -0.6497
vn -0.6005 0.4661 -0.6497
vn 0.3469 0.6770 0.6491
vn 0.5759 0.5402 0.6136
vn 0.5812 0.6367 0.5067
vn 0.3766 0.7341 0.5651
vn 0.6212 0.6679 0.4100
vn 0.7617 0.4486 0.4676
vn 0.7642 0.5244 0.3755
vn 0.4129 0.8036 0.4286
vn 0.7509 0.3787 0.5411
vn 0.0904 0.8639 0.4954
vn 0.1606 0.9212 0.3545
vn 0.0522 0.9401 0.3369
vn 0.0119 0.8925 0.4508
vn -0.0094 0.9617 0.2740
vn 0.1422 0.9673 0.2100
vn 0.0562 0.9824 0.1780
vn -0.0897 0.9177 0.3870
vn 0.2132 0.9482 0.2355
vn 0.0517 0.4379 0.8976
vn 0.2864 0.3655 0.8856
vn 0.2906 0.5061 0.8120
vn 0.0911 0.5411 0.8360
vn 0.3520 0.5842 0.7313
vn 0.4951 0.3869 0.7779
vn 0.5046 0.4956 0.7069
vn 0.1432 0.6695 0.7288
vn 0.4792 0.2833 0.8307
vn 0.7307 -0.0740 0.6787
vn 0.7709 0.1696 0.6140
vn 0.7698 0.1548 0.6192
vn 0.7306 -0.0741 0.6787
vn 0.9818 -0.1865 -0.0355
vn 0.9873 -0.0361 -0.1549
vn 0.9803 -0.1954 -0.0282
vn 0.7653 0.3703 0.5265
vn 0.9350 -0.3417 0.0954
vn 0.5048 -0.0656 -0.8607
vn 0.5971 0.1347 -0.7908
vn 0.6061 0.1585 -0.7794
vn 0.5048 -0.0655 -0.8607
vn -0.0644 0.4305 -0.9003
vn -0.0623 0.6066 -0.7925
vn -0.0643 0.4432 -0.8941
vn 0.6586 0.3325 -0.6751
vn -0.0637 0.2451 -0.9674
vn 0.9021 0.1267 0.4124
vn 0.8338 0.3567 0.4213
vn 0.8293 0.3675 0.4210
vn 0.8963 0.3291 -0.2971
vn 0.7967 0.4903 -0.3532
vn 0.7967 0.4903 -0.3533
vn 0.8973 0.3271 -0.2963
vn 0.7237 0.5573 0.4070
vn 0.9625 0.1488 -0.2268
vn 0.1106 -0.1754 -0.9783
vn 0.0033 0.0534 -0.9986
vn 0.0127 0.0337 -0.9994
vn -0.5841 -0.3747 -0.7200
vn -0.7022 -0.2389 -0.6707
vn -0.7022 -0.2388 -0.6707
vn -0.5762 -0.3826 -0.7222
vn -0.0870 0.2432 -0.9661
vn -0.4331 -0.5072 -0.7451
vn 0.1692 0.1185 -0.9784
vn 0.1691 0.1185 -0.9785
vn 0.1688 0.1186 -0.9785
vn 0.1691 0.1185 -0.9784
vn -0.6336 -0.1494 -0.7591
vn -0.7704 0.0027 -0.6375
vn -0.7706 0.0027 -0.6374
vn -0.6273 -0.1554 -0.7631
vn -0.0727 0.5956 -0.8000
vn -0.0726 0.5956 -0.8000
vn -0.4472 -0.3029 -0.8416
vn -0.4472 -0.3028 -0.8416
vn 0.2645 -0.4530 0.8514
vn 0.1516 -0.5396 0.8282
vn 0.3094 -0.6839 0.6607
vn 0.4151 -0.5768 0.7036
vn -0.0238 -0.3607 0.9324
vn -0.1344 -0.4052 0.9043
vn 0.2017 -0.7705 0.6046
vn 0.1007 -0.3044 0.9472
vn 0.1309 -0.1358 -0.9820
vn 0.1309 -0.1357 -0.9821
vn 0.4899 -0.1564 -0.8576
vn 0.2271 -0.2849 -0.9313
vn 0.5447 -0.3229 -0.7740
vn 0.7079 -0.0334 -0.7056
vn 0.7163 -0.2115 -0.6649
vn 0.3172 -0.4271 -0.8468
vn 0.6723 0.1592 -0.7229
vn -0.2452 -0.4138 -0.8767
vn -0.0599 -0.5272 -0.8476
vn -0.0639 -0.5251 -0.8487
vn 0.5104 -0.1833 -0.8401
vn 0.3919 0.0242 -0.9197
vn 0.4114 -0.0071 -0.9114
vn 0.5105 -0.1833 -0.8401
vn 0.1248 -0.6139 -0.7795
vn 0.1248 -0.6138 -0.7795
vn 0.2790 0.1891 -0.9415
vn -0.8511 -0.3902 -0.3511
vn -0.8511 -0.3901 -0.3513
vn -0.6495 -0.6307 -0.4248
vn -0.8032 -0.5294 -0.2731
vn -0.6050 -0.7317 -0.3140
vn -0.4501 -0.7083 -0.5439
vn -0.4456 -0.7920 -0.4174
vn -0.7417 -0.6412 -0.1970
vn -0.4446 -0.6123 -0.6537
vn -0.9578 0.1016 -0.2687
vn -0.9880 -0.0523 -0.1452
vn -0.9988 0.0485 0.0047
vn -0.9509 0.2276 -0.2097
vn -0.9447 -0.0653 0.3214
vn -0.9732 -0.1593 0.1659
vn -0.9702 -0.2418 0.0172
vn -0.9150 0.3826 -0.1281
vn -0.3997 0.3732 0.8373
vn -0.2864 0.2310 0.9299
vn -0.1516 0.3145 0.9371
vn -0.3451 0.4772 0.8082
vn 0.1512 0.1755 0.9728
vn 0.0031 0.1072 0.9942
vn -0.1306 0.0430 0.9905
vn -0.2677 0.6004 0.7536
vn 0.8292 0.4546 0.3251
vn 0.7331 0.5587 0.3877
vn 0.7126 0.4866 0.5054
vn 0.8469 0.3659 0.3859
vn 0.7080 0.3985 0.5830
vn 0.5613 0.6077 0.5618
vn 0.5144 0.5297 0.6744
vn 0.5933 0.6667 0.4512
vn 0.8548 0.2453 0.4573
vn 0.2256 -0.5509 -0.8035
vn 0.3347 -0.6697 -0.6630
vn 0.2392 -0.7411 -0.6273
vn 0.1282 -0.5730 -0.8095
vn 0.2726 -0.8959 -0.3507
vn 0.3647 -0.8255 -0.4308
vn 0.2726 -0.8960 -0.3506
vn 0.4308 -0.7599 -0.4868
vn 0.0129 -0.5915 -0.8062
vt 0.966382 8.503631
vt 0.966382 6.725045
vt 0.810921 6.725045
vt 0.810921 8.503631
vt 0.189079 8.503631
vt 0.189079 6.725048
vt 0.033618 6.725048
vt 0.033618 8.503633
vt 0.344539 8.503631
vt 0.344539 6.725048
vt 0.500000 8.503631
vt 0.655461 8.503631
vt 0.655461 6.725048
vt 0.500000 6.725048
vt 0.966382 4.946462
vt 0.810921 4.946462
vt 0.189079 4.946462
vt 0.033618 4.946462
vt 0.344539 4.946462
vt 0.655461 4.946462
vt 0.500000 4.946462
vt 0.966382 3.167876
vt 0.810921 3.167876
vt 0.189079 3.167876
vt 0.033618 3.167878
vt 0.500000 3.167876
vt 0.344539 3.167876
vt 0.655461 3.167876
vt 0.810921 1.389293
vt 0.189079 1.389293
vt 0.033618 1.389293
vt 0.344539 1.389293
vt 0.500000 1.389293
vt 0.655461 1.389293
vt 0.966382 1.389293
vt 0.966382 -0.389294
vt 0.810921 -0.389293
vt 0.189079 -0.389293
vt 0.033618 -0.389292
vt 0.344539 -0.389293
vt 0.500000 -0.389293
vt 0.655461 -0.389293
vt 0.966382 -2.167878
vt 0.810921 -2.167878
vt 0.189079 -2.167876
vt 0.033618 -2.167876
vt 0.344539 -2.167877
vt 0.500000 -2.167877
vt 0.655461 -2.167877
vt 0.810921 -3.946462
vt 0.189079 -3.946462
vt 0.033618 -3.946462
vt 0.344539 -3.946462
vt 0.655461 -3.946462
vt 0.500000 -3.946462
vt 0.966382 -3.946462
vt 0.966382 -5.725047
vt 0.810921 -5.725047
vt 0.189079 -5.725045
vt 0.033618 -5.725045
vt 0.344539 -5.725046
vt 0.500000 -5.725046
vt 0.655461 -5.725046
vt 0.966382 -7.503632
vt 0.810921 -7.503630
vt 0.189079 -7.503630
vt 0.033618 -7.503630
vt 0.344539 -7.503630
vt 0.500000 -7.503630
vt 0.655461 -7.503630
vt 0.000000 0.000000
vt 0.475004 0.000000
vt 0.581436 0.594393
vt 0.000000 0.491831
vt 0.494355 1.000000
vt 1.000000 0.474417
vt 1.000000 1.000000
vt 0.000000 1.000000
vt 1.000000 0.000000
vt 0.533479 0.000000
vt 0.447807 0.563622
vt 0.000000 0.448746
vt 0.515396 1.000000
vt 1.000000 0.474699
vt 0.509433 1.000000
vt 0.557025 0.488493
vt 0.943530 0.531260
vt 0.672370 1.000000
vt 0.124045 0.440587
vt 0.259966 0.000000
vt 0.602475 0.000000
vt 0.860970 0.000000
vt 0.189556 1.000000
vt 0.480173 0.000000
vt 0.499095 0.494221
vt 0.000000 0.504135
vt 0.518459 1.000000
vt 1.000000 0.484268
vt 0.532232 1.000000
vt 0.477364 0.470556
vt 1.000000 0.533264
vt 0.516556 0.000000
vt 0.000000 0.535225
s 1
usemtl trunk-01
f 4/1/1 18/2/2 26/3/3
f 4/1/1 26/3/3 13/4/1
f 6/5/4 19/6/5 17/7/6
f 6/5/4 17/7/6 3/8/4
f 8/9/7 21/10/8 20/6/9
f 11/11/10 22/10/10 9/9/10
f 16/12/11 25/13/12 23/14/13
f 16/12/11 23/14/13 12/11/11
f 15/4/14 27/3/15 24/13/16
f 18/2/2 30/15/17 41/16/18
f 18/2/2 41/16/18 26/3/3
f 19/6/5 32/17/19 29/18/20
f 19/6/5 29/18/20 17/7/6
f 21/10/8 34/19/21 33/17/22
f 21/10/8 33/17/22 20/6/9
f 25/13/12 39/20/23 36/21/23
f 25/13/12 36/21/23 23/14/13
f 27/3/15 42/16/24 38/20/25
f 27/3/15 38/20/25 24/13/16
f 30/15/17 44/22/26 54/23/27
f 30/15/17 54/23/27 41/16/18
f 31/17/28 45/24/29 43/25/30
f 31/17/28 43/25/30 28/18/28
f 34/19/21 47/24/31 33/17/22
f 35/21/32 49/26/33 48/27/34
f 40/20/35 53/28/36 50/26/37
f 40/20/35 50/26/37 37/21/35
f 42/16/24 55/23/38 52/28/38
f 42/16/24 52/28/38 38/20/25
f 44/22/26 58/29/39 54/23/27
f 45/24/29 59/30/40 56/31/41
f 45/24/29 56/31/41 43/25/30
f 46/27/42 61/32/43 60/30/44
f 49/26/33 63/33/45 62/32/46
f 49/26/33 62/32/46 48/27/34
f 53/28/36 66/34/47 64/33/48
f 53/28/36 64/33/48 50/26/37
f 54/23/27 58/29/39 65/34/49
f 54/23/27 65/34/49 51/28/50
f 57/35/51 176/36/52 79/37/53
f 59/30/40 69/38/54 174/39/54
f 59/30/40 174/39/54 56/31/41
f 61/32/43 73/40/55 70/38/55
f 61/32/43 70/38/55 60/30/44
f 63/33/45 177/41/56 76/40/56
f 63/33/45 76/40/56 62/32/46
f 66/34/47 167/42/57 180/41/57
f 66/34/47 180/41/57 64/33/48
f 58/29/39 80/37/58 166/42/59
f 58/29/39 166/42/59 65/34/49
f 176/36/52 82/43/60 91/44/61
f 176/36/52 91/44/61 79/37/53
f 68/38/62 83/45/63 81/46/64
f 68/38/62 81/46/64 173/39/62
f 74/40/65 85/47/66 84/45/67
f 74/40/65 84/45/67 71/38/68
f 178/41/69 87/48/70 86/47/71
f 178/41/69 86/47/71 77/40/69
f 168/42/72 90/49/73 88/48/74
f 168/42/72 88/48/74 181/41/72
f 80/37/58 92/44/75 89/49/76
f 80/37/58 89/49/76 166/42/59
f 82/43/60 101/50/77 91/44/61
f 83/45/63 93/51/78 100/52/79
f 83/45/63 100/52/79 81/46/64
f 85/47/66 95/53/80 94/51/81
f 85/47/66 94/51/81 84/45/67
f 87/48/70 96/53/82 86/47/71
f 90/49/73 99/54/83 97/55/84
f 90/49/73 97/55/84 88/48/74
f 92/44/75 103/50/85 98/54/86
f 92/44/75 98/54/86 89/49/76
f 102/56/87 105/57/88 113/58/89
f 93/51/78 106/59/90 104/60/91
f 93/51/78 104/60/91 100/52/79
f 95/53/80 108/61/92 107/59/93
f 95/53/80 107/59/93 94/51/81
f 97/55/84 110/62/94 109/61/95
f 99/54/83 112/63/96 110/62/94
f 99/54/83 110/62/94 97/55/84
f 103/50/85 114/58/97 111/63/98
f 103/50/85 111/63/98 98/54/86
f 105/57/88 116/64/99 123/65/99
f 105/57/88 123/65/99 113/58/89
f 106/59/90 117/66/100 115/67/100
f 106/59/90 115/67/100 104/60/91
f 108/61/92 1/68/101 118/66/101
f 108/61/92 118/66/101 107/59/93
f 110/62/94 119/69/102 2/68/102
f 110/62/94 2/68/102 109/61/95
f 112/63/96 122/70/103 120/69/103
f 112/63/96 120/69/103 110/62/94
f 114/58/97 124/65/104 121/70/104
f 114/58/97 121/70/104 111/63/98
f 128/1/105 142/22/106 152/23/107
f 128/1/105 152/23/107 140/4/108
f 127/5/109 144/24/110 141/25/111
f 130/9/112 146/27/113 143/24/114
f 130/9/112 143/24/114 125/5/112
f 133/11/115 147/26/116 145/27/117
f 133/11/115 145/27/117 129/9/118
f 134/12/119 149/28/120 148/26/121
f 139/4/122 151/23/123 150/28/124
f 139/4/122 150/28/124 136/12/125
f 142/22/106 154/43/126 164/44/127
f 142/22/106 164/44/127 152/23/107
f 144/24/110 156/45/128 153/46/129
f 144/24/110 153/46/129 141/25/111
f 146/27/113 158/47/130 155/45/131
f 146/27/113 155/45/131 143/24/114
f 147/26/116 159/48/132 157/47/133
f 147/26/116 157/47/133 145/27/117
f 149/28/120 161/49/134 160/48/135
f 149/28/120 160/48/135 148/26/121
f 151/23/123 163/44/136 162/49/137
f 151/23/123 162/49/137 150/28/124
f 154/43/126 169/64/138 182/65/139
f 154/43/126 182/65/139 164/44/127
f 156/45/128 171/66/140 165/67/141
f 156/45/128 165/67/141 153/46/129
f 158/47/130 175/68/142 170/66/142
f 158/47/130 170/66/142 155/45/131
f 159/48/132 67/69/143 172/68/143
f 159/48/132 172/68/143 157/47/133
f 161/49/134 75/70/144 72/69/144
f 161/49/134 72/69/144 160/48/135
f 163/44/136 179/65/145 78/70/146
f 163/44/136 78/70/146 162/49/137
f 138/4/147 135/12/147 132/9/147
s 0
f 137/4/148 131/9/148 126/5/148
s 1
f 14/12/149 10/11/149 7/9/149
f 14/12/149 7/9/149 5/8/149
usemtl branch-02
f 183/71/150 187/72/151 189/73/152
f 183/71/150 189/73/152 191/74/153
f 188/75/154 189/73/152 190/76/155
f 188/75/154 190/76/155 186/77/156
f 191/74/153 189/73/152 188/75/154
f 191/74/153 188/75/154 185/78/157
f 190/76/155 189/73/152 187/72/151
f 190/76/155 187/72/151 184/79/158
f 192/71/159 196/72/160 198/73/161
f 192/71/159 198/73/161 200/74/162
f 197/75/163 198/73/161 199/76/164
f 197/75/163 199/76/164 195/77/165
f 200/74/162 198/73/161 197/75/163
f 200/74/162 197/75/163 194/78/166
f 199/76/164 198/73/161 196/72/160
f 199/76/164 196/72/160 193/79/167
f 201/71/168 205/72/169 207/73/170
f 201/71/168 207/73/170 209/74/171
f 206/75/172 207/73/170 208/76/173
f 206/75/172 208/76/173 204/77/174
f 209/74/171 207/73/170 206/75/172
f 209/74/171 206/75/172 203/78/175
f 208/76/173 207/73/170 205/72/169
f 208/76/173 205/72/169 202/79/176
f 210/71/177 214/72/178 216/73/179
f 210/71/177 216/73/179 218/74/180
f 215/75/181 216/73/179 217/76/182
f 215/75/181 217/76/182 213/77/183
f 218/74/180 216/73/179 215/75/181
f 218/74/180 215/75/181 212/78/184
f 217/76/182 216/73/179 214/72/178
f 217/76/182 214/72/178 211/79/185
f 219/71/186 224/72/186 226/73/187
f 219/71/186 226/73/187 228/74/188
f 225/75/189 226/73/187 227/76/190
f 225/75/189 227/76/190 222/77/191
f 228/74/188 226/73/187 225/75/189
f 228/74/188 225/75/189 221/78/192
f 227/76/190 226/73/187 223/72/193
f 227/76/190 223/72/193 220/79/193
f 229/71/194 233/72/195 235/73/196
f 229/71/194 235/73/196 237/74/197
f 234/75/198 235/73/196 236/76/199
f 234/75/198 236/76/199 232/77/200
f 237/74/197 235/73/196 234/75/198
f 237/74/197 234/75/198 231/78/201
f 236/76/199 235/73/196 233/72/195
f 236/76/199 233/72/195 230/79/202
f 238/71/203 242/72/204 244/73/205
f 238/71/203 244/73/205 246/74/206
f 243/75/207 244/73/205 245/76/208
f 243/75/207 245/76/208 241/77/209
f 246/74/206 244/73/205 243/75/207
f 246/74/206 243/75/207 240/78/210
f 245/76/208 244/73/205 242/72/204
f 245/76/208 242/72/204 239/79/211
f 247/71/212 251/72/213 253/73/214
f 247/71/212 253/73/214 255/74/215
f 252/75/216 253/73/214 254/76/217
f 252/75/216 254/76/217 250/77/218
f 255/74/215 253/73/214 252/75/216
f 255/74/215 252/75/216 249/78/219
f 254/76/217 253/73/214 251/72/213
f 254/76/217 251/72/213 248/79/220
f 256/71/221 260/72/222 262/73/223
f 256/71/221 262/73/223 264/74/224
f 261/75/225 262/73/223 263/76/226
f 261/75/225 263/76/226 259/77/227
f 264/74/224 262/73/223 261/75/225
f 264/74/224 261/75/225 258/78/228
f 263/76/226 262/73/223 260/72/222
f 263/76/226 260/72/222 257/79/229
f 265/71/230 269/72/230 273/73/231
f 265/71/230 273/73/231 276/74/232
f 272/75/233 274/73/234 275/76/235
f 272/75/233 275/76/235 268/77/236
f 276/74/232 273/73/231 271/75/237
f 276/74/232 271/75/237 267/78/238
f 275/76/235 274/73/234 270/72/239
f 275/76/235 270/72/239 266/79/240
usemtl branch-01
f 277/71/241 282/80/241 286/81/242
f 277/71/241 286/81/242 287/82/243
f 283/83/244 285/81/245 288/84/246
f 283/83/244 288/84/246 280/77/247
f 287/82/243 286/81/242 284/83/248
f 287/82/243 284/83/248 279/78/249
f 288/84/246 285/81/245 281/80/250
f 288/84/246 281/80/250 278/79/250
f 289/71/251 293/80/251 297/81/252
f 289/71/251 297/81/252 299/82/253
f 296/83/254 298/81/255 300/84/256
f 296/83/254 300/84/256 292/77/257
f 299/82/253 297/81/252 295/83/258
f 299/82/253 295/83/258 291/78/259
f 300/84/256 298/81/255 294/80/260
f 300/84/256 294/80/260 290/79/260
f 301/71/261 305/80/262 307/81/263
f 301/71/261 307/81/263 308/82/264
f 306/83/265 307/81/263 309/84/266
f 306/83/265 309/84/266 304/77/267
f 308/82/264 307/81/263 306/83/265
f 308/82/264 306/83/265 303/78/268
f 309/84/266 307/81/263 305/80/262
f 309/84/266 305/80/262 302/79/269
f 310/71/270 314/80/271 316/81/272
f 310/71/270 316/81/272 317/82/270
f 315/83/273 316/81/272 319/84/274
f 315/83/273 319/84/274 313/77/275
f 318/82/276 316/81/272 315/83/273
f 318/82/276 315/83/273 312/78/276
f 319/84/274 316/81/272 314/80/271
f 319/84/274 314/80/271 311/79/277
f 320/71/278 324/80/279 326/81/280
f 320/71/278 326/81/280 327/82/281
f 325/83/282 326/81/280 328/84/283
f 325/83/282 328/84/283 323/77/284
f 327/82/281 326/81/280 325/83/282
f 327/82/281 325/83/282 322/78/285
f 328/84/283 326/81/280 324/80/279
f 328/84/283 324/80/279 321/79/286
f 329/71/287 334/80/287 338/81/288
f 329/71/287 338/81/288 339/82/289
f 335/83/290 337/81/291 340/84/292
f 335/83/290 340/84/292 332/77/293
f 339/82/289 338/81/288 336/83/294
f 339/82/289 336/83/294 331/78/295
f 340/84/292 337/81/291 333/80/296
f 340/84/292 333/80/296 330/79/296
f 341/71/297 345/80/298 347/81/299
f 341/71/297 347/81/299 348/82/300
f 346/83/301 347/81/299 349/84/302
f 346/83/301 349/84/302 344/77/303
f 348/82/300 347/81/299 346/83/301
f 348/82/300 346/83/301 343/78/304
f 349/84/302 347/81/299 345/80/298
f 349/84/302 345/80/298 342/79/305
f 350/71/306 354/80/307 356/81/308
f 350/71/306 356/81/308 357/82/309
f 355/83/310 356/81/308 358/84/311
f 355/83/310 358/84/311 353/77/312
f 357/82/309 356/81/308 355/83/310
f 357/82/309 355/83/310 352/78/313
f 358/84/311 356/81/308 354/80/307
f 358/84/311 354/80/307 351/79/314
f 359/71/315 364/80/315 366/81/316
f 359/71/315 366/81/316 367/82/317
f 365/83/318 366/81/316 368/84/319
f 365/83/318 368/84/319 362/77/320
f 367/82/317 366/81/316 365/83/318
f 367/82/317 365/83/318 361/78/321
f 368/84/319 366/81/316 363/80/322
f 368/84/319 363/80/322 360/79/323
f 369/71/324 373/80/325 375/81/326
f 369/71/324 375/81/326 376/82/327
f 374/83/328 375/81/326 377/84/329
f 374/83/328 377/84/329 372/77/330
f 376/82/327 375/81/326 374/83/328
f 376/82/327 374/83/328 371/78/331
f 377/84/329 375/81/326 373/80/325
f 377/84/329 373/80/325 370/79/332
f 378/71/333 382/80/334 384/81/335
f 378/71/333 384/81/335 385/82/336
f 383/83/337 384/81/335 386/84/338
f 383/83/337 386/84/338 381/77/339
f 385/82/336 384/81/335 383/83/337
f 385/82/336 383/83/337 380/78/340
f 386/84/338 384/81/335 382/80/334
f 386/84/338 382/80/334 379/79/341
f 387/71/342 391/80/343 393/81/344
f 387/71/342 393/81/344 394/82/345
f 392/83/346 393/81/344 395/84/347
f 392/83/346 395/84/347 390/77/348
f 394/82/345 393/81/344 392/83/346
f 394/82/345 392/83/346 389/78/349
f 395/84/347 393/81/344 391/80/343
f 395/84/347 391/80/343 388/79/350
usemtl branch-04
f 396/85/351 400/86/352 405/87/353
f 396/85/351 405/87/353 406/88/354
f 403/89/355 402/90/356 399/91/356
f 403/89/355 399/91/356 401/86/357
f 404/92/358 405/87/353 400/86/352
f 404/92/358 400/86/352 398/91/358
f 407/93/359 403/89/355 401/86/357
f 407/93/359 401/86/357 397/85/359
f 409/85/360 413/86/361 417/87/362
f 409/85/360 417/87/362 418/88/363
f 415/89/364 414/90/365 410/91/365
f 415/89/364 410/91/365 412/86/366
f 416/92/367 417/87/362 413/86/361
f 416/92/367 413/86/361 411/91/367
f 419/93/368 415/89/364 412/86/366
f 419/93/368 412/86/366 408/85/368
f 420/85/369 424/86/370 429/87/371
f 420/85/369 429/87/371 430/88/369
f 427/89/372 426/90/373 423/91/374
f 427/89/372 423/91/374 425/86/375
f 428/92/376 429/87/371 424/86/370
f 428/92/376 424/86/370 422/91/376
f 431/93/377 427/89/372 425/86/375
f 431/93/377 425/86/375 421/85/377
f 433/85/378 437/86/379 441/87/380
f 433/85/378 441/87/380 442/88/378
f 439/89/381 438/90/382 434/91/383
f 439/89/381 434/91/383 436/86/384
f 440/92/385 441/87/380 437/86/379
f 440/92/385 437/86/379 435/91/385
f 443/93/386 439/89/381 436/86/384
f 443/93/386 436/86/384 432/85/386
f 445/85/387 450/86/388 455/87/389
f 445/85/387 455/87/389 456/88/390
f 452/89/391 451/90/392 446/91/393
f 452/89/391 446/91/393 448/86/394
f 453/92/395 454/87/395 449/86/395
f 453/92/395 449/86/395 447/91/396
f 457/93/397 452/89/391 448/86/394
f 457/93/397 448/86/394 444/85/398
f 458/85/399 461/86/400 465/87/401
f 458/85/399 465/87/401 466/88/402
f 463/89/403 462/90/404 459/91/404
f 463/89/403 459/91/404 461/86/400
f 464/92/405 465/87/401 461/86/400
f 464/92/405 461/86/400 460/91/405
f 467/93/406 463/89/403 461/86/400
f 467/93/406 461/86/400 458/85/399
usemtl branch-05
f 468/71/407 472/94/408 477/95/409
f 468/71/407 477/95/409 476/96/410
f 474/97/411 477/95/409 475/98/412
f 474/97/411 475/98/412 471/77/413
f 476/96/410 477/95/409 474/97/411
f 476/96/410 474/97/411 470/78/414
f 475/98/412 477/95/409 473/94/415
f 475/98/412 473/94/415 469/79/415
f 478/71/416 482/94/416 488/95/417
f 478/71/416 488/95/417 487/96/418
f 485/97/419 489/95/420 486/98/421
f 485/97/419 486/98/421 481/77/422
f 487/96/418 488/95/417 484/97/423
f 487/96/418 484/97/423 480/78/424
f 486/98/421 489/95/420 483/94/425
f 486/98/421 483/94/425 479/79/425
f 490/71/426 494/94/427 499/95/428
f 490/71/426 499/95/428 498/96/429
f 496/97/430 499/95/428 497/98/431
f 496/97/430 497/98/431 493/77/432
f 498/96/429 499/95/428 496/97/430
f 498/96/429 496/97/430 492/78/433
f 497/98/431 499/95/428 495/94/434
f 497/98/431 495/94/434 491/79/434
usemtl branch-03
f 503/77/435 504/99/436 507/100/437
f 503/77/435 507/100/437 509/101/438
f 505/102/439 507/100/437 508/103/440
f 505/102/439 508/103/440 500/71/439
f 508/103/440 507/100/437 504/99/436
f 508/103/440 504/99/436 502/78/441
f 509/101/438 507/100/437 506/102/442
f 509/101/438 506/102/442 501/79/442
f 513/77/443 514/99/444 517/100/445
f 513/77/443 517/100/445 519/101/446
f 516/102/447 517/100/445 518/103/448
f 516/102/447 518/103/448 510/71/447
f 518/103/448 517/100/445 514/99/444
f 518/103/448 514/99/444 512/78/449
f 519/101/446 517/100/445 515/102/450
f 519/101/446 515/102/450 511/79/450
f 523/77/451 524/99/452 526/100/453
f 523/77/451 526/100/453 528/101/454
f 525/102/455 526/100/453 527/103/456
f 525/102/455 527/103/456 520/71/457
f 527/103/456 526/100/453 524/99/452
f 527/103/456 524/99/452 522/78/458
f 528/101/454 526/100/453 525/102/455
f 528/101/454 525/102/455 521/79/459
f 532/77/460 533/99/461 536/100/462
f 532/77/460 536/100/462 538/101/463
f 535/102/464 536/100/462 537/103/465
f 535/102/464 537/103/465 529/71/466
f 537/103/465 536/100/462 533/99/461
f 537/103/465 533/99/461 531/78/467
f 538/101/463 536/100/462 534/102/468
f 538/101/463 534/102/468 530/79/468
