# Blender 5.1.0
# www.blender.org
mtllib Clover-01.mtl
o Clover-01
v 3.651670 -0.011467 19.421268
v 3.651670 -0.011467 19.421268
v 3.651670 -0.011467 17.812687
v 2.043089 -0.011467 19.421268
v 2.043089 -0.011467 19.421268
v 2.043089 -0.011467 17.812687
v 2.043089 -0.011467 17.812687
v 3.651670 -0.011467 17.825424
v 3.651670 -0.011467 17.825424
v 2.729165 0.057334 18.521280
v 2.729165 0.057334 18.521280
v 2.729165 0.057334 18.521280
v 2.729165 0.057334 18.521280
vn -0.0998 0.9950 -0.0000
vn 0.0744 0.9972 -0.0000
vn 0.0008 0.9954 -0.0958
vn 0.0002 0.9954 -0.0956
vn 0.0008 0.9954 -0.0956
vn -0.0000 0.9971 0.0762
vt 0.000000 1.000000
vt 0.559492 0.573490
vt 1.000000 1.000000
vt 0.992082 0.000000
vt 0.000000 0.000000
vt 1.000000 0.000000
s 0
usemtl clover-01
f 4/1/1 10/2/1 6/3/1
f 9/4/2 13/2/2 2/5/2
s 1
f 7/3/3 12/2/3 8/4/4
f 7/3/3 8/4/4 3/6/5
s 0
f 1/5/6 11/2/6 5/1/6
