# Blender 5.1.0
# www.blender.org
mtllib Tree-02-1.mtl
o Tree-02-1
v 14.962492 6.544237 3.401095
v 14.962492 6.544237 3.401095
v 14.962492 6.544237 3.401095
v 14.960007 6.542469 3.407989
v 14.960007 6.542469 3.407989
v 14.960007 6.542469 3.407989
v 14.952753 6.540700 3.409040
v 14.952753 6.540700 3.409040
v 14.952753 6.540700 3.409040
v 14.954720 6.542469 3.401628
v 14.954720 6.542469 3.401628
v 14.954720 6.542469 3.401628
v 14.954720 6.542469 3.401628
v 15.134584 5.784075 3.264705
v 15.134584 5.784075 3.264705
v 15.130045 5.780529 3.277345
v 15.130045 5.780529 3.277345
v 15.116453 5.778754 3.279598
v 15.116453 5.778754 3.279598
v 15.107401 5.780526 3.269212
v 15.107401 5.780526 3.269212
v 15.111941 5.784072 3.256572
v 15.111941 5.784072 3.256572
v 15.112561 5.433179 3.137306
v 15.112561 5.433179 3.137306
v 15.112561 5.433179 3.137306
v 15.118473 5.425576 3.167332
v 15.118473 5.425576 3.167332
v 15.100664 5.426338 3.171031
v 15.100664 5.426338 3.171031
v 15.094752 5.433941 3.141006
v 15.094752 5.433941 3.141006
v 15.094752 5.433941 3.141006
v 15.094752 5.433941 3.141006
v 15.067049 5.101831 3.082399
v 15.067049 5.101831 3.082399
v 15.081872 5.099468 3.099512
v 15.081872 5.099468 3.099512
v 15.074437 5.094132 3.120355
v 15.074437 5.094132 3.120355
v 15.037355 5.093525 3.106972
v 15.037355 5.093525 3.106972
v 15.037355 5.093525 3.106972
v 15.037355 5.093525 3.106972
v 15.044790 5.098861 3.086129
v 15.044790 5.098861 3.086129
v 15.220709 4.673886 2.948694
v 15.220709 4.673886 2.948694
v 15.239350 4.675581 2.972178
v 15.239350 4.675581 2.972178
v 15.229544 4.668532 2.999673
v 15.229544 4.668532 2.999673
v 15.201096 4.659787 3.003685
v 15.201096 4.659787 3.003685
v 15.197037 4.658092 2.967029
v 15.197037 4.658092 2.967029
v 15.197037 4.658092 2.967029
v 15.586660 3.243920 2.935442
v 15.586660 3.243920 2.935442
v 15.565481 3.239065 2.987964
v 15.565481 3.239065 2.987964
v 15.511911 3.221628 2.995506
v 15.511911 3.221628 2.995506
v 15.488857 3.209045 2.921657
v 15.488857 3.209045 2.921657
v 15.500699 3.213900 2.898005
v 15.500699 3.213900 2.898005
v 15.500699 3.213900 2.898005
v 15.750416 2.800379 2.930574
v 15.750416 2.800379 2.930574
v 15.788686 2.810781 2.982095
v 15.788686 2.810781 2.982095
v 15.788686 2.810781 2.982095
v 15.788686 2.810781 2.982095
v 15.702845 2.786391 3.050781
v 15.702845 2.786391 3.050781
v 15.664575 2.775990 2.999260
v 15.664575 2.775990 2.999260
v 15.688360 2.782984 2.939157
v 15.688360 2.782984 2.939157
v 15.891161 1.731731 2.794220
v 15.891161 1.731731 2.794220
v 15.941846 1.733322 2.859277
v 15.941846 1.733322 2.859277
v 15.911202 1.726985 2.935596
v 15.911202 1.726985 2.935596
v 15.829875 1.719058 2.946859
v 15.829875 1.719058 2.946859
v 15.779185 1.717468 2.881803
v 15.779185 1.717468 2.881803
v 15.779185 1.717468 2.881803
v 15.779185 1.717468 2.881803
v 15.922734 1.219599 2.798138
v 15.922734 1.219599 2.798138
v 15.962532 1.210362 2.900467
v 15.962532 1.210362 2.900467
v 15.962532 1.210362 2.900467
v 15.962532 1.210362 2.900467
v 15.857022 1.203178 2.962203
v 15.857022 1.203178 2.962203
v 15.802266 1.204205 2.892368
v 15.802266 1.204205 2.892368
v 15.835122 1.212415 2.810336
v 15.835122 1.212415 2.810336
v 16.030388 0.000000 2.595741
v 16.030388 0.000000 2.595741
v 16.055159 0.000000 2.757987
v 16.055159 0.000000 2.757987
v 15.960806 0.000000 2.770851
v 15.960806 0.000000 2.770851
v 15.960806 0.000000 2.770851
v 15.960806 0.000000 2.770851
v 15.901244 0.000000 2.696160
v 15.901244 0.000000 2.696160
v 15.936035 0.000000 2.608605
v 15.936035 0.000000 2.608605
v 16.581757 6.422642 2.298565
v 16.581757 6.422642 2.298565
v 16.581757 6.422642 2.298565
v 16.574743 6.423199 2.289363
v 16.574743 6.423199 2.289363
v 16.574743 6.423199 2.289363
v 16.574743 6.423199 2.289363
v 16.582468 6.422443 2.284343
v 16.582468 6.422443 2.284343
v 16.582468 6.422443 2.284343
v 16.588264 6.421611 2.293077
v 16.588264 6.421611 2.293077
v 16.588264 6.421611 2.293077
v 16.588264 6.421611 2.293077
v 16.551348 5.754068 2.392601
v 16.551348 5.754068 2.392601
v 16.539858 5.752746 2.380635
v 16.539858 5.752746 2.380635
v 16.545691 5.743852 2.365593
v 16.545691 5.743852 2.365593
v 16.545691 5.743852 2.365593
v 16.560175 5.746207 2.372921
v 16.560175 5.746207 2.372921
v 16.561859 5.749250 2.380968
v 16.561859 5.749250 2.380968
v 16.546839 5.377732 2.657428
v 16.546839 5.377732 2.657428
v 16.546839 5.377732 2.657428
v 16.528341 5.374551 2.651813
v 16.528341 5.374551 2.651813
v 16.528341 5.374551 2.651813
v 16.539286 5.365095 2.621117
v 16.539286 5.365095 2.621117
v 16.539286 5.365095 2.621117
v 16.539286 5.365095 2.621117
v 16.557783 5.368277 2.626732
v 16.557783 5.368277 2.626732
v 16.557783 5.368277 2.626732
v 16.552135 5.374595 2.650161
v 16.552135 5.374595 2.650161
v 16.593702 5.066915 2.671504
v 16.593702 5.066915 2.671504
v 16.565178 5.068260 2.650967
v 16.565178 5.068260 2.650967
v 16.565178 5.068260 2.650967
v 16.565178 5.068260 2.650967
v 16.581480 5.067616 2.627165
v 16.581480 5.067616 2.627165
v 16.604088 5.066579 2.634799
v 16.604088 5.066579 2.634799
v 16.605953 5.066406 2.660710
v 16.443556 4.426547 2.655503
v 16.443556 4.426547 2.655503
v 16.443556 4.426547 2.655503
v 16.406483 4.437325 2.633258
v 16.406483 4.437325 2.633258
v 16.404064 4.440159 2.619571
v 16.404064 4.440159 2.619571
v 16.431768 4.440366 2.588761
v 16.431768 4.440366 2.588761
v 16.473478 4.431103 2.612886
v 16.473478 4.431103 2.612886
v 16.190365 3.571544 2.405309
v 16.190365 3.571544 2.405309
v 16.190365 3.571544 2.405309
v 16.190365 3.571544 2.405309
v 16.190365 3.571544 2.405309
v 16.190365 3.571544 2.405309
v 16.181732 3.581420 2.356604
v 16.181732 3.581420 2.356604
v 16.181732 3.581420 2.356604
v 16.181732 3.581420 2.356604
v 16.181732 3.581420 2.356604
v 16.181732 3.581420 2.356604
v 16.275709 3.563351 2.388520
v 16.275709 3.563351 2.388520
v 16.236683 3.057563 2.375371
v 16.236683 3.057563 2.375371
v 16.169592 3.058394 2.372467
v 16.169592 3.058394 2.372467
v 16.158298 3.056769 2.313672
v 16.158298 3.056769 2.313672
v 16.185205 3.054312 2.295970
v 16.185205 3.054312 2.295970
v 16.260138 3.053481 2.294202
v 16.260138 3.053481 2.294202
v 16.271431 3.055107 2.352997
v 16.271431 3.055107 2.352997
v 16.139309 2.272857 2.493627
v 16.139309 2.272857 2.493627
v 16.125082 2.263749 2.421725
v 16.125082 2.263749 2.421725
v 16.125082 2.263749 2.421725
v 16.250395 2.253147 2.398272
v 16.250395 2.253147 2.398272
v 16.264622 2.262256 2.470174
v 16.264622 2.262256 2.470174
v 16.264622 2.262256 2.470174
v 16.264622 2.262256 2.470174
v 16.118176 1.258773 2.668356
v 16.118176 1.258773 2.668356
v 16.034935 1.260218 2.639369
v 16.034935 1.260218 2.639369
v 16.018013 1.250342 2.553418
v 16.018013 1.250342 2.553418
v 16.067780 1.239020 2.522500
v 16.167576 1.237575 2.525441
v 16.167576 1.237575 2.525441
v 16.184496 1.247451 2.611392
v 16.184496 1.247451 2.611392
v 16.086649 0.000000 2.850450
v 16.086649 0.000000 2.850450
v 15.996360 0.000000 2.819354
v 15.996360 0.000000 2.819354
v 16.089947 0.000000 2.670433
v 16.089947 0.000000 2.670433
v 16.089947 0.000000 2.670433
v 16.089947 0.000000 2.670433
v 16.134407 0.000000 2.669684
v 16.134407 0.000000 2.669684
v 16.190741 0.000000 2.780232
v 16.190741 0.000000 2.780232
v 15.458821 6.621478 2.007318
v 15.458821 6.621478 2.007318
v 15.458821 6.621478 2.007318
v 15.458821 6.621478 2.007318
v 15.452524 6.619999 2.018614
v 15.452524 6.619999 2.018614
v 15.452524 6.619999 2.018614
v 15.452524 6.619999 2.018614
v 15.446146 6.618521 2.007363
v 15.446146 6.618521 2.007363
v 15.446146 6.618521 2.007363
v 15.446146 6.618521 2.007363
v 15.452469 6.619999 2.003583
v 15.452469 6.619999 2.003583
v 15.452469 6.619999 2.003583
v 15.452469 6.619999 2.003583
v 15.712236 5.571486 2.011998
v 15.712236 5.571486 2.011998
v 15.711490 5.573634 2.018463
v 15.711490 5.573634 2.018463
v 15.694393 5.568248 2.027704
v 15.694393 5.568248 2.027704
v 15.686816 5.564955 2.023103
v 15.686816 5.564955 2.023103
v 15.684235 5.561790 2.001910
v 15.684235 5.561790 2.001910
v 15.698422 5.565565 1.993323
v 15.698422 5.565565 1.993323
v 16.086239 4.815052 2.219842
v 16.086239 4.815052 2.219842
v 16.084814 4.820150 2.247721
v 16.084814 4.820150 2.247721
v 16.060539 4.815713 2.261733
v 16.060539 4.815713 2.261733
v 16.037691 4.806177 2.247866
v 16.037691 4.806177 2.247866
v 16.039118 4.801078 2.219987
v 16.039118 4.801078 2.219987
v 16.063391 4.805516 2.205975
v 16.063391 4.805516 2.205975
v 16.267071 3.573227 2.339816
v 16.267071 3.573227 2.339816
v 16.267071 3.573227 2.339816
v 16.267071 3.573227 2.339816
v 16.267071 3.573227 2.339816
v 16.271116 3.580999 2.398495
v 16.271116 3.580999 2.398495
v 16.237352 3.562509 2.421267
v 16.237352 3.562509 2.421267
v 16.237352 3.562509 2.421267
v 16.237352 3.562509 2.421267
v 16.237352 3.562509 2.421267
v 16.220085 3.582261 2.323858
v 16.220085 3.582261 2.323858
v 16.220085 3.582261 2.323858
v 16.220085 3.582261 2.323858
v 16.220085 3.582261 2.323858
v 16.220085 3.582261 2.323858
v 14.469725 1.075117 1.899449
v 13.616708 2.347160 3.021451
v 16.166330 1.704581 2.475675
v 15.313313 2.976625 3.597677
v 14.062083 1.792811 2.301895
v 15.743526 2.384756 2.971301
v 14.977751 2.394564 2.657750
v 14.420837 2.681287 3.253993
v 15.303388 1.420730 2.141422
v 17.065454 1.287731 0.623038
v 15.065189 2.245475 0.157115
v 17.150881 2.420450 2.584688
v 15.150616 3.378194 2.118764
v 16.211817 1.896212 0.303088
v 16.205694 2.963381 2.309734
v 16.128126 2.796218 1.339327
v 15.135906 2.830894 1.056896
v 17.138103 1.893584 1.556524
v 18.843863 1.903689 2.841722
v 18.031704 2.613615 0.034119
v 16.682251 3.696834 3.920425
v 15.870094 4.406761 1.112821
v 18.638420 2.447187 1.508094
v 16.362341 4.141110 2.532468
v 17.413696 3.756225 1.850443
v 17.062618 3.528848 0.545871
v 17.837967 2.851101 3.372259
v 17.823488 6.906708 2.553914
v 16.087759 7.304460 2.412341
v 17.418858 5.167913 2.629643
v 15.683128 5.565664 2.488070
v 16.988890 7.109089 2.648525
v 16.556211 5.370627 2.632880
v 16.555418 6.128825 2.810014
v 15.892630 6.483754 2.498905
v 17.621265 6.055784 2.642545
v 15.328511 2.943225 -0.066246
v 14.894187 1.872113 2.317820
v 16.401062 5.074848 1.086844
v 15.966737 4.003736 3.470910
v 14.902771 2.534826 1.071318
v 16.087078 4.590751 2.267737
v 15.315722 3.769430 2.014611
v 15.334373 2.914795 2.866468
v 15.786360 4.023491 0.502506
v 17.611086 5.127355 2.738670
v 15.766228 4.973734 3.940842
v 17.066360 3.275841 1.666134
v 15.221503 3.122219 2.868306
v 16.834574 4.949839 3.449505
v 16.199495 3.152600 2.323678
v 16.395554 3.747995 3.053563
v 15.539024 4.062637 3.475749
v 17.374857 4.183533 2.255546
v 16.446426 6.805447 2.259261
v 15.280594 7.185382 4.032257
v 15.617743 4.818274 2.140193
v 14.451912 5.198210 3.913188
v 16.041367 6.922378 3.212844
v 15.108687 4.977352 3.067082
v 15.545587 5.730015 3.421314
v 14.933979 6.222755 4.010621
v 16.086067 5.807922 2.236068
v 13.876740 4.803585 3.716454
v 14.519484 5.007418 1.668928
v 15.301271 3.210738 4.005063
v 15.944016 3.414571 1.957537
v 14.043651 4.772892 2.687734
v 15.556406 3.253817 2.967461
v 14.846314 3.744177 2.595734
v 15.152008 4.211852 1.788286
v 14.533432 3.979692 3.840578
v 16.258320 5.367961 4.499283
v 14.214252 4.130541 5.227365
v 16.494236 3.828587 2.545352
v 14.450169 2.591167 3.273434
v 15.415837 4.644259 4.974755
v 15.541855 3.155371 2.963928
v 15.442909 3.487099 3.996197
v 14.366363 3.357713 4.340942
v 16.415133 4.567698 3.579434
v 16.732767 6.207285 2.420790
v 14.630314 5.668474 2.822895
v 17.214809 4.078348 2.088480
v 15.112356 3.539537 2.490584
v 15.775727 5.935214 2.807854
v 16.194284 3.804685 2.375961
v 15.872317 4.599329 2.812471
v 14.872027 4.653423 2.726579
v 16.983068 5.155085 2.319594
v 16.135532 6.117911 2.724487
v 14.004181 5.804729 2.803784
v 16.452726 3.988079 2.838292
v 14.321375 3.674897 2.917589
v 15.128062 5.985145 2.957817
v 15.401311 3.840493 2.966011
v 15.093761 4.698857 3.192921
v 14.156205 4.799305 2.918988
v 16.293102 5.075473 2.842578
v 18.573370 6.641943 2.456625
v 15.201125 6.313110 5.182073
v 17.773577 2.628534 0.982798
v 14.401332 2.299701 3.708246
v 17.212473 6.344882 4.032335
v 16.215487 2.402247 2.457312
v 16.573975 3.809860 3.674843
v 14.897065 4.365013 4.570810
v 18.256496 4.623304 1.820997
v 14.995043 2.540554 5.051795
v 16.496151 1.432766 4.482459
v 14.907213 3.336058 3.272372
v 16.408321 2.228270 2.703036
v 15.821417 2.139610 4.836473
v 15.700570 2.845084 3.015851
v 16.021093 2.596347 3.762994
v 16.489941 1.849353 3.655513
v 14.987829 2.971574 4.194118
v 18.299065 3.419418 4.202728
v 16.288687 4.997973 4.110212
v 17.266472 1.995462 2.344786
v 15.256093 3.574018 2.252270
v 17.237314 4.042818 4.322794
v 16.224308 2.718638 2.373249
v 16.322773 3.261695 3.341895
v 15.765390 4.282875 3.280084
v 17.757294 2.678938 3.341004
v 18.758974 3.017919 0.513595
v 15.945869 2.340084 -0.151326
v 17.839594 4.439710 2.953847
v 15.026489 3.761874 2.288926
v 17.236485 2.908587 -0.006256
v 16.379887 4.204486 2.536446
v 16.941799 3.970980 1.293235
v 18.339748 3.733147 1.558113
v 15.502632 3.093950 0.955387
v 17.947468 4.600617 0.445800
v 16.020386 3.365503 -0.283562
v 17.230366 4.371747 2.728063
v 15.303284 3.136632 1.998701
v 16.794928 4.150760 0.031591
v 16.180840 3.829747 2.340793
v 16.455698 4.295769 1.360208
v 17.587576 4.561889 1.462272
v 15.641025 3.322275 0.791968
v 17.832417 1.728505 1.846669
v 16.666023 2.365663 0.359446
v 16.767736 2.807655 3.144003
v 15.601343 3.444814 1.656780
v 17.337132 2.223407 1.020094
v 16.224020 3.206162 2.362487
v 16.939131 2.901751 1.852025
v 17.393501 2.260201 2.418690
v 16.200350 2.926435 0.964909
v 14.791606 5.908287 1.588964
v 17.643778 5.812042 1.432840
v 14.752929 3.213537 2.543594
v 17.605101 3.117292 2.387470
v 16.295040 5.767641 1.229309
v 16.214720 3.123533 2.338101
v 16.014294 4.185222 1.558385
v 14.768698 4.671700 1.932773
v 17.619741 4.504903 1.799520
v 17.637497 2.023839 -0.478993
v 14.618649 1.460705 0.092870
v 17.806980 3.752909 2.118373
v 14.788132 3.189775 2.690236
v 15.946692 1.977213 -0.347967
v 16.214743 3.577488 2.334369
v 16.236229 3.204188 0.926940
v 17.688972 2.877421 0.633299
v 14.673970 2.360911 1.271373
v 16.562738 6.243695 1.167715
v 17.937851 6.249722 2.243257
v 15.810625 5.000234 2.136282
v 17.185738 5.006261 3.211824
v 17.376684 6.125565 1.639442
v 16.555704 4.948444 2.644444
v 16.899614 5.326579 2.011098
v 16.249821 5.648561 1.571124
v 17.605968 5.621481 2.671100
v 15.482698 7.009786 1.090270
v 17.318953 6.424554 1.165468
v 14.958686 5.505503 2.178962
v 16.794941 4.920271 2.254159
v 16.436100 6.594179 0.965502
v 15.893231 5.157100 2.143125
v 15.962360 5.713283 1.440012
v 15.239532 6.303102 1.528356
v 17.062006 5.678117 1.630672
v 14.889496 7.194082 1.525933
v 16.258656 7.216531 1.535898
v 14.906157 5.936685 2.069300
v 16.275318 5.959134 2.079266
v 15.621706 7.154253 1.401816
v 15.612628 5.924819 2.015881
v 15.515240 6.401955 1.603080
v 14.897521 6.613976 1.730156
v 16.267126 6.603435 1.753332
v 13.899947 6.759074 2.837004
v 15.250332 6.486328 1.648800
v 14.409830 5.274097 3.757351
v 15.760215 5.001351 2.569148
v 14.506231 6.514266 2.096221
v 15.054187 5.088601 3.096594
v 14.586108 5.620775 2.630738
v 14.093831 6.062307 3.217291
v 15.456663 5.750337 2.052236
v 13.203124 5.837556 2.122443
v 15.406034 6.462688 1.352564
v 14.172759 4.083047 3.472289
v 16.375668 4.708179 2.702410
v 14.354315 6.019206 1.519712
v 15.297265 4.336543 2.988628
v 14.692772 4.854603 2.191985
v 13.630894 5.003758 2.669417
v 15.858803 5.582308 1.933248
v 14.011065 5.727675 2.902156
v 15.889468 5.032499 0.343197
v 14.909460 2.942814 4.318168
v 16.787863 2.247638 1.759209
v 14.756741 5.209216 1.388881
v 15.761581 2.517750 2.932280
v 14.895873 3.580416 2.287035
v 14.335745 4.432811 3.492254
v 16.235697 3.664342 0.969026
v 17.562197 1.707507 3.895999
v 18.499529 2.385572 2.116356
v 15.716833 2.524023 3.235156
v 16.654163 3.202087 1.455513
v 18.115494 2.254103 3.045077
v 16.224020 2.957126 2.362487
v 17.037945 2.804947 2.904309
v 16.750395 2.130489 3.629587
v 17.640198 2.831018 1.833471
v 18.434927 2.113775 1.949216
v 18.346571 4.287379 0.038833
v 16.420998 3.441039 3.552499
v 16.332644 5.614642 1.642116
v 18.604906 3.409882 1.075371
v 16.473682 4.623074 2.633631
v 17.652061 4.081588 2.259587
v 17.597630 2.751163 2.713151
v 17.458502 4.960155 0.845379
v 13.900116 6.463655 3.007268
v 13.867355 5.402157 1.813953
v 15.120076 5.676030 3.674397
v 15.087315 4.614532 2.481082
v 13.774318 5.808205 2.452947
v 15.054187 5.088601 3.096594
v 14.377571 5.383487 2.997393
v 14.414418 6.082924 3.331822
v 14.412573 5.000371 2.156389
v 17.592157 3.633315 4.901376
v 18.157242 2.543764 2.823480
v 16.097294 5.114472 3.718199
v 16.662378 4.024921 1.640303
v 18.081831 3.207129 3.762736
v 16.473682 4.623074 2.633631
v 17.342308 4.260044 3.249652
v 16.978943 4.345434 4.361211
v 17.506527 3.295392 2.252400
v 16.551022 5.746254 2.368070
v 16.551022 5.746254 2.368070
v 16.207787 6.870660 1.612432
v 16.207787 6.870660 1.612432
v 16.305176 6.249028 1.874749
v 16.305176 6.249028 1.874749
v 15.906185 6.967392 2.015463
v 15.896576 6.419261 2.342692
v 16.600246 6.967392 1.558777
v 16.876883 6.310177 1.771568
v 16.781685 5.790016 2.308846
v 16.224115 5.790016 2.675723
v 16.575438 6.403966 2.296378
v 16.575438 6.403966 2.296378
v 16.871040 7.150920 2.047324
v 16.871040 7.150920 2.047324
v 16.666851 6.835286 2.211609
v 16.666851 6.835286 2.211609
v 17.108955 7.071983 2.227121
v 16.978937 6.775137 2.433531
v 16.831720 7.094984 1.811655
v 16.564335 6.743948 1.887985
v 16.536434 6.380421 2.157967
v 16.759148 6.361944 2.491729
v 15.121800 5.661814 3.235924
v 15.121800 5.661814 3.235924
v 14.473507 6.856011 2.909280
v 14.473507 6.856011 2.909280
v 14.661836 6.212193 3.030735
v 14.661836 6.212193 3.030735
v 14.510323 6.936830 3.414124
v 14.665071 6.366624 3.656071
v 14.746788 6.936830 2.617652
v 15.036950 6.252385 2.584744
v 15.263529 5.698377 3.043039
v 15.073565 5.698377 3.682880
v 14.960220 6.541332 3.400840
v 14.960220 6.541332 3.400840
v 14.943433 7.203585 3.375275
v 14.943433 7.203585 3.375275
v 14.894252 6.888091 3.426497
v 14.894252 6.888091 3.426497
v 15.144674 7.182542 3.510137
v 15.144775 6.893736 3.601352
v 14.926142 7.200673 3.182643
v 14.839601 6.859455 3.156343
v 14.935675 6.541403 3.288630
v 15.111232 6.526837 3.551721
v 15.459705 6.578825 2.004530
v 15.459705 6.578825 2.004530
v 15.346121 7.351395 2.007206
v 15.346121 7.351395 2.007206
v 15.342752 6.975026 1.948681
v 15.342752 6.975026 1.948681
v 15.243487 7.298115 2.269241
v 15.200398 6.944090 2.277795
v 15.561620 7.389200 1.943652
v 15.643145 6.999617 1.823394
v 15.581543 6.602898 1.950861
v 15.325973 6.529725 2.212422
v 15.825085 5.268917 2.083879
v 15.825085 5.268917 2.083879
v 15.376022 6.783215 2.887434
v 15.376022 6.783215 2.887434
v 15.540129 5.966822 2.655447
v 15.540129 5.966822 2.655447
v 16.017601 6.885696 2.868237
v 16.332531 6.162650 2.685341
v 15.021421 6.885696 2.525366
v 14.995504 6.017789 2.155976
v 15.588427 5.315279 1.893841
v 16.388702 5.315279 2.169285
v 16.372927 4.305557 2.572584
v 16.372927 4.305557 2.572584
v 16.371088 5.487834 3.317771
v 16.371088 5.487834 3.317771
v 16.308380 4.854379 3.073798
v 16.308380 4.854379 3.073798
v 16.878344 5.414267 3.311935
v 16.949829 4.811515 3.113945
v 16.137444 5.674520 3.040608
v 15.923092 5.057319 2.684438
v 16.210526 4.409930 2.426432
v 16.805723 4.200857 2.644401
v 15.262560 4.516567 3.001158
v 15.262560 4.516567 3.001158
v 15.858102 5.524588 4.322976
v 15.858102 5.524588 4.322976
v 15.699723 4.915626 3.734776
v 15.699723 4.915626 3.734776
v 16.054523 5.902374 3.834952
v 15.992254 5.434850 3.180519
v 15.398987 5.512840 4.556427
v 15.048274 4.795358 4.060210
v 15.004689 4.481441 3.161985
v 15.531312 4.794371 2.582392
v 15.381002 3.945437 2.960050
v 15.381002 3.945437 2.960050
v 14.636677 5.524377 4.550240
v 14.636677 5.524377 4.550240
v 14.855303 4.597808 3.901872
v 14.855303 4.597808 3.901872
v 15.464149 5.492114 4.803962
v 15.862081 4.616850 4.314824
v 14.352205 5.912908 4.057525
v 14.383512 5.038052 3.155032
v 15.167212 4.153411 2.680022
v 16.060486 3.815368 3.279669
v 15.413000 3.749252 3.024467
v 15.413000 3.749252 3.024467
v 17.020226 3.069682 4.977528
v 17.020226 3.069682 4.977528
v 16.194464 3.626352 4.177290
v 16.194464 3.626352 4.177290
v 16.352194 2.395697 5.126851
v 15.414250 2.755293 4.476810
v 17.619728 3.051299 4.504048
v 17.010620 3.742188 3.456933
v 15.781218 3.791108 2.762603
v 14.762950 3.264434 3.262928
v 16.503374 7.271019 2.826899
v 16.102695 7.086321 1.713041
v 16.856142 6.126616 2.889763
v 16.455462 5.941918 1.775906
v 16.132811 7.140263 2.363122
v 16.132811 7.140263 2.363122
v 16.567802 6.011826 2.344425
v 16.217323 6.518852 1.765904
v 16.624071 6.680592 2.881385
v 16.223896 6.553310 2.403300
v 16.283205 5.359652 3.436845
v 15.457645 5.279824 2.572313
v 16.845875 4.400436 2.988110
v 16.020315 4.320608 2.123578
v 15.774435 5.211133 3.139188
v 15.774435 5.211133 3.139188
v 16.367025 4.309200 2.593028
v 15.694683 4.780546 2.392062
v 16.530828 4.840735 3.248298
v 15.989173 4.688756 2.950950
v 15.145785 5.676635 2.747983
v 15.205505 5.596807 1.554083
v 16.062830 4.910053 2.845111
v 16.122551 4.830225 1.651211
v 15.041891 5.493458 2.177758
v 15.041891 5.493458 2.177758
v 16.033819 4.803137 2.227504
v 15.607780 5.179882 1.602082
v 15.565579 5.243716 2.797928
v 15.439936 5.051563 2.204467
v 14.965034 7.060027 2.452765
v 15.097135 7.066851 1.485057
v 15.538694 6.271748 2.525515
v 15.670794 6.278572 1.557808
v 14.896686 6.974318 1.969481
v 14.896686 6.974318 1.969481
v 15.547565 6.235029 2.015377
v 15.333368 6.657041 1.514415
v 15.211969 6.634087 2.483470
v 15.126727 6.547067 1.979218
v 14.585128 6.391862 3.946366
v 13.441132 5.627615 2.817678
v 15.828341 5.199232 3.493834
v 14.684345 4.434984 2.365146
v 13.934999 5.856782 3.620409
v 13.934999 5.856782 3.620409
v 15.189619 4.726949 3.006378
v 14.011377 4.997029 2.666675
v 15.179541 5.736696 3.787511
v 14.484955 5.181494 3.467151
v 13.245636 1.592411 2.923312
v 14.153066 2.243975 5.091290
v 15.369713 2.161507 1.863221
v 16.277142 2.813071 4.031200
v 13.537135 2.274663 3.913667
v 13.537135 2.274663 3.913667
v 15.774931 2.666426 2.964315
v 15.136191 2.636099 4.561944
v 14.270199 1.997789 2.372638
v 14.542809 2.725147 3.409257
v 13.750180 5.437527 3.455085
v 13.350052 3.939941 1.167750
v 15.972698 3.909330 4.066851
v 15.572570 2.411745 1.779516
v 13.281008 4.442797 2.585694
v 13.281008 4.442797 2.585694
v 15.639915 3.008200 2.984527
v 14.338950 3.112933 1.536227
v 14.781772 4.578704 3.836923
v 14.254178 3.542121 2.941997
v 13.243780 2.672571 3.931580
v 15.344698 1.578508 4.205836
v 14.301221 4.379798 2.641614
v 16.402140 3.285735 2.915871
v 14.309761 2.340915 4.397920
v 14.309761 2.340915 4.397920
v 15.416327 3.900193 2.935199
v 15.874820 2.466364 3.686717
v 13.795212 3.595366 3.388598
v 14.896408 3.246228 3.907722
v 18.146400 5.894721 2.122776
v 17.109398 6.562618 3.341779
v 17.058764 4.556758 1.930600
v 16.021759 5.224655 3.149603
v 16.551792 4.870198 2.640667
v 17.710100 6.146807 2.887904
v 17.293171 5.440342 2.823606
v 17.596962 5.148040 2.064479
v 16.562038 5.818609 3.283789
v 16.168322 5.481194 0.692181
v 17.965048 5.281105 1.403890
v 15.451889 4.545105 2.237662
v 17.248615 4.345015 2.949371
v 16.418411 4.355342 2.567176
v 17.119083 5.193777 0.950888
v 16.723904 4.660701 1.590791
v 15.792321 4.919621 1.483524
v 17.590441 4.721462 2.192259
v 16.170116 6.654136 4.198592
v 14.480878 7.003584 3.948169
v 16.026203 5.237277 3.192225
v 14.336966 5.586726 2.941802
v 15.107069 5.377583 3.130570
v 15.253170 6.733670 4.227566
v 15.227449 5.998163 3.850223
v 16.078495 5.862577 3.712049
v 14.389564 6.214857 3.463517
v 14.699095 6.438926 2.580272
v 14.834250 6.438928 1.319622
v 15.660161 5.617567 2.683308
v 15.795317 5.617568 1.422657
v 15.689818 5.570412 2.007816
v 14.675459 6.334691 1.919057
v 15.071404 5.891317 2.011481
v 15.182736 5.965021 2.632123
v 15.316056 5.966688 1.371276
v 17.863865 1.593078 3.958482
v 18.179609 1.337791 1.773602
v 16.004671 2.743613 3.555372
v 16.320415 2.488327 1.370492
v 16.234371 2.700377 2.390595
v 18.163240 1.665974 2.825639
v 17.350372 2.329104 2.719273
v 16.913612 2.276240 3.741335
v 17.232931 2.018591 1.557248
v 15.244688 4.823627 4.504253
v 16.667439 3.417373 4.313767
v 15.728485 5.557981 2.696435
v 17.151236 4.151726 2.505949
v 16.551792 4.870198 2.640667
v 16.125671 4.231328 4.506686
v 16.377260 4.705173 3.718490
v 15.551679 5.260793 3.569836
v 16.973404 3.853029 3.382842
vn 0.2239 0.2243 -0.9484
vn 0.1677 0.2726 -0.9474
vn 0.1666 0.2733 -0.9474
vn 0.2239 0.2243 -0.9485
vn 0.9186 0.1418 0.3689
vn 0.9843 0.0551 0.1677
vn 0.9846 0.0545 0.1662
vn 0.9186 0.1418 0.3690
vn 0.1764 -0.1279 0.9760
vn 0.1825 -0.2133 0.9598
vn 0.1825 -0.2134 0.9598
vn 0.1765 -0.1279 0.9760
vn -0.9166 -0.2446 0.3163
vn -0.9323 -0.1589 0.3251
vn -0.9321 -0.1596 0.3250
vn -0.9166 -0.2446 0.3162
vn -0.9228 -0.1214 -0.3655
vn -0.9422 0.0124 -0.3349
vn -0.9420 0.0103 -0.3355
vn -0.0403 0.2566 -0.9657
vn -0.0410 0.2562 -0.9657
vn 0.9971 -0.0731 -0.0197
vn 0.9971 -0.0728 -0.0200
vn 0.0052 -0.2192 0.9757
vn 0.0068 -0.2200 0.9755
vn -0.9625 0.0368 0.2688
vn -0.9592 0.0321 0.2809
vn -0.9434 0.1448 -0.2983
vn -0.3297 0.1414 -0.9334
vn -0.3299 0.1413 -0.9334
vn 0.7562 0.0046 -0.6544
vn 0.7456 0.2273 -0.6264
vn 0.7460 0.2240 -0.6271
vn 0.9788 0.0572 0.1968
vn 0.9792 0.0557 0.1951
vn -0.1345 -0.2109 0.9682
vn -0.1346 -0.2110 0.9682
vn -0.9465 -0.0093 -0.3227
vn -0.9409 -0.0109 -0.3384
vn -0.5148 0.0169 -0.8571
vn -0.5303 -0.0045 -0.8478
vn 0.6024 0.2871 -0.7448
vn 0.6016 0.2861 -0.7458
vn 0.9003 0.2147 0.3787
vn 0.0184 -0.1334 0.9909
vn 0.0193 -0.1322 0.9910
vn -0.9192 -0.3754 0.1191
vn -0.9394 -0.2799 0.1981
vn -0.9369 -0.2970 0.1845
vn -0.9026 -0.2102 -0.3758
vn -0.8516 -0.2776 -0.4447
vn 0.4985 0.1662 -0.8508
vn 0.4976 0.1650 -0.8516
vn 0.8703 0.3148 0.3787
vn 0.8687 0.3196 0.3784
vn 0.2754 0.1374 0.9515
vn 0.2779 0.1395 0.9504
vn -0.8988 -0.2449 0.3635
vn -0.8994 -0.2445 0.3625
vn -0.8503 -0.2909 -0.4385
vn -0.0980 -0.1368 -0.9857
vn -0.3095 -0.0525 -0.9495
vn -0.3030 -0.0552 -0.9514
vn 0.6591 0.1938 -0.7266
vn 0.6570 0.1940 -0.7285
vn 0.8252 0.4250 0.3720
vn 0.4241 0.1163 0.8981
vn 0.4243 0.1145 0.8982
vn -0.8135 -0.2194 0.5386
vn -0.8131 -0.2186 0.5395
vn -0.8869 -0.2371 -0.3964
vn -0.8894 -0.2291 -0.3956
vn -0.4680 0.0235 -0.8834
vn -0.4686 0.0236 -0.8831
vn 0.8329 0.1011 -0.5442
vn 0.8323 0.1019 -0.5448
vn 0.9218 0.0880 0.3774
vn 0.9230 0.0772 0.3770
vn 0.9230 0.0773 0.3770
vn 0.3985 -0.0014 0.9172
vn 0.3982 -0.0014 0.9173
vn -0.7847 -0.0874 0.6137
vn -0.7846 -0.0874 0.6138
vn -0.9259 -0.0588 -0.3732
vn -0.2988 0.0871 -0.9503
vn -0.3027 0.0855 -0.9492
vn 0.8736 0.0991 -0.4764
vn 0.8741 0.0946 -0.4764
vn 0.9240 0.0662 0.3765
vn 0.3580 -0.0441 0.9327
vn 0.3575 -0.0475 0.9327
vn -0.7829 -0.0937 0.6150
vn -0.7830 -0.0937 0.6150
vn -0.9255 -0.0493 -0.3756
vn -0.9272 -0.0316 -0.3732
vn -0.9270 -0.0325 -0.3736
vn -0.1407 0.1505 -0.9785
vn 0.8633 0.1682 -0.4758
vn 0.9290 0.0276 0.3691
vn 0.3510 -0.1002 0.9310
vn 0.3509 -0.1002 0.9310
vn -0.7743 -0.1636 0.6113
vn -0.9285 -0.0157 -0.3710
vn -0.9285 -0.0157 -0.3711
vn 0.7185 0.0635 0.6926
vn 0.7638 0.2095 0.6105
vn 0.7635 0.2083 0.6113
vn -0.7491 0.1265 0.6502
vn -0.6528 0.3047 0.6936
vn -0.6244 0.3472 0.6997
vn -0.9325 -0.0006 -0.3612
vn -0.9438 -0.0965 -0.3160
vn -0.9426 -0.0799 -0.3242
vn -0.5484 -0.0700 -0.8333
vn 0.6219 -0.1218 -0.7736
vn 0.5181 -0.3288 -0.7896
vn 0.5173 -0.3301 -0.7896
vn 0.9814 -0.0623 -0.1818
vn 0.9993 -0.0015 -0.0370
vn 0.9993 -0.0013 -0.0364
vn 0.7645 0.2569 0.5913
vn 0.7601 0.2428 0.6027
vn -0.4904 0.5116 0.7055
vn -0.9440 -0.1424 -0.2975
vn -0.9463 -0.1422 -0.2905
vn 0.3864 -0.5181 -0.7631
vn 0.3864 -0.5181 -0.7630
vn 0.9903 0.1132 0.0805
vn 0.9905 0.1105 0.0819
vn 0.6952 -0.0136 0.7187
vn 0.8772 -0.0221 0.4796
vn -0.4840 -0.0469 0.8738
vn -0.5087 0.0308 0.8604
vn -0.5086 0.0304 0.8604
vn -0.4841 -0.0469 0.8738
vn -0.8078 0.0475 -0.5875
vn -0.9440 -0.1424 -0.2976
vn -0.8019 0.0494 -0.5954
vn 0.3056 0.0227 -0.9519
vn 0.3725 -0.0160 -0.9279
vn 0.3718 -0.0157 -0.9282
vn 0.9768 -0.0272 0.2124
vn 0.9324 -0.2416 0.2688
vn -0.4856 -0.0155 0.8740
vn -0.4875 -0.0106 0.8731
vn -0.9484 0.2325 0.2157
vn -0.9548 0.2086 0.2119
vn -0.9548 0.2085 0.2119
vn -0.7072 0.2953 -0.6424
vn -0.7045 0.2989 -0.6437
vn 0.4378 0.0529 -0.8975
vn 0.4378 0.0662 -0.8966
vn 0.9316 -0.2395 0.2734
vn 0.6150 -0.3397 0.7116
vn 0.6137 -0.2064 0.7621
vn 0.6136 -0.2030 0.7631
vn -0.4356 -0.1316 0.8905
vn -0.4357 -0.1315 0.8904
vn -0.9605 0.1851 0.2078
vn -0.6475 0.3687 -0.6669
vn 0.4348 0.1712 -0.8841
vn 0.9911 -0.1329 -0.0013
vn 0.9914 -0.1312 -0.0035
vn 0.2932 0.0290 0.9556
vn 0.5738 0.0276 0.8185
vn -0.1688 -0.0725 0.9830
vn -0.0260 0.0331 0.9991
vn 0.2931 0.0290 0.9557
vn -0.9825 0.0284 0.1843
vn -0.9816 0.0475 0.1852
vn -0.9815 0.0475 0.1853
vn -0.6079 0.0868 -0.7892
vn -0.3061 -0.0218 -0.9517
vn -0.5836 -0.0001 -0.8121
vn -0.6080 0.0868 -0.7892
vn 0.1206 0.0647 -0.9906
vn -0.0054 -0.0360 -0.9993
vn -0.3059 -0.0218 -0.9518
vn 0.1207 0.0647 -0.9906
vn 0.9825 -0.0165 -0.1854
vn 0.0572 0.1523 0.9867
vn 0.0480 0.1527 0.9871
vn -0.9787 0.0964 0.1814
vn -0.1271 -0.1188 -0.9847
vn -0.1135 -0.1199 -0.9863
vn 0.9803 -0.0696 -0.1848
vn 0.9803 -0.0696 -0.1851
vn 0.6558 0.0530 0.7530
vn 0.6273 0.0799 0.7747
vn 0.6279 0.0793 0.7742
vn -0.1717 0.1587 0.9723
vn -0.1709 0.1588 0.9724
vn -0.9575 0.1097 0.2667
vn -0.9570 0.1093 0.2687
vn -0.3217 -0.1006 -0.9415
vn -0.5639 -0.0801 -0.8219
vn -0.0422 -0.1106 -0.9930
vn 0.9610 -0.0782 -0.2654
vn 0.9611 -0.0783 -0.2648
vn 0.5993 0.1052 0.7936
vn 0.5993 0.1051 0.7936
vn -0.3227 0.1435 0.9356
vn -0.3223 0.1435 0.9357
vn -0.9299 0.0919 0.3562
vn -0.5927 -0.1088 -0.7980
vn 0.0139 -0.1172 -0.9930
vn 0.9365 -0.0538 -0.3465
vn 0.9365 -0.0538 -0.3464
vn 0.7042 0.1689 -0.6897
vn 0.6708 0.1328 -0.7296
vn 0.6732 0.1352 -0.7270
vn 0.7034 0.1721 -0.6896
vn 0.9715 0.2346 0.0343
vn 0.9456 0.3252 0.0037
vn 0.9361 0.3518 -0.0055
vn 0.6258 0.1548 0.7645
vn 0.5002 0.3023 0.8115
vn 0.5056 0.2966 0.8102
vn 0.6253 0.1568 0.7644
vn -0.7176 -0.1565 0.6787
vn -0.6272 -0.0733 0.7754
vn -0.7176 -0.1565 0.6786
vn -0.9643 -0.2180 0.1500
vn -0.9437 -0.3082 0.1204
vn -0.9427 -0.3116 0.1192
vn -0.4932 -0.1067 -0.8633
vn -0.4487 -0.2664 -0.8530
vn -0.4933 -0.1067 -0.8633
vn 0.5215 0.0321 -0.8527
vn 0.5208 0.0318 -0.8531
vn 0.9558 0.2907 -0.0434
vn 0.9561 0.2899 -0.0435
vn 0.4233 0.3071 0.8523
vn 0.4235 0.3066 0.8524
vn -0.4584 0.0382 0.8879
vn -0.4582 0.0383 0.8880
vn -0.9626 -0.2562 0.0884
vn -0.9627 -0.2556 0.0884
vn -0.4943 -0.2896 -0.8196
vn -0.4947 -0.2892 -0.8195
vn 0.3927 -0.0349 -0.9190
vn 0.9887 0.1408 -0.0509
vn 0.4762 0.1766 0.8614
vn -0.3923 0.0650 0.9175
vn -0.9903 -0.1088 0.0864
vn -0.5827 -0.1545 -0.7979
vn -0.2272 0.9739 0.0008
vn -0.2277 0.9737 0.0008
vn 0.1189 0.9929 -0.0080
vn 0.1188 0.9929 -0.0079
vn -0.2084 0.9626 0.1731
vn -0.2084 0.9626 0.1732
vn 0.0334 0.4883 -0.8720
vn -0.0694 0.6199 -0.7816
vn 0.0363 0.7042 -0.7090
vn 0.1158 0.5320 -0.8388
vn 0.1553 0.7042 -0.6929
vn -0.0841 0.7959 -0.5995
vn 0.0714 0.8364 -0.5435
vn 0.2155 0.5787 -0.7865
vn -0.1943 0.7526 -0.6291
vn 0.6341 0.6160 -0.4675
vn 0.4764 0.6994 -0.5328
vn 0.4373 0.7954 -0.4197
vn 0.6295 0.6737 -0.3872
vn 0.4750 0.8238 -0.3093
vn 0.2662 0.8331 -0.4848
vn 0.2746 0.9032 -0.3300
vn 0.6152 0.7357 -0.2833
vn 0.2555 0.7679 -0.5874
vn 0.7331 0.6580 0.1720
vn 0.7096 0.7046 -0.0107
vn 0.5934 0.8049 -0.0072
vn 0.6625 0.7230 0.1961
vn 0.5182 0.8521 0.0735
vn 0.5623 0.8045 -0.1915
vn 0.4344 0.8924 -0.1219
vn 0.5666 0.7933 0.2230
vn 0.6443 0.7268 -0.2380
vn 0.1479 0.0834 0.9855
vn -0.0312 0.1466 0.9887
vn -0.1145 0.0177 0.9933
vn 0.1137 -0.0091 0.9935
vn -0.0962 -0.1008 0.9902
vn -0.2782 0.0994 0.9554
vn -0.3063 -0.0683 0.9495
vn 0.0700 -0.1229 0.9899
vn -0.2531 0.2181 0.9425
vn -0.8746 0.4488 -0.1836
vn -0.9310 0.3644 -0.0230
vn -0.8833 0.4607 0.0866
vn -0.8412 0.5249 -0.1300
vn -0.8210 0.5630 0.0951
vn -0.9110 0.3430 0.2290
vn -0.8284 0.4770 0.2936
vn -0.7887 0.6116 -0.0622
vn -0.9541 0.2405 0.1785
vn 0.6668 -0.4524 0.5923
vn 0.5242 -0.4583 0.7178
vn 0.4465 -0.5844 0.6776
vn 0.6349 -0.5381 0.5544
vn 0.4503 -0.6684 0.5920
vn 0.2960 -0.5483 0.7822
vn 0.2555 -0.6821 0.6852
vn 0.5871 -0.6363 0.5004
vn 0.3199 -0.4423 0.8379
vn 0.8685 -0.3068 0.3893
vn 0.7891 -0.2607 0.5561
vn 0.7075 -0.3856 0.5922
vn 0.8279 -0.3964 0.3968
vn 0.6801 -0.4919 0.5436
vn 0.6106 -0.3058 0.7306
vn 0.5403 -0.4587 0.7054
vn 0.7668 -0.5018 0.4003
vn 0.6502 -0.1904 0.7355
vn -0.7815 -0.6170 -0.0928
vn -0.7523 -0.5966 -0.2794
vn -0.6432 -0.7001 -0.3100
vn -0.7164 -0.6916 -0.0923
vn -0.5751 -0.7788 -0.2502
vn -0.6034 -0.6360 -0.4810
vn -0.4849 -0.7527 -0.4452
vn -0.6267 -0.7740 -0.0907
vn -0.6779 -0.5408 -0.4980
vn 0.7130 -0.4524 0.5357
vn 0.5681 -0.5443 0.6172
vn 0.5408 -0.6605 0.5208
vn 0.7152 -0.5217 0.4651
vn 0.5809 -0.7004 0.4148
vn 0.3767 -0.7094 0.5957
vn 0.3927 -0.8004 0.4528
vn 0.7082 -0.6000 0.3720
vn 0.3585 -0.6313 0.6877
vn 0.3850 0.0187 0.9227
vn 0.2056 -0.0090 0.9786
vn 0.1883 -0.1612 0.9688
vn 0.3961 -0.0793 0.9148
vn 0.2520 -0.2565 0.9331
vn 0.0023 -0.1606 0.9870
vn 0.0455 -0.3200 0.9463
vn 0.4043 -0.1989 0.8928
vn -0.0287 -0.0431 0.9987
vn 0.2185 0.1575 0.9630
vn 0.0299 0.1521 0.9879
vn -0.0000 0.0021 1.0000
vn 0.2210 0.0594 0.9735
vn 0.0595 -0.1020 0.9930
vn -0.1853 0.0180 0.9825
vn -0.1513 -0.1486 0.9773
vn 0.2213 -0.0625 0.9732
vn -0.2064 0.1375 0.9688
vn 0.7607 -0.2865 0.5824
vn 0.6303 -0.2887 0.7206
vn 0.5651 -0.4269 0.7060
vn 0.7363 -0.3798 0.5600
vn 0.5720 -0.5219 0.6328
vn 0.4202 -0.3917 0.8185
vn 0.3883 -0.5419 0.7454
vn 0.6963 -0.4894 0.5250
vn 0.4358 -0.2767 0.8565
vn 0.4685 0.7841 0.4070
vn 0.6265 0.6823 0.3768
vn 0.6615 0.7136 0.2307
vn 0.4766 0.8205 0.3156
vn 0.6155 0.7758 0.1389
vn 0.7883 0.5776 0.2119
vn 0.7645 0.6422 0.0563
vn 0.4800 0.8545 0.1986
vn 0.7914 0.5209 0.3199
vn -0.2681 -0.6279 0.7306
vn -0.4163 -0.5110 0.7520
vn -0.5166 -0.5608 0.6470
vn -0.3193 -0.6778 0.6622
vn -0.5216 -0.6435 0.5602
vn -0.6303 -0.4130 0.6574
vn -0.6846 -0.5054 0.5253
vn -0.3782 -0.7301 0.5692
vn -0.5800 -0.3391 0.7407
vn 0.1854 0.8093 -0.5573
vn -0.0668 0.7856 -0.6151
vn -0.0695 0.8746 -0.4798
vn 0.1396 0.8790 -0.4560
vn -0.1400 0.9147 -0.3792
vn -0.2931 0.7881 -0.5412
vn -0.3129 0.8501 -0.4235
vn 0.0744 0.9485 -0.3080
vn -0.2727 0.7259 -0.6315
vn -0.2711 0.9545 -0.1241
vn -0.4990 0.8463 -0.1862
vn -0.5090 0.8604 -0.0252
vn -0.3189 0.9478 -0.0022
vn -0.5673 0.8194 0.0826
vn -0.6871 0.7166 -0.1195
vn -0.7053 0.7088 0.0136
vn -0.3745 0.9131 0.1613
vn -0.6626 0.7134 -0.2282
vn 0.7946 0.6052 -0.0480
vn 0.6525 0.7215 -0.2317
vn 0.6010 0.7935 -0.0960
vn 0.7279 0.6849 0.0321
vn 0.5065 0.8613 -0.0399
vn 0.4554 0.8416 -0.2904
vn 0.3928 0.9004 -0.1869
vn 0.6188 0.7733 0.1384
vn 0.5012 0.7812 -0.3723
vn -0.2938 -0.1919 -0.9364
vn -0.0392 -0.2288 -0.9727
vn -0.0896 -0.3744 -0.9229
vn -0.2914 -0.3184 -0.9021
vn -0.0554 -0.4878 -0.8712
vn 0.1570 -0.3537 -0.9221
vn 0.1340 -0.4753 -0.8696
vn -0.2802 -0.4794 -0.8317
vn 0.1740 -0.2478 -0.9531
vn -0.0212 0.7552 -0.6552
vn -0.2765 0.7442 -0.6080
vn -0.2228 0.8423 -0.4908
vn -0.0212 0.8345 -0.5507
vn -0.2467 0.8937 -0.3747
vn -0.4554 0.7667 -0.4526
vn -0.4253 0.8378 -0.3424
vn -0.0206 0.9181 -0.3957
vn -0.4741 0.6971 -0.5378
vn 0.2939 -0.5863 -0.7549
vn 0.5017 -0.6205 -0.6027
vn 0.3993 -0.7340 -0.5493
vn 0.2457 -0.6860 -0.6848
vn 0.3680 -0.8127 -0.4517
vn 0.5922 -0.7008 -0.3977
vn 0.5147 -0.7899 -0.3334
vn 0.1744 -0.8012 -0.5724
vn 0.6484 -0.6172 -0.4457
vn -0.3252 -0.3566 -0.8758
vn -0.0898 -0.4664 -0.8800
vn -0.1782 -0.5749 -0.7986
vn -0.3575 -0.4652 -0.8098
vn -0.1765 -0.6747 -0.7167
vn 0.0648 -0.6190 -0.7827
vn 0.0092 -0.7116 -0.7025
vn -0.3910 -0.5982 -0.6995
vn 0.1101 -0.5336 -0.8385
vn -0.2244 -0.2685 -0.9368
vn 0.0335 -0.2941 -0.9552
vn -0.0127 -0.4386 -0.8986
vn -0.2179 -0.3922 -0.8937
vn 0.0238 -0.5463 -0.8373
vn 0.2321 -0.4046 -0.8846
vn 0.2119 -0.5236 -0.8252
vn -0.2032 -0.5474 -0.8118
vn 0.2457 -0.3003 -0.9217
vn -0.7972 -0.3983 -0.4538
vn -0.6193 -0.4696 -0.6293
vn -0.6146 -0.5911 -0.5224
vn -0.7628 -0.5110 -0.3963
vn -0.5459 -0.6899 -0.4754
vn -0.4247 -0.5965 -0.6810
vn -0.3992 -0.6972 -0.5955
vn -0.6961 -0.6483 -0.3086
vn -0.4401 -0.5048 -0.7426
vn -0.3498 -0.5820 -0.7341
vn -0.1101 -0.5488 -0.8287
vn -0.0923 -0.6765 -0.7306
vn -0.2938 -0.6818 -0.6700
vn -0.0096 -0.7488 -0.6627
vn 0.1244 -0.5818 -0.8038
vn 0.1584 -0.6788 -0.7170
vn -0.2107 -0.7970 -0.5660
vn 0.0944 -0.4933 -0.8647
vn -0.9112 -0.2923 -0.2903
vn -0.7805 -0.3782 -0.4978
vn -0.7693 -0.5025 -0.3946
vn -0.8797 -0.4098 -0.2413
vn -0.7047 -0.6098 -0.3627
vn -0.6159 -0.5247 -0.5877
vn -0.5860 -0.6301 -0.5095
vn -0.8136 -0.5563 -0.1692
vn -0.6322 -0.4301 -0.6445
vn 0.2219 0.7100 0.6684
vn 0.3255 0.8259 0.4603
vn 0.1710 0.8741 0.4546
vn 0.1126 0.7701 0.6280
vn 0.0761 0.9215 0.3808
vn 0.2939 0.9238 0.2455
vn 0.1675 0.9612 0.2192
vn -0.0370 0.8298 0.5568
vn 0.3949 0.8800 0.2641
vn 0.7878 0.2229 0.5742
vn 0.7884 0.4394 0.4305
vn 0.6858 0.4763 0.5502
vn 0.7037 0.2909 0.6482
vn 0.5894 0.5531 0.5888
vn 0.6775 0.6392 0.3640
vn 0.5805 0.6800 0.4479
vn 0.5719 0.3744 0.7299
vn 0.7486 0.5965 0.2894
vn -0.7147 -0.3216 0.6211
vn -0.7249 -0.5192 0.4527
vn -0.6090 -0.5660 0.5556
vn -0.6212 -0.3946 0.6771
vn -0.5069 -0.6429 0.5742
vn -0.6164 -0.7049 0.3508
vn -0.5099 -0.7516 0.4185
vn -0.4792 -0.4818 0.7336
vn -0.6963 -0.6566 0.2899
vn 0.7461 0.6521 0.1346
vn 0.8172 0.5675 -0.1005
vn 0.7138 0.6871 -0.1355
vn 0.6735 0.7363 0.0651
vn 0.6356 0.7386 -0.2246
vn 0.7679 0.5474 -0.3325
vn 0.6751 0.6337 -0.3778
vn 0.5580 0.8293 -0.0299
vn 0.8344 0.4683 -0.2905
vn -0.0485 -0.7124 -0.7001
vn -0.0715 -0.5464 -0.8345
vn -0.0716 -0.5459 -0.8348
vn -0.0485 -0.7125 -0.7000
vn -0.7208 -0.4898 -0.4904
vn -0.7789 -0.3279 -0.5346
vn -0.7214 -0.4884 -0.4909
vn -0.0898 -0.3698 -0.9248
vn -0.6391 -0.6377 -0.4301
vn -0.6390 -0.6377 -0.4301
vn -0.9427 0.2434 0.2282
vn -0.8913 0.4317 0.1385
vn -0.8911 0.4322 0.1383
vn -0.4673 0.4855 0.7389
vn -0.3556 0.6183 0.7009
vn -0.4663 0.4867 0.7387
vn -0.8069 0.5886 0.0496
vn -0.5651 0.3358 0.7536
vn -0.5478 -0.6540 -0.5217
vn -0.6370 -0.4773 -0.6053
vn -0.6372 -0.4768 -0.6055
vn -0.9067 -0.4146 0.0778
vn -0.9652 -0.2471 0.0857
vn -0.9652 -0.2471 0.0856
vn -0.9073 -0.4132 0.0778
vn -0.6935 -0.2937 -0.6578
vn -0.8185 -0.5705 0.0673
vn -0.8185 -0.5705 0.0672
vn -0.9566 -0.1990 0.2130
vn -0.9841 0.0111 0.1772
vn -0.9841 0.0117 0.1771
vn -0.5952 0.0640 0.8010
vn -0.5443 0.2341 0.8056
vn -0.5949 0.0655 0.8011
vn -0.9691 0.2054 0.1366
vn -0.9691 0.2055 0.1366
vn -0.6276 -0.1098 0.7707
vn -0.6277 -0.1098 0.7707
vn -0.3564 -0.2340 -0.9046
vn -0.3646 -0.0209 -0.9309
vn -0.3646 -0.0203 -0.9309
vn -0.9000 -0.0822 -0.4281
vn -0.9247 0.0842 -0.3712
vn -0.9003 -0.0807 -0.4277
vn -0.3571 0.1776 -0.9170
vn -0.8462 -0.2476 -0.4719
vn -0.8461 -0.2476 -0.4720
vn -0.5447 -0.6540 0.5249
vn -0.6320 -0.4773 0.6105
vn -0.6323 -0.4768 0.6107
vn 0.0388 -0.4146 0.9092
vn 0.0442 -0.2471 0.9680
vn 0.0389 -0.4132 0.9098
vn -0.6870 -0.2937 0.6647
vn 0.0321 -0.5705 0.8207
vn 0.0321 -0.5706 0.8206
vn -0.7313 -0.5057 0.4577
vn -0.7646 -0.3195 0.5597
vn -0.7646 -0.3190 0.5600
vn -0.1154 -0.4885 0.8649
vn -0.0621 -0.3364 0.9397
vn -0.1149 -0.4872 0.8657
vn -0.7640 -0.1337 0.6312
vn -0.1654 -0.6264 0.7617
vn -0.1655 -0.6264 0.7617
vn 0.3146 -0.9003 0.3007
vn 0.3650 -0.7965 0.4820
vn 0.3650 -0.7962 0.4825
vn 0.3147 -0.9003 0.3007
vn 0.8715 -0.4885 0.0442
vn 0.9278 -0.3474 0.1362
vn 0.8721 -0.4873 0.0450
vn 0.3965 -0.6675 0.6303
vn 0.7867 -0.6153 -0.0502
vn -0.7318 -0.6788 0.0601
vn -0.8274 -0.5309 0.1831
vn -0.8277 -0.5304 0.1834
vn -0.2819 -0.7104 0.6449
vn -0.2821 -0.5793 0.7647
vn -0.2819 -0.7093 0.6461
vn -0.8820 -0.3717 0.2896
vn -0.2726 -0.8200 0.5032
vn -0.0292 0.9919 0.1239
vn 0.1271 0.9553 0.2669
vn 0.1275 0.9551 0.2673
vn -0.0292 0.9919 0.1240
vn -0.4264 0.6409 0.6384
vn -0.3449 0.5453 0.7640
vn -0.4257 0.6401 0.6396
vn 0.2668 0.8820 0.3884
vn -0.4949 0.7169 0.4911
vn -0.4949 0.7169 0.4910
vn -0.7598 -0.0846 0.6446
vn -0.7596 -0.0848 0.6448
vn -0.8836 -0.2922 0.3660
vn -0.7459 -0.2498 0.6174
vn -0.8214 -0.4456 0.3559
vn -0.9434 -0.3209 0.0842
vn -0.8777 -0.4623 0.1266
vn -0.7132 -0.4014 0.5747
vn -0.9843 -0.1722 0.0399
vn -0.3392 -0.4497 0.8262
vn -0.3394 -0.4496 0.8262
vn -0.5342 -0.6265 0.5676
vn -0.3073 -0.5927 0.7445
vn -0.4545 -0.7467 0.4856
vn -0.7107 -0.6168 0.3384
vn -0.6061 -0.7349 0.3043
vn -0.2684 -0.7142 0.6464
vn -0.7964 -0.4833 0.3635
vn -0.7964 -0.4833 0.3636
vn -0.7015 -0.6261 0.3404
vn -0.7016 -0.6261 0.3403
vn -0.6128 -0.7899 0.0219
vn -0.5897 -0.7468 0.3074
vn -0.4738 -0.8804 0.0226
vn -0.5753 -0.7739 -0.2646
vn -0.4532 -0.8656 -0.2128
vn -0.4669 -0.8428 0.2677
vn -0.6821 -0.6625 -0.3096
vn -0.8566 -0.4688 0.2154
vn -0.8567 -0.4687 0.2152
vn -0.7754 -0.6217 -0.1105
vn -0.7725 -0.6093 0.1789
vn -0.6614 -0.7422 -0.1082
vn -0.7061 -0.5910 -0.3899
vn -0.6140 -0.7132 -0.3383
vn -0.6713 -0.7280 0.1393
vn -0.7795 -0.4543 -0.4312
vn -0.7795 -0.4544 -0.4312
vn -0.1577 -0.3522 0.9225
vn -0.1579 -0.3522 0.9225
vn -0.2889 -0.6312 0.7198
vn -0.0822 -0.4914 0.8670
vn -0.1759 -0.7343 0.6557
vn -0.4633 -0.7256 0.5088
vn -0.3264 -0.8089 0.4890
vn -0.0077 -0.6119 0.7909
vn -0.5874 -0.6239 0.5154
vn -0.5874 -0.6240 0.5154
vn -0.5210 0.7618 -0.3849
vn -0.5211 0.7618 -0.3848
vn -0.2898 0.9433 -0.1619
vn -0.3711 0.8302 -0.4160
vn -0.1358 0.9661 -0.2194
vn -0.1740 0.9796 0.1010
vn -0.0502 0.9987 -0.0011
vn -0.2174 0.8739 -0.4348
vn -0.2924 0.9352 0.1999
vn -0.2924 0.9352 0.1998
vn -0.5799 -0.3530 0.7342
vn -0.5801 -0.3530 0.7341
vn -0.5463 -0.6539 0.5234
vn -0.4697 -0.4792 0.7414
vn -0.4046 -0.7386 0.5392
vn -0.5676 -0.7800 0.2636
vn -0.4320 -0.8404 0.3273
vn -0.3515 -0.5876 0.7288
vn -0.6877 -0.6998 0.1935
vn -0.1858 0.5687 0.8013
vn -0.1858 0.5686 0.8014
vn 0.1827 0.5539 0.8123
vn -0.0707 0.6723 0.7369
vn 0.2630 0.6552 0.7082
vn 0.4260 0.3970 0.8130
vn 0.4591 0.5232 0.7180
vn 0.0416 0.7540 0.6556
vn 0.3819 0.2611 0.8865
vn 0.2938 -0.5387 0.7896
vn 0.3883 -0.6148 0.6865
vn 0.4944 -0.5261 0.6919
vn 0.3410 -0.4466 0.8272
vn 0.5506 -0.4266 0.7176
vn 0.5845 -0.6068 0.5387
vn 0.6924 -0.5040 0.5162
vn 0.4836 -0.6823 0.5482
vn 0.3910 -0.3323 0.8583
vn 0.1981 -0.9351 -0.2938
vn 0.0489 -0.9357 -0.3495
vn 0.0765 -0.8781 -0.4723
vn 0.2681 -0.8910 -0.3663
vn 0.1394 -0.8214 -0.5531
vn -0.1121 -0.8502 -0.5144
vn -0.0979 -0.7643 -0.6373
vn -0.1220 -0.9074 -0.4021
vn 0.3457 -0.8258 -0.4455
vn -0.4049 -0.6158 0.6759
vn -0.2555 -0.6637 0.7030
vn -0.2224 -0.5652 0.7944
vn -0.4297 -0.5258 0.7341
vn -0.2340 -0.4650 0.8538
vn -0.0326 -0.6103 0.7915
vn 0.0221 -0.4936 0.8694
vn -0.0780 -0.6976 0.7122
vn -0.4519 -0.4126 0.7909
vn -0.5002 -0.8357 -0.2265
vn -0.5174 -0.8529 -0.0691
vn -0.6304 -0.7742 -0.0556
vn -0.5781 -0.7704 -0.2687
vn -0.7121 -0.6966 -0.0873
vn -0.6198 -0.7723 0.1392
vn -0.7245 -0.6682 0.1690
vn -0.5210 -0.8462 0.1117
vn -0.6603 -0.6823 -0.3138
vn 0.4204 0.8810 -0.2170
vn 0.3958 0.9161 -0.0636
vn 0.5118 0.8590 -0.0143
vn 0.5145 0.8257 -0.2312
vn 0.6087 0.7933 -0.0158
vn 0.4539 0.8744 0.1714
vn 0.5615 0.7925 0.2380
vn 0.3557 0.9278 0.1125
vn 0.6165 0.7486 -0.2441
vn 0.8033 0.5305 0.2706
vn 0.7027 0.6535 0.2815
vn 0.6600 0.6290 0.4108
vn 0.8041 0.4707 0.3630
vn 0.6455 0.5684 0.5101
vn 0.5146 0.7587 0.3994
vn 0.4417 0.7260 0.5271
vn 0.5668 0.7729 0.2852
vn 0.7927 0.3937 0.4654
vt 0.966382 8.503631
vt 0.966382 6.725045
vt 0.810921 6.725045
vt 0.810921 8.503631
vt 0.344539 8.503631
vt 0.344539 6.725048
vt 0.189079 6.725048
vt 0.189079 8.503631
vt 0.500000 8.503631
vt 0.500000 6.725048
vt 0.655461 8.503631
vt 0.655461 6.725048
vt 0.966382 4.946462
vt 0.810921 4.946462
vt 0.344539 4.946462
vt 0.189079 4.946462
vt 0.500000 4.946462
vt 0.655461 4.946462
vt 0.966382 3.167876
vt 0.810921 3.167876
vt 0.189079 3.167876
vt 0.033618 3.167878
vt 0.344539 3.167876
vt 0.500000 3.167876
vt 0.655461 3.167876
vt 0.966382 1.389293
vt 0.810921 1.389293
vt 0.189079 1.389293
vt 0.033618 1.389293
vt 0.344539 1.389293
vt 0.500000 1.389293
vt 0.655461 1.389293
vt 0.810921 -0.389293
vt 0.189079 -0.389293
vt 0.033618 -0.389292
vt 0.344539 -0.389293
vt 0.500000 -0.389293
vt 0.655461 -0.389293
vt 0.966382 -0.389294
vt 0.966382 -2.167878
vt 0.810921 -2.167878
vt 0.189079 -2.167876
vt 0.033618 -2.167876
vt 0.500000 -2.167877
vt 0.344539 -2.167877
vt 0.655461 -2.167877
vt 0.966382 -3.946462
vt 0.810921 -3.946462
vt 0.189079 -3.946462
vt 0.033618 -3.946462
vt 0.344539 -3.946462
vt 0.500000 -3.946462
vt 0.655461 -3.946462
vt 0.966382 -5.725047
vt 0.810921 -5.725047
vt 0.189079 -5.725045
vt 0.033618 -5.725045
vt 0.500000 -5.725046
vt 0.344539 -5.725046
vt 0.655461 -5.725046
vt 0.966382 -7.503632
vt 0.810921 -7.503630
vt 0.189079 -7.503630
vt 0.033618 -7.503630
vt 0.344539 -7.503630
vt 0.500000 -7.503630
vt 0.655461 -7.503630
vt 0.033618 6.725048
vt 0.033618 8.503633
vt 0.033618 4.946462
vt 0.000000 0.000000
vt 0.475004 0.000000
vt 0.581436 0.594393
vt 0.000000 0.491831
vt 0.494355 1.000000
vt 1.000000 0.474417
vt 1.000000 1.000000
vt 0.000000 1.000000
vt 1.000000 0.000000
vt 0.533479 0.000000
vt 0.447807 0.563622
vt 0.000000 0.448746
vt 0.515396 1.000000
vt 1.000000 0.474699
vt 0.509433 1.000000
vt 0.557025 0.488493
vt 0.943530 0.531260
vt 0.672370 1.000000
vt 0.124045 0.440587
vt 0.259966 0.000000
vt 0.602475 0.000000
vt 0.860970 0.000000
vt 0.189556 1.000000
vt 0.480173 0.000000
vt 0.499095 0.494221
vt 0.000000 0.504135
vt 0.518459 1.000000
vt 1.000000 0.484268
vt 0.532232 1.000000
vt 0.477364 0.470556
vt 1.000000 0.533264
vt 0.516556 0.000000
vt 0.000000 0.535225
s 1
usemtl trunk-01
f 2/1/1 14/2/2 23/3/3
f 2/1/1 23/3/3 13/4/4
f 6/5/5 17/6/6 15/7/7
f 6/5/5 15/7/7 3/8/8
f 9/9/9 19/10/10 16/6/11
f 9/9/9 16/6/11 5/5/12
f 11/11/13 21/12/14 18/10/15
f 11/11/13 18/10/15 7/9/16
f 10/4/17 22/3/18 20/12/19
f 14/2/2 24/13/20 34/14/21
f 14/2/2 34/14/21 23/3/3
f 17/6/6 28/15/22 26/16/23
f 17/6/6 26/16/23 15/7/7
f 19/10/10 30/17/24 27/15/25
f 19/10/10 27/15/25 16/6/11
f 21/12/14 31/18/26 29/17/27
f 21/12/14 29/17/27 18/10/15
f 22/3/18 33/18/28 20/12/19
f 24/13/20 35/19/29 46/20/30
f 24/13/20 46/20/30 34/14/21
f 25/16/31 37/21/32 36/22/33
f 28/15/22 40/23/34 38/21/35
f 28/15/22 38/21/35 26/16/23
f 30/17/24 44/24/36 39/23/37
f 30/17/24 39/23/37 27/15/25
f 31/18/26 41/24/38 29/17/27
f 32/14/26 45/20/39 42/25/38
f 35/19/29 47/26/40 57/27/41
f 35/19/29 57/27/41 46/20/30
f 37/21/32 49/28/42 48/29/43
f 37/21/32 48/29/43 36/22/33
f 40/23/34 52/30/44 50/28/44
f 40/23/34 50/28/44 38/21/35
f 44/24/36 54/31/45 51/30/46
f 44/24/36 51/30/46 39/23/37
f 43/25/47 55/32/48 53/31/49
f 45/20/39 56/32/50 42/25/38
f 47/26/40 66/33/51 57/27/41
f 49/28/42 58/34/52 68/35/53
f 49/28/42 68/35/53 48/29/43
f 52/30/44 61/36/54 59/34/55
f 52/30/44 59/34/55 50/28/44
f 54/31/45 63/37/56 60/36/57
f 54/31/45 60/36/57 51/30/46
f 55/32/48 64/38/58 62/37/59
f 55/32/48 62/37/59 53/31/49
f 57/27/41 66/33/51 65/38/60
f 67/39/61 69/40/62 80/41/63
f 58/34/52 72/42/64 70/43/65
f 58/34/52 70/43/65 68/35/53
f 61/36/54 73/42/66 59/34/55
f 63/37/56 76/44/67 71/45/68
f 63/37/56 71/45/68 60/36/57
f 64/38/58 78/46/69 75/44/70
f 64/38/58 75/44/70 62/37/59
f 66/33/51 79/41/71 77/46/72
f 66/33/51 77/46/72 65/38/60
f 69/40/62 81/47/73 92/48/74
f 69/40/62 92/48/74 80/41/63
f 72/42/64 83/49/75 82/50/76
f 72/42/64 82/50/76 70/43/65
f 74/45/77 86/51/78 84/49/79
f 76/44/67 88/52/80 85/51/81
f 76/44/67 85/51/81 71/45/68
f 78/46/69 91/53/82 87/52/83
f 78/46/69 87/52/83 75/44/70
f 79/41/71 89/53/84 77/46/72
f 81/47/73 93/54/85 104/55/86
f 81/47/73 104/55/86 92/48/74
f 83/49/75 96/56/87 94/57/88
f 83/49/75 94/57/88 82/50/76
f 86/51/78 97/56/89 84/49/79
f 88/52/80 100/58/90 95/59/91
f 88/52/80 95/59/91 85/51/81
f 91/53/82 102/60/92 99/58/93
f 91/53/82 99/58/93 87/52/83
f 90/48/94 103/55/95 101/60/96
f 93/54/85 105/61/97 116/62/97
f 93/54/85 116/62/97 104/55/86
f 96/56/87 233/63/98 106/64/98
f 96/56/87 106/64/98 94/57/88
s 0
f 98/59/99 108/65/99 234/63/99
s 1
f 100/58/90 112/66/100 107/65/101
f 100/58/90 107/65/101 95/59/91
f 102/60/92 114/67/102 110/66/102
f 102/60/92 110/66/102 99/58/93
f 103/55/95 115/62/103 113/67/104
f 103/55/95 113/67/104 101/60/96
f 119/1/105 132/2/106 140/3/107
f 119/1/105 140/3/107 129/4/105
f 121/8/108 134/7/109 131/68/110
f 121/8/108 131/68/110 117/69/108
f 120/5/111 135/6/112 133/7/113
s 0
f 124/9/114 136/6/114 122/5/114
s 1
f 128/11/115 138/12/116 137/10/117
f 128/11/115 137/10/117 126/9/115
f 130/4/118 141/3/119 139/12/120
f 132/2/106 144/13/121 155/14/122
f 132/2/106 155/14/122 140/3/107
f 134/7/109 146/16/123 142/70/123
f 134/7/109 142/70/123 131/68/110
f 135/6/112 148/15/124 145/16/125
f 135/6/112 145/16/125 133/7/113
f 138/12/116 153/18/126 151/17/127
f 138/12/116 151/17/127 137/10/117
f 141/3/119 156/14/128 154/18/129
f 141/3/119 154/18/129 139/12/120
f 144/13/121 158/19/130 167/20/131
f 144/13/121 167/20/131 155/14/122
f 147/16/132 162/21/133 157/22/134
f 147/16/132 157/22/134 143/70/135
f 148/15/124 160/21/136 145/16/125
f 149/17/137 163/24/138 161/23/136
f 152/18/139 165/25/140 164/24/141
f 152/18/139 164/24/141 150/17/139
f 156/14/128 167/20/131 166/25/142
f 156/14/128 166/25/142 154/18/129
f 158/19/130 170/27/143 167/20/131
f 162/21/133 172/28/144 168/29/145
f 162/21/133 168/29/145 157/22/134
f 159/23/146 173/30/147 171/28/148
f 163/24/138 175/31/149 174/30/150
f 163/24/138 174/30/150 161/23/136
f 165/25/140 177/32/151 176/31/152
f 165/25/140 176/31/152 164/24/141
f 167/20/131 170/27/143 178/32/153
f 167/20/131 178/32/153 166/25/142
f 169/26/154 290/39/155 191/33/156
f 172/28/144 182/34/157 286/35/158
f 172/28/144 286/35/158 168/29/145
f 173/30/147 187/36/159 181/34/159
f 173/30/147 181/34/159 171/28/148
f 175/31/149 291/37/160 188/36/160
f 175/31/149 188/36/160 174/30/150
f 177/32/151 281/38/161 296/37/161
f 177/32/151 296/37/161 176/31/152
f 170/27/143 192/33/162 283/38/163
f 170/27/143 283/38/163 178/32/153
f 290/39/155 194/40/164 203/41/165
f 290/39/155 203/41/165 191/33/156
f 184/34/166 196/42/167 193/43/168
f 184/34/166 193/43/168 288/35/166
f 186/36/169 197/45/170 195/42/171
f 186/36/169 195/42/171 180/34/169
f 292/37/172 200/44/173 198/45/174
f 292/37/172 198/45/174 189/36/175
f 279/38/176 201/46/177 199/44/178
f 279/38/176 199/44/178 294/37/179
f 192/33/162 204/41/180 202/46/180
f 192/33/162 202/46/180 283/38/163
f 194/40/164 213/48/181 203/41/165
f 196/42/167 206/49/182 212/50/181
f 196/42/167 212/50/181 193/43/168
f 197/45/170 207/51/183 205/49/183
f 197/45/170 205/49/183 195/42/171
f 200/44/173 208/51/184 198/45/174
f 201/46/177 210/53/185 209/52/184
f 201/46/177 209/52/184 199/44/178
f 204/41/180 215/48/186 211/53/187
f 204/41/180 211/53/187 202/46/180
f 214/47/188 217/54/189 225/55/190
f 206/49/182 219/56/191 216/57/192
f 206/49/182 216/57/192 212/50/181
f 207/51/183 220/59/193 218/56/194
f 207/51/183 218/56/194 205/49/183
f 209/52/184 222/58/195 221/59/196
f 210/53/185 223/60/197 222/58/195
f 210/53/185 222/58/195 209/52/184
f 215/48/186 226/55/198 224/60/199
f 215/48/186 224/60/199 211/53/187
f 217/54/189 228/61/200 237/62/201
f 217/54/189 237/62/201 225/55/190
f 219/56/191 230/63/202 227/64/203
f 219/56/191 227/64/203 216/57/192
f 220/59/193 109/65/204 229/63/204
f 220/59/193 229/63/204 218/56/194
f 222/58/195 231/66/205 111/65/205
f 222/58/195 111/65/205 221/59/196
f 223/60/197 235/67/206 232/66/206
f 223/60/197 232/66/206 222/58/195
f 226/55/198 238/62/207 236/67/208
f 226/55/198 236/67/208 224/60/199
f 241/1/209 255/19/210 266/20/211
f 241/1/209 266/20/211 254/4/212
f 242/8/213 258/21/214 256/22/215
f 246/5/216 260/23/217 257/21/218
f 246/5/216 257/21/218 240/8/219
f 248/9/220 262/24/221 259/23/221
f 248/9/220 259/23/221 243/5/222
f 247/11/223 263/25/224 261/24/225
f 251/4/226 265/20/227 264/25/227
f 251/4/226 264/25/227 249/11/228
f 255/19/210 267/40/229 278/41/230
f 255/19/210 278/41/230 266/20/211
f 258/21/214 270/42/231 268/43/232
f 258/21/214 268/43/232 256/22/215
f 260/23/217 272/45/233 269/42/234
f 260/23/217 269/42/234 257/21/218
f 262/24/221 274/44/235 271/45/236
f 262/24/221 271/45/236 259/23/221
f 263/25/224 275/46/237 273/44/238
f 263/25/224 273/44/238 261/24/225
f 265/20/227 277/41/239 276/46/240
f 265/20/227 276/46/240 264/25/227
f 267/40/229 280/61/241 295/62/241
f 267/40/229 295/62/241 278/41/230
f 270/42/231 285/63/242 282/64/242
f 270/42/231 282/64/242 268/43/232
f 272/45/233 289/65/243 284/63/243
f 272/45/233 284/63/243 269/42/234
f 274/44/235 183/66/244 287/65/244
f 274/44/235 287/65/244 271/45/236
f 275/46/237 185/67/245 179/66/245
f 275/46/237 179/66/245 273/44/238
f 277/41/239 293/62/246 190/67/246
f 277/41/239 190/67/246 276/46/240
s 0
f 252/4/247 250/11/247 244/5/247
s 1
f 253/4/248 245/5/248 239/8/248
f 127/11/249 125/9/250 123/5/249
f 127/11/249 123/5/249 118/69/249
f 8/9/251 4/5/252 1/1/251
f 8/9/251 1/1/251 12/11/252
usemtl branch-2-02
f 297/71/253 301/72/254 303/73/255
f 297/71/253 303/73/255 305/74/256
f 302/75/257 303/73/255 304/76/258
f 302/75/257 304/76/258 300/77/259
f 305/74/256 303/73/255 302/75/257
f 305/74/256 302/75/257 299/78/260
f 304/76/258 303/73/255 301/72/254
f 304/76/258 301/72/254 298/79/261
f 306/71/262 310/72/263 312/73/264
f 306/71/262 312/73/264 314/74/265
f 311/75/266 312/73/264 313/76/267
f 311/75/266 313/76/267 309/77/268
f 314/74/265 312/73/264 311/75/266
f 314/74/265 311/75/266 308/78/269
f 313/76/267 312/73/264 310/72/263
f 313/76/267 310/72/263 307/79/270
f 315/71/271 319/72/272 321/73/273
f 315/71/271 321/73/273 323/74/274
f 320/75/275 321/73/273 322/76/276
f 320/75/275 322/76/276 318/77/277
f 323/74/274 321/73/273 320/75/275
f 323/74/274 320/75/275 317/78/278
f 322/76/276 321/73/273 319/72/272
f 322/76/276 319/72/272 316/79/279
f 324/71/280 328/72/281 330/73/282
f 324/71/280 330/73/282 332/74/283
f 329/75/284 330/73/282 331/76/285
f 329/75/284 331/76/285 327/77/286
f 332/74/283 330/73/282 329/75/284
f 332/74/283 329/75/284 326/78/287
f 331/76/285 330/73/282 328/72/281
f 331/76/285 328/72/281 325/79/288
f 333/71/289 337/72/290 339/73/291
f 333/71/289 339/73/291 341/74/292
f 338/75/293 339/73/291 340/76/294
f 338/75/293 340/76/294 336/77/295
f 341/74/292 339/73/291 338/75/293
f 341/74/292 338/75/293 335/78/296
f 340/76/294 339/73/291 337/72/290
f 340/76/294 337/72/290 334/79/297
f 342/71/298 346/72/299 348/73/300
f 342/71/298 348/73/300 350/74/301
f 347/75/302 348/73/300 349/76/303
f 347/75/302 349/76/303 345/77/304
f 350/74/301 348/73/300 347/75/302
f 350/74/301 347/75/302 344/78/305
f 349/76/303 348/73/300 346/72/299
f 349/76/303 346/72/299 343/79/306
f 351/71/307 355/72/308 357/73/309
f 351/71/307 357/73/309 359/74/310
f 356/75/311 357/73/309 358/76/312
f 356/75/311 358/76/312 354/77/313
f 359/74/310 357/73/309 356/75/311
f 359/74/310 356/75/311 353/78/314
f 358/76/312 357/73/309 355/72/308
f 358/76/312 355/72/308 352/79/315
f 360/71/316 364/72/317 366/73/318
f 360/71/316 366/73/318 368/74/319
f 365/75/320 366/73/318 367/76/321
f 365/75/320 367/76/321 363/77/322
f 368/74/319 366/73/318 365/75/320
f 368/74/319 365/75/320 362/78/323
f 367/76/321 366/73/318 364/72/317
f 367/76/321 364/72/317 361/79/324
f 369/71/325 373/72/326 375/73/327
f 369/71/325 375/73/327 377/74/328
f 374/75/329 375/73/327 376/76/330
f 374/75/329 376/76/330 372/77/331
f 377/74/328 375/73/327 374/75/329
f 377/74/328 374/75/329 371/78/332
f 376/76/330 375/73/327 373/72/326
f 376/76/330 373/72/326 370/79/333
f 378/71/334 382/72/335 384/73/336
f 378/71/334 384/73/336 386/74/337
f 383/75/338 384/73/336 385/76/339
f 383/75/338 385/76/339 381/77/340
f 386/74/337 384/73/336 383/75/338
f 386/74/337 383/75/338 380/78/341
f 385/76/339 384/73/336 382/72/335
f 385/76/339 382/72/335 379/79/342
f 387/71/343 391/72/344 393/73/345
f 387/71/343 393/73/345 395/74/346
f 392/75/347 393/73/345 394/76/348
f 392/75/347 394/76/348 390/77/349
f 395/74/346 393/73/345 392/75/347
f 395/74/346 392/75/347 389/78/350
f 394/76/348 393/73/345 391/72/344
f 394/76/348 391/72/344 388/79/351
f 396/71/352 400/72/353 402/73/354
f 396/71/352 402/73/354 404/74/355
f 401/75/356 402/73/354 403/76/357
f 401/75/356 403/76/357 399/77/358
f 404/74/355 402/73/354 401/75/356
f 404/74/355 401/75/356 398/78/359
f 403/76/357 402/73/354 400/72/353
f 403/76/357 400/72/353 397/79/360
f 405/71/361 409/72/362 411/73/363
f 405/71/361 411/73/363 413/74/364
f 410/75/365 411/73/363 412/76/366
f 410/75/365 412/76/366 408/77/367
f 413/74/364 411/73/363 410/75/365
f 413/74/364 410/75/365 407/78/368
f 412/76/366 411/73/363 409/72/362
f 412/76/366 409/72/362 406/79/369
f 414/71/370 418/72/371 420/73/372
f 414/71/370 420/73/372 422/74/373
f 419/75/374 420/73/372 421/76/375
f 419/75/374 421/76/375 417/77/376
f 422/74/373 420/73/372 419/75/374
f 422/74/373 419/75/374 416/78/377
f 421/76/375 420/73/372 418/72/371
f 421/76/375 418/72/371 415/79/378
usemtl branch-2-01
f 423/71/379 427/80/380 429/81/381
f 423/71/379 429/81/381 430/82/382
f 428/83/383 429/81/381 431/84/384
f 428/83/383 431/84/384 426/77/385
f 430/82/382 429/81/381 428/83/383
f 430/82/382 428/83/383 425/78/386
f 431/84/384 429/81/381 427/80/380
f 431/84/384 427/80/380 424/79/387
f 432/71/388 436/80/389 438/81/390
f 432/71/388 438/81/390 439/82/391
f 437/83/392 438/81/390 440/84/393
f 437/83/392 440/84/393 435/77/394
f 439/82/391 438/81/390 437/83/392
f 439/82/391 437/83/392 434/78/395
f 440/84/393 438/81/390 436/80/389
f 440/84/393 436/80/389 433/79/396
f 441/71/397 445/80/398 447/81/399
f 441/71/397 447/81/399 448/82/400
f 446/83/401 447/81/399 449/84/402
f 446/83/401 449/84/402 444/77/403
f 448/82/400 447/81/399 446/83/401
f 448/82/400 446/83/401 443/78/404
f 449/84/402 447/81/399 445/80/398
f 449/84/402 445/80/398 442/79/405
f 450/71/406 454/80/407 456/81/408
f 450/71/406 456/81/408 457/82/409
f 455/83/410 456/81/408 458/84/411
f 455/83/410 458/84/411 453/77/412
f 457/82/409 456/81/408 455/83/410
f 457/82/409 455/83/410 452/78/413
f 458/84/411 456/81/408 454/80/407
f 458/84/411 454/80/407 451/79/414
f 459/71/415 463/80/416 465/81/417
f 459/71/415 465/81/417 466/82/418
f 464/83/419 465/81/417 467/84/420
f 464/83/419 467/84/420 462/77/421
f 466/82/418 465/81/417 464/83/419
f 466/82/418 464/83/419 461/78/422
f 467/84/420 465/81/417 463/80/416
f 467/84/420 463/80/416 460/79/423
f 468/71/424 472/80/425 474/81/426
f 468/71/424 474/81/426 475/82/427
f 473/83/428 474/81/426 476/84/429
f 473/83/428 476/84/429 471/77/430
f 475/82/427 474/81/426 473/83/428
f 475/82/427 473/83/428 470/78/431
f 476/84/429 474/81/426 472/80/425
f 476/84/429 472/80/425 469/79/432
f 477/71/433 481/80/434 483/81/435
f 477/71/433 483/81/435 484/82/436
f 482/83/437 483/81/435 485/84/438
f 482/83/437 485/84/438 480/77/439
f 484/82/436 483/81/435 482/83/437
f 484/82/436 482/83/437 479/78/440
f 485/84/438 483/81/435 481/80/434
f 485/84/438 481/80/434 478/79/441
f 486/71/442 490/80/443 492/81/444
f 486/71/442 492/81/444 493/82/445
f 491/83/446 492/81/444 494/84/447
f 491/83/446 494/84/447 489/77/448
f 493/82/445 492/81/444 491/83/446
f 493/82/445 491/83/446 488/78/449
f 494/84/447 492/81/444 490/80/443
f 494/84/447 490/80/443 487/79/450
f 495/71/451 499/80/452 501/81/453
f 495/71/451 501/81/453 502/82/454
f 500/83/455 501/81/453 503/84/456
f 500/83/455 503/84/456 498/77/457
f 502/82/454 501/81/453 500/83/455
f 502/82/454 500/83/455 497/78/458
f 503/84/456 501/81/453 499/80/452
f 503/84/456 499/80/452 496/79/459
f 504/71/460 508/80/461 510/81/462
f 504/71/460 510/81/462 511/82/463
f 509/83/464 510/81/462 512/84/465
f 509/83/464 512/84/465 507/77/466
f 511/82/463 510/81/462 509/83/464
f 511/82/463 509/83/464 506/78/467
f 512/84/465 510/81/462 508/80/461
f 512/84/465 508/80/461 505/79/468
f 513/71/469 517/80/470 519/81/471
f 513/71/469 519/81/471 520/82/472
f 518/83/473 519/81/471 521/84/474
f 518/83/473 521/84/474 516/77/475
f 520/82/472 519/81/471 518/83/473
f 520/82/472 518/83/473 515/78/476
f 521/84/474 519/81/471 517/80/470
f 521/84/474 517/80/470 514/79/477
f 522/71/478 526/80/479 528/81/480
f 522/71/478 528/81/480 529/82/481
f 527/83/482 528/81/480 530/84/483
f 527/83/482 530/84/483 525/77/484
f 529/82/481 528/81/480 527/83/482
f 529/82/481 527/83/482 524/78/485
f 530/84/483 528/81/480 526/80/479
f 530/84/483 526/80/479 523/79/486
f 531/71/487 535/80/488 537/81/489
f 531/71/487 537/81/489 538/82/490
f 536/83/491 537/81/489 539/84/492
f 536/83/491 539/84/492 534/77/493
f 538/82/490 537/81/489 536/83/491
f 538/82/490 536/83/491 533/78/494
f 539/84/492 537/81/489 535/80/488
f 539/84/492 535/80/488 532/79/495
f 540/71/496 544/80/497 546/81/498
f 540/71/496 546/81/498 547/82/499
f 545/83/500 546/81/498 548/84/501
f 545/83/500 548/84/501 543/77/502
f 547/82/499 546/81/498 545/83/500
f 547/82/499 545/83/500 542/78/503
f 548/84/501 546/81/498 544/80/497
f 548/84/501 544/80/497 541/79/504
f 549/71/505 553/80/506 555/81/507
f 549/71/505 555/81/507 556/82/508
f 554/83/509 555/81/507 557/84/510
f 554/83/509 557/84/510 552/77/511
f 556/82/508 555/81/507 554/83/509
f 556/82/508 554/83/509 551/78/512
f 557/84/510 555/81/507 553/80/506
f 557/84/510 553/80/506 550/79/513
usemtl branch-2-04
f 559/85/514 563/86/515 567/87/516
f 559/85/514 567/87/516 568/88/517
f 565/89/518 564/90/519 560/91/519
f 565/89/518 560/91/519 562/86/520
f 566/92/521 567/87/516 563/86/515
f 566/92/521 563/86/515 561/91/521
f 569/93/522 565/89/518 562/86/520
f 569/93/522 562/86/520 558/85/523
f 570/85/524 574/86/525 579/87/526
f 570/85/524 579/87/526 580/88/524
f 577/89/527 576/90/528 573/91/528
f 577/89/527 573/91/528 575/86/529
f 578/92/530 579/87/526 574/86/525
f 578/92/530 574/86/525 572/91/530
f 581/93/531 577/89/527 575/86/529
f 581/93/531 575/86/529 571/85/531
f 583/85/532 587/86/533 591/87/534
f 583/85/532 591/87/534 592/88/532
f 589/89/535 588/90/536 584/91/537
f 589/89/535 584/91/537 586/86/538
f 590/92/539 591/87/534 587/86/533
f 590/92/539 587/86/533 585/91/539
f 593/93/540 589/89/535 586/86/538
f 593/93/540 586/86/538 582/85/541
f 594/85/542 598/86/543 603/87/544
f 594/85/542 603/87/544 604/88/542
f 601/89/545 600/90/546 597/91/546
f 601/89/545 597/91/546 599/86/547
f 602/92/548 603/87/544 598/86/543
f 602/92/548 598/86/543 596/91/549
f 605/93/550 601/89/545 599/86/547
f 605/93/550 599/86/547 595/85/551
f 607/85/552 611/86/553 615/87/554
f 607/85/552 615/87/554 616/88/552
f 613/89/555 612/90/556 608/91/556
f 613/89/555 608/91/556 610/86/557
f 614/92/558 615/87/554 611/86/553
f 614/92/558 611/86/553 609/91/558
f 617/93/559 613/89/555 610/86/557
f 617/93/559 610/86/557 606/85/560
f 618/85/561 622/86/562 627/87/563
f 618/85/561 627/87/563 628/88/561
f 625/89/564 624/90/565 621/91/565
f 625/89/564 621/91/565 623/86/566
f 626/92/567 627/87/563 622/86/562
f 626/92/567 622/86/562 620/91/567
f 629/93/568 625/89/564 623/86/566
f 629/93/568 623/86/566 619/85/569
f 630/85/570 634/86/571 639/87/572
f 630/85/570 639/87/572 640/88/570
f 637/89/573 636/90/574 633/91/574
f 637/89/573 633/91/574 635/86/575
f 638/92/576 639/87/572 634/86/571
f 638/92/576 634/86/571 632/91/576
f 641/93/577 637/89/573 635/86/575
f 641/93/577 635/86/575 631/85/578
f 642/85/579 646/86/580 651/87/581
f 642/85/579 651/87/581 652/88/582
f 649/89/583 648/90/584 645/91/584
f 649/89/583 645/91/584 647/86/585
f 650/92/586 651/87/581 646/86/580
f 650/92/586 646/86/580 644/91/586
f 653/93/587 649/89/583 647/86/585
f 653/93/587 647/86/585 643/85/587
f 654/85/588 658/86/589 663/87/590
f 654/85/588 663/87/590 664/88/588
f 661/89/591 660/90/592 657/91/592
f 661/89/591 657/91/592 659/86/593
f 662/92/594 663/87/590 658/86/589
f 662/92/594 658/86/589 656/91/594
f 665/93/595 661/89/591 659/86/593
f 665/93/595 659/86/593 655/85/595
f 667/85/596 671/86/597 675/87/598
f 667/85/596 675/87/598 676/88/599
f 673/89/600 672/90/601 668/91/601
f 673/89/600 668/91/601 670/86/602
f 674/92/603 675/87/598 671/86/597
f 674/92/603 671/86/597 669/91/603
f 677/93/604 673/89/600 670/86/602
f 677/93/604 670/86/602 666/85/605
usemtl branch-2-05
f 678/71/606 683/94/607 687/95/608
f 678/71/606 687/95/608 686/96/609
f 684/97/610 687/95/608 685/98/611
f 684/97/610 685/98/611 681/77/612
f 686/96/609 687/95/608 684/97/610
f 686/96/609 684/97/610 680/78/613
f 685/98/611 687/95/608 682/94/614
f 685/98/611 682/94/614 679/79/614
f 688/71/615 693/94/616 697/95/617
f 688/71/615 697/95/617 696/96/618
f 694/97/619 697/95/617 695/98/620
f 694/97/619 695/98/620 691/77/621
f 696/96/618 697/95/617 694/97/619
f 696/96/618 694/97/619 690/78/622
f 695/98/620 697/95/617 692/94/623
f 695/98/620 692/94/623 689/79/624
f 698/71/625 702/94/626 707/95/627
f 698/71/625 707/95/627 706/96/628
f 704/97/629 707/95/627 705/98/630
f 704/97/629 705/98/630 701/77/631
f 706/96/628 707/95/627 704/97/629
f 706/96/628 704/97/629 700/78/632
f 705/98/630 707/95/627 703/94/633
f 705/98/630 703/94/633 699/79/633
f 708/71/634 712/94/635 717/95/636
f 708/71/634 717/95/636 716/96/637
f 714/97/638 717/95/636 715/98/639
f 714/97/638 715/98/639 711/77/640
f 716/96/637 717/95/636 714/97/638
f 716/96/637 714/97/638 710/78/641
f 715/98/639 717/95/636 713/94/642
f 715/98/639 713/94/642 709/79/643
f 718/71/644 723/94/645 727/95/646
f 718/71/644 727/95/646 726/96/647
f 724/97/648 727/95/646 725/98/649
f 724/97/648 725/98/649 721/77/650
f 726/96/647 727/95/646 724/97/648
f 726/96/647 724/97/648 720/78/651
f 725/98/649 727/95/646 722/94/652
f 725/98/649 722/94/652 719/79/653
f 728/71/654 732/94/655 737/95/656
f 728/71/654 737/95/656 736/96/657
f 734/97/658 737/95/656 735/98/659
f 734/97/658 735/98/659 731/77/660
f 736/96/657 737/95/656 734/97/658
f 736/96/657 734/97/658 730/78/661
f 735/98/659 737/95/656 733/94/662
f 735/98/659 733/94/662 729/79/663
f 738/71/664 743/94/665 747/95/666
f 738/71/664 747/95/666 746/96/667
f 744/97/668 747/95/666 745/98/669
f 744/97/668 745/98/669 741/77/670
f 746/96/667 747/95/666 744/97/668
f 746/96/667 744/97/668 740/78/671
f 745/98/669 747/95/666 742/94/672
f 745/98/669 742/94/672 739/79/672
f 748/71/673 752/94/674 757/95/675
f 748/71/673 757/95/675 756/96/676
f 754/97/677 757/95/675 755/98/678
f 754/97/677 755/98/678 751/77/679
f 756/96/676 757/95/675 754/97/677
f 756/96/676 754/97/677 750/78/680
f 755/98/678 757/95/675 753/94/681
f 755/98/678 753/94/681 749/79/681
usemtl branch-2-03
f 761/77/682 762/99/683 764/100/684
f 761/77/682 764/100/684 766/101/685
f 763/102/686 764/100/684 765/103/687
f 763/102/686 765/103/687 758/71/688
f 765/103/687 764/100/684 762/99/683
f 765/103/687 762/99/683 760/78/689
f 766/101/685 764/100/684 763/102/686
f 766/101/685 763/102/686 759/79/690
f 770/77/691 771/99/692 773/100/693
f 770/77/691 773/100/693 775/101/694
f 772/102/695 773/100/693 774/103/696
f 772/102/695 774/103/696 767/71/697
f 774/103/696 773/100/693 771/99/692
f 774/103/696 771/99/692 769/78/698
f 775/101/694 773/100/693 772/102/695
f 775/101/694 772/102/695 768/79/699
f 779/77/700 780/99/701 782/100/702
f 779/77/700 782/100/702 784/101/703
f 781/102/704 782/100/702 783/103/705
f 781/102/704 783/103/705 776/71/706
f 783/103/705 782/100/702 780/99/701
f 783/103/705 780/99/701 778/78/707
f 784/101/703 782/100/702 781/102/704
f 784/101/703 781/102/704 777/79/708
f 788/77/709 789/99/710 791/100/711
f 788/77/709 791/100/711 793/101/712
f 790/102/713 791/100/711 792/103/714
f 790/102/713 792/103/714 785/71/715
f 792/103/714 791/100/711 789/99/710
f 792/103/714 789/99/710 787/78/716
f 793/101/712 791/100/711 790/102/713
f 793/101/712 790/102/713 786/79/717
f 797/77/718 798/99/719 800/100/720
f 797/77/718 800/100/720 802/101/721
f 799/102/722 800/100/720 801/103/723
f 799/102/722 801/103/723 794/71/724
f 801/103/723 800/100/720 798/99/719
f 801/103/723 798/99/719 796/78/725
f 802/101/721 800/100/720 799/102/722
f 802/101/721 799/102/722 795/79/726
f 806/77/727 807/99/728 809/100/729
f 806/77/727 809/100/729 811/101/730
f 808/102/731 809/100/729 810/103/732
f 808/102/731 810/103/732 803/71/733
f 810/103/732 809/100/729 807/99/728
f 810/103/732 807/99/728 805/78/734
f 811/101/730 809/100/729 808/102/731
f 811/101/730 808/102/731 804/79/735
