# Blender 5.1.0
# www.blender.org
mtllib Clover-03.mtl
o Clover-03
v 5.909648 0.006658 20.739605
v 5.909648 0.006658 20.739605
v 5.909648 0.006658 19.131023
v 5.909648 0.006658 19.131023
v 4.301068 0.006658 20.739605
v 4.301068 0.006658 20.739605
v 4.301068 0.006658 19.131023
v 4.301068 0.006658 19.131023
v 4.301068 0.006658 20.735872
v 4.301068 0.006658 20.735872
v 4.963002 0.075459 19.858610
v 4.963002 0.075459 19.858610
v 4.963002 0.075459 19.858610
v 4.963002 0.075459 19.858610
v 4.963002 0.075459 19.858610
vn 0.0725 0.9974 -0.0000
vn -0.1034 0.9946 -0.0000
vn -0.0002 0.9970 0.0777
vn -0.0000 0.9970 0.0779
vn -0.0000 0.9956 -0.0941
vt 0.000000 0.000000
vt 1.000000 0.000000
vt 0.547684 0.588498
vt 0.002320 1.000000
vt 1.000000 1.000000
vt 0.000000 1.000000
s 0
usemtl clover-03
f 2/1/1 4/2/1 15/3/1
f 9/4/2 11/3/2 7/5/2
s 1
f 13/3/3 10/4/3 6/6/3
s 0
f 12/3/4 5/6/4 1/1/4
f 8/5/5 14/3/5 3/2/5
