# Blender 5.1.0
# www.blender.org
mtllib Bush-03.mtl
o Bush-03
v 4.733960 -0.100018 7.244464
v 5.496358 -0.100018 7.917565
v 4.733960 0.833037 7.244464
v 5.496358 0.833037 7.917565
v 5.052800 -0.100018 7.651646
v 5.052800 -0.100018 7.651646
v 5.052800 0.833037 7.651646
v 5.052800 0.833037 7.651646
v 5.604409 -0.100018 7.418039
v 4.706368 -0.100018 7.895363
v 5.604409 0.843622 7.418039
v 4.706368 0.843622 7.895363
v 5.212414 -0.100018 7.763988
v 5.212414 -0.100018 7.763988
v 5.212414 0.843622 7.763988
v 5.212414 0.843622 7.763988
v 5.178498 -0.079619 7.054972
v 5.072738 -0.079619 8.066470
v 5.178498 0.663144 7.054972
v 5.072738 0.663144 8.066470
v 5.580550 -0.079619 7.787911
v 4.670686 -0.079619 7.333531
v 5.580550 0.671570 7.787911
v 4.670686 0.671570 7.333531
v 4.659852 -0.100018 7.536622
v 5.670135 -0.100018 7.419823
v 4.576042 0.865523 7.546311
v 5.670135 0.916995 7.419823
v 5.151877 -0.100018 7.364769
v 5.151877 -0.100018 7.364769
v 5.109972 0.891259 7.369614
v 5.109972 0.891259 7.369614
v 4.986083 -0.079619 7.096947
v 5.576251 -0.079619 7.925208
v 4.937125 0.689004 7.028237
v 5.576251 0.729979 7.925208
v 5.374998 -0.079619 7.444219
v 5.374998 -0.079619 7.444219
v 5.350519 0.709491 7.409864
v 5.350519 0.709491 7.409864
v 5.140781 -0.100018 7.067330
v 5.271792 -0.100018 8.075869
v 5.140781 0.916995 7.067330
v 5.271792 0.916995 8.075869
v 5.509109 -0.079619 7.229939
v 4.763774 -0.079619 7.921886
v 5.509109 0.729979 7.229939
v 4.763774 0.729979 7.921886
v 4.672045 0.033935 7.207335
v 4.693312 0.206739 8.022918
v 5.036401 0.212480 7.160005
v 5.095287 0.403718 7.970701
v 5.229288 0.380024 7.502962
v 5.229288 0.380024 7.502962
v 4.681838 0.030859 7.582893
v 4.681838 0.030859 7.582893
v 5.642859 0.786377 7.351808
v 4.850452 0.786377 7.091847
v 5.556828 0.485205 7.614043
v 4.755539 0.454110 7.381158
v 5.157194 0.333672 7.629080
v 5.157194 0.333672 7.629080
v 5.299998 0.786377 7.091101
v 5.299998 0.786377 7.091101
v 5.064649 0.116829 8.189528
v 5.742826 0.246612 7.721853
v 4.830163 0.269343 7.891821
v 5.484130 0.414874 7.393409
v 5.017161 0.404444 7.531717
v 5.017161 0.404444 7.531717
v 5.453528 0.085666 7.988249
v 5.453528 0.085666 7.988249
v 4.675507 0.739162 7.159359
v 4.782937 0.739162 7.986369
v 4.989134 0.480606 7.118618
v 5.128946 0.453910 7.941422
v 5.195245 0.350515 7.470030
v 5.195245 0.350515 7.470030
v 4.621516 0.722730 7.600475
v 4.621516 0.722730 7.600475
v 5.665798 0.073851 7.341702
v 4.953505 0.262199 6.969128
v 5.560486 0.269113 7.662711
v 4.824965 0.476925 7.326422
v 5.181622 0.467447 7.658090
v 5.181622 0.467447 7.658090
v 5.344054 0.056621 7.091388
v 5.344054 0.056621 7.091388
v 5.079799 0.729501 8.158811
v 5.734942 0.729501 7.642791
v 4.897346 0.446790 7.927166
v 5.533651 0.417601 7.387230
v 5.100167 0.304546 7.578560
v 5.100167 0.304546 7.578560
v 5.442141 0.662343 8.022445
v 5.442141 0.662343 8.022445
v 5.214995 -0.100018 7.067793
v 4.820771 -0.100018 8.005291
v 5.214995 0.812584 7.067793
v 4.820771 0.812584 8.005291
v 4.905728 -0.100018 7.489380
v 4.905728 -0.100018 7.489380
v 4.905728 0.812584 7.489380
v 4.905728 0.812584 7.489380
v 5.634322 -0.079619 7.490179
v 4.642052 -0.079619 7.713146
v 5.634322 0.729979 7.490179
v 4.642052 0.729979 7.713146
vn -0.5142 -0.0000 0.8577
vn -0.7873 -0.0000 0.6165
vn -0.2513 -0.0000 -0.9679
vn -0.6617 -0.0000 -0.7498
vn -0.9946 -0.0000 -0.1040
vn 0.4468 -0.0000 -0.8946
vn -0.0970 -0.0044 0.9953
vn -0.0971 -0.0044 0.9953
vn 0.3214 0.0136 0.9469
vn 0.3213 0.0136 0.9469
vn -0.9191 -0.0056 0.3940
vn -0.6726 0.0172 0.7398
vn -0.6726 0.0173 0.7398
vn -0.9917 -0.0000 0.1288
vn -0.6804 -0.0000 -0.7329
vn 0.5059 -0.8609 0.0544
vn 0.5058 -0.8609 0.0544
vn 0.5087 -0.8239 0.2498
vn 0.3442 -0.7305 -0.5898
vn 0.3443 -0.7305 -0.5898
vn 0.0910 -0.7353 -0.6716
vn 0.0910 -0.7354 -0.6715
vn 0.0909 -0.7353 -0.6716
vn -0.2070 -0.9018 -0.3794
vn -0.2070 -0.9018 -0.3793
vn -0.0623 -0.8719 -0.4857
vn -0.0624 -0.8719 -0.4857
vn -0.5838 -0.8110 -0.0379
vn -0.5502 -0.8164 0.1752
vn -0.3723 -0.8150 0.4441
vn -0.3723 -0.8149 0.4441
vn -0.3722 -0.8150 0.4441
vn -0.4659 -0.7939 0.3908
vn 0.2089 -0.7855 0.5826
vn 0.2089 -0.7854 0.5827
vn 0.4895 -0.7877 0.3740
vn 0.4896 -0.7877 0.3740
vn -0.9867 -0.0000 -0.1625
vn -0.8063 -0.0000 -0.5915
vn -0.2192 -0.0000 -0.9757
vt 0.500000 0.000000
vt 1.000000 0.000000
vt 1.000000 1.000000
vt 0.500000 1.000000
vt 0.000000 0.000000
vt 0.000000 1.000000
vt 0.000000 0.510166
vt 0.449704 0.263710
vt 0.460477 1.000000
vt 1.000000 0.459592
vt 0.470851 1.000000
vt 0.473875 1.000000
vt 0.506543 1.000000
vt 0.490245 1.000000
vt 0.517017 1.000000
s 0
usemtl shrubbery-2-01
f 6/1/1 2/2/1 4/3/1
f 6/1/1 4/3/1 8/4/1
f 1/5/2 5/1/2 7/4/2
f 1/5/2 7/4/2 3/6/2
f 14/1/3 10/2/3 12/3/3
f 14/1/3 12/3/3 16/4/3
f 9/5/4 13/1/4 15/4/4
f 9/5/4 15/4/4 11/6/4
f 17/5/5 18/2/5 20/3/5
f 17/5/5 20/3/5 19/6/5
f 21/5/6 22/2/6 24/3/6
f 21/5/6 24/3/6 23/6/6
s 1
usemtl shrubbery-2-02
f 29/1/7 26/2/8 28/3/8
f 29/1/7 28/3/8 31/4/7
f 25/5/9 30/1/10 32/4/10
f 25/5/9 32/4/10 27/6/10
f 37/1/11 34/2/11 36/3/11
f 37/1/11 36/3/11 39/4/11
f 33/5/12 38/1/12 40/4/12
f 33/5/12 40/4/12 35/6/13
s 0
usemtl shrubbery-2-03
f 41/5/14 42/2/14 44/3/14
f 41/5/14 44/3/14 43/6/14
f 45/5/15 46/2/15 48/3/15
f 45/5/15 48/3/15 47/6/15
s 1
f 51/7/16 53/8/17 55/9/17
f 51/7/16 55/9/17 49/6/17
f 56/9/18 54/8/18 52/10/18
f 56/9/18 52/10/18 50/3/18
f 59/7/19 62/8/19 64/11/19
f 59/7/19 64/11/19 57/6/20
f 63/11/21 61/8/22 60/10/21
f 63/11/21 60/10/21 58/3/23
f 67/7/24 69/8/24 71/12/25
f 67/7/24 71/12/25 65/6/25
f 72/12/26 70/8/27 68/10/27
f 72/12/26 68/10/27 66/3/27
f 75/7/28 77/8/28 79/13/28
f 75/7/28 79/13/28 73/6/28
f 80/13/29 78/8/29 76/10/29
f 80/13/29 76/10/29 74/3/29
f 83/7/30 86/8/31 88/14/30
f 83/7/30 88/14/30 81/6/32
f 87/14/33 85/8/33 84/10/33
f 87/14/33 84/10/33 82/3/33
f 91/7/34 93/8/34 95/15/34
f 91/7/34 95/15/34 89/6/35
f 96/15/36 94/8/36 92/10/36
f 96/15/36 92/10/36 90/3/37
s 0
usemtl shrubbery-2-04
f 101/1/38 98/2/38 100/3/38
f 101/1/38 100/3/38 103/4/38
f 97/5/39 102/1/39 104/4/39
f 97/5/39 104/4/39 99/6/39
f 105/5/40 106/2/40 108/3/40
f 105/5/40 108/3/40 107/6/40
