# Blender 5.1.0
# www.blender.org
mtllib Tree-03-1.mtl
o Tree-03-1
v 22.439816 7.774348 3.587112
v 22.439816 7.774348 3.587112
v 22.439816 7.774348 3.587112
v 22.439081 7.772247 3.594974
v 22.439081 7.772247 3.594974
v 22.439081 7.772247 3.594974
v 22.431797 7.770146 3.598026
v 22.431797 7.770146 3.598026
v 22.431797 7.770146 3.598026
v 22.431850 7.772247 3.589763
v 22.431850 7.772247 3.589763
v 22.431850 7.772247 3.589763
v 22.431850 7.772247 3.589763
v 22.582607 6.871299 3.398429
v 22.582607 6.871299 3.398429
v 22.581278 6.867086 3.412841
v 22.581278 6.867086 3.412841
v 22.567705 6.864978 3.418855
v 22.567705 6.864978 3.418855
v 22.555462 6.867083 3.410458
v 22.555462 6.867083 3.410458
v 22.556791 6.871297 3.396046
v 22.556791 6.871297 3.396046
v 22.525293 6.454446 3.271445
v 22.525293 6.454446 3.271445
v 22.525293 6.454446 3.271445
v 22.539555 6.445414 3.301178
v 22.539555 6.445414 3.301178
v 22.521971 6.446319 3.309838
v 22.521971 6.446319 3.309838
v 22.507710 6.455351 3.280105
v 22.507710 6.455351 3.280105
v 22.507710 6.455351 3.280105
v 22.507710 6.455351 3.280105
v 22.463011 6.060816 3.226425
v 22.463011 6.060816 3.226425
v 22.483089 6.058008 3.240284
v 22.483089 6.058008 3.240284
v 22.480949 6.051670 3.264035
v 22.480949 6.051670 3.264035
v 22.438654 6.050949 3.260066
v 22.438654 6.050949 3.260066
v 22.438654 6.050949 3.260066
v 22.438654 6.050949 3.260066
v 22.440794 6.057286 3.236315
v 22.440794 6.057286 3.236315
v 22.587296 5.552430 3.045511
v 22.587296 5.552430 3.045511
v 22.613073 5.554444 3.064989
v 22.613073 5.554444 3.064989
v 22.610252 5.546070 3.096318
v 22.610252 5.546070 3.096318
v 22.581654 5.535681 3.108171
v 22.581654 5.535681 3.108171
v 22.567539 5.533667 3.071021
v 22.567539 5.533667 3.071021
v 22.567539 5.533667 3.071021
v 22.965534 3.853675 2.933056
v 22.965534 3.853675 2.933056
v 22.957594 3.847908 2.993562
v 22.957594 3.847908 2.993562
v 22.903734 3.827193 3.015869
v 22.903734 3.827193 3.015869
v 22.859777 3.812245 2.945033
v 22.859777 3.812245 2.945033
v 22.865759 3.818013 2.917164
v 22.865759 3.818013 2.917164
v 22.865759 3.818013 2.917164
v 23.135075 3.326763 2.883842
v 23.135075 3.326763 2.883842
v 23.188889 3.339119 2.927281
v 23.188889 3.339119 2.927281
v 23.188889 3.339119 2.927281
v 23.188889 3.339119 2.927281
v 23.117840 3.310145 3.022080
v 23.117840 3.310145 3.022080
v 23.064026 3.297789 2.978641
v 23.064026 3.297789 2.978641
v 23.072643 3.306098 2.909522
v 23.072643 3.306098 2.909522
v 23.245171 2.057243 2.703645
v 23.245171 2.057243 2.703645
v 23.315586 2.059132 2.757862
v 23.315586 2.059132 2.757862
v 23.304184 2.051604 2.845748
v 23.304184 2.051604 2.845748
v 23.222366 2.042187 2.879418
v 23.222366 2.042187 2.879418
v 23.151947 2.040298 2.825203
v 23.151947 2.040298 2.825203
v 23.151947 2.040298 2.825203
v 23.151947 2.040298 2.825203
v 23.279167 1.448845 2.699225
v 23.279167 1.448845 2.699225
v 23.348270 1.437873 2.795262
v 23.348270 1.437873 2.795262
v 23.348270 1.437873 2.795262
v 23.348270 1.437873 2.795262
v 23.254826 1.429338 2.888109
v 23.254826 1.429338 2.888109
v 23.178875 1.430558 2.830005
v 23.178875 1.430558 2.830005
v 23.191046 1.440311 2.735563
v 23.191046 1.440311 2.735563
v 23.336939 0.000000 2.459041
v 23.336939 0.000000 2.459041
v 23.406509 0.000000 2.621643
v 23.406509 0.000000 2.621643
v 23.311535 0.000000 2.660494
v 23.311535 0.000000 2.660494
v 23.311535 0.000000 2.660494
v 23.311535 0.000000 2.660494
v 23.229261 0.000000 2.598619
v 23.229261 0.000000 2.598619
v 23.241964 0.000000 2.497892
v 23.241964 0.000000 2.497892
v 23.832109 7.629898 2.000384
v 23.832109 7.629898 2.000384
v 23.832109 7.629898 2.000384
v 23.822311 7.630558 1.992674
v 23.822311 7.630558 1.992674
v 23.822311 7.630558 1.992674
v 23.822311 7.630558 1.992674
v 23.829020 7.629661 1.985354
v 23.829020 7.629661 1.985354
v 23.829020 7.629661 1.985354
v 23.837420 7.628673 1.992904
v 23.837420 7.628673 1.992904
v 23.837420 7.628673 1.992904
v 23.837420 7.628673 1.992904
v 23.825726 6.835652 2.106691
v 23.825726 6.835652 2.106691
v 23.810514 6.834081 2.097304
v 23.810514 6.834081 2.097304
v 23.812544 6.823516 2.080037
v 23.812544 6.823516 2.080037
v 23.812544 6.823516 2.080037
v 23.829632 6.826313 2.083780
v 23.829632 6.826313 2.083780
v 23.833559 6.829929 2.091721
v 23.833559 6.829929 2.091721
v 23.892397 6.388577 2.384211
v 23.892397 6.388577 2.384211
v 23.892397 6.388577 2.384211
v 23.871584 6.384798 2.383337
v 23.871584 6.384798 2.383337
v 23.871584 6.384798 2.383337
v 23.874731 6.373565 2.348361
v 23.874731 6.373565 2.348361
v 23.874731 6.373565 2.348361
v 23.874731 6.373565 2.348361
v 23.895542 6.377344 2.349235
v 23.895542 6.377344 2.349235
v 23.895542 6.377344 2.349235
v 23.895964 6.384851 2.375201
v 23.895964 6.384851 2.375201
v 23.945084 6.019336 2.386266
v 23.945084 6.019336 2.386266
v 23.909790 6.020934 2.372527
v 23.909790 6.020934 2.372527
v 23.909790 6.020934 2.372527
v 23.909790 6.020934 2.372527
v 23.920383 6.020168 2.343300
v 23.920383 6.020168 2.343300
v 23.946028 6.018937 2.345172
v 23.946028 6.018937 2.345172
v 23.954956 6.018731 2.371703
v 23.784119 5.258598 2.410038
v 23.784119 5.258598 2.410038
v 23.784119 5.258598 2.410038
v 23.739443 5.271403 2.396821
v 23.739443 5.271403 2.396821
v 23.733232 5.274770 2.383193
v 23.733232 5.274770 2.383193
v 23.753832 5.275016 2.343581
v 23.753832 5.275016 2.343581
v 23.803852 5.264011 2.357510
v 23.803852 5.264011 2.357510
v 23.452524 4.242882 2.217241
v 23.452524 4.242882 2.217241
v 23.452524 4.242882 2.217241
v 23.452524 4.242882 2.217241
v 23.452524 4.242882 2.217241
v 23.452524 4.242882 2.217241
v 23.430389 4.254615 2.168752
v 23.430389 4.254615 2.168752
v 23.430389 4.254615 2.168752
v 23.430389 4.254615 2.168752
v 23.430389 4.254615 2.168752
v 23.430389 4.254615 2.168752
v 23.537043 4.233149 2.176722
v 23.537043 4.233149 2.176722
v 23.492781 3.632289 2.173521
v 23.492781 3.632289 2.173521
v 23.421999 3.633276 2.188574
v 23.421999 3.633276 2.188574
v 23.394369 3.631345 2.130274
v 23.394369 3.631345 2.130274
v 23.417673 3.628427 2.104553
v 23.417673 3.628427 2.104553
v 23.495375 3.627440 2.082513
v 23.495375 3.627440 2.082513
v 23.523005 3.629371 2.140813
v 23.523005 3.629371 2.140813
v 23.423058 2.700083 2.323146
v 23.423058 2.700083 2.323146
v 23.388836 2.689263 2.251962
v 23.388836 2.689263 2.251962
v 23.388836 2.689263 2.251962
v 23.513258 2.676668 2.193719
v 23.513258 2.676668 2.193719
v 23.547482 2.687489 2.264903
v 23.547482 2.687489 2.264903
v 23.547482 2.687489 2.264903
v 23.547482 2.687489 2.264903
v 23.448101 1.495382 2.511143
v 23.448101 1.495382 2.511143
v 23.353441 1.497099 2.503335
v 23.353441 1.497099 2.503335
v 23.312620 1.485367 2.418220
v 23.312620 1.485367 2.418220
v 23.356211 1.471917 2.372549
v 23.461124 1.470200 2.348721
v 23.461124 1.470200 2.348721
v 23.501944 1.481933 2.433836
v 23.501944 1.481933 2.433836
v 23.464285 0.000000 2.709625
v 23.464285 0.000000 2.709625
v 23.361702 0.000000 2.701516
v 23.361702 0.000000 2.701516
v 23.419209 0.000000 2.520918
v 23.419209 0.000000 2.520918
v 23.419209 0.000000 2.520918
v 23.419209 0.000000 2.520918
v 23.465395 0.000000 2.508155
v 23.465395 0.000000 2.508155
v 23.553965 0.000000 2.608311
v 23.553965 0.000000 2.608311
v 22.582012 7.866108 1.999162
v 22.582012 7.866108 1.999162
v 22.582012 7.866108 1.999162
v 22.582012 7.866108 1.999162
v 22.578487 7.864352 2.012646
v 22.578487 7.864352 2.012646
v 22.578487 7.864352 2.012646
v 22.578487 7.864352 2.012646
v 22.568800 7.862596 2.002626
v 22.568800 7.862596 2.002626
v 22.568800 7.862596 2.002626
v 22.568800 7.862596 2.002626
v 22.574377 7.864352 1.996979
v 22.574377 7.864352 1.996979
v 22.574377 7.864352 1.996979
v 22.574377 7.864352 1.996979
v 22.847672 6.618752 1.935747
v 22.847672 6.618752 1.935747
v 22.848635 6.621303 1.942693
v 22.848635 6.621303 1.942693
v 22.833288 6.614903 1.956943
v 22.833288 6.614903 1.956943
v 22.824142 6.610992 1.954184
v 22.824142 6.610992 1.954184
v 22.815737 6.607233 1.932768
v 22.815737 6.607233 1.932768
v 22.828226 6.611716 1.919986
v 22.828226 6.611716 1.919986
v 23.293900 5.720130 2.051798
v 23.293900 5.720130 2.051798
v 23.299927 5.726188 2.081270
v 23.299927 5.726188 2.081270
v 23.278378 5.720916 2.102432
v 23.278378 5.720916 2.102432
v 23.250801 5.709588 2.094122
v 23.250801 5.709588 2.094122
v 23.244774 5.703530 2.064651
v 23.244774 5.703530 2.064651
v 23.266323 5.708802 2.043489
v 23.266323 5.708802 2.043489
v 23.514902 4.244881 2.128236
v 23.514902 4.244881 2.128236
v 23.514902 4.244881 2.128236
v 23.514902 4.244881 2.128236
v 23.514902 4.244881 2.128236
v 23.534939 4.254115 2.188367
v 23.534939 4.254115 2.188367
v 23.505850 4.232149 2.221226
v 23.505850 4.232149 2.221226
v 23.505850 4.232149 2.221226
v 23.505850 4.232149 2.221226
v 23.505850 4.232149 2.221226
v 23.461580 4.255614 2.124250
v 23.461580 4.255614 2.124250
v 23.461580 4.255614 2.124250
v 23.461580 4.255614 2.124250
v 23.461580 4.255614 2.124250
v 23.461580 4.255614 2.124250
v 21.739508 1.706576 2.101339
v 21.271341 2.825899 3.409498
v 23.381062 2.220736 2.326838
v 22.912895 3.340059 3.634997
v 21.493347 2.368533 2.622491
v 23.138863 2.833015 2.928191
v 22.399920 2.899155 2.814300
v 22.042683 3.110582 3.485122
v 22.539326 2.000814 2.180427
v 23.830542 2.153142 0.523072
v 22.162699 3.010814 0.563013
v 24.240376 3.030684 2.132090
v 22.572535 3.888356 2.172031
v 23.097748 2.705823 0.457068
v 23.442759 3.520405 2.113393
v 23.212143 3.436786 1.348648
v 22.375727 3.472586 1.299773
v 24.050980 2.630868 1.287459
v 25.913723 3.009447 1.996846
v 24.647511 3.675192 -0.142699
v 24.230640 4.497024 3.373772
v 22.964430 5.162769 1.234227
v 25.448301 3.532073 0.952891
v 23.666224 4.919511 2.303561
v 24.423679 4.654875 1.521126
v 23.891586 4.445494 0.501883
v 25.129118 3.806608 2.665278
v 25.196474 8.204952 1.932135
v 23.347366 8.677468 2.252231
v 24.794718 6.139319 2.120200
v 22.945610 6.611835 2.440296
v 24.351206 8.445374 2.255782
v 23.895559 6.380136 2.356073
v 23.942472 7.280852 2.541098
v 23.167110 7.702496 2.395137
v 25.009375 7.194082 2.079109
v 21.998060 3.980675 0.364580
v 22.149858 2.960821 2.452015
v 23.310925 5.907423 1.043650
v 23.462723 4.887570 3.131085
v 21.897125 3.607683 1.413502
v 23.307684 5.453670 2.101544
v 22.553007 4.734954 2.085941
v 22.718567 3.909768 2.792129
v 22.588833 4.963689 0.716785
v 25.024662 6.091137 2.182143
v 23.423855 5.908639 3.933632
v 24.167265 3.891596 1.209937
v 22.566458 3.709098 2.961425
v 24.406078 5.880252 3.133066
v 23.440050 3.745190 2.129611
v 23.841320 4.452500 2.838287
v 23.061455 4.826285 3.509617
v 24.647987 4.969906 1.741748
v 23.680325 8.084658 1.995860
v 22.941816 8.536009 4.159903
v 22.783638 5.723958 2.094974
v 22.045130 6.175310 4.259017
v 23.514717 8.223568 3.099939
v 22.502331 5.912938 3.199230
v 23.053637 6.807078 3.451064
v 22.574348 7.392438 4.230748
v 23.298098 6.899630 2.068783
v 21.158382 5.642793 4.249205
v 21.283102 5.897089 1.823845
v 22.950739 3.818665 4.184005
v 23.075457 4.072962 1.758646
v 21.063343 5.589079 3.074162
v 22.942598 3.865432 2.974616
v 22.016596 4.390073 2.758590
v 22.085159 4.977099 1.785722
v 21.990938 4.690230 4.209839
v 24.043497 6.276741 4.329929
v 22.180912 4.862779 5.590498
v 23.773722 4.517745 2.307895
v 21.911135 3.103783 3.568464
v 23.321281 5.449789 5.025495
v 22.926464 3.748482 2.974852
v 23.094770 4.127537 4.036440
v 22.103769 3.979692 4.661492
v 23.962408 5.362304 3.366159
v 24.022606 7.374060 2.087207
v 21.937408 6.733969 3.073380
v 24.435976 4.844949 1.610577
v 22.350779 4.204859 2.596751
v 23.128408 7.050847 2.748982
v 23.448704 4.519846 2.185564
v 23.230429 5.463859 2.727767
v 22.163639 5.528121 2.907745
v 24.256479 6.124080 1.914166
v 23.454611 7.164721 2.582184
v 21.336241 6.806857 3.214289
v 23.802433 4.731028 2.614165
v 21.684065 4.373163 3.246270
v 22.504047 7.013013 3.077518
v 22.780392 4.562385 3.014904
v 22.530573 5.543211 3.322349
v 21.518671 5.657990 3.290493
v 23.643354 5.973558 2.659846
v 26.008465 8.004732 1.614086
v 23.161438 7.605224 5.451685
v 24.748837 3.128717 0.261934
v 21.901812 2.729208 4.099534
v 24.990679 7.643825 3.670504
v 23.492750 2.853795 2.264727
v 24.210854 4.563948 3.465043
v 22.668518 5.238420 4.883266
v 25.495155 5.552226 1.023200
v 22.925806 3.031894 5.212319
v 24.284655 1.766058 4.251816
v 22.376371 3.940892 3.449341
v 23.735220 2.675056 2.488837
v 23.699299 2.573747 4.782004
v 23.106047 3.379870 2.986240
v 23.621397 3.095647 3.652946
v 24.064049 2.242079 3.423541
v 22.696224 3.524407 4.353464
v 26.366741 4.134111 3.640871
v 24.060867 6.171460 4.124658
v 24.652267 2.296297 1.837226
v 22.346392 4.333645 2.321013
v 25.198393 4.938697 4.087856
v 23.479298 3.229657 2.174643
v 23.874535 3.930548 3.243782
v 23.224638 5.248524 3.336924
v 25.500319 3.178418 2.822733
v 23.201483 2.877600 0.161052
v 21.330864 3.210298 1.930813
v 24.697325 4.726401 1.456170
v 22.826706 5.059099 3.225931
v 22.098305 3.269335 0.960803
v 23.685602 4.994797 2.302981
v 23.016979 4.455228 1.422981
v 23.840528 3.772809 0.698046
v 22.008007 4.154965 2.500425
v 25.144281 5.452800 0.802121
v 23.628986 4.276793 -0.131058
v 24.255932 5.066679 2.644995
v 22.740637 3.890671 1.711816
v 24.225918 5.022265 0.278777
v 23.425198 4.549620 2.152496
v 23.766556 5.063758 1.376881
v 24.711979 5.339770 1.621295
v 23.172871 4.155097 0.735769
v 24.714439 2.605908 1.389426
v 23.494934 3.176491 0.456714
v 24.064850 3.448183 2.662710
v 22.845345 4.018767 1.729999
v 24.151779 3.057429 0.850945
v 23.476095 3.808820 2.163492
v 23.960869 3.601641 1.615598
v 24.449846 3.028901 1.948291
v 23.214087 3.622358 1.048343
v 22.278835 6.423859 2.184044
v 23.528475 5.764492 0.192002
v 22.907833 4.100655 3.211344
v 24.157473 3.441287 1.219301
v 22.741974 5.961226 1.023857
v 23.459822 3.710660 2.140555
v 22.825691 4.619102 1.695105
v 22.498812 5.347400 2.615210
v 23.763374 4.626974 0.649158
v 24.446840 3.875426 -0.050406
v 22.244743 2.636490 0.703792
v 24.642012 4.807649 1.779476
v 22.439915 3.568713 2.533673
v 23.165480 3.393166 0.282246
v 23.458839 4.249944 2.136656
v 23.378386 4.168490 1.192919
v 24.501804 4.348441 0.749416
v 22.304037 3.134931 1.550625
v 23.578533 7.192108 0.834823
v 25.182003 7.198766 1.533585
v 23.050007 5.941197 2.057451
v 24.653479 5.947854 2.756214
v 24.481955 7.049700 1.098588
v 23.898148 5.878596 2.368275
v 24.085314 6.226659 1.640119
v 23.356050 6.586098 1.350111
v 24.946135 6.559285 2.079854
v 22.352398 8.071982 0.977088
v 24.152533 7.425570 0.589891
v 22.175161 6.517858 2.287896
v 23.975296 5.871445 1.900700
v 23.244013 7.598430 0.627838
v 23.071856 6.126473 2.023785
v 22.934610 6.674322 1.285010
v 22.251833 7.335187 1.521640
v 24.046894 6.647554 1.167480
v 21.945250 8.308434 1.590082
v 23.196777 8.331757 1.276486
v 22.112230 7.056005 2.179846
v 23.363758 7.079327 1.866250
v 22.585348 8.255610 1.308779
v 22.744793 7.038499 1.966644
v 22.550064 7.495207 1.576326
v 22.011745 7.726439 1.819847
v 23.267418 7.716806 1.520771
v 21.230362 7.689271 3.221205
v 22.182373 7.405930 1.818861
v 22.018450 6.243892 3.996503
v 22.970461 5.960550 2.594158
v 21.615129 7.421489 2.408895
v 22.453417 6.045097 3.244701
v 21.878704 6.537287 2.914369
v 21.546337 7.004972 3.549473
v 22.517954 6.683315 2.166808
v 20.371248 6.662554 2.599663
v 22.315298 7.353038 1.300807
v 21.703133 4.879307 3.813141
v 23.647182 5.569792 2.514285
v 21.348330 6.846332 1.736165
v 22.677933 5.151677 3.066543
v 21.884161 5.633597 2.394139
v 20.950556 5.805842 3.092002
v 22.928757 6.448773 1.823464
v 20.729237 5.468703 2.759001
v 23.038095 5.920767 0.992354
v 22.017605 2.839181 3.889161
v 24.326464 3.291245 2.122514
v 21.827456 5.530459 1.604273
v 23.147184 2.991008 2.882612
v 22.248390 3.865331 2.221836
v 21.266529 4.233811 3.201197
v 23.607904 4.616393 1.462419
v 25.247940 1.971460 3.399913
v 25.958815 3.368268 1.633261
v 23.093395 2.703368 3.009100
v 23.804268 4.100175 1.242448
v 25.663250 2.914895 2.600938
v 23.476095 3.512973 2.163492
v 24.417021 3.367261 2.647470
v 24.292137 2.360577 3.268452
v 24.947342 3.777746 1.492646
v 25.276127 3.494734 1.564071
v 24.849098 5.311135 0.178744
v 23.950003 4.499929 3.057288
v 23.522972 6.316330 1.671961
v 25.224586 4.587468 0.904167
v 23.809656 5.492067 2.379098
v 24.655554 5.097942 1.928131
v 24.734980 3.983674 2.258365
v 24.274746 5.827016 0.912337
v 21.314402 7.392886 3.521630
v 21.003267 6.290154 2.440606
v 22.644590 6.658552 3.755126
v 22.333456 5.555820 2.674102
v 21.080303 6.704887 3.048223
v 22.453417 6.045097 3.244701
v 21.801880 6.305249 3.355547
v 21.890472 7.032841 3.658022
v 21.613392 5.910364 2.583771
v 25.587795 4.316264 4.443679
v 25.617344 3.021912 2.123431
v 23.709263 6.075833 3.612113
v 23.738811 4.781480 1.291865
v 25.791809 3.809969 3.123718
v 23.809656 5.492067 2.379098
v 24.881954 5.060799 2.787710
v 24.802422 5.162239 4.045374
v 24.784515 3.914822 1.702979
v 23.818775 6.826370 2.081185
v 23.818775 6.826370 2.081185
v 23.257008 8.162128 1.385306
v 23.257008 8.162128 1.385306
v 23.429317 7.423649 1.632743
v 23.429317 7.423649 1.632743
v 23.050959 8.277044 1.887090
v 23.129126 7.625881 2.231091
v 23.652016 8.277044 1.223552
v 23.997992 7.496293 1.371008
v 24.043472 6.878357 1.957227
v 23.560617 6.878357 2.490277
v 23.824926 7.607711 1.999805
v 23.824926 7.607711 1.999805
v 24.066216 8.495070 1.660289
v 24.066216 8.495070 1.660289
v 23.897453 8.120106 1.886726
v 23.897453 8.120106 1.886726
v 24.362900 8.401294 1.783756
v 24.282879 8.048651 2.034153
v 23.961678 8.428618 1.425004
v 23.703274 8.011598 1.576706
v 23.746927 7.579741 1.865908
v 24.069248 7.557790 2.154110
v 22.561514 6.726058 3.371847
v 22.561514 6.726058 3.371847
v 21.797089 8.144726 3.205771
v 21.797089 8.144726 3.205771
v 22.026312 7.379890 3.281732
v 22.026312 7.379890 3.281732
v 21.971561 8.240736 3.722572
v 22.198225 7.563350 3.933297
v 22.003614 8.240736 2.827852
v 22.297483 7.427637 2.715315
v 22.657398 6.769492 3.132405
v 22.631649 6.769492 3.851173
v 22.437378 7.770898 3.587457
v 22.437378 7.770898 3.587457
v 22.412971 8.557632 3.565310
v 22.412971 8.557632 3.565310
v 22.375465 8.182836 3.632006
v 22.375465 8.182836 3.632006
v 22.659283 8.532635 3.651779
v 22.683971 8.189543 3.746919
v 22.343016 8.554173 3.368989
v 22.245634 8.148817 3.364874
v 22.381525 7.770981 3.477001
v 22.635597 7.753678 3.704179
v 22.582184 7.815437 1.996017
v 22.582184 7.815437 1.996017
v 22.464397 8.733227 2.029421
v 22.464397 8.733227 2.029421
v 22.445110 8.286111 1.969267
v 22.445110 8.286111 1.969267
v 22.427938 8.669931 2.330473
v 22.385286 8.249362 2.351011
v 22.672108 8.778137 1.905032
v 22.724752 8.315326 1.757590
v 22.694836 7.844036 1.907184
v 22.498684 7.757108 2.248960
v 22.984783 6.259308 1.980329
v 22.984783 6.259308 1.980329
v 22.754988 7.744953 2.939377
v 22.754988 7.744953 2.939377
v 22.855204 6.924594 2.623545
v 22.855204 6.924594 2.623545
v 23.335100 7.871446 2.779798
v 23.583893 7.147934 2.480817
v 22.345406 7.871446 2.701755
v 22.240177 7.003901 2.301394
v 22.723747 6.316533 1.866857
v 23.518812 6.316533 1.929552
v 23.688080 5.114866 2.342562
v 23.688080 5.114866 2.342562
v 23.887001 6.519374 3.120539
v 23.887001 6.519374 3.120539
v 23.755821 5.766850 2.882894
v 23.755821 5.766850 2.882894
v 24.414667 6.431979 2.977738
v 24.435890 5.715929 2.751900
v 23.568531 6.741151 2.894335
v 23.248898 6.007936 2.580500
v 23.479250 5.238858 2.233845
v 24.158989 4.990486 2.300846
v 22.645100 5.365541 3.088969
v 22.645100 5.365541 3.088969
v 23.622700 6.563037 4.307565
v 23.622700 6.563037 4.307565
v 23.298931 5.839609 3.736559
v 23.298931 5.839609 3.736559
v 23.696106 7.011835 3.745453
v 23.454758 6.456431 3.079440
v 23.206608 6.549081 4.674872
v 22.706957 5.696735 4.251672
v 22.419399 5.323812 3.326266
v 22.812635 5.695563 2.579622
v 22.757595 4.687056 3.014158
v 22.757595 4.687056 3.014158
v 22.409592 6.562787 4.873871
v 22.409592 6.562787 4.873871
v 22.462950 5.462051 4.138481
v 22.462950 5.462051 4.138481
v 23.341307 6.524459 4.915573
v 23.624655 5.484673 4.297988
v 21.979998 7.024349 4.436472
v 21.769426 5.985047 3.486428
v 22.459068 4.934122 2.779615
v 23.552668 4.532538 3.164498
v 22.808342 4.453993 3.072742
v 22.808342 4.453993 3.072742
v 24.905649 3.685508 4.600115
v 24.905649 3.685508 4.600115
v 23.880226 4.315013 4.017200
v 23.880226 4.315013 4.017200
v 24.280493 2.923338 4.919804
v 23.182188 3.329983 4.514840
v 25.379581 3.664720 3.976067
v 24.505995 4.446006 3.092376
v 23.106861 4.501327 2.718201
v 22.223913 3.905741 3.476347
v 23.892723 8.637743 2.572740
v 23.174479 8.418327 1.518599
v 24.277721 7.278228 2.543253
v 23.559475 7.058812 1.489113
v 23.381105 8.482408 2.188736
v 23.381105 8.482408 2.188736
v 23.829910 7.141860 2.051992
v 23.308321 7.744192 1.542859
v 24.033335 7.936333 2.597058
v 23.486967 7.785127 2.206107
v 23.827402 6.367097 3.268459
v 22.733059 6.272265 2.588961
v 24.293516 5.227580 2.648629
v 23.199175 5.132747 1.969131
v 23.216360 6.190662 3.095024
v 23.216360 6.190662 3.095024
v 23.687433 5.119195 2.365482
v 22.931789 5.679138 2.337013
v 24.034941 5.750642 3.005003
v 23.389671 5.570095 2.840753
v 22.490993 6.532822 2.775969
v 22.264097 6.449893 1.672615
v 23.407778 5.822163 2.631389
v 23.180883 5.739233 1.528035
v 22.274019 6.331215 2.278388
v 22.274019 6.331215 2.278388
v 23.241272 5.705976 2.073921
v 23.241272 5.705976 2.073921
v 22.673990 6.054706 1.612764
v 22.918530 6.122663 2.713415
v 22.676937 5.909705 2.199741
v 22.676937 5.909705 2.199741
v 22.182966 8.214192 2.527384
v 22.075418 8.221282 1.613343
v 22.785439 7.450427 2.451621
v 22.677891 7.457516 1.537580
v 22.014381 8.113522 2.101581
v 22.014381 8.113522 2.101581
v 22.676775 7.407019 1.983653
v 22.330284 7.818583 1.580784
v 22.449186 7.795770 2.493389
v 22.260431 7.691981 2.052405
v 22.219809 7.251181 4.230351
v 20.910048 6.457246 3.470191
v 23.261438 6.114058 3.412814
v 21.951677 5.320124 2.652653
v 21.564425 6.677714 4.076159
v 21.564425 6.677714 4.076159
v 22.570404 5.615467 3.114074
v 21.406124 5.845929 3.140789
v 22.736441 6.616258 3.885819
v 22.043192 6.019049 3.747274
v 21.853321 0.853274 3.166586
v 22.965065 1.651158 4.934864
v 22.722248 2.653203 1.952029
v 23.833992 3.451086 3.720307
v 22.102236 1.459118 4.112108
v 22.102236 1.459118 4.112108
v 23.169746 3.167630 2.912439
v 23.295979 2.593066 4.377116
v 22.199995 1.832117 2.585218
v 22.431696 2.458377 3.586271
v 21.461868 6.015326 3.766875
v 20.418007 4.196998 2.185491
v 23.635254 4.627669 3.645078
v 22.591393 2.809341 2.063694
v 20.828609 4.896204 3.327432
v 20.828609 4.896204 3.327432
v 23.034327 3.573647 2.969915
v 21.428860 3.447393 2.227424
v 22.515202 5.236855 3.808076
v 21.826912 4.071498 3.373190
v 20.865786 3.230541 4.541838
v 23.045267 1.980388 4.272432
v 21.592577 5.181337 2.973159
v 23.772058 3.931184 2.703753
v 22.056448 2.851568 4.733493
v 22.056448 2.851568 4.733493
v 22.787754 4.633307 2.978710
v 23.442698 2.994914 3.614040
v 21.278416 4.284991 3.853974
v 22.518103 3.886040 4.089472
v 25.417185 7.002743 1.395282
v 24.663778 7.796184 2.946603
v 24.230616 5.413286 1.487912
v 23.477209 6.206727 3.039232
v 23.893047 5.785642 2.365388
v 25.168190 7.302214 2.311158
v 24.715860 6.462955 2.356443
v 24.828222 6.115710 1.482540
v 24.077070 6.912324 3.033620
v 23.016851 6.256124 0.484471
v 24.938143 6.035117 0.724640
v 22.715252 5.387986 2.239871
v 24.636543 5.166978 2.480039
v 23.734083 5.174009 2.324670
v 24.001036 5.928988 0.513425
v 24.001036 5.928988 0.513425
v 23.779306 5.412930 1.278130
v 22.852707 5.721408 1.392715
v 24.774595 5.502213 1.629491
v 23.914715 7.904904 4.093699
v 22.084774 8.320039 4.287698
v 23.493334 6.221721 3.082504
v 21.663395 6.636855 3.276503
v 22.517748 6.388400 3.265898
v 22.965837 7.999388 4.371058
v 22.837303 7.125630 3.984294
v 23.687992 6.964558 3.610763
v 21.858881 7.383055 3.806652
v 21.934376 7.484726 2.751473
v 21.749582 7.484730 1.494688
v 22.959446 6.673432 2.600749
v 22.774652 6.673435 1.343964
v 22.823154 6.617474 1.937426
v 21.755060 7.361032 2.114604
v 22.198895 6.911776 2.099664
v 22.455429 7.009807 2.674858
v 22.268669 7.011465 1.418363
v 24.509560 1.186383 3.301944
v 25.541155 2.150230 1.702974
v 22.900192 2.620409 2.974887
v 23.931787 3.584256 1.375916
v 23.494473 3.207963 2.190028
v 25.142420 1.849083 2.622239
v 24.399248 2.576035 2.610811
v 23.681080 2.008135 3.175011
v 24.715778 2.969084 1.576606
v 23.031559 5.730319 4.662024
v 24.464630 4.059732 4.079829
v 23.049089 6.602706 2.645467
v 24.482161 4.932121 2.063273
v 23.893047 5.785642 2.365388
v 23.951378 5.026685 4.427124
v 24.001440 5.589599 3.536962
v 23.100016 6.249657 3.604372
v 24.532959 4.577277 3.026097
vn -0.0205 0.2044 -0.9787
vn -0.0754 0.2490 -0.9656
vn -0.0762 0.2497 -0.9653
vn 0.9834 0.1288 0.1276
vn 0.9948 0.0476 -0.0902
vn 0.9955 0.0520 -0.0787
vn 0.9834 0.1288 0.1277
vn 0.4156 -0.1162 0.9021
vn 0.4185 -0.1956 0.8869
vn 0.4185 -0.1932 0.8874
vn -0.8127 -0.2231 0.5383
vn -0.8230 -0.1458 0.5490
vn -0.8232 -0.1440 0.5492
vn -0.9862 -0.1103 -0.1232
vn -0.9959 0.0076 -0.0897
vn -0.9960 0.0133 -0.0880
vn -0.2824 0.2340 -0.9303
vn -0.2817 0.2343 -0.9305
vn 0.9610 -0.0673 -0.2681
vn 0.9608 -0.0650 -0.2695
vn 0.2516 -0.2004 0.9468
vn 0.2513 -0.2003 0.9470
vn -0.8635 0.0302 0.5035
vn -0.8593 0.0320 0.5104
vn -0.9899 0.1315 -0.0529
vn -0.5519 0.1291 -0.8239
vn -0.5558 0.1277 -0.8215
vn 0.5685 0.0041 -0.8227
vn 0.5676 0.2109 -0.7959
vn 0.5681 0.2029 -0.7976
vn 0.9972 0.0567 -0.0481
vn 0.9971 0.0469 -0.0606
vn 0.1125 -0.1923 0.9749
vn 0.1125 -0.1922 0.9749
vn -0.9968 -0.0142 -0.0788
vn -0.8635 0.0303 0.5035
vn -0.9958 -0.0053 -0.0912
vn -0.7107 0.0190 -0.7033
vn -0.7272 -0.0073 -0.6864
vn 0.4022 0.2645 -0.8765
vn 0.3991 0.2617 -0.8787
vn 0.9704 0.1954 0.1421
vn 0.9703 0.1957 0.1420
vn 0.2694 -0.1170 0.9559
vn 0.2623 -0.1257 0.9568
vn -0.8711 -0.3448 0.3497
vn -0.8661 -0.2564 0.4291
vn -0.8678 -0.2719 0.4159
vn -0.9717 -0.1914 -0.1386
vn -0.9425 -0.2522 -0.2191
vn 0.2695 0.1501 -0.9512
vn 0.2709 0.1515 -0.9506
vn 0.9451 0.2900 0.1504
vn 0.9445 0.2921 0.1506
vn 0.5103 0.1289 0.8503
vn 0.5037 0.1234 0.8550
vn -0.7819 -0.2242 0.5817
vn -0.7855 -0.2224 0.5776
vn -0.9395 -0.2683 -0.2130
vn -0.3420 -0.1243 -0.9314
vn -0.5302 -0.0507 -0.8464
vn -0.5362 -0.0481 -0.8427
vn 0.4548 0.1766 -0.8729
vn 0.4578 0.1764 -0.8714
vn 0.9067 0.3918 0.1563
vn 0.6363 0.1031 0.7645
vn 0.6358 0.1078 0.7643
vn -0.6550 -0.1990 0.7290
vn -0.6563 -0.2006 0.7273
vn -0.9619 -0.2191 -0.1634
vn -0.9647 -0.2081 -0.1613
vn -0.6744 0.0214 -0.7381
vn -0.6744 0.0214 -0.7380
vn 0.6705 0.0922 -0.7362
vn 0.6703 0.0925 -0.7363
vn 0.9876 0.0799 0.1350
vn 0.9885 0.0700 0.1342
vn 0.9885 0.0703 0.1343
vn 0.6148 -0.0012 0.7887
vn 0.6154 -0.0014 0.7882
vn -0.6067 -0.0793 0.7910
vn -0.6065 -0.0795 0.7911
vn -0.9901 -0.0534 -0.1299
vn -0.5286 0.0785 -0.8452
vn -0.5290 0.0783 -0.8450
vn 0.7273 0.0905 -0.6803
vn 0.7278 0.0854 -0.6804
vn 0.9892 0.0601 0.1335
vn 0.5799 -0.0405 0.8137
vn 0.5796 -0.0426 0.8138
vn -0.6047 -0.0850 0.7919
vn -0.6047 -0.0852 0.7919
vn -0.9902 -0.0448 -0.1322
vn -0.9911 -0.0289 -0.1298
vn -0.9911 -0.0293 -0.1295
vn -0.3817 0.1368 -0.9141
vn 0.7187 0.1529 -0.6783
vn 0.7187 0.1530 -0.6783
vn 0.9918 0.0251 0.1250
vn 0.5732 -0.0910 0.8144
vn -0.5982 -0.1488 0.7874
vn -0.9918 -0.0142 -0.1271
vn 0.8692 0.0576 0.4911
vn 0.8953 0.1876 0.4040
vn 0.8962 0.1952 0.3985
vn -0.5635 0.1149 0.8181
vn -0.4585 0.2843 0.8420
vn -0.4346 0.3178 0.8427
vn -0.9932 -0.0006 -0.1164
vn -0.9935 -0.0915 -0.0679
vn -0.9944 -0.0695 -0.0797
vn -0.7396 -0.0636 -0.6700
vn 0.4092 -0.1107 -0.9057
vn 0.3075 -0.3006 -0.9028
vn 0.3032 -0.3077 -0.9019
vn 0.9049 -0.0566 -0.4218
vn 0.9569 -0.0033 -0.2905
vn 0.9602 0.0012 -0.2791
vn 0.8938 0.2382 0.3801
vn 0.8911 0.2194 0.3973
vn -0.3055 0.4752 0.8251
vn -0.9903 -0.1287 -0.0517
vn -0.9905 -0.1302 -0.0442
vn 0.1878 -0.4816 -0.8560
vn 0.1878 -0.4816 -0.8561
vn 0.9804 0.1011 -0.1690
vn 0.9803 0.1015 -0.1692
vn 0.8530 -0.0118 0.5217
vn 0.9690 -0.0205 0.2461
vn -0.2502 -0.0426 0.9673
vn -0.2773 0.0276 0.9604
vn -0.2774 0.0279 0.9604
vn -0.9290 0.0429 -0.3676
vn -0.9903 -0.1287 -0.0519
vn -0.9255 0.0453 -0.3761
vn -0.9290 0.0430 -0.3676
vn 0.0579 0.0206 -0.9981
vn 0.1289 -0.0147 -0.9916
vn 0.1276 -0.0141 -0.9917
vn 0.0578 0.0206 -0.9981
vn 0.9990 -0.0247 -0.0386
vn 0.9751 -0.2204 0.0261
vn -0.2531 -0.0108 0.9674
vn -0.2520 -0.0131 0.9676
vn -0.8685 0.2119 0.4481
vn -0.8747 0.1905 0.4456
vn -0.8750 0.1894 0.4455
vn -0.8518 0.2703 -0.4487
vn -0.8498 0.2734 -0.4506
vn 0.1995 0.0511 -0.9786
vn 0.1996 0.0574 -0.9782
vn 0.9753 -0.2183 0.0322
vn 0.7815 -0.3113 0.5407
vn 0.7878 -0.1882 0.5865
vn 0.7878 -0.1859 0.5872
vn -0.1994 -0.1195 0.9726
vn -0.8807 0.1684 0.4428
vn -0.8035 0.3386 -0.4897
vn 0.2004 0.1557 -0.9673
vn 0.9602 -0.1184 -0.2530
vn 0.9614 -0.1228 -0.2464
vn 0.5228 0.0262 0.8520
vn 0.7602 0.0256 0.6492
vn 0.0824 -0.0658 0.9944
vn 0.2244 0.0298 0.9740
vn 0.5227 0.0262 0.8521
vn -0.9052 0.0258 0.4242
vn -0.9042 0.0432 0.4250
vn -0.9042 0.0431 0.4249
vn -0.7865 0.0788 -0.6125
vn -0.5346 -0.0200 -0.8449
vn -0.7682 0.0005 -0.6402
vn -0.1310 0.0587 -0.9896
vn -0.2554 -0.0329 -0.9663
vn -0.5344 -0.0200 -0.8450
vn -0.1311 0.0587 -0.9896
vn 0.9050 -0.0149 -0.4252
vn 0.9049 -0.0150 -0.4253
vn 0.3013 0.1387 0.9434
vn 0.2946 0.1386 0.9455
vn -0.9029 0.0879 0.4207
vn -0.9029 0.0871 0.4209
vn -0.3689 -0.1081 -0.9232
vn -0.3569 -0.1088 -0.9278
vn -0.3689 -0.1082 -0.9231
vn 0.9033 -0.0627 -0.4244
vn 0.9033 -0.0636 -0.4242
vn 0.8235 0.0481 0.5652
vn 0.8020 0.0721 0.5930
vn 0.8017 0.0723 0.5933
vn 0.0776 0.1443 0.9865
vn -0.8606 0.0994 0.4995
vn -0.8609 0.0995 0.4989
vn -0.5473 -0.0915 -0.8319
vn -0.7515 -0.0722 -0.6557
vn -0.2893 -0.1005 -0.9519
vn 0.8652 -0.0713 -0.4964
vn 0.8643 -0.0708 -0.4980
vn 0.7795 0.0955 0.6191
vn 0.7795 0.0954 0.6191
vn -0.0781 0.1304 0.9884
vn -0.0787 0.1304 0.9883
vn -0.8118 0.0834 0.5780
vn -0.8118 0.0834 0.5779
vn -0.7743 -0.0988 -0.6251
vn -0.2352 -0.1065 -0.9661
vn -0.2352 -0.1064 -0.9661
vn 0.8203 -0.0488 -0.5698
vn 0.5106 0.1536 -0.8460
vn 0.4690 0.1215 -0.8748
vn 0.4693 0.1218 -0.8746
vn 0.5107 0.1536 -0.8459
vn 0.9538 0.2139 -0.2108
vn 0.9259 0.2962 -0.2345
vn 0.9138 0.3256 -0.2429
vn 0.7988 0.1407 0.5849
vn 0.6885 0.2812 0.6685
vn 0.7001 0.2684 0.6617
vn -0.5261 -0.1422 0.8384
vn -0.4085 -0.0633 0.9106
vn -0.4178 -0.0694 0.9059
vn -0.5262 -0.1422 0.8384
vn -0.9000 -0.1986 0.3881
vn -0.8908 -0.2840 0.3547
vn -0.8908 -0.2841 0.3547
vn -0.6942 -0.0969 -0.7132
vn -0.6528 -0.2406 -0.7183
vn -0.6503 -0.2480 -0.7181
vn -0.6942 -0.0968 -0.7133
vn 0.2976 0.0318 -0.9542
vn 0.2862 0.0268 -0.9578
vn 0.9205 0.2697 -0.2828
vn 0.9221 0.2634 -0.2836
vn 0.6289 0.2798 0.7254
vn 0.6271 0.2836 0.7255
vn -0.2193 0.0355 0.9750
vn -0.2246 0.0337 0.9739
vn -0.9156 -0.2320 0.3284
vn -0.9144 -0.2370 0.3282
vn -0.6865 -0.2679 -0.6760
vn -0.6899 -0.2631 -0.6744
vn 0.1504 -0.0317 -0.9881
vn 0.9462 0.1279 -0.2971
vn 0.6784 0.1607 0.7169
vn -0.1504 0.0589 0.9869
vn -0.9382 -0.0988 0.3317
vn -0.9382 -0.0988 0.3318
vn -0.7653 -0.1405 -0.6281
vn -0.7654 -0.1405 -0.6281
vn -0.2409 0.9685 0.0632
vn -0.2408 0.9685 0.0632
vn 0.1244 0.9914 -0.0412
vn -0.1733 0.9551 0.2404
vn -0.1446 0.5655 -0.8120
vn -0.2229 0.6867 -0.6920
vn -0.0965 0.7687 -0.6323
vn -0.0537 0.6025 -0.7963
vn 0.0306 0.7618 -0.6470
vn -0.1889 0.8513 -0.4895
vn -0.0133 0.8842 -0.4668
vn 0.0635 0.6413 -0.7646
vn -0.3142 0.8094 -0.4962
vn 0.5407 0.6236 -0.5646
vn 0.3729 0.7115 -0.5956
vn 0.3566 0.8090 -0.4672
vn 0.5574 0.6753 -0.4830
vn 0.4225 0.8310 -0.3618
vn 0.1689 0.8516 -0.4963
vn 0.2151 0.9170 -0.3359
vn 0.5709 0.7333 -0.3693
vn 0.1320 0.7868 -0.6029
vn 0.7368 0.6755 0.0286
vn 0.6705 0.7268 -0.1490
vn 0.5485 0.8280 -0.1163
vn 0.6730 0.7361 0.0729
vn 0.4916 0.8707 -0.0146
vn 0.4736 0.8280 -0.3003
vn 0.3565 0.9135 -0.1958
vn 0.5800 0.8043 0.1289
vn 0.5476 0.7512 -0.3686
vn 0.3900 0.0756 0.9177
vn 0.2102 0.1355 0.9682
vn 0.1392 0.0141 0.9902
vn 0.3580 -0.0100 0.9337
vn 0.1576 -0.0920 0.9832
vn -0.0295 0.0951 0.9950
vn -0.0590 -0.0620 0.9963
vn 0.3158 -0.1116 0.9422
vn -0.0093 0.1987 0.9800
vn -0.8735 0.4817 0.0705
vn -0.8822 0.3986 0.2507
vn -0.8016 0.4941 0.3366
vn -0.8235 0.5555 0.1152
vn -0.7402 0.5885 0.3252
vn -0.7939 0.3720 0.4809
vn -0.6887 0.4983 0.5266
vn -0.7540 0.6354 0.1666
vn -0.8497 0.2847 0.4439
vn 0.8085 -0.4181 0.4141
vn 0.7001 -0.4237 0.5748
vn 0.6199 -0.5506 0.5591
vn 0.7743 -0.4995 0.3886
vn 0.6068 -0.6322 0.4818
vn 0.4960 -0.5101 0.7027
vn 0.4371 -0.6459 0.6259
vn 0.7199 -0.5991 0.3505
vn 0.5285 -0.4084 0.7442
vn 0.9462 -0.2804 0.1613
vn 0.9070 -0.2365 0.3485
vn 0.8437 -0.3585 0.3996
vn 0.9133 -0.3655 0.1797
vn 0.8129 -0.4563 0.3618
vn 0.7820 -0.2754 0.5591
vn 0.7130 -0.4240 0.5584
vn 0.8620 -0.4657 0.2003
vn 0.8161 -0.1733 0.5513
vn -0.7564 -0.6454 0.1069
vn -0.7740 -0.6264 -0.0919
vn -0.6682 -0.7292 -0.1475
vn -0.6906 -0.7174 0.0921
vn -0.5862 -0.8033 -0.1053
vn -0.6759 -0.6581 -0.3319
vn -0.5431 -0.7720 -0.3302
vn -0.5982 -0.7981 0.0721
vn -0.7538 -0.5698 -0.3272
vn 0.8397 -0.4180 0.3468
vn 0.7279 -0.5046 0.4643
vn 0.6775 -0.6273 0.3840
vn 0.8297 -0.4822 0.2813
vn 0.6919 -0.6689 0.2717
vn 0.5382 -0.6768 0.5024
vn 0.5242 -0.7711 0.3614
vn 0.8048 -0.5625 0.1893
vn 0.5385 -0.5940 0.5977
vn 0.6038 0.0169 0.7970
vn 0.4474 -0.0077 0.8943
vn 0.4269 -0.1483 0.8921
vn 0.6124 -0.0683 0.7876
vn 0.4739 -0.2362 0.8483
vn 0.2501 -0.1476 0.9569
vn 0.2834 -0.2929 0.9132
vn 0.6168 -0.1810 0.7660
vn 0.2220 -0.0391 0.9743
vn 0.4533 0.1433 0.8798
vn 0.2782 0.1383 0.9505
vn 0.2520 0.0008 0.9677
vn 0.4575 0.0565 0.8874
vn 0.3012 -0.0937 0.9490
vn 0.0664 0.0160 0.9977
vn 0.0981 -0.1351 0.9860
vn 0.4578 -0.0567 0.8873
vn 0.0425 0.1249 0.9913
vn 0.8887 -0.2619 0.3762
vn 0.7964 -0.2638 0.5442
vn 0.7354 -0.3971 0.5491
vn 0.8647 -0.3471 0.3631
vn 0.7279 -0.4857 0.4840
vn 0.6203 -0.3591 0.6973
vn 0.5775 -0.5049 0.6416
vn 0.8231 -0.4537 0.3416
vn 0.6405 -0.2527 0.7252
vn 0.5888 0.7532 0.2934
vn 0.7341 0.6438 0.2158
vn 0.7284 0.6824 0.0617
vn 0.5754 0.7941 0.1958
vn 0.6633 0.7481 -0.0169
vn 0.8424 0.5387 0.0112
vn 0.7834 0.6051 -0.1420
vn 0.5513 0.8307 0.0774
vn 0.8673 0.4844 0.1146
vn -0.0797 -0.5905 0.8031
vn -0.2253 -0.4699 0.8535
vn -0.3461 -0.5275 0.7759
vn -0.1528 -0.6436 0.7499
vn -0.3720 -0.6114 0.6984
vn -0.4495 -0.3773 0.8097
vn -0.5438 -0.4692 0.6958
vn -0.2352 -0.6959 0.6785
vn -0.3802 -0.3108 0.8711
vn -0.2826 0.5788 -0.7649
vn -0.4775 0.6450 -0.5967
vn -0.3557 0.7521 -0.5548
vn -0.2160 0.6714 -0.7089
vn -0.3080 0.8299 -0.4652
vn -0.5484 0.7448 -0.3802
vn -0.4536 0.8295 -0.3257
vn -0.1147 0.7850 -0.6088
vn -0.6176 0.6655 -0.4191
vn -0.3124 0.9436 -0.1101
vn -0.5293 0.8209 -0.2145
vn -0.5637 0.8247 -0.0456
vn -0.3808 0.9246 0.0117
vn -0.6423 0.7646 0.0531
vn -0.7224 0.6682 -0.1781
vn -0.7584 0.6502 -0.0460
vn -0.4613 0.8696 0.1760
vn -0.6802 0.6735 -0.2894
vn 0.7614 0.6196 -0.1907
vn 0.5802 0.7401 -0.3400
vn 0.5536 0.8115 -0.1871
vn 0.7164 0.6915 -0.0924
vn 0.4717 0.8754 -0.1057
vn 0.3607 0.8633 -0.3529
vn 0.3203 0.9192 -0.2290
vn 0.6312 0.7740 0.0507
vn 0.3890 0.8033 -0.4511
vn -0.9467 -0.2242 -0.2312
vn -0.8414 -0.3087 -0.4436
vn -0.8310 -0.4333 -0.3489
vn -0.9254 -0.3300 -0.1865
vn -0.7775 -0.5374 -0.3267
vn -0.6931 -0.4600 -0.5550
vn -0.6707 -0.5633 -0.4826
vn -0.8709 -0.4776 -0.1162
vn -0.7032 -0.3674 -0.6087
vn -0.3770 0.7753 -0.5068
vn -0.5714 0.7034 -0.4228
vn -0.5169 0.8016 -0.3005
vn -0.3757 0.8459 -0.3786
vn -0.5330 0.8299 -0.1648
vn -0.6843 0.6852 -0.2494
vn -0.6554 0.7448 -0.1256
vn -0.3628 0.9083 -0.2083
vn -0.6978 0.6270 -0.3463
vn 0.0775 -0.6143 -0.7852
vn 0.3257 -0.6500 -0.6866
vn 0.2358 -0.7632 -0.6016
vn 0.0446 -0.7088 -0.7040
vn 0.2295 -0.8371 -0.4966
vn 0.4739 -0.7236 -0.5019
vn 0.4133 -0.8114 -0.4133
vn -0.0029 -0.8219 -0.5696
vn 0.5156 -0.6437 -0.5656
vn -0.5558 -0.3929 -0.7326
vn -0.3340 -0.4978 -0.8004
vn -0.3915 -0.6054 -0.6930
vn -0.5715 -0.4881 -0.6597
vn -0.3668 -0.6982 -0.6148
vn -0.1482 -0.6470 -0.7479
vn -0.1808 -0.7352 -0.6533
vn -0.5793 -0.6152 -0.5348
vn -0.1186 -0.5639 -0.8173
vn -0.4487 -0.3196 -0.8346
vn -0.2019 -0.3451 -0.9166
vn -0.2294 -0.4825 -0.8453
vn -0.4331 -0.4313 -0.7915
vn -0.1806 -0.5796 -0.7947
vn 0.0145 -0.4431 -0.8964
vn 0.0121 -0.5558 -0.8313
vn -0.4002 -0.5781 -0.7111
vn 0.0161 -0.3484 -0.9372
vn -0.8747 -0.4359 -0.2119
vn -0.7489 -0.5055 -0.4285
vn -0.7098 -0.6248 -0.3253
vn -0.8277 -0.5372 -0.1624
vn -0.6312 -0.7160 -0.2983
vn -0.5661 -0.6258 -0.5365
vn -0.5165 -0.7229 -0.4589
vn -0.7376 -0.6697 -0.0865
vn -0.5990 -0.5382 -0.5928
vn -0.4989 -0.6107 -0.6149
vn -0.2763 -0.5772 -0.7685
vn -0.2353 -0.7039 -0.6702
vn -0.4269 -0.7079 -0.5627
vn -0.1372 -0.7708 -0.6221
vn -0.0373 -0.5998 -0.7993
vn 0.0238 -0.6941 -0.7195
vn -0.3175 -0.8199 -0.4764
vn -0.0838 -0.5197 -0.8502
vn -0.6740 -0.4397 -0.5936
vn -0.4709 -0.4366 -0.7666
vn -0.4478 -0.5733 -0.6862
vn -0.6227 -0.5482 -0.5583
vn -0.3663 -0.6599 -0.6560
vn -0.2493 -0.5016 -0.8284
vn -0.2052 -0.6103 -0.7651
vn -0.5358 -0.6839 -0.4951
vn -0.2802 -0.4112 -0.8674
vn 0.1774 0.5467 0.8183
vn 0.2503 0.7225 0.6444
vn 0.0832 0.7513 0.6547
vn 0.0556 0.5943 0.8023
vn -0.0294 0.7989 0.6007
vn 0.1837 0.8704 0.4568
vn 0.0431 0.8934 0.4472
vn -0.1159 0.6434 0.7567
vn 0.3004 0.8369 0.4575
vn 0.8731 0.2418 0.4234
vn 0.8482 0.4417 0.2923
vn 0.7657 0.4802 0.4279
vn 0.8056 0.2981 0.5120
vn 0.6771 0.5523 0.4862
vn 0.7246 0.6402 0.2552
vn 0.6449 0.6749 0.3586
vn 0.6865 0.3710 0.6253
vn 0.7840 0.5998 0.1599
vn -0.4753 -0.3371 0.8127
vn -0.5329 -0.5237 0.6647
vn -0.3866 -0.5715 0.7238
vn -0.3693 -0.3982 0.8397
vn -0.2805 -0.6436 0.7121
vn -0.4542 -0.7115 0.5362
vn -0.3286 -0.7523 0.5710
vn -0.2063 -0.4754 0.8552
vn -0.5573 -0.6648 0.4975
vn 0.7862 0.6151 -0.0586
vn 0.7883 0.5277 -0.3163
vn 0.6841 0.6552 -0.3206
vn 0.7004 0.7049 -0.1124
vn 0.5883 0.7088 -0.3892
vn 0.6817 0.5072 -0.5272
vn 0.5802 0.5964 -0.5547
vn 0.5685 0.8028 -0.1798
vn 0.7500 0.4334 -0.4997
vn -0.2328 -0.6774 -0.6978
vn -0.2843 -0.5145 -0.8090
vn -0.2855 -0.5096 -0.8117
vn -0.8398 -0.4514 -0.3015
vn -0.8964 -0.3003 -0.3259
vn -0.8362 -0.4591 -0.3000
vn -0.3222 -0.3396 -0.8837
vn -0.7540 -0.6005 -0.2664
vn -0.7539 -0.6005 -0.2664
vn -0.8602 0.2219 0.4592
vn -0.8410 0.4048 0.3590
vn -0.8430 0.3949 0.3652
vn -0.2740 0.4489 0.8505
vn -0.1750 0.5808 0.7950
vn -0.2698 0.4550 0.8486
vn -0.7936 0.5512 0.2579
vn -0.7936 0.5511 0.2579
vn -0.3623 0.3077 0.8798
vn -0.6874 -0.6171 -0.3829
vn -0.7822 -0.4465 -0.4345
vn -0.7838 -0.4428 -0.4354
vn -0.6874 -0.6171 -0.3830
vn -0.8728 -0.3793 0.3072
vn -0.9181 -0.2254 0.3261
vn -0.8700 -0.3867 0.3060
vn -0.8425 -0.2685 -0.4671
vn -0.7991 -0.5331 0.2780
vn -0.8760 -0.1812 0.4470
vn -0.9087 0.0119 0.4173
vn -0.9083 0.0073 0.4182
vn -0.3759 0.0587 0.9248
vn -0.3271 0.2134 0.9206
vn -0.3758 0.0592 0.9248
vn -0.9075 0.1871 0.3761
vn -0.4154 -0.0997 0.9042
vn -0.4154 -0.0997 0.9041
vn -0.5741 -0.2133 -0.7905
vn -0.5859 -0.0216 -0.8101
vn -0.5859 -0.0174 -0.8102
vn -0.9787 -0.0768 -0.1904
vn -0.9888 0.0764 -0.1282
vn -0.9794 -0.0722 -0.1886
vn -0.5768 0.1615 -0.8008
vn -0.9424 -0.2259 -0.2467
vn -0.4102 -0.6748 0.6135
vn -0.4668 -0.5115 0.7214
vn -0.4681 -0.5066 0.7240
vn 0.2742 -0.4482 0.8509
vn 0.2896 -0.2969 0.9099
vn 0.2732 -0.4559 0.8471
vn -0.5026 -0.3364 0.7964
vn -0.5027 -0.3364 0.7963
vn 0.2495 -0.5975 0.7621
vn -0.6075 -0.4695 0.6407
vn -0.6065 -0.3017 0.7357
vn -0.6053 -0.2866 0.7426
vn -0.6075 -0.4695 0.6408
vn 0.1054 -0.4556 0.8839
vn 0.1766 -0.3082 0.9348
vn 0.1071 -0.4524 0.8854
vn -0.5827 -0.1214 0.8036
vn 0.0315 -0.5890 0.8075
vn 0.0314 -0.5891 0.8075
vn 0.4105 -0.8825 0.2295
vn 0.5025 -0.7678 0.3975
vn 0.5009 -0.7704 0.3944
vn 0.8770 -0.4471 -0.1757
vn 0.9425 -0.3186 -0.1012
vn 0.9425 -0.3185 -0.1012
vn 0.8691 -0.4596 -0.1830
vn 0.5643 -0.6309 0.5325
vn 0.7756 -0.5779 -0.2541
vn 0.7756 -0.5779 -0.2540
vn -0.7238 -0.6425 0.2516
vn -0.7731 -0.5027 0.3869
vn -0.7760 -0.4888 0.3985
vn -0.7237 -0.6426 0.2517
vn -0.1174 -0.6770 0.7266
vn -0.0844 -0.5418 0.8362
vn -0.1173 -0.6764 0.7271
vn -0.7913 -0.3414 0.5073
vn -0.7913 -0.3414 0.5072
vn -0.1471 -0.7926 0.5918
vn -0.1472 -0.7926 0.5917
vn 0.0030 0.9901 0.1402
vn 0.2060 0.9469 0.2468
vn 0.2053 0.9471 0.2465
vn -0.2602 0.6017 0.7552
vn -0.1468 0.5082 0.8486
vn -0.2661 0.6061 0.7495
vn 0.3829 0.8617 0.3331
vn -0.3738 0.6821 0.6285
vn -0.5747 -0.0769 0.8148
vn -0.5746 -0.0770 0.8148
vn -0.7697 -0.2699 0.5785
vn -0.5712 -0.2252 0.7893
vn -0.7215 -0.4120 0.5565
vn -0.8997 -0.2959 0.3209
vn -0.8341 -0.4275 0.3487
vn -0.5547 -0.3694 0.7455
vn -0.9455 -0.1566 0.2855
vn -0.1246 -0.4152 0.9012
vn -0.1242 -0.4154 0.9011
vn -0.3879 -0.5936 0.7051
vn -0.1151 -0.5538 0.8247
vn -0.3369 -0.7136 0.6143
vn -0.6249 -0.5793 0.5233
vn -0.5371 -0.7010 0.4692
vn -0.1031 -0.6792 0.7267
vn -0.6946 -0.4479 0.5630
vn -0.6947 -0.4478 0.5630
vn -0.5595 -0.6465 0.5186
vn -0.5594 -0.6466 0.5187
vn -0.4522 -0.7636 0.4609
vn -0.4532 -0.7627 0.4614
vn -0.4514 -0.8850 -0.1140
vn -0.5937 -0.7939 -0.1311
vn -0.5931 -0.7944 -0.1310
vn -0.3335 -0.8580 0.3907
vn -0.7135 -0.6857 -0.1439
vn -0.7523 -0.5009 0.4280
vn -0.7520 -0.5011 0.4282
vn -0.7505 -0.6556 0.0833
vn -0.6761 -0.6343 0.3750
vn -0.6380 -0.7680 0.0563
vn -0.7573 -0.6162 -0.2162
vn -0.6500 -0.7353 -0.1920
vn -0.5826 -0.7504 0.3122
vn -0.8411 -0.4875 -0.2341
vn -0.8410 -0.4879 -0.2338
vn 0.1291 -0.3779 0.9168
vn -0.0513 -0.6548 0.7540
vn 0.1917 -0.5006 0.8442
vn 0.0430 -0.7505 0.6595
vn -0.2820 -0.7484 0.6003
vn -0.1514 -0.8273 0.5410
vn 0.2526 -0.6168 0.7455
vn -0.4076 -0.6470 0.6444
vn -0.4077 -0.6470 0.6443
vn -0.9423 0.3339 0.0215
vn -0.9423 0.3340 0.0213
vn -0.7767 0.5859 0.2313
vn -0.8833 0.4683 -0.0240
vn -0.6985 0.6997 0.1502
vn -0.6048 0.6500 0.4602
vn -0.5644 0.7508 0.3432
vn -0.7988 0.5974 -0.0708
vn -0.6300 0.5307 0.5670
vn -0.6300 0.5308 0.5669
vn -0.2227 -0.2335 0.9465
vn -0.2226 -0.2335 0.9465
vn -0.2601 -0.5535 0.7912
vn -0.1141 -0.3425 0.9326
vn -0.1175 -0.6325 0.7656
vn -0.3754 -0.7140 0.5911
vn -0.2207 -0.7634 0.6070
vn 0.0037 -0.4491 0.8935
vn -0.5271 -0.6415 0.5574
vn -0.5270 -0.6415 0.5574
vn 0.0213 0.5309 0.8471
vn 0.0212 0.5312 0.8470
vn 0.3858 0.5229 0.7601
vn 0.1243 0.6393 0.7589
vn 0.4393 0.6237 0.6465
vn 0.6235 0.3597 0.6942
vn 0.6398 0.4865 0.5949
vn 0.2153 0.7212 0.6584
vn 0.5951 0.2383 0.7675
vn 0.4949 -0.5016 0.7096
vn 0.5699 -0.5804 0.5817
vn 0.6685 -0.4920 0.5577
vn 0.5487 -0.4089 0.7292
vn 0.7211 -0.3909 0.5721
vn 0.7212 -0.5725 0.3900
vn 0.8182 -0.4678 0.3342
vn 0.6320 -0.6462 0.4279
vn 0.5991 -0.3044 0.7405
vn 0.1153 -0.9538 -0.2774
vn -0.0570 -0.9541 -0.2940
vn -0.0609 -0.9009 -0.4298
vn 0.1679 -0.9118 -0.3746
vn -0.2847 -0.7808 -0.5561
vn -0.2698 -0.8641 -0.4248
vn -0.2846 -0.7809 -0.5561
vn -0.2515 -0.9195 -0.3022
vn 0.2258 -0.8474 -0.4805
vn 0.2256 -0.8475 -0.4804
vn -0.2309 -0.5784 0.7824
vn -0.0702 -0.6281 0.7750
vn -0.0164 -0.5300 0.8479
vn -0.2384 -0.4872 0.8401
vn -0.0167 -0.4298 0.9028
vn 0.1706 -0.5751 0.8001
vn 0.2442 -0.4577 0.8549
vn 0.1074 -0.6620 0.7418
vn -0.2434 -0.3801 0.8924
vn -0.5029 -0.8569 -0.1130
vn -0.4784 -0.8764 0.0559
vn -0.5901 -0.8012 0.0990
vn -0.5954 -0.7922 -0.1338
vn -0.6845 -0.7235 0.0895
vn -0.5296 -0.7941 0.2982
vn -0.6295 -0.6922 0.3530
vn -0.4334 -0.8672 0.2453
vn -0.6910 -0.7059 -0.1553
vn 0.3963 0.7790 0.4859
vn 0.3112 0.7269 0.6122
vn 0.4051 0.6377 0.6551
vn 0.4940 0.7282 0.4751
vn 0.4993 0.5652 0.6567
vn 0.2785 0.5486 0.7884
vn 0.3594 0.4383 0.8239
vn 0.1992 0.6401 0.7420
vn 0.6048 0.6543 0.4540
vn 0.8674 0.4936 0.0627
vn 0.7775 0.6205 0.1020
vn 0.7648 0.5971 0.2420
vn 0.8875 0.4333 0.1569
vn 0.7784 0.5274 0.3405
vn 0.6321 0.7269 0.2686
vn 0.5876 0.6916 0.4200
vn 0.6558 0.7414 0.1421
vn 0.8963 0.3622 0.2559
vt 0.966382 8.503631
vt 0.966382 6.725045
vt 0.810921 6.725045
vt 0.810921 8.503631
vt 0.344539 8.503631
vt 0.344539 6.725048
vt 0.189079 6.725048
vt 0.189079 8.503631
vt 0.500000 8.503631
vt 0.500000 6.725048
vt 0.655461 8.503631
vt 0.655461 6.725048
vt 0.966382 4.946462
vt 0.810921 4.946462
vt 0.344539 4.946462
vt 0.189079 4.946462
vt 0.500000 4.946462
vt 0.655461 4.946462
vt 0.966382 3.167876
vt 0.810921 3.167876
vt 0.189079 3.167876
vt 0.033618 3.167878
vt 0.344539 3.167876
vt 0.500000 3.167876
vt 0.655461 3.167876
vt 0.966382 1.389293
vt 0.810921 1.389293
vt 0.189079 1.389293
vt 0.033618 1.389293
vt 0.344539 1.389293
vt 0.500000 1.389293
vt 0.655461 1.389293
vt 0.810921 -0.389293
vt 0.189079 -0.389293
vt 0.033618 -0.389292
vt 0.344539 -0.389293
vt 0.500000 -0.389293
vt 0.655461 -0.389293
vt 0.966382 -0.389294
vt 0.966382 -2.167878
vt 0.810921 -2.167878
vt 0.189079 -2.167876
vt 0.033618 -2.167876
vt 0.500000 -2.167877
vt 0.344539 -2.167877
vt 0.655461 -2.167877
vt 0.966382 -3.946462
vt 0.810921 -3.946462
vt 0.189079 -3.946462
vt 0.033618 -3.946462
vt 0.344539 -3.946462
vt 0.500000 -3.946462
vt 0.655461 -3.946462
vt 0.966382 -5.725047
vt 0.810921 -5.725047
vt 0.189079 -5.725045
vt 0.033618 -5.725045
vt 0.500000 -5.725046
vt 0.344539 -5.725046
vt 0.655461 -5.725046
vt 0.966382 -7.503632
vt 0.810921 -7.503630
vt 0.189079 -7.503630
vt 0.033618 -7.503630
vt 0.344539 -7.503630
vt 0.500000 -7.503630
vt 0.655461 -7.503630
vt 0.033618 6.725048
vt 0.033618 8.503633
vt 0.033618 4.946462
vt 0.000000 0.000000
vt 0.475004 0.000000
vt 0.581436 0.594393
vt 0.000000 0.491831
vt 0.494355 1.000000
vt 1.000000 0.474417
vt 1.000000 1.000000
vt 0.000000 1.000000
vt 1.000000 0.000000
vt 0.533479 0.000000
vt 0.447807 0.563622
vt 0.000000 0.448746
vt 0.515396 1.000000
vt 1.000000 0.474699
vt 0.509433 1.000000
vt 0.557025 0.488493
vt 0.943530 0.531260
vt 0.672370 1.000000
vt 0.124045 0.440587
vt 0.259966 0.000000
vt 0.602475 0.000000
vt 0.860970 0.000000
vt 0.189556 1.000000
vt 0.480173 0.000000
vt 0.499095 0.494221
vt 0.000000 0.504135
vt 0.518459 1.000000
vt 1.000000 0.484268
vt 0.532232 1.000000
vt 0.477364 0.470556
vt 1.000000 0.533264
vt 0.516556 0.000000
vt 0.000000 0.535225
s 1
usemtl trunk-01
f 2/1/1 14/2/2 23/3/3
f 2/1/1 23/3/3 13/4/1
f 6/5/4 17/6/5 15/7/6
f 6/5/4 15/7/6 3/8/7
f 9/9/8 19/10/9 16/6/10
f 9/9/8 16/6/10 5/5/8
f 11/11/11 21/12/12 18/10/13
f 11/11/11 18/10/13 7/9/11
f 10/4/14 22/3/15 20/12/16
f 14/2/2 24/13/17 34/14/18
f 14/2/2 34/14/18 23/3/3
f 17/6/5 28/15/19 26/16/20
f 17/6/5 26/16/20 15/7/6
f 19/10/9 30/17/21 27/15/22
f 19/10/9 27/15/22 16/6/10
f 21/12/12 32/18/23 29/17/24
f 21/12/12 29/17/24 18/10/13
f 22/3/15 31/18/25 20/12/16
f 24/13/17 35/19/26 46/20/27
f 24/13/17 46/20/27 34/14/18
f 25/16/28 37/21/29 36/22/30
f 28/15/19 40/23/31 38/21/32
f 28/15/19 38/21/32 26/16/20
f 30/17/21 44/24/33 39/23/34
f 30/17/21 39/23/34 27/15/22
f 32/18/23 41/24/35 29/17/24
f 33/14/36 45/20/37 42/25/35
f 35/19/26 47/26/38 57/27/39
f 35/19/26 57/27/39 46/20/27
f 37/21/29 49/28/40 48/29/41
f 37/21/29 48/29/41 36/22/30
f 40/23/31 52/30/42 50/28/43
f 40/23/31 50/28/43 38/21/32
f 44/24/33 54/31/44 51/30/45
f 44/24/33 51/30/45 39/23/34
f 43/25/46 56/32/47 53/31/48
f 45/20/37 55/32/49 42/25/35
f 47/26/38 66/33/50 57/27/39
f 49/28/40 58/34/51 68/35/52
f 49/28/40 68/35/52 48/29/41
f 52/30/42 61/36/53 59/34/54
f 52/30/42 59/34/54 50/28/43
f 54/31/44 63/37/55 60/36/56
f 54/31/44 60/36/56 51/30/45
f 56/32/47 65/38/57 62/37/58
f 56/32/47 62/37/58 53/31/48
f 57/27/39 66/33/50 64/38/59
f 67/39/60 69/40/61 80/41/62
f 58/34/51 71/42/63 70/43/64
f 58/34/51 70/43/64 68/35/52
f 61/36/53 73/42/65 59/34/54
f 63/37/55 76/44/66 72/45/67
f 63/37/55 72/45/67 60/36/56
f 65/38/57 78/46/68 75/44/69
f 65/38/57 75/44/69 62/37/58
f 66/33/50 79/41/70 77/46/71
f 66/33/50 77/46/71 64/38/59
f 69/40/61 81/47/72 91/48/73
f 69/40/61 91/48/73 80/41/62
f 71/42/63 83/49/74 82/50/75
f 71/42/63 82/50/75 70/43/64
f 74/45/76 86/51/77 84/49/78
f 76/44/66 88/52/79 85/51/80
f 76/44/66 85/51/80 72/45/67
f 78/46/68 92/53/81 87/52/82
f 78/46/68 87/52/82 75/44/69
f 79/41/70 90/53/83 77/46/71
f 81/47/72 93/54/84 104/55/85
f 81/47/72 104/55/85 91/48/73
f 83/49/74 96/56/86 94/57/87
f 83/49/74 94/57/87 82/50/75
f 86/51/77 97/56/88 84/49/78
f 88/52/79 100/58/89 95/59/90
f 88/52/79 95/59/90 85/51/80
f 92/53/81 102/60/91 99/58/92
f 92/53/81 99/58/92 87/52/82
f 89/48/93 103/55/94 101/60/95
f 93/54/84 105/61/96 116/62/96
f 93/54/84 116/62/96 104/55/85
f 96/56/86 233/63/97 106/64/98
f 96/56/86 106/64/98 94/57/87
s 0
f 98/59/99 108/65/99 234/63/99
s 1
f 100/58/89 112/66/100 107/65/100
f 100/58/89 107/65/100 95/59/90
f 102/60/91 114/67/101 111/66/101
f 102/60/91 111/66/101 99/58/92
f 103/55/94 115/62/102 113/67/102
f 103/55/94 113/67/102 101/60/95
f 119/1/103 132/2/104 140/3/105
f 119/1/103 140/3/105 129/4/103
f 122/8/106 134/7/107 131/68/108
f 122/8/106 131/68/108 117/69/106
f 120/5/109 135/6/110 133/7/111
s 0
f 124/9/112 136/6/112 121/5/112
s 1
f 128/11/113 138/12/114 137/10/115
f 128/11/113 137/10/115 126/9/113
f 130/4/116 141/3/117 139/12/118
f 132/2/104 144/13/119 155/14/120
f 132/2/104 155/14/120 140/3/105
f 134/7/107 146/16/121 142/70/121
f 134/7/107 142/70/121 131/68/108
f 135/6/110 148/15/122 145/16/123
f 135/6/110 145/16/123 133/7/111
f 138/12/114 153/18/124 151/17/125
f 138/12/114 151/17/125 137/10/115
f 141/3/117 156/14/126 154/18/127
f 141/3/117 154/18/127 139/12/118
f 144/13/119 158/19/128 167/20/129
f 144/13/119 167/20/129 155/14/120
f 147/16/130 162/21/131 157/22/132
f 147/16/130 157/22/132 143/70/130
f 148/15/122 159/21/133 145/16/123
f 149/17/134 163/24/135 160/23/136
f 152/18/137 165/25/138 164/24/139
f 152/18/137 164/24/139 150/17/140
f 156/14/126 167/20/129 166/25/141
f 156/14/126 166/25/141 154/18/127
f 158/19/128 170/27/142 167/20/129
f 162/21/131 172/28/143 168/29/144
f 162/21/131 168/29/144 157/22/132
f 161/23/145 173/30/146 171/28/147
f 163/24/135 175/31/148 174/30/149
f 163/24/135 174/30/149 160/23/136
f 165/25/138 177/32/150 176/31/151
f 165/25/138 176/31/151 164/24/139
f 167/20/129 170/27/142 178/32/152
f 167/20/129 178/32/152 166/25/141
f 169/26/153 290/39/154 191/33/155
f 172/28/143 182/34/156 286/35/156
f 172/28/143 286/35/156 168/29/144
f 173/30/146 187/36/157 181/34/157
f 173/30/146 181/34/157 171/28/147
f 175/31/148 291/37/158 188/36/158
f 175/31/148 188/36/158 174/30/149
f 177/32/150 281/38/159 296/37/159
f 177/32/150 296/37/159 176/31/151
f 170/27/142 192/33/160 283/38/161
f 170/27/142 283/38/161 178/32/152
f 290/39/154 194/40/162 203/41/163
f 290/39/154 203/41/163 191/33/155
f 184/34/164 196/42/165 193/43/166
f 184/34/164 193/43/166 288/35/164
f 186/36/167 197/45/168 195/42/169
f 186/36/167 195/42/169 180/34/167
f 292/37/170 200/44/171 198/45/172
f 292/37/170 198/45/172 189/36/170
f 279/38/173 201/46/174 199/44/175
f 279/38/173 199/44/175 294/37/176
f 192/33/160 204/41/177 202/46/178
f 192/33/160 202/46/178 283/38/161
f 194/40/162 213/48/179 203/41/163
f 196/42/165 206/49/180 212/50/179
f 196/42/165 212/50/179 193/43/166
f 197/45/168 207/51/181 205/49/182
f 197/45/168 205/49/182 195/42/169
f 200/44/171 208/51/183 198/45/172
f 201/46/174 210/53/184 209/52/185
f 201/46/174 209/52/185 199/44/175
f 204/41/177 215/48/186 211/53/187
f 204/41/177 211/53/187 202/46/178
f 214/47/188 217/54/189 225/55/190
f 206/49/180 219/56/191 216/57/191
f 206/49/180 216/57/191 212/50/179
f 207/51/181 220/59/192 218/56/193
f 207/51/181 218/56/193 205/49/182
f 209/52/185 222/58/194 221/59/195
f 210/53/184 223/60/196 222/58/194
f 210/53/184 222/58/194 209/52/185
f 215/48/186 226/55/197 224/60/198
f 215/48/186 224/60/198 211/53/187
f 217/54/189 228/61/199 237/62/200
f 217/54/189 237/62/200 225/55/190
f 219/56/191 230/63/201 227/64/202
f 219/56/191 227/64/202 216/57/191
f 220/59/192 109/65/203 229/63/204
f 220/59/192 229/63/204 218/56/193
f 222/58/194 231/66/205 110/65/205
f 222/58/194 110/65/205 221/59/195
f 223/60/196 235/67/206 232/66/207
f 223/60/196 232/66/207 222/58/194
f 226/55/197 238/62/208 236/67/208
f 226/55/197 236/67/208 224/60/198
f 240/1/209 255/19/210 266/20/211
f 240/1/209 266/20/211 254/4/212
f 242/8/213 258/21/214 256/22/215
f 246/5/216 260/23/217 257/21/218
f 246/5/216 257/21/218 241/8/216
f 249/9/219 262/24/220 259/23/221
f 249/9/219 259/23/221 243/5/222
f 247/11/223 263/25/224 261/24/225
f 251/4/226 265/20/227 264/25/228
f 251/4/226 264/25/228 248/11/229
f 255/19/210 267/40/230 278/41/231
f 255/19/210 278/41/231 266/20/211
f 258/21/214 270/42/232 268/43/233
f 258/21/214 268/43/233 256/22/215
f 260/23/217 272/45/234 269/42/235
f 260/23/217 269/42/235 257/21/218
f 262/24/220 274/44/236 271/45/237
f 262/24/220 271/45/237 259/23/221
f 263/25/224 275/46/238 273/44/239
f 263/25/224 273/44/239 261/24/225
f 265/20/227 277/41/240 276/46/241
f 265/20/227 276/46/241 264/25/228
f 267/40/230 280/61/242 295/62/242
f 267/40/230 295/62/242 278/41/231
f 270/42/232 285/63/243 282/64/243
f 270/42/232 282/64/243 268/43/233
f 272/45/234 289/65/244 284/63/244
f 272/45/234 284/63/244 269/42/235
f 274/44/236 183/66/245 287/65/245
f 274/44/236 287/65/245 271/45/237
f 275/46/238 185/67/246 179/66/247
f 275/46/238 179/66/247 273/44/239
f 277/41/240 293/62/248 190/67/249
f 277/41/240 190/67/249 276/46/241
s 0
f 253/4/250 250/11/250 245/5/250
f 252/4/251 244/5/251 239/8/251
s 1
f 127/11/252 125/9/252 123/5/252
f 127/11/252 123/5/252 118/69/252
f 8/9/253 4/5/253 1/1/253
f 8/9/253 1/1/253 12/11/253
usemtl branch-02
f 297/71/254 301/72/255 303/73/256
f 297/71/254 303/73/256 305/74/257
f 302/75/258 303/73/256 304/76/259
f 302/75/258 304/76/259 300/77/260
f 305/74/257 303/73/256 302/75/258
f 305/74/257 302/75/258 299/78/261
f 304/76/259 303/73/256 301/72/255
f 304/76/259 301/72/255 298/79/262
f 306/71/263 310/72/264 312/73/265
f 306/71/263 312/73/265 314/74/266
f 311/75/267 312/73/265 313/76/268
f 311/75/267 313/76/268 309/77/269
f 314/74/266 312/73/265 311/75/267
f 314/74/266 311/75/267 308/78/270
f 313/76/268 312/73/265 310/72/264
f 313/76/268 310/72/264 307/79/271
f 315/71/272 319/72/273 321/73/274
f 315/71/272 321/73/274 323/74/275
f 320/75/276 321/73/274 322/76/277
f 320/75/276 322/76/277 318/77/278
f 323/74/275 321/73/274 320/75/276
f 323/74/275 320/75/276 317/78/279
f 322/76/277 321/73/274 319/72/273
f 322/76/277 319/72/273 316/79/280
f 324/71/281 328/72/282 330/73/283
f 324/71/281 330/73/283 332/74/284
f 329/75/285 330/73/283 331/76/286
f 329/75/285 331/76/286 327/77/287
f 332/74/284 330/73/283 329/75/285
f 332/74/284 329/75/285 326/78/288
f 331/76/286 330/73/283 328/72/282
f 331/76/286 328/72/282 325/79/289
f 333/71/290 337/72/291 339/73/292
f 333/71/290 339/73/292 341/74/293
f 338/75/294 339/73/292 340/76/295
f 338/75/294 340/76/295 336/77/296
f 341/74/293 339/73/292 338/75/294
f 341/74/293 338/75/294 335/78/297
f 340/76/295 339/73/292 337/72/291
f 340/76/295 337/72/291 334/79/298
f 342/71/299 346/72/300 348/73/301
f 342/71/299 348/73/301 350/74/302
f 347/75/303 348/73/301 349/76/304
f 347/75/303 349/76/304 345/77/305
f 350/74/302 348/73/301 347/75/303
f 350/74/302 347/75/303 344/78/306
f 349/76/304 348/73/301 346/72/300
f 349/76/304 346/72/300 343/79/307
f 351/71/308 355/72/309 357/73/310
f 351/71/308 357/73/310 359/74/311
f 356/75/312 357/73/310 358/76/313
f 356/75/312 358/76/313 354/77/314
f 359/74/311 357/73/310 356/75/312
f 359/74/311 356/75/312 353/78/315
f 358/76/313 357/73/310 355/72/309
f 358/76/313 355/72/309 352/79/316
f 360/71/317 364/72/318 366/73/319
f 360/71/317 366/73/319 368/74/320
f 365/75/321 366/73/319 367/76/322
f 365/75/321 367/76/322 363/77/323
f 368/74/320 366/73/319 365/75/321
f 368/74/320 365/75/321 362/78/324
f 367/76/322 366/73/319 364/72/318
f 367/76/322 364/72/318 361/79/325
f 369/71/326 373/72/327 375/73/328
f 369/71/326 375/73/328 377/74/329
f 374/75/330 375/73/328 376/76/331
f 374/75/330 376/76/331 372/77/332
f 377/74/329 375/73/328 374/75/330
f 377/74/329 374/75/330 371/78/333
f 376/76/331 375/73/328 373/72/327
f 376/76/331 373/72/327 370/79/334
f 378/71/335 382/72/336 384/73/337
f 378/71/335 384/73/337 386/74/338
f 383/75/339 384/73/337 385/76/340
f 383/75/339 385/76/340 381/77/341
f 386/74/338 384/73/337 383/75/339
f 386/74/338 383/75/339 380/78/342
f 385/76/340 384/73/337 382/72/336
f 385/76/340 382/72/336 379/79/343
f 387/71/344 391/72/345 393/73/346
f 387/71/344 393/73/346 395/74/347
f 392/75/348 393/73/346 394/76/349
f 392/75/348 394/76/349 390/77/350
f 395/74/347 393/73/346 392/75/348
f 395/74/347 392/75/348 389/78/351
f 394/76/349 393/73/346 391/72/345
f 394/76/349 391/72/345 388/79/352
f 396/71/353 400/72/354 402/73/355
f 396/71/353 402/73/355 404/74/356
f 401/75/357 402/73/355 403/76/358
f 401/75/357 403/76/358 399/77/359
f 404/74/356 402/73/355 401/75/357
f 404/74/356 401/75/357 398/78/360
f 403/76/358 402/73/355 400/72/354
f 403/76/358 400/72/354 397/79/361
f 405/71/362 409/72/363 411/73/364
f 405/71/362 411/73/364 413/74/365
f 410/75/366 411/73/364 412/76/367
f 410/75/366 412/76/367 408/77/368
f 413/74/365 411/73/364 410/75/366
f 413/74/365 410/75/366 407/78/369
f 412/76/367 411/73/364 409/72/363
f 412/76/367 409/72/363 406/79/370
f 414/71/371 418/72/372 420/73/373
f 414/71/371 420/73/373 422/74/374
f 419/75/375 420/73/373 421/76/376
f 419/75/375 421/76/376 417/77/377
f 422/74/374 420/73/373 419/75/375
f 422/74/374 419/75/375 416/78/378
f 421/76/376 420/73/373 418/72/372
f 421/76/376 418/72/372 415/79/379
usemtl branch-01
f 423/71/380 427/80/381 429/81/382
f 423/71/380 429/81/382 430/82/383
f 428/83/384 429/81/382 431/84/385
f 428/83/384 431/84/385 426/77/386
f 430/82/383 429/81/382 428/83/384
f 430/82/383 428/83/384 425/78/387
f 431/84/385 429/81/382 427/80/381
f 431/84/385 427/80/381 424/79/388
f 432/71/389 436/80/390 438/81/391
f 432/71/389 438/81/391 439/82/392
f 437/83/393 438/81/391 440/84/394
f 437/83/393 440/84/394 435/77/395
f 439/82/392 438/81/391 437/83/393
f 439/82/392 437/83/393 434/78/396
f 440/84/394 438/81/391 436/80/390
f 440/84/394 436/80/390 433/79/397
f 441/71/398 445/80/399 447/81/400
f 441/71/398 447/81/400 448/82/401
f 446/83/402 447/81/400 449/84/403
f 446/83/402 449/84/403 444/77/404
f 448/82/401 447/81/400 446/83/402
f 448/82/401 446/83/402 443/78/405
f 449/84/403 447/81/400 445/80/399
f 449/84/403 445/80/399 442/79/406
f 450/71/407 454/80/408 456/81/409
f 450/71/407 456/81/409 457/82/410
f 455/83/411 456/81/409 458/84/412
f 455/83/411 458/84/412 453/77/413
f 457/82/410 456/81/409 455/83/411
f 457/82/410 455/83/411 452/78/414
f 458/84/412 456/81/409 454/80/408
f 458/84/412 454/80/408 451/79/415
f 459/71/416 463/80/417 465/81/418
f 459/71/416 465/81/418 466/82/419
f 464/83/420 465/81/418 467/84/421
f 464/83/420 467/84/421 462/77/422
f 466/82/419 465/81/418 464/83/420
f 466/82/419 464/83/420 461/78/423
f 467/84/421 465/81/418 463/80/417
f 467/84/421 463/80/417 460/79/424
f 468/71/425 472/80/426 474/81/427
f 468/71/425 474/81/427 475/82/428
f 473/83/429 474/81/427 476/84/430
f 473/83/429 476/84/430 471/77/431
f 475/82/428 474/81/427 473/83/429
f 475/82/428 473/83/429 470/78/432
f 476/84/430 474/81/427 472/80/426
f 476/84/430 472/80/426 469/79/433
f 477/71/434 481/80/435 483/81/436
f 477/71/434 483/81/436 484/82/437
f 482/83/438 483/81/436 485/84/439
f 482/83/438 485/84/439 480/77/440
f 484/82/437 483/81/436 482/83/438
f 484/82/437 482/83/438 479/78/441
f 485/84/439 483/81/436 481/80/435
f 485/84/439 481/80/435 478/79/442
f 486/71/443 490/80/444 492/81/445
f 486/71/443 492/81/445 493/82/446
f 491/83/447 492/81/445 494/84/448
f 491/83/447 494/84/448 489/77/449
f 493/82/446 492/81/445 491/83/447
f 493/82/446 491/83/447 488/78/450
f 494/84/448 492/81/445 490/80/444
f 494/84/448 490/80/444 487/79/451
f 495/71/452 499/80/453 501/81/454
f 495/71/452 501/81/454 502/82/455
f 500/83/456 501/81/454 503/84/457
f 500/83/456 503/84/457 498/77/458
f 502/82/455 501/81/454 500/83/456
f 502/82/455 500/83/456 497/78/459
f 503/84/457 501/81/454 499/80/453
f 503/84/457 499/80/453 496/79/460
f 504/71/461 508/80/462 510/81/463
f 504/71/461 510/81/463 511/82/464
f 509/83/465 510/81/463 512/84/466
f 509/83/465 512/84/466 507/77/467
f 511/82/464 510/81/463 509/83/465
f 511/82/464 509/83/465 506/78/468
f 512/84/466 510/81/463 508/80/462
f 512/84/466 508/80/462 505/79/469
f 513/71/470 517/80/471 519/81/472
f 513/71/470 519/81/472 520/82/473
f 518/83/474 519/81/472 521/84/475
f 518/83/474 521/84/475 516/77/476
f 520/82/473 519/81/472 518/83/474
f 520/82/473 518/83/474 515/78/477
f 521/84/475 519/81/472 517/80/471
f 521/84/475 517/80/471 514/79/478
f 522/71/479 526/80/480 528/81/481
f 522/71/479 528/81/481 529/82/482
f 527/83/483 528/81/481 530/84/484
f 527/83/483 530/84/484 525/77/485
f 529/82/482 528/81/481 527/83/483
f 529/82/482 527/83/483 524/78/486
f 530/84/484 528/81/481 526/80/480
f 530/84/484 526/80/480 523/79/487
f 531/71/488 535/80/489 537/81/490
f 531/71/488 537/81/490 538/82/491
f 536/83/492 537/81/490 539/84/493
f 536/83/492 539/84/493 534/77/494
f 538/82/491 537/81/490 536/83/492
f 538/82/491 536/83/492 533/78/495
f 539/84/493 537/81/490 535/80/489
f 539/84/493 535/80/489 532/79/496
f 540/71/497 544/80/498 546/81/499
f 540/71/497 546/81/499 547/82/500
f 545/83/501 546/81/499 548/84/502
f 545/83/501 548/84/502 543/77/503
f 547/82/500 546/81/499 545/83/501
f 547/82/500 545/83/501 542/78/504
f 548/84/502 546/81/499 544/80/498
f 548/84/502 544/80/498 541/79/505
f 549/71/506 553/80/507 555/81/508
f 549/71/506 555/81/508 556/82/509
f 554/83/510 555/81/508 557/84/511
f 554/83/510 557/84/511 552/77/512
f 556/82/509 555/81/508 554/83/510
f 556/82/509 554/83/510 551/78/513
f 557/84/511 555/81/508 553/80/507
f 557/84/511 553/80/507 550/79/514
usemtl branch-04
f 559/85/515 563/86/516 567/87/517
f 559/85/515 567/87/517 568/88/515
f 565/89/518 564/90/519 560/91/519
f 565/89/518 560/91/519 562/86/520
f 566/92/521 567/87/517 563/86/516
f 566/92/521 563/86/516 561/91/521
f 569/93/522 565/89/518 562/86/520
f 569/93/522 562/86/520 558/85/523
f 570/85/524 574/86/525 579/87/526
f 570/85/524 579/87/526 580/88/524
f 577/89/527 576/90/528 573/91/528
f 577/89/527 573/91/528 575/86/529
f 578/92/530 579/87/526 574/86/525
f 578/92/530 574/86/525 572/91/531
f 581/93/532 577/89/527 575/86/529
f 581/93/532 575/86/529 571/85/532
f 583/85/533 587/86/534 591/87/535
f 583/85/533 591/87/535 592/88/536
f 589/89/537 588/90/538 584/91/538
f 589/89/537 584/91/538 586/86/539
f 590/92/540 591/87/535 587/86/534
f 590/92/540 587/86/534 585/91/540
f 593/93/541 589/89/537 586/86/539
f 593/93/541 586/86/539 582/85/541
f 594/85/542 598/86/543 603/87/544
f 594/85/542 603/87/544 604/88/542
f 601/89/545 600/90/546 597/91/546
f 601/89/545 597/91/546 599/86/547
f 602/92/548 603/87/544 598/86/543
f 602/92/548 598/86/543 596/91/548
f 605/93/549 601/89/545 599/86/547
f 605/93/549 599/86/547 595/85/550
f 607/85/551 611/86/552 615/87/553
f 607/85/551 615/87/553 616/88/551
f 613/89/554 612/90/555 608/91/555
f 613/89/554 608/91/555 610/86/556
f 614/92/557 615/87/553 611/86/552
f 614/92/557 611/86/552 609/91/557
f 617/93/558 613/89/554 610/86/556
f 617/93/558 610/86/556 606/85/558
f 618/85/559 622/86/560 627/87/561
f 618/85/559 627/87/561 628/88/559
f 625/89/562 624/90/563 621/91/563
f 625/89/562 621/91/563 623/86/564
f 626/92/565 627/87/561 622/86/560
f 626/92/565 622/86/560 620/91/566
f 629/93/567 625/89/562 623/86/564
f 629/93/567 623/86/564 619/85/567
f 630/85/568 634/86/569 639/87/570
f 630/85/568 639/87/570 640/88/571
f 637/89/572 636/90/573 633/91/573
f 637/89/572 633/91/573 635/86/574
f 638/92/575 639/87/570 634/86/569
f 638/92/575 634/86/569 632/91/575
f 641/93/576 637/89/572 635/86/574
f 641/93/576 635/86/574 631/85/577
f 642/85/578 646/86/579 651/87/580
f 642/85/578 651/87/580 652/88/578
f 649/89/581 648/90/582 645/91/583
f 649/89/581 645/91/583 647/86/584
f 650/92/585 651/87/580 646/86/579
f 650/92/585 646/86/579 644/91/585
f 653/93/586 649/89/581 647/86/584
f 653/93/586 647/86/584 643/85/587
f 654/85/588 658/86/589 663/87/590
f 654/85/588 663/87/590 664/88/591
f 661/89/592 660/90/593 657/91/593
f 661/89/592 657/91/593 659/86/594
f 662/92/595 663/87/590 658/86/589
f 662/92/595 658/86/589 656/91/596
f 665/93/597 661/89/592 659/86/594
f 665/93/597 659/86/594 655/85/598
f 667/85/599 671/86/600 675/87/601
f 667/85/599 675/87/601 676/88/599
f 673/89/602 672/90/603 668/91/603
f 673/89/602 668/91/603 670/86/604
f 674/92/605 675/87/601 671/86/600
f 674/92/605 671/86/600 669/91/605
f 677/93/606 673/89/602 670/86/604
f 677/93/606 670/86/604 666/85/606
usemtl branch-05
f 678/71/607 683/94/608 687/95/609
f 678/71/607 687/95/609 686/96/610
f 684/97/611 687/95/609 685/98/612
f 684/97/611 685/98/612 681/77/613
f 686/96/610 687/95/609 684/97/611
f 686/96/610 684/97/611 680/78/614
f 685/98/612 687/95/609 682/94/615
f 685/98/612 682/94/615 679/79/615
f 688/71/616 693/94/617 697/95/618
f 688/71/616 697/95/618 696/96/619
f 694/97/620 697/95/618 695/98/621
f 694/97/620 695/98/621 691/77/622
f 696/96/619 697/95/618 694/97/620
f 696/96/619 694/97/620 690/78/623
f 695/98/621 697/95/618 692/94/624
f 695/98/621 692/94/624 689/79/625
f 698/71/626 703/94/627 709/95/628
f 698/71/626 709/95/628 707/96/629
f 704/97/630 708/95/631 706/98/632
f 704/97/630 706/98/632 701/77/630
f 707/96/629 709/95/628 705/97/633
f 707/96/629 705/97/633 700/78/633
f 706/98/632 708/95/631 702/94/634
f 706/98/632 702/94/634 699/79/634
f 710/71/635 715/94/636 719/95/637
f 710/71/635 719/95/637 718/96/638
f 716/97/639 719/95/637 717/98/640
f 716/97/639 717/98/640 713/77/641
f 718/96/638 719/95/637 716/97/639
f 718/96/638 716/97/639 712/78/642
f 717/98/640 719/95/637 714/94/643
f 717/98/640 714/94/643 711/79/644
f 720/71/645 725/94/645 729/95/646
f 720/71/645 729/95/646 728/96/647
f 726/97/648 729/95/646 727/98/649
f 726/97/648 727/98/649 723/77/650
f 728/96/647 729/95/646 726/97/648
f 728/96/647 726/97/648 722/78/651
f 727/98/649 729/95/646 724/94/652
f 727/98/649 724/94/652 721/79/653
f 730/71/654 734/94/655 739/95/656
f 730/71/654 739/95/656 738/96/657
f 736/97/658 739/95/656 737/98/659
f 736/97/658 737/98/659 733/77/660
f 738/96/657 739/95/656 736/97/658
f 738/96/657 736/97/658 732/78/661
f 737/98/659 739/95/656 735/94/662
f 737/98/659 735/94/662 731/79/663
f 740/71/664 745/94/665 749/95/666
f 740/71/664 749/95/666 748/96/667
f 746/97/668 749/95/666 747/98/669
f 746/97/668 747/98/669 743/77/670
f 748/96/667 749/95/666 746/97/668
f 748/96/667 746/97/668 742/78/671
f 747/98/669 749/95/666 744/94/672
f 747/98/669 744/94/672 741/79/673
f 750/71/674 754/94/675 759/95/676
f 750/71/674 759/95/676 758/96/677
f 756/97/678 759/95/676 757/98/679
f 756/97/678 757/98/679 753/77/680
f 758/96/677 759/95/676 756/97/678
f 758/96/677 756/97/678 752/78/681
f 757/98/679 759/95/676 755/94/682
f 757/98/679 755/94/682 751/79/682
usemtl branch-03
f 763/77/683 764/99/684 766/100/685
f 763/77/683 766/100/685 768/101/686
f 765/102/687 766/100/685 767/103/688
f 765/102/687 767/103/688 760/71/689
f 767/103/688 766/100/685 764/99/684
f 767/103/688 764/99/684 762/78/690
f 768/101/686 766/100/685 765/102/687
f 768/101/686 765/102/687 761/79/691
f 772/77/692 773/99/693 776/100/694
f 772/77/692 776/100/694 778/101/695
f 774/102/696 776/100/694 777/103/697
f 774/102/696 777/103/697 769/71/698
f 777/103/697 776/100/694 773/99/693
f 777/103/697 773/99/693 771/78/699
f 778/101/695 776/100/694 775/102/700
f 778/101/695 775/102/700 770/79/701
f 782/77/702 783/99/703 785/100/704
f 782/77/702 785/100/704 787/101/705
f 784/102/706 785/100/704 786/103/707
f 784/102/706 786/103/707 779/71/708
f 786/103/707 785/100/704 783/99/703
f 786/103/707 783/99/703 781/78/709
f 787/101/705 785/100/704 784/102/706
f 787/101/705 784/102/706 780/79/710
f 791/77/711 792/99/712 794/100/713
f 791/77/711 794/100/713 796/101/714
f 793/102/715 794/100/713 795/103/716
f 793/102/715 795/103/716 788/71/717
f 795/103/716 794/100/713 792/99/712
f 795/103/716 792/99/712 790/78/718
f 796/101/714 794/100/713 793/102/715
f 796/101/714 793/102/715 789/79/719
f 800/77/720 801/99/721 803/100/722
f 800/77/720 803/100/722 805/101/723
f 802/102/724 803/100/722 804/103/725
f 802/102/724 804/103/725 797/71/726
f 804/103/725 803/100/722 801/99/721
f 804/103/725 801/99/721 799/78/727
f 805/101/723 803/100/722 802/102/724
f 805/101/723 802/102/724 798/79/728
f 809/77/729 810/99/730 812/100/731
f 809/77/729 812/100/731 814/101/732
f 811/102/733 812/100/731 813/103/734
f 811/102/733 813/103/734 806/71/735
f 813/103/734 812/100/731 810/99/730
f 813/103/734 810/99/730 808/78/736
f 814/101/732 812/100/731 811/102/733
f 814/101/732 811/102/733 807/79/737
