# Blender 5.1.0
# www.blender.org
mtllib Flowers-02.mtl
o Flowers-02
v 4.579792 0.300293 11.489626
v 5.216487 0.512070 12.049639
v 5.139034 0.381857 10.822963
v 5.775729 0.593634 11.382976
v 5.346252 0.440401 10.890079
v 5.346252 0.440401 10.890079
v 4.708281 0.353412 11.717786
v 4.708281 0.353412 11.717786
v 4.685348 0.303870 11.232701
v 4.685348 0.303870 11.232701
v 4.843130 0.514889 11.400200
v 4.843130 0.514889 11.400200
v 4.843130 0.514889 11.400200
v 4.843130 0.514889 11.400200
v 5.406882 0.551657 11.953764
v 5.406882 0.551657 11.953764
v 4.914120 0.337235 10.959988
v 4.914120 0.337235 10.959988
v 5.589419 0.578280 11.736164
v 5.589419 0.578280 11.736164
v 5.089784 0.563521 11.160030
v 5.089784 0.563521 11.160030
v 5.089784 0.563521 11.160030
v 5.089784 0.563521 11.160030
v 5.649440 0.541247 11.156752
v 5.649440 0.541247 11.156752
v 5.152135 0.634102 11.773253
v 5.152135 0.634102 11.773253
v 5.152135 0.634102 11.773253
v 5.152135 0.634102 11.773253
v 5.409007 0.656796 11.371017
v 5.409007 0.656796 11.371017
v 5.409007 0.656796 11.371017
v 5.409007 0.656796 11.371017
v 4.989615 0.446989 11.965237
v 4.989615 0.446989 11.965237
v 4.971497 -0.046074 10.965766
v 5.756783 -0.081831 11.955850
v 4.891093 0.585422 10.915804
v 5.770354 0.724843 11.902218
v 5.411543 -0.056319 11.275504
v 5.411543 -0.056319 11.275504
v 5.343111 0.743804 11.260515
v 5.343111 0.743804 11.260515
v 4.622487 -0.095031 11.539130
v 5.842879 -0.099323 11.338267
v 4.476986 0.686997 11.773874
v 5.840962 0.788198 11.335422
v 5.122446 -0.065875 11.229871
v 5.122446 -0.065875 11.229871
v 5.062287 0.796627 11.301926
v 5.062287 0.796627 11.301926
v 4.712598 -0.079665 11.158633
v 5.664204 -0.102853 11.928773
v 4.592962 0.679932 11.251888
v 5.675264 0.827783 11.898842
v 5.092974 -0.092481 11.610169
v 5.092974 -0.092481 11.610169
v 5.082223 0.713925 11.644303
v 5.082223 0.713925 11.644303
v 5.747858 -0.097043 11.310122
v 4.711481 -0.102566 11.964694
v 5.755943 0.845146 11.328286
v 4.802369 0.634012 12.075458
v 5.308935 -0.097689 11.722254
v 5.308935 -0.097689 11.722254
v 5.297657 0.721439 11.707790
v 5.297657 0.721439 11.707790
v 5.192770 -0.050420 10.898907
v 5.201367 -0.090762 12.110327
v 5.108660 0.571793 10.903325
v 5.274491 0.634261 12.084573
v 5.756258 -0.079255 11.782951
v 4.629795 -0.065244 11.278411
v 5.754879 0.673604 11.740473
v 4.504267 0.552526 11.417311
v 5.151620 -0.070828 10.917399
v 5.429644 -0.109394 12.099512
v 5.124679 0.764272 10.942637
v 5.475809 0.767712 12.064041
v 5.601177 -0.068409 11.075554
v 4.787046 -0.083263 11.994152
v 5.585129 0.744601 11.075154
v 4.887931 0.537603 12.066873
v 4.620647 0.056532 11.128125
v 4.792510 0.178557 12.158489
v 4.913153 0.274522 11.038004
v 5.270419 0.386503 11.912688
v 5.149536 0.434980 11.338307
v 5.149536 0.434980 11.338307
v 4.638408 0.037515 11.616213
v 4.638408 0.037515 11.616213
v 5.775064 0.661921 11.213156
v 4.808675 0.659235 11.003325
v 5.672984 0.498487 11.456598
v 4.620123 0.481138 11.431434
v 5.157192 0.361752 11.517983
v 5.157192 0.361752 11.517983
v 5.285279 0.694794 10.932454
v 5.285279 0.694794 10.932454
v 5.255264 0.093208 12.237239
v 5.948431 0.248117 11.696905
v 4.912867 0.252734 11.963089
v 5.471069 0.458792 11.159243
v 4.960195 0.435761 11.489962
v 4.960195 0.435761 11.489962
v 5.642419 0.077759 11.932073
v 5.642419 0.077759 11.932073
v 4.538971 0.598769 11.136361
v 4.948391 0.536802 12.126076
v 4.886014 0.538349 11.020650
v 5.290788 0.442677 11.866053
v 5.091396 0.408746 11.317796
v 5.091396 0.408746 11.317796
v 4.555676 0.563749 11.808790
v 4.555676 0.563749 11.808790
v 5.806539 0.078348 11.201044
v 4.922822 0.307868 10.827875
v 5.693496 0.280085 11.513680
v 4.709077 0.511067 11.322657
v 5.206558 0.489086 11.559993
v 5.206558 0.489086 11.559993
v 5.342883 0.092303 10.901377
v 5.342883 0.092303 10.901377
v 5.317394 0.536678 12.181516
v 5.937899 0.731074 11.628457
v 5.022679 0.423404 11.986358
v 5.555575 0.451341 11.161323
v 5.066372 0.337113 11.486895
v 5.066372 0.337113 11.486895
v 5.651123 0.650417 11.954565
v 5.651123 0.650417 11.954565
v 5.239239 -0.073773 10.911739
v 4.863020 -0.105534 12.087409
v 5.211660 0.761429 10.930963
v 4.986501 0.686225 12.142195
v 4.891857 -0.083032 11.444104
v 4.891857 -0.083032 11.444104
v 4.851386 0.745342 11.503011
v 4.851386 0.745342 11.503011
v 5.793819 -0.078055 11.401369
v 4.618500 -0.078653 11.753114
v 5.786338 0.734102 11.389701
v 4.638255 0.558136 11.906128
v 4.798075 0.528973 11.781553
v 5.575693 0.297480 12.060455
v 5.087720 0.528973 10.973983
v 5.865338 0.297480 11.252884
v 5.300817 0.475636 10.943636
v 5.300817 0.475636 10.943636
v 4.984095 0.463494 11.955049
v 4.984095 0.463494 11.955049
v 4.792721 0.556093 11.509815
v 4.792721 0.556093 11.509815
v 5.081734 0.636870 11.621108
v 5.081734 0.636870 11.621108
v 5.081734 0.636870 11.621108
v 5.081734 0.636870 11.621108
v 5.730285 0.270361 11.916093
v 5.730285 0.270361 11.916093
v 4.914718 0.556093 11.169669
v 4.914718 0.556093 11.169669
v 5.827628 0.270361 11.644690
v 5.827628 0.270361 11.644690
v 5.236012 0.633953 11.305381
v 5.236012 0.633953 11.305381
v 5.236012 0.633953 11.305381
v 5.236012 0.633953 11.305381
v 5.682084 0.362135 11.080382
v 5.682084 0.362135 11.080382
v 5.509383 0.509272 11.855785
v 5.509383 0.509272 11.855785
v 5.509383 0.509272 11.855785
v 5.509383 0.509272 11.855785
v 5.609727 0.521282 11.383548
v 5.609727 0.521282 11.383548
v 5.609727 0.521282 11.383548
v 5.609727 0.521282 11.383548
v 5.337881 0.358174 12.081938
v 5.337881 0.358174 12.081938
vn -0.6407 0.7663 -0.0480
vn -0.6407 0.7663 -0.0478
vn 0.0338 0.9098 -0.4138
vn 0.0338 0.9098 -0.4137
vn -0.2078 0.8760 0.4352
vn -0.5463 0.7424 -0.3878
vn -0.5463 0.7424 -0.3877
vn -0.5464 0.7426 -0.3874
vn 0.1393 0.9744 0.1763
vn -0.2766 0.8285 -0.4869
vn -0.2766 0.8284 -0.4870
vn -0.2463 0.9654 -0.0860
vn -0.2465 0.9653 -0.0860
vn 0.1710 0.9842 -0.0452
vn 0.1711 0.9842 -0.0452
vn -0.5402 0.8074 0.2371
vn -0.5403 0.8074 0.2371
vn -0.8635 -0.0080 0.5043
vn -0.8635 -0.0079 0.5043
vn -0.5887 -0.0245 0.8080
vn -0.5887 -0.0246 0.8080
vn -0.0953 -0.0427 0.9945
vn 0.5889 -0.0764 0.8046
vn 0.5889 -0.0765 0.8046
vn -0.4415 -0.0021 0.8973
vn -0.4415 -0.0021 0.8972
vn -0.6903 -0.1156 0.7142
vn -0.4910 0.0788 -0.8676
vn -0.4910 0.0789 -0.8676
vn -0.4911 0.0788 -0.8675
vn -0.6616 0.0004 -0.7498
vn -0.6617 0.0004 -0.7498
vn -0.9973 -0.0070 0.0728
vn -0.9973 -0.0069 0.0728
vn 0.3234 0.0961 -0.9414
vn 0.3235 0.0962 -0.9413
vn 0.3234 0.0962 -0.9413
vn -0.9646 0.0124 0.2636
vn -0.9645 0.0124 0.2636
vn -0.7863 0.0774 -0.6130
vn -0.7862 0.0775 -0.6131
vn -0.7862 0.0775 -0.6130
vn 0.5939 -0.8031 -0.0470
vn 0.5936 -0.8034 -0.0472
vn 0.5013 -0.8637 -0.0518
vn 0.5013 -0.8637 -0.0520
vn 0.1907 -0.8646 -0.4649
vn 0.1906 -0.8646 -0.4648
vn -0.0658 -0.8825 -0.4656
vn -0.0657 -0.8826 -0.4655
vn -0.0658 -0.8826 -0.4655
vn -0.2335 -0.9155 -0.3275
vn -0.2335 -0.9156 -0.3275
vn -0.0818 -0.9010 -0.4261
vn -0.0819 -0.9010 -0.4261
vn -0.2962 -0.9505 -0.0935
vn -0.2963 -0.9505 -0.0935
vn -0.2962 -0.9506 -0.0935
vn -0.1707 -0.9774 0.1248
vn -0.1707 -0.9774 0.1247
vn -0.3139 -0.8423 0.4381
vn -0.3144 -0.8421 0.4383
vn -0.3143 -0.8421 0.4382
vn -0.3440 -0.8717 0.3490
vn -0.3439 -0.8717 0.3491
vn 0.3426 -0.9285 0.1431
vn 0.3426 -0.9285 0.1430
vn 0.3426 -0.9285 0.1429
vn 0.3426 -0.9286 0.1429
vn 0.3804 -0.9068 0.1818
vn 0.3804 -0.9068 0.1817
vn -0.9953 0.0450 0.0853
vn -0.9953 0.0450 0.0854
vn -0.8418 -0.0091 -0.5396
vn -0.8419 -0.0091 -0.5396
vn -0.3547 0.0938 -0.9303
vn -0.3547 0.0937 -0.9303
vn -0.1985 0.9391 0.2806
vn -0.1984 0.9391 0.2807
vn 0.3576 0.8692 -0.3413
vn 0.3576 0.8693 -0.3413
vn 0.4057 0.6977 0.5905
vn 0.4057 0.6976 0.5906
vn 0.4057 0.6976 0.5905
vn -0.2144 0.9722 -0.0946
vn -0.2143 0.9722 -0.0945
vn 0.6666 0.7211 0.1889
vn 0.6666 0.7211 0.1888
vn 0.0173 0.9509 -0.3089
vn 0.0173 0.9509 -0.3090
vn 0.2527 0.9631 0.0926
vn 0.2526 0.9631 0.0927
vn 0.6457 0.7624 -0.0426
vn 0.6458 0.7623 -0.0426
vn 0.0211 0.8606 0.5088
vn 0.0212 0.8607 0.5087
vt 0.000000 0.000000
vt 0.324074 0.000000
vt 0.260954 0.327961
vt 0.000000 0.334749
vt 0.281579 1.000000
vt 0.296823 0.657791
vt 0.669396 0.707454
vt 0.678811 1.000000
vt 1.000000 0.272518
vt 0.731539 0.255699
vt 0.692672 0.000000
vt 1.000000 0.000000
vt 0.000000 0.675992
vt 1.000000 0.544797
vt 0.000000 1.000000
vt 1.000000 1.000000
vt 0.500000 0.000000
vt 0.500000 1.000000
vt 0.000000 0.510166
vt 0.449704 0.263710
vt 0.460477 1.000000
vt 1.000000 0.459592
vt 0.470851 1.000000
vt 0.473875 1.000000
vt 0.506543 1.000000
vt 0.490245 1.000000
vt 0.517017 1.000000
s 1
usemtl flowers-01.001
f 1/1/1 7/2/2 11/3/1
f 1/1/1 11/3/1 9/4/1
f 6/5/3 24/6/3 32/7/3
f 6/5/3 32/7/3 25/8/4
f 15/9/5 29/10/5 36/11/5
f 15/9/5 36/11/5 2/12/5
f 10/4/6 12/3/7 21/6/8
f 10/4/6 21/6/8 17/13/7
f 19/14/9 33/7/9 30/10/9
f 19/14/9 30/10/9 16/9/9
f 18/13/10 22/6/11 5/5/10
f 18/13/10 5/5/10 3/15/10
f 28/10/12 31/7/13 23/6/13
f 28/10/12 23/6/13 14/3/13
f 26/8/14 34/7/14 20/14/15
f 26/8/14 20/14/15 4/16/14
f 35/11/16 27/10/17 13/3/16
f 35/11/16 13/3/16 8/2/16
usemtl shrubbery-1-01
f 41/17/18 38/12/19 40/16/19
f 41/17/18 40/16/19 43/18/18
f 37/1/20 42/17/21 44/18/20
f 37/1/20 44/18/20 39/15/21
f 49/17/22 46/12/22 48/16/22
f 49/17/22 48/16/22 51/18/22
f 45/1/23 50/17/23 52/18/23
f 45/1/23 52/18/23 47/15/24
usemtl shrubbery-1-02
f 58/17/25 54/12/26 56/16/25
f 58/17/25 56/16/25 60/18/25
f 53/1/27 57/17/27 59/18/27
f 53/1/27 59/18/27 55/15/27
f 66/17/28 62/12/29 64/16/30
f 66/17/28 64/16/30 68/18/30
f 61/1/31 65/17/32 67/18/31
f 61/1/31 67/18/31 63/15/31
f 69/1/33 70/12/34 72/16/33
f 69/1/33 72/16/33 71/15/33
f 73/1/35 74/12/36 76/16/37
f 73/1/35 76/16/37 75/15/35
usemtl shrubbery-1-03
f 77/1/38 78/12/38 80/16/39
f 77/1/38 80/16/39 79/15/38
f 81/1/40 82/12/41 84/16/42
f 81/1/40 84/16/42 83/15/40
f 87/19/43 90/20/44 92/21/44
f 87/19/43 92/21/44 85/15/44
f 91/21/45 89/20/46 88/22/45
f 91/21/45 88/22/45 86/16/45
f 95/19/47 98/20/47 100/23/48
f 95/19/47 100/23/48 93/15/47
f 99/23/49 97/20/49 96/22/50
f 99/23/49 96/22/50 94/16/51
f 103/19/52 105/20/53 107/24/53
f 103/19/52 107/24/53 101/15/53
f 108/24/54 106/20/55 104/22/55
f 108/24/54 104/22/55 102/16/54
f 111/19/56 113/20/57 115/25/56
f 111/19/56 115/25/56 109/15/58
f 116/25/59 114/20/60 112/22/59
f 116/25/59 112/22/59 110/16/60
f 119/19/61 122/20/62 124/26/63
f 119/19/61 124/26/63 117/15/63
f 123/26/64 121/20/65 120/22/65
f 123/26/64 120/22/65 118/16/64
f 127/19/66 129/20/67 131/27/68
f 127/19/66 131/27/68 125/15/69
f 132/27/70 130/20/70 128/22/70
f 132/27/70 128/22/70 126/16/71
usemtl shrubbery-1-04
f 137/17/72 134/12/72 136/16/73
f 137/17/72 136/16/73 139/18/73
f 133/1/74 138/17/75 140/18/75
f 133/1/74 140/18/75 135/15/74
f 141/1/76 142/12/76 144/16/77
f 141/1/76 144/16/77 143/15/77
usemtl flowers-01.002
f 145/1/78 151/2/79 156/3/78
f 145/1/78 156/3/78 154/4/78
f 150/5/80 168/6/81 176/7/81
f 150/5/80 176/7/81 169/8/81
f 159/9/82 173/10/83 180/11/82
f 159/9/82 180/11/82 146/12/84
f 153/4/85 155/3/85 165/6/86
f 153/4/85 165/6/86 161/13/85
f 164/14/87 178/7/88 174/10/87
f 164/14/87 174/10/87 160/9/87
f 162/13/89 166/6/90 149/5/89
f 162/13/89 149/5/89 147/15/90
f 172/10/91 175/7/92 167/6/92
f 172/10/91 167/6/92 158/3/92
f 170/8/93 177/7/94 163/14/93
f 170/8/93 163/14/93 148/16/93
f 179/11/95 171/10/95 157/3/95
f 179/11/95 157/3/95 152/2/96
