# Blender 5.1.0
# www.blender.org
mtllib Bush-02.mtl
o Bush-02
v 2.601581 0.103547 4.466943
v 2.062620 0.103547 5.142666
v 2.316606 0.153621 4.764809
v 2.508484 0.416650 5.035524
v 2.271281 0.296668 5.309094
v 2.818099 0.303414 4.639639
v 2.674633 0.467627 5.109340
v 2.952135 0.399725 4.746547
v 2.438293 0.417409 5.442305
v 2.426382 0.827251 5.626599
v 2.325237 0.827251 4.561282
v 2.287400 0.794831 5.129204
v 2.438207 0.205992 5.000480
v 2.484736 0.368154 4.546138
v 2.592359 0.351525 5.610841
v 2.659692 -0.050646 5.050160
v 2.731436 0.067197 5.597637
v 2.654771 0.018102 4.529994
v 2.981468 0.818875 4.757750
v 2.430468 0.818875 5.448567
v 2.837693 -0.004470 4.643073
v 2.286692 -0.004471 5.333890
v 2.781595 0.804743 5.135225
v 2.593285 -0.010864 5.006901
v 2.687760 0.303866 5.180682
v 2.381609 0.423845 5.409597
v 2.930392 0.409442 4.717010
v 3.072519 0.179169 4.506374
v 2.229301 0.179169 4.696281
v 2.663846 0.229243 4.560433
v 2.644148 0.492272 4.891667
v 2.287943 0.372291 4.956663
v 3.133369 0.379036 4.776562
v 2.727574 0.543249 5.053205
v 3.171039 0.475348 4.943821
v 2.334881 0.493032 5.165074
v 3.196753 0.797989 4.675824
v 2.734175 0.797989 5.718977
v 3.039968 0.739219 5.272230
v 2.826246 0.181775 5.070515
v 2.964933 0.373823 4.573026
v 2.487976 0.349926 5.609802
v 2.580413 -0.009669 5.012694
v 2.334775 0.138857 5.541866
v 2.756897 0.084750 4.480774
v 2.173812 0.826447 5.207486
v 2.952552 0.826447 4.651870
v 2.398251 -0.007310 5.522056
v 3.176991 -0.007310 4.966439
v 2.536901 0.791298 4.837699
v 2.775926 -0.023211 5.202497
v 2.554563 0.293096 5.003563
v 2.258506 0.441545 5.326192
v 3.042710 0.419664 4.778234
v 3.169240 0.014680 5.245747
v 2.886470 0.014680 4.447080
v 3.053987 0.088542 4.807071
v 2.696804 0.335994 5.010533
v 2.853662 0.186988 5.357479
v 2.552254 0.196155 4.565410
v 2.496186 0.359828 5.049885
v 2.349123 0.274724 4.637330
v 2.678316 0.255644 5.419560
v 2.772928 0.216062 5.672052
v 3.254967 0.216061 4.975297
v 3.061873 0.289506 5.322340
v 2.690315 0.541370 5.153546
v 2.499346 0.392022 5.482779
v 2.965219 0.401405 4.774840
v 2.541227 0.567415 5.014091
v 2.788799 0.482328 4.652787
v 2.347067 0.462710 5.377427
v 2.179482 0.738455 4.786036
v 2.566105 0.738455 5.539927
v 2.433833 0.802481 5.163556
v 2.763366 0.559471 4.912985
v 2.452133 0.523555 4.646211
v 2.854005 0.510434 5.392281
v 2.873876 0.395416 4.889871
v 3.002172 0.358317 5.316296
v 2.580737 0.392601 4.580258
v 2.674578 0.730315 4.564797
v 2.169227 0.730315 5.244833
v 2.448368 0.794342 4.959822
v 2.818791 0.551332 5.144659
v 2.920519 0.515416 4.747562
v 2.428923 0.502295 5.437819
v 2.888372 0.387277 5.233570
v 2.562575 0.350178 5.537139
v 3.036525 0.384462 4.833768
v 3.081606 0.608434 5.380136
v 2.210577 0.608435 5.380136
v 2.631671 0.566781 5.466067
v 2.665808 0.201397 5.316293
v 3.081605 0.204985 5.184717
v 2.210577 0.206435 5.185492
v 2.210576 0.020876 5.058468
v 3.081605 0.041939 5.072996
v 2.633845 -0.025991 5.105477
v 2.414420 0.663613 4.730071
v 3.043082 0.663614 5.101541
v 2.294386 0.005202 4.933214
v 2.923049 0.005203 5.304684
v 2.646755 -0.005073 5.100840
v 2.778450 0.640900 4.855461
v 2.718768 0.318687 4.900210
v 2.363101 0.303742 4.816922
v 2.991979 0.305046 5.188028
v 2.938022 0.752202 4.765580
v 2.842073 0.288615 4.820585
v 2.576250 0.793383 4.675307
v 2.401221 0.380597 4.683444
v 3.070989 0.793383 5.029407
v 3.059746 0.297230 5.188713
v 2.665131 -0.046938 5.002039
v 2.812350 -0.000728 5.193570
v 2.348655 0.060060 4.830567
v 2.665771 0.004314 5.066599
v 2.440964 0.792767 5.059042
v 2.466082 0.396129 5.091280
v 2.647015 0.808118 5.296331
v 2.710074 0.452367 5.396802
v 2.484117 0.808118 4.813002
v 2.497707 0.379745 4.734485
v 2.672826 0.011259 4.918303
v 2.803690 0.011259 5.306582
v 2.094474 0.658803 5.058305
v 2.869334 0.658802 4.586822
v 2.396641 0.598406 4.717035
v 2.953666 0.269175 4.725417
v 2.182801 0.253654 5.203468
v 2.490183 0.194562 4.837749
v 2.642365 -0.048610 5.061358
v 3.067384 -0.046407 4.912308
v 2.256522 0.051560 5.324623
v 3.046885 0.694345 5.161510
v 2.286557 0.694345 5.171346
v 3.043855 0.004704 4.927269
v 2.283527 0.004704 4.937105
v 2.683351 0.662756 5.286367
v 2.650360 -0.009587 4.986718
v 2.285580 0.350409 5.095809
v 3.045856 0.336541 5.081953
v 2.668126 0.308504 5.221814
v 2.439764 0.008862 5.455300
v 3.054085 0.008862 5.225194
v 2.760580 0.083471 5.413782
v 2.977725 0.230031 5.021334
v 2.360074 0.238532 5.242548
v 2.696931 0.316854 5.208469
v 2.611786 0.429162 4.950774
v 2.898855 0.380246 4.810772
v 2.304928 0.342309 5.095322
vn -0.3598 0.7912 -0.4946
vn -0.4684 0.7904 -0.3949
vn -0.4153 0.8658 -0.2793
vn -0.2940 0.8462 -0.4444
vn -0.3081 0.9176 -0.2513
vn -0.2130 0.9002 -0.3798
vn -0.5246 0.8331 -0.1752
vn -0.5960 0.7630 -0.2502
vn -0.4201 0.9045 -0.0742
vn -0.9058 -0.3091 0.2896
vn -0.9492 -0.2962 0.1064
vn -0.8987 -0.4366 0.0427
vn -0.8677 -0.4072 0.2852
vn -0.8359 -0.5428 0.0818
vn -0.8083 -0.5201 0.2760
vn -0.9106 -0.3869 -0.1455
vn -0.9555 -0.2652 -0.1293
vn -0.8248 -0.5413 -0.1635
vn 0.8845 -0.1386 0.4455
vn 0.7862 -0.1213 0.6060
vn 0.7294 -0.2675 0.6296
vn 0.8630 -0.2402 0.4444
vn 0.7286 -0.3792 0.5704
vn 0.6087 -0.2209 0.7621
vn 0.5740 -0.3883 0.7209
vn 0.8245 -0.3602 0.4365
vn 0.6222 -0.0935 0.7773
vn 0.0288 0.7912 -0.6109
vn -0.1183 0.7904 -0.6011
vn -0.1491 0.8658 -0.4777
vn 0.0487 0.8463 -0.5305
vn -0.0832 0.9176 -0.3887
vn 0.0714 0.9002 -0.4296
vn -0.2996 0.8331 -0.4650
vn -0.3084 0.7631 -0.5680
vn -0.2813 0.9045 -0.3207
vn 0.8853 -0.4444 0.1372
vn 0.7937 -0.4780 0.3762
vn 0.7367 -0.6104 0.2910
vn 0.8246 -0.5582 0.0913
vn 0.6434 -0.7105 0.2850
vn 0.7222 -0.6911 0.0288
vn 0.6177 -0.5796 0.5315
vn 0.6787 -0.4818 0.5542
vn 0.5347 -0.6847 0.4952
vn -0.7309 -0.2846 -0.6203
vn -0.5326 -0.3157 -0.7852
vn -0.5372 -0.4607 -0.7065
vn -0.6983 -0.4130 -0.5846
vn -0.4690 -0.5719 -0.6731
vn -0.3315 -0.4328 -0.8383
vn -0.3126 -0.5521 -0.7729
vn -0.6358 -0.5691 -0.5214
vn -0.3427 -0.3254 -0.8813
vn 0.5450 0.8370 0.0486
vn 0.4561 0.8707 -0.1838
vn 0.3452 0.9349 -0.0821
vn 0.4380 0.8917 0.1140
vn 0.2185 0.9719 -0.0881
vn 0.2840 0.9383 0.1971
vn 0.2691 0.9015 -0.3388
vn 0.3608 0.8572 -0.3674
vn 0.1561 0.9411 -0.2999
vn 0.2872 0.8313 0.4758
vn 0.4240 0.8652 0.2677
vn 0.2772 0.9309 0.2377
vn 0.1719 0.8875 0.4276
vn 0.2081 0.9692 0.1316
vn 0.0150 0.9360 0.3516
vn 0.4405 0.8974 0.0255
vn 0.5170 0.8520 0.0829
vn 0.3430 0.9383 -0.0431
vn 0.3490 0.8300 -0.4351
vn 0.4921 0.8401 -0.2283
vn 0.5765 0.7432 -0.3396
vn 0.4304 0.7453 -0.5092
vn 0.6776 0.6546 -0.3352
vn 0.5277 0.6071 -0.5941
vn 0.6650 0.7426 -0.0796
vn 0.5869 0.8083 -0.0461
vn 0.7497 0.6509 -0.1193
vn 0.5446 0.8300 0.1207
vn 0.4222 0.8401 0.3405
vn 0.5595 0.7431 0.3670
vn 0.6470 0.7453 0.1610
vn 0.6002 0.6546 0.4597
vn 0.7661 0.6072 0.2107
vn 0.3653 0.7426 0.5613
vn 0.3008 0.8083 0.5061
vn 0.4384 0.6509 0.6198
vn -0.0113 -0.4099 0.9121
vn 0.0150 -0.5168 0.8560
vn 0.2192 -0.5278 0.8206
vn 0.2436 -0.3882 0.8888
vn -0.0148 -0.6344 0.7729
vn 0.1947 -0.6340 0.7484
vn -0.2151 -0.5216 0.8256
vn -0.2397 -0.4064 0.8817
vn -0.1914 -0.6126 0.7669
vn 0.5875 -0.4685 -0.6598
vn 0.4572 -0.4834 -0.7465
vn 0.4649 -0.3553 -0.8110
vn 0.6374 -0.3678 -0.6771
vn 0.5034 -0.2418 -0.8295
vn 0.2860 -0.3704 -0.8837
vn 0.2691 -0.2245 -0.9366
vn 0.2948 -0.4857 -0.8229
vn 0.6853 -0.2438 -0.6862
vn 0.2339 -0.3279 -0.9153
vn 0.2473 -0.1455 -0.9580
vn 0.6236 -0.1897 -0.7584
vn 0.5581 -0.3862 -0.7344
vn 0.8634 -0.1999 -0.4633
vn 0.8045 -0.3955 -0.4432
vn 0.4857 -0.5750 -0.6584
vn 0.2128 -0.4960 -0.8419
vn 0.7028 -0.5881 -0.4002
vn -0.8648 -0.4175 0.2790
vn -0.9352 -0.2162 0.2805
vn -0.9656 -0.2419 -0.0949
vn -0.8903 -0.4514 -0.0597
vn -0.7743 -0.1639 0.6112
vn -0.7711 0.0219 0.6364
vn -0.9666 -0.0116 0.2560
vn -0.9916 -0.0396 -0.1229
vn -0.7506 -0.3423 0.5651
vn -0.7369 -0.3547 -0.5755
vn -0.4963 -0.3689 -0.7859
vn -0.4459 -0.5232 -0.7262
vn -0.6679 -0.5210 -0.5316
vn -0.3646 -0.6676 -0.6491
vn -0.5815 -0.6616 -0.4734
vn -0.1806 -0.4964 -0.8491
vn -0.1889 -0.3431 -0.9201
vn -0.1672 -0.6342 -0.7549
vn 0.3436 -0.1937 0.9189
vn 0.0282 -0.1981 0.9798
vn 0.0117 -0.3571 0.9340
vn 0.2958 -0.3583 0.8855
vn -0.0015 -0.5122 0.8588
vn -0.2735 -0.3409 0.8994
vn -0.2335 -0.4910 0.8393
vn 0.2419 -0.5044 0.8289
vn -0.3061 -0.1805 0.9347
vn -0.0669 0.6574 0.7506
vn 0.2398 0.6898 0.6831
vn 0.2091 0.7976 0.5658
vn -0.0775 0.7758 0.6262
vn 0.1841 0.8877 0.4220
vn -0.0857 0.8663 0.4921
vn 0.4725 0.7616 0.4436
vn 0.5354 0.6502 0.5391
vn 0.3986 0.8524 0.3383
vt 0.000000 0.000000
vt 0.475004 0.000000
vt 0.581436 0.594393
vt 0.000000 0.491831
vt 0.528337 0.841717
vt 0.000000 0.772813
vt 1.000000 0.474417
vt 1.000000 0.000000
vt 1.000000 0.825159
vt 0.515655 0.900790
vt 0.000000 0.798855
vt 1.000000 0.852022
vt 0.494355 1.000000
vt 1.000000 1.000000
vt 0.000000 1.000000
vt 0.533479 0.000000
vt 0.447807 0.563622
vt 0.000000 0.448746
vt 0.488817 0.828398
vt 0.000000 0.780053
vt 1.000000 0.474699
vt 1.000000 0.717269
vt 0.515396 1.000000
vt 0.483052 0.791177
vt 0.000000 0.683388
vt 1.000000 0.746000
vt 0.516556 0.000000
vt 0.477364 0.470556
vt 0.000000 0.535225
vt 0.514059 0.824646
vt 0.000000 0.768579
vt 1.000000 0.533264
vt 1.000000 0.798776
vt 0.532232 1.000000
vt 0.124045 0.440587
vt 0.259966 0.000000
vt 0.602475 0.000000
vt 0.557025 0.488493
vt 0.860970 0.000000
vt 0.943530 0.531260
vt 0.519214 0.894871
vt 0.166406 0.802314
vt 0.747592 0.869968
vt 0.509433 1.000000
vt 0.672370 1.000000
vt 0.189556 1.000000
vt 0.480173 0.000000
vt 0.499095 0.494221
vt 0.000000 0.504135
vt 0.514279 0.890815
vt 0.000000 0.782439
vt 1.000000 0.484268
vt 1.000000 0.917591
vt 0.518459 1.000000
vt 0.515340 0.918547
vt 0.000000 0.792526
vt 1.000000 0.898691
s 1
usemtl branch-03-1
f 1/1/1 3/2/2 4/3/3
f 1/1/1 4/3/3 6/4/4
f 6/4/4 4/3/3 7/5/5
f 6/4/4 7/5/5 8/6/6
f 5/7/7 4/3/3 3/2/2
f 5/7/7 3/2/2 2/8/8
f 9/9/9 7/5/5 4/3/3
f 9/9/9 4/3/3 5/7/7
f 10/1/10 12/2/11 13/3/12
f 10/1/10 13/3/12 15/4/13
f 15/4/13 13/3/12 16/10/14
f 15/4/13 16/10/14 17/11/15
f 14/7/16 13/3/12 12/2/11
f 14/7/16 12/2/11 11/8/17
f 18/12/18 16/10/14 13/3/12
f 18/12/18 13/3/12 14/7/16
f 19/1/19 23/2/20 25/3/21
f 19/1/19 25/3/21 27/4/22
f 24/13/23 25/3/21 26/7/24
f 24/13/23 26/7/24 22/14/25
f 27/4/22 25/3/21 24/13/23
f 27/4/22 24/13/23 21/15/26
f 26/7/24 25/3/21 23/2/20
f 26/7/24 23/2/20 20/8/27
f 28/1/28 30/2/29 31/3/30
f 28/1/28 31/3/30 33/4/31
f 33/4/31 31/3/30 34/5/32
f 33/4/31 34/5/32 35/6/33
f 32/7/34 31/3/30 30/2/29
f 32/7/34 30/2/29 29/8/35
f 36/9/36 34/5/32 31/3/30
f 36/9/36 31/3/30 32/7/34
usemtl branch-02-1
f 37/1/37 39/16/38 40/17/39
f 37/1/37 40/17/39 41/18/40
f 41/18/40 40/17/39 43/19/41
f 41/18/40 43/19/41 45/20/42
f 42/21/43 40/17/39 39/16/38
f 42/21/43 39/16/38 38/8/44
f 44/22/45 43/19/41 40/17/39
f 44/22/45 40/17/39 42/21/43
f 46/1/46 50/16/47 52/17/48
f 46/1/46 52/17/48 53/18/49
f 51/23/50 52/17/48 54/21/51
f 51/23/50 54/21/51 49/14/52
f 53/18/49 52/17/48 51/23/50
f 53/18/49 51/23/50 48/15/53
f 54/21/51 52/17/48 50/16/47
f 54/21/51 50/16/47 47/8/54
f 55/1/55 57/16/56 58/17/57
f 55/1/55 58/17/57 59/18/58
f 59/18/58 58/17/57 61/24/59
f 59/18/58 61/24/59 63/25/60
f 60/21/61 58/17/57 57/16/56
f 60/21/61 57/16/56 56/8/62
f 62/26/63 61/24/59 58/17/57
f 62/26/63 58/17/57 60/21/61
f 64/1/64 66/16/65 67/17/66
f 64/1/64 67/17/66 68/18/67
f 68/18/67 67/17/66 70/24/68
f 68/18/67 70/24/68 72/25/69
f 69/21/70 67/17/66 66/16/65
f 69/21/70 66/16/65 65/8/71
f 71/26/72 70/24/68 67/17/66
f 71/26/72 67/17/66 69/21/70
f 73/1/73 75/16/74 76/17/75
f 73/1/73 76/17/75 77/18/76
f 77/18/76 76/17/75 79/24/77
f 77/18/76 79/24/77 81/25/78
f 78/21/79 76/17/75 75/16/74
f 78/21/79 75/16/74 74/8/80
f 80/26/81 79/24/77 76/17/75
f 80/26/81 76/17/75 78/21/79
f 82/1/82 84/16/83 85/17/84
f 82/1/82 85/17/84 86/18/85
f 86/18/85 85/17/84 88/24/86
f 86/18/85 88/24/86 90/25/87
f 87/21/88 85/17/84 84/16/83
f 87/21/88 84/16/83 83/8/89
f 89/26/90 88/24/86 85/17/84
f 89/26/90 85/17/84 87/21/88
usemtl branch-01-1
f 93/27/91 94/28/92 95/29/93
f 93/27/91 95/29/93 91/1/94
f 95/29/93 94/28/92 99/30/95
f 95/29/93 99/30/95 98/31/96
f 96/32/97 94/28/92 93/27/91
f 96/32/97 93/27/91 92/8/98
f 97/33/99 99/30/95 94/28/92
f 97/33/99 94/28/92 96/32/97
f 103/14/100 104/34/101 106/28/102
f 103/14/100 106/28/102 108/32/103
f 105/27/104 106/28/102 107/29/105
f 105/27/104 107/29/105 100/1/106
f 107/29/105 106/28/102 104/34/101
f 107/29/105 104/34/101 102/15/107
f 108/32/103 106/28/102 105/27/104
f 108/32/103 105/27/104 101/8/108
usemtl branch-04-1
f 112/35/109 111/36/110 109/37/111
f 112/35/109 109/37/111 110/38/112
f 113/39/113 114/40/114 110/38/112
f 113/39/113 110/38/112 109/37/111
f 115/41/115 117/42/116 112/35/109
f 115/41/115 112/35/109 110/38/112
f 116/43/117 115/41/115 110/38/112
f 116/43/117 110/38/112 114/40/114
f 118/44/118 120/38/119 124/40/120
f 118/44/118 124/40/120 125/45/121
f 122/35/122 121/36/123 119/37/124
f 122/35/122 119/37/124 120/38/119
f 123/39/125 124/40/120 120/38/119
f 123/39/125 120/38/119 119/37/124
f 126/46/126 122/35/122 120/38/119
f 126/46/126 120/38/119 118/44/118
usemtl branch-05-1
f 127/1/127 129/47/128 132/48/129
f 127/1/127 132/48/129 131/49/130
f 131/49/130 132/48/129 133/50/131
f 131/49/130 133/50/131 135/51/132
f 130/52/133 132/48/129 129/47/128
f 130/52/133 129/47/128 128/8/134
f 134/53/135 133/50/131 132/48/129
f 134/53/135 132/48/129 130/52/133
f 136/1/136 140/47/137 144/48/138
f 136/1/136 144/48/138 143/49/139
f 141/54/140 144/48/138 142/52/141
f 141/54/140 142/52/141 139/14/142
f 143/49/139 144/48/138 141/54/140
f 143/49/139 141/54/140 138/15/143
f 142/52/141 144/48/138 140/47/137
f 142/52/141 140/47/137 137/8/144
f 145/1/145 147/47/146 150/48/147
f 145/1/145 150/48/147 149/49/148
f 149/49/148 150/48/147 151/55/149
f 149/49/148 151/55/149 153/56/150
f 148/52/151 150/48/147 147/47/146
f 148/52/151 147/47/146 146/8/152
f 152/57/153 151/55/149 150/48/147
f 152/57/153 150/48/147 148/52/151
