# Blender 5.1.0
# www.blender.org
mtllib Bush-01.mtl
o Bush-01
v 2.237385 0.005406 7.567547
v 2.960922 0.005406 8.008368
v 2.603729 0.079855 7.834966
v 2.752258 0.329274 7.451671
v 2.411568 0.179083 7.281655
v 3.145391 0.188323 7.705592
v 2.882989 0.353296 7.294490
v 3.257508 0.267517 7.521569
v 2.508349 0.248284 7.122804
v 3.194148 0.652972 7.229083
v 3.051124 0.652972 8.214386
v 3.202848 0.601288 7.767060
v 2.975799 0.111050 7.647911
v 2.975185 0.279944 7.197299
v 2.818578 0.258929 8.180630
v 2.755653 -0.057313 7.657213
v 2.673874 0.073306 8.159625
v 2.778686 0.025723 7.168775
v 2.929740 0.823622 7.218059
v 2.676638 0.823622 8.140601
v 2.557082 -0.016759 7.115819
v 2.303980 -0.016759 8.038362
v 2.881642 0.788194 7.734065
v 2.465960 -0.032787 7.602083
v 2.763224 0.286033 7.616591
v 2.789114 0.435662 7.179478
v 2.526939 0.413608 8.099531
v 3.267441 0.214736 7.640586
v 2.489209 0.214736 7.305649
v 2.867551 0.288764 7.426400
v 2.775463 0.542630 7.823976
v 3.135927 0.392095 7.946161
v 2.349924 0.401553 7.629280
v 2.668200 0.568882 7.997668
v 2.265117 0.483119 7.826330
v 3.062725 0.463345 8.116247
v 3.140129 0.734930 7.507016
v 2.364327 0.734930 7.166487
v 2.704530 0.799466 7.374844
v 2.607185 0.554524 7.777214
v 3.016973 0.518323 7.787591
v 2.234284 0.505098 7.462755
v 2.536080 0.389166 7.864912
v 2.167357 0.351771 7.615228
v 2.958884 0.386328 7.919933
v 3.157045 0.651708 8.122129
v 3.119584 0.651708 7.275711
v 3.083062 0.716244 7.672973
v 2.679105 0.471302 7.763507
v 2.850930 0.435101 8.135678
v 2.796349 0.421876 7.290017
v 2.569010 0.305944 7.738490
v 2.629996 0.268549 7.297379
v 2.706542 0.303106 8.142068
v 2.845503 0.824433 8.107555
v 2.020987 0.824433 7.425422
v 2.395626 0.791755 7.853922
v 2.411328 0.198237 7.656270
v 2.123116 0.361688 7.301976
v 2.951780 0.344927 7.979095
v 2.603124 -0.060440 7.534870
v 3.040832 0.058340 7.871455
v 2.231991 0.008854 7.170375
v 2.499852 0.094978 7.043127
v 2.112589 0.094978 7.815854
v 2.282775 0.145449 7.393574
v 2.526579 0.410568 7.618659
v 2.351203 0.289634 7.935440
v 2.747453 0.296432 7.167216
v 2.704417 0.461950 7.656449
v 2.900730 0.393509 7.244033
v 2.542192 0.411334 8.031157
v 3.200581 0.171200 7.400975
v 2.426083 0.171200 7.017266
v 2.849140 0.221672 7.185511
v 2.625178 0.486791 7.430346
v 2.307595 0.365856 7.256428
v 3.077631 0.372655 7.649144
v 2.588205 0.538172 7.608356
v 3.001519 0.469732 7.802772
v 2.212757 0.487556 7.447854
v 3.112543 0.585914 7.889004
v 2.295806 0.585915 8.191711
v 2.720516 0.543929 8.125943
v 2.700475 0.175642 7.973642
v 3.044629 0.179258 7.705766
v 2.228161 0.180721 8.009200
v 2.184016 -0.006313 7.890094
v 3.005802 0.014917 7.601008
v 2.597239 -0.053553 7.787075
v 2.359102 0.663314 7.319239
v 3.076183 0.663316 7.457084
v 2.314561 -0.000329 7.550952
v 3.031642 -0.000327 7.688798
v 2.702811 -0.010685 7.590006
v 2.744095 0.640421 7.314598
v 2.702988 0.315648 7.376843
v 2.340060 0.300584 7.418304
v 3.057220 0.301899 7.555736
v 2.988533 0.748787 7.506352
v 2.879711 0.281515 7.486619
v 2.769966 0.790295 7.204265
v 2.630846 0.374229 7.097744
v 2.920294 0.790295 7.793803
v 2.809077 0.290199 7.908413
v 2.627485 -0.056704 7.511434
v 2.616716 -0.010126 7.752767
v 2.495868 0.051145 7.176416
v 2.555178 -0.005045 7.708500
v 2.734283 0.789674 7.572425
v 2.694451 0.389884 7.563283
v 2.424677 0.805147 7.518506
v 2.312342 0.446569 7.480405
v 2.856161 0.805147 7.790470
v 2.895195 0.373370 7.859940
v 2.643337 0.001955 7.827956
v 2.296707 0.001955 7.609475
v 2.273785 0.722936 8.065168
v 2.324788 0.722936 7.159573
v 2.164017 0.662059 7.622764
v 2.486768 0.330212 7.168695
v 2.443439 0.314567 8.074723
v 2.316489 0.255006 7.614162
v 2.586968 0.009901 7.615601
v 2.705191 0.012123 7.180997
v 2.585036 0.110868 8.082698
v 2.332378 0.653003 7.870008
v 2.915790 0.653003 7.382334
v 2.482620 -0.042119 8.049745
v 3.066032 -0.042119 7.562071
v 2.535463 0.621163 7.543659
v 2.750236 -0.056523 7.755203
v 2.964240 0.306333 7.440295
v 2.383406 0.292355 7.931054
v 2.588026 0.264096 7.584107
v 2.678359 -0.000458 7.360312
v 2.347245 -0.000458 7.926618
v 2.455785 0.074743 7.595061
v 2.535172 0.222468 8.036497
v 2.874482 0.231037 7.474984
v 2.634772 0.309981 7.714092
v 2.863501 0.423181 7.860173
v 2.729276 0.373876 8.149988
v 3.010202 0.335638 7.554338
vn -0.4559 0.8350 0.3080
vn -0.2391 0.8691 0.4331
vn -0.2172 0.9341 0.2834
vn -0.4143 0.8902 0.1893
vn -0.1146 0.9714 0.2078
vn -0.3472 0.9374 0.0266
vn 0.0052 0.9002 0.4355
vn -0.0481 0.8554 0.5157
vn 0.0688 0.9403 0.3334
vn 0.8909 -0.4415 -0.1069
vn 0.8674 -0.4751 0.1482
vn 0.7899 -0.6078 0.0817
vn 0.8208 -0.5551 -0.1349
vn 0.6992 -0.7077 0.1011
vn 0.7059 -0.6882 -0.1678
vn 0.7403 -0.5765 0.3460
vn 0.8046 -0.4789 0.3512
vn 0.6509 -0.6819 0.3337
vn 0.9590 -0.2826 0.0195
vn 0.9096 -0.3135 0.2727
vn 0.8639 -0.4582 0.2092
vn 0.9119 -0.4101 0.0125
vn 0.7907 -0.5688 0.2264
vn 0.7876 -0.4299 0.4414
vn 0.7322 -0.5491 0.4030
vn 0.8244 -0.5660 0.0029
vn 0.8229 -0.3231 0.4674
vn 0.4120 0.8293 -0.3776
vn 0.1798 0.8634 -0.4713
vn 0.1794 0.9300 -0.3207
vn 0.3876 0.8859 -0.2547
vn 0.0886 0.9687 -0.2317
vn 0.3441 0.9351 -0.0846
vn -0.0624 0.8960 -0.4397
vn -0.0210 0.8501 -0.5262
vn -0.1108 0.9374 -0.3301
vn 0.0041 0.8279 0.5609
vn -0.2387 0.8382 0.4904
vn -0.2337 0.7408 0.6298
vn -0.0123 0.7427 0.6695
vn -0.3148 0.6516 0.6902
vn -0.0342 0.6041 0.7962
vn -0.4674 0.7400 0.4837
vn -0.4283 0.8061 0.4084
vn -0.5078 0.6479 0.5678
vn -0.5013 0.8279 0.2516
vn -0.5454 0.8382 0.0026
vn -0.6683 0.7407 0.0688
vn -0.6060 0.7427 0.2849
vn -0.7582 0.6516 0.0226
vn -0.7293 0.6041 0.3212
vn -0.6405 0.7400 -0.2055
vn -0.5556 0.8061 -0.2036
vn -0.7338 0.6479 -0.2045
vn -0.4365 -0.3069 0.8458
vn -0.5968 -0.2940 0.7466
vn -0.6062 -0.4341 0.6664
vn -0.4128 -0.4044 0.8161
vn -0.5349 -0.5397 0.6501
vn -0.3775 -0.5171 0.7682
vn -0.7480 -0.3841 0.5413
vn -0.7677 -0.2633 0.5842
vn -0.7006 -0.5383 0.4684
vn -0.4567 0.7888 -0.4113
vn -0.5427 0.7880 -0.2906
vn -0.4666 0.8642 -0.1883
vn -0.3818 0.8443 -0.3759
vn -0.3559 0.9164 -0.1832
vn -0.2890 0.8988 -0.3295
vn -0.5526 0.8310 -0.0631
vn -0.6378 0.7605 -0.1218
vn -0.4291 0.9031 0.0146
vn 0.4092 0.7888 -0.4586
vn 0.2881 0.7880 -0.5440
vn 0.1862 0.8641 -0.4676
vn 0.3742 0.8443 -0.3836
vn 0.1815 0.9164 -0.3567
vn 0.3282 0.8988 -0.2905
vn 0.0606 0.8310 -0.5529
vn 0.1189 0.7605 -0.6383
vn -0.0165 0.9032 -0.4290
vn 0.3069 -0.4072 0.8603
vn 0.3121 -0.5140 0.7990
vn 0.4918 -0.5248 0.6948
vn 0.5379 -0.3856 0.7496
vn 0.2555 -0.6313 0.7322
vn 0.4440 -0.6311 0.6361
vn 0.0853 -0.5187 0.8507
vn 0.0817 -0.4037 0.9112
vn 0.0873 -0.6096 0.7879
vn 0.3313 -0.4656 -0.8206
vn 0.1791 -0.4804 -0.8585
vn 0.1645 -0.3530 -0.9211
vn 0.3722 -0.3654 -0.8532
vn 0.1944 -0.2401 -0.9511
vn -0.0286 -0.3680 -0.9294
vn -0.0623 -0.2228 -0.9729
vn 0.0002 -0.4828 -0.8757
vn 0.4141 -0.2420 -0.8775
vn 0.7693 -0.3253 -0.5499
vn 0.8064 -0.1444 -0.5735
vn 0.9658 -0.1882 -0.1785
vn 0.9009 -0.3840 -0.2023
vn 0.9591 -0.1983 0.2018
vn 0.9019 -0.3930 0.1794
vn 0.7977 -0.5721 -0.1910
vn 0.7064 -0.4931 -0.5079
vn 0.7975 -0.5853 0.1466
vn 0.4953 -0.4148 -0.7633
vn 0.5484 -0.2149 -0.8082
vn 0.8091 -0.2405 -0.5363
vn 0.7293 -0.4486 -0.5166
vn 0.2145 -0.1624 -0.9631
vn 0.1961 0.0217 -0.9803
vn 0.5879 -0.0115 -0.8089
vn 0.8466 -0.0393 -0.5308
vn 0.2255 -0.3399 -0.9130
vn -0.8927 -0.3523 0.2810
vn -0.9297 -0.3664 -0.0369
vn -0.8526 -0.5206 -0.0445
vn -0.8183 -0.5180 0.2492
vn -0.7440 -0.6647 -0.0681
vn -0.7222 -0.6586 0.2113
vn -0.8034 -0.4934 -0.3334
vn -0.8658 -0.3407 -0.3664
vn -0.7189 -0.6312 -0.2912
vn -0.8469 -0.1923 -0.4958
vn -0.6407 -0.1965 -0.7422
vn -0.5993 -0.3549 -0.7175
vn -0.7892 -0.3559 -0.5005
vn -0.5422 -0.5092 -0.6683
vn -0.3561 -0.3385 -0.8710
vn -0.3495 -0.4880 -0.7998
vn -0.7123 -0.5014 -0.4911
vn -0.3529 -0.1790 -0.9184
vn -0.4235 0.6544 -0.6264
vn -0.6196 0.6869 -0.3797
vn -0.5217 0.7956 -0.3081
vn -0.3369 0.7733 -0.5371
vn -0.4118 0.8862 -0.2123
vn -0.2456 0.8646 -0.4383
vn -0.6495 0.7590 -0.0459
vn -0.7581 0.6472 -0.0802
vn -0.5257 0.8506 -0.0107
vt 0.000000 0.000000
vt 0.533479 0.000000
vt 0.447807 0.563622
vt 0.000000 0.448746
vt 0.483052 0.791177
vt 0.000000 0.683388
vt 1.000000 0.474699
vt 1.000000 0.000000
vt 1.000000 0.746000
vt 0.488817 0.828398
vt 0.000000 0.780053
vt 1.000000 0.717269
vt 0.515396 1.000000
vt 1.000000 1.000000
vt 0.000000 1.000000
vt 0.475004 0.000000
vt 0.581436 0.594393
vt 0.000000 0.491831
vt 0.515655 0.900790
vt 0.000000 0.798855
vt 1.000000 0.474417
vt 1.000000 0.852022
vt 0.528337 0.841717
vt 0.000000 0.772813
vt 1.000000 0.825159
vt 0.516556 0.000000
vt 0.477364 0.470556
vt 0.000000 0.535225
vt 0.514059 0.824646
vt 0.000000 0.768579
vt 1.000000 0.533264
vt 1.000000 0.798776
vt 0.532232 1.000000
vt 0.124045 0.440587
vt 0.259966 0.000000
vt 0.602475 0.000000
vt 0.557025 0.488493
vt 0.860970 0.000000
vt 0.943530 0.531260
vt 0.519214 0.894871
vt 0.166406 0.802314
vt 0.747592 0.869968
vt 0.509433 1.000000
vt 0.672370 1.000000
vt 0.189556 1.000000
vt 0.480173 0.000000
vt 0.499095 0.494221
vt 0.000000 0.504135
vt 0.514279 0.890815
vt 0.000000 0.782439
vt 1.000000 0.484268
vt 1.000000 0.917591
vt 0.518459 1.000000
vt 0.515340 0.918547
vt 0.000000 0.792526
vt 1.000000 0.898691
s 1
usemtl branch-03-1
f 1/1/1 3/2/2 4/3/3
f 1/1/1 4/3/3 5/4/4
f 5/4/4 4/3/3 7/5/5
f 5/4/4 7/5/5 9/6/6
f 6/7/7 4/3/3 3/2/2
f 6/7/7 3/2/2 2/8/8
f 8/9/9 7/5/5 4/3/3
f 8/9/9 4/3/3 6/7/7
f 10/1/10 12/2/11 13/3/12
f 10/1/10 13/3/12 14/4/13
f 14/4/13 13/3/12 16/10/14
f 14/4/13 16/10/14 18/11/15
f 15/7/16 13/3/12 12/2/11
f 15/7/16 12/2/11 11/8/17
f 17/12/18 16/10/14 13/3/12
f 17/12/18 13/3/12 15/7/16
f 19/1/19 23/2/20 25/3/21
f 19/1/19 25/3/21 26/4/22
f 24/13/23 25/3/21 27/7/24
f 24/13/23 27/7/24 22/14/25
f 26/4/22 25/3/21 24/13/23
f 26/4/22 24/13/23 21/15/26
f 27/7/24 25/3/21 23/2/20
f 27/7/24 23/2/20 20/8/27
f 28/1/28 30/2/29 31/3/30
f 28/1/28 31/3/30 32/4/31
f 32/4/31 31/3/30 34/5/32
f 32/4/31 34/5/32 36/6/33
f 33/7/34 31/3/30 30/2/29
f 33/7/34 30/2/29 29/8/35
f 35/9/36 34/5/32 31/3/30
f 35/9/36 31/3/30 33/7/34
f 37/1/37 39/2/38 40/3/39
f 37/1/37 40/3/39 41/4/40
f 41/4/40 40/3/39 43/5/41
f 41/4/40 43/5/41 45/6/42
f 42/7/43 40/3/39 39/2/38
f 42/7/43 39/2/38 38/8/44
f 44/9/45 43/5/41 40/3/39
f 44/9/45 40/3/39 42/7/43
f 46/1/46 48/2/47 49/3/48
f 46/1/46 49/3/48 50/4/49
f 50/4/49 49/3/48 52/5/50
f 50/4/49 52/5/50 54/6/51
f 51/7/52 49/3/48 48/2/47
f 51/7/52 48/2/47 47/8/53
f 53/9/54 52/5/50 49/3/48
f 53/9/54 49/3/48 51/7/52
usemtl branch-02-1
f 55/1/55 57/16/56 58/17/57
f 55/1/55 58/17/57 60/18/58
f 60/18/58 58/17/57 61/19/59
f 60/18/58 61/19/59 62/20/60
f 59/21/61 58/17/57 57/16/56
f 59/21/61 57/16/56 56/8/62
f 63/22/63 61/19/59 58/17/57
f 63/22/63 58/17/57 59/21/61
f 64/1/64 66/16/65 67/17/66
f 64/1/64 67/17/66 69/18/67
f 69/18/67 67/17/66 70/23/68
f 69/18/67 70/23/68 71/24/69
f 68/21/70 67/17/66 66/16/65
f 68/21/70 66/16/65 65/8/71
f 72/25/72 70/23/68 67/17/66
f 72/25/72 67/17/66 68/21/70
f 73/1/73 75/16/74 76/17/75
f 73/1/73 76/17/75 78/18/76
f 78/18/76 76/17/75 79/23/77
f 78/18/76 79/23/77 80/24/78
f 77/21/79 76/17/75 75/16/74
f 77/21/79 75/16/74 74/8/80
f 81/25/81 79/23/77 76/17/75
f 81/25/81 76/17/75 77/21/79
usemtl branch-01-1
f 84/26/82 85/27/83 86/28/84
f 84/26/82 86/28/84 82/1/85
f 86/28/84 85/27/83 90/29/86
f 86/28/84 90/29/86 89/30/87
f 87/31/88 85/27/83 84/26/82
f 87/31/88 84/26/82 83/8/89
f 88/32/90 90/29/86 85/27/83
f 88/32/90 85/27/83 87/31/88
f 94/14/91 95/33/92 97/27/93
f 94/14/91 97/27/93 99/31/94
f 96/26/95 97/27/93 98/28/96
f 96/26/95 98/28/96 91/1/97
f 98/28/96 97/27/93 95/33/92
f 98/28/96 95/33/92 93/15/98
f 99/31/94 97/27/93 96/26/95
f 99/31/94 96/26/95 92/8/99
usemtl branch-04-1
f 103/34/100 102/35/101 100/36/102
f 103/34/100 100/36/102 101/37/103
f 104/38/104 105/39/105 101/37/103
f 104/38/104 101/37/103 100/36/102
f 106/40/106 108/41/107 103/34/100
f 106/40/106 103/34/100 101/37/103
f 107/42/108 106/40/106 101/37/103
f 107/42/108 101/37/103 105/39/105
f 109/43/109 111/37/110 115/39/111
f 109/43/109 115/39/111 116/44/112
f 113/34/113 112/35/114 110/36/115
f 113/34/113 110/36/115 111/37/110
f 114/38/116 115/39/111 111/37/110
f 114/38/116 111/37/110 110/36/115
f 117/45/117 113/34/113 111/37/110
f 117/45/117 111/37/110 109/43/109
usemtl branch-05-1
f 118/1/118 120/46/119 123/47/120
f 118/1/118 123/47/120 122/48/121
f 122/48/121 123/47/120 124/49/122
f 122/48/121 124/49/122 126/50/123
f 121/51/124 123/47/120 120/46/119
f 121/51/124 120/46/119 119/8/125
f 125/52/126 124/49/122 123/47/120
f 125/52/126 123/47/120 121/51/124
f 127/1/127 131/46/128 135/47/129
f 127/1/127 135/47/129 134/48/130
f 132/53/131 135/47/129 133/51/132
f 132/53/131 133/51/132 130/14/133
f 134/48/130 135/47/129 132/53/131
f 134/48/130 132/53/131 129/15/134
f 133/51/132 135/47/129 131/46/128
f 133/51/132 131/46/128 128/8/135
f 136/1/136 138/46/137 141/47/138
f 136/1/136 141/47/138 140/48/139
f 140/48/139 141/47/138 142/54/140
f 140/48/139 142/54/140 144/55/141
f 139/51/142 141/47/138 138/46/137
f 139/51/142 138/46/137 137/8/143
f 143/56/144 142/54/140 141/47/138
f 143/56/144 141/47/138 139/51/142
