# Blender 5.1.0
# www.blender.org
mtllib Clover-04.mtl
o Clover-04
v 5.909648 0.006658 18.789257
v 5.909648 0.006658 18.789257
v 5.909648 0.006658 17.180676
v 5.909648 0.006658 17.180676
v 4.301068 0.006658 18.789257
v 4.301068 0.006658 18.789257
v 4.301068 0.006658 17.180676
v 4.301068 0.006658 17.180676
v 5.276831 0.118545 18.180832
v 5.276831 0.118545 18.180832
v 5.276831 0.118545 18.180832
v 5.276831 0.118545 18.180832
vn 0.1741 0.9847 -0.0000
vn -0.1139 0.9935 -0.0000
vn -0.0000 0.9835 0.1809
vn -0.0000 0.9938 -0.1112
vt 0.000000 0.000000
vt 1.000000 0.000000
vt 0.378237 0.393401
vt 0.000000 1.000000
vt 1.000000 1.000000
s 0
usemtl clover-04
f 2/1/1 4/2/1 12/3/1
f 5/4/2 9/3/2 7/5/2
f 10/3/3 6/4/3 1/1/3
f 8/5/4 11/3/4 3/2/4
