# Blender 5.1.0
# www.blender.org
mtllib Clover-05.mtl
o Clover-05
v 5.909648 0.006658 16.989868
v 5.909648 0.006658 16.989868
v 5.909648 0.006658 15.381287
v 5.909648 0.006658 15.381287
v 4.301068 0.006658 16.989868
v 4.301068 0.006658 16.989868
v 4.301068 0.006658 15.381287
v 4.301068 0.006658 15.381287
v 4.987143 0.075459 16.092661
v 4.987143 0.075459 16.092661
v 4.987143 0.075459 16.092661
v 4.987143 0.075459 16.092661
vn 0.0744 0.9972 -0.0000
vn -0.0998 0.9950 -0.0000
vn -0.0000 0.9971 0.0765
vn -0.0000 0.9954 -0.0963
vt 0.000000 0.000000
vt 1.000000 0.000000
vt 0.557763 0.573491
vt 0.000000 1.000000
vt 1.000000 1.000000
s 0
usemtl clover-05
f 2/1/1 4/2/1 12/3/1
f 5/4/2 9/3/2 7/5/2
f 11/3/3 6/4/3 1/1/3
f 8/5/4 10/3/4 3/2/4
