# Blender 5.1.0
# www.blender.org
mtllib Flowers-03.mtl
o Flowers-03
v 4.375660 0.016379 14.611595
v 5.984241 0.016379 13.003014
v 4.828603 0.016379 13.003014
v 4.828603 0.016379 13.003014
v 4.896959 0.016379 14.611595
v 4.896959 0.016379 14.611595
v 4.375660 0.016379 14.073125
v 4.375660 0.016379 14.073125
v 4.795424 0.097033 14.084043
v 4.795424 0.097033 14.084043
v 4.795424 0.097033 14.084043
v 4.795424 0.097033 14.084043
v 5.984241 0.016379 14.173227
v 5.984241 0.016379 14.173227
v 4.375660 0.016379 13.524207
v 4.375660 0.016379 13.524207
v 5.984241 0.016379 13.735244
v 5.984241 0.016379 13.735244
v 4.853123 0.174152 13.553485
v 4.853123 0.174152 13.553485
v 4.853123 0.174152 13.553485
v 4.853123 0.174152 13.553485
v 5.467581 0.016379 13.003014
v 5.467581 0.016379 13.003014
v 5.552398 0.080722 14.200283
v 5.552398 0.080722 14.200283
v 5.552398 0.080722 14.200283
v 5.552398 0.080722 14.200283
v 5.452436 0.040486 13.473598
v 5.452436 0.040486 13.473598
v 5.452436 0.040486 13.473598
v 5.452436 0.040486 13.473598
v 5.489879 0.016379 14.611595
v 5.489879 0.016379 14.611595
vn -0.0861 0.9928 0.0833
vn -0.0860 0.9928 0.0833
vn 0.0945 0.9799 -0.1754
vn 0.0945 0.9799 -0.1755
vn 0.0945 0.9800 -0.1754
vn 0.0944 0.9800 -0.1754
vn 0.1558 0.9720 0.1757
vn -0.2587 0.9644 0.0551
vn -0.2588 0.9644 0.0550
vn 0.1017 0.9939 -0.0431
vn -0.2897 0.9234 -0.2518
vn 0.1092 0.9937 0.0255
vn 0.0280 0.9994 -0.0197
vn 0.0279 0.9994 -0.0197
vn -0.0013 0.9883 0.1528
vn -0.0012 0.9883 0.1527
vn -0.0010 0.9883 0.1524
vt 0.000000 0.000000
vt 0.324074 0.000000
vt 0.260954 0.327961
vt 0.000000 0.334749
vt 0.281579 1.000000
vt 0.296823 0.657791
vt 0.669396 0.707454
vt 0.678811 1.000000
vt 1.000000 0.272518
vt 0.731539 0.255699
vt 0.692672 0.000000
vt 0.000000 0.675992
vt 1.000000 0.544797
vt 1.000000 1.000000
s 1
usemtl flowers-01.002
f 1/1/1 5/2/2 10/3/1
f 1/1/1 10/3/1 8/4/1
f 4/5/3 21/6/4 30/7/5
f 4/5/3 30/7/5 24/8/6
s 0
f 14/9/7 28/10/7 34/11/7
s 1
f 7/4/8 9/3/8 20/6/8
f 7/4/8 20/6/8 16/12/9
f 18/13/10 31/7/10 26/10/10
f 18/13/10 26/10/10 13/9/10
s 0
f 15/12/11 19/6/11 3/5/11
s 1
f 27/10/12 32/7/12 22/6/12
f 27/10/12 22/6/12 12/3/12
f 23/8/13 29/7/14 17/13/14
f 23/8/13 17/13/14 2/14/14
f 33/11/15 25/10/16 11/3/17
f 33/11/15 11/3/17 6/2/16
