# Blender 5.1.0
# www.blender.org
mtllib Grass-03.mtl
o Grass-03
v 5.320430 -0.037859 9.330823
v 6.341537 -0.037859 9.961173
v 5.183015 0.859585 9.245995
v 6.479719 0.968721 10.046475
v 6.101295 -0.037859 9.094828
v 5.600235 -0.037859 10.185212
v 6.174902 1.162141 8.934648
v 5.563890 0.959764 10.264303
v 5.228659 -0.037859 9.654190
v 6.428658 -0.037859 9.654190
v 5.228659 1.162141 9.654190
v 6.428658 1.162141 9.654190
v 5.738835 -0.037859 9.047688
v 5.944331 -0.037859 10.229962
v 5.738834 0.851072 9.047688
v 5.944331 0.993121 10.229962
v 6.373447 -0.037859 9.339688
v 5.341872 -0.037859 9.952757
v 6.599443 0.833155 9.205378
v 5.241531 0.909585 10.012390
vn -0.5253 -0.0000 0.8509
vn -0.9087 -0.0000 -0.4176
vn -0.0000 -0.0000 1.0000
vn -0.9852 -0.0000 0.1712
vn -0.5109 -0.0000 -0.8596
vt 0.000000 0.000000
vt 1.000000 0.000000
vt 1.000000 1.000000
vt 0.000000 1.000000
s 0
usemtl high-grass-1-01
f 1/1/1 2/2/1 4/3/1
f 1/1/1 4/3/1 3/4/1
f 5/1/2 6/2/2 8/3/2
f 5/1/2 8/3/2 7/4/2
usemtl high-grass-1-02
f 9/1/3 10/2/3 12/3/3
f 9/1/3 12/3/3 11/4/3
f 13/1/4 14/2/4 16/3/4
s 1
f 13/1/4 16/3/4 15/4/4
s 0
f 17/1/5 18/2/5 20/3/5
f 17/1/5 20/3/5 19/4/5
