# Blender 5.1.0
# www.blender.org
mtllib Grass-02.mtl
o Grass-02
v 3.421254 -0.037859 9.330823
v 4.442361 -0.037859 9.961173
v 3.421254 1.056248 9.330823
v 4.580544 1.023563 10.046475
v 4.202120 -0.037859 9.094828
v 3.701059 -0.037859 10.185212
v 4.275727 1.162141 8.934648
v 3.664715 0.959764 10.264303
v 3.329483 -0.037859 9.654190
v 4.529483 -0.037859 9.654190
v 3.329483 1.162141 9.654190
v 4.529483 1.162141 9.654190
v 3.737630 -0.037859 9.074602
v 4.142015 -0.037859 10.204412
v 3.737630 1.162141 9.074602
v 4.142015 1.304190 10.204412
v 4.474271 -0.037859 9.339688
v 3.442697 -0.037859 9.952757
v 4.474271 1.162141 9.339688
v 3.449675 0.909585 9.948610
vn -0.5253 -0.0000 0.8509
vn -0.9087 -0.0000 -0.4176
vn -0.0000 -0.0000 1.0000
vn -0.9415 -0.0000 0.3370
vn -0.5109 -0.0000 -0.8596
vt 0.000000 0.000000
vt 1.000000 0.000000
vt 1.000000 1.000000
vt 0.000000 1.000000
s 0
usemtl high-grass-1-01
f 1/1/1 2/2/1 4/3/1
f 1/1/1 4/3/1 3/4/1
f 5/1/2 6/2/2 8/3/2
f 5/1/2 8/3/2 7/4/2
usemtl high-grass-1-02
f 9/1/3 10/2/3 12/3/3
f 9/1/3 12/3/3 11/4/3
s 1
f 13/1/4 14/2/4 16/3/4
s 0
f 13/1/4 16/3/4 15/4/4
f 17/1/5 18/2/5 20/3/5
f 17/1/5 20/3/5 19/4/5
