# Blender 5.1.0
# www.blender.org
mtllib Grass-01.mtl
o Grass-01
v 2.347589 -0.037859 9.094828
v 1.846529 -0.037859 10.185212
v 2.421196 1.162141 8.934648
v 1.810184 0.959764 10.264303
v 1.883099 -0.037859 9.074603
v 2.287485 -0.037859 10.204413
v 1.883099 1.162141 9.074603
v 2.287485 1.304190 10.204413
v 2.619740 -0.037859 9.339689
v 1.588166 -0.037859 9.952759
v 2.619740 1.162141 9.339689
v 1.595144 0.909585 9.948611
v 1.474952 -0.037859 9.654191
v 2.674952 -0.037859 9.654191
v 1.474952 1.162141 9.654191
v 2.674952 1.162141 9.654191
v 1.566724 -0.037859 9.330825
v 2.587831 -0.037859 9.961174
v 1.566724 1.056248 9.330825
v 2.726013 1.023563 10.046476
vn -0.9087 -0.0000 -0.4176
vn -0.9415 -0.0000 0.3370
vn -0.5109 -0.0000 -0.8596
vn -0.0000 -0.0000 1.0000
vn -0.5253 -0.0000 0.8509
vt 0.000000 0.000000
vt 1.000000 0.000000
vt 1.000000 1.000000
vt 0.000000 1.000000
s 0
usemtl high-grass-1-02
f 1/1/1 2/2/1 4/3/1
s 1
f 1/1/1 4/3/1 3/4/1
s 0
f 5/1/2 6/2/2 8/3/2
f 5/1/2 8/3/2 7/4/2
f 9/1/3 10/2/3 12/3/3
f 9/1/3 12/3/3 11/4/3
usemtl high-grass-1-01
f 13/1/4 14/2/4 16/3/4
f 13/1/4 16/3/4 15/4/4
f 17/1/5 18/2/5 20/3/5
f 17/1/5 20/3/5 19/4/5
