# Blender 5.1.0
# www.blender.org
mtllib Hedge-01.mtl
o Hedge-01
v 3.808387 0.000000 2.507908
v 5.119015 0.000000 2.319757
v 3.808387 1.324065 2.507908
v 5.119015 1.324065 2.319757
v 4.480684 0.000000 2.532138
v 4.480684 0.000000 2.532138
v 4.480684 1.324065 2.532138
v 4.480684 1.324065 2.532138
v 3.832215 0.662032 2.673890
v 3.832215 0.662032 2.673890
v 5.142843 0.662032 2.485740
v 5.142843 0.662032 2.485740
v 4.504513 0.662032 2.698121
v 4.504513 0.662032 2.698121
v 4.504513 0.662032 2.698121
v 4.504513 0.662032 2.698121
v 4.704591 0.000000 2.793182
v 3.851070 0.000000 1.780933
v 4.704591 1.324065 2.793182
v 3.851070 1.324065 1.780933
v 4.369203 0.000000 2.210013
v 4.369203 0.000000 2.210013
v 4.369203 1.324065 2.210013
v 4.369203 1.324065 2.210013
v 4.832786 0.662032 2.685089
v 4.832786 0.662032 2.685089
v 3.979265 0.662032 1.672840
v 3.979265 0.662032 1.672840
v 4.497397 0.662032 2.101920
v 4.497397 0.662032 2.101920
v 4.497397 0.662032 2.101920
v 4.497397 0.662032 2.101920
v 3.961634 0.000000 1.695622
v 3.966140 0.000000 3.019679
v 3.961634 1.324065 1.695622
v 3.966140 1.324065 3.019679
v 3.844369 0.000000 2.358057
v 3.844369 0.000000 2.358057
v 3.844369 1.324065 2.358057
v 3.844369 1.324065 2.358057
v 3.793950 0.662032 1.696193
v 3.793950 0.662032 1.696193
v 3.798456 0.662032 3.020250
v 3.798456 0.662032 3.020250
v 3.676686 0.662032 2.358628
v 3.676686 0.662032 2.358628
v 3.676686 0.662032 2.358628
v 3.676686 0.662032 2.358628
v 4.024401 0.000000 2.159073
v 2.704315 0.000000 2.056509
v 4.024401 1.324065 2.159072
v 2.704315 1.324065 2.056509
v 3.373616 0.000000 1.988632
v 3.373616 0.000000 1.988632
v 3.373616 1.324065 1.988632
v 3.373616 1.324065 1.988632
v 4.037390 0.662032 1.991892
v 4.037390 0.662032 1.991892
v 2.717304 0.662032 1.889328
v 2.717304 0.662032 1.889328
v 3.386605 0.662032 1.821451
v 3.386605 0.662032 1.821451
v 3.386605 0.662032 1.821451
v 3.386605 0.662032 1.821451
v 2.295625 0.158217 2.155026
v 3.368585 0.158217 1.379201
v 2.832105 0.341089 1.767114
v 2.832105 0.341089 1.767114
v 2.832105 0.341089 1.767114
v 2.832105 0.341089 1.767114
v 2.731087 0.405384 2.758589
v 2.731087 0.405384 2.758589
v 3.804048 0.405384 1.982765
v 3.804048 0.405384 1.982765
v 3.310009 0.584799 2.429372
v 3.310009 0.584799 2.429372
v 5.352369 0.204657 2.375935
v 4.279408 0.204657 3.151759
v 4.815888 0.387529 2.763847
v 4.815888 0.387529 2.763847
v 4.815888 0.387529 2.763847
v 4.815888 0.387529 2.763847
v 4.916906 0.451825 1.772372
v 4.916906 0.451825 1.772372
v 3.843946 0.451825 2.548196
v 3.843946 0.451825 2.548196
v 4.337985 0.631239 2.101588
v 4.337985 0.631239 2.101588
v 5.271512 0.359082 2.523495
v 4.174069 0.671183 3.195329
v 4.752761 0.692413 2.826013
v 4.752761 0.692413 2.826013
v 4.752761 0.692413 2.826013
v 4.752761 0.692413 2.826013
v 4.914531 0.547739 1.851200
v 4.914531 0.547739 1.851200
v 3.817088 0.859839 2.523034
v 3.817088 0.859839 2.523034
v 4.356467 0.872777 2.093352
v 4.356467 0.872777 2.093352
v 2.468651 0.249018 2.030125
v 3.490117 0.757342 1.358291
v 2.917367 0.671942 1.727607
v 2.917367 0.671942 1.727607
v 2.917367 0.671942 1.727607
v 2.917367 0.671942 1.727607
v 2.784917 0.500021 2.702420
v 2.784917 0.500021 2.702420
v 3.806383 1.008346 2.030587
v 3.806383 1.008346 2.030587
v 3.273801 0.922013 2.460268
v 3.273801 0.922013 2.460268
v 4.288503 1.331669 1.794759
v 2.970607 1.331669 1.922418
v 3.614348 1.239125 1.701596
v 3.614348 1.239125 1.701596
v 3.614348 1.239125 1.701596
v 3.614348 1.239125 1.701596
v 4.305033 0.564668 1.957375
v 4.305033 0.564668 1.957375
v 2.987136 0.564668 2.085034
v 2.987136 0.564668 2.085034
v 3.634699 0.411401 1.903664
v 3.634699 0.411401 1.903664
v 3.087584 1.331669 1.581041
v 2.689439 1.331669 2.843826
v 2.738084 1.239125 2.165005
v 2.738084 1.239125 2.165005
v 2.738084 1.239125 2.165005
v 2.738084 1.239125 2.165005
v 3.243704 0.564668 1.629452
v 3.243704 0.564668 1.629452
v 2.845559 0.564668 2.892238
v 2.845559 0.564668 2.892238
v 2.932006 0.411401 2.225335
v 2.932006 0.411401 2.225335
v 4.195804 0.000000 1.700152
v 4.646570 0.000000 2.945125
v 4.309690 1.324065 1.658917
v 4.760457 1.324065 2.903890
v 4.308808 0.000000 2.363327
v 4.308808 0.000000 2.363327
v 4.422695 1.324065 2.322093
v 4.422695 1.324065 2.322093
v 4.164785 0.662032 1.711383
v 4.164785 0.662032 1.711383
v 4.615551 0.662032 2.956356
v 4.615551 0.662032 2.956356
v 4.277790 0.662032 2.374558
v 4.277790 0.662032 2.374558
v 4.277790 0.662032 2.374558
v 4.277790 0.662032 2.374558
v 3.814219 0.000000 2.892179
v 4.631729 0.000000 1.850631
v 3.718941 1.324065 2.817396
v 4.536451 1.324065 1.775847
v 4.316990 0.000000 2.445199
v 4.316990 0.000000 2.445199
v 4.221713 1.324065 2.370415
v 4.221713 1.324065 2.370415
v 3.840169 0.662032 2.912548
v 3.840169 0.662032 2.912548
v 4.657679 0.662032 1.870999
v 4.657679 0.662032 1.870999
v 4.342941 0.662032 2.465567
v 4.342941 0.662032 2.465567
v 4.342941 0.662032 2.465567
v 4.342941 0.662032 2.465567
v 3.649972 0.000000 2.860288
v 4.103667 0.000000 1.616380
v 3.536184 1.324065 2.818786
v 3.989878 1.324065 1.574877
v 3.989103 0.000000 2.279287
v 3.989103 0.000000 2.279287
v 3.875314 1.324065 2.237785
v 3.875314 1.324065 2.237785
v 3.680965 0.662032 2.871592
v 3.680965 0.662032 2.871592
v 4.134659 0.662032 1.627684
v 4.134659 0.662032 1.627684
v 4.020095 0.662032 2.290591
v 4.020095 0.662032 2.290591
v 4.020095 0.662032 2.290591
v 4.020095 0.662032 2.290591
v 4.707833 0.000000 2.191354
v 3.412364 0.000000 2.465045
v 4.732869 1.324065 2.309860
v 3.437400 1.324065 2.583550
v 4.035393 0.000000 2.211262
v 4.035393 0.000000 2.211262
v 4.060430 1.324065 2.329768
v 4.060430 1.324065 2.329768
v 4.701014 0.662032 2.159077
v 4.701014 0.662032 2.159077
v 3.405545 0.662032 2.432768
v 3.405545 0.662032 2.432768
v 4.028574 0.662032 2.178986
v 4.028574 0.662032 2.178986
v 4.028574 0.662032 2.178986
v 4.028574 0.662032 2.178986
v 4.173318 0.000000 1.761511
v 3.123389 0.000000 2.568230
v 4.247115 1.324065 1.857555
v 3.197185 1.324065 2.664274
v 3.575534 0.000000 2.070097
v 3.575534 0.000000 2.070097
v 3.649331 1.324065 2.166142
v 3.649331 1.324065 2.166142
v 4.153219 0.662032 1.735352
v 4.153219 0.662032 1.735352
v 3.103290 0.662032 2.542071
v 3.103290 0.662032 2.542071
v 3.555435 0.662032 2.043938
v 3.555435 0.662032 2.043938
v 3.555435 0.662032 2.043938
v 3.555435 0.662032 2.043938
v 4.093875 0.000000 1.872472
v 3.379522 0.000000 2.987302
v 4.195857 1.324065 1.937819
v 3.481503 1.324065 3.052649
v 3.636067 0.000000 2.365405
v 3.636067 0.000000 2.365405
v 3.738048 1.324065 2.430752
v 3.738048 1.324065 2.430752
v 4.066099 0.662032 1.854674
v 4.066099 0.662032 1.854674
v 3.351746 0.662032 2.969504
v 3.351746 0.662032 2.969504
v 3.608291 0.662032 2.347607
v 3.608291 0.662032 2.347607
v 3.608291 0.662032 2.347607
v 3.608291 0.662032 2.347607
v 3.072546 0.000000 2.605861
v 4.205548 0.000000 1.920694
v 3.009869 1.324065 2.502218
v 4.142871 1.324065 1.817051
v 3.700894 0.000000 2.365550
v 3.700894 0.000000 2.365550
v 3.638217 1.324065 2.261906
v 3.638217 1.324065 2.261906
v 3.089617 0.662032 2.634090
v 3.089617 0.662032 2.634090
v 4.222619 0.662032 1.948923
v 4.222619 0.662032 1.948923
v 3.717965 0.662032 2.393778
v 3.717965 0.662032 2.393778
v 3.717965 0.662032 2.393778
v 3.717965 0.662032 2.393778
v 3.134161 0.000000 1.647691
v 2.844247 0.000000 2.721895
v 3.232426 1.112638 1.674212
v 2.942512 1.112638 2.748415
v 2.892240 0.000000 2.158623
v 2.892240 0.000000 2.158623
v 2.990505 1.112638 2.185144
v 2.990505 1.112638 2.185144
v 3.107397 0.556319 1.640468
v 3.107397 0.556319 1.640468
v 2.817484 0.556319 2.714671
v 2.817484 0.556319 2.714671
v 2.865476 0.556319 2.151400
v 2.865476 0.556319 2.151400
v 2.865476 0.556319 2.151400
v 2.865476 0.556319 2.151400
v 2.591419 0.000000 2.541199
v 3.768122 0.000000 1.934144
v 2.535887 1.324065 2.433558
v 3.712591 1.324065 1.826503
v 3.234567 0.000000 2.343888
v 3.234567 0.000000 2.343888
v 3.179036 1.324065 2.236247
v 3.179036 1.324065 2.236247
v 2.606544 0.662032 2.570517
v 2.606544 0.662032 2.570517
v 3.783247 0.662032 1.963462
v 3.783247 0.662032 1.963462
v 3.249692 0.662032 2.373206
v 3.249692 0.662032 2.373206
v 3.249692 0.662032 2.373206
v 3.249692 0.662032 2.373206
v 4.371076 0.236868 2.770648
v 3.197635 0.236868 2.801430
v 3.785365 0.418377 2.913705
v 3.785365 0.418377 2.913705
v 3.785365 0.418377 2.913705
v 3.785365 0.418377 2.913705
v 4.432744 0.625556 2.346405
v 4.432744 0.625556 2.346405
v 3.109135 0.625556 2.381127
v 3.109135 0.625556 2.381127
v 3.769175 0.692676 2.296505
v 3.769175 0.692676 2.296505
v 3.274801 0.126905 1.794304
v 4.448243 0.126905 1.763522
v 3.860512 0.308414 1.651247
v 3.860512 0.308414 1.651247
v 3.860512 0.308414 1.651247
v 3.860512 0.308414 1.651247
v 3.213134 0.515593 2.218547
v 3.213134 0.515593 2.218547
v 4.536743 0.515593 2.183825
v 4.536743 0.515593 2.183825
v 3.876703 0.582713 2.268447
v 3.876703 0.582713 2.268447
v 3.592702 0.295159 1.749176
v 4.756720 0.445644 1.731052
v 4.151354 0.554688 1.618714
v 4.151354 0.554688 1.618714
v 4.151354 0.554688 1.618714
v 4.151354 0.554688 1.618714
v 3.479251 0.657645 2.185750
v 3.479251 0.657645 2.185750
v 4.792231 0.827387 2.165306
v 4.792231 0.827387 2.165306
v 4.128500 0.806903 2.245056
v 4.128500 0.806903 2.245056
v 4.226871 0.310370 2.787704
v 3.083109 0.571242 2.746877
v 3.689026 0.620278 2.893292
v 3.689026 0.620278 2.893292
v 3.689026 0.620278 2.893292
v 3.689026 0.620278 2.893292
v 4.397872 0.666481 2.364847
v 4.397872 0.666481 2.364847
v 3.107741 0.960737 2.318796
v 3.107741 0.960737 2.318796
v 3.769909 0.877985 2.274032
v 3.769909 0.877985 2.274032
v 4.696433 0.016821 2.867543
v 4.380403 -0.016821 1.791766
v 5.002892 1.196000 2.739229
v 4.686862 1.162358 1.663453
v 4.629580 -0.035040 2.305361
v 4.629580 -0.035040 2.305361
v 4.936038 1.144139 2.177047
v 4.936038 1.144139 2.177047
v 4.921017 0.578984 2.784371
v 4.921017 0.578984 2.784371
v 4.604986 0.545342 1.708595
v 4.604986 0.545342 1.708595
v 4.854163 0.527123 2.222189
v 4.854163 0.527123 2.222189
v 4.854163 0.527123 2.222189
v 4.854163 0.527123 2.222189
v 4.740200 1.158054 2.889843
v 4.740200 1.158054 1.715998
v 4.957912 1.115150 2.300582
v 4.957912 1.115150 2.300582
v 4.957912 1.115150 2.300582
v 4.957912 1.115150 2.300582
v 4.703643 0.585140 2.962615
v 4.703643 0.585140 2.962615
v 4.703643 0.585140 1.638550
v 4.703643 0.585140 1.638550
v 4.701427 0.490128 2.300582
v 4.701427 0.490128 2.300582
v 5.051539 0.000000 2.420704
v 3.830485 0.000000 1.908676
v 5.051539 1.324065 2.420704
v 3.830485 1.324065 1.908676
v 4.487231 0.000000 2.054470
v 4.487231 0.000000 2.054470
v 4.487231 1.324065 2.054470
v 4.487231 1.324065 2.054470
v 5.105673 0.662032 2.291609
v 5.105673 0.662032 2.291609
v 3.884618 0.662032 1.779581
v 3.884618 0.662032 1.779581
v 4.541365 0.662032 1.925375
v 4.541365 0.662032 1.925375
v 4.541365 0.662032 1.925375
v 4.541365 0.662032 1.925375
v 4.145607 0.000000 1.755590
v 4.003832 0.000000 3.072043
v 4.145607 1.324065 1.755590
v 4.003832 1.324065 3.072043
v 3.955888 0.000000 2.401019
v 3.955888 0.000000 2.401019
v 3.955888 1.324065 2.401019
v 3.955888 1.324065 2.401019
v 4.006426 0.662032 1.740601
v 4.006426 0.662032 1.740601
v 3.864651 0.662032 3.057054
v 3.864651 0.662032 3.057054
v 3.816708 0.662032 2.386030
v 3.816708 0.662032 2.386030
v 3.816708 0.662032 2.386030
v 3.816708 0.662032 2.386030
v 3.612063 0.000000 1.676981
v 3.886062 0.000000 2.972385
v 3.612063 1.324065 1.676981
v 3.886062 1.324065 2.972385
v 3.632131 0.000000 2.349416
v 3.632131 0.000000 2.349416
v 3.632131 1.324065 2.349416
v 3.632131 1.324065 2.349416
v 3.475108 0.662032 1.705949
v 3.475108 0.662032 1.705949
v 3.749107 0.662032 3.001353
v 3.749107 0.662032 3.001353
v 3.495176 0.662032 2.378384
v 3.495176 0.662032 2.378384
v 3.495176 0.662032 2.378384
v 3.495176 0.662032 2.378384
v 2.598902 0.000000 2.411101
v 3.922621 0.000000 2.380883
v 2.598902 1.324065 2.411101
v 3.922621 1.324065 2.380883
v 3.263489 0.000000 2.515479
v 3.263489 0.000000 2.515479
v 3.263489 1.324065 2.515479
v 3.263489 1.324065 2.515479
v 2.602097 0.662032 2.551049
v 2.602097 0.662032 2.551049
v 3.925816 0.662032 2.520832
v 3.925816 0.662032 2.520832
v 3.266684 0.662032 2.655428
v 3.266684 0.662032 2.655428
v 3.266684 0.662032 2.655428
v 3.266684 0.662032 2.655428
v 3.549835 0.014547 3.082337
v 2.339707 0.014547 2.544996
v 2.944771 0.290226 2.813666
v 2.944771 0.290226 2.813666
v 2.944771 0.290226 2.813666
v 2.944771 0.290226 2.813666
v 3.799333 0.354522 2.522358
v 3.799333 0.354522 2.522358
v 2.589204 0.354522 1.985017
v 2.589204 0.354522 1.985017
v 3.233499 0.533936 2.165339
v 3.233499 0.533936 2.165339
v 4.098158 -0.028038 1.448624
v 5.308287 -0.028038 1.985965
v 4.703223 0.247641 1.717294
v 4.703223 0.247641 1.717294
v 4.703223 0.247641 1.717294
v 4.703223 0.247641 1.717294
v 3.848660 0.311936 2.008602
v 3.848660 0.311936 2.008602
v 5.058789 0.311936 2.545943
v 5.058789 0.311936 2.545943
v 4.414495 0.491351 2.365622
v 4.414495 0.491351 2.365622
v 4.352765 0.173659 1.506560
v 5.425753 0.686755 2.088434
v 4.786905 0.683794 1.762626
v 4.786905 0.683794 1.762626
v 4.786905 0.683794 1.762626
v 4.786905 0.683794 1.762626
v 3.948043 0.448906 2.008403
v 3.948043 0.448906 2.008403
v 5.021030 0.962002 2.590277
v 5.021030 0.962002 2.590277
v 4.374108 0.864628 2.362613
v 4.374108 0.864628 2.362613
v 3.404111 0.111535 3.047060
v 2.255147 0.418864 2.465185
v 2.883673 0.533271 2.790995
v 2.883673 0.533271 2.790995
v 2.883673 0.533271 2.790995
v 2.883673 0.533271 2.790995
v 3.751405 0.456423 2.545218
v 3.751405 0.456423 2.545218
v 2.602441 0.763752 1.963343
v 2.602441 0.763752 1.963343
v 3.256243 0.786834 2.191008
v 3.256243 0.786834 2.191008
v 4.873569 1.252502 1.877845
v 3.553392 1.252502 1.776459
v 4.228074 1.053310 1.637130
v 4.228074 1.053310 1.637130
v 4.228074 1.053310 1.637130
v 4.228074 1.053310 1.637130
v 4.858420 0.583045 2.085221
v 4.858420 0.583045 2.085221
v 3.538243 0.583045 1.983835
v 3.538243 0.583045 1.983835
v 4.202480 0.386581 1.980502
v 4.202480 0.386581 1.980502
v 4.638978 0.000000 2.942999
v 4.638978 0.000000 1.618934
v 4.638978 1.324065 2.942999
v 4.638978 1.324065 1.618934
v 4.758496 0.000000 2.286439
v 4.758496 0.000000 2.286439
v 4.758496 1.324065 2.286439
v 4.758496 1.324065 2.286439
v 4.769065 0.662032 2.942999
v 4.769065 0.662032 2.942999
v 4.769065 0.662032 1.618934
v 4.769065 0.662032 1.618934
v 4.888583 0.662032 2.286439
v 4.888583 0.662032 2.286439
v 4.888583 0.662032 2.286439
v 4.888583 0.662032 2.286439
v 4.633947 0.000000 1.858197
v 3.510684 0.000000 2.559216
v 4.633947 1.324065 1.858197
v 3.510684 1.324065 2.559216
v 4.013680 0.000000 2.104416
v 4.013680 0.000000 2.104416
v 4.013680 1.324065 2.104416
v 4.013680 1.324065 2.104416
v 4.565073 0.662032 1.747839
v 4.565073 0.662032 1.747839
v 3.441810 0.662032 2.448858
v 3.441810 0.662032 2.448858
v 3.944806 0.662032 1.994058
v 3.944806 0.662032 1.994058
v 3.944806 0.662032 1.994058
v 3.944806 0.662032 1.994058
v 2.884521 0.000000 2.490130
v 4.207346 0.000000 2.432849
v 2.884521 1.324065 2.490130
v 4.207346 1.324065 2.432849
v 3.545636 0.000000 2.581133
v 3.545636 0.000000 2.581133
v 3.545636 1.324065 2.581133
v 3.545636 1.324065 2.581133
v 2.890149 0.662032 2.620095
v 2.890149 0.662032 2.620095
v 4.212974 0.662032 2.562814
v 4.212974 0.662032 2.562814
v 3.551264 0.662032 2.711098
v 3.551264 0.662032 2.711098
v 3.551264 0.662032 2.711098
v 3.551264 0.662032 2.711098
v 3.088216 0.125559 1.559693
v 4.367011 0.164231 1.900772
v 3.722327 0.326443 1.708221
v 3.722327 0.326443 1.708221
v 3.722327 0.326443 1.708221
v 3.722327 0.326443 1.708221
v 2.918921 0.441869 2.155553
v 2.918921 0.441869 2.155553
v 4.197716 0.480541 2.496632
v 4.197716 0.480541 2.496632
v 3.536630 0.646202 2.365190
v 3.536630 0.646202 2.365190
v 4.559778 0.125559 2.971267
v 3.280983 0.164231 2.630188
v 3.925666 0.326443 2.822739
v 3.925666 0.326443 2.822739
v 3.925666 0.326443 2.822739
v 3.925666 0.326443 2.822739
v 4.729072 0.441869 2.375407
v 4.729072 0.441869 2.375407
v 3.450277 0.480541 2.034328
v 3.450277 0.480541 2.034328
v 4.111363 0.646202 2.165770
v 4.111363 0.646202 2.165770
v 3.521759 1.372220 2.896869
v 4.841979 1.372220 2.796038
v 4.186040 1.240085 2.972926
v 4.186040 1.240085 2.972926
v 4.186040 1.240085 2.972926
v 4.186040 1.240085 2.972926
v 3.493048 0.679113 2.531102
v 3.493048 0.679113 2.531102
v 4.813267 0.679113 2.430270
v 4.813267 0.679113 2.430270
v 4.153161 0.499403 2.552591
v 4.153161 0.499403 2.552591
vn 0.3063 0.2419 0.9207
vn -0.0349 0.2419 0.9697
vn -0.0349 -0.2419 0.9697
vn 0.3063 -0.2419 0.9207
vn 0.6189 0.2419 -0.7473
vn 0.8411 0.2419 -0.4837
vn 0.8411 -0.2419 -0.4837
vn 0.6189 -0.2419 -0.7473
vn -0.9543 0.2419 0.1756
vn -0.9555 0.2419 -0.1691
vn -0.9555 -0.2419 -0.1691
vn -0.9543 -0.2419 0.1756
vn -0.0979 0.2419 -0.9654
vn 0.2458 0.2419 -0.9387
vn 0.2458 -0.2419 -0.9387
vn -0.0979 -0.2419 -0.9654
vn 0.0172 0.9342 -0.3562
vn -0.3439 0.9341 -0.0956
vn -0.3843 0.9179 -0.0987
vn 0.0270 0.9181 -0.3955
vn -0.0172 0.9342 0.3562
vn 0.3439 0.9341 0.0956
vn 0.3843 0.9179 0.0987
vn -0.0270 0.9181 0.3955
vn 0.1175 0.9772 0.1770
vn 0.4869 0.8721 -0.0486
vn 0.5238 0.8509 -0.0394
vn 0.1032 0.9706 0.2175
vn -0.2950 0.9390 -0.1770
vn -0.6387 0.7679 0.0486
vn -0.6712 0.7403 0.0394
vn -0.2797 0.9351 -0.2175
vn -0.3129 -0.2325 -0.9209
vn 0.1303 -0.2321 -0.9639
vn 0.1612 -0.2014 -0.9662
vn -0.3436 -0.2019 -0.9172
vn -0.9699 -0.2325 -0.0723
vn -0.8361 -0.2321 -0.4971
vn -0.8261 -0.2014 -0.5263
vn -0.9785 -0.2019 -0.0426
vn -0.8430 0.2233 0.4894
vn -0.9609 0.2233 0.1637
vn -0.9846 -0.0490 0.1678
vn -0.8638 -0.0490 0.5015
vn 0.8615 0.2233 0.4560
vn 0.6476 0.2233 0.7285
vn 0.6636 -0.0490 0.7465
vn 0.8827 -0.0490 0.4673
vn 0.9605 0.2233 0.1660
vn 0.8418 0.2233 0.4914
vn 0.8626 -0.0490 0.5035
vn 0.9842 -0.0490 0.1701
vn -0.3677 0.2233 -0.9027
vn -0.0288 0.2233 -0.9743
vn -0.0296 -0.0490 -0.9984
vn -0.3768 -0.0490 -0.9250
vn -0.7218 0.2233 -0.6551
vn -0.4471 0.2233 -0.8662
vn -0.4582 -0.0490 -0.8875
vn -0.7396 -0.0490 -0.6713
vn -0.9011 0.2233 -0.3717
vn -0.7142 0.2233 -0.6633
vn -0.7319 -0.0490 -0.6797
vn -0.9233 -0.0490 -0.3809
vn 0.6446 0.2233 0.7312
vn 0.3482 0.2233 0.9104
vn 0.3568 -0.0490 0.9329
vn 0.6605 -0.0490 0.7493
vn -0.9712 0.2233 -0.0828
vn -0.8810 0.2233 -0.4171
vn -0.9027 -0.0490 -0.4274
vn -0.9952 -0.0490 -0.0848
vn 0.5937 0.2233 0.7731
vn 0.2859 0.2233 0.9319
vn 0.2929 -0.0490 0.9549
vn 0.6083 -0.0490 0.7922
vn 0.0619 0.9127 0.4040
vn -0.3321 0.6566 0.6772
vn 0.3649 0.6595 0.6572
vn -0.0407 0.9127 0.4067
vn -0.0619 0.9127 -0.4040
vn 0.3321 0.6566 -0.6772
vn -0.3649 0.6595 -0.6572
vn 0.0407 0.9127 -0.4067
vn -0.1753 0.9110 -0.3732
vn 0.2499 0.7170 -0.6507
vn -0.4419 0.6304 -0.6382
vn -0.0736 0.9242 -0.3748
vn 0.2402 0.8847 0.3995
vn -0.2161 0.7283 0.6503
vn 0.4641 0.5761 0.6729
vn 0.1402 0.9075 0.3960
vn 0.8875 -0.1497 -0.4359
vn 0.9849 -0.1383 -0.1044
vn 0.9222 -0.3795 -0.0747
vn 0.8230 -0.3899 -0.4131
vn 0.9239 -0.3791 0.0513
vn 0.9367 -0.0125 -0.3498
vn 0.9375 -0.0157 0.3475
vn 0.9239 -0.3791 -0.0513
vn 0.2122 0.2037 -0.9558
vn 0.5330 0.2037 -0.8212
vn 0.5330 -0.2037 -0.8212
vn 0.2122 -0.2037 -0.9558
vn -0.9765 0.2037 0.0698
vn -0.9393 0.2037 -0.2761
vn -0.9393 -0.2037 -0.2761
vn -0.9765 -0.2037 0.0698
vn -0.9066 0.2037 0.3695
vn -0.9786 0.2037 0.0292
vn -0.9786 -0.2037 0.0292
vn -0.9066 -0.2037 0.3695
vn 0.1959 0.2037 0.9592
vn -0.1519 0.2037 0.9672
vn -0.1519 -0.2037 0.9672
vn 0.1959 -0.2037 0.9592
vn -0.3159 0.9259 0.2074
vn 0.0577 0.9257 0.3737
vn -0.4976 0.8219 0.2773
vn 0.1276 0.8216 0.5556
vn 0.3159 0.9259 -0.2074
vn -0.0577 0.9257 -0.3737
vn 0.4976 0.8219 -0.2773
vn -0.1276 0.8216 -0.5556
vn -0.0340 0.9502 -0.3098
vn -0.3652 0.7916 -0.4898
vn 0.1786 0.9163 -0.3585
vn -0.3756 0.6508 -0.6598
vn -0.1411 0.9403 0.3098
vn 0.2136 0.8452 0.4898
vn -0.3438 0.8679 0.3585
vn 0.2497 0.7087 0.6598
vn -0.1373 -0.4493 -0.8827
vn 0.2704 -0.4490 -0.8516
vn -0.2725 -0.2791 -0.9208
vn 0.4098 -0.2784 -0.8687
vn 0.9664 0.1899 -0.1730
vn 0.9659 0.1898 0.1758
vn 0.9659 -0.1898 0.1758
vn 0.9664 -0.1899 -0.1730
vn -0.6585 0.1899 -0.7283
vn -0.3622 0.1898 -0.9126
vn -0.3622 -0.1898 -0.9126
vn -0.6585 -0.1899 -0.7283
vn 0.2147 0.1899 0.9580
vn -0.1339 0.1898 0.9727
vn -0.1339 -0.1898 0.9727
vn 0.2147 -0.1899 0.9580
vn 0.2926 0.8897 -0.3503
vn -0.1324 0.8760 -0.4638
vn 0.3288 0.8697 -0.3682
vn -0.1541 0.8539 -0.4971
vn -0.2926 0.8897 0.3503
vn 0.1324 0.8760 0.4638
vn -0.3288 0.8697 0.3682
vn 0.1541 0.8539 0.4971
vn 0.2849 -0.4826 0.8282
vn -0.1592 -0.4819 0.8616
vn 0.3161 -0.4530 0.8336
vn -0.1897 -0.4521 0.8716
vt 0.500000 0.500000
vt 1.000000 0.500000
vt 1.000000 1.000000
vt 0.500000 1.000000
vt 0.000000 0.500000
vt 0.000000 1.000000
vt 0.000000 0.000000
vt 0.500000 0.000000
vt 1.000000 0.000000
vt 0.500000 0.500000
vt 0.000000 0.497811
vt 0.500000 0.667574
vt 1.000000 0.497811
vt 0.495867 0.500000
vt 0.495867 1.000000
vt 0.495867 0.000000
vt 0.495867 0.500000
s 0
usemtl hedge-01.002
f 16/1/1 12/2/1 4/3/1
f 16/1/1 4/3/1 8/4/1
f 10/5/2 14/1/2 7/4/2
f 10/5/2 7/4/2 3/6/2
f 1/7/3 5/8/3 13/1/3
f 1/7/3 13/1/3 9/5/3
f 6/8/4 2/9/4 11/2/4
f 6/8/4 11/2/4 15/1/4
f 30/1/5 28/2/5 20/3/5
f 30/1/5 20/3/5 23/4/5
f 25/5/6 31/1/6 24/4/6
s 1
f 25/5/6 24/4/6 19/6/6
f 17/7/7 22/8/7 32/1/7
s 0
f 17/7/7 32/1/7 26/5/7
f 21/8/8 18/9/8 27/2/8
f 21/8/8 27/2/8 29/1/8
f 47/1/9 43/2/9 36/3/9
f 47/1/9 36/3/9 40/4/9
f 41/5/10 45/1/10 39/4/10
f 41/5/10 39/4/10 35/6/10
f 33/7/11 37/8/11 46/1/11
f 33/7/11 46/1/11 42/5/11
f 38/8/12 34/9/12 44/2/12
f 38/8/12 44/2/12 48/1/12
f 62/1/13 60/2/13 52/3/13
f 62/1/13 52/3/13 55/4/13
s 1
f 57/5/14 63/1/14 56/4/14
s 0
f 57/5/14 56/4/14 51/6/14
f 49/7/15 54/8/15 64/1/15
f 49/7/15 64/1/15 58/5/15
f 53/8/16 50/9/16 59/2/16
f 53/8/16 59/2/16 61/1/16
f 76/1/17 73/2/17 69/4/17
f 72/5/18 75/1/18 68/4/18
f 67/4/19 65/6/19 71/5/19
f 70/4/20 74/2/20 66/3/20
f 87/1/21 86/2/21 80/4/21
f 83/5/22 88/1/22 81/4/22
f 82/4/23 77/6/23 84/5/23
f 79/4/24 85/2/24 78/3/24
f 99/1/25 98/2/25 92/4/25
f 95/5/26 100/1/26 93/4/26
f 94/4/27 89/6/27 96/5/27
f 91/4/28 97/2/28 90/3/28
f 112/1/29 109/2/29 105/4/29
f 108/5/30 111/1/30 104/4/30
s 1
f 103/4/31 101/6/31 107/5/31
s 0
f 106/4/32 110/2/32 102/3/32
f 123/1/33 122/2/33 116/4/33
f 119/5/34 124/1/34 117/4/34
f 118/4/35 113/6/35 120/5/35
f 115/4/36 121/2/36 114/3/36
f 135/1/37 134/2/37 128/4/37
f 131/5/38 136/1/38 129/4/38
f 130/4/39 125/6/39 132/5/39
f 127/4/40 133/2/40 126/3/40
usemtl hedge-01
f 152/10/41 148/2/41 140/3/41
f 152/10/41 140/3/41 144/4/41
f 146/5/42 150/10/42 143/4/42
f 146/5/42 143/4/42 139/6/42
f 137/7/43 141/8/43 149/10/43
f 137/7/43 149/10/43 145/5/43
f 142/8/44 138/9/44 147/2/44
f 142/8/44 147/2/44 151/10/44
f 167/10/45 163/2/45 156/3/45
f 167/10/45 156/3/45 160/4/45
f 161/5/46 165/10/46 159/4/46
s 1
f 161/5/46 159/4/46 155/6/46
s 0
f 153/7/47 157/8/47 166/10/47
f 153/7/47 166/10/47 162/5/47
f 158/8/48 154/9/48 164/2/48
f 158/8/48 164/2/48 168/10/48
f 183/10/49 179/2/49 172/3/49
f 183/10/49 172/3/49 176/4/49
f 177/5/50 181/10/50 175/4/50
f 177/5/50 175/4/50 171/6/50
f 169/7/51 173/8/51 182/10/51
f 169/7/51 182/10/51 178/5/51
f 174/8/52 170/9/52 180/2/52
f 174/8/52 180/2/52 184/10/52
f 198/10/53 196/2/53 188/3/53
f 198/10/53 188/3/53 191/4/53
f 194/5/54 200/10/54 192/4/54
f 194/5/54 192/4/54 187/6/54
f 185/7/55 190/8/55 199/10/55
f 185/7/55 199/10/55 193/5/55
f 189/8/56 186/9/56 195/2/56
f 189/8/56 195/2/56 197/10/56
f 214/10/57 212/2/57 204/3/57
f 214/10/57 204/3/57 207/4/57
f 210/5/58 216/10/58 208/4/58
f 210/5/58 208/4/58 203/6/58
s 1
f 201/7/59 206/8/59 215/10/59
s 0
f 201/7/59 215/10/59 209/5/59
f 205/8/60 202/9/60 211/2/60
f 205/8/60 211/2/60 213/10/60
f 230/10/61 228/2/61 220/3/61
f 230/10/61 220/3/61 223/4/61
f 226/5/62 232/10/62 224/4/62
f 226/5/62 224/4/62 219/6/62
f 217/7/63 222/8/63 231/10/63
f 217/7/63 231/10/63 225/5/63
f 221/8/64 218/9/64 227/2/64
f 221/8/64 227/2/64 229/10/64
f 247/10/65 243/2/65 236/3/65
f 247/10/65 236/3/65 240/4/65
f 241/5/66 245/10/66 239/4/66
f 241/5/66 239/4/66 235/6/66
f 233/7/67 237/8/67 246/10/67
f 233/7/67 246/10/67 242/5/67
f 238/8/68 234/9/68 244/2/68
f 238/8/68 244/2/68 248/10/68
s 1
f 262/10/69 260/2/69 252/3/69
s 0
f 262/10/69 252/3/69 255/4/69
f 258/5/70 264/10/70 256/4/70
f 258/5/70 256/4/70 251/6/70
f 249/7/71 254/8/71 263/10/71
f 249/7/71 263/10/71 257/5/71
f 253/8/72 250/9/72 259/2/72
f 253/8/72 259/2/72 261/10/72
f 279/10/73 275/2/73 268/3/73
f 279/10/73 268/3/73 272/4/73
f 273/5/74 277/10/74 271/4/74
f 273/5/74 271/4/74 267/6/74
f 265/7/75 269/8/75 278/10/75
f 265/7/75 278/10/75 274/5/75
f 270/8/76 266/9/76 276/2/76
s 1
f 270/8/76 276/2/76 280/10/76
s 0
f 287/11/77 292/12/77 285/4/77
f 283/4/78 289/13/78 282/3/78
f 286/4/79 281/6/79 288/11/79
f 291/12/80 290/13/80 284/4/80
f 300/11/81 303/12/81 296/4/81
s 1
f 298/4/82 302/13/82 294/3/82
s 0
f 295/4/83 293/6/83 299/11/83
f 304/12/84 301/13/84 297/4/84
f 312/11/85 315/12/85 308/4/85
f 310/4/86 314/13/86 306/3/86
f 307/4/87 305/6/87 311/11/87
f 316/12/88 313/13/88 309/4/88
f 323/11/89 328/12/89 321/4/89
f 319/4/90 325/13/90 318/3/90
f 322/4/91 317/6/91 324/11/91
f 327/12/92 326/13/92 320/4/92
f 342/10/93 340/2/93 332/3/93
f 342/10/93 332/3/93 335/4/93
f 338/5/94 344/10/94 336/4/94
f 338/5/94 336/4/94 331/6/94
f 329/7/95 334/8/95 343/10/95
f 329/7/95 343/10/95 337/5/95
f 333/8/96 330/9/96 339/2/96
f 333/8/96 339/2/96 341/10/96
f 351/11/97 356/12/97 348/4/97
f 349/4/98 354/13/98 346/3/98
f 350/4/99 345/6/99 352/11/99
f 355/12/100 353/13/100 347/4/100
usemtl hedge-01.001
f 369/1/101 367/2/101 360/3/101
f 369/1/101 360/3/101 363/4/101
f 366/5/102 372/1/102 364/4/102
f 366/5/102 364/4/102 359/6/102
f 357/7/103 362/8/103 371/1/103
f 357/7/103 371/1/103 365/5/103
f 361/8/104 358/9/104 368/2/104
f 361/8/104 368/2/104 370/1/104
f 385/1/105 383/2/105 376/3/105
f 385/1/105 376/3/105 379/4/105
f 382/5/106 388/1/106 380/4/106
f 382/5/106 380/4/106 375/6/106
f 373/7/107 378/8/107 387/1/107
f 373/7/107 387/1/107 381/5/107
f 377/8/108 374/9/108 384/2/108
f 377/8/108 384/2/108 386/1/108
f 403/1/109 399/2/109 392/3/109
f 403/1/109 392/3/109 396/4/109
f 398/5/110 402/1/110 395/4/110
f 398/5/110 395/4/110 391/6/110
f 389/7/111 393/8/111 401/1/111
f 389/7/111 401/1/111 397/5/111
f 394/8/112 390/9/112 400/2/112
f 394/8/112 400/2/112 404/1/112
f 420/1/113 416/2/113 408/3/113
f 420/1/113 408/3/113 412/4/113
f 414/5/114 418/1/114 411/4/114
f 414/5/114 411/4/114 407/6/114
f 405/7/115 409/8/115 417/1/115
f 405/7/115 417/1/115 413/5/115
f 410/8/116 406/9/116 415/2/116
f 410/8/116 415/2/116 419/1/116
f 431/1/117 430/2/117 424/4/117
f 427/5/118 432/1/118 425/4/118
f 423/4/119 429/2/119 422/3/119
f 426/4/120 421/6/120 428/5/120
f 444/1/121 441/2/121 437/4/121
f 440/5/122 443/1/122 436/4/122
f 438/4/123 442/2/123 434/3/123
f 435/4/124 433/6/124 439/5/124
s 1
f 456/1/125 453/2/125 449/4/125
s 0
f 452/5/126 455/1/126 448/4/126
f 450/4/127 454/2/127 446/3/127
f 447/4/128 445/6/128 451/5/128
f 467/1/129 466/2/129 460/4/129
f 463/5/130 468/1/130 461/4/130
s 1
f 459/4/131 465/2/131 458/3/131
s 0
f 462/4/132 457/6/132 464/5/132
f 479/1/133 478/2/133 472/4/133
f 475/5/134 480/1/134 473/4/134
f 471/4/135 477/2/135 470/3/135
f 474/4/136 469/6/136 476/5/136
usemtl hedge-01.003
f 496/14/137 492/2/137 484/3/137
f 496/14/137 484/3/137 488/15/137
f 490/5/138 494/14/138 487/15/138
f 490/5/138 487/15/138 483/6/138
f 481/7/139 485/16/139 493/14/139
f 481/7/139 493/14/139 489/5/139
f 486/16/140 482/9/140 491/2/140
f 486/16/140 491/2/140 495/14/140
f 510/14/141 508/2/141 500/3/141
f 510/14/141 500/3/141 503/15/141
f 505/5/142 511/14/142 504/15/142
f 505/5/142 504/15/142 499/6/142
f 497/7/143 502/16/143 512/14/143
f 497/7/143 512/14/143 506/5/143
f 501/16/144 498/9/144 507/2/144
f 501/16/144 507/2/144 509/14/144
f 528/14/145 524/2/145 516/3/145
f 528/14/145 516/3/145 520/15/145
f 521/5/146 525/14/146 519/15/146
f 521/5/146 519/15/146 515/6/146
f 513/7/147 517/16/147 526/14/147
f 513/7/147 526/14/147 522/5/147
f 518/16/148 514/9/148 523/2/148
f 518/16/148 523/2/148 527/14/148
f 540/17/149 537/2/149 533/15/149
f 536/5/150 539/17/150 532/15/150
f 534/15/151 538/2/151 530/3/151
f 531/15/152 529/6/152 535/5/152
f 551/17/153 550/2/153 544/15/153
f 547/5/154 552/17/154 545/15/154
f 543/15/155 549/2/155 542/3/155
f 546/15/156 541/6/156 548/5/156
f 564/17/157 561/2/157 557/15/157
f 560/5/158 563/17/158 556/15/158
f 558/15/159 562/2/159 554/3/159
f 555/15/160 553/6/160 559/5/160
