# Blender 5.1.0
# www.blender.org
mtllib Tree-02-3.mtl
o Tree-02-3
v 16.058895 -0.006243 15.725843
v 16.058895 -0.006243 15.725843
v 15.514965 5.971041 15.835105
v 15.514965 5.971041 15.835105
v 15.514965 5.971041 15.835105
v 15.526327 5.972419 15.833410
v 15.526327 5.972419 15.833410
v 15.526327 5.972419 15.833410
v 15.526327 5.972419 15.833410
v 15.526919 5.972717 15.842631
v 15.526919 5.972717 15.842631
v 15.526919 5.972717 15.842631
v 15.516591 5.971092 15.843524
v 15.516591 5.971092 15.843524
v 15.516591 5.971092 15.843524
v 15.516591 5.971092 15.843524
v 15.513454 5.343914 15.836937
v 15.513454 5.343914 15.836937
v 15.529598 5.343721 15.832904
v 15.529598 5.343721 15.832904
v 15.540572 5.337753 15.846231
v 15.540572 5.337753 15.846231
v 15.540572 5.337753 15.846231
v 15.526855 5.339624 15.854995
v 15.526855 5.339624 15.854995
v 15.518775 5.341459 15.852225
v 15.518775 5.341459 15.852225
v 15.323310 4.964238 15.746316
v 15.323310 4.964238 15.746316
v 15.323310 4.964238 15.746316
v 15.337611 4.961207 15.733330
v 15.337611 4.961207 15.733330
v 15.337611 4.961207 15.733330
v 15.359636 4.956966 15.758736
v 15.359636 4.956966 15.758736
v 15.359636 4.956966 15.758736
v 15.359636 4.956966 15.758736
v 15.345335 4.959996 15.771721
v 15.345335 4.959996 15.771721
v 15.345335 4.959996 15.771721
v 15.327274 4.962532 15.754778
v 15.327274 4.962532 15.754778
v 15.318068 4.679242 15.814466
v 15.318068 4.679242 15.814466
v 15.349777 4.681834 15.799503
v 15.349777 4.681834 15.799503
v 15.349777 4.681834 15.799503
v 15.349777 4.681834 15.799503
v 15.362346 4.685035 15.825249
v 15.362346 4.685035 15.825249
v 15.344677 4.684119 15.841290
v 15.344677 4.684119 15.841290
v 15.321387 4.680713 15.830382
v 15.468069 4.086765 15.762536
v 15.468069 4.086765 15.762536
v 15.468069 4.086765 15.762536
v 15.504566 4.097851 15.739939
v 15.504566 4.097851 15.739939
v 15.517312 4.102103 15.744154
v 15.517312 4.102103 15.744154
v 15.530217 4.107499 15.783095
v 15.530217 4.107499 15.783095
v 15.489657 4.097770 15.808640
v 15.489657 4.097770 15.808640
v 15.892095 3.322749 15.758236
v 15.892095 3.322749 15.758236
v 15.892095 3.322749 15.758236
v 15.892095 3.322749 15.758236
v 15.892095 3.322749 15.758236
v 15.892095 3.322749 15.758236
v 15.937483 3.337686 15.773235
v 15.937483 3.337686 15.773235
v 15.937483 3.337686 15.773235
v 15.937483 3.337686 15.773235
v 15.937483 3.337686 15.773235
v 15.937483 3.337686 15.773235
v 15.865212 3.321224 15.841346
v 15.865212 3.321224 15.841346
v 15.944807 2.856906 15.869637
v 15.944807 2.856906 15.869637
v 15.980393 2.855025 15.812717
v 15.980393 2.855025 15.812717
v 16.036928 2.860583 15.831563
v 16.036928 2.860583 15.831563
v 16.039160 2.861813 15.863760
v 16.039160 2.861813 15.863760
v 16.003735 2.864647 15.929748
v 16.003735 2.864647 15.929748
v 15.947201 2.859089 15.910902
v 15.947201 2.859089 15.910902
v 15.966706 2.117059 15.814431
v 15.966706 2.117059 15.814431
v 16.036737 2.117301 15.837900
v 16.036737 2.117301 15.837900
v 16.036737 2.117301 15.837900
v 15.996092 2.116219 15.959195
v 15.996092 2.116219 15.959195
v 15.926061 2.115977 15.935725
v 15.926061 2.115977 15.935725
v 15.926061 2.115977 15.935725
v 15.926061 2.115977 15.935725
v 15.924334 1.162839 15.823361
v 15.924334 1.162839 15.823361
v 15.990376 1.164149 15.764985
v 15.990376 1.164149 15.764985
v 16.073950 1.165371 15.793003
v 16.073950 1.165371 15.793003
v 16.077162 1.161191 15.852419
v 16.025440 1.163973 15.937775
v 16.025440 1.163973 15.937775
v 15.941865 1.162751 15.909756
v 15.941865 1.162751 15.909756
v 15.861316 -0.006243 15.829042
v 15.861316 -0.006243 15.829042
v 15.968898 -0.006243 15.736113
v 15.968898 -0.006243 15.736113
v 16.095375 -0.006243 15.963962
v 16.095375 -0.006243 15.963962
v 16.063499 -0.006243 16.021385
v 16.063499 -0.006243 16.021385
v 15.876633 -0.006243 16.013189
v 15.876633 -0.006243 16.013189
v 16.302324 6.140497 14.979499
v 16.302324 6.140497 14.979499
v 16.302324 6.140497 14.979499
v 16.302324 6.140497 14.979499
v 16.295820 6.137404 14.968727
v 16.295820 6.137404 14.968727
v 16.295820 6.137404 14.968727
v 16.308836 6.137207 14.968801
v 16.308836 6.137207 14.968801
v 16.308836 6.137207 14.968801
v 16.308836 6.137207 14.968801
v 16.308834 6.139334 14.975956
v 16.308834 6.139334 14.975956
v 16.308834 6.139334 14.975956
v 16.274649 5.187520 15.313028
v 16.274649 5.187520 15.313028
v 16.269224 5.188627 15.309014
v 16.269224 5.188627 15.309014
v 16.270212 5.181726 15.290294
v 16.270212 5.181726 15.290294
v 16.278250 5.178954 15.286308
v 16.278250 5.178954 15.286308
v 16.298141 5.178658 15.294678
v 16.298141 5.178658 15.294678
v 16.298182 5.183863 15.310735
v 16.298182 5.183863 15.310735
v 15.983447 4.483301 15.620473
v 15.983447 4.483301 15.620473
v 15.959573 4.484334 15.605174
v 15.959573 4.484334 15.605174
v 15.959893 4.477368 15.577809
v 15.959893 4.477368 15.577809
v 15.984089 4.469370 15.565743
v 15.984089 4.469370 15.565743
v 16.007963 4.468338 15.581042
v 16.007963 4.468338 15.581042
v 16.007643 4.475303 15.608407
v 16.007643 4.475303 15.608407
v 15.910603 3.336161 15.856340
v 15.910603 3.336161 15.856340
v 15.910603 3.336161 15.856340
v 15.910603 3.336161 15.856340
v 15.910603 3.336161 15.856340
v 15.857157 3.335934 15.830583
v 15.857157 3.335934 15.830583
v 15.855959 3.314517 15.792292
v 15.855959 3.314517 15.792292
v 15.855959 3.314517 15.792292
v 15.855959 3.314517 15.792292
v 15.855959 3.314517 15.792292
v 15.946736 3.344392 15.822287
v 15.946736 3.344392 15.822287
v 15.946736 3.344392 15.822287
v 15.946736 3.344392 15.822287
v 15.946736 3.344392 15.822287
v 15.946736 3.344392 15.822287
v 17.129301 1.533005 13.537625
v 15.114018 0.425932 14.178109
v 17.033091 2.713328 15.604309
v 15.017809 1.606256 16.244793
v 16.049238 1.147321 13.736877
v 15.981273 2.229458 15.873443
v 15.677763 1.844995 14.948149
v 15.029959 1.029753 15.125735
v 17.042997 2.158027 14.520756
v 17.416285 2.636635 17.935305
v 17.882387 1.304290 16.381166
v 15.737947 3.382291 16.689556
v 16.204050 2.049946 15.135417
v 17.764956 2.122822 17.116718
v 16.025944 2.777500 15.884902
v 16.920406 2.520988 16.145529
v 17.125973 1.695288 15.765019
v 16.631231 3.041169 17.297094
v 14.556990 2.876882 18.527962
v 16.813032 1.800477 17.700184
v 14.461984 4.289046 16.136393
v 16.718027 3.212641 15.308615
v 15.771966 2.542442 18.258362
v 15.642121 3.836929 15.783092
v 16.072113 3.410993 16.849178
v 16.812807 2.525761 16.604250
v 14.555772 3.627575 17.390953
v 13.990540 6.203305 15.914182
v 15.728446 6.629792 16.305967
v 14.469769 4.733775 15.646216
v 16.207676 5.160261 16.038002
v 14.841813 6.442760 15.939390
v 15.340568 4.961291 15.767111
v 15.332570 5.644639 15.691053
v 15.963861 5.944157 16.128506
v 14.234418 5.492250 15.731310
v 18.578054 2.425694 14.984130
v 16.012846 1.281975 14.667532
v 17.235952 4.791624 15.932178
v 14.670745 3.647906 15.615581
v 17.349695 1.982064 14.495718
v 17.349695 1.982064 14.495718
v 15.963361 4.271299 15.622745
v 16.270914 3.347609 14.750815
v 15.373041 2.435585 15.011551
v 17.914833 3.620965 15.343095
v 13.895436 3.725016 16.589548
v 15.483976 5.058867 15.301346
v 15.261911 2.325465 16.591614
v 16.850451 3.659316 15.303412
v 14.542640 4.279570 15.750222
v 15.998645 2.949109 15.851899
v 15.436682 3.525423 15.429514
v 16.098667 4.370172 15.231176
v 14.533427 3.011584 16.518364
v 13.288740 5.727289 14.743063
v 17.661203 6.113495 14.089631
v 13.748977 3.448967 16.258865
v 18.121441 3.835174 15.605433
v 15.326818 5.691466 14.022153
v 15.892948 3.540693 15.750116
v 16.034170 4.200147 14.519946
v 17.867392 4.964023 14.680320
v 13.502763 4.537127 15.358250
v 15.022167 5.293547 18.070877
v 13.534019 4.332353 13.470348
v 16.830204 2.803324 18.090271
v 15.342056 1.842130 13.489741
v 13.991187 4.650769 16.035631
v 15.947906 2.243913 15.883843
v 14.644081 2.916963 15.679440
v 14.290387 3.092694 13.526483
v 15.808521 4.009663 18.128044
v 14.726745 2.472143 14.455168
v 14.552072 1.489645 15.736629
v 16.108383 3.105114 15.207108
v 15.933711 2.122615 16.488569
v 14.552442 2.097598 15.133465
v 15.980715 2.661096 15.872090
v 15.280859 2.444148 15.773364
v 15.178971 1.818764 16.115135
v 15.377282 2.812711 14.847091
v 13.110274 2.598928 15.579470
v 13.751049 4.225883 16.276976
v 15.654500 1.706975 15.658414
v 16.295275 3.333930 16.355921
v 13.446220 3.447461 15.676650
v 13.446220 3.447461 15.676650
v 15.985556 2.545526 15.897306
v 15.985556 2.545526 15.897306
v 15.052351 3.151992 15.607524
v 15.052351 3.151992 15.607524
v 14.967951 3.826415 16.241179
v 14.371628 2.184278 15.543964
v 17.364550 4.045755 18.738556
v 17.234152 2.245386 18.213032
v 15.554488 4.810428 16.145288
v 15.424091 3.010058 15.619765
v 17.596924 3.113710 18.270229
v 17.596924 3.113710 18.270229
v 15.623878 3.895378 15.789398
v 15.623878 3.895378 15.789398
v 16.830828 3.721797 16.702400
v 16.830828 3.721797 16.702400
v 16.644695 4.397594 17.517313
v 16.469402 2.617267 16.923191
v 17.340036 5.467617 16.503611
v 17.309381 4.216109 17.813009
v 15.853815 4.256441 15.124380
v 15.823159 3.004932 16.433779
v 17.521606 4.703134 17.099297
v 17.521606 4.703134 17.099297
v 15.927555 3.567612 15.752710
v 15.927555 3.567612 15.752710
v 16.845804 4.049803 16.127007
v 16.845804 4.049803 16.127007
v 16.733671 4.894473 15.853211
v 16.665808 3.610864 17.126104
v 15.761681 2.733791 18.318239
v 16.984703 1.490544 17.392462
v 15.239098 3.576083 16.314203
v 16.462120 2.332836 15.388426
v 16.587387 2.201112 17.849596
v 15.947816 2.994387 15.848480
v 16.327457 2.887404 16.819698
v 15.580194 3.151724 17.426661
v 16.790848 1.931237 16.449045
v 18.409212 4.699596 14.522730
v 15.116538 5.717848 16.855782
v 17.567200 2.424733 14.487459
v 14.274528 3.442985 16.820511
v 16.898680 5.180308 16.146288
v 15.981478 2.921260 15.861329
v 16.904144 3.760623 16.231392
v 18.106659 3.659632 14.622865
v 18.106659 3.659632 14.622865
v 14.793829 4.618414 16.957613
v 16.904001 2.455636 17.856936
v 18.266518 2.776627 16.092003
v 15.224554 3.109360 16.698494
v 16.587070 3.430351 14.933560
v 17.661753 2.767507 16.968922
v 15.940759 3.338418 15.813075
v 16.623293 3.221603 16.510279
v 16.159805 2.792029 17.353476
v 17.478949 3.130955 15.558846
v 16.639490 5.374067 17.266500
v 15.484558 6.433745 16.391060
v 16.045477 4.045144 16.181982
v 14.890545 5.104821 15.306541
v 15.849760 5.897320 16.969360
v 15.849760 5.897320 16.969360
v 15.371694 4.572268 15.807640
v 15.371694 4.572268 15.807640
v 15.474239 5.023685 16.569786
v 15.474239 5.023685 16.569786
v 16.319801 4.764846 16.831818
v 15.148257 5.789743 15.929402
v 17.834969 5.959253 15.998489
v 15.948679 6.717241 16.083902
v 17.093121 4.435641 15.318265
v 15.206831 5.193629 15.403678
v 16.808943 6.302033 16.243128
v 16.112009 4.798442 15.452347
v 16.536551 5.328802 16.012585
v 17.496031 5.256690 15.754165
v 15.590350 5.974710 15.823296
v 17.433632 6.366965 15.249247
v 16.147028 6.846273 15.058223
v 16.957563 5.256381 15.219399
v 15.670959 5.735688 15.028376
v 16.729298 6.630280 15.290471
v 16.286329 5.506858 15.185699
v 16.556755 5.969392 15.405169
v 17.214502 5.870925 15.279655
v 15.915420 6.321462 15.088843
v 18.543787 2.734058 15.883653
v 17.950933 1.446062 14.507807
v 16.314238 2.940576 16.619837
v 15.721385 1.652580 15.243992
v 18.197432 2.212228 14.982924
v 18.197432 2.212228 14.982924
v 15.995076 2.351524 15.835298
v 16.967402 2.571954 15.381573
v 17.534081 2.877316 16.162983
v 16.883156 1.595819 14.805095
v 13.250329 2.407704 16.756443
v 14.627810 1.176144 17.732775
v 15.245670 3.332142 15.295543
v 16.623150 2.100582 16.271875
v 14.021210 1.901887 17.447968
v 15.971916 2.765801 15.875952
v 15.056799 2.650074 16.678240
v 14.156754 2.868812 16.153101
v 15.586268 1.662287 17.092695
v 14.795297 3.422896 17.870625
v 16.976574 3.988616 17.530870
v 14.343336 3.919891 15.930035
v 16.524614 4.485611 15.590282
v 15.926911 3.857006 17.739456
v 15.453058 4.271318 15.777585
v 15.459516 4.195106 16.715099
v 14.582673 3.686411 17.015120
v 16.751999 4.265942 16.625347
v 13.004986 3.140527 15.727311
v 14.650270 2.266268 17.188520
v 14.637421 4.661011 14.945759
v 16.282705 3.786751 16.406969
v 13.811235 2.808737 16.680853
v 15.453058 4.271318 15.777585
v 14.532849 3.848913 16.255171
v 13.715660 3.864033 15.429848
v 15.402819 3.030162 16.871973
v 15.535566 5.339878 15.849378
v 15.535566 5.339878 15.849378
v 16.132544 6.444796 15.694695
v 16.132544 6.444796 15.694695
v 15.908053 5.909926 15.906837
v 15.908053 5.909926 15.906837
v 16.406719 6.200646 15.343119
v 16.293472 5.651525 15.463951
v 15.768167 6.617625 15.639682
v 15.366314 6.126234 15.899971
v 15.321856 5.449977 15.847186
v 15.834833 5.115000 15.608943
v 15.521791 5.953894 15.832719
v 15.521791 5.953894 15.832719
v 15.467477 6.622299 16.173662
v 15.467477 6.622299 16.173662
v 15.570757 6.327254 15.973701
v 15.570757 6.327254 15.973701
v 15.224715 6.648782 15.971323
v 15.265720 6.396216 15.728303
v 15.470677 6.528509 16.404743
v 15.617037 6.173028 16.291157
v 15.542062 5.902258 15.970428
v 15.344469 5.998880 15.622243
v 16.308424 6.101743 14.986307
v 16.308424 6.101743 14.986307
v 16.220675 6.755728 14.773817
v 16.220675 6.755728 14.773817
v 16.311756 6.468309 14.936519
v 16.311756 6.468309 14.936519
v 16.377548 6.668827 14.541752
v 16.512684 6.391830 14.635797
v 15.989188 6.746143 14.810803
v 15.990402 6.442198 15.031504
v 16.173979 6.103323 15.023630
v 16.485966 6.041211 14.807488
v 16.186058 4.905630 15.409540
v 16.186058 4.905630 15.409540
v 15.547186 6.207528 14.648890
v 15.547186 6.207528 14.648890
v 15.944873 5.548453 14.849526
v 15.944873 5.548453 14.849526
v 14.988673 5.901204 14.707924
v 15.209448 5.217307 14.871537
v 15.767922 6.492911 15.005264
v 16.349276 5.912099 15.333266
v 16.345554 5.080019 15.593519
v 15.719549 4.604674 15.354652
v 15.586322 3.983192 15.754708
v 15.586322 3.983192 15.754708
v 14.862344 4.963795 15.381198
v 14.862344 4.963795 15.381198
v 15.296245 4.514757 15.389796
v 15.296245 4.514757 15.389796
v 15.296245 4.514757 15.389796
v 14.440815 4.589076 15.401529
v 14.731161 4.086133 15.380632
v 14.992266 5.176282 15.773641
v 15.564372 4.809085 15.909972
v 15.564372 4.809085 15.909972
v 15.687301 4.124259 15.960726
v 15.244296 3.652530 15.661792
v 15.831953 3.486283 15.780356
v 14.843781 1.914321 13.791286
v 14.843781 1.914321 13.791286
v 15.206059 2.581998 14.891426
v 14.315993 2.658494 13.526669
v 14.472715 3.447179 14.470921
v 15.524592 1.587742 13.689615
v 16.215366 2.104809 14.888406
v 16.232445 3.256596 15.746831
v 15.261522 4.116778 15.615929
v 15.308595 6.321732 14.842917
v 15.588513 6.765242 15.932467
v 15.287304 5.363123 15.301565
v 15.567223 5.806633 16.391113
v 15.640997 6.522250 15.321106
v 15.640997 6.522250 15.321106
v 15.522001 5.587436 15.846101
v 15.640662 6.297093 16.140385
v 15.361365 5.834472 15.059710
v 15.719868 6.051592 15.549288
v 14.843275 4.270976 14.664807
v 15.496231 5.130269 15.309129
v 15.137204 3.558258 15.470831
v 15.790160 4.417551 16.115152
v 15.367885 4.639104 14.829182
v 15.367885 4.639104 14.829182
v 15.571226 3.983643 15.739283
v 15.571226 3.983643 15.739283
v 15.705159 4.771091 15.653715
v 15.059155 3.897403 15.024641
v 15.615160 4.284231 15.178134
v 15.615160 4.284231 15.178134
v 15.759720 4.595726 13.897713
v 18.088474 3.616238 14.414310
v 14.794962 3.426430 15.671922
v 17.123716 2.446941 16.188519
v 16.812981 3.883522 13.905908
v 16.812981 3.883522 13.905908
v 15.972944 2.809179 15.831244
v 17.600784 2.973680 15.197836
v 15.252522 3.928663 14.715221
v 16.352655 3.184359 14.690654
v 14.048496 5.036871 17.185566
v 15.043199 6.185905 16.434753
v 14.931358 3.878957 16.297199
v 15.926061 5.027990 15.546385
v 15.384461 4.500757 15.814709
v 14.393638 5.653063 16.614521
v 14.393638 5.653063 16.614521
v 14.678049 5.075528 16.125950
v 14.465532 4.424579 16.649815
v 15.458591 5.575871 15.900839
v 17.073994 4.731462 17.526823
v 16.741060 5.910723 16.172470
v 15.838347 3.365304 16.449078
v 15.505415 4.544566 15.094725
v 15.563690 4.031628 15.791324
v 16.686586 5.426123 16.966648
v 16.686586 5.426123 16.966648
v 16.000641 4.783710 16.588669
v 16.341770 4.028391 16.995857
v 16.011372 5.210288 15.643544
v 13.617561 1.961050 16.939405
v 15.427113 0.696330 17.462395
v 14.979261 3.136888 15.530226
v 16.788813 1.872167 16.053213
v 15.967360 2.526988 15.899648
v 14.607552 1.447505 17.410868
v 15.207540 2.126627 16.837118
v 14.364556 2.636366 16.251408
v 16.171408 1.369267 16.777054
v 13.779063 3.377437 15.451677
v 14.105549 4.003098 14.352760
v 15.155924 4.226501 16.422155
v 15.482409 4.852162 15.323238
v 15.384461 4.500757 15.814709
v 14.068781 3.570783 14.834141
v 14.068781 3.570783 14.834141
v 14.769939 3.874944 15.306653
v 14.555824 3.789160 15.954689
v 14.879547 4.413224 14.853895
vn -0.9596 0.0018 0.2813
vn -0.9229 0.1732 0.3440
vn -0.9248 0.1670 0.3419
vn -0.2038 -0.0013 -0.9790
vn -0.3036 0.1835 -0.9350
vn -0.3284 0.2323 -0.9155
vn 0.7729 0.0045 -0.6345
vn 0.7490 -0.1023 -0.6546
vn 0.7527 -0.0879 -0.6525
vn 0.9977 0.0211 -0.0648
vn 0.3727 0.0181 0.9278
vn 0.4569 -0.2057 0.8654
vn 0.4558 -0.2027 0.8667
vn -0.3218 0.0120 0.9467
vn -0.4639 0.0568 0.8841
vn -0.4590 0.0552 0.8867
vn -0.9111 0.2227 0.3468
vn -0.9168 0.2087 0.3405
vn -0.4118 0.4096 -0.8140
vn -0.4117 0.4096 -0.8141
vn 0.7363 -0.1567 -0.6582
vn 0.7313 -0.1569 -0.6638
vn 0.5122 -0.4132 0.7529
vn -0.5686 0.1609 0.8067
vn -0.5702 0.1564 0.8065
vn -0.9627 -0.0836 0.2572
vn -0.8449 -0.0484 0.5328
vn -0.5096 -0.2051 -0.8356
vn -0.4942 -0.1214 -0.8608
vn -0.4945 -0.1230 -0.8604
vn -0.5097 -0.2051 -0.8356
vn 0.9015 0.0934 -0.4226
vn 0.7364 -0.1567 -0.6582
vn 0.9052 0.1014 -0.4127
vn 0.9015 0.0934 -0.4225
vn 0.6675 0.1819 0.7220
vn 0.6184 0.1408 0.7731
vn 0.6185 0.1409 0.7730
vn 0.6676 0.1819 0.7220
vn -0.6648 -0.0126 0.7469
vn -0.6683 -0.2477 0.7015
vn -0.5133 -0.1747 -0.8403
vn -0.5104 -0.1631 -0.8443
vn 0.2594 0.1658 -0.9514
vn 0.2685 0.1400 -0.9531
vn 0.2680 0.1413 -0.9530
vn 0.8674 0.3707 -0.3319
vn 0.8670 0.3730 -0.3304
vn 0.5526 0.2094 0.8067
vn 0.5495 0.2287 0.8036
vn -0.6695 -0.2466 0.7007
vn -0.8744 -0.4306 0.2238
vn -0.9354 -0.3009 0.1857
vn -0.9381 -0.2937 0.1835
vn -0.5380 -0.2941 -0.7900
vn 0.2770 0.1160 -0.9538
vn 0.8482 0.4523 -0.2758
vn 0.5281 0.3346 0.7805
vn 0.5282 0.3346 0.7804
vn -0.4789 -0.0938 0.8729
vn -0.4693 -0.0817 0.8792
vn -0.9728 -0.0963 -0.2105
vn -0.9932 -0.0620 0.0983
vn -0.7559 -0.2319 -0.6122
vn -0.8528 -0.1151 -0.5095
vn -0.9728 -0.0963 -0.2107
vn -0.7559 -0.2320 -0.6122
vn 0.3235 -0.0485 -0.9450
vn 0.3205 -0.0280 -0.9468
vn 0.3204 -0.0284 -0.9468
vn 0.9717 0.1782 -0.1548
vn 0.9749 0.1025 0.1979
vn 0.9894 0.0909 -0.1134
vn 0.7872 0.2223 0.5752
vn 0.8691 0.1098 0.4822
vn 0.9748 0.1025 0.1981
vn 0.7872 0.2224 0.5751
vn -0.3238 0.0616 0.9441
vn -0.3236 0.0611 0.9442
vn -0.8957 0.0181 -0.4442
vn -0.8912 0.0180 -0.4532
vn -0.8958 0.0181 -0.4442
vn 0.3176 0.0246 -0.9479
vn 0.3171 0.0246 -0.9481
vn 0.9255 0.0138 0.3786
vn 0.9198 0.0134 0.3923
vn -0.3178 0.0046 0.9482
vn -0.3178 0.0046 0.9481
vn -0.9798 -0.0217 0.1988
vn -0.9872 0.0208 0.1583
vn -0.9870 0.0199 0.1592
vn -0.7670 0.0327 -0.6408
vn -0.7679 0.0327 -0.6398
vn 0.2117 0.0485 -0.9761
vn 0.2088 0.0483 -0.9768
vn 0.9829 0.0339 0.1807
vn 0.9956 0.0204 -0.0913
vn 0.8889 0.0472 0.4556
vn -0.2251 0.0257 0.9740
vn -0.2250 0.0257 0.9740
vn -0.9909 0.0600 0.1203
vn -0.6568 0.0312 -0.7534
vn -0.6568 0.0312 -0.7535
vn 0.1013 0.0392 -0.9941
vn 0.9912 -0.0012 -0.1322
vn 0.8618 0.0628 0.5033
vn 0.8618 0.0628 0.5034
vn -0.1326 0.0805 0.9879
vn 0.2297 0.3176 0.9200
vn 0.2852 0.2833 0.9156
vn 0.2797 0.2868 0.9162
vn 0.2297 0.3144 0.9211
vn -0.5290 0.2940 0.7961
vn -0.4965 0.3914 0.7748
vn -0.4863 0.4183 0.7672
vn -0.9842 0.0835 0.1558
vn -0.9751 0.2216 0.0130
vn -0.9745 0.2244 0.0100
vn -0.2151 -0.3036 -0.9282
vn -0.3479 -0.2281 -0.9094
vn -0.3553 -0.2236 -0.9076
vn -0.2152 -0.3036 -0.9282
vn 0.3657 -0.3032 -0.8799
vn 0.3879 -0.3909 -0.8347
vn 0.3887 -0.3946 -0.8326
vn 0.9999 -0.0106 0.0016
vn 0.9815 -0.1837 0.0541
vn 0.9834 -0.1741 0.0512
vn 0.9999 -0.0106 0.0017
vn 0.4789 0.1862 0.8579
vn 0.4724 0.1894 0.8608
vn -0.4588 0.3612 0.8118
vn -0.4588 0.3613 0.8118
vn -0.9714 0.2238 -0.0798
vn -0.9731 0.2171 -0.0771
vn -0.5422 -0.1163 -0.8322
vn -0.5459 -0.1147 -0.8300
vn 0.4208 -0.3333 -0.8437
vn 0.4209 -0.3317 -0.8443
vn 0.9782 -0.2077 -0.0032
vn 0.9770 -0.2134 0.0011
vn 0.6026 0.1204 0.7889
vn -0.4569 0.2086 0.8647
vn -0.9962 0.0845 -0.0232
vn -0.6048 -0.0882 -0.7915
vn 0.4243 -0.1802 -0.8874
vn 0.9918 -0.0760 -0.1024
vn 0.0161 0.9584 -0.2849
vn -0.1375 0.9905 -0.0023
vn -0.1374 0.9905 -0.0023
vn -0.3561 0.7656 -0.5358
vn -0.5169 0.6808 -0.5190
vn -0.5683 0.7264 -0.3864
vn -0.3696 0.8106 -0.4542
vn -0.5282 0.7956 -0.2968
vn -0.7045 0.6069 -0.3679
vn -0.6904 0.6876 -0.2249
vn -0.3821 0.8572 -0.3452
vn -0.7024 0.5343 -0.4703
vn 0.5945 0.7749 -0.2148
vn 0.6666 0.6612 -0.3442
vn 0.5774 0.6751 -0.4592
vn 0.5310 0.8022 -0.2730
vn 0.4807 0.7328 -0.4816
vn 0.6391 0.5289 -0.5585
vn 0.5071 0.5855 -0.6325
vn 0.4439 0.8271 -0.3447
vn 0.7259 0.4782 -0.4944
vn 0.3171 0.7829 0.5352
vn 0.4996 0.7028 0.5064
vn 0.5430 0.7555 0.3666
vn 0.3250 0.8312 0.4511
vn 0.4929 0.8248 0.2771
vn 0.6985 0.6323 0.3352
vn 0.6707 0.7173 0.1890
vn 0.3308 0.8810 0.3382
vn 0.7058 0.5564 0.4385
vn -0.0574 0.2484 -0.9670
vn 0.1077 0.3220 -0.9406
vn 0.2133 0.1841 -0.9595
vn -0.0150 0.1450 -0.9893
vn 0.2026 0.0423 -0.9784
vn 0.3643 0.2653 -0.8927
vn 0.4046 0.0784 -0.9111
vn 0.0385 0.0129 -0.9992
vn 0.3237 0.4039 -0.8556
vn 0.2416 0.3785 -0.8935
vn 0.2416 0.3786 -0.8935
vn -0.1106 0.3803 -0.9182
vn 0.1745 0.4789 -0.8603
vn -0.1293 0.5236 -0.8421
vn -0.3042 0.2184 -0.9272
vn -0.3767 0.3994 -0.8358
vn 0.0844 0.5965 -0.7982
vn -0.2371 0.0687 -0.9691
vn -0.2371 0.0687 -0.9690
vn -0.5800 -0.4190 -0.6986
vn -0.4847 -0.2836 -0.8274
vn -0.3046 -0.3849 -0.8712
vn -0.4812 -0.5178 -0.7073
vn -0.2172 -0.5383 -0.8143
vn -0.1935 -0.2250 -0.9549
vn -0.0442 -0.3973 -0.9166
vn -0.3446 -0.6267 -0.6989
vn -0.3120 -0.0696 -0.9475
vn -0.3206 -0.4550 -0.8308
vn -0.1331 -0.4175 -0.8989
vn -0.0094 -0.6084 -0.7935
vn -0.2767 -0.6107 -0.7420
vn -0.0450 -0.7719 -0.6341
vn 0.1757 -0.5441 -0.8204
vn 0.1976 -0.7493 -0.6321
vn -0.2164 -0.7600 -0.6128
vn 0.1458 -0.3335 -0.9314
vn -0.7474 -0.4084 0.5240
vn -0.8201 -0.4278 0.3800
vn -0.7345 -0.5999 0.3173
vn -0.6706 -0.5369 0.5119
vn -0.6027 -0.7103 0.3637
vn -0.7875 -0.5921 0.1713
vn -0.6305 -0.7572 0.1707
vn -0.5703 -0.6624 0.4858
vn -0.8846 -0.4360 0.1652
vn -0.5798 0.7721 0.2601
vn -0.6315 0.6637 0.4009
vn -0.5284 0.6842 0.5026
vn -0.5097 0.8032 0.3085
vn -0.4304 0.7448 0.5100
vn -0.5727 0.5429 0.6142
vn -0.4335 0.6052 0.6677
vn -0.4142 0.8329 0.3670
vn -0.6667 0.4874 0.5639
vn -0.0127 0.0952 -0.9954
vn 0.1144 0.0692 -0.9910
vn 0.0767 0.0770 -0.9941
vn 0.3865 0.5128 -0.7666
vn 0.2816 0.5675 -0.7737
vn 0.2337 0.5892 -0.7735
vn 0.2029 0.0501 -0.9779
vn 0.2029 0.0502 -0.9779
vn 0.1269 0.6309 -0.7654
vn 0.8421 0.4529 -0.2928
vn 0.8422 0.4528 -0.2928
vn 0.7466 0.4912 -0.4487
vn 0.7846 0.4792 -0.3934
vn 0.6599 -0.2047 -0.7229
vn 0.7190 -0.2625 -0.6436
vn 0.7336 -0.2777 -0.6202
vn 0.6600 -0.2047 -0.7228
vn 0.6695 0.5071 -0.5429
vn 0.6695 0.5070 -0.5429
vn 0.7801 -0.3304 -0.5312
vn 0.8264 -0.1434 -0.5446
vn 0.8264 -0.1434 -0.5445
vn 0.7278 -0.2526 -0.6375
vn 0.7534 -0.2272 -0.6170
vn 0.6299 -0.7094 -0.3163
vn 0.6977 -0.6722 -0.2477
vn 0.7183 -0.6584 -0.2248
vn 0.6299 -0.7093 -0.3163
vn 0.6351 -0.3330 -0.6970
vn 0.6351 -0.3330 -0.6969
vn 0.7761 -0.6118 -0.1530
vn 0.7761 -0.6118 -0.1531
vn 0.5858 0.7535 0.2984
vn 0.7751 0.6084 0.1706
vn 0.7167 0.6952 0.0557
vn 0.5651 0.8024 0.1921
vn 0.6984 0.7129 -0.0625
vn 0.8643 0.5013 -0.0415
vn 0.8131 0.5645 -0.1422
vn 0.5222 0.8520 0.0367
vn 0.8966 0.4405 0.0454
vn 0.7614 -0.0433 0.6469
vn 0.5480 -0.0049 0.8365
vn 0.5333 -0.2725 0.8008
vn 0.3859 -0.4711 0.7932
vn 0.3087 -0.1866 0.9327
vn 0.2461 -0.3985 0.8835
vn 0.5554 -0.5446 0.6284
vn 0.3538 0.0248 0.9350
vn 0.1342 0.8731 0.4686
vn 0.2307 0.9172 0.3248
vn 0.1249 0.9475 0.2943
vn 0.0636 0.9077 0.4147
vn 0.0711 0.9720 0.2241
vn 0.2360 0.9572 0.1675
vn 0.1531 0.9801 0.1263
vn -0.0300 0.9407 0.3379
vn 0.3033 0.9315 0.2008
vn -0.4284 -0.2821 0.8584
vn -0.5069 -0.4508 0.7347
vn -0.4881 -0.4074 0.7719
vn -0.8935 -0.2040 0.4000
vn -0.8745 -0.0692 0.4800
vn -0.8721 -0.0587 0.4858
vn -0.8936 -0.2040 0.3998
vn -0.5499 -0.5648 0.6153
vn -0.8303 0.0760 0.5522
vn 0.1679 -0.3250 0.9307
vn -0.0747 -0.2476 0.9660
vn -0.0968 -0.4132 0.9055
vn 0.1091 -0.4498 0.8864
vn -0.1851 -0.5099 0.8401
vn -0.3134 -0.2895 0.9044
vn -0.3429 -0.4175 0.8415
vn 0.0259 -0.6033 0.7971
vn -0.2806 -0.1674 0.9451
vn 0.1410 0.0760 0.9871
vn -0.1059 0.1579 0.9818
vn -0.1262 -0.0279 0.9916
vn 0.0832 -0.0633 0.9945
vn -0.2178 -0.1475 0.9648
vn -0.3466 0.0870 0.9340
vn -0.3768 -0.0617 0.9243
vn 0.0008 -0.2517 0.9678
vn -0.3123 0.2197 0.9242
vn 0.0574 0.8832 -0.4655
vn -0.1815 0.7685 -0.6135
vn -0.0604 0.8977 -0.4364
vn -0.3005 0.7516 -0.5872
vn -0.2338 0.5591 -0.7954
vn -0.3507 0.5849 -0.7314
vn -0.2240 0.8954 -0.3849
vn -0.1357 0.5307 -0.8366
vn -0.0821 0.8027 0.5908
vn 0.1028 0.6706 0.7346
vn 0.1819 0.7440 0.6429
vn -0.0004 0.8424 0.5388
vn 0.2744 0.7578 0.5920
vn 0.3244 0.5607 0.7618
vn 0.3931 0.6157 0.6829
vn 0.1192 0.8839 0.4523
vn 0.2639 0.5093 0.8191
vn -0.3206 0.8623 0.3919
vn -0.1671 0.9201 0.3542
vn -0.2241 0.9393 0.2597
vn -0.3376 0.8912 0.3030
vn -0.2162 0.9612 0.1716
vn -0.0683 0.9668 0.2461
vn -0.0998 0.9822 0.1592
vn -0.3550 0.9167 0.1835
vn -0.0415 0.9475 0.3170
vn -0.4989 0.6433 0.5808
vn -0.3323 0.5769 0.7461
vn -0.2619 0.6919 0.6729
vn -0.4152 0.7269 0.5470
vn -0.1559 0.7486 0.6444
vn -0.1109 0.5753 0.8104
vn -0.0416 0.6617 0.7486
vn -0.2906 0.8233 0.4875
vn -0.1709 0.4911 0.8542
vn -0.0437 -0.0735 0.9963
vn 0.0314 0.1677 0.9853
vn 0.0273 0.1545 0.9876
vn 0.6628 -0.1858 0.7254
vn 0.7576 -0.0359 0.6517
vn 0.6571 -0.1936 0.7285
vn 0.0948 0.3679 0.9250
vn 0.5335 -0.3394 0.7747
vn 0.9828 -0.0651 -0.1731
vn 0.9893 0.1346 -0.0569
vn 0.9867 0.1566 -0.0437
vn 0.9828 -0.0650 -0.1731
vn 0.6448 0.4284 -0.6330
vn 0.5649 0.6038 -0.5624
vn 0.5648 0.6039 -0.5624
vn 0.6405 0.4404 -0.6292
vn 0.9417 0.3303 0.0644
vn 0.6960 0.2434 -0.6755
vn 0.2703 0.1258 0.9545
vn 0.2194 0.3548 0.9088
vn 0.2167 0.3650 0.9054
vn 0.8077 0.3267 0.4908
vn 0.7866 0.4876 0.3787
vn 0.7866 0.4876 0.3788
vn 0.8077 0.3254 0.4916
vn 0.1592 0.5545 0.8168
vn 0.1592 0.5544 0.8169
vn 0.7965 0.1477 0.5864
vn 0.7964 0.1477 0.5865
vn 0.8170 -0.1742 -0.5497
vn 0.7632 0.0521 -0.6441
vn 0.7692 0.0344 -0.6381
vn 0.1708 -0.3729 -0.9120
vn 0.0561 -0.2372 -0.9698
vn 0.1768 -0.3798 -0.9080
vn 0.6798 0.2416 -0.6925
vn 0.2875 -0.5044 -0.8142
vn 0.2876 -0.5044 -0.8142
vn 0.8550 0.1177 -0.5051
vn 0.1688 -0.1491 -0.9743
vn -0.0135 0.0027 -0.9999
vn 0.1742 -0.1536 -0.9727
vn 0.5638 0.5928 -0.5751
vn 0.3516 -0.3008 -0.8865
vn 0.3517 -0.3008 -0.8865
vn -0.4784 -0.4499 0.7541
vn -0.5336 -0.5371 0.6533
vn -0.3040 -0.6816 0.6656
vn -0.2677 -0.5740 0.7739
vn -0.7261 -0.3582 0.5869
vn -0.7769 -0.4027 0.4841
vn -0.3314 -0.7682 0.5477
vn -0.6568 -0.3024 0.6908
vn 0.8330 -0.1350 -0.5366
vn 0.8330 -0.1348 -0.5366
vn 0.9709 -0.1554 -0.1824
vn 0.8571 -0.2833 -0.4303
vn 0.9430 -0.3211 -0.0873
vn 0.9961 -0.0326 0.0820
vn 0.9709 -0.2100 0.1149
vn 0.8517 -0.4245 -0.3073
vn 0.9865 0.1580 0.0438
vn 0.5096 -0.4113 -0.7557
vn 0.6079 -0.5241 -0.5965
vn 0.6066 -0.5226 -0.5991
vn 0.9709 -0.1820 -0.1554
vn 0.9547 0.0232 -0.2967
vn 0.9607 -0.0062 -0.2776
vn 0.9709 -0.1820 -0.1556
vn 0.6765 -0.6111 -0.4110
vn 0.8982 0.1878 -0.3975
vn -0.3911 -0.5702 -0.7224
vn -0.2046 -0.7843 -0.5857
vn -0.4143 -0.6782 -0.6070
vn -0.2496 -0.8528 -0.4588
vn 0.0158 -0.8548 -0.5187
vn -0.0685 -0.9085 -0.4121
vn -0.4261 -0.7613 -0.4887
vn 0.0978 -0.7846 -0.6122
vn -0.4159 0.1013 -0.9038
vn -0.5300 -0.0528 -0.8463
vn -0.6508 0.0481 -0.7577
vn -0.4566 0.2266 -0.8603
vn -0.8569 -0.0648 -0.5114
vn -0.7564 -0.1588 -0.6345
vn -0.8568 -0.0648 -0.5115
vn -0.6419 -0.2400 -0.7282
vn -0.4957 0.3802 -0.7808
vn -0.8976 0.3708 0.2382
vn -0.8941 0.2288 0.3850
vn -0.8126 0.3127 0.4919
vn -0.8404 0.4749 0.2612
vn -0.6432 0.1743 0.7456
vn -0.7558 0.1061 0.6461
vn -0.8392 0.0427 0.5422
vn -0.7494 0.5976 0.2850
vn -0.7495 0.5975 0.2850
vn 0.4325 0.5918 0.6802
vn 0.3221 0.6939 0.6440
vn 0.2296 0.6433 0.7304
vn 0.4028 0.5193 0.7537
vn 0.1753 0.5720 0.8013
vn 0.0855 0.7542 0.6511
vn -0.0262 0.6952 0.7183
vn 0.1817 0.7931 0.5814
vn 0.3589 0.4196 0.8337
vn 0.7599 -0.5481 -0.3494
vn 0.7243 -0.6668 -0.1754
vn 0.6352 -0.7389 -0.2248
vn 0.7016 -0.5701 -0.4276
vn 0.4463 -0.8947 -0.0196
vn 0.5671 -0.8237 -0.0013
vn 0.6527 -0.7575 0.0127
vn 0.6241 -0.5886 -0.5138
vt 0.966382 8.503631
vt 0.966382 6.725045
vt 0.810921 6.725045
vt 0.810921 8.503631
vt 0.189079 8.503631
vt 0.189079 6.725048
vt 0.033618 6.725048
vt 0.033618 8.503633
vt 0.344539 8.503631
vt 0.344539 6.725048
vt 0.500000 8.503631
vt 0.655461 8.503631
vt 0.655461 6.725048
vt 0.500000 6.725048
vt 0.966382 4.946462
vt 0.810921 4.946462
vt 0.189079 4.946462
vt 0.033618 4.946462
vt 0.344539 4.946462
vt 0.655461 4.946462
vt 0.500000 4.946462
vt 0.966382 3.167876
vt 0.810921 3.167876
vt 0.189079 3.167876
vt 0.033618 3.167878
vt 0.500000 3.167876
vt 0.344539 3.167876
vt 0.655461 3.167876
vt 0.810921 1.389293
vt 0.189079 1.389293
vt 0.033618 1.389293
vt 0.344539 1.389293
vt 0.500000 1.389293
vt 0.655461 1.389293
vt 0.966382 1.389293
vt 0.966382 -0.389294
vt 0.810921 -0.389293
vt 0.189079 -0.389293
vt 0.033618 -0.389292
vt 0.344539 -0.389293
vt 0.500000 -0.389293
vt 0.655461 -0.389293
vt 0.966382 -2.167878
vt 0.810921 -2.167878
vt 0.189079 -2.167876
vt 0.033618 -2.167876
vt 0.344539 -2.167877
vt 0.500000 -2.167877
vt 0.655461 -2.167877
vt 0.810921 -3.946462
vt 0.189079 -3.946462
vt 0.033618 -3.946462
vt 0.344539 -3.946462
vt 0.655461 -3.946462
vt 0.500000 -3.946462
vt 0.966382 -3.946462
vt 0.966382 -5.725047
vt 0.810921 -5.725047
vt 0.189079 -5.725045
vt 0.033618 -5.725045
vt 0.344539 -5.725046
vt 0.500000 -5.725046
vt 0.655461 -5.725046
vt 0.966382 -7.503632
vt 0.810921 -7.503630
vt 0.189079 -7.503630
vt 0.033618 -7.503630
vt 0.344539 -7.503630
vt 0.500000 -7.503630
vt 0.655461 -7.503630
vt 0.000000 0.000000
vt 0.475004 0.000000
vt 0.581436 0.594393
vt 0.000000 0.491831
vt 0.494355 1.000000
vt 1.000000 0.474417
vt 1.000000 1.000000
vt 0.000000 1.000000
vt 1.000000 0.000000
vt 0.533479 0.000000
vt 0.447807 0.563622
vt 0.000000 0.448746
vt 0.515396 1.000000
vt 1.000000 0.474699
vt 0.509433 1.000000
vt 0.557025 0.488493
vt 0.943530 0.531260
vt 0.672370 1.000000
vt 0.124045 0.440587
vt 0.259966 0.000000
vt 0.602475 0.000000
vt 0.860970 0.000000
vt 0.189556 1.000000
vt 0.480173 0.000000
vt 0.499095 0.494221
vt 0.000000 0.504135
vt 0.518459 1.000000
vt 1.000000 0.484268
vt 0.532232 1.000000
vt 0.477364 0.470556
vt 1.000000 0.533264
vt 0.516556 0.000000
vt 0.000000 0.535225
s 1
usemtl trunk-01
f 3/1/1 17/2/2 26/3/3
f 3/1/1 26/3/3 13/4/1
f 6/5/4 19/6/5 18/7/6
f 6/5/4 18/7/6 4/8/4
f 8/9/7 22/10/8 20/6/9
s 0
f 12/11/10 23/10/10 9/9/10
s 1
f 16/12/11 25/13/12 21/14/13
f 16/12/11 21/14/13 11/11/11
f 14/4/14 27/3/15 24/13/16
f 17/2/2 28/15/17 41/16/18
f 17/2/2 41/16/18 26/3/3
f 19/6/5 32/17/19 30/18/20
f 19/6/5 30/18/20 18/7/6
f 22/10/8 36/19/21 33/17/22
f 22/10/8 33/17/22 20/6/9
f 25/13/12 39/20/23 34/21/23
f 25/13/12 34/21/23 21/14/13
f 27/3/15 42/16/24 38/20/25
f 27/3/15 38/20/25 24/13/16
f 28/15/17 43/22/26 53/23/27
f 28/15/17 53/23/27 41/16/18
f 31/17/28 45/24/29 44/25/30
f 31/17/28 44/25/30 29/18/31
f 36/19/21 47/24/32 33/17/22
f 37/21/33 50/26/34 48/27/35
f 40/20/36 52/28/37 49/26/38
f 40/20/36 49/26/38 35/21/39
f 42/16/24 53/23/27 51/28/40
f 42/16/24 51/28/40 38/20/25
f 43/22/26 55/29/41 53/23/27
f 45/24/29 57/30/42 56/31/43
f 45/24/29 56/31/43 44/25/30
f 46/27/44 59/32/45 58/30/46
f 50/26/34 62/33/47 60/32/48
f 50/26/34 60/32/48 48/27/35
f 52/28/37 64/34/49 61/33/50
f 52/28/37 61/33/50 49/26/38
f 53/23/27 55/29/41 63/34/51
f 53/23/27 63/34/51 51/28/40
f 54/35/52 169/36/53 77/37/54
f 57/30/42 67/38/55 172/39/55
f 57/30/42 172/39/55 56/31/43
f 59/32/45 71/40/56 68/38/56
f 59/32/45 68/38/56 58/30/46
f 62/33/47 176/41/57 74/40/57
f 62/33/47 74/40/57 60/32/48
f 64/34/49 163/42/58 173/41/59
f 64/34/49 173/41/59 61/33/50
f 55/29/41 78/37/60 161/42/61
f 55/29/41 161/42/61 63/34/51
f 169/36/53 80/43/62 89/44/63
f 169/36/53 89/44/63 77/37/54
f 65/38/64 81/45/65 79/46/66
f 65/38/64 79/46/66 170/39/67
f 72/40/68 83/47/69 82/45/70
f 72/40/68 82/45/70 69/38/68
f 177/41/71 86/48/72 84/47/73
f 177/41/71 84/47/73 75/40/71
f 165/42/74 88/49/75 85/48/76
f 165/42/74 85/48/76 175/41/77
f 78/37/60 90/44/78 87/49/79
f 78/37/60 87/49/79 161/42/61
f 80/43/62 100/50/80 89/44/63
f 81/45/65 91/51/81 99/52/82
f 81/45/65 99/52/82 79/46/66
f 83/47/69 93/53/83 92/51/84
f 83/47/69 92/51/84 82/45/70
f 86/48/72 94/53/85 84/47/73
f 88/49/75 97/54/86 95/55/85
f 88/49/75 95/55/85 85/48/76
f 90/44/78 101/50/87 96/54/88
f 90/44/78 96/54/88 87/49/79
f 98/56/89 102/57/90 111/58/91
f 91/51/81 104/59/92 103/60/93
f 91/51/81 103/60/93 99/52/82
f 93/53/83 106/61/94 105/59/95
f 93/53/83 105/59/95 92/51/84
f 95/55/85 108/62/96 107/61/97
f 97/54/86 110/63/98 108/62/96
f 97/54/86 108/62/96 95/55/85
f 101/50/87 112/58/99 109/63/100
f 101/50/87 109/63/100 96/54/88
f 102/57/90 113/64/101 121/65/101
f 102/57/90 121/65/101 111/58/91
f 104/59/92 115/66/102 114/67/103
f 104/59/92 114/67/103 103/60/93
f 106/61/94 1/68/104 116/66/104
f 106/61/94 116/66/104 105/59/95
f 108/62/96 118/69/105 2/68/105
f 108/62/96 2/68/105 107/61/97
f 110/63/98 120/70/106 117/69/107
f 110/63/98 117/69/107 108/62/96
f 112/58/99 122/65/108 119/70/108
f 112/58/99 119/70/108 109/63/100
f 126/1/109 138/22/110 147/23/111
f 126/1/109 147/23/111 135/4/112
f 124/5/113 140/24/114 137/25/115
f 127/9/116 141/27/117 139/24/118
f 127/9/116 139/24/118 123/5/116
f 130/11/119 143/26/120 142/27/121
f 130/11/119 142/27/121 128/9/122
f 132/12/123 145/28/124 144/26/125
f 136/4/126 148/23/127 146/28/128
f 136/4/126 146/28/128 133/12/129
f 138/22/110 150/43/130 159/44/131
f 138/22/110 159/44/131 147/23/111
f 140/24/114 152/45/132 149/46/133
f 140/24/114 149/46/133 137/25/115
f 141/27/117 153/47/134 151/45/135
f 141/27/117 151/45/135 139/24/118
f 143/26/120 155/48/136 154/47/137
f 143/26/120 154/47/137 142/27/121
f 145/28/124 157/49/138 156/48/139
f 145/28/124 156/48/139 144/26/125
f 148/23/127 160/44/140 158/49/141
f 148/23/127 158/49/141 146/28/128
f 150/43/130 164/64/142 174/65/142
f 150/43/130 174/65/142 159/44/131
f 152/45/132 167/66/143 162/67/143
f 152/45/132 162/67/143 149/46/133
f 153/47/134 168/68/144 166/66/144
f 153/47/134 166/66/144 151/45/135
f 155/48/136 66/69/145 171/68/145
f 155/48/136 171/68/145 154/47/137
f 157/49/138 73/70/146 70/69/146
f 157/49/138 70/69/146 156/48/139
f 160/44/140 178/65/147 76/70/147
f 160/44/140 76/70/147 158/49/141
s 0
f 134/4/148 131/12/148 129/9/148
f 134/4/148 129/9/148 125/5/148
s 1
f 15/12/149 10/11/149 7/9/150
f 15/12/149 7/9/150 5/8/149
usemtl branch-2-02
f 179/71/151 183/72/152 185/73/153
f 179/71/151 185/73/153 187/74/154
f 184/75/155 185/73/153 186/76/156
f 184/75/155 186/76/156 182/77/157
f 187/74/154 185/73/153 184/75/155
f 187/74/154 184/75/155 181/78/158
f 186/76/156 185/73/153 183/72/152
f 186/76/156 183/72/152 180/79/159
f 188/71/160 192/72/161 194/73/162
f 188/71/160 194/73/162 196/74/163
f 193/75/164 194/73/162 195/76/165
f 193/75/164 195/76/165 191/77/166
f 196/74/163 194/73/162 193/75/164
f 196/74/163 193/75/164 190/78/167
f 195/76/165 194/73/162 192/72/161
f 195/76/165 192/72/161 189/79/168
f 197/71/169 201/72/170 203/73/171
f 197/71/169 203/73/171 205/74/172
f 202/75/173 203/73/171 204/76/174
f 202/75/173 204/76/174 200/77/175
f 205/74/172 203/73/171 202/75/173
f 205/74/172 202/75/173 199/78/176
f 204/76/174 203/73/171 201/72/170
f 204/76/174 201/72/170 198/79/177
f 206/71/178 210/72/179 212/73/180
f 206/71/178 212/73/180 214/74/181
f 211/75/182 212/73/180 213/76/183
f 211/75/182 213/76/183 209/77/184
f 214/74/181 212/73/180 211/75/182
f 214/74/181 211/75/182 208/78/185
f 213/76/183 212/73/180 210/72/179
f 213/76/183 210/72/179 207/79/186
f 215/71/187 220/72/188 222/73/189
f 215/71/187 222/73/189 224/74/190
f 221/75/191 222/73/189 223/76/192
f 221/75/191 223/76/192 218/77/193
f 224/74/190 222/73/189 221/75/191
f 224/74/190 221/75/191 217/78/194
f 223/76/192 222/73/189 219/72/195
f 223/76/192 219/72/195 216/79/196
f 225/71/197 229/72/198 231/73/199
f 225/71/197 231/73/199 233/74/200
f 230/75/201 231/73/199 232/76/202
f 230/75/201 232/76/202 228/77/203
f 233/74/200 231/73/199 230/75/201
f 233/74/200 230/75/201 227/78/204
f 232/76/202 231/73/199 229/72/198
f 232/76/202 229/72/198 226/79/205
f 234/71/206 238/72/207 240/73/208
f 234/71/206 240/73/208 242/74/209
f 239/75/210 240/73/208 241/76/211
f 239/75/210 241/76/211 237/77/212
f 242/74/209 240/73/208 239/75/210
f 242/74/209 239/75/210 236/78/213
f 241/76/211 240/73/208 238/72/207
f 241/76/211 238/72/207 235/79/214
f 243/71/215 247/72/216 249/73/217
f 243/71/215 249/73/217 251/74/218
f 248/75/219 249/73/217 250/76/220
f 248/75/219 250/76/220 246/77/221
f 251/74/218 249/73/217 248/75/219
f 251/74/218 248/75/219 245/78/222
f 250/76/220 249/73/217 247/72/216
f 250/76/220 247/72/216 244/79/223
f 252/71/224 256/72/225 258/73/226
f 252/71/224 258/73/226 260/74/227
f 257/75/228 258/73/226 259/76/229
f 257/75/228 259/76/229 255/77/230
f 260/74/227 258/73/226 257/75/228
f 260/74/227 257/75/228 254/78/231
f 259/76/229 258/73/226 256/72/225
f 259/76/229 256/72/225 253/79/232
f 261/71/233 265/72/233 269/73/234
f 261/71/233 269/73/234 272/74/235
f 268/75/236 270/73/237 271/76/238
f 268/75/236 271/76/238 264/77/236
f 272/74/235 269/73/234 267/75/239
f 272/74/235 267/75/239 263/78/240
f 271/76/238 270/73/237 266/72/241
f 271/76/238 266/72/241 262/79/241
usemtl branch-2-01
f 273/71/242 278/80/243 282/81/244
f 273/71/242 282/81/244 283/82/245
f 279/83/246 281/81/247 284/84/248
f 279/83/246 284/84/248 276/77/249
f 283/82/245 282/81/244 280/83/250
f 283/82/245 280/83/250 275/78/251
f 284/84/248 281/81/247 277/80/252
f 284/84/248 277/80/252 274/79/252
f 285/71/253 290/80/254 294/81/255
f 285/71/253 294/81/255 295/82/256
f 291/83/257 293/81/258 296/84/259
f 291/83/257 296/84/259 288/77/260
f 295/82/256 294/81/255 292/83/261
f 295/82/256 292/83/261 287/78/262
f 296/84/259 293/81/258 289/80/263
f 296/84/259 289/80/263 286/79/264
f 297/71/265 301/80/266 303/81/267
f 297/71/265 303/81/267 304/82/268
f 302/83/269 303/81/267 305/84/270
f 302/83/269 305/84/270 300/77/271
f 304/82/268 303/81/267 302/83/269
f 304/82/268 302/83/269 299/78/272
f 305/84/270 303/81/267 301/80/266
f 305/84/270 301/80/266 298/79/273
f 306/71/274 310/80/275 312/81/276
f 306/71/274 312/81/276 314/82/274
f 311/83/277 312/81/276 315/84/278
f 311/83/277 315/84/278 309/77/279
f 313/82/280 312/81/276 311/83/277
f 313/82/280 311/83/277 308/78/280
f 315/84/278 312/81/276 310/80/275
f 315/84/278 310/80/275 307/79/281
f 316/71/282 320/80/283 322/81/284
f 316/71/282 322/81/284 323/82/285
f 321/83/286 322/81/284 324/84/287
f 321/83/286 324/84/287 319/77/288
f 323/82/285 322/81/284 321/83/286
f 323/82/285 321/83/286 318/78/289
f 324/84/287 322/81/284 320/80/283
f 324/84/287 320/80/283 317/79/290
f 325/71/291 330/80/291 334/81/292
f 325/71/291 334/81/292 335/82/293
f 331/83/294 333/81/295 336/84/296
f 331/83/294 336/84/296 328/77/297
f 335/82/293 334/81/292 332/83/298
f 335/82/293 332/83/298 327/78/298
f 336/84/296 333/81/295 329/80/299
f 336/84/296 329/80/299 326/79/299
f 337/71/300 341/80/301 343/81/302
f 337/71/300 343/81/302 344/82/303
f 342/83/304 343/81/302 345/84/305
f 342/83/304 345/84/305 340/77/306
f 344/82/303 343/81/302 342/83/304
f 344/82/303 342/83/304 339/78/307
f 345/84/305 343/81/302 341/80/301
f 345/84/305 341/80/301 338/79/308
f 346/71/309 350/80/310 352/81/311
f 346/71/309 352/81/311 353/82/312
f 351/83/313 352/81/311 354/84/314
f 351/83/313 354/84/314 349/77/315
f 353/82/312 352/81/311 351/83/313
f 353/82/312 351/83/313 348/78/316
f 354/84/314 352/81/311 350/80/310
f 354/84/314 350/80/310 347/79/317
f 355/71/318 360/80/318 362/81/319
f 355/71/318 362/81/319 363/82/320
f 361/83/321 362/81/319 364/84/322
f 361/83/321 364/84/322 358/77/323
f 363/82/320 362/81/319 361/83/321
f 363/82/320 361/83/321 357/78/324
f 364/84/322 362/81/319 359/80/325
f 364/84/322 359/80/325 356/79/325
f 365/71/326 369/80/327 371/81/328
f 365/71/326 371/81/328 372/82/329
f 370/83/330 371/81/328 373/84/331
f 370/83/330 373/84/331 368/77/332
f 372/82/329 371/81/328 370/83/330
f 372/82/329 370/83/330 367/78/333
f 373/84/331 371/81/328 369/80/327
f 373/84/331 369/80/327 366/79/334
f 374/71/335 378/80/336 380/81/337
f 374/71/335 380/81/337 381/82/338
f 379/83/339 380/81/337 382/84/340
f 379/83/339 382/84/340 377/77/341
f 381/82/338 380/81/337 379/83/339
f 381/82/338 379/83/339 376/78/342
f 382/84/340 380/81/337 378/80/336
f 382/84/340 378/80/336 375/79/343
f 383/71/344 387/80/345 389/81/346
f 383/71/344 389/81/346 390/82/347
f 388/83/348 389/81/346 391/84/349
f 388/83/348 391/84/349 386/77/350
f 390/82/347 389/81/346 388/83/348
f 390/82/347 388/83/348 385/78/351
f 391/84/349 389/81/346 387/80/345
f 391/84/349 387/80/345 384/79/352
usemtl branch-2-04
f 392/85/353 396/86/354 401/87/355
f 392/85/353 401/87/355 402/88/353
f 399/89/356 398/90/357 395/91/357
f 399/89/356 395/91/357 397/86/358
f 400/92/359 401/87/355 396/86/354
f 400/92/359 396/86/354 394/91/359
f 403/93/360 399/89/356 397/86/358
f 403/93/360 397/86/358 393/85/360
f 405/85/361 409/86/362 413/87/363
f 405/85/361 413/87/363 414/88/364
f 411/89/365 410/90/366 406/91/367
f 411/89/365 406/91/367 408/86/368
f 412/92/369 413/87/363 409/86/362
f 412/92/369 409/86/362 407/91/369
f 415/93/370 411/89/365 408/86/368
f 415/93/370 408/86/368 404/85/370
f 416/85/371 420/86/372 425/87/373
f 416/85/371 425/87/373 426/88/371
f 423/89/374 422/90/375 419/91/376
f 423/89/374 419/91/376 421/86/377
f 424/92/378 425/87/373 420/86/372
f 424/92/378 420/86/372 418/91/379
f 427/93/380 423/89/374 421/86/377
f 427/93/380 421/86/377 417/85/381
f 429/85/382 433/86/383 437/87/384
f 429/85/382 437/87/384 438/88/382
f 435/89/385 434/90/386 430/91/386
f 435/89/385 430/91/386 432/86/387
f 436/92/388 437/87/384 433/86/383
f 436/92/388 433/86/383 431/91/388
f 439/93/389 435/89/385 432/86/387
f 439/93/389 432/86/387 428/85/390
f 441/85/391 446/86/391 451/87/391
f 441/85/391 451/87/391 452/88/391
f 448/89/392 447/90/393 442/91/393
f 448/89/392 442/91/393 444/86/394
f 449/92/395 450/87/395 445/86/395
f 449/92/395 445/86/395 443/91/395
f 453/93/396 448/89/392 444/86/394
f 453/93/396 444/86/394 440/85/397
f 454/85/398 457/86/399 461/87/400
f 454/85/398 461/87/400 462/88/401
f 459/89/402 458/90/403 455/91/403
f 459/89/402 455/91/403 457/86/399
f 460/92/404 461/87/400 457/86/399
f 460/92/404 457/86/399 456/91/404
f 463/93/405 459/89/402 457/86/399
f 463/93/405 457/86/399 454/85/398
usemtl branch-2-05
f 464/71/406 468/94/407 473/95/408
f 464/71/406 473/95/408 472/96/409
f 470/97/410 473/95/408 471/98/411
f 470/97/410 471/98/411 467/77/412
f 472/96/409 473/95/408 470/97/410
f 472/96/409 470/97/410 466/78/413
f 471/98/411 473/95/408 469/94/414
f 471/98/411 469/94/414 465/79/414
f 474/71/415 478/94/415 484/95/416
f 474/71/415 484/95/416 483/96/417
f 481/97/418 485/95/419 482/98/420
f 481/97/418 482/98/420 477/77/421
f 483/96/417 484/95/416 480/97/422
f 483/96/417 480/97/422 476/78/422
f 482/98/420 485/95/419 479/94/423
f 482/98/420 479/94/423 475/79/423
f 486/71/424 490/94/424 495/95/425
f 486/71/424 495/95/425 494/96/426
f 492/97/427 495/95/425 493/98/428
f 492/97/427 493/98/428 489/77/429
f 494/96/426 495/95/425 492/97/427
f 494/96/426 492/97/427 488/78/430
f 493/98/428 495/95/425 491/94/431
f 493/98/428 491/94/431 487/79/431
usemtl branch-2-03
f 499/77/432 500/99/433 503/100/434
f 499/77/432 503/100/434 505/101/435
f 501/102/436 503/100/434 504/103/437
f 501/102/436 504/103/437 496/71/438
f 504/103/437 503/100/434 500/99/433
f 504/103/437 500/99/433 498/78/439
f 505/101/435 503/100/434 502/102/440
f 505/101/435 502/102/440 497/79/440
f 509/77/441 510/99/442 513/100/443
f 509/77/441 513/100/443 515/101/444
f 512/102/445 513/100/443 514/103/446
f 512/102/445 514/103/446 506/71/445
f 514/103/446 513/100/443 510/99/442
f 514/103/446 510/99/442 508/78/447
f 515/101/444 513/100/443 511/102/448
f 515/101/444 511/102/448 507/79/449
f 519/77/450 520/99/451 522/100/452
f 519/77/450 522/100/452 524/101/453
f 521/102/454 522/100/452 523/103/455
f 521/102/454 523/103/455 516/71/456
f 523/103/455 522/100/452 520/99/451
f 523/103/455 520/99/451 518/78/457
f 524/101/453 522/100/452 521/102/454
f 524/101/453 521/102/454 517/79/458
f 528/77/459 529/99/460 532/100/461
f 528/77/459 532/100/461 534/101/462
f 530/102/463 532/100/461 533/103/464
f 530/102/463 533/103/464 525/71/463
f 533/103/464 532/100/461 529/99/460
f 533/103/464 529/99/460 527/78/465
f 534/101/462 532/100/461 531/102/466
f 534/101/462 531/102/466 526/79/466
