# Blender 5.1.0
# www.blender.org
mtllib Tree-01-2.mtl
o Tree-01-2
v 10.218970 6.544237 10.484129
v 10.218970 6.544237 10.484129
v 10.218970 6.544237 10.484129
v 10.225133 6.542469 10.488094
v 10.225133 6.542469 10.488094
v 10.225133 6.542469 10.488094
v 10.224533 6.540700 10.495399
v 10.224533 6.540700 10.495399
v 10.224533 6.540700 10.495399
v 10.217750 6.542469 10.491823
v 10.217750 6.542469 10.491823
v 10.217750 6.542469 10.491823
v 10.217750 6.542469 10.491823
v 10.124573 5.784075 10.285868
v 10.124573 5.784075 10.285868
v 10.135876 5.780529 10.293122
v 10.135876 5.780529 10.293122
v 10.135029 5.778754 10.306873
v 10.135029 5.778754 10.306873
v 10.122879 5.780526 10.313371
v 10.122879 5.780526 10.313371
v 10.111576 5.784072 10.306116
v 10.111576 5.784072 10.306116
v 9.995478 5.433179 10.278809
v 9.995478 5.433179 10.278809
v 9.995478 5.433179 10.278809
v 10.026065 5.425576 10.279769
v 10.026065 5.425576 10.279769
v 10.025683 5.426338 10.297955
v 10.025683 5.426338 10.297955
v 9.995096 5.433941 10.296994
v 9.995096 5.433941 10.296994
v 9.995096 5.433941 10.296994
v 9.995096 5.433941 10.296994
v 9.931775 5.101831 10.310872
v 9.931775 5.101831 10.310872
v 9.951772 5.099468 10.300257
v 9.951772 5.099468 10.300257
v 9.970421 5.094132 10.312170
v 9.970421 5.094132 10.312170
v 9.949076 5.093525 10.345314
v 9.949076 5.093525 10.345314
v 9.949076 5.093525 10.345314
v 9.949076 5.093525 10.345314
v 9.930427 5.098861 10.333401
v 9.930427 5.098861 10.333401
v 9.835867 4.673886 10.131177
v 9.835867 4.673886 10.131177
v 9.862928 4.675581 10.118267
v 9.862928 4.675581 10.118267
v 9.887529 4.668532 10.133981
v 9.887529 4.668532 10.133981
v 9.885070 4.659787 10.162604
v 9.885070 4.659787 10.162604
v 9.848436 4.658092 10.158354
v 9.848436 4.658092 10.158354
v 9.848436 4.658092 10.158354
v 9.904884 3.243920 9.771549
v 9.904884 3.243920 9.771549
v 9.951331 3.239065 9.803949
v 9.951331 3.239065 9.803949
v 9.946689 3.221628 9.857848
v 9.946689 3.221628 9.857848
v 9.869553 3.209045 9.863783
v 9.869553 3.209045 9.863783
v 9.849153 3.213900 9.846947
v 9.849153 3.213900 9.846947
v 9.849153 3.213900 9.846947
v 9.936804 2.800379 9.610861
v 9.936804 2.800379 9.610861
v 9.995585 2.810781 9.585098
v 9.995585 2.810781 9.585098
v 9.995585 2.810781 9.585098
v 9.995585 2.810781 9.585098
v 10.043308 2.786391 9.684138
v 10.043308 2.786391 9.684138
v 9.984528 2.775990 9.709901
v 9.984528 2.775990 9.709901
v 9.931275 2.782984 9.673263
v 9.931275 2.782984 9.673263
v 9.835423 1.731731 9.443160
v 9.835423 1.731731 9.443160
v 9.910176 1.733322 9.408328
v 9.910176 1.733322 9.408328
v 9.977697 1.726985 9.455280
v 9.977697 1.726985 9.455280
v 9.970467 1.719058 9.537065
v 9.970467 1.719058 9.537065
v 9.895712 1.717468 9.571902
v 9.895712 1.717468 9.571902
v 9.895712 1.717468 9.571902
v 9.895712 1.717468 9.571902
v 9.846312 1.219599 9.413266
v 9.846312 1.219599 9.413266
v 9.954953 1.210362 9.397389
v 9.954953 1.210362 9.397389
v 9.954953 1.210362 9.397389
v 9.954953 1.210362 9.397389
v 9.991498 1.203178 9.514042
v 9.991498 1.203178 9.514042
v 9.911177 1.204205 9.551773
v 9.911177 1.204205 9.551773
v 9.838583 1.212415 9.501385
v 9.838583 1.212415 9.501385
v 9.673155 0.000000 9.263030
v 9.673155 0.000000 9.263030
v 9.836827 0.000000 9.275214
v 9.836827 0.000000 9.275214
v 9.828240 0.000000 9.370051
v 9.828240 0.000000 9.370051
v 9.828240 0.000000 9.370051
v 9.828240 0.000000 9.370051
v 9.742110 0.000000 9.411378
v 9.742110 0.000000 9.411378
v 9.664568 0.000000 9.357867
v 9.664568 0.000000 9.357867
v 9.506970 6.422642 8.659122
v 9.506970 6.422642 8.659122
v 9.506970 6.422642 8.659122
v 9.496431 6.423199 8.663898
v 9.496431 6.423199 8.663898
v 9.496431 6.423199 8.663898
v 9.496431 6.423199 8.663898
v 9.493268 6.422443 8.655245
v 9.493268 6.422443 8.655245
v 9.493268 6.422443 8.655245
v 9.503078 6.421611 8.651552
v 9.503078 6.421611 8.651552
v 9.503078 6.421611 8.651552
v 9.503078 6.421611 8.651552
v 9.591810 5.754068 8.709814
v 9.591810 5.754068 8.709814
v 9.577577 5.752746 8.718332
v 9.577577 5.752746 8.718332
v 9.564221 5.743852 8.709281
v 9.564221 5.743852 8.709281
v 9.564221 5.743852 8.709281
v 9.574607 5.746207 8.696805
v 9.574607 5.746207 8.696805
v 9.582827 5.749250 8.696964
v 9.582827 5.749250 8.696964
v 9.848905 5.377732 8.773500
v 9.848905 5.377732 8.773500
v 9.848905 5.377732 8.773500
v 9.839291 5.374551 8.790272
v 9.839291 5.374551 8.790272
v 9.839291 5.374551 8.790272
v 9.811825 5.365095 8.772732
v 9.811825 5.365095 8.772732
v 9.811825 5.365095 8.772732
v 9.811825 5.365095 8.772732
v 9.821439 5.368277 8.755961
v 9.821439 5.368277 8.755961
v 9.821439 5.368277 8.755961
v 9.843008 5.374595 8.766712
v 9.843008 5.374595 8.766712
v 9.873116 5.066915 8.730979
v 9.873116 5.066915 8.730979
v 9.846714 5.068260 8.754181
v 9.846714 5.068260 8.754181
v 9.846714 5.068260 8.754181
v 9.846714 5.068260 8.754181
v 9.827167 5.067616 8.732964
v 9.827167 5.067616 8.732964
v 9.839668 5.066579 8.712639
v 9.839668 5.066579 8.712639
v 9.865339 5.066406 8.716622
v 9.823904 4.426547 8.873731
v 9.823904 4.426547 8.873731
v 9.823904 4.426547 8.873731
v 9.793923 4.437325 8.904882
v 9.793923 4.437325 8.904882
v 9.780043 4.440159 8.904175
v 9.780043 4.440159 8.904175
v 9.756218 4.440366 8.870276
v 9.756218 4.440366 8.870276
v 9.789068 4.431103 8.835027
v 9.789068 4.431103 8.835027
v 9.523375 3.571544 9.064478
v 9.523375 3.571544 9.064478
v 9.523375 3.571544 9.064478
v 9.523375 3.571544 9.064478
v 9.523375 3.571544 9.064478
v 9.523375 3.571544 9.064478
v 9.473973 3.581420 9.061988
v 9.473973 3.581420 9.061988
v 9.473973 3.581420 9.061988
v 9.473973 3.581420 9.061988
v 9.473973 3.581420 9.061988
v 9.473973 3.581420 9.061988
v 9.526119 3.563351 8.977541
v 9.526119 3.563351 8.977541
v 9.504566 3.057563 9.012632
v 9.504566 3.057563 9.012632
v 9.486715 3.058394 9.077371
v 9.486715 3.058394 9.077371
v 9.426885 3.056769 9.075213
v 9.426885 3.056769 9.075213
v 9.415656 3.054312 9.045026
v 9.415656 3.054312 9.045026
v 9.430710 3.053481 8.971601
v 9.430710 3.053481 8.971601
v 9.490541 3.055107 8.973758
v 9.490541 3.055107 8.973758
v 9.598020 2.272857 9.134011
v 9.598020 2.272857 9.134011
v 9.524757 2.263749 9.131779
v 9.524757 2.263749 9.131779
v 9.524757 2.263749 9.131779
v 9.529957 2.253147 9.004396
v 9.529957 2.253147 9.004396
v 9.603218 2.262256 9.006628
v 9.603218 2.262256 9.006628
v 9.603218 2.262256 9.006628
v 9.603218 2.262256 9.006628
v 9.763581 1.258773 9.193728
v 9.763581 1.258773 9.193728
v 9.716694 1.260218 9.268366
v 9.716694 1.260218 9.268366
v 9.629136 1.250342 9.265615
v 9.629136 1.250342 9.265615
v 9.610146 1.239020 9.210189
v 9.635354 1.237575 9.113585
v 9.635354 1.237575 9.113585
v 9.722912 1.247451 9.116338
v 9.722912 1.247451 9.116338
v 9.933993 0.000000 9.265224
v 9.933993 0.000000 9.265224
v 9.883472 0.000000 9.346259
v 9.883472 0.000000 9.346259
v 9.759285 0.000000 9.221706
v 9.759285 0.000000 9.221706
v 9.759285 0.000000 9.221706
v 9.759285 0.000000 9.221706
v 9.768510 0.000000 9.178206
v 9.768510 0.000000 9.178206
v 9.888865 0.000000 9.148053
v 9.888865 0.000000 9.148053
v 8.971700 6.621478 9.688343
v 8.971700 6.621478 9.688343
v 8.971700 6.621478 9.688343
v 8.971700 6.621478 9.688343
v 8.981299 6.619999 9.697009
v 8.981299 6.619999 9.697009
v 8.981299 6.619999 9.697009
v 8.981299 6.619999 9.697009
v 8.968906 6.618521 9.700707
v 8.968906 6.618521 9.700707
v 8.968906 6.618521 9.700707
v 8.968906 6.618521 9.700707
v 8.966639 6.619999 9.693699
v 8.966639 6.619999 9.693699
v 8.966639 6.619999 9.693699
v 8.966639 6.619999 9.693699
v 9.032999 5.571486 9.442410
v 9.032999 5.571486 9.442410
v 9.039132 5.573634 9.444584
v 9.039132 5.573634 9.444584
v 9.044312 5.568248 9.463316
v 9.044312 5.568248 9.463316
v 9.038131 5.564955 9.469670
v 9.038131 5.564955 9.469670
v 9.016897 5.561790 9.467442
v 9.016897 5.561790 9.467442
v 9.011705 5.565565 9.451691
v 9.011705 5.565565 9.451691
v 9.319303 4.815052 9.124435
v 9.319303 4.815052 9.124435
v 9.346155 4.820150 9.132067
v 9.346155 4.820150 9.132067
v 9.354377 4.815713 9.158861
v 9.354377 4.815713 9.158861
v 9.335747 4.806177 9.178025
v 9.335747 4.806177 9.178025
v 9.308894 4.801078 9.170394
v 9.308894 4.801078 9.170394
v 9.300673 4.805516 9.143599
v 9.300673 4.805516 9.143599
v 9.476719 3.573227 8.975056
v 9.476719 3.573227 8.975056
v 9.476719 3.573227 8.975056
v 9.476719 3.573227 8.975056
v 9.476719 3.573227 8.975056
v 9.534813 3.580999 8.984251
v 9.534813 3.580999 8.984251
v 9.549447 3.562509 9.022255
v 9.549447 3.562509 9.022255
v 9.549447 3.562509 9.022255
v 9.549447 3.562509 9.022255
v 9.549447 3.562509 9.022255
v 9.450645 3.582261 9.017277
v 9.450645 3.582261 9.017277
v 9.450645 3.582261 9.017277
v 9.450645 3.582261 9.017277
v 9.450645 3.582261 9.017277
v 9.450645 3.582261 9.017277
v 9.461035 2.152390 12.265091
v 10.574776 0.318110 11.129326
v 9.324925 3.368655 10.167333
v 10.438666 1.534375 9.031568
v 10.186455 1.371828 11.771651
v 9.964355 2.502914 9.626696
v 10.383698 1.973278 10.441305
v 10.571643 0.923511 10.148521
v 9.456440 2.779390 11.247970
v 7.529217 2.465811 7.431783
v 7.702845 1.109166 9.245511
v 9.402198 3.575606 8.082596
v 9.575826 2.218960 9.896323
v 7.491506 1.950579 8.401440
v 9.433661 2.963381 9.028139
v 8.525596 2.570828 9.069195
v 8.553819 1.676084 9.588095
v 8.412251 3.052653 7.786201
v 10.288703 3.362097 5.855261
v 8.881300 1.493058 7.246079
v 10.491262 5.007699 8.271663
v 9.083859 3.138660 9.662481
v 9.377723 2.601135 6.441007
v 9.685818 4.141111 8.925338
v 9.151281 3.483428 7.964455
v 8.901545 2.313441 8.369029
v 10.311354 4.211722 7.019943
v 10.931097 6.973196 8.065318
v 9.097868 7.218000 8.157005
v 10.726445 5.224779 8.641710
v 8.893216 5.469584 8.733397
v 10.075577 7.144358 8.267653
v 9.827086 5.370627 8.758869
v 9.771229 6.175769 8.749060
v 9.005555 6.405692 8.480130
v 10.835290 6.130693 8.399215
v 6.638222 3.728224 10.836071
v 8.013794 1.618487 9.842166
v 8.603121 5.638543 9.500519
v 9.978692 3.528805 8.506613
v 7.475152 2.715412 10.640635
v 7.475152 2.715412 10.640635
v 9.366169 4.590752 9.134342
v 8.938633 3.617669 9.965864
v 9.003391 2.521433 9.295114
v 7.662885 4.664388 10.267041
v 11.232465 4.181590 7.597518
v 9.850411 5.642402 9.228791
v 10.048623 2.452739 8.142732
v 8.666570 3.913551 9.774005
v 10.753850 4.826190 8.567210
v 9.445863 3.152600 9.037301
v 10.047642 3.913991 9.223244
v 9.344421 4.806785 9.548403
v 10.706682 3.315639 7.927525
v 10.583391 6.057157 8.261766
v 9.531777 7.330858 10.311871
v 10.337064 4.332826 9.206713
v 9.285449 5.606526 11.256817
v 10.324772 6.695027 9.338731
v 9.926175 4.977352 10.266861
v 10.262215 5.832365 10.202435
v 9.490281 6.523086 10.792441
v 10.538719 5.219509 8.759270
v 8.544089 4.007067 12.295307
v 8.670507 5.800746 10.625783
v 9.974402 2.406586 10.684111
v 10.100821 4.200266 9.014586
v 8.366333 4.771792 11.390501
v 8.366333 4.771792 11.390501
v 9.929316 3.253817 9.808206
v 9.036689 3.940451 10.164285
v 9.274674 5.014147 9.826435
v 9.172065 3.192193 11.467385
v 12.740761 4.262327 9.011461
v 11.233531 5.629960 11.265764
v 10.619936 2.550718 8.631868
v 9.112707 3.918351 10.886172
v 12.130469 4.754036 10.248707
v 9.922624 3.155371 9.821594
v 10.795311 3.753882 10.398281
v 10.260428 4.768538 11.137752
v 11.731215 3.370369 8.877607
v 11.116643 5.356983 8.659634
v 8.377619 5.684349 9.767847
v 10.806784 3.663133 8.394157
v 8.067760 3.990499 9.502372
v 9.910473 5.467646 9.433779
v 9.495654 3.804684 9.054086
v 9.511884 4.459236 9.595273
v 8.260298 4.866731 9.719406
v 10.994365 4.509661 8.607715
v 11.303774 5.486255 9.655510
v 8.439305 5.486417 10.211505
v 11.286335 3.841909 9.566143
v 8.421866 3.842071 10.122139
v 9.993784 5.483023 10.180519
v 9.893180 3.840492 9.959037
v 9.719705 4.502963 10.398621
v 8.446876 4.705276 10.250733
v 11.311275 4.676465 9.694388
v 9.345738 5.990324 6.733598
v 13.040660 4.844713 9.849722
v 7.661924 3.057829 7.652068
v 11.356846 1.912219 10.768192
v 11.302346 5.248883 7.902308
v 9.579690 2.402246 9.051637
v 10.858525 3.223575 8.526766
v 12.304872 3.391773 10.188020
v 8.581559 4.485404 7.086450
v 11.651464 2.937202 10.719238
v 11.591097 1.713826 9.476375
v 10.012371 3.402786 10.340568
v 9.952003 2.179409 9.097704
v 11.680760 2.460165 10.023620
v 10.008754 2.845084 9.678535
v 10.747184 2.691277 9.580718
v 10.831619 1.967265 9.263798
v 10.863711 3.199230 10.499581
v 12.394630 3.031966 8.511523
v 11.280378 4.771823 7.837407
v 10.039234 1.811187 9.254012
v 8.924982 3.551044 8.579897
v 11.890408 3.963053 8.420003
v 11.890408 3.963053 8.420003
v 9.499731 2.718637 9.024218
v 10.392144 3.507658 8.975444
v 10.170776 4.225404 8.261202
v 11.244127 2.464772 8.949305
v 7.151953 3.968711 6.534993
v 7.719979 1.913716 7.219482
v 9.509191 5.253750 8.436808
v 10.077217 3.198755 9.121297
v 7.215531 2.894237 7.164383
v 7.215531 2.894237 7.164383
v 9.693622 4.204486 8.909127
v 9.693622 4.204486 8.909127
v 8.302808 3.812126 8.390228
v 8.302808 3.812126 8.390228
v 8.136473 4.552046 7.469287
v 8.764028 2.530552 8.204956
v 7.279225 6.029479 8.510302
v 7.073274 4.207326 7.086577
v 9.643668 4.828644 9.705158
v 9.437716 3.006490 8.281433
v 6.994386 4.925290 7.945164
v 6.994386 4.925290 7.945164
v 9.458366 3.829747 9.059317
v 8.203911 4.298293 8.896978
v 8.286713 5.450180 9.105978
v 8.140921 3.595951 7.714603
v 9.019161 2.683746 6.568989
v 8.241963 1.278219 7.973838
v 9.979165 3.874117 8.291032
v 9.201967 2.468590 9.695882
v 8.406877 2.058702 7.333928
v 9.489177 3.206162 9.022090
v 8.855509 2.950422 8.196609
v 9.389466 3.256105 7.346486
v 8.635822 1.882332 8.796135
v 6.842196 4.655566 9.619864
v 10.059243 6.081691 8.777610
v 7.845777 2.399278 9.632710
v 11.062825 3.825403 8.790456
v 8.468899 5.392581 8.788304
v 9.463330 3.123533 9.025693
v 8.686901 3.979566 8.560177
v 7.265151 3.635785 9.508653
v 10.507627 5.003188 8.664097
v 6.784674 2.639989 6.515807
v 6.572032 1.303391 9.696951
v 9.636107 4.167777 7.348330
v 9.423466 2.831179 10.529472
v 6.523545 2.144866 8.294573
v 9.459699 3.577488 9.024836
v 8.030069 3.295800 8.556991
v 8.019045 3.392269 6.914398
v 7.879389 2.096824 10.117711
v 8.021163 5.573273 7.598025
v 9.272930 6.967269 8.028551
v 9.136857 4.251221 8.634773
v 10.388623 5.645217 9.065300
v 8.813237 6.269997 7.618348
v 8.813237 6.269997 7.618348
v 9.838238 4.948444 8.761953
v 9.434815 5.367665 7.997363
v 8.559860 4.965641 7.999192
v 9.841439 6.325002 8.455183
v 7.144372 6.289004 9.134824
v 8.844002 7.286441 8.434224
v 8.338243 4.682200 9.743519
v 10.037872 5.679638 9.042919
v 8.022578 6.734521 8.568616
v 9.201327 5.157100 9.295367
v 8.526921 5.673769 8.816875
v 7.671391 5.541456 9.349076
v 9.401810 6.496595 8.662949
v 7.718040 6.835013 9.745016
v 8.949994 7.500933 9.512765
v 8.390239 5.584293 9.724510
v 9.622191 6.250213 9.492259
v 8.351615 7.184329 9.478651
v 9.014484 5.924819 9.540359
v 8.605910 6.417568 9.372373
v 8.012449 6.271941 9.692216
v 9.261685 6.905359 9.458450
v 8.583765 6.063957 11.632202
v 9.342547 7.095277 10.247534
v 9.616657 4.580137 11.093046
v 10.375440 5.611457 9.708378
v 8.844877 6.563138 10.776783
v 9.942729 5.088601 10.326586
v 9.246431 5.597433 10.497619
v 9.003300 5.382490 11.354536
v 9.787898 6.374949 9.955070
v 7.377932 5.105650 11.473756
v 8.863628 6.982625 10.870537
v 9.194084 3.358392 10.510078
v 10.679781 5.235367 9.906858
v 8.020488 6.130772 10.856469
v 8.020488 6.130772 10.856469
v 9.891932 4.336543 10.065506
v 9.891932 4.336543 10.065506
v 8.796120 5.004320 10.127270
v 8.796120 5.004320 10.127270
v 8.147008 4.328857 10.950882
v 9.678805 6.160650 10.320617
v 8.621655 5.670634 11.256004
v 6.490278 3.434899 10.772097
v 11.002295 3.738550 9.697008
v 8.870917 1.502815 9.213100
v 7.566799 4.326478 11.335510
v 7.566799 4.326478 11.335510
v 9.940973 2.517750 9.600361
v 9.157305 3.307214 10.769947
v 9.715110 4.757275 10.659747
v 7.646085 2.470352 10.137705
v 11.943293 2.757865 7.408753
v 10.465610 1.139140 6.959901
v 10.299259 3.725346 9.332045
v 8.821576 2.106621 8.883192
v 11.047794 2.040341 6.995520
v 9.489177 2.957126 9.022090
v 10.161543 2.841803 7.978168
v 11.172737 3.236709 8.218639
v 9.651648 1.644099 7.818505
v 10.576771 3.385940 5.745214
v 7.661223 2.687249 7.107957
v 11.354808 4.892669 8.182312
v 8.439260 4.193979 9.545056
v 8.926750 3.213263 6.372311
v 9.809333 4.623074 8.839472
v 9.538911 4.283304 7.548791
v 10.896950 4.123303 6.808279
v 8.000943 3.465096 8.233585
v 9.778241 5.733211 12.067009
v 8.681393 6.274624 10.950754
v 10.553610 4.868554 10.885736
v 9.456761 5.409967 9.769483
v 9.092367 5.891638 11.507236
v 9.942729 5.088601 10.326586
v 9.542311 5.252997 10.965822
v 10.095359 5.305292 11.547852
v 9.017940 5.823365 10.401186
v 12.829321 3.987361 8.061396
v 10.957545 2.341695 7.000758
v 10.785391 5.395199 9.484076
v 8.913614 3.749533 8.423439
v 11.805676 3.277524 7.279039
v 9.809333 4.623074 8.839472
v 10.793843 4.347238 7.997553
v 11.904437 4.670564 8.633553
v 9.979442 3.062594 7.608347
v 9.567834 5.746254 8.704639
v 9.567834 5.746254 8.704639
v 8.844385 6.974398 8.963638
v 8.844385 6.974398 8.963638
v 9.095260 6.358088 8.725698
v 9.095260 6.358088 8.725698
v 8.705109 6.717980 9.407721
v 8.872561 6.087816 9.294220
v 9.189972 7.206314 8.889824
v 9.595983 6.647555 8.546320
v 9.761283 5.888545 8.631611
v 9.371771 5.496244 9.047661
v 9.503427 6.403966 8.664791
v 9.503427 6.403966 8.664791
v 9.369105 7.147831 8.230347
v 9.369105 7.147831 8.230347
v 9.365662 6.814702 8.494689
v 9.365662 6.814702 8.494689
v 9.655608 7.222037 8.351471
v 9.718287 6.948107 8.633738
v 9.314857 7.020892 8.016687
v 9.254255 6.606551 8.217082
v 9.452806 6.331146 8.542512
v 9.726547 6.492734 8.811459
v 10.093663 5.661814 10.291883
v 10.093663 5.661814 10.291883
v 9.763756 6.954639 10.856293
v 9.763756 6.954639 10.856293
v 9.774099 6.311998 10.562533
v 9.774099 6.311998 10.562533
v 9.932538 6.725188 11.304871
v 9.958903 6.079786 11.160684
v 9.990109 7.153858 10.560083
v 10.053262 6.551987 10.081738
v 10.200471 5.784746 10.100881
v 10.154221 5.440377 10.699202
v 10.218220 6.541332 10.486284
v 10.218220 6.541332 10.486284
v 10.226110 7.226293 10.430893
v 10.226110 7.226293 10.430893
v 10.169972 6.904476 10.506145
v 10.169972 6.904476 10.506145
v 10.452434 7.199831 10.538678
v 10.454217 6.904760 10.645926
v 10.177933 7.216286 10.236511
v 10.070207 6.866580 10.239444
v 10.175418 6.538064 10.375222
v 10.395936 6.524846 10.617967
v 8.969184 6.578825 9.686858
v 8.969184 6.578825 9.686858
v 9.030911 7.373212 9.829693
v 9.030911 7.373212 9.829693
v 8.932987 7.008574 9.714090
v 8.932987 7.008574 9.714090
v 8.958604 7.290282 10.105463
v 8.836877 6.943035 10.068589
v 9.244440 7.380883 9.729058
v 9.218359 6.998123 9.532601
v 9.087659 6.589228 9.612525
v 8.858033 6.516444 9.914907
v 9.128326 5.268917 9.348520
v 9.128326 5.268917 9.348520
v 9.825432 6.908280 9.797154
v 9.825432 6.908280 9.797154
v 9.453835 6.093380 9.768083
v 9.453835 6.093380 9.768083
v 10.402902 6.617325 9.607713
v 10.221666 5.798925 9.566473
v 9.462474 7.160898 9.494289
v 8.859900 6.397697 9.388279
v 8.892155 5.424800 9.202825
v 9.647641 4.988124 9.293942
v 9.727280 4.305557 8.924003
v 9.727280 4.305557 8.924003
v 10.428277 5.523551 8.982150
v 10.428277 5.523551 8.982150
v 10.053555 4.972066 9.140804
v 10.053555 4.972066 9.140804
v 10.053555 4.972066 9.140804
v 10.895720 5.146508 8.879506
v 10.680930 4.553187 9.031042
v 10.151231 5.706086 8.620871
v 9.588607 5.217888 8.687919
v 9.588607 5.217888 8.687919
v 9.544969 4.430959 8.740768
v 10.143050 3.981426 8.948541
v 9.896369 4.516567 10.102136
v 9.896369 4.516567 10.102136
v 11.528593 5.952597 9.723119
v 11.528593 5.952597 9.723119
v 10.916076 5.119819 10.022157
v 10.916076 5.119819 10.022157
v 11.393580 5.696807 8.891943
v 10.840158 4.848914 8.953754
v 11.197011 6.453581 10.083282
v 10.439588 5.748270 10.640488
v 9.731318 4.801126 10.356245
v 9.889232 4.193176 9.399189
v 9.882826 3.945437 9.977496
v 9.882826 3.945437 9.977496
v 11.322371 5.539392 10.857590
v 11.322371 5.539392 10.857590
v 10.491551 4.790827 10.684847
v 10.491551 4.790827 10.684847
v 11.853021 4.958573 10.755707
v 11.225584 4.128373 10.622385
v 11.221195 5.907212 10.331274
v 10.212102 5.293618 9.983247
v 9.788701 4.184437 9.706911
v 10.296275 3.422353 10.047876
v 9.952770 3.749252 9.960732
v 12.559894 2.953686 9.062362
v 12.559894 2.953686 9.062362
v 11.376062 3.531250 9.539585
v 12.584850 2.437153 9.971950
v 11.541728 2.852177 10.662036
v 12.330598 2.900371 8.285875
v 10.963927 3.581043 8.424603
v 9.829579 3.760581 9.480418
v 10.033833 3.388458 10.834917
v 9.939807 7.030787 9.558830
v 9.301265 7.361522 8.546262
v 9.958566 5.852783 9.162230
v 9.320024 6.183517 8.149661
v 9.458651 7.162122 9.173719
v 9.458651 7.162122 9.173719
v 9.548544 6.011826 8.682991
v 9.255286 6.782384 8.386093
v 9.893280 6.428102 9.391316
v 9.381701 6.574515 9.001493
v 10.748976 4.827224 9.769302
v 9.781543 5.652988 9.242046
v 10.317773 3.904612 9.115540
v 9.350341 4.730376 8.588284
v 10.129016 5.171707 9.719825
v 10.129016 5.171707 9.719825
v 9.745886 4.309200 8.934331
v 9.745886 4.309200 8.934331
v 9.523694 5.189784 8.989709
v 10.481741 4.345416 9.505052
v 9.831586 4.709260 9.473265
v 9.831586 4.709260 9.473265
v 9.357578 5.171612 10.645420
v 9.035268 6.094588 9.877200
v 9.593562 4.357196 9.567933
v 9.271252 5.280172 8.799713
v 8.956524 5.542775 10.293337
v 8.956524 5.542775 10.293337
v 9.315037 4.803137 9.177241
v 9.315037 4.803137 9.177241
v 9.071852 5.677471 9.360705
v 9.397551 4.737935 10.107608
v 8.962443 5.127144 9.753419
v 8.962443 5.127144 9.753419
v 8.989416 6.693555 10.648305
v 8.893894 7.324055 9.861877
v 9.123395 5.917800 10.010089
v 9.027873 6.548301 9.223661
v 8.778993 6.974951 10.273552
v 8.778993 6.974951 10.273552
v 8.999426 6.235029 9.603656
v 8.906864 6.941646 9.553715
v 9.004180 6.295621 10.327477
v 8.773505 6.594418 9.944470
v 11.320089 5.567526 11.662140
v 9.423244 6.584046 11.241823
v 10.938863 4.285792 10.282747
v 9.042018 5.302312 9.862431
v 10.253894 5.865827 11.702497
v 10.253894 5.865827 11.702497
v 9.885133 4.726949 10.174393
v 9.189611 5.903467 10.650227
v 11.078063 4.860481 11.044417
v 9.963594 5.170982 11.115685
v 9.474005 3.026721 11.974346
v 10.712952 1.306400 11.458614
v 9.200458 3.465796 9.852584
v 10.439404 1.745475 9.336852
v 10.361543 2.405237 11.747316
v 10.361543 2.405237 11.747316
v 9.975185 2.666426 9.594522
v 10.672795 1.583564 10.437614
v 9.429957 3.313687 10.911302
v 10.374086 2.676575 10.697694
v 10.404620 4.145096 13.061632
v 8.102444 5.604094 11.131852
v 11.304752 2.398741 10.667477
v 9.002576 3.857738 8.737698
v 8.975317 4.520797 12.275743
v 8.975317 4.520797 12.275743
v 9.964655 3.008200 9.730637
v 8.436182 4.655904 10.016837
v 10.754534 3.160498 11.899796
v 9.239060 3.547330 11.115767
v 9.572952 1.450569 12.105118
v 12.447325 2.652326 11.418003
v 8.399304 3.139013 10.148533
v 11.273676 4.340770 9.461417
v 10.902234 2.332924 12.096169
v 10.902234 2.332924 12.096169
v 9.866514 3.900193 9.937504
v 11.862903 3.566298 10.571750
v 8.964945 2.399696 11.221687
v 10.354956 3.319804 11.252521
v 10.752564 5.484432 6.824086
v 9.754798 6.838077 7.836869
v 10.264752 4.120650 8.166284
v 9.266986 5.474295 9.179066
v 9.833681 4.870198 8.764921
v 10.458145 6.247977 7.478993
v 10.458145 6.247977 7.478993
v 10.388288 5.588282 8.142771
v 10.564177 4.775661 7.585808
v 9.567252 6.131946 8.595890
v 7.622433 4.781887 7.534722
v 8.184595 6.292816 8.686914
v 9.361997 3.506945 8.357873
v 9.924158 5.017874 9.510066
v 9.732198 4.355342 8.878462
v 8.069764 5.660139 7.925106
v 8.069764 5.660139 7.925106
v 8.951933 5.054342 8.155543
v 8.605124 4.131673 7.907919
v 9.163794 5.645051 9.058605
v 11.906649 6.084655 10.188191
v 10.556193 7.283463 10.123764
v 10.705806 4.733973 10.226626
v 9.355350 5.932781 10.162199
v 9.987683 5.377583 10.282654
v 11.210462 6.716210 10.354553
v 10.699086 6.040369 10.484101
v 11.264388 5.365784 10.274444
v 9.916286 6.567234 10.209837
v 9.001357 5.821673 10.930926
v 8.768229 6.835258 10.127355
v 9.212177 5.045489 9.890725
v 8.979048 6.059074 9.087153
v 9.023905 5.570412 9.463323
v 8.739036 6.313106 10.516463
v 8.769947 5.890606 10.058826
v 9.067510 5.395666 10.374392
v 8.834042 6.410790 9.572858
v 11.783175 1.810412 7.774166
v 9.670274 0.870459 7.089465
v 10.656252 3.112470 9.464252
v 8.543350 2.172517 8.779552
v 9.518894 2.700377 9.018294
v 10.663440 1.519791 7.240243
v 10.200522 2.275679 7.964010
v 11.170706 2.571432 8.619446
v 9.060029 1.628825 7.931524
v 12.400076 5.121211 9.813202
v 11.648400 3.552064 10.347343
v 10.189889 5.760427 8.580719
v 9.438213 4.191279 9.114861
v 9.833681 4.870198 8.764921
v 12.108739 4.188911 9.867884
v 12.108739 4.188911 9.867884
v 11.151080 4.484762 9.146279
v 11.249023 5.423281 9.080762
v 10.501631 3.852944 9.617435
vn -0.8742 0.2243 -0.4306
vn -0.8859 0.2726 -0.3754
vn -0.8860 0.2733 -0.3745
vn -0.8743 0.2243 -0.4305
vn 0.5652 0.1418 -0.8127
vn 0.3838 0.0551 -0.9218
vn 0.3824 0.0545 -0.9224
vn 0.9907 -0.1279 0.0466
vn 0.9763 -0.2133 0.0371
vn 0.9763 -0.2134 0.0370
vn 0.9907 -0.1279 0.0465
vn 0.1030 -0.2446 0.9641
vn 0.1082 -0.1589 0.9814
vn 0.1081 -0.1596 0.9812
vn 0.1030 -0.2447 0.9641
vn -0.5629 -0.1214 0.8176
vn -0.5374 0.0124 0.8433
vn -0.5378 0.0103 0.8430
vn -0.9502 0.2566 -0.1770
vn -0.9504 0.2562 -0.1762
vn 0.2040 -0.0731 -0.9762
vn 0.2038 -0.0728 -0.9763
vn 0.9520 -0.2192 0.2135
vn 0.9522 -0.2200 0.2118
vn 0.0465 0.0368 0.9982
vn 0.0590 0.0321 0.9977
vn -0.5019 0.1447 0.8527
vn -0.9836 0.1414 0.1123
vn -0.9835 0.1413 0.1126
vn -0.4685 0.0046 -0.8835
vn -0.4436 0.2273 -0.8669
vn -0.4442 0.2240 -0.8675
vn 0.4110 0.0572 -0.9098
vn 0.4095 0.0557 -0.9106
vn 0.9135 -0.2109 0.3479
vn 0.9135 -0.2110 0.3479
vn -0.5264 -0.0093 0.8502
vn -0.5405 -0.0109 0.8413
vn -0.9506 0.0169 0.3099
vn -0.9450 -0.0045 0.3270
vn -0.5910 0.2871 -0.7539
vn -0.5922 0.2861 -0.7533
vn 0.5707 0.2147 -0.7926
vn 0.5706 0.2147 -0.7927
vn 0.9699 -0.1334 0.2040
vn 0.9702 -0.1321 0.2031
vn -0.0897 -0.3754 0.9225
vn -0.0172 -0.2800 0.9598
vn -0.0300 -0.2970 0.9544
vn -0.5683 -0.2102 0.7955
vn -0.6240 -0.2776 0.7304
vn -0.7176 0.1662 -0.6763
vn -0.7186 0.1650 -0.6755
vn 0.5640 0.3148 -0.7634
vn 0.5634 0.3196 -0.7619
vn 0.9890 0.1374 -0.0554
vn 0.9885 0.1395 -0.0581
vn 0.1530 -0.2449 0.9574
vn 0.1519 -0.2445 0.9577
vn -0.6178 -0.2909 0.7306
vn -0.9827 -0.1368 -0.1252
vn -0.9946 -0.0525 0.0890
vn -0.9951 -0.0552 0.0823
vn -0.5605 0.1938 -0.8051
vn -0.5629 0.1940 -0.8034
vn 0.5474 0.4250 -0.7210
vn 0.9703 0.1163 -0.2123
vn 0.9704 0.1145 -0.2124
vn 0.3428 -0.2194 0.9134
vn 0.3437 -0.2186 0.9133
vn -0.5849 -0.2371 0.7757
vn -0.5847 -0.2291 0.7782
vn -0.9658 0.0235 0.2583
vn -0.9656 0.0236 0.2591
vn -0.3439 0.1011 -0.9335
vn -0.3447 0.1019 -0.9332
vn 0.5742 0.0880 -0.8139
vn 0.5741 0.0772 -0.8152
vn 0.5741 0.0773 -0.8151
vn 0.9831 -0.0014 -0.1829
vn 0.9832 -0.0014 -0.1828
vn 0.4224 -0.0874 0.9022
vn 0.4228 -0.0874 0.9020
vn -0.5711 -0.0588 0.8188
vn -0.9931 0.0871 0.0784
vn -0.9929 0.0855 0.0825
vn -0.2688 0.0991 -0.9581
vn -0.2686 0.0946 -0.9586
vn 0.5738 0.0662 -0.8163
vn 0.9892 -0.0441 -0.1399
vn 0.9891 -0.0475 -0.1396
vn 0.4242 -0.0937 0.9007
vn -0.5733 -0.0493 0.8179
vn -0.5715 -0.0316 0.8200
vn -0.5715 -0.0325 0.8199
vn -0.9852 0.1505 -0.0819
vn -0.9852 0.1505 -0.0820
vn -0.2706 0.1682 -0.9479
vn 0.5677 0.0276 -0.8227
vn 0.9859 -0.1002 -0.1337
vn 0.4224 -0.1636 0.8915
vn -0.5695 -0.0157 0.8219
vn -0.5696 -0.0157 0.8218
vn 0.8359 0.0635 -0.5452
vn 0.7660 0.2095 -0.6077
vn 0.7667 0.2083 -0.6073
vn 0.4660 0.1265 0.8757
vn 0.5298 0.3047 0.7915
vn 0.5422 0.3472 0.7652
vn -0.5607 -0.0006 0.8280
vn -0.5193 -0.0965 0.8491
vn -0.5269 -0.0799 0.8461
vn -0.9349 -0.0701 0.3479
vn -0.6147 -0.1218 -0.7793
vn -0.6535 -0.3288 -0.6818
vn -0.6537 -0.3301 -0.6809
vn 0.0424 -0.0623 -0.9972
vn 0.1877 -0.0015 -0.9822
vn 0.1882 -0.0013 -0.9821
vn 0.7474 0.2569 -0.6126
vn 0.7576 0.2428 -0.6059
vn 0.5778 0.5116 0.6359
vn -0.5013 -0.1424 0.8535
vn -0.4950 -0.1422 0.8572
vn -0.6572 -0.5181 -0.5474
vn 0.3002 0.1132 -0.9471
vn 0.3016 0.1105 -0.9470
vn 0.8561 -0.0136 -0.5167
vn 0.6639 -0.0221 -0.7475
vn 0.7433 -0.0469 0.6674
vn 0.7246 0.0308 0.6884
vn 0.7247 0.0304 0.6884
vn 0.7432 -0.0469 0.6674
vn -0.7534 0.0475 0.6558
vn -0.7598 0.0494 0.6482
vn -0.7535 0.0475 0.6558
vn -0.8593 0.0227 -0.5110
vn -0.8210 -0.0160 -0.5707
vn -0.8213 -0.0157 -0.5702
vn 0.4258 -0.0272 -0.9044
vn 0.4706 -0.2416 -0.8486
vn 0.7432 -0.0155 0.6689
vn 0.7417 -0.0106 0.6706
vn -0.0021 0.2325 0.9726
vn -0.0073 0.2086 0.9780
vn -0.0073 0.2085 0.9780
vn -0.7844 0.2953 0.5455
vn -0.7851 0.2989 0.5425
vn -0.7767 0.0529 -0.6277
vn -0.7758 0.0662 -0.6275
vn 0.4750 -0.2395 -0.8468
vn 0.8312 -0.3397 -0.4401
vn 0.8801 -0.2064 -0.4275
vn 0.8811 -0.2030 -0.4271
vn 0.7703 -0.1316 0.6239
vn -0.0125 0.1851 0.9826
vn -0.7949 0.3687 0.4818
vn -0.7950 0.3687 0.4817
vn -0.7643 0.1712 -0.6217
vn 0.2207 -0.1329 -0.9663
vn 0.2185 -0.1312 -0.9670
vn 0.9970 0.0290 -0.0718
vn 0.9262 0.0276 -0.3760
vn 0.9202 -0.0725 0.3846
vn 0.9679 0.0331 0.2490
vn 0.9970 0.0290 -0.0717
vn -0.0404 0.0284 0.9988
vn -0.0393 0.0475 0.9981
vn -0.9053 0.0868 0.4158
vn -0.9961 -0.0218 0.0853
vn -0.9221 -0.0001 0.3869
vn -0.9384 0.0647 -0.3394
vn -0.9752 -0.0360 -0.2185
vn -0.9961 -0.0218 0.0851
vn -0.9384 0.0647 -0.3393
vn 0.0393 -0.0165 -0.9991
vn 0.9744 0.1523 0.1652
vn 0.9728 0.1527 0.1742
vn -0.0420 0.0965 0.9944
vn -0.0418 0.0965 0.9945
vn -0.9882 -0.1188 -0.0966
vn -0.9867 -0.1199 -0.1102
vn 0.0390 -0.0696 -0.9968
vn 0.0391 -0.0696 -0.9968
vn 0.8808 0.0530 -0.4706
vn 0.8954 0.0799 -0.4379
vn 0.8951 0.0793 -0.4387
vn 0.9092 0.1587 0.3849
vn 0.9095 0.1588 0.3843
vn 0.0456 0.1097 0.9929
vn 0.0477 0.1093 0.9929
vn -0.9896 -0.1006 0.1028
vn -0.9273 -0.0801 0.3656
vn -0.9772 -0.1106 -0.1812
vn -0.0435 -0.0782 -0.9960
vn -0.0430 -0.0783 -0.9960
vn 0.9076 0.1052 -0.4064
vn 0.9076 0.1051 -0.4064
vn 0.8395 0.1435 0.5241
vn 0.8398 0.1435 0.5236
vn 0.1391 0.0919 0.9860
vn 0.1390 0.0919 0.9860
vn -0.9105 -0.1088 0.3990
vn -0.9647 -0.1172 -0.2359
vn -0.1280 -0.0538 -0.9903
vn -0.5145 0.1689 -0.8407
vn -0.5610 0.1327 -0.8171
vn -0.5579 0.1352 -0.8188
vn -0.5145 0.1721 -0.8400
vn 0.2508 0.2346 -0.9392
vn 0.2153 0.3252 -0.9208
vn 0.2042 0.3518 -0.9135
vn 0.8852 0.1548 -0.4387
vn 0.9028 0.3023 -0.3058
vn 0.9028 0.2966 -0.3114
vn 0.8850 0.1568 -0.4383
vn 0.5008 -0.1565 0.8513
vn 0.6153 -0.0733 0.7849
vn 0.6154 -0.0733 0.7848
vn -0.0697 -0.2180 0.9734
vn -0.0939 -0.3082 0.9467
vn -0.0949 -0.3116 0.9455
vn -0.9519 -0.1066 0.2873
vn -0.9318 -0.2664 0.2464
vn -0.9319 -0.2664 0.2463
vn -0.9518 -0.1067 0.2874
vn -0.7143 0.0321 -0.6991
vn -0.7148 0.0318 -0.6986
vn 0.1717 0.2907 -0.9413
vn 0.1717 0.2899 -0.9415
vn 0.9255 0.3071 -0.2218
vn 0.9256 0.3066 -0.2219
vn 0.7627 0.0382 0.6456
vn 0.7629 0.0383 0.6453
vn -0.1293 -0.2562 0.9579
vn -0.1293 -0.2556 0.9581
vn -0.9095 -0.2896 0.2983
vn -0.9095 -0.2892 0.2986
vn -0.8077 -0.0349 -0.5885
vn 0.1718 0.1408 -0.9750
vn 0.9462 0.1766 -0.2712
vn 0.9462 0.1766 -0.2713
vn 0.8065 0.0650 0.5877
vn 0.8064 0.0650 0.5878
vn -0.1375 -0.1088 0.9845
vn -0.9081 -0.1545 0.3893
vn -0.0500 0.9739 0.2216
vn -0.0501 0.9739 0.2216
vn 0.0188 0.9929 -0.1176
vn 0.1221 0.9626 0.2418
vn 0.1221 0.9626 0.2419
vn 0.7768 0.5295 0.3410
vn 0.8810 0.3852 0.2746
vn 0.8990 0.4195 0.1261
vn 0.7810 0.5717 0.2515
vn 0.8626 0.5035 0.0486
vn 0.9648 0.2520 0.0756
vn 0.9386 0.3382 -0.0687
vn 0.7758 0.6157 0.1380
vn 0.9664 0.1856 0.1781
vn -0.6234 0.7070 0.3340
vn -0.6369 0.5968 0.4881
vn -0.5153 0.6380 0.5722
vn -0.5442 0.7509 0.3741
vn -0.4207 0.7113 0.5630
vn -0.5255 0.4950 0.6920
vn -0.3789 0.5746 0.7254
vn -0.4396 0.7946 0.4187
vn -0.6215 0.4289 0.6556
vn -0.7132 0.5635 -0.4170
vn -0.8476 0.4140 -0.3319
vn -0.8676 0.4645 -0.1773
vn -0.7180 0.6145 -0.3268
vn -0.8251 0.5559 -0.1009
vn -0.9538 0.2816 -0.1048
vn -0.9227 0.3834 0.0412
vn -0.7131 0.6691 -0.2093
vn -0.9570 0.2042 -0.2059
vn 0.2950 0.3374 0.8939
vn 0.1130 0.3876 0.9149
vn 0.0460 0.2589 0.9648
vn 0.2728 0.2478 0.9296
vn 0.0762 0.1448 0.9865
vn -0.1296 0.3176 0.9393
vn -0.1400 0.1524 0.9784
vn 0.2416 0.1342 0.9610
vn -0.1197 0.4308 0.8945
vn 0.3562 0.1427 0.9235
vn 0.6311 -0.0095 0.7757
vn 0.4418 0.2022 0.8740
vn 0.6815 0.1119 0.7232
vn 0.6968 -0.2330 0.6784
vn 0.8077 -0.0964 0.5816
vn 0.5409 0.2730 0.7956
vn 0.6018 -0.3236 0.7302
vn 0.8010 -0.2545 0.5419
vn 0.7210 -0.1200 0.6824
vn 0.5854 -0.2334 0.7764
vn 0.7245 -0.3560 0.5902
vn 0.5180 -0.3853 0.7637
vn 0.4871 -0.0770 0.8700
vn 0.3582 -0.2555 0.8980
vn 0.6174 -0.4674 0.6327
vn 0.5697 0.0624 0.8195
vn 0.9824 0.0751 0.1713
vn 0.9265 0.1986 0.3196
vn 0.8789 0.0608 0.4731
vn 0.9660 -0.0448 0.2547
vn 0.8607 -0.1178 0.4952
vn 0.7853 0.1903 0.5891
vn 0.7359 -0.0226 0.6767
vn 0.9207 -0.1829 0.3447
vn 0.7937 0.3506 0.4971
vn -0.8713 -0.4536 -0.1872
vn -0.8714 -0.4535 -0.1872
vn -0.8095 -0.3352 -0.4820
vn -0.8181 -0.5103 -0.2652
vn -0.7333 -0.4399 -0.5183
vn -0.7975 -0.1295 -0.5893
vn -0.6828 -0.2468 -0.6877
vn -0.7378 -0.5723 -0.3580
vn -0.8610 -0.0438 -0.5068
vn 0.5406 -0.6657 0.5144
vn 0.4784 -0.5863 0.6537
vn 0.3429 -0.6541 0.6743
vn 0.4597 -0.7258 0.5118
vn 0.2731 -0.7374 0.6178
vn 0.2862 -0.5438 0.7889
vn 0.1545 -0.6438 0.7494
vn 0.3557 -0.7885 0.5018
vn 0.3784 -0.4599 0.8033
vn 0.5435 -0.1034 0.8330
vn 0.3974 -0.0564 0.9159
vn 0.2864 -0.2651 0.9207
vn 0.5045 -0.2713 0.8197
vn 0.3051 -0.4584 0.8347
vn 0.1350 -0.2033 0.9698
vn 0.0896 -0.4518 0.8876
vn 0.4427 -0.4500 0.7756
vn 0.1655 0.0143 0.9861
vn 0.3852 0.0747 0.9198
vn 0.2213 0.1073 0.9693
vn 0.1382 -0.1229 0.9827
vn 0.3727 -0.1057 0.9219
vn 0.2011 -0.3276 0.9232
vn -0.0267 -0.0815 0.9963
vn -0.0208 -0.3506 0.9363
vn 0.3444 -0.3028 0.8887
vn -0.0300 0.1489 0.9884
vn 0.3594 -0.3612 -0.8605
vn 0.5023 -0.3853 -0.7741
vn 0.4671 -0.5531 -0.6898
vn 0.3069 -0.4784 -0.8228
vn 0.3423 -0.6573 -0.6714
vn 0.5966 -0.5471 -0.5872
vn 0.4748 -0.7095 -0.5207
vn 0.2395 -0.6030 -0.7609
vn 0.6739 -0.4004 -0.6209
vn 0.4095 0.7688 -0.4913
vn 0.4290 0.6441 -0.6333
vn 0.2924 0.6480 -0.7033
vn 0.3186 0.7897 -0.5242
vn 0.1858 0.7010 -0.6886
vn 0.3200 0.4954 -0.8075
vn 0.1567 0.5382 -0.8281
vn 0.2024 0.8048 -0.5579
vn 0.4318 0.4559 -0.7783
vn 0.2687 0.2158 0.9387
vn 0.2687 0.2157 0.9388
vn 0.0110 0.4092 0.9124
vn 0.1806 0.1877 0.9655
vn -0.0607 0.3228 0.9445
vn -0.0661 0.6058 0.7929
vn -0.2090 0.5143 0.8318
vn 0.0640 0.1487 0.9868
vn 0.0306 0.6568 0.7535
vn 0.0306 0.6567 0.7535
vn -0.7855 0.3415 0.5161
vn -0.7855 0.3414 0.5161
vn -0.6586 0.4045 0.6346
vn -0.7008 0.3862 0.5998
vn -0.4192 -0.1443 0.8964
vn -0.4937 -0.2105 0.8438
vn -0.5139 -0.2290 0.8267
vn -0.5543 0.4410 0.7059
vn -0.5543 0.4409 0.7059
vn -0.5798 -0.2913 0.7609
vn -0.5798 -0.2913 0.7610
vn -0.6224 -0.1614 0.7659
vn -0.5322 -0.4607 0.7103
vn -0.5284 -0.2210 0.8197
vn -0.4313 -0.5298 0.7303
vn -0.5614 -0.6642 0.4935
vn -0.4488 -0.6958 0.5607
vn -0.3805 -0.3003 0.8747
vn -0.6437 -0.6304 0.4337
vn -0.7597 0.6252 -0.1788
vn -0.8809 0.4730 0.0188
vn -0.8022 0.5879 0.1039
vn -0.7160 0.6937 -0.0785
vn -0.7529 0.6213 0.2171
vn -0.8856 0.3879 0.2556
vn -0.8160 0.4682 0.3390
vn -0.6370 0.7685 0.0608
vn -0.9305 0.3169 0.1839
vn -0.5012 -0.0114 -0.8653
vn -0.2456 0.0687 -0.9669
vn -0.2194 -0.1658 -0.9614
vn -0.4161 -0.2057 -0.8857
vn -0.0839 -0.3248 -0.9421
vn 0.0183 -0.0423 -0.9989
vn 0.0790 -0.2305 -0.9699
vn -0.2880 -0.4280 -0.8566
vn -0.0363 0.1262 -0.9913
vn -0.5833 0.8065 0.0968
vn -0.5914 0.7505 0.2950
vn -0.4830 0.8259 0.2909
vn -0.4951 0.8591 0.1294
vn -0.3945 0.8535 0.3404
vn -0.5036 0.7304 0.4614
vn -0.4069 0.7824 0.4716
vn -0.3678 0.9141 0.1708
vn -0.5792 0.6806 0.4487
vn 0.2160 -0.3121 -0.9252
vn 0.5286 -0.2683 -0.8054
vn 0.3119 -0.4126 -0.8559
vn 0.6273 -0.3324 -0.7042
vn 0.6929 -0.0226 -0.7207
vn 0.7563 -0.1440 -0.6382
vn 0.4287 -0.5314 -0.7306
vn 0.6268 0.0785 -0.7752
vn -0.3786 -0.4261 -0.8217
vn -0.1621 -0.3312 -0.9295
vn -0.1136 -0.4749 -0.8727
vn -0.3012 -0.5283 -0.7939
vn -0.0129 -0.5474 -0.8368
vn 0.0757 -0.3305 -0.9408
vn 0.1345 -0.4395 -0.8881
vn -0.1893 -0.6509 -0.7352
vn 0.0258 -0.2356 -0.9715
vn -0.4103 -0.0605 -0.9099
vn -0.1825 0.0413 -0.9823
vn -0.1518 -0.1177 -0.9814
vn -0.3457 -0.1739 -0.9221
vn -0.0608 -0.2093 -0.9760
vn 0.0539 0.0189 -0.9984
vn 0.0988 -0.1076 -0.9893
vn -0.2497 -0.3213 -0.9135
vn 0.0158 0.1235 -0.9922
vn -0.8717 -0.3048 -0.3838
vn -0.7799 -0.1880 -0.5970
vn -0.7182 -0.3372 -0.6087
vn -0.8052 -0.4077 -0.4306
vn -0.6267 -0.4115 -0.6618
vn -0.6148 -0.1785 -0.7682
vn -0.5456 -0.2925 -0.7854
vn -0.6944 -0.5345 -0.4817
vn -0.6640 -0.0815 -0.7433
vn -0.6892 -0.0861 -0.7194
vn -0.5534 -0.2102 -0.8059
vn -0.5887 -0.1807 -0.7879
vn -0.1301 0.1224 -0.9839
vn -0.2070 0.2261 -0.9519
vn -0.2223 0.2471 -0.9431
vn -0.1303 0.1224 -0.9839
vn -0.4303 -0.3019 -0.8507
vn -0.2942 0.3449 -0.8913
vn 0.3198 -0.1208 0.9398
vn 0.2912 -0.4235 0.8578
vn 0.4145 -0.2068 0.8862
vn 0.3542 -0.5179 0.7786
vn 0.0697 -0.6002 0.7968
vn 0.1844 -0.6586 0.7295
vn 0.5310 -0.3180 0.7854
vn -0.0253 -0.5428 0.8395
vn -0.1831 0.7121 -0.6778
vn -0.3925 0.5381 -0.7459
vn -0.4525 0.6243 -0.6368
vn -0.2598 0.7542 -0.6031
vn -0.5349 0.6345 -0.5579
vn -0.5995 0.4061 -0.6897
vn -0.6563 0.4641 -0.5949
vn -0.3629 0.7968 -0.4831
vn -0.5475 0.3553 -0.7576
vn -0.2502 0.8017 -0.5429
vn -0.4210 0.7839 -0.4564
vn -0.3551 0.8576 -0.3721
vn -0.2278 0.8608 -0.4550
vn -0.3516 0.8951 -0.2741
vn -0.5160 0.8001 -0.3060
vn -0.4720 0.8532 -0.2218
vn -0.1943 0.9233 -0.3313
vn -0.5481 0.7482 -0.3739
vn -0.4673 -0.7693 0.4356
vn -0.6466 -0.7192 0.2543
vn -0.5451 -0.8194 0.1774
vn -0.4150 -0.8435 0.3410
vn -0.5029 -0.8621 0.0631
vn -0.7048 -0.7091 0.0237
vn -0.6239 -0.7794 -0.0576
vn -0.3336 -0.9202 0.2050
vn -0.7622 -0.6409 0.0909
vn 0.1435 0.6847 -0.7146
vn -0.0496 0.5570 -0.8290
vn -0.1237 0.6600 -0.7410
vn 0.0516 0.7474 -0.6623
vn -0.2285 0.6899 -0.6869
vn -0.2732 0.4859 -0.8302
vn -0.3478 0.5570 -0.7541
vn -0.0750 0.8148 -0.5749
vn -0.2087 0.4216 -0.8824
vn -0.2479 -0.1601 -0.9555
vn -0.3340 0.0363 -0.9419
vn -0.3342 0.0368 -0.9418
vn -0.8078 -0.3138 -0.4990
vn -0.8919 -0.1826 -0.4138
vn -0.8086 -0.3127 -0.4984
vn -0.4000 0.2170 -0.8904
vn -0.4000 0.2170 -0.8905
vn -0.6970 -0.4362 -0.5692
vn -0.6969 -0.4362 -0.5692
vn -0.8893 -0.1165 0.4422
vn -0.9471 0.0484 0.3173
vn -0.9472 0.0489 0.3169
vn -0.4914 0.4149 0.7658
vn -0.4618 0.5682 0.6811
vn -0.4912 0.4163 0.7651
vn -0.9617 0.1994 0.1882
vn -0.5055 0.2468 0.8268
vn -0.8126 -0.1686 -0.5579
vn -0.8607 0.0347 -0.5079
vn -0.8608 0.0353 -0.5077
vn -0.9521 -0.2596 0.1616
vn -0.9554 -0.1191 0.2702
vn -0.9523 -0.2584 0.1626
vn -0.8699 0.2219 -0.4405
vn -0.9183 -0.3932 0.0467
vn -0.9183 -0.3931 0.0467
vn -0.9207 -0.1434 0.3631
vn -0.9444 0.0662 0.3221
vn -0.9444 0.0668 0.3220
vn -0.4633 0.1246 0.8774
vn -0.4051 0.2920 0.8664
vn -0.4629 0.1261 0.8774
vn -0.9275 0.2578 0.2708
vn -0.5073 -0.0485 0.8604
vn -0.5351 0.0072 -0.8447
vn -0.5006 0.2192 -0.8375
vn -0.5005 0.2198 -0.8374
vn -0.9516 0.1691 -0.2567
vn -0.9303 0.3239 -0.1722
vn -0.9515 0.1705 -0.2560
vn -0.4479 0.4067 -0.7962
vn -0.9426 0.0074 -0.3337
vn -0.9426 0.0074 -0.3338
vn -0.5924 -0.1686 0.7878
vn -0.5443 0.0347 0.8382
vn -0.5441 0.0353 0.8382
vn -0.5922 -0.1686 0.7880
vn 0.1206 -0.2596 0.9582
vn 0.2290 -0.1191 0.9661
vn 0.1216 -0.2584 0.9584
vn -0.4774 0.2219 0.8502
vn 0.0073 -0.3932 0.9194
vn 0.0073 -0.3931 0.9195
vn -0.6721 0.0881 0.7352
vn -0.6718 0.0882 0.7355
vn 0.1061 -0.0421 0.9935
vn 0.2717 0.1189 0.9550
vn 0.2718 0.1189 0.9550
vn 0.1164 -0.0323 0.9927
vn -0.4478 0.5557 0.7005
vn -0.4477 0.5558 0.7005
vn -0.4478 0.5557 0.7004
vn -0.0592 -0.1953 0.9790
vn -0.0593 -0.1953 0.9790
vn 0.3571 -0.5018 0.7878
vn 0.5229 -0.3403 0.7815
vn 0.5266 -0.3361 0.7809
vn 0.7093 -0.6878 0.1541
vn 0.8263 -0.5596 0.0634
vn 0.7137 -0.6840 0.1512
vn 0.6533 -0.1714 0.7374
vn 0.5672 -0.7885 0.2380
vn -0.8507 0.2057 0.4838
vn -0.7278 0.4085 0.5509
vn -0.7355 0.3983 0.5481
vn -0.8507 0.2057 0.4837
vn -0.2005 -0.2596 0.9447
vn -0.0313 -0.1623 0.9862
vn -0.2012 -0.2599 0.9444
vn -0.5838 0.5659 0.5822
vn -0.3666 -0.3491 0.8624
vn -0.3667 -0.3491 0.8624
vn 0.2360 0.9476 0.2154
vn 0.3678 0.9144 0.1690
vn 0.2897 0.9537 -0.0808
vn 0.1471 0.9891 -0.0115
vn 0.4251 0.8104 0.4032
vn 0.5375 0.7478 0.3896
vn 0.5376 0.7478 0.3896
vn 0.4104 0.9009 -0.1409
vn 0.3043 0.8598 0.4101
vn -0.6341 -0.1508 0.7584
vn -0.6342 -0.1507 0.7584
vn -0.8565 -0.2122 0.4705
vn -0.6728 -0.2935 0.6792
vn -0.8432 -0.3611 0.3984
vn -0.9680 -0.1239 0.2183
vn -0.9391 -0.2814 0.1972
vn -0.6920 -0.4227 0.5852
vn -0.9717 0.0359 0.2336
vn -0.9717 0.0358 0.2336
vn -0.2485 -0.3417 0.9064
vn -0.3697 -0.4692 0.8019
vn -0.3754 -0.4751 0.7958
vn -0.8543 -0.2444 0.4587
vn -0.8238 -0.0557 0.5641
vn -0.8266 -0.0664 0.5589
vn -0.8543 -0.2444 0.4588
vn -0.4803 -0.5819 0.6562
vn -0.7633 0.1153 0.6357
vn -0.7763 -0.5108 0.3694
vn -0.7764 -0.5107 0.3694
vn -0.7869 -0.5819 0.2053
vn -0.7867 -0.5855 0.1955
vn -0.9251 -0.1881 -0.3297
vn -0.9749 -0.0441 -0.2182
vn -0.9734 -0.0505 -0.2233
vn -0.9252 -0.1881 -0.3296
vn -0.7704 -0.6372 0.0237
vn -0.7704 -0.6371 0.0237
vn -0.9900 0.0890 -0.1096
vn -0.9900 0.0885 -0.1096
vn -0.9074 -0.2758 0.3172
vn -0.9074 -0.2756 0.3172
vn -0.9810 -0.1910 -0.0343
vn -0.9104 -0.3725 0.1802
vn -0.9407 -0.3058 -0.1471
vn -0.9674 -0.0020 -0.2533
vn -0.9359 -0.1453 -0.3210
vn -0.8892 -0.4554 0.0440
vn -0.9737 0.1403 -0.1795
vn -0.1324 -0.6165 0.7761
vn -0.4689 -0.6096 0.6391
vn -0.2150 -0.7242 0.6552
vn -0.5041 -0.7098 0.4920
vn -0.6883 -0.4564 0.5639
vn -0.6829 -0.5822 0.4412
vn -0.2880 -0.8051 0.5185
vn -0.6725 -0.3168 0.6688
vn -0.6725 -0.3169 0.6688
vn 0.5869 0.7849 0.1985
vn 0.5871 0.7848 0.1987
vn 0.8083 0.5883 -0.0217
vn 0.6096 0.7920 0.0325
vn 0.7784 0.6000 -0.1844
vn 0.9375 0.3373 -0.0854
vn 0.8896 0.3957 -0.2280
vn 0.6152 0.7780 -0.1277
vn 0.9610 0.2703 0.0588
vn -0.4569 -0.7359 0.4997
vn -0.4570 -0.7358 0.4998
vn -0.6527 -0.7208 0.2331
vn -0.4523 -0.8151 0.3619
vn -0.6032 -0.7910 0.1018
vn -0.8074 -0.5843 0.0820
vn -0.7344 -0.6786 -0.0155
vn -0.4371 -0.8720 0.2204
vn -0.8609 -0.4770 0.1769
vn -0.8608 -0.4771 0.1769
vn -0.3409 0.5044 0.7933
vn -0.3407 0.5044 0.7934
vn -0.1464 0.7318 0.6657
vn -0.3701 0.6234 0.6887
vn -0.1992 0.8165 0.5419
vn 0.0824 0.7998 0.5946
vn -0.0104 0.8710 0.4912
vn -0.3892 0.7227 0.5712
vn 0.1724 0.7098 0.6830
vn 0.6471 0.2334 0.7258
vn 0.7562 0.0967 0.6471
vn 0.8263 0.1928 0.5292
vn 0.6607 0.3494 0.6644
vn 0.9619 0.0880 0.2588
vn 0.9114 0.0062 0.4115
vn 0.9619 0.0881 0.2588
vn 0.8462 -0.0627 0.5292
vn 0.6622 0.4771 0.5778
vn 0.7485 0.4034 -0.5264
vn 0.7145 0.2517 -0.6528
vn 0.6035 0.3169 -0.7317
vn 0.6779 0.4957 -0.5429
vn 0.3934 0.1480 -0.9074
vn 0.5365 0.1066 -0.8371
vn 0.6428 0.0706 -0.7628
vn 0.5811 0.5972 -0.5529
vn -0.2361 0.0452 0.9707
vn -0.1252 -0.0675 0.9898
vn -0.0164 0.0174 0.9997
vn -0.1918 0.1459 0.9705
vn 0.0429 0.1181 0.9921
vn 0.1128 -0.1281 0.9853
vn 0.2394 -0.0480 0.9697
vn 0.0045 -0.1933 0.9811
vn -0.1369 0.2612 0.9555
vn -0.9537 -0.1846 -0.2373
vn -0.9368 -0.3163 -0.1493
vn -0.9656 -0.2588 -0.0268
vn -0.9797 -0.0976 -0.1750
vn -0.9838 -0.1724 0.0500
vn -0.9066 -0.4155 0.0734
vn -0.9090 -0.3584 0.2128
vn -0.8888 -0.4561 -0.0449
vn -0.9950 0.0054 -0.0996
vn -0.3344 0.7379 -0.5862
vn -0.2024 0.8154 -0.5424
vn -0.1183 0.7610 -0.6378
vn -0.3154 0.6707 -0.6713
vn -0.0841 0.6869 -0.7219
vn 0.0425 0.8321 -0.5530
vn 0.1473 0.7597 -0.6334
vn -0.0463 0.8783 -0.4759
vn -0.2883 0.5820 -0.7604
vn 0.1161 -0.5921 -0.7975
vn 0.2029 -0.4151 -0.8869
vn 0.3274 -0.4304 -0.8412
vn 0.1775 -0.6496 -0.7393
vn 0.5282 -0.1634 -0.8332
vn 0.3966 -0.1851 -0.8991
vn 0.5282 -0.1635 -0.8332
vn 0.2870 -0.1993 -0.9370
vn 0.2510 -0.7114 -0.6564
vt 0.966382 8.503631
vt 0.966382 6.725045
vt 0.810921 6.725045
vt 0.810921 8.503631
vt 0.344539 8.503631
vt 0.344539 6.725048
vt 0.189079 6.725048
vt 0.189079 8.503631
vt 0.500000 8.503631
vt 0.500000 6.725048
vt 0.655461 8.503631
vt 0.655461 6.725048
vt 0.966382 4.946462
vt 0.810921 4.946462
vt 0.344539 4.946462
vt 0.189079 4.946462
vt 0.500000 4.946462
vt 0.655461 4.946462
vt 0.966382 3.167876
vt 0.810921 3.167876
vt 0.189079 3.167876
vt 0.033618 3.167878
vt 0.344539 3.167876
vt 0.500000 3.167876
vt 0.655461 3.167876
vt 0.966382 1.389293
vt 0.810921 1.389293
vt 0.189079 1.389293
vt 0.033618 1.389293
vt 0.344539 1.389293
vt 0.500000 1.389293
vt 0.655461 1.389293
vt 0.810921 -0.389293
vt 0.189079 -0.389293
vt 0.033618 -0.389292
vt 0.344539 -0.389293
vt 0.500000 -0.389293
vt 0.655461 -0.389293
vt 0.966382 -0.389294
vt 0.966382 -2.167878
vt 0.810921 -2.167878
vt 0.189079 -2.167876
vt 0.033618 -2.167876
vt 0.500000 -2.167877
vt 0.344539 -2.167877
vt 0.655461 -2.167877
vt 0.966382 -3.946462
vt 0.810921 -3.946462
vt 0.189079 -3.946462
vt 0.033618 -3.946462
vt 0.344539 -3.946462
vt 0.500000 -3.946462
vt 0.655461 -3.946462
vt 0.966382 -5.725047
vt 0.810921 -5.725047
vt 0.189079 -5.725045
vt 0.033618 -5.725045
vt 0.500000 -5.725046
vt 0.344539 -5.725046
vt 0.655461 -5.725046
vt 0.966382 -7.503632
vt 0.810921 -7.503630
vt 0.189079 -7.503630
vt 0.033618 -7.503630
vt 0.344539 -7.503630
vt 0.500000 -7.503630
vt 0.655461 -7.503630
vt 0.033618 6.725048
vt 0.033618 8.503633
vt 0.033618 4.946462
vt 0.000000 0.000000
vt 0.475004 0.000000
vt 0.581436 0.594393
vt 0.000000 0.491831
vt 0.494355 1.000000
vt 1.000000 0.474417
vt 1.000000 1.000000
vt 0.000000 1.000000
vt 1.000000 0.000000
vt 0.533479 0.000000
vt 0.447807 0.563622
vt 0.000000 0.448746
vt 0.515396 1.000000
vt 1.000000 0.474699
vt 0.509433 1.000000
vt 0.557025 0.488493
vt 0.943530 0.531260
vt 0.672370 1.000000
vt 0.124045 0.440587
vt 0.259966 0.000000
vt 0.602475 0.000000
vt 0.860970 0.000000
vt 0.189556 1.000000
vt 0.480173 0.000000
vt 0.499095 0.494221
vt 0.000000 0.504135
vt 0.518459 1.000000
vt 1.000000 0.484268
vt 0.532232 1.000000
vt 0.477364 0.470556
vt 1.000000 0.533264
vt 0.516556 0.000000
vt 0.000000 0.535225
s 1
usemtl trunk-01-1
f 1/1/1 14/2/2 22/3/3
f 1/1/1 22/3/3 10/4/4
f 5/5/5 16/6/6 15/7/7
f 5/5/5 15/7/7 3/8/5
f 9/9/8 19/10/9 17/6/10
f 9/9/8 17/6/10 6/5/11
f 12/11/12 21/12/13 18/10/14
f 12/11/12 18/10/14 7/9/15
f 11/4/16 23/3/17 20/12/18
f 14/2/2 24/13/19 31/14/20
f 14/2/2 31/14/20 22/3/3
f 16/6/6 27/15/21 26/16/22
f 16/6/6 26/16/22 15/7/7
f 19/10/9 30/17/23 28/15/24
f 19/10/9 28/15/24 17/6/10
f 21/12/13 33/18/25 29/17/26
f 21/12/13 29/17/26 18/10/14
f 23/3/17 32/18/27 20/12/18
f 24/13/19 35/19/28 45/20/29
f 24/13/19 45/20/29 31/14/20
f 25/16/30 37/21/31 36/22/32
f 27/15/21 39/23/33 38/21/34
f 27/15/21 38/21/34 26/16/22
f 30/17/23 44/24/35 40/23/36
f 30/17/23 40/23/36 28/15/24
f 33/18/25 41/24/37 29/17/26
f 34/14/25 46/20/38 42/25/37
f 35/19/28 47/26/39 55/27/40
f 35/19/28 55/27/40 45/20/29
f 37/21/31 49/28/41 48/29/42
f 37/21/31 48/29/42 36/22/32
f 39/23/33 51/30/43 50/28/44
f 39/23/33 50/28/44 38/21/34
f 44/24/35 54/31/45 52/30/46
f 44/24/35 52/30/46 40/23/36
f 43/25/47 57/32/48 53/31/49
f 46/20/38 56/32/50 42/25/37
f 47/26/39 68/33/51 55/27/40
f 49/28/41 58/34/52 67/35/53
f 49/28/41 67/35/53 48/29/42
f 51/30/43 60/36/54 59/34/55
f 51/30/43 59/34/55 50/28/44
f 54/31/45 63/37/56 61/36/57
f 54/31/45 61/36/57 52/30/46
f 57/32/48 65/38/58 62/37/59
f 57/32/48 62/37/59 53/31/49
f 55/27/40 68/33/51 64/38/60
f 66/39/61 69/40/62 79/41/63
f 58/34/52 71/42/64 70/43/65
f 58/34/52 70/43/65 67/35/53
f 60/36/54 72/42/66 59/34/55
f 63/37/56 76/44/67 74/45/68
f 63/37/56 74/45/68 61/36/57
f 65/38/58 78/46/69 75/44/70
f 65/38/58 75/44/70 62/37/59
f 68/33/51 80/41/71 77/46/72
f 68/33/51 77/46/72 64/38/60
f 69/40/62 81/47/73 89/48/74
f 69/40/62 89/48/74 79/41/63
f 71/42/64 83/49/75 82/50/76
f 71/42/64 82/50/76 70/43/65
f 73/45/77 85/51/78 84/49/79
f 76/44/67 88/52/80 86/51/81
f 76/44/67 86/51/81 74/45/68
f 78/46/69 92/53/82 87/52/83
f 78/46/69 87/52/83 75/44/70
f 80/41/71 91/53/84 77/46/72
f 81/47/73 93/54/85 103/55/86
f 81/47/73 103/55/86 89/48/74
f 83/49/75 95/56/87 94/57/88
f 83/49/75 94/57/88 82/50/76
f 85/51/78 97/56/89 84/49/79
f 88/52/80 100/58/90 98/59/91
f 88/52/80 98/59/91 86/51/81
f 92/53/82 102/60/92 99/58/92
f 92/53/82 99/58/92 87/52/83
f 90/48/93 104/55/94 101/60/95
f 93/54/85 105/61/96 115/62/97
f 93/54/85 115/62/97 103/55/86
f 95/56/87 233/63/98 106/64/98
f 95/56/87 106/64/98 94/57/88
s 0
f 96/59/99 107/65/99 234/63/99
s 1
f 100/58/90 112/66/100 108/65/100
f 100/58/90 108/65/100 98/59/91
f 102/60/92 114/67/101 111/66/101
f 102/60/92 111/66/101 99/58/92
f 104/55/94 116/62/102 113/67/103
f 104/55/94 113/67/103 101/60/95
f 119/1/104 132/2/105 141/3/106
f 119/1/104 141/3/106 130/4/104
f 123/8/107 134/7/108 131/68/109
f 123/8/107 131/68/109 118/69/107
f 121/5/110 137/6/111 133/7/112
s 0
f 124/9/113 135/6/113 120/5/113
s 1
f 127/11/114 138/12/115 136/10/116
f 127/11/114 136/10/116 125/9/114
f 129/4/117 140/3/118 139/12/119
f 132/2/105 144/13/120 156/14/121
f 132/2/105 156/14/121 141/3/106
f 134/7/108 146/16/122 142/70/122
f 134/7/108 142/70/122 131/68/109
f 137/6/111 150/15/123 145/16/124
f 137/6/111 145/16/124 133/7/112
f 138/12/115 153/18/125 149/17/125
f 138/12/115 149/17/125 136/10/116
f 140/3/118 155/14/126 154/18/127
f 140/3/118 154/18/127 139/12/119
f 144/13/120 158/19/128 167/20/129
f 144/13/120 167/20/129 156/14/121
f 147/16/130 162/21/131 157/22/132
f 147/16/130 157/22/132 143/70/133
f 150/15/123 159/21/134 145/16/124
f 151/17/123 164/24/135 160/23/136
f 152/18/137 165/25/138 163/24/139
f 152/18/137 163/24/139 148/17/137
f 155/14/126 167/20/129 166/25/140
f 155/14/126 166/25/140 154/18/127
f 158/19/128 168/27/141 167/20/129
f 162/21/131 172/28/142 169/29/143
f 162/21/131 169/29/143 157/22/132
f 161/23/144 174/30/145 171/28/146
f 164/24/135 175/31/147 173/30/148
f 164/24/135 173/30/148 160/23/136
f 165/25/138 177/32/149 176/31/150
f 165/25/138 176/31/150 163/24/139
f 167/20/129 168/27/141 178/32/151
f 167/20/129 178/32/151 166/25/140
f 170/26/152 288/39/153 192/33/154
f 172/28/142 182/34/155 286/35/155
f 172/28/142 286/35/155 169/29/143
f 174/30/145 190/36/156 181/34/156
f 174/30/145 181/34/156 171/28/146
f 175/31/147 295/37/157 187/36/158
f 175/31/147 187/36/158 173/30/148
f 177/32/149 281/38/159 296/37/159
f 177/32/149 296/37/159 176/31/150
f 168/27/141 191/33/160 283/38/161
f 168/27/141 283/38/161 178/32/151
f 288/39/153 194/40/162 204/41/163
f 288/39/153 204/41/163 192/33/154
f 184/34/164 196/42/165 193/43/166
f 184/34/164 193/43/166 289/35/164
f 189/36/167 198/45/168 195/42/168
f 189/36/167 195/42/168 180/34/167
f 293/37/169 199/44/170 197/45/171
f 293/37/169 197/45/171 186/36/169
f 279/38/172 201/46/173 200/44/174
f 279/38/172 200/44/174 291/37/175
f 191/33/160 203/41/176 202/46/176
f 191/33/160 202/46/176 283/38/161
f 194/40/162 215/48/177 204/41/163
f 196/42/165 206/49/178 214/50/177
f 196/42/165 214/50/177 193/43/166
f 198/45/168 209/51/179 205/49/180
f 198/45/168 205/49/180 195/42/168
f 199/44/170 207/51/181 197/45/171
f 201/46/173 210/53/182 208/52/181
f 201/46/173 208/52/181 200/44/174
f 203/41/176 212/48/183 211/53/184
f 203/41/176 211/53/184 202/46/176
f 213/47/185 216/54/186 226/55/187
f 206/49/178 219/56/188 217/57/189
f 206/49/178 217/57/189 214/50/177
f 209/51/179 221/59/190 218/56/191
f 209/51/179 218/56/191 205/49/180
f 208/52/181 222/58/192 220/59/193
f 210/53/182 223/60/194 222/58/192
f 210/53/182 222/58/192 208/52/181
f 212/48/183 225/55/195 224/60/196
f 212/48/183 224/60/196 211/53/184
f 216/54/186 228/61/197 238/62/198
f 216/54/186 238/62/198 226/55/187
f 219/56/188 230/63/199 227/64/200
f 219/56/188 227/64/200 217/57/189
f 221/59/190 110/65/201 229/63/202
f 221/59/190 229/63/202 218/56/191
f 222/58/192 232/66/203 109/65/203
f 222/58/192 109/65/203 220/59/193
f 223/60/194 235/67/204 231/66/204
f 223/60/194 231/66/204 222/58/192
f 225/55/195 237/62/205 236/67/205
f 225/55/195 236/67/205 224/60/196
f 239/1/206 255/19/207 266/20/208
f 239/1/206 266/20/208 252/4/209
f 241/8/210 257/21/211 256/22/212
f 246/5/213 260/23/214 258/21/215
f 246/5/213 258/21/215 242/8/216
f 250/9/217 262/24/218 259/23/219
f 250/9/217 259/23/219 245/5/217
f 248/11/220 264/25/221 261/24/222
f 251/4/223 265/20/224 263/25/225
f 251/4/223 263/25/225 247/11/226
f 255/19/207 267/40/227 278/41/228
f 255/19/207 278/41/228 266/20/208
f 257/21/211 269/42/229 268/43/230
f 257/21/211 268/43/230 256/22/212
f 260/23/214 272/45/231 270/42/232
f 260/23/214 270/42/232 258/21/215
f 262/24/218 274/44/233 271/45/234
f 262/24/218 271/45/234 259/23/219
f 264/25/221 276/46/235 273/44/236
f 264/25/221 273/44/236 261/24/222
f 265/20/224 277/41/237 275/46/238
f 265/20/224 275/46/238 263/25/225
f 267/40/227 280/61/239 294/62/239
f 267/40/227 294/62/239 278/41/228
f 269/42/229 284/63/240 282/64/240
f 269/42/229 282/64/240 268/43/230
f 272/45/231 290/65/241 285/63/242
f 272/45/231 285/63/242 270/42/232
f 274/44/233 183/66/243 287/65/244
f 274/44/233 287/65/244 271/45/234
f 276/46/235 188/67/245 179/66/245
f 276/46/235 179/66/245 273/44/236
f 277/41/237 292/62/246 185/67/246
f 277/41/237 185/67/246 275/46/238
s 0
f 253/4/247 249/11/247 243/5/247
f 254/4/248 244/5/248 240/8/248
s 1
f 128/11/249 126/9/249 122/5/249
f 128/11/249 122/5/249 117/69/249
f 8/9/250 4/5/251 2/1/250
f 8/9/250 2/1/250 13/11/250
usemtl branch-02-1
f 297/71/252 301/72/253 303/73/254
f 297/71/252 303/73/254 305/74/255
f 302/75/256 303/73/254 304/76/257
f 302/75/256 304/76/257 300/77/258
f 305/74/255 303/73/254 302/75/256
f 305/74/255 302/75/256 299/78/259
f 304/76/257 303/73/254 301/72/253
f 304/76/257 301/72/253 298/79/260
f 306/71/261 310/72/262 312/73/263
f 306/71/261 312/73/263 314/74/264
f 311/75/265 312/73/263 313/76/266
f 311/75/265 313/76/266 309/77/267
f 314/74/264 312/73/263 311/75/265
f 314/74/264 311/75/265 308/78/268
f 313/76/266 312/73/263 310/72/262
f 313/76/266 310/72/262 307/79/269
f 315/71/270 319/72/271 321/73/272
f 315/71/270 321/73/272 323/74/273
f 320/75/274 321/73/272 322/76/275
f 320/75/274 322/76/275 318/77/276
f 323/74/273 321/73/272 320/75/274
f 323/74/273 320/75/274 317/78/277
f 322/76/275 321/73/272 319/72/271
f 322/76/275 319/72/271 316/79/278
f 324/71/279 328/72/280 330/73/281
f 324/71/279 330/73/281 332/74/282
f 329/75/283 330/73/281 331/76/284
f 329/75/283 331/76/284 327/77/285
f 332/74/282 330/73/281 329/75/283
f 332/74/282 329/75/283 326/78/286
f 331/76/284 330/73/281 328/72/280
f 331/76/284 328/72/280 325/79/287
f 333/71/288 337/72/288 340/73/289
f 333/71/288 340/73/289 342/74/290
f 339/75/291 340/73/289 341/76/292
f 339/75/291 341/76/292 336/77/293
f 342/74/290 340/73/289 339/75/291
f 342/74/290 339/75/291 335/78/294
f 341/76/292 340/73/289 338/72/295
f 341/76/292 338/72/295 334/79/295
f 343/71/296 347/72/297 349/73/298
f 343/71/296 349/73/298 351/74/299
f 348/75/300 349/73/298 350/76/301
f 348/75/300 350/76/301 346/77/302
f 351/74/299 349/73/298 348/75/300
f 351/74/299 348/75/300 345/78/303
f 350/76/301 349/73/298 347/72/297
f 350/76/301 347/72/297 344/79/304
f 352/71/305 356/72/306 358/73/307
f 352/71/305 358/73/307 360/74/308
f 357/75/309 358/73/307 359/76/310
f 357/75/309 359/76/310 355/77/311
f 360/74/308 358/73/307 357/75/309
f 360/74/308 357/75/309 354/78/312
f 359/76/310 358/73/307 356/72/306
f 359/76/310 356/72/306 353/79/313
f 361/71/314 365/72/315 368/73/316
f 361/71/314 368/73/316 370/74/317
f 367/75/318 368/73/316 369/76/319
f 367/75/318 369/76/319 364/77/320
f 370/74/317 368/73/316 367/75/318
f 370/74/317 367/75/318 363/78/321
f 369/76/319 368/73/316 366/72/322
f 369/76/319 366/72/322 362/79/322
f 371/71/323 375/72/324 377/73/325
f 371/71/323 377/73/325 379/74/326
f 376/75/327 377/73/325 378/76/328
f 376/75/327 378/76/328 374/77/329
f 379/74/326 377/73/325 376/75/327
f 379/74/326 376/75/327 373/78/330
f 378/76/328 377/73/325 375/72/324
f 378/76/328 375/72/324 372/79/331
f 380/71/332 384/72/333 386/73/334
f 380/71/332 386/73/334 388/74/335
f 385/75/336 386/73/334 387/76/337
f 385/75/336 387/76/337 383/77/338
f 388/74/335 386/73/334 385/75/336
f 388/74/335 385/75/336 382/78/339
f 387/76/337 386/73/334 384/72/333
f 387/76/337 384/72/333 381/79/340
f 389/71/341 393/72/342 395/73/343
f 389/71/341 395/73/343 397/74/344
f 394/75/345 395/73/343 396/76/346
f 394/75/345 396/76/346 392/77/347
f 397/74/344 395/73/343 394/75/345
f 397/74/344 394/75/345 391/78/348
f 396/76/346 395/73/343 393/72/342
f 396/76/346 393/72/342 390/79/349
f 398/71/350 402/72/351 404/73/352
f 398/71/350 404/73/352 406/74/353
f 403/75/354 404/73/352 405/76/355
f 403/75/354 405/76/355 401/77/356
f 406/74/353 404/73/352 403/75/354
f 406/74/353 403/75/354 400/78/357
f 405/76/355 404/73/352 402/72/351
f 405/76/355 402/72/351 399/79/358
f 407/71/359 411/72/360 413/73/361
f 407/71/359 413/73/361 415/74/362
f 412/75/363 413/73/361 414/76/364
f 412/75/363 414/76/364 410/77/365
f 415/74/362 413/73/361 412/75/363
f 415/74/362 412/75/363 409/78/366
f 414/76/364 413/73/361 411/72/360
f 414/76/364 411/72/360 408/79/367
f 416/71/368 421/72/369 423/73/370
f 416/71/368 423/73/370 425/74/371
f 422/75/372 423/73/370 424/76/373
f 422/75/372 424/76/373 419/77/374
f 425/74/371 423/73/370 422/75/372
f 425/74/371 422/75/372 418/78/375
f 424/76/373 423/73/370 420/72/376
f 424/76/373 420/72/376 417/79/377
usemtl branch-01-1
f 426/71/378 430/80/379 434/81/380
f 426/71/378 434/81/380 436/82/381
f 433/83/382 435/81/383 437/84/384
f 433/83/382 437/84/384 429/77/382
f 436/82/381 434/81/380 432/83/385
f 436/82/381 432/83/385 428/78/386
f 437/84/384 435/81/383 431/80/387
f 437/84/384 431/80/387 427/79/388
f 438/71/389 443/80/389 445/81/390
f 438/71/389 445/81/390 446/82/391
f 444/83/392 445/81/390 447/84/393
f 444/83/392 447/84/393 441/77/394
f 446/82/391 445/81/390 444/83/392
f 446/82/391 444/83/392 440/78/395
f 447/84/393 445/81/390 442/80/396
f 447/84/393 442/80/396 439/79/396
f 448/71/397 452/80/398 454/81/399
f 448/71/397 454/81/399 455/82/400
f 453/83/401 454/81/399 456/84/402
f 453/83/401 456/84/402 451/77/403
f 455/82/400 454/81/399 453/83/401
f 455/82/400 453/83/401 450/78/404
f 456/84/402 454/81/399 452/80/398
f 456/84/402 452/80/398 449/79/405
f 457/71/406 461/80/407 463/81/408
f 457/71/406 463/81/408 464/82/409
f 462/83/410 463/81/408 465/84/411
f 462/83/410 465/84/411 460/77/412
f 464/82/409 463/81/408 462/83/410
f 464/82/409 462/83/410 459/78/413
f 465/84/411 463/81/408 461/80/407
f 465/84/411 461/80/407 458/79/414
f 466/71/415 470/80/416 472/81/417
f 466/71/415 472/81/417 473/82/418
f 471/83/419 472/81/417 474/84/420
f 471/83/419 474/84/420 469/77/421
f 473/82/418 472/81/417 471/83/419
f 473/82/418 471/83/419 468/78/422
f 474/84/420 472/81/417 470/80/416
f 474/84/420 470/80/416 467/79/423
f 475/71/424 479/80/424 482/81/425
f 475/71/424 482/81/425 483/82/426
f 481/83/427 482/81/425 484/84/428
f 481/83/427 484/84/428 478/77/429
f 483/82/426 482/81/425 481/83/427
f 483/82/426 481/83/427 477/78/430
f 484/84/428 482/81/425 480/80/431
f 484/84/428 480/80/431 476/79/431
f 485/71/432 489/80/433 491/81/434
f 485/71/432 491/81/434 492/82/435
f 490/83/436 491/81/434 493/84/437
f 490/83/436 493/84/437 488/77/438
f 492/82/435 491/81/434 490/83/436
f 492/82/435 490/83/436 487/78/439
f 493/84/437 491/81/434 489/80/433
f 493/84/437 489/80/433 486/79/440
f 494/71/441 498/80/442 500/81/443
f 494/71/441 500/81/443 501/82/444
f 499/83/445 500/81/443 502/84/446
f 499/83/445 502/84/446 497/77/447
f 501/82/444 500/81/443 499/83/445
f 501/82/444 499/83/445 496/78/448
f 502/84/446 500/81/443 498/80/442
f 502/84/446 498/80/442 495/79/449
f 503/71/450 507/80/451 509/81/452
f 503/71/450 509/81/452 510/82/453
f 508/83/454 509/81/452 511/84/455
f 508/83/454 511/84/455 506/77/456
f 510/82/453 509/81/452 508/83/454
f 510/82/453 508/83/454 505/78/457
f 511/84/455 509/81/452 507/80/451
f 511/84/455 507/80/451 504/79/458
f 512/71/459 516/80/459 520/81/460
f 512/71/459 520/81/460 522/82/461
f 519/83/462 521/81/463 523/84/464
f 519/83/462 523/84/464 515/77/465
f 522/82/461 520/81/460 518/83/466
f 522/82/461 518/83/466 514/78/466
f 523/84/464 521/81/463 517/80/467
f 523/84/464 517/80/467 513/79/467
f 524/71/468 529/80/468 531/81/469
f 524/71/468 531/81/469 532/82/470
f 530/83/471 531/81/469 533/84/472
f 530/83/471 533/84/472 527/77/473
f 532/82/470 531/81/469 530/83/471
f 532/82/470 530/83/471 526/78/474
f 533/84/472 531/81/469 528/80/475
f 533/84/472 528/80/475 525/79/475
f 534/71/476 538/80/477 540/81/478
f 534/71/476 540/81/478 541/82/479
f 539/83/480 540/81/478 542/84/481
f 539/83/480 542/84/481 537/77/482
f 541/82/479 540/81/478 539/83/480
f 541/82/479 539/83/480 536/78/483
f 542/84/481 540/81/478 538/80/477
f 542/84/481 538/80/477 535/79/484
f 543/71/485 547/80/486 549/81/487
f 543/71/485 549/81/487 550/82/488
f 548/83/489 549/81/487 551/84/490
f 548/83/489 551/84/490 546/77/491
f 550/82/488 549/81/487 548/83/489
f 550/82/488 548/83/489 545/78/492
f 551/84/490 549/81/487 547/80/486
f 551/84/490 547/80/486 544/79/493
f 552/71/494 556/80/495 558/81/496
f 552/71/494 558/81/496 559/82/497
f 557/83/498 558/81/496 560/84/499
f 557/83/498 560/84/499 555/77/500
f 559/82/497 558/81/496 557/83/498
f 559/82/497 557/83/498 554/78/501
f 560/84/499 558/81/496 556/80/495
f 560/84/499 556/80/495 553/79/502
f 561/71/503 565/80/504 567/81/505
f 561/71/503 567/81/505 568/82/506
f 566/83/507 567/81/505 569/84/508
f 566/83/507 569/84/508 564/77/509
f 568/82/506 567/81/505 566/83/507
f 568/82/506 566/83/507 563/78/510
f 569/84/508 567/81/505 565/80/504
f 569/84/508 565/80/504 562/79/511
usemtl branch-04-1
f 571/85/512 575/86/513 579/87/514
f 571/85/512 579/87/514 580/88/512
f 577/89/515 576/90/516 572/91/516
f 577/89/515 572/91/516 574/86/517
f 578/92/518 579/87/514 575/86/513
f 578/92/518 575/86/513 573/91/519
f 581/93/520 577/89/515 574/86/517
f 581/93/520 574/86/517 570/85/521
f 582/85/522 586/86/523 591/87/524
f 582/85/522 591/87/524 592/88/522
f 589/89/525 588/90/526 585/91/526
f 589/89/525 585/91/526 587/86/527
f 590/92/528 591/87/524 586/86/523
f 590/92/528 586/86/523 584/91/528
f 593/93/529 589/89/525 587/86/527
f 593/93/529 587/86/527 583/85/529
f 595/85/530 599/86/531 603/87/532
f 595/85/530 603/87/532 604/88/530
f 601/89/533 600/90/534 596/91/534
f 601/89/533 596/91/534 598/86/535
f 602/92/536 603/87/532 599/86/531
f 602/92/536 599/86/531 597/91/536
f 605/93/537 601/89/533 598/86/535
f 605/93/537 598/86/535 594/85/538
f 606/85/539 610/86/540 615/87/541
f 606/85/539 615/87/541 616/88/539
f 613/89/542 612/90/543 609/91/543
f 613/89/542 609/91/543 611/86/544
f 614/92/545 615/87/541 610/86/540
f 614/92/545 610/86/540 608/91/545
f 617/93/546 613/89/542 611/86/544
f 617/93/546 611/86/544 607/85/546
f 619/85/547 623/86/548 627/87/549
f 619/85/547 627/87/549 628/88/547
f 625/89/550 624/90/551 620/91/551
f 625/89/550 620/91/551 622/86/552
f 626/92/553 627/87/549 623/86/548
f 626/92/553 623/86/548 621/91/553
f 629/93/554 625/89/550 622/86/552
f 629/93/554 622/86/552 618/85/555
f 630/85/556 634/86/557 639/87/558
f 630/85/556 639/87/558 640/88/559
f 637/89/560 636/90/561 633/91/561
f 637/89/560 633/91/561 635/86/562
f 638/92/563 639/87/558 634/86/557
f 638/92/563 634/86/557 632/91/563
f 641/93/564 637/89/560 635/86/562
f 641/93/564 635/86/562 631/85/565
f 642/85/566 646/86/566 652/87/567
f 642/85/566 652/87/567 654/88/566
f 650/89/568 649/90/569 645/91/570
f 650/89/568 645/91/570 648/86/571
f 651/92/572 653/87/573 647/86/572
f 651/92/572 647/86/572 644/91/574
f 655/93/575 650/89/568 648/86/571
f 655/93/575 648/86/571 643/85/576
f 656/85/577 660/86/578 665/87/579
f 656/85/577 665/87/579 666/88/577
f 663/89/580 662/90/581 659/91/581
f 663/89/580 659/91/581 661/86/582
f 664/92/583 665/87/579 660/86/578
f 664/92/583 660/86/578 658/91/583
f 667/93/584 663/89/580 661/86/582
f 667/93/584 661/86/582 657/85/584
f 668/85/585 672/86/586 677/87/587
f 668/85/585 677/87/587 678/88/588
f 675/89/589 674/90/590 671/91/590
f 675/89/589 671/91/590 673/86/591
f 676/92/592 677/87/587 672/86/586
f 676/92/592 672/86/586 670/91/592
f 679/93/593 675/89/589 673/86/591
f 679/93/593 673/86/591 669/85/594
f 680/85/595 683/86/596 687/87/597
f 680/85/595 687/87/597 688/88/598
f 685/89/599 684/90/600 682/91/601
f 685/89/599 682/91/601 683/86/596
f 686/92/602 687/87/597 683/86/596
f 686/92/602 683/86/596 681/91/602
f 689/93/603 685/89/599 683/86/596
f 689/93/603 683/86/596 680/85/595
usemtl branch-05-1
f 690/71/604 695/94/605 699/95/606
f 690/71/604 699/95/606 698/96/607
f 696/97/608 699/95/606 697/98/609
f 696/97/608 697/98/609 693/77/610
f 698/96/607 699/95/606 696/97/608
f 698/96/607 696/97/608 692/78/611
f 697/98/609 699/95/606 694/94/612
f 697/98/609 694/94/612 691/79/613
f 700/71/614 705/94/614 711/95/615
f 700/71/614 711/95/615 709/96/616
f 706/97/617 710/95/618 708/98/619
f 706/97/617 708/98/619 703/77/620
f 709/96/616 711/95/615 707/97/621
f 709/96/616 707/97/621 702/78/621
f 708/98/619 710/95/618 704/94/622
f 708/98/619 704/94/622 701/79/622
f 712/71/623 717/94/624 723/95/625
f 712/71/623 723/95/625 721/96/626
f 718/97/627 722/95/628 720/98/629
f 718/97/627 720/98/629 715/77/630
f 721/96/626 723/95/625 719/97/631
f 721/96/626 719/97/631 714/78/632
f 720/98/629 722/95/628 716/94/633
f 720/98/629 716/94/633 713/79/634
f 724/71/635 729/94/636 733/95/637
f 724/71/635 733/95/637 732/96/638
f 730/97/639 733/95/637 731/98/640
f 730/97/639 731/98/640 727/77/641
f 732/96/638 733/95/637 730/97/639
f 732/96/638 730/97/639 726/78/642
f 731/98/640 733/95/637 728/94/643
f 731/98/640 728/94/643 725/79/643
f 734/71/644 739/94/644 743/95/645
f 734/71/644 743/95/645 742/96/646
f 740/97/647 743/95/645 741/98/648
f 740/97/647 741/98/648 737/77/649
f 742/96/646 743/95/645 740/97/647
f 742/96/646 740/97/647 736/78/650
f 741/98/648 743/95/645 738/94/651
f 741/98/648 738/94/651 735/79/652
f 744/71/653 748/94/654 753/95/655
f 744/71/653 753/95/655 752/96/656
f 750/97/657 753/95/655 751/98/658
f 750/97/657 751/98/658 747/77/659
f 752/96/656 753/95/655 750/97/657
f 752/96/656 750/97/657 746/78/660
f 751/98/658 753/95/655 749/94/661
f 751/98/658 749/94/661 745/79/661
f 754/71/662 759/94/663 763/95/664
f 754/71/662 763/95/664 762/96/665
f 760/97/666 763/95/664 761/98/667
f 760/97/666 761/98/667 757/77/668
f 762/96/665 763/95/664 760/97/666
f 762/96/665 760/97/666 756/78/669
f 761/98/667 763/95/664 758/94/670
f 761/98/667 758/94/670 755/79/671
f 764/71/672 768/94/673 773/95/674
f 764/71/672 773/95/674 772/96/675
f 770/97/676 773/95/674 771/98/677
f 770/97/676 771/98/677 767/77/678
f 772/96/675 773/95/674 770/97/676
f 772/96/675 770/97/676 766/78/679
f 771/98/677 773/95/674 769/94/680
f 771/98/677 769/94/680 765/79/680
usemtl branch-03-1
f 777/77/681 778/99/682 781/100/683
f 777/77/681 781/100/683 783/101/684
f 780/102/685 781/100/683 782/103/686
f 780/102/685 782/103/686 774/71/687
f 782/103/686 781/100/683 778/99/682
f 782/103/686 778/99/682 776/78/688
f 783/101/684 781/100/683 779/102/689
f 783/101/684 779/102/689 775/79/689
f 787/77/690 788/99/691 791/100/692
f 787/77/690 791/100/692 793/101/693
f 789/102/694 791/100/692 792/103/695
f 789/102/694 792/103/695 784/71/694
f 792/103/695 791/100/692 788/99/691
f 792/103/695 788/99/691 786/78/696
f 793/101/693 791/100/692 790/102/697
f 793/101/693 790/102/697 785/79/697
f 797/77/698 798/99/699 800/100/700
f 797/77/698 800/100/700 802/101/701
f 799/102/702 800/100/700 801/103/703
f 799/102/702 801/103/703 794/71/704
f 801/103/703 800/100/700 798/99/699
f 801/103/703 798/99/699 796/78/705
f 802/101/701 800/100/700 799/102/702
f 802/101/701 799/102/702 795/79/706
f 806/77/707 807/99/708 809/100/709
f 806/77/707 809/100/709 811/101/710
f 808/102/711 809/100/709 810/103/712
f 808/102/711 810/103/712 803/71/713
f 810/103/712 809/100/709 807/99/708
f 810/103/712 807/99/708 805/78/714
f 811/101/710 809/100/709 808/102/711
f 811/101/710 808/102/711 804/79/715
f 815/77/716 816/99/717 818/100/718
f 815/77/716 818/100/718 820/101/719
f 817/102/720 818/100/718 819/103/721
f 817/102/720 819/103/721 812/71/722
f 819/103/721 818/100/718 816/99/717
f 819/103/721 816/99/717 814/78/723
f 820/101/719 818/100/718 817/102/720
f 820/101/719 817/102/720 813/79/724
f 824/77/725 825/99/726 828/100/727
f 824/77/725 828/100/727 830/101/728
f 827/102/729 828/100/727 829/103/730
f 827/102/729 829/103/730 821/71/731
f 829/103/730 828/100/727 825/99/726
f 829/103/730 825/99/726 823/78/732
f 830/101/728 828/100/727 826/102/733
f 830/101/728 826/102/733 822/79/733
