# Blender 5.1.0
# www.blender.org
mtllib Tree-01-4.mtl
o Tree-01-4
v 9.971728 4.576237 22.189486
v 9.971728 4.576237 22.189486
v 9.971728 4.576237 22.189486
v 9.961286 4.577722 22.194275
v 9.961286 4.577722 22.194275
v 9.961286 4.577722 22.194275
v 9.961286 4.577722 22.194275
v 9.958152 4.578044 22.185583
v 9.958152 4.578044 22.185583
v 9.958152 4.578044 22.185583
v 9.967824 4.576292 22.181852
v 9.967824 4.576292 22.181852
v 9.967824 4.576292 22.181852
v 9.967824 4.576292 22.181852
v 9.972670 3.900402 22.187305
v 9.972670 3.900402 22.187305
v 9.958285 3.900195 22.195671
v 9.958285 3.900195 22.195671
v 9.944036 3.893763 22.185925
v 9.944036 3.893763 22.185925
v 9.944036 3.893763 22.185925
v 9.954775 3.895779 22.173689
v 9.954775 3.895779 22.173689
v 9.963305 3.897757 22.174101
v 9.963305 3.897757 22.174101
v 10.180519 3.491237 22.221451
v 10.180519 3.491237 22.221451
v 10.180519 3.491237 22.221451
v 10.170395 3.487972 22.237902
v 10.170395 3.487972 22.237902
v 10.170395 3.487972 22.237902
v 10.142172 3.483401 22.219627
v 10.142172 3.483401 22.219627
v 10.142172 3.483401 22.219627
v 10.142172 3.483401 22.219627
v 10.152295 3.486666 22.203175
v 10.152295 3.486666 22.203175
v 10.152295 3.486666 22.203175
v 10.174356 3.489398 22.214424
v 10.174356 3.489398 22.214424
v 10.166595 3.184106 22.154531
v 10.166595 3.184106 22.154531
v 10.140299 3.186900 22.177725
v 10.140299 3.186900 22.177725
v 10.140299 3.186900 22.177725
v 10.140299 3.186900 22.177725
v 10.121064 3.190349 22.156494
v 10.121064 3.190349 22.156494
v 10.133573 3.189361 22.136169
v 10.133573 3.189361 22.136169
v 10.158978 3.185691 22.140167
v 10.036963 2.545612 22.246143
v 10.036963 2.545612 22.246143
v 10.036963 2.545612 22.246143
v 10.008192 2.557559 22.278004
v 10.008192 2.557559 22.278004
v 9.994778 2.562141 22.277498
v 9.994778 2.562141 22.277498
v 9.971548 2.567956 22.243687
v 9.971548 2.567956 22.243687
v 10.003400 2.557472 22.207865
v 10.003400 2.557472 22.207865
v 9.630874 1.722256 22.368242
v 9.630874 1.722256 22.368242
v 9.630874 1.722256 22.368242
v 9.630874 1.722256 22.368242
v 9.630874 1.722256 22.368242
v 9.630874 1.722256 22.368242
v 9.583104 1.738353 22.366463
v 9.583104 1.738353 22.366463
v 9.583104 1.738353 22.366463
v 9.583104 1.738353 22.366463
v 9.583104 1.738353 22.366463
v 9.583104 1.738353 22.366463
v 9.633573 1.720612 22.280933
v 9.633573 1.720612 22.280933
v 9.549249 1.220231 22.275902
v 9.549249 1.220231 22.275902
v 9.530903 1.218204 22.340475
v 9.530903 1.218204 22.340475
v 9.471358 1.224194 22.338102
v 9.471358 1.224194 22.338102
v 9.460256 1.225520 22.307798
v 9.460256 1.225520 22.307798
v 9.475924 1.228573 22.234560
v 9.475924 1.228573 22.234560
v 9.535469 1.222584 22.236933
v 9.535469 1.222584 22.236933
v 9.543573 0.422922 22.335022
v 9.543573 0.422922 22.335022
v 9.543573 0.422922 22.335022
v 9.469777 0.423183 22.331963
v 9.469777 0.423183 22.331963
v 9.469777 0.423183 22.331963
v 9.554299 0.000000 22.400894
v 9.554299 0.000000 22.400894
v 9.444227 0.000000 22.396318
v 9.444227 0.000000 22.396318
v 9.419713 0.000000 22.326107
v 9.453490 4.758854 23.230364
v 9.453490 4.758854 23.230364
v 9.453490 4.758854 23.230364
v 9.453490 4.758854 23.230364
v 9.462734 4.755522 23.238901
v 9.462734 4.755522 23.238901
v 9.462734 4.755522 23.238901
v 9.462734 4.755522 23.238901
v 9.450212 4.755309 23.242451
v 9.450212 4.755309 23.242451
v 9.450212 4.755309 23.242451
v 9.450212 4.755309 23.242451
v 9.448224 4.757601 23.235577
v 9.448224 4.757601 23.235577
v 9.448224 4.757601 23.235577
v 9.448224 4.757601 23.235577
v 9.387282 3.731861 22.902302
v 9.387282 3.731861 22.902302
v 9.393610 3.733054 22.904650
v 9.393610 3.733054 22.904650
v 9.397869 3.725617 22.922905
v 9.397869 3.725617 22.922905
v 9.391257 3.722630 22.928970
v 9.391257 3.722630 22.928970
v 9.369823 3.722310 22.926464
v 9.369823 3.722310 22.926464
v 9.365316 3.727920 22.911053
v 9.365316 3.727920 22.911053
v 9.581454 2.972946 22.525982
v 9.581454 2.972946 22.525982
v 9.608642 2.974059 22.534033
v 9.608642 2.974059 22.534033
v 9.615947 2.966553 22.560408
v 9.615947 2.966553 22.560408
v 9.596065 2.957934 22.578728
v 9.596065 2.957934 22.578728
v 9.568876 2.956821 22.570675
v 9.568876 2.956821 22.570675
v 9.561571 2.964328 22.544302
v 9.561571 2.964328 22.544302
v 9.585803 1.736709 22.279160
v 9.585803 1.736709 22.279160
v 9.585803 1.736709 22.279160
v 9.585803 1.736709 22.279160
v 9.585803 1.736709 22.279160
v 9.644304 1.736465 22.289030
v 9.644304 1.736465 22.289030
v 9.656107 1.713385 22.325478
v 9.656107 1.713385 22.325478
v 9.656107 1.713385 22.325478
v 9.656107 1.713385 22.325478
v 9.656107 1.713385 22.325478
v 9.560569 1.745580 22.321920
v 9.560569 1.745580 22.321920
v 9.560569 1.745580 22.321920
v 9.560569 1.745580 22.321920
v 9.560569 1.745580 22.321920
v 9.560569 1.745580 22.321920
v 9.475076 0.422016 22.204149
v 9.475076 0.422016 22.204149
v 9.475076 0.422016 22.204149
v 9.548867 0.421756 22.207209
v 9.548867 0.421756 22.207209
v 9.548867 0.421756 22.207209
v 9.548867 0.421756 22.207209
v 9.548867 0.421756 22.207209
v 9.548867 0.421756 22.207209
v 9.452124 0.000000 22.205654
v 9.452124 0.000000 22.205654
v 9.573453 0.000000 22.205675
v 9.573453 0.000000 22.205675
v 9.597967 0.000000 22.275887
v 9.597967 0.000000 22.275887
v 10.204282 1.875198 20.255512
v 9.153922 0.735702 21.045818
v 10.448667 2.792603 21.903067
v 9.398307 1.653108 22.693373
v 9.560895 1.438020 20.588987
v 9.864061 2.276376 22.274794
v 9.476956 1.946633 21.618326
v 9.224668 1.203498 21.814331
v 10.278615 2.359451 21.052521
v 11.295816 4.801341 21.714159
v 9.731312 5.205698 21.808456
v 10.923616 3.272361 22.095333
v 9.359111 3.676718 22.189632
v 10.570270 5.028347 21.901123
v 10.158156 3.488062 22.206268
v 10.196826 4.190961 22.253273
v 9.560239 4.491253 22.033772
v 11.118344 4.060432 21.946768
v 7.929691 1.302273 23.484591
v 9.743584 0.426215 23.193485
v 8.670195 3.143120 22.558828
v 10.484087 2.267062 22.267723
v 8.864706 0.962283 23.574593
v 8.864706 0.962283 23.574593
v 9.600112 2.744482 22.518190
v 9.557573 2.025110 23.178865
v 10.117857 1.323364 22.825705
v 8.317200 2.231831 23.101744
v 11.418834 2.228272 20.956760
v 10.209562 3.717234 22.696228
v 10.024193 0.622465 21.361759
v 8.814921 2.111427 23.101229
v 11.012607 2.849451 21.973618
v 9.502468 1.319597 22.307905
v 10.191620 1.983483 22.554390
v 9.600536 2.928481 22.947998
v 10.786299 1.411158 21.216463
v 11.124680 3.958207 22.166006
v 9.198255 3.560776 24.276152
v 10.485980 2.223334 21.256165
v 8.559555 1.825903 23.366310
v 10.427717 3.615281 23.338409
v 9.632308 1.957127 22.376266
v 10.020296 2.416510 23.160416
v 8.963476 2.689498 23.897715
v 10.879787 3.056006 21.772512
v 9.643467 2.943798 20.951681
v 11.927952 1.741899 22.929977
v 8.360268 1.211407 21.380985
v 10.644752 0.009508 23.359282
v 10.845099 2.245540 21.679483
v 9.542316 0.559628 22.263105
v 10.420194 0.984398 21.973001
v 11.355625 0.880182 23.067354
v 9.049334 2.051324 21.095554
v 10.577018 0.875940 22.958960
v 10.450787 0.167790 22.103230
v 9.555776 1.329225 22.734495
v 9.429545 0.621075 21.878765
v 10.562815 0.606031 22.490734
v 9.514073 1.009215 22.283524
v 9.979549 0.854106 22.216049
v 9.980608 0.403629 21.977421
v 10.089266 1.119980 22.828957
v 11.399464 0.911956 21.935366
v 10.851884 2.097928 21.602772
v 9.762656 0.273878 22.354910
v 9.215077 1.459850 22.022318
v 11.162461 1.529451 21.932453
v 11.162461 1.529451 21.932453
v 9.502408 0.884669 22.260645
v 10.150049 1.320419 22.272457
v 10.082582 1.812155 21.850325
v 10.601765 0.615322 22.190941
v 8.225128 2.463816 20.702776
v 8.409700 1.144603 21.021324
v 9.855895 3.010109 22.020266
v 10.040467 1.690897 22.338816
v 8.166224 1.780314 21.047844
v 8.166224 1.780314 21.047844
v 9.879829 2.339363 22.263674
v 9.879829 2.339363 22.263674
v 8.942937 2.217545 21.904018
v 8.942937 2.217545 21.904018
v 8.908768 2.715167 21.347589
v 9.134579 1.410272 21.701538
v 8.379569 3.584179 22.130758
v 8.117215 2.527441 21.138645
v 9.790280 2.567427 22.840693
v 9.527926 1.510689 21.848577
v 8.114235 2.939420 21.720926
v 8.114235 2.939420 21.720926
v 9.598346 1.986140 22.383394
v 9.598346 1.986140 22.383394
v 8.830951 2.391715 22.302153
v 8.830951 2.391715 22.302153
v 8.974252 3.103124 22.485891
v 8.747646 2.019440 21.513023
v 9.263504 1.210443 20.908033
v 8.735240 0.438758 21.616175
v 9.869646 1.729494 21.925833
v 9.341382 0.957809 22.633974
v 8.881908 0.879716 21.299595
v 9.552242 1.368392 22.297043
v 9.188526 1.303505 21.823669
v 9.504972 1.468139 21.368984
v 8.991753 0.710483 22.103636
v 8.108824 2.789043 23.670904
v 9.848699 3.548602 21.485685
v 8.726104 0.919102 23.512411
v 10.465979 1.678661 21.327192
v 8.801613 3.147855 22.301584
v 9.516335 1.289586 22.294071
v 8.811079 1.991514 22.235701
v 8.313786 1.935716 23.537487
v 10.068059 2.646424 21.346752
v 8.052382 0.773700 20.611883
v 7.224694 1.123845 22.711527
v 10.016352 1.487600 21.267036
v 9.188663 1.837745 23.366680
v 7.564638 1.117614 21.687590
v 9.568869 1.739144 22.329094
v 8.705320 1.616396 21.841238
v 8.919570 1.142143 20.892290
v 8.142534 1.511899 23.008631
v 8.620032 3.885886 21.202450
v 9.852141 4.925915 21.675629
v 9.434545 2.550787 22.016035
v 10.666654 3.590815 22.489216
v 9.382139 4.400959 21.269381
v 9.382139 4.400959 21.269381
v 10.116981 3.068825 22.175991
v 9.819976 3.527377 21.538155
v 9.017613 3.274598 21.510773
v 10.271585 4.279702 22.003790
v 7.844568 4.525484 22.658716
v 9.433506 5.251377 22.119469
v 8.700364 2.964962 23.079737
v 10.289302 3.690855 22.540489
v 8.660056 4.854114 22.197317
v 9.504740 3.312565 22.723221
v 8.980387 3.865219 22.341045
v 8.218756 3.807267 22.794483
v 9.829682 4.492255 22.264965
v 9.978946 5.218127 23.595980
v 8.830182 4.915708 23.954556
v 9.981960 4.264503 22.801365
v 8.833197 3.962085 23.159943
v 9.413837 4.984657 23.879358
v 9.411487 4.076004 23.027834
v 9.552358 4.415047 23.474863
v 9.994907 4.768116 23.267580
v 8.846550 4.440451 23.606169
v 8.702519 2.663755 22.897781
v 7.774644 1.229952 23.552727
v 9.929451 1.415976 21.904371
v 9.001576 -0.017827 22.559317
v 8.338566 1.895757 23.426067
v 8.338566 1.895757 23.426067
v 9.510513 0.675600 22.322855
v 9.215018 1.312829 22.953970
v 9.293204 2.102873 22.506737
v 8.398076 0.636664 23.137135
v 10.395389 2.181786 20.552448
v 8.802558 1.950026 21.243162
v 10.883451 2.814972 21.890413
v 9.290621 2.583212 22.581125
v 9.511777 2.166408 20.879150
v 10.047190 2.744501 22.227503
v 9.896071 2.630241 21.540468
v 10.604040 2.499057 21.140068
v 9.023643 2.284476 21.865217
v 11.941064 2.138564 21.699347
v 10.610370 1.286079 20.926199
v 10.733501 3.130126 22.684416
v 9.402807 2.277640 21.911268
v 11.230112 1.802576 21.157717
v 10.047190 2.744501 22.227503
v 10.662659 2.530051 21.675236
v 11.398853 2.619879 22.101862
v 10.036811 1.793946 21.353390
v 9.947967 3.896054 22.181501
v 9.947967 3.896054 22.181501
v 9.450648 5.018772 22.491053
v 9.450648 5.018772 22.491053
v 9.603997 4.474925 22.241478
v 9.603997 4.474925 22.241478
v 9.297722 4.781805 22.860111
v 9.375980 4.226522 22.717897
v 9.776193 5.186841 22.443230
v 10.071367 4.683137 22.105858
v 10.131859 4.003086 22.127962
v 9.747482 3.677702 22.462862
v 9.965833 4.557760 22.193655
v 9.965833 4.557760 22.193655
v 9.934043 5.245233 21.866301
v 9.934043 5.245233 21.866301
v 9.892425 4.939487 22.073622
v 9.892425 4.939487 22.073622
v 10.189359 5.270018 21.977365
v 10.211313 5.007058 22.204487
v 9.875393 5.155974 21.671278
v 9.776056 4.790585 21.817186
v 9.915273 4.508652 22.082003
v 10.167495 4.600269 22.327896
v 9.445734 4.717092 23.225508
v 9.445734 4.717092 23.225508
v 9.583714 5.387494 23.404942
v 9.583714 5.387494 23.404942
v 9.460516 5.090741 23.278879
v 9.460516 5.090741 23.278879
v 9.509295 5.304776 23.639412
v 9.366550 5.020260 23.583124
v 9.770746 5.377834 23.318073
v 9.708707 5.063146 23.120403
v 9.550357 4.718313 23.161617
v 9.340321 4.659621 23.419764
v 9.445522 3.428078 22.784939
v 9.445522 3.428078 22.784939
v 10.222886 4.739221 23.290092
v 10.222886 4.739221 23.290092
v 9.812795 4.076931 23.207947
v 9.812795 4.076931 23.207947
v 10.694190 4.437930 23.105705
v 10.448952 3.752788 23.012976
v 9.938385 5.017750 23.043139
v 9.334308 4.430493 22.897207
v 9.258974 3.598458 22.668430
v 9.866145 3.132662 22.718693
v 9.925551 2.433996 22.286543
v 9.925551 2.433996 22.286543
v 10.664627 3.407083 22.422325
v 10.664627 3.407083 22.422325
v 10.278430 2.960059 22.521957
v 10.278430 2.960059 22.521957
v 10.278430 2.960059 22.521957
v 11.030333 3.037363 22.307472
v 10.778403 2.537293 22.398230
v 10.447648 3.619687 22.119747
v 9.906224 3.254040 22.143669
v 9.906224 3.254040 22.143669
v 9.782798 2.574743 22.135290
v 10.250896 2.106936 22.286100
v 9.682482 1.898494 22.330244
v 10.682661 0.769254 23.419857
v 10.682661 0.769254 23.419857
v 10.247355 1.248901 22.782999
v 11.072139 1.306182 23.491014
v 10.797973 1.873406 22.915709
v 10.263762 0.532857 23.611464
v 9.598948 0.903401 22.972532
v 9.431109 1.732367 22.426146
v 10.080513 2.353613 22.329382
v 10.402699 4.941528 23.014990
v 9.894662 5.366045 22.154636
v 10.295589 3.948050 22.588036
v 9.787552 4.372568 21.727680
v 10.003387 5.133642 22.687828
v 10.003387 5.133642 22.687828
v 9.961905 4.162840 22.180864
v 9.793780 4.881237 21.974991
v 10.298869 4.436919 22.827316
v 9.874847 4.645697 22.497047
v 10.613185 2.641464 22.853392
v 10.072226 3.262651 22.560099
v 10.273478 2.126787 22.389889
v 9.732518 2.747975 22.096594
v 10.245854 2.907988 22.843725
v 10.245854 2.907988 22.843725
v 9.944345 2.434482 22.297165
v 9.944345 2.434482 22.297165
v 9.873779 3.003393 22.377016
v 10.407422 2.371813 22.661793
v 10.022036 2.651891 22.664814
v 10.022036 2.651891 22.664814
v 9.842919 3.057339 23.565079
v 8.408022 1.621920 24.210911
v 10.176379 1.981136 21.913996
v 8.741482 0.545716 22.559828
v 9.375975 2.217490 24.033825
v 9.375975 2.217490 24.033825
v 9.532901 1.168799 22.320599
v 8.639556 1.053240 23.461388
v 10.082251 2.466484 22.783590
v 9.607944 1.594480 23.297424
v 10.923087 3.516033 20.641581
v 10.245403 4.640088 21.547436
v 10.380478 2.383994 21.640366
v 9.702793 3.508048 22.546223
v 10.102753 2.991760 22.172756
v 10.756405 4.117688 21.220613
v 10.756405 4.117688 21.220613
v 10.627699 3.552415 21.715723
v 10.693000 2.917052 21.212709
v 10.016284 4.043315 22.116549
v 8.805765 2.927339 21.515120
v 9.213610 3.671416 22.222548
v 9.675907 2.065987 21.919443
v 10.083752 2.810065 22.626871
v 9.937105 2.486195 22.245077
v 9.113988 3.365159 21.768074
v 9.113988 3.365159 21.768074
v 9.560683 2.959856 21.869236
v 9.303580 2.483911 21.694521
v 9.709667 3.229649 22.401217
v 11.677114 2.101546 22.026134
v 11.445232 2.363461 23.174124
v 10.264092 2.917946 21.554457
v 10.032211 3.179862 22.702446
v 10.102753 2.991760 22.172756
v 11.473502 2.091865 22.635279
v 11.473502 2.091865 22.635279
v 10.771940 2.386655 22.377144
v 10.893250 2.490808 21.778992
v 10.664183 2.751198 22.927898
vn 0.8435 0.0017 -0.5372
vn 0.7929 0.1597 -0.5881
vn 0.7934 0.1584 -0.5877
vn 0.4681 -0.0012 0.8837
vn 0.5544 0.1737 0.8139
vn 0.5722 0.2163 0.7911
vn -0.5659 0.0042 0.8245
vn -0.5368 -0.0974 0.8381
vn -0.5424 -0.0798 0.8363
vn -0.9403 0.0196 0.3397
vn -0.6162 0.0168 -0.7874
vn -0.6814 -0.1907 -0.7066
vn -0.6818 -0.1921 -0.7059
vn -0.6161 0.0168 -0.7875
vn 0.0457 0.0111 -0.9989
vn 0.1972 0.0520 -0.9790
vn 0.1976 0.0522 -0.9789
vn 0.7804 0.2093 -0.5892
vn 0.7886 0.1935 -0.5836
vn 0.6293 0.3846 0.6753
vn 0.6294 0.3846 0.6752
vn -0.5247 -0.1454 0.8388
vn -0.5185 -0.1463 0.8425
vn -0.7099 -0.3881 -0.5877
vn -0.7100 -0.3881 -0.5877
vn 0.3226 0.1488 -0.9347
vn 0.3237 0.1459 -0.9348
vn 0.8536 -0.0793 -0.5148
vn 0.6644 -0.0458 -0.7459
vn 0.7240 -0.1909 0.6628
vn 0.7150 -0.1134 0.6899
vn 0.7150 -0.1138 0.6898
vn 0.7241 -0.1909 0.6628
vn -0.7492 0.0892 0.6564
vn -0.7552 0.0924 0.6490
vn -0.7492 0.0892 0.6563
vn -0.8440 0.1691 -0.5089
vn -0.8101 0.1307 -0.5715
vn -0.8105 0.1311 -0.5709
vn 0.4293 -0.0090 -0.9031
vn 0.4469 -0.2310 -0.8643
vn 0.7279 -0.1599 0.6668
vn 0.7271 -0.1551 0.6688
vn 0.0154 0.1542 0.9879
vn 0.0073 0.1308 0.9914
vn 0.0073 0.1307 0.9914
vn -0.7480 0.3468 0.5659
vn -0.7482 0.3507 0.5632
vn -0.7570 0.1979 -0.6227
vn -0.7545 0.2109 -0.6215
vn 0.4513 -0.2296 -0.8623
vn 0.7878 -0.4048 -0.4642
vn 0.8527 -0.2800 -0.4411
vn 0.8541 -0.2768 -0.4404
vn 0.7410 -0.2746 0.6128
vn -0.0007 0.1077 0.9942
vn -0.7487 0.4258 0.5081
vn -0.7301 0.3129 -0.6075
vn 0.2135 -0.0832 -0.9734
vn 0.2116 -0.0813 -0.9740
vn 0.9937 -0.0894 -0.0678
vn 0.9267 -0.0583 -0.3712
vn 0.8998 -0.2160 0.3791
vn 0.9617 -0.1069 0.2524
vn 0.9937 -0.0894 -0.0677
vn 0.8998 -0.2160 0.3792
vn -0.0479 -0.0450 0.9978
vn -0.0444 -0.0262 0.9987
vn -0.8923 0.1657 0.4200
vn -0.9921 0.0954 0.0817
vn -0.9194 0.0841 0.3842
vn -0.9193 0.2070 -0.3347
vn -0.9696 0.1025 -0.2222
vn -0.9921 0.0955 0.0816
vn -0.9193 0.2070 -0.3346
vn 0.0483 0.0570 -0.9972
vn 0.9879 0.0494 0.1468
vn 0.9862 0.0526 0.1569
vn 0.9879 0.0496 0.1468
vn -0.0411 0.0740 0.9964
vn -0.0410 0.0742 0.9964
vn -0.9942 0.0438 -0.0981
vn -0.9910 0.0412 -0.1274
vn 0.0288 0.0184 -0.9994
vn 0.0289 0.0186 -0.9994
vn -0.0410 0.1526 0.9874
vn -0.0410 0.1527 0.9874
vn -0.9911 0.0990 0.0888
vn -0.9387 0.1065 0.3278
vn -0.9849 0.0858 -0.1501
vn -0.4800 0.2967 -0.8256
vn -0.5309 0.2649 -0.8050
vn -0.5275 0.2671 -0.8065
vn -0.4797 0.2998 -0.8246
vn 0.2886 0.2744 -0.9173
vn 0.2643 0.3670 -0.8919
vn 0.2566 0.3941 -0.8825
vn 0.9025 0.0775 -0.4237
vn 0.9367 0.2108 -0.2795
vn 0.9361 0.2056 -0.2855
vn 0.9026 0.0795 -0.4231
vn 0.4680 -0.2835 0.8370
vn 0.5926 -0.2103 0.7776
vn 0.5927 -0.2103 0.7775
vn -0.1072 -0.2832 0.9531
vn -0.1421 -0.3673 0.9192
vn -0.1434 -0.3704 0.9177
vn -0.9609 -0.0098 0.2767
vn -0.9604 -0.1671 0.2231
vn -0.9610 -0.0098 0.2765
vn -0.6968 0.1752 -0.6955
vn -0.6974 0.1749 -0.6950
vn 0.2170 0.3399 -0.9151
vn 0.2169 0.3391 -0.9154
vn 0.9588 0.2062 -0.1953
vn 0.9589 0.2057 -0.1955
vn 0.7542 -0.1074 0.6478
vn 0.7545 -0.1073 0.6475
vn -0.1708 -0.3123 0.9345
vn -0.1708 -0.3117 0.9347
vn -0.9417 -0.1969 0.2730
vn -0.9416 -0.1965 0.2734
vn -0.7991 0.1118 -0.5907
vn 0.1989 0.1942 -0.9606
vn 0.9638 0.0785 -0.2549
vn 0.8016 -0.0818 0.5923
vn 0.8015 -0.0819 0.5923
vn -0.1611 -0.1676 0.9726
vn -0.9246 -0.0706 0.3744
vn -0.9246 -0.0705 0.3744
vn 0.0682 0.9522 0.2978
vn 0.0682 0.9522 0.2977
vn 0.1428 0.9890 -0.0387
vn 0.0158 0.0001 -0.9999
vn 0.9426 0.0561 -0.3291
vn 0.9770 0.0993 0.1888
vn -0.6318 0.6796 -0.3728
vn -0.7862 0.5409 -0.2990
vn -0.8015 0.5810 -0.1416
vn -0.6314 0.7233 -0.2795
vn -0.7494 0.6595 -0.0589
vn -0.9113 0.4032 -0.0831
vn -0.8698 0.4885 0.0697
vn -0.6215 0.7672 -0.1586
vn -0.9229 0.3356 -0.1890
vn 0.3243 0.2272 0.9183
vn 0.1497 0.2978 0.9428
vn 0.0667 0.1749 0.9823
vn 0.2908 0.1385 0.9467
vn 0.0823 0.0566 0.9950
vn -0.1000 0.2568 0.9613
vn -0.1311 0.0915 0.9871
vn 0.2454 0.0276 0.9690
vn -0.0757 0.3709 0.9256
vn 0.0176 0.3556 0.9345
vn 0.3623 0.3610 0.8593
vn 0.0747 0.4533 0.8882
vn 0.3576 0.4951 0.7918
vn 0.5490 0.1966 0.8124
vn 0.5997 0.3718 0.7086
vn 0.1439 0.5647 0.8126
vn 0.4978 0.0658 0.8648
vn 0.7572 -0.3936 0.5213
vn 0.6929 -0.2616 0.6720
vn 0.5432 -0.3643 0.7564
vn 0.6684 -0.4882 0.5611
vn 0.4577 -0.5052 0.7316
vn 0.4639 -0.2047 0.8619
vn 0.3137 -0.3675 0.8755
vn 0.5476 -0.5885 0.5948
vn 0.5636 -0.0731 0.8228
vn 0.8508 -0.3666 0.3765
vn 0.7361 -0.3798 0.5603
vn 0.6183 -0.5851 0.5249
vn 0.7957 -0.5153 0.3182
vn 0.5825 -0.7228 0.3718
vn 0.4748 -0.5575 0.6809
vn 0.3810 -0.7565 0.5316
vn 0.7045 -0.6679 0.2401
vn 0.5261 -0.3692 0.7661
vn 0.3239 -0.3331 -0.8855
vn 0.4604 -0.3798 -0.8023
vn 0.4022 -0.5532 -0.7295
vn 0.2540 -0.4497 -0.8563
vn 0.2598 -0.6454 -0.7183
vn 0.5286 -0.5710 -0.6281
vn 0.3821 -0.7256 -0.5722
vn 0.1676 -0.5727 -0.8025
vn 0.6276 -0.4270 -0.6510
vn 0.5062 0.7481 -0.4291
vn 0.5113 0.6338 -0.5805
vn 0.3794 0.6596 -0.6488
vn 0.4208 0.7820 -0.4598
vn 0.2824 0.7228 -0.6307
vn 0.3890 0.5135 -0.7649
vn 0.2354 0.5768 -0.7823
vn 0.3100 0.8135 -0.4921
vn 0.4921 0.4595 -0.7394
vn 0.2876 0.0932 0.9532
vn 0.2876 0.0931 0.9532
vn 0.0499 0.3322 0.9419
vn 0.1971 0.0751 0.9775
vn -0.0317 0.2538 0.9667
vn -0.0051 0.5574 0.8302
vn -0.1589 0.4809 0.8623
vn 0.0755 0.0505 0.9959
vn 0.0961 0.5983 0.7955
vn -0.7395 0.4182 0.5276
vn -0.6067 0.4551 0.6518
vn -0.6526 0.4447 0.6135
vn -0.4367 -0.1827 0.8809
vn -0.5163 -0.2359 0.8233
vn -0.5393 -0.2515 0.8037
vn -0.5017 0.4715 0.7252
vn -0.5017 0.4715 0.7253
vn -0.6098 -0.3003 0.7334
vn -0.6099 -0.3003 0.7334
vn -0.6440 -0.1355 0.7529
vn -0.6440 -0.1355 0.7530
vn -0.5212 -0.2405 0.8188
vn -0.5583 -0.2109 0.8024
vn -0.5365 -0.6810 0.4984
vn -0.6234 -0.6417 0.4468
vn -0.6446 -0.6303 0.4327
vn -0.5366 -0.6809 0.4984
vn -0.4207 -0.3132 0.8514
vn -0.4208 -0.3132 0.8514
vn -0.7218 -0.5817 0.3749
vn -0.6731 0.7282 -0.1291
vn -0.8150 0.5768 0.0556
vn -0.7251 0.6725 0.1484
vn -0.6237 0.7812 -0.0258
vn -0.6746 0.6903 0.2616
vn -0.8342 0.4727 0.2840
vn -0.7578 0.5363 0.3717
vn -0.5392 0.8340 0.1171
vn -0.8859 0.4144 0.2083
vn -0.9088 -0.0559 -0.4136
vn -0.7568 -0.0174 -0.6534
vn -0.7380 -0.2511 -0.6264
vn -0.8559 -0.2596 -0.4473
vn -0.6201 -0.4209 -0.6621
vn -0.5626 -0.1602 -0.8111
vn -0.5009 -0.3493 -0.7919
vn -0.7399 -0.4900 -0.4609
vn -0.5986 0.0131 -0.8009
vn -0.2740 0.8549 -0.4405
vn -0.3331 0.9051 -0.2642
vn -0.2140 0.9405 -0.2638
vn -0.1861 0.8939 -0.4079
vn -0.1375 0.9684 -0.2079
vn -0.2928 0.9511 -0.0981
vn -0.1941 0.9777 -0.0804
vn -0.0652 0.9316 -0.3576
vn -0.3724 0.9213 -0.1121
vn 0.1862 -0.2631 -0.9466
vn 0.5004 -0.2680 -0.8232
vn 0.2682 -0.3799 -0.8853
vn 0.5894 -0.3516 -0.7273
vn 0.6929 -0.0520 -0.7192
vn 0.7399 -0.1864 -0.6463
vn 0.3680 -0.5218 -0.7696
vn 0.6404 0.0605 -0.7656
vn -0.4190 -0.3102 -0.8534
vn -0.1912 -0.2348 -0.9531
vn -0.1615 -0.3873 -0.9077
vn -0.3552 -0.4230 -0.8336
vn -0.0710 -0.4745 -0.8774
vn 0.0450 -0.2627 -0.9638
vn 0.0892 -0.3819 -0.9199
vn -0.2600 -0.5628 -0.7847
vn 0.0075 -0.1602 -0.9871
vn 0.5820 -0.4147 0.6995
vn 0.3553 -0.5102 0.7832
vn 0.4020 -0.6200 0.6738
vn 0.5815 -0.5219 0.6241
vn 0.3649 -0.7158 0.5954
vn 0.1661 -0.6487 0.7427
vn 0.1836 -0.7407 0.6462
vn 0.5650 -0.6516 0.5062
vn 0.1492 -0.5634 0.8126
vn 0.6365 0.2714 0.7220
vn 0.6364 0.2715 0.7220
vn 0.6533 -0.0412 0.7560
vn 0.7248 0.1813 0.6646
vn 0.7061 -0.1517 0.6916
vn 0.4723 -0.2485 0.8457
vn 0.5675 -0.3164 0.7601
vn 0.8231 0.0525 0.5655
vn 0.3862 -0.1889 0.9029
vn -0.1520 0.8688 -0.4712
vn -0.3139 0.8651 -0.3912
vn -0.2440 0.9203 -0.3058
vn -0.1249 0.9151 -0.3833
vn -0.2377 0.9483 -0.2104
vn -0.4015 0.8814 -0.2488
vn -0.3551 0.9201 -0.1651
vn -0.0872 0.9612 -0.2616
vn -0.4372 0.8416 -0.3172
vn 0.2313 0.7147 -0.6600
vn 0.0286 0.6227 -0.7819
vn -0.0323 0.7256 -0.6873
vn 0.1482 0.7833 -0.6037
vn -0.1318 0.7633 -0.6324
vn -0.1982 0.5818 -0.7888
vn -0.2638 0.6545 -0.7086
vn 0.0315 0.8581 -0.5125
vn -0.1423 0.5150 -0.8453
vn -0.2549 -0.0528 -0.9655
vn -0.3162 0.1511 -0.9366
vn -0.3163 0.1516 -0.9365
vn -0.2548 -0.0528 -0.9655
vn -0.8346 -0.1711 -0.5236
vn -0.9028 -0.0376 -0.4284
vn -0.8354 -0.1699 -0.5228
vn -0.3600 0.3339 -0.8711
vn -0.7390 -0.3005 -0.6030
vn -0.7390 -0.3004 -0.6030
vn -0.9019 -0.0395 0.4302
vn -0.9374 0.1407 0.3186
vn -0.9374 0.1412 0.3183
vn -0.4450 0.4115 0.7954
vn -0.3957 0.5661 0.7231
vn -0.4446 0.4130 0.7949
vn -0.9317 0.3019 0.2019
vn -0.4805 0.2422 0.8429
vn -0.5205 0.1397 -0.8424
vn -0.4601 0.3445 -0.8183
vn -0.4599 0.3450 -0.8182
vn -0.9204 0.3055 -0.2440
vn -0.8811 0.4494 -0.1476
vn -0.9202 0.3069 -0.2432
vn -0.3851 0.5202 -0.7622
vn -0.3851 0.5202 -0.7623
vn -0.9306 0.1504 -0.3336
vn -0.9306 0.1504 -0.3337
vn -0.6175 -0.1549 0.7712
vn -0.5453 0.0364 0.8374
vn -0.5451 0.0369 0.8376
vn 0.0767 -0.3467 0.9348
vn 0.2016 -0.2218 0.9540
vn 0.2015 -0.2218 0.9540
vn 0.0778 -0.3456 0.9351
vn -0.4559 0.2123 0.8643
vn -0.0518 -0.4617 0.8855
vn -0.0519 -0.4617 0.8855
vn -0.6643 0.1131 0.7389
vn -0.6640 0.1131 0.7391
vn -0.6643 0.1131 0.7388
vn 0.0888 -0.1326 0.9872
vn 0.2734 0.0091 0.9619
vn 0.2735 0.0091 0.9618
vn 0.1003 -0.1241 0.9872
vn -0.3835 0.5505 0.7415
vn -0.3836 0.5505 0.7415
vn -0.0940 -0.2625 0.9603
vn 0.2590 -0.4197 -0.8699
vn 0.3356 -0.5118 -0.7908
vn 0.1140 -0.6568 -0.7454
vn 0.0438 -0.5444 -0.8377
vn 0.5344 -0.3343 -0.7763
vn 0.6178 -0.3791 -0.6890
vn 0.6177 -0.3791 -0.6890
vn 0.1746 -0.7432 -0.6458
vn 0.1745 -0.7433 -0.6458
vn 0.4407 -0.2832 -0.8518
vn -0.6564 -0.1298 0.7431
vn -0.6565 -0.1296 0.7431
vn -0.8815 -0.1404 0.4509
vn -0.7115 -0.2600 0.6528
vn -0.8858 -0.2836 0.3673
vn -0.9783 -0.0196 0.2063
vn -0.9689 -0.1772 0.1730
vn -0.7455 -0.3780 0.5489
vn -0.9624 0.1378 0.2342
vn -0.2867 -0.3842 0.8776
vn -0.4254 -0.4902 0.7607
vn -0.4325 -0.4953 0.7534
vn -0.8894 -0.1699 0.4244
vn -0.8362 0.0106 0.5484
vn -0.8405 -0.0001 0.5418
vn -0.8893 -0.1699 0.4245
vn -0.5515 -0.5786 0.6009
vn -0.5514 -0.5786 0.6010
vn -0.7531 0.1708 0.6353
vn 0.8674 -0.2209 0.4459
vn 0.8673 -0.2209 0.4460
vn 0.7254 -0.5255 0.4446
vn 0.8765 -0.3407 0.3401
vn 0.7307 -0.6082 0.3101
vn 0.5264 -0.6795 0.5110
vn 0.5700 -0.7326 0.3721
vn 0.8641 -0.4478 0.2299
vn 0.4707 -0.6108 0.6367
vn 0.6626 0.0944 0.7430
vn 0.7550 -0.0488 0.6539
vn 0.8377 0.0467 0.5441
vn 0.6912 0.2117 0.6909
vn 0.9624 -0.0526 0.2665
vn 0.9004 -0.1394 0.4122
vn 0.9624 -0.0526 0.2664
vn 0.8259 -0.2085 0.5239
vn 0.7096 0.3444 0.6147
vn 0.7095 0.3445 0.6147
vn 0.8024 0.3474 -0.4853
vn 0.7505 0.2079 -0.6273
vn 0.6471 0.2947 -0.7031
vn 0.7426 0.4513 -0.4948
vn 0.4132 0.1637 -0.8958
vn 0.5528 0.0980 -0.8276
vn 0.6553 0.0421 -0.7542
vn 0.6570 0.5671 -0.4967
vn -0.6518 -0.7134 0.2573
vn -0.6334 -0.7713 0.0618
vn -0.5299 -0.8447 0.0746
vn -0.5836 -0.7465 0.3197
vn -0.3592 -0.9151 -0.1830
vn -0.4881 -0.8563 -0.1689
vn -0.3592 -0.9151 -0.1829
vn -0.5828 -0.7976 -0.1553
vn -0.4914 -0.7774 0.3926
vn -0.4914 -0.7774 0.3925
vt 0.966382 8.503631
vt 0.966382 6.725045
vt 0.810921 6.725045
vt 0.810921 8.503631
vt 0.189079 8.503631
vt 0.189079 6.725048
vt 0.033618 6.725048
vt 0.033618 8.503633
vt 0.344539 8.503631
vt 0.344539 6.725048
vt 0.500000 8.503631
vt 0.655461 8.503631
vt 0.655461 6.725048
vt 0.500000 6.725048
vt 0.966382 4.946462
vt 0.810921 4.946462
vt 0.189079 4.946462
vt 0.033618 4.946462
vt 0.344539 4.946462
vt 0.655461 4.946462
vt 0.500000 4.946462
vt 0.966382 3.167876
vt 0.810921 3.167876
vt 0.189079 3.167876
vt 0.033618 3.167878
vt 0.500000 3.167876
vt 0.344539 3.167876
vt 0.655461 3.167876
vt 0.810921 1.389293
vt 0.189079 1.389293
vt 0.033618 1.389293
vt 0.344539 1.389293
vt 0.500000 1.389293
vt 0.655461 1.389293
vt 0.966382 1.389293
vt 0.966382 -0.389294
vt 0.810921 -0.389293
vt 0.189079 -0.389293
vt 0.033618 -0.389292
vt 0.344539 -0.389293
vt 0.500000 -0.389293
vt 0.655461 -0.389293
vt 0.966382 -2.167878
vt 0.810921 -2.167878
vt 0.189079 -2.167876
vt 0.033618 -2.167876
vt 0.344539 -2.167877
vt 0.500000 -2.167877
vt 0.655461 -2.167877
vt 0.810921 -3.946462
vt 0.189079 -3.946462
vt 0.033618 -3.946462
vt 0.344539 -3.946462
vt 0.655461 -3.946462
vt 0.500000 -3.946462
vt 0.344539 -5.725046
vt 0.189079 -5.725045
vt 0.500000 -5.725046
vt 0.655461 -5.725046
vt 0.966382 -7.503632
vt 0.810921 -7.503630
vt 0.189079 -7.503630
vt 0.033618 -7.503630
vt 0.344539 -7.503630
vt 0.500000 -7.503630
vt 0.655461 -7.503630
vt 0.000000 0.000000
vt 0.475004 0.000000
vt 0.581436 0.594393
vt 0.000000 0.491831
vt 0.494355 1.000000
vt 1.000000 0.474417
vt 1.000000 1.000000
vt 0.000000 1.000000
vt 1.000000 0.000000
vt 0.533479 0.000000
vt 0.447807 0.563622
vt 0.000000 0.448746
vt 0.515396 1.000000
vt 1.000000 0.474699
vt 0.509433 1.000000
vt 0.557025 0.488493
vt 0.943530 0.531260
vt 0.672370 1.000000
vt 0.124045 0.440587
vt 0.259966 0.000000
vt 0.602475 0.000000
vt 0.860970 0.000000
vt 0.189556 1.000000
vt 0.480173 0.000000
vt 0.499095 0.494221
vt 0.000000 0.504135
vt 0.518459 1.000000
vt 1.000000 0.484268
vt 0.532232 1.000000
vt 0.477364 0.470556
vt 1.000000 0.533264
vt 0.516556 0.000000
vt 0.000000 0.535225
s 1
usemtl trunk-01-1
f 3/1/1 16/2/2 25/3/3
f 3/1/1 25/3/3 14/4/1
f 7/5/4 18/6/5 15/7/6
f 7/5/4 15/7/6 2/8/4
f 5/9/7 21/10/8 17/6/9
s 0
f 8/11/10 19/10/10 4/9/10
s 1
f 11/12/11 22/13/12 20/14/13
f 11/12/11 20/14/13 9/11/14
f 12/4/15 24/3/16 23/13/17
f 16/2/2 28/15/18 40/16/19
f 16/2/2 40/16/19 25/3/3
f 18/6/5 30/17/20 26/18/21
f 18/6/5 26/18/21 15/7/6
f 21/10/8 34/19/22 29/17/23
f 21/10/8 29/17/23 17/6/9
f 22/13/12 37/20/24 33/21/25
f 22/13/12 33/21/25 20/14/13
f 24/3/16 39/16/26 38/20/27
f 24/3/16 38/20/27 23/13/17
f 28/15/18 42/22/28 51/23/29
f 28/15/18 51/23/29 40/16/19
f 31/17/30 46/24/31 41/25/32
f 31/17/30 41/25/32 27/18/33
f 34/19/22 43/24/34 29/17/23
f 35/21/22 48/26/35 44/27/36
f 36/20/37 49/28/38 47/26/39
f 36/20/37 47/26/39 32/21/37
f 39/16/26 51/23/29 50/28/40
f 39/16/26 50/28/40 38/20/27
f 42/22/28 52/29/41 51/23/29
f 46/24/31 56/30/42 53/31/43
f 46/24/31 53/31/43 41/25/32
f 45/27/44 58/32/45 55/30/46
f 48/26/35 60/33/47 57/32/48
f 48/26/35 57/32/48 44/27/36
f 49/28/38 61/34/49 59/33/50
f 49/28/38 59/33/50 47/26/39
f 51/23/29 52/29/41 62/34/51
f 51/23/29 62/34/51 50/28/40
f 54/35/52 149/36/53 76/37/54
f 56/30/42 66/38/55 147/39/55
f 56/30/42 147/39/55 53/31/43
f 58/32/45 74/40/56 65/38/56
f 58/32/45 65/38/56 55/30/46
f 60/33/47 156/41/57 71/40/57
f 60/33/47 71/40/57 57/32/48
f 61/34/49 142/42/58 157/41/58
f 61/34/49 157/41/58 59/33/50
f 52/29/41 75/37/59 144/42/60
f 52/29/41 144/42/60 62/34/51
f 149/36/53 78/43/61 88/44/62
f 149/36/53 88/44/62 76/37/54
f 68/38/63 80/45/64 77/46/65
f 68/38/63 77/46/65 150/39/66
f 73/40/67 82/47/68 79/45/68
f 73/40/67 79/45/68 64/38/67
f 154/41/69 84/48/70 81/47/71
f 154/41/69 81/47/71 70/40/69
f 140/42/72 85/49/73 83/48/74
f 140/42/72 83/48/74 153/41/75
f 75/37/59 87/44/76 86/49/76
f 75/37/59 86/49/76 144/42/60
f 78/43/61 166/50/77 88/44/62
f 80/45/64 90/51/78 164/52/79
f 80/45/64 164/52/79 77/46/65
f 82/47/68 94/53/80 89/51/81
f 82/47/68 89/51/81 79/45/68
f 84/48/70 92/53/82 81/47/71
f 85/49/73 158/54/83 93/55/82
f 85/49/73 93/55/82 83/48/74
f 87/44/76 162/50/84 160/54/85
f 87/44/76 160/54/85 86/49/76
f 94/53/80 98/56/86 95/57/87
f 94/53/80 95/57/87 89/51/81
f 93/55/82 99/58/88 97/56/89
f 158/54/83 167/59/90 99/58/88
f 158/54/83 99/58/88 93/55/82
f 100/1/91 116/22/92 127/23/93
f 100/1/91 127/23/93 113/4/94
f 102/5/95 118/24/96 117/25/97
f 107/9/98 121/27/99 119/24/100
f 107/9/98 119/24/100 103/5/101
f 111/11/102 123/26/103 120/27/104
f 111/11/102 120/27/104 106/9/102
f 109/12/105 125/28/106 122/26/107
f 112/4/108 126/23/109 124/28/109
f 112/4/108 124/28/109 108/12/110
f 116/22/92 128/43/111 139/44/112
f 116/22/92 139/44/112 127/23/93
f 118/24/96 130/45/113 129/46/114
f 118/24/96 129/46/114 117/25/97
f 121/27/99 133/47/115 131/45/116
f 121/27/99 131/45/116 119/24/100
f 123/26/103 135/48/117 132/47/118
f 123/26/103 132/47/118 120/27/104
f 125/28/106 137/49/119 134/48/120
f 125/28/106 134/48/120 122/26/107
f 126/23/109 138/44/121 136/49/122
f 126/23/109 136/49/122 124/28/109
f 128/43/111 141/60/123 155/61/123
f 128/43/111 155/61/123 139/44/112
f 130/45/113 145/62/124 143/63/124
f 130/45/113 143/63/124 129/46/114
f 133/47/115 151/64/125 146/62/125
f 133/47/115 146/62/125 131/45/116
f 135/48/117 67/65/126 148/64/127
f 135/48/117 148/64/127 132/47/118
f 137/49/119 72/66/128 63/65/128
f 137/49/119 63/65/128 134/48/120
f 138/44/121 152/61/129 69/66/130
f 138/44/121 69/66/130 136/49/122
s 0
f 114/4/131 110/12/131 104/9/131
f 115/4/132 105/9/132 101/5/132
s 1
f 13/12/133 10/11/133 6/9/133
f 13/12/133 6/9/133 1/8/133
f 161/53/84 169/56/134 168/57/134
f 161/53/84 168/57/134 159/51/85
s 0
f 163/55/135 171/58/135 170/56/135
s 1
f 91/54/78 96/59/136 172/58/136
f 91/54/78 172/58/136 165/55/79
usemtl branch-02-1
f 173/67/137 177/68/138 179/69/139
f 173/67/137 179/69/139 181/70/140
f 178/71/141 179/69/139 180/72/142
f 178/71/141 180/72/142 176/73/143
f 181/70/140 179/69/139 178/71/141
f 181/70/140 178/71/141 175/74/144
f 180/72/142 179/69/139 177/68/138
f 180/72/142 177/68/138 174/75/145
f 182/67/146 186/68/147 188/69/148
f 182/67/146 188/69/148 190/70/149
f 187/71/150 188/69/148 189/72/151
f 187/71/150 189/72/151 185/73/152
f 190/70/149 188/69/148 187/71/150
f 190/70/149 187/71/150 184/74/153
f 189/72/151 188/69/148 186/68/147
f 189/72/151 186/68/147 183/75/154
f 191/67/155 195/68/155 198/69/156
f 191/67/155 198/69/156 200/70/157
f 197/71/158 198/69/156 199/72/159
f 197/71/158 199/72/159 194/73/160
f 200/70/157 198/69/156 197/71/158
f 200/70/157 197/71/158 193/74/161
f 199/72/159 198/69/156 196/68/162
f 199/72/159 196/68/162 192/75/162
f 201/67/163 205/68/164 207/69/165
f 201/67/163 207/69/165 209/70/166
f 206/71/167 207/69/165 208/72/168
f 206/71/167 208/72/168 204/73/169
f 209/70/166 207/69/165 206/71/167
f 209/70/166 206/71/167 203/74/170
f 208/72/168 207/69/165 205/68/164
f 208/72/168 205/68/164 202/75/171
f 210/67/172 214/68/173 216/69/174
f 210/67/172 216/69/174 218/70/175
f 215/71/176 216/69/174 217/72/177
f 215/71/176 217/72/177 213/73/178
f 218/70/175 216/69/174 215/71/176
f 218/70/175 215/71/176 212/74/179
f 217/72/177 216/69/174 214/68/173
f 217/72/177 214/68/173 211/75/180
f 219/67/181 223/68/182 225/69/183
f 219/67/181 225/69/183 227/70/184
f 224/71/185 225/69/183 226/72/186
f 224/71/185 226/72/186 222/73/187
f 227/70/184 225/69/183 224/71/185
f 227/70/184 224/71/185 221/74/188
f 226/72/186 225/69/183 223/68/182
f 226/72/186 223/68/182 220/75/189
f 228/67/190 232/68/191 234/69/192
f 228/67/190 234/69/192 236/70/193
f 233/71/194 234/69/192 235/72/195
f 233/71/194 235/72/195 231/73/196
f 236/70/193 234/69/192 233/71/194
f 236/70/193 233/71/194 230/74/197
f 235/72/195 234/69/192 232/68/191
f 235/72/195 232/68/191 229/75/198
f 237/67/199 242/68/200 244/69/201
f 237/67/199 244/69/201 246/70/202
f 243/71/203 244/69/201 245/72/204
f 243/71/203 245/72/204 240/73/205
f 246/70/202 244/69/201 243/71/203
f 246/70/202 243/71/203 239/74/206
f 245/72/204 244/69/201 241/68/207
f 245/72/204 241/68/207 238/75/207
usemtl branch-01-1
f 247/67/208 251/76/208 255/77/209
f 247/67/208 255/77/209 257/78/210
f 254/79/211 256/77/212 258/80/213
f 254/79/211 258/80/213 250/73/211
f 257/78/210 255/77/209 253/79/214
f 257/78/210 253/79/214 249/74/215
f 258/80/213 256/77/212 252/76/216
f 258/80/213 252/76/216 248/75/217
f 259/67/218 264/76/219 268/77/220
f 259/67/218 268/77/220 269/78/221
f 265/79/222 267/77/223 270/80/224
f 265/79/222 270/80/224 262/73/225
f 269/78/221 268/77/220 266/79/226
f 269/78/221 266/79/226 261/74/227
f 270/80/224 267/77/223 263/76/228
f 270/80/224 263/76/228 260/75/228
f 271/67/229 275/76/230 277/77/231
f 271/67/229 277/77/231 278/78/232
f 276/79/233 277/77/231 279/80/234
f 276/79/233 279/80/234 274/73/235
f 278/78/232 277/77/231 276/79/233
f 278/78/232 276/79/233 273/74/236
f 279/80/234 277/77/231 275/76/230
f 279/80/234 275/76/230 272/75/237
f 280/67/238 284/76/239 286/77/240
f 280/67/238 286/77/240 287/78/241
f 285/79/242 286/77/240 288/80/243
f 285/79/242 288/80/243 283/73/244
f 287/78/241 286/77/240 285/79/242
f 287/78/241 285/79/242 282/74/245
f 288/80/243 286/77/240 284/76/239
f 288/80/243 284/76/239 281/75/246
f 289/67/247 293/76/248 295/77/249
f 289/67/247 295/77/249 296/78/250
f 294/79/251 295/77/249 297/80/252
f 294/79/251 297/80/252 292/73/253
f 296/78/250 295/77/249 294/79/251
f 296/78/250 294/79/251 291/74/254
f 297/80/252 295/77/249 293/76/248
f 297/80/252 293/76/248 290/75/255
f 298/67/256 302/76/256 305/77/257
f 298/67/256 305/77/257 306/78/258
f 304/79/259 305/77/257 307/80/260
f 304/79/259 307/80/260 301/73/261
f 306/78/258 305/77/257 304/79/259
f 306/78/258 304/79/259 300/74/262
f 307/80/260 305/77/257 303/76/263
f 307/80/260 303/76/263 299/75/263
f 308/67/264 312/76/265 314/77/266
f 308/67/264 314/77/266 315/78/267
f 313/79/268 314/77/266 316/80/269
f 313/79/268 316/80/269 311/73/270
f 315/78/267 314/77/266 313/79/268
f 315/78/267 313/79/268 310/74/271
f 316/80/269 314/77/266 312/76/265
f 316/80/269 312/76/265 309/75/272
f 317/67/273 321/76/274 323/77/275
f 317/67/273 323/77/275 324/78/276
f 322/79/277 323/77/275 325/80/278
f 322/79/277 325/80/278 320/73/279
f 324/78/276 323/77/275 322/79/277
f 324/78/276 322/79/277 319/74/280
f 325/80/278 323/77/275 321/76/274
f 325/80/278 321/76/274 318/75/281
f 326/67/282 331/76/283 333/77/284
f 326/67/282 333/77/284 334/78/285
f 332/79/286 333/77/284 335/80/287
f 332/79/286 335/80/287 329/73/288
f 334/78/285 333/77/284 332/79/286
f 334/78/285 332/79/286 328/74/289
f 335/80/287 333/77/284 330/76/290
f 335/80/287 330/76/290 327/75/290
f 336/67/291 340/76/292 342/77/293
f 336/67/291 342/77/293 343/78/294
f 341/79/295 342/77/293 344/80/296
f 341/79/295 344/80/296 339/73/297
f 343/78/294 342/77/293 341/79/295
f 343/78/294 341/79/295 338/74/298
f 344/80/296 342/77/293 340/76/292
f 344/80/296 340/76/292 337/75/299
f 345/67/300 349/76/301 351/77/302
f 345/67/300 351/77/302 352/78/303
f 350/79/304 351/77/302 353/80/305
f 350/79/304 353/80/305 348/73/306
f 352/78/303 351/77/302 350/79/304
f 352/78/303 350/79/304 347/74/307
f 353/80/305 351/77/302 349/76/301
f 353/80/305 349/76/301 346/75/308
usemtl branch-04-1
f 355/81/309 359/82/310 363/83/311
f 355/81/309 363/83/311 364/84/312
f 361/85/313 360/86/314 356/87/314
f 361/85/313 356/87/314 358/82/315
f 362/88/316 363/83/311 359/82/310
f 362/88/316 359/82/310 357/87/316
f 365/89/317 361/85/313 358/82/315
f 365/89/317 358/82/315 354/81/318
f 366/81/319 370/82/320 375/83/321
f 366/81/319 375/83/321 376/84/319
f 373/85/322 372/86/323 369/87/323
f 373/85/322 369/87/323 371/82/324
f 374/88/325 375/83/321 370/82/320
f 374/88/325 370/82/320 368/87/325
f 377/89/326 373/85/322 371/82/324
f 377/89/326 371/82/324 367/81/326
f 379/81/327 383/82/328 387/83/329
f 379/81/327 387/83/329 388/84/327
f 385/85/330 384/86/331 380/87/331
f 385/85/330 380/87/331 382/82/332
f 386/88/333 387/83/329 383/82/328
f 386/88/333 383/82/328 381/87/334
f 389/89/335 385/85/330 382/82/332
f 389/89/335 382/82/332 378/81/336
f 390/81/337 394/82/338 399/83/339
f 390/81/337 399/83/339 400/84/337
f 397/85/340 396/86/341 393/87/342
f 397/85/340 393/87/342 395/82/343
f 398/88/344 399/83/339 394/82/338
f 398/88/344 394/82/338 392/87/344
f 401/89/345 397/85/340 395/82/343
f 401/89/345 395/82/343 391/81/346
f 402/81/347 406/82/347 412/83/348
f 402/81/347 412/83/348 414/84/349
f 410/85/350 409/86/351 405/87/352
f 410/85/350 405/87/352 408/82/353
f 411/88/354 413/83/354 407/82/354
f 411/88/354 407/82/354 404/87/355
f 415/89/356 410/85/350 408/82/353
f 415/89/356 408/82/353 403/81/356
f 416/81/357 419/82/358 423/83/359
f 416/81/357 423/83/359 424/84/360
f 421/85/361 420/86/362 418/87/363
f 421/85/361 418/87/363 419/82/358
f 422/88/364 423/83/359 419/82/358
f 422/88/364 419/82/358 417/87/365
f 425/89/366 421/85/361 419/82/358
f 425/89/366 419/82/358 416/81/357
usemtl branch-05-1
f 426/67/367 431/90/368 435/91/369
f 426/67/367 435/91/369 434/92/370
f 432/93/371 435/91/369 433/94/372
f 432/93/371 433/94/372 429/73/373
f 434/92/370 435/91/369 432/93/371
f 434/92/370 432/93/371 428/74/374
f 433/94/372 435/91/369 430/90/375
f 433/94/372 430/90/375 427/75/375
f 436/67/376 441/90/376 447/91/377
f 436/67/376 447/91/377 445/92/378
f 442/93/379 446/91/380 444/94/381
f 442/93/379 444/94/381 439/73/382
f 445/92/378 447/91/377 443/93/383
f 445/92/378 443/93/383 438/74/384
f 444/94/381 446/91/380 440/90/385
f 444/94/381 440/90/385 437/75/385
f 448/67/386 453/90/387 457/91/388
f 448/67/386 457/91/388 456/92/389
f 454/93/390 457/91/388 455/94/391
f 454/93/390 455/94/391 451/73/392
f 456/92/389 457/91/388 454/93/390
f 456/92/389 454/93/390 450/74/393
f 455/94/391 457/91/388 452/90/394
f 455/94/391 452/90/394 449/75/394
usemtl branch-03-1
f 461/73/395 462/95/396 465/96/397
f 461/73/395 465/96/397 467/97/398
f 464/98/399 465/96/397 466/99/400
f 464/98/399 466/99/400 458/67/401
f 466/99/400 465/96/397 462/95/396
f 466/99/400 462/95/396 460/74/402
f 467/97/398 465/96/397 463/98/403
f 467/97/398 463/98/403 459/75/404
f 471/73/405 472/95/406 475/96/407
f 471/73/405 475/96/407 477/97/408
f 473/98/409 475/96/407 476/99/410
f 473/98/409 476/99/410 468/67/409
f 476/99/410 475/96/407 472/95/406
f 476/99/410 472/95/406 470/74/411
f 477/97/408 475/96/407 474/98/412
f 477/97/408 474/98/412 469/75/412
f 481/73/413 482/95/414 485/96/415
f 481/73/413 485/96/415 487/97/416
f 484/98/417 485/96/415 486/99/418
f 484/98/417 486/99/418 478/67/419
f 486/99/418 485/96/415 482/95/414
f 486/99/418 482/95/414 480/74/420
f 487/97/416 485/96/415 483/98/421
f 487/97/416 483/98/421 479/75/422
