# Blender 5.1.0
# www.blender.org
mtllib Tree-03-2.mtl
o Tree-03-2
v 21.688517 7.576790 9.992865
v 21.688517 7.576790 9.992865
v 21.688517 7.576790 9.992865
v 21.684153 7.574743 10.000139
v 21.684153 7.574743 10.000139
v 21.684153 7.574743 10.000139
v 21.675676 7.572695 9.999711
v 21.675676 7.572695 9.999711
v 21.675676 7.572695 9.999711
v 21.679569 7.574743 9.991732
v 21.679569 7.574743 9.991732
v 21.679569 7.574743 9.991732
v 21.679569 7.574743 9.991732
v 21.914513 6.696690 9.876417
v 21.914513 6.696690 9.876417
v 21.906528 6.692584 9.889761
v 21.906528 6.692584 9.889761
v 21.890585 6.690529 9.889280
v 21.890585 6.690529 9.889280
v 21.882626 6.692580 9.875457
v 21.882626 6.692580 9.875457
v 21.890610 6.696686 9.862113
v 21.890610 6.696686 9.862113
v 21.917988 6.290429 9.726769
v 21.917988 6.290429 9.726769
v 21.917988 6.290429 9.726769
v 21.917990 6.281626 9.762200
v 21.917990 6.281626 9.762200
v 21.896931 6.282508 9.762420
v 21.896931 6.282508 9.762420
v 21.896931 6.291311 9.726990
v 21.896931 6.291311 9.726990
v 21.896931 6.291311 9.726990
v 21.896931 6.291311 9.726990
v 21.878567 5.906801 9.654218
v 21.878567 5.906801 9.654218
v 21.891579 5.904064 9.676973
v 21.891579 5.904064 9.676973
v 21.878471 5.897888 9.698988
v 21.878471 5.897888 9.698988
v 21.839340 5.897185 9.675491
v 21.839340 5.897185 9.675491
v 21.839340 5.897185 9.675491
v 21.839340 5.897185 9.675491
v 21.852448 5.903362 9.653478
v 21.852448 5.903362 9.653478
v 22.083023 5.411334 9.536698
v 22.083023 5.411334 9.536698
v 22.098948 5.413297 9.567544
v 22.098948 5.413297 9.567544
v 22.081659 5.405135 9.596585
v 22.081659 5.405135 9.596585
v 22.048445 5.395010 9.594780
v 22.048445 5.395010 9.594780
v 22.052032 5.393047 9.552232
v 22.052032 5.393047 9.552232
v 22.052032 5.393047 9.552232
v 22.501699 3.755747 9.603489
v 22.501699 3.755747 9.603489
v 22.465895 3.750127 9.658416
v 22.465895 3.750127 9.658416
v 22.403353 3.729938 9.655003
v 22.403353 3.729938 9.655003
v 22.393681 3.715370 9.565956
v 22.393681 3.715370 9.565956
v 22.412422 3.720991 9.541736
v 22.412422 3.720991 9.541736
v 22.412422 3.720991 9.541736
v 22.688810 3.242224 9.634583
v 22.688810 3.242224 9.634583
v 22.720760 3.254267 9.701668
v 22.720760 3.254267 9.701668
v 22.720760 3.254267 9.701668
v 22.720760 3.254267 9.701668
v 22.607885 3.226029 9.760495
v 22.607885 3.226029 9.760495
v 22.575935 3.213987 9.693410
v 22.575935 3.213987 9.693410
v 22.616396 3.222085 9.630453
v 22.616396 3.222085 9.630453
v 22.879189 2.004965 9.511165
v 22.879189 2.004965 9.511165
v 22.922215 2.006806 9.596403
v 22.922215 2.006806 9.596403
v 22.870337 1.999470 9.676248
v 22.870337 1.999470 9.676248
v 22.775431 1.990292 9.670853
v 22.775431 1.990292 9.670853
v 22.732399 1.988451 9.585614
v 22.732399 1.988451 9.585614
v 22.732399 1.988451 9.585614
v 22.732399 1.988451 9.585614
v 22.914177 1.412028 9.522677
v 22.914177 1.412028 9.522677
v 22.936501 1.401334 9.647821
v 22.936501 1.401334 9.647821
v 22.936501 1.401334 9.647821
v 22.936501 1.401334 9.647821
v 22.802837 1.393017 9.694354
v 22.802837 1.393017 9.694354
v 22.756256 1.394205 9.602777
v 22.756256 1.394205 9.602777
v 22.811926 1.403711 9.516939
v 22.811926 1.403711 9.516939
v 23.081736 0.000000 9.316835
v 23.081736 0.000000 9.316835
v 23.073587 0.000000 9.506683
v 23.073587 0.000000 9.506683
v 22.963530 0.000000 9.500195
v 22.963530 0.000000 9.500195
v 22.963530 0.000000 9.500195
v 22.963530 0.000000 9.500195
v 22.912573 0.000000 9.402027
v 22.912573 0.000000 9.402027
v 22.971676 0.000000 9.310348
v 22.971676 0.000000 9.310348
v 23.774540 7.436010 9.102565
v 23.774540 7.436010 9.102565
v 23.774540 7.436010 9.102565
v 23.768629 7.436655 9.090543
v 23.768629 7.436655 9.090543
v 23.768629 7.436655 9.090543
v 23.768629 7.436655 9.090543
v 23.778528 7.435780 9.086568
v 23.778528 7.435780 9.086568
v 23.778528 7.435780 9.086568
v 23.783159 7.434816 9.097785
v 23.783159 7.434816 9.097785
v 23.783159 7.434816 9.097785
v 23.783159 7.434816 9.097785
v 23.718964 6.661948 9.202585
v 23.718964 6.661948 9.202585
v 23.708590 6.660418 9.186424
v 23.708590 6.660418 9.186424
v 23.718578 6.650120 9.170640
v 23.718578 6.650120 9.170640
v 23.718578 6.650120 9.170640
v 23.733393 6.652846 9.182204
v 23.733393 6.652846 9.182204
v 23.733507 6.656370 9.191723
v 23.733507 6.656370 9.191723
v 23.654613 6.226233 9.502414
v 23.654613 6.226233 9.502414
v 23.654613 6.226233 9.502414
v 23.634857 6.222550 9.491899
v 23.634857 6.222550 9.491899
v 23.634857 6.222550 9.491899
v 23.654156 6.211603 9.459476
v 23.654156 6.211603 9.459476
v 23.654156 6.211603 9.459476
v 23.654156 6.211603 9.459476
v 23.673912 6.215286 9.469993
v 23.673912 6.215286 9.469993
v 23.673912 6.215286 9.469993
v 23.662256 6.222602 9.495343
v 23.662256 6.222602 9.495343
v 23.704702 5.866375 9.528885
v 23.704702 5.866375 9.528885
v 23.676891 5.867933 9.499176
v 23.676891 5.867933 9.499176
v 23.676891 5.867933 9.499176
v 23.676891 5.867933 9.499176
v 23.700733 5.867186 9.475784
v 23.700733 5.867186 9.475784
v 23.724709 5.865986 9.489512
v 23.724709 5.865986 9.489512
v 23.721031 5.865786 9.519363
v 23.537718 5.124969 9.477128
v 23.537718 5.124969 9.477128
v 23.537718 5.124969 9.477128
v 23.500578 5.137449 9.443566
v 23.500578 5.137449 9.443566
v 23.500893 5.140730 9.427478
v 23.500893 5.140730 9.427478
v 23.539255 5.140970 9.398675
v 23.539255 5.140970 9.398675
v 23.581240 5.130245 9.435409
v 23.581240 5.130245 9.435409
v 23.306055 4.135064 9.136289
v 23.306055 4.135064 9.136289
v 23.306055 4.135064 9.136289
v 23.306055 4.135064 9.136289
v 23.306055 4.135064 9.136289
v 23.306055 4.135064 9.136289
v 23.307140 4.146498 9.079030
v 23.307140 4.146498 9.079030
v 23.307140 4.146498 9.079030
v 23.307140 4.146498 9.079030
v 23.307140 4.146498 9.079030
v 23.307140 4.146498 9.079030
v 23.406759 4.125578 9.136304
v 23.406759 4.125578 9.136304
v 23.365366 3.539987 9.112638
v 23.365366 3.539987 9.112638
v 23.289803 3.540949 9.094336
v 23.289803 3.540949 9.094336
v 23.290123 3.539067 9.025020
v 23.290123 3.539067 9.025020
v 23.324648 3.536223 9.010928
v 23.324648 3.536223 9.010928
v 23.410164 3.535261 9.025679
v 23.410164 3.535261 9.025679
v 23.409843 3.537143 9.094994
v 23.409843 3.537143 9.094994
v 23.228306 2.631470 9.225197
v 23.228306 2.631470 9.225197
v 23.228224 2.620925 9.140336
v 23.228224 2.620925 9.140336
v 23.228224 2.620925 9.140336
v 23.375822 2.608650 9.141721
v 23.375822 2.608650 9.141721
v 23.375902 2.619196 9.226581
v 23.375902 2.619196 9.226581
v 23.375902 2.619196 9.226581
v 23.375902 2.619196 9.226581
v 23.165220 1.457383 9.418959
v 23.165220 1.457383 9.418959
v 23.077143 1.459056 9.367414
v 23.077143 1.459056 9.367414
v 23.077145 1.447621 9.265991
v 23.077145 1.447621 9.265991
v 23.140593 1.434513 9.242000
v 23.253300 1.432840 9.267658
v 23.253300 1.432840 9.267658
v 23.253298 1.444274 9.369081
v 23.253298 1.444274 9.369081
v 23.088682 0.000000 9.618761
v 23.088682 0.000000 9.618761
v 22.993071 0.000000 9.563244
v 22.993071 0.000000 9.563244
v 23.132689 0.000000 9.415004
v 23.132689 0.000000 9.415004
v 23.132689 0.000000 9.415004
v 23.132689 0.000000 9.415004
v 23.183361 0.000000 9.424097
v 23.183361 0.000000 9.424097
v 23.222631 0.000000 9.562276
v 23.222631 0.000000 9.562276
v 22.564051 7.666218 8.520572
v 22.564051 7.666218 8.520572
v 22.564051 7.666218 8.520572
v 22.564051 7.666218 8.520572
v 22.554371 7.664506 8.531997
v 22.554371 7.664506 8.531997
v 22.554371 7.664506 8.531997
v 22.554371 7.664506 8.531997
v 22.549641 7.662796 8.517790
v 22.549641 7.662796 8.517790
v 22.549641 7.662796 8.517790
v 22.549641 7.662796 8.517790
v 22.557669 7.664506 8.514910
v 22.557669 7.664506 8.514910
v 22.557669 7.664506 8.514910
v 22.557669 7.664506 8.514910
v 22.850876 6.450559 8.582564
v 22.850876 6.450559 8.582564
v 22.848583 6.453045 8.589742
v 22.848583 6.453045 8.589742
v 22.827095 6.446809 8.596416
v 22.827095 6.446809 8.596416
v 22.819517 6.442997 8.589495
v 22.819517 6.442997 8.589495
v 22.821323 6.439332 8.564842
v 22.821323 6.439332 8.564842
v 22.839361 6.443702 8.558262
v 22.839361 6.443702 8.558262
v 23.229250 5.574773 8.902315
v 23.229250 5.574773 8.902315
v 23.221395 5.580677 8.933666
v 23.221395 5.580677 8.933666
v 23.190687 5.575539 8.944155
v 23.190687 5.575539 8.944155
v 23.167833 5.564498 8.923293
v 23.167833 5.564498 8.923293
v 23.175688 5.558595 8.891942
v 23.175688 5.558595 8.891942
v 23.206396 5.563733 8.881454
v 23.206396 5.563733 8.881454
v 23.407839 4.137012 9.079046
v 23.407839 4.137012 9.079046
v 23.407839 4.137012 9.079046
v 23.407839 4.137012 9.079046
v 23.407839 4.137012 9.079046
v 23.399311 4.146011 9.146608
v 23.399311 4.146011 9.146608
v 23.355864 4.124604 9.164925
v 23.355864 4.124604 9.164925
v 23.355864 4.124604 9.164925
v 23.355864 4.124604 9.164925
v 23.355864 4.124604 9.164925
v 23.358032 4.147472 9.050409
v 23.358032 4.147472 9.050409
v 23.358032 4.147472 9.050409
v 23.358032 4.147472 9.050409
v 23.358032 4.147472 9.050409
v 23.358032 4.147472 9.050409
v 20.155611 2.255211 9.468087
v 21.288359 1.131253 11.136000
v 22.129818 3.245275 8.794498
v 23.262566 2.121317 10.462410
v 20.654051 1.879115 10.393587
v 22.671875 2.761023 9.679315
v 21.915867 2.476214 10.279013
v 22.212561 1.650320 10.858120
v 21.114010 2.792248 9.179094
v 24.837423 2.947363 7.132429
v 23.080853 1.628855 7.356459
v 24.262392 4.025959 8.971726
v 22.505821 2.707452 9.195756
v 23.894339 2.446615 7.125396
v 23.344845 3.430945 9.031153
v 23.277243 3.049427 8.150304
v 22.774040 2.179837 8.193560
v 24.520094 3.517708 8.001036
v 26.386604 3.962556 9.978122
v 25.007139 2.165020 8.667241
v 24.118629 5.633063 10.074085
v 22.739164 3.835527 8.763206
v 25.811577 3.219368 9.119303
v 23.472977 4.794498 9.319213
v 24.381887 4.110916 8.844904
v 23.956270 2.992152 8.638890
v 25.296614 4.819291 9.950350
v 24.513485 8.073430 10.728986
v 24.340717 8.356861 8.610891
v 23.839035 6.049148 10.513122
v 23.666269 6.332578 8.395026
v 24.248230 8.271599 9.746328
v 23.670752 6.218008 9.476637
v 23.680073 7.150185 9.411640
v 23.963438 7.416385 8.515816
v 24.123611 7.097997 10.630260
v 21.523523 4.496299 6.419326
v 22.507572 2.493555 7.694858
v 22.849306 6.309737 8.243835
v 23.833355 4.306993 9.519366
v 21.733912 3.534851 7.207592
v 21.733912 3.534851 7.207592
v 23.219492 5.315084 8.956911
v 22.417782 4.391351 8.576050
v 23.056131 3.350709 8.617494
v 22.093981 5.384985 7.374578
v 25.344669 4.968766 11.094866
v 23.241999 6.803789 9.423994
v 24.478231 2.762145 9.761808
v 22.375561 4.597169 8.090937
v 24.115833 5.797792 10.543907
v 23.334686 3.650019 9.045607
v 23.190063 4.646863 9.770967
v 22.758972 5.743599 8.867501
v 24.845490 3.869952 10.516281
v 24.043619 6.890258 10.266330
v 21.869381 8.220308 9.235973
v 23.049274 5.089640 10.040224
v 20.875034 6.419691 9.009868
v 22.911081 7.556348 10.031725
v 21.929293 5.762681 9.646141
v 22.007559 6.655519 9.994761
v 21.366434 7.376800 9.208425
v 23.522896 6.015552 10.236022
v 20.051914 4.484383 8.389231
v 21.644484 6.192165 8.459609
v 21.627970 2.960547 9.702194
v 23.220539 4.668330 9.772572
v 20.907650 5.212487 8.193013
v 20.907650 5.212487 8.193013
v 22.460169 3.767205 9.633094
v 22.094616 4.420957 8.794281
v 22.423244 5.443235 9.010655
v 20.858580 3.708532 8.962080
v 23.605104 5.037418 12.683092
v 20.998650 6.586918 11.056496
v 23.817204 2.962143 10.366313
v 21.210747 4.511644 8.739717
v 22.180786 5.607831 12.051132
v 22.444431 3.653228 9.625839
v 21.878084 4.404629 10.615265
v 21.041006 5.550564 10.001389
v 23.650295 3.964159 11.588290
v 24.017509 6.370916 11.063067
v 22.518026 6.782142 7.667816
v 24.198210 4.216545 10.722329
v 22.698727 4.627771 7.327078
v 22.996098 6.533431 9.582870
v 23.317074 4.404989 9.103838
v 22.692659 5.269983 9.126707
v 22.507036 5.749804 7.547635
v 24.008236 5.300910 10.937565
v 22.647375 6.165020 11.059080
v 21.973118 6.165189 8.087596
v 22.740078 4.447926 11.037947
v 22.065821 4.448095 8.066463
v 22.056444 6.161645 9.709028
v 22.284311 4.446446 9.596762
v 21.819817 5.138227 9.430119
v 21.932423 5.349491 8.096783
v 22.607044 5.319403 11.068184
v 25.724064 6.964057 8.718592
v 22.326788 5.666103 13.013688
v 24.836176 3.510835 6.972759
v 21.438900 2.212882 11.267856
v 24.477827 6.153200 10.990719
v 23.322962 2.781273 9.200993
v 23.887150 3.804556 10.598646
v 22.020525 3.967043 12.257998
v 25.404039 5.203963 7.933572
v 21.400690 3.309152 11.562823
v 22.805986 1.923092 11.450234
v 21.864849 3.927605 9.742643
v 23.270145 2.541545 9.630054
v 22.186577 2.764793 11.583002
v 22.613113 3.293983 9.720307
v 22.708235 3.077545 10.548980
v 23.063223 2.252168 10.609755
v 21.666555 3.649526 10.690988
v 24.169067 3.388514 12.106099
v 24.842583 5.222961 10.909525
v 23.124506 2.187240 9.676497
v 23.798019 4.021687 8.479921
v 24.255400 4.378091 11.587463
v 24.255400 4.378091 11.587463
v 23.351786 3.147585 9.107467
v 23.516361 3.955375 10.056397
v 24.273945 4.690037 9.772442
v 23.581161 2.835218 10.926937
v 25.417843 4.669863 7.131529
v 24.858261 2.944031 7.626392
v 23.883623 5.749067 9.160381
v 23.324039 4.023236 9.655244
v 24.891205 3.767495 7.201500
v 24.891205 3.767495 7.201500
v 23.492020 4.867872 9.327654
v 23.492020 4.867872 9.327654
v 23.890900 4.538359 8.146505
v 23.890900 4.538359 8.146505
v 24.659559 5.159760 7.982589
v 24.058586 3.462064 8.528769
v 23.767565 6.531159 6.967939
v 25.118061 4.793978 6.729056
v 22.699793 5.386322 9.256788
v 24.050287 3.649141 9.017905
v 24.297554 5.478461 6.679594
v 24.297554 5.478461 6.679594
v 23.309664 4.434007 9.060876
v 23.426790 4.880703 7.860648
v 23.230116 5.978874 7.945808
v 24.551586 4.211113 7.765220
v 25.850388 3.176884 8.535015
v 24.387005 1.737102 7.784469
v 24.118134 4.396266 9.573337
v 22.654751 2.956485 8.822791
v 25.047493 2.536606 7.932729
v 23.353863 3.712032 9.095176
v 24.178658 3.450059 8.419825
v 25.066250 3.763192 8.939174
v 23.557755 2.355939 8.214185
v 20.150396 5.183750 9.443119
v 23.581305 6.834889 7.695925
v 21.635233 2.844389 10.148092
v 25.066141 4.495529 8.400898
v 21.859678 5.889943 8.108295
v 23.348753 3.616366 9.065400
v 22.305250 4.289454 8.331304
v 20.779669 4.080521 9.636224
v 24.248280 5.669743 7.904551
v 24.986498 3.794703 6.647636
v 23.012146 2.036066 7.097758
v 24.428799 4.991550 8.877529
v 22.454447 3.232912 9.327651
v 23.797035 2.982042 6.780883
v 23.349613 4.141946 9.061166
v 23.542282 3.908274 7.913143
v 24.694555 4.370201 7.615581
v 22.704790 2.643491 8.122839
v 24.948421 6.452626 7.344591
v 24.495731 8.066568 8.808803
v 23.789257 4.921980 8.673384
v 23.336569 6.535923 10.137596
v 24.953705 7.259281 8.261926
v 24.953705 7.259281 8.261926
v 23.667589 5.729212 9.489653
v 24.537710 6.214578 8.995005
v 24.503777 5.749122 7.982565
v 24.022703 7.322965 9.482203
v 23.138138 7.281287 6.385846
v 24.010685 8.436100 8.327195
v 22.477165 5.420960 7.789540
v 23.349712 6.575774 9.730889
v 23.825294 7.797097 7.381524
v 23.027157 5.970790 8.772012
v 23.556347 6.568979 7.974182
v 22.909369 6.415790 7.003509
v 23.766289 7.521632 8.981013
v 22.452879 7.913445 7.071890
v 22.766443 8.684434 8.489072
v 22.501053 6.465386 7.849018
v 22.814617 7.236374 9.266200
v 22.784159 8.317876 7.795382
v 22.736856 6.859640 8.564705
v 22.916393 7.430135 8.085791
v 22.524687 7.261531 7.410663
v 22.840630 7.994890 8.847789
v 20.453503 6.909990 8.291903
v 21.923605 7.986937 9.038447
v 21.050112 5.360525 9.352276
v 22.520214 6.437471 10.098821
v 21.354891 7.431256 8.536375
v 21.860781 5.891482 9.667466
v 21.659433 6.422827 8.946332
v 20.757071 6.198374 8.720675
v 22.243464 7.234740 9.493680
v 20.683311 5.785334 7.145231
v 21.329065 7.651236 8.602598
v 21.697538 4.048385 8.919688
v 22.343292 5.914287 10.377055
v 21.316717 6.804408 7.764406
v 21.316717 6.804408 7.764406
v 22.161058 5.020765 9.599195
v 22.161058 5.020765 9.599195
v 22.065474 5.684602 8.512314
v 22.065474 5.684602 8.512314
v 21.226856 5.013124 7.893066
v 21.900925 6.834109 9.395395
v 21.273268 5.568965 8.572803
v 21.624048 3.687019 6.766793
v 22.647858 3.942619 10.534517
v 22.998640 2.060673 8.728507
v 21.178488 4.437511 7.687411
v 21.178488 4.437511 7.687411
v 22.701113 2.915002 9.639029
v 21.696371 3.579540 9.010617
v 21.803835 4.800138 9.477008
v 22.188347 2.875104 7.722449
v 24.898973 3.118639 11.564610
v 25.299173 1.508033 10.081038
v 23.065445 4.191195 9.905610
v 23.465647 2.580590 8.422037
v 25.294073 2.397804 10.671903
v 23.353863 3.423702 9.095176
v 24.372478 3.251644 9.782494
v 24.131762 3.642296 10.789154
v 24.485628 2.060480 9.261827
v 26.142052 4.324560 10.015283
v 24.943750 3.748601 7.648349
v 24.158009 5.574938 10.715476
v 22.959709 4.998979 8.348543
v 25.583296 4.181786 8.671785
v 23.576834 5.352505 9.459020
v 24.632484 5.068207 9.204212
v 25.276360 4.936001 10.304768
v 24.027122 4.393626 7.955450
v 20.038862 6.564612 9.552870
v 21.167950 7.129977 8.371449
v 21.297218 5.661701 10.323399
v 22.426306 6.227067 9.141977
v 20.600615 6.730048 8.818645
v 21.860781 5.891482 9.667466
v 21.180462 6.063152 9.270505
v 20.591122 6.117760 9.866825
v 21.752588 6.658754 8.704685
v 24.326052 4.556631 12.638651
v 25.383854 2.818143 10.627084
v 22.924212 6.173094 10.504459
v 23.982014 4.434608 8.492892
v 25.127846 3.795894 11.546323
v 23.576834 5.352505 9.459020
v 24.438177 4.990035 10.500335
v 23.769659 5.333031 11.675066
v 24.792713 3.637645 9.607978
v 23.724081 6.652902 9.174658
v 23.724081 6.652902 9.174658
v 23.398056 8.074821 8.346895
v 23.398056 8.074821 8.346895
v 23.682526 7.361271 8.628556
v 23.682526 7.361271 8.628556
v 22.879095 7.777946 8.201872
v 23.016529 7.048355 8.391521
v 23.496042 8.343329 8.744126
v 23.908314 7.696410 9.201474
v 23.815624 6.817642 9.395863
v 23.320004 6.363444 8.960245
v 23.767851 7.414388 9.098672
v 23.767851 7.414388 9.098672
v 24.265709 8.275620 8.927437
v 24.265709 8.275620 8.927437
v 23.959684 7.889929 8.933064
v 23.959684 7.889929 8.933064
v 24.135962 8.361533 9.263385
v 23.811600 8.044383 9.346183
v 24.510984 8.128652 8.856891
v 24.276884 7.648936 8.794048
v 23.907513 7.330077 9.035648
v 23.606239 7.517162 9.362204
v 21.906429 6.555139 9.840869
v 21.906429 6.555139 9.840869
v 21.306519 7.905160 9.515049
v 21.306519 7.905160 9.515049
v 21.613462 7.234087 9.516209
v 21.613462 7.234087 9.516209
v 20.843863 7.665557 9.705924
v 20.995220 6.991602 9.728713
v 21.623104 8.113192 9.741584
v 22.124437 7.484693 9.791809
v 22.109285 6.683508 9.946082
v 21.483286 6.323905 9.917435
v 21.685995 7.573427 9.992077
v 21.685995 7.573427 9.992077
v 21.750381 8.366462 9.999194
v 21.750381 8.366462 9.999194
v 21.661259 7.993868 9.936967
v 21.661259 7.993868 9.936967
v 21.633881 8.335824 10.265017
v 21.509838 7.994197 10.270980
v 21.973570 8.354875 9.936374
v 21.966259 7.949993 9.811818
v 21.812962 7.569643 9.938507
v 21.540073 7.554339 10.202520
v 22.565678 7.616835 8.517610
v 22.565678 7.616835 8.517610
v 22.402632 8.536562 8.594235
v 22.402632 8.536562 8.594235
v 22.532848 8.114389 8.476712
v 22.532848 8.114389 8.476712
v 22.080879 8.440547 8.520589
v 22.119123 8.038511 8.378385
v 22.526854 8.545443 8.837674
v 22.753246 8.102291 8.800348
v 22.656006 7.628880 8.652007
v 22.297735 7.544612 8.397278
v 22.962994 6.100250 8.689469
v 22.962994 6.100250 8.689469
v 22.469179 7.998272 9.512482
v 22.469179 7.998272 9.512482
v 22.489309 7.054796 9.081409
v 22.489309 7.054796 9.081409
v 22.709402 7.661410 10.173845
v 22.750534 6.713882 9.962620
v 22.806458 8.290749 9.081450
v 22.907223 7.407129 8.380290
v 23.123005 6.280728 8.410872
v 23.045036 5.775153 9.288442
v 23.476028 4.984890 9.367144
v 23.476028 4.984890 9.367144
v 23.434233 6.395060 10.180460
v 23.434233 6.395060 10.180460
v 23.237009 5.756562 9.752596
v 23.237009 5.756562 9.752596
v 23.237009 5.756562 9.752596
v 23.570011 5.958527 10.717656
v 23.386841 5.271591 10.474609
v 23.842234 6.606396 9.846721
v 23.744184 6.041169 9.198086
v 23.744184 6.041169 9.198086
v 23.681440 5.130078 9.149509
v 23.462753 4.609617 9.849170
v 22.118832 5.229194 9.605656
v 22.118832 5.229194 9.605656
v 22.567957 6.728755 11.296820
v 22.567957 6.728755 11.296820
v 22.235752 5.859134 10.667327
v 22.235752 5.859134 10.667327
v 23.431047 6.461649 11.128642
v 23.348383 5.576243 10.553048
v 22.181168 7.251903 10.962551
v 21.574757 6.515388 10.190285
v 21.848198 5.526342 9.441723
v 22.852282 4.891495 9.575150
v 22.262573 4.567950 9.585453
v 22.262573 4.567950 9.585453
v 21.391211 6.232424 11.116810
v 21.391211 6.232424 11.116810
v 21.544258 5.450741 10.243997
v 21.544258 5.450741 10.243997
v 21.514954 5.625908 11.667322
v 21.633528 4.758979 11.008077
v 21.937223 6.616517 10.993948
v 22.267370 5.975778 9.929317
v 22.541903 4.817524 9.478338
v 22.202677 4.021724 10.019290
v 22.284515 4.340810 9.665785
v 23.163660 3.494459 11.828879
v 23.163660 3.494459 11.828879
v 22.706987 4.066093 10.862197
v 22.372889 3.054558 11.860053
v 21.736469 3.479411 11.014556
v 23.824303 3.455404 11.594316
v 23.653486 4.123933 10.461221
v 22.694464 4.353818 9.539332
v 21.528479 4.031801 9.752810
v 22.749128 8.140108 9.636168
v 23.897663 8.523027 8.860419
v 23.208761 6.776238 9.643454
v 24.357294 7.159156 8.867704
v 23.177286 8.292166 9.065365
v 23.177286 8.292166 9.065365
v 23.748430 6.960375 9.151545
v 24.081339 7.852512 8.801388
v 22.941286 7.442331 9.576235
v 23.373791 7.611846 8.970056
v 22.534994 5.588866 10.580202
v 23.109959 6.544919 9.441506
v 23.275854 4.520684 10.057437
v 23.850819 5.476737 8.918741
v 22.569706 5.987702 9.860980
v 22.569706 5.987702 9.860980
v 23.464754 4.989108 9.389053
v 23.464754 4.989108 9.389053
v 23.392590 6.008630 9.133945
v 22.831070 5.031038 10.261346
v 22.844212 5.452289 9.507825
v 22.844212 5.452289 9.507825
v 21.470545 5.987592 9.001921
v 22.347816 7.056196 8.601004
v 22.726004 5.044677 9.235821
v 23.603275 6.113281 8.834904
v 21.863394 6.417316 8.525014
v 21.863394 6.417316 8.525014
v 23.167988 5.560978 8.899302
v 23.167988 5.560978 8.899302
v 22.946838 6.573266 8.624557
v 22.094360 5.485489 9.028621
v 22.488409 5.936108 8.512230
v 22.488409 5.936108 8.512230
v 21.453817 7.749668 8.575986
v 22.360405 8.479649 8.436849
v 22.197241 6.851514 8.707819
v 23.103828 7.581496 8.568682
v 21.879833 8.075462 8.318853
v 21.879833 8.075462 8.318853
v 22.663059 7.218795 8.549581
v 22.717487 8.036902 8.440651
v 21.825619 7.288948 8.581404
v 22.260450 7.634888 8.300537
v 20.702593 6.249380 10.963562
v 21.035688 7.188546 9.199730
v 21.965324 5.065184 10.571491
v 22.298420 6.004349 8.807659
v 20.634384 6.524981 9.980159
v 20.634384 6.524981 9.980159
v 22.034807 5.472769 9.595284
v 21.575216 6.559756 8.966815
v 21.266003 5.596140 10.722137
v 21.167850 5.883012 9.695054
v 20.684860 3.391735 9.318103
v 21.153551 1.937351 10.351315
v 22.470480 3.762935 9.030615
v 22.939171 2.308551 10.063828
v 20.900267 2.866323 10.062042
v 20.900267 2.866323 10.062042
v 22.709112 3.087136 9.678406
v 22.015226 2.171669 10.290272
v 21.581959 3.634340 9.252656
v 21.787527 3.095716 10.044769
v 19.795521 4.427763 10.123623
v 21.338562 5.640406 8.160741
v 21.807934 2.976285 10.808895
v 23.350973 4.188927 8.846013
v 20.411076 4.740026 8.915731
v 20.411076 4.740026 8.915731
v 22.551218 3.482835 9.671169
v 22.273558 4.852320 8.408882
v 20.769836 3.609417 10.383979
v 21.381596 3.930932 9.104551
v 20.568132 2.556416 9.384907
v 21.189606 3.517553 11.665367
v 22.102711 3.906794 8.397564
v 22.724182 4.867931 10.678024
v 20.608679 3.262102 10.447287
v 20.608679 3.262102 10.447287
v 22.308258 4.515568 9.565124
v 21.851404 4.248526 11.176933
v 21.259058 3.315505 8.876685
v 21.269329 4.051386 9.988608
v 26.089500 6.395365 10.540901
v 24.803745 8.063073 9.351438
v 24.417835 4.715168 9.992146
v 23.132080 6.382875 8.802682
v 23.663990 5.638620 9.484488
v 25.271652 7.336062 10.203694
v 25.271652 7.336062 10.203694
v 24.451571 6.523309 10.143358
v 25.144222 5.522149 10.338396
v 23.861824 7.193110 9.149864
v 25.007175 5.536376 6.880875
v 23.694290 7.285700 7.573313
v 24.117876 4.060273 8.923848
v 22.804991 5.809597 9.616286
v 23.528910 5.042530 9.371180
v 24.571688 6.553198 7.412727
v 24.571688 6.553198 7.412727
v 24.337103 5.851818 8.441960
v 24.611044 4.783571 8.031626
v 23.299776 6.535729 8.719967
v 22.055416 6.875867 11.477841
v 22.075615 7.977583 10.235512
v 21.985449 5.634577 10.375909
v 22.005646 6.736294 9.133580
v 21.913256 6.226061 9.717890
v 21.882507 7.456272 10.843156
v 21.748749 6.835166 10.377169
v 21.957649 6.215218 10.890378
v 21.978081 7.319361 9.650206
v 21.127201 6.740220 8.600079
v 22.048624 7.913730 8.301078
v 22.338596 5.841569 8.806214
v 23.260021 7.015079 8.507214
v 22.826345 6.449315 8.572801
v 21.597281 7.309191 8.281446
v 22.127987 6.820030 8.300574
v 21.773634 6.246997 8.656393
v 22.692684 7.422288 8.357073
v 24.515720 2.149342 11.300533
v 25.114330 1.238881 9.234104
v 22.956642 3.530453 10.240383
v 23.555252 2.619992 8.173953
v 23.359337 3.126444 9.129427
v 25.010824 1.857127 10.208491
v 24.355162 2.639877 9.777185
v 23.742420 2.947137 10.725016
v 24.343988 2.033876 8.660678
v 22.400843 6.019475 12.349001
v 21.769218 4.241662 11.516796
v 23.890127 6.649351 9.873087
v 23.258505 4.871539 9.040882
v 23.663990 5.638620 9.484488
v 22.317793 4.958511 12.039207
v 22.317793 4.958511 12.039207
v 23.176054 5.246756 10.972292
v 23.277962 6.309678 11.063337
v 22.643293 4.530704 10.235925
vn 0.4029 0.2243 -0.8873
vn 0.3474 0.2726 -0.8972
vn 0.3466 0.2733 -0.8973
vn 0.4029 0.2243 -0.8874
vn 0.8301 0.1418 0.5394
vn 0.9334 0.0551 0.3547
vn 0.9340 0.0545 0.3532
vn 0.8301 0.1418 0.5392
vn -0.0154 -0.1279 0.9917
vn -0.0064 -0.2133 0.9770
vn -0.0064 -0.2134 0.9769
vn -0.9604 -0.2446 0.1332
vn -0.9775 -0.1589 0.1388
vn -0.9774 -0.1596 0.1388
vn -0.8349 -0.1214 -0.5369
vn -0.8597 0.0124 -0.5106
vn -0.8595 0.0103 -0.5111
vn 0.1470 0.2566 -0.9553
vn 0.1463 0.2562 -0.9555
vn 0.9822 -0.0731 0.1731
vn 0.9822 -0.0728 0.1730
vn -0.1834 -0.2192 0.9583
vn -0.1818 -0.2200 0.9584
vn -0.9963 0.0368 0.0778
vn -0.9954 0.0321 0.0903
vn -0.8681 0.1447 -0.4749
vn -0.1432 0.1414 -0.9795
vn -0.1434 0.1413 -0.9795
vn 0.8683 0.0046 -0.4960
vn 0.8526 0.2273 -0.4706
vn 0.8531 0.2240 -0.4712
vn 0.9223 0.0572 0.3822
vn 0.9230 0.0557 0.3806
vn -0.3190 -0.2109 0.9240
vn -0.3190 -0.2110 0.9240
vn -0.8663 -0.0093 -0.4994
vn -0.8578 -0.0109 -0.5138
vn -0.3396 0.0169 -0.9404
vn -0.3566 -0.0045 -0.9342
vn 0.7349 0.2871 -0.6144
vn 0.7344 0.2861 -0.6155
vn 0.8102 0.2148 0.5454
vn 0.8102 0.2147 0.5454
vn -0.1734 -0.1334 0.9758
vn -0.1726 -0.1322 0.9761
vn -0.9249 -0.3754 -0.0607
vn -0.9599 -0.2799 0.0129
vn -0.9549 -0.2970 -0.0000
vn -0.8130 -0.2102 -0.5430
vn -0.7497 -0.2776 -0.6008
vn 0.6535 0.1662 -0.7385
vn 0.6527 0.1650 -0.7394
vn 0.7808 0.3148 0.5397
vn 0.7792 0.3196 0.5392
vn 0.0864 0.1374 0.9867
vn 0.0891 0.1395 0.9862
vn -0.9521 -0.2449 0.1830
vn -0.9524 -0.2445 0.1819
vn -0.7496 -0.2909 -0.5945
vn 0.0943 -0.1368 -0.9861
vn -0.1202 -0.0525 -0.9914
vn -0.1135 -0.0552 -0.9920
vn 0.7871 0.1938 -0.5856
vn 0.7853 0.1940 -0.5879
vn 0.7378 0.4250 0.5244
vn 0.2426 0.1163 0.9631
vn 0.2428 0.1145 0.9633
vn -0.9022 -0.2194 0.3713
vn -0.9020 -0.2186 0.3722
vn -0.7937 -0.2371 -0.5602
vn -0.7962 -0.2291 -0.5600
vn -0.2885 0.0235 -0.9572
vn -0.2892 0.0236 -0.9570
vn 0.9223 0.1011 -0.3730
vn 0.9219 0.1019 -0.3738
vn 0.8316 0.0880 0.5484
vn 0.8328 0.0772 0.5482
vn 0.8328 0.0773 0.5482
vn 0.2138 -0.0014 0.9769
vn 0.2135 -0.0014 0.9770
vn -0.8885 -0.0874 0.4506
vn -0.8885 -0.0875 0.4504
vn -0.8363 -0.0588 -0.5451
vn -0.1096 0.0871 -0.9901
vn -0.1137 0.0855 -0.9898
vn 0.9492 0.0991 -0.2987
vn 0.9497 0.0946 -0.2985
vn 0.8339 0.0662 0.5479
vn 0.1709 -0.0441 0.9843
vn 0.1706 -0.0475 0.9842
vn -0.8870 -0.0937 0.4521
vn -0.8870 -0.0937 0.4522
vn -0.8355 -0.0493 -0.5473
vn -0.8377 -0.0316 -0.5453
vn -0.8375 -0.0325 -0.5455
vn 0.0510 0.1505 -0.9873
vn 0.9390 0.1682 -0.3001
vn 0.8402 0.0276 0.5416
vn 0.1645 -0.1002 0.9813
vn -0.8778 -0.1636 0.4502
vn -0.8393 -0.0157 -0.5434
vn -0.8394 -0.0157 -0.5434
vn 0.5711 0.0635 0.8184
vn 0.6314 0.2095 0.7466
vn 0.6310 0.2083 0.7473
vn 0.5712 0.0635 0.8184
vn -0.8606 0.1265 0.4933
vn -0.7745 0.3047 0.5544
vn -0.7478 0.3472 0.5659
vn -0.8452 -0.0006 -0.5344
vn -0.8651 -0.0965 -0.4923
vn -0.8623 -0.0799 -0.5001
vn -0.3770 -0.0701 -0.9235
vn 0.7596 -0.1218 -0.6389
vn 0.6609 -0.3288 -0.6747
vn 0.6601 -0.3301 -0.6748
vn 0.9980 -0.0623 0.0111
vn 0.9876 -0.0015 0.1567
vn 0.9876 -0.0013 0.1573
vn 0.6358 0.2570 0.7278
vn 0.6294 0.2428 0.7382
vn -0.6175 0.5116 0.5975
vn -0.8688 -0.1424 -0.4742
vn -0.8723 -0.1422 -0.4678
vn 0.5265 -0.5181 -0.6740
vn 0.9561 0.1132 0.2703
vn 0.9560 0.1105 0.2717
vn 0.5433 -0.0136 0.8394
vn 0.7680 -0.0221 0.6401
vn -0.6437 -0.0469 0.7638
vn -0.6653 0.0307 0.7459
vn -0.6652 0.0304 0.7460
vn -0.6437 -0.0469 0.7639
vn -0.6791 0.0475 -0.7325
vn -0.8688 -0.1424 -0.4743
vn -0.6718 0.0494 -0.7391
vn 0.4837 0.0227 -0.8749
vn 0.5447 -0.0160 -0.8385
vn 0.5441 -0.0157 -0.8389
vn 0.9173 -0.0272 0.3972
vn 0.8630 -0.2416 0.4437
vn -0.6453 -0.0154 0.7638
vn -0.6469 -0.0106 0.7625
vn -0.9722 0.2325 0.0284
vn -0.9777 0.2086 0.0234
vn -0.9777 0.2085 0.0234
vn -0.5698 0.2953 -0.7669
vn -0.5669 0.2989 -0.7677
vn 0.6030 0.0529 -0.7960
vn 0.6028 0.0662 -0.7951
vn 0.8613 -0.2395 0.4481
vn 0.4659 -0.3397 0.8170
vn 0.4550 -0.2064 0.8663
vn 0.4546 -0.2030 0.8673
vn -0.5994 -0.1316 0.7895
vn -0.5995 -0.1315 0.7895
vn -0.9826 0.1851 0.0183
vn -0.5065 0.3687 -0.7794
vn 0.5974 0.1712 -0.7834
vn 0.9727 -0.1329 0.1901
vn 0.9734 -0.1312 0.1880
vn 0.1032 0.0290 0.9942
vn 0.4049 0.0276 0.9140
vn -0.3555 -0.0725 0.9319
vn -0.2185 0.0331 0.9753
vn 0.1029 0.0290 0.9943
vn -0.9996 0.0284 -0.0090
vn -0.9988 0.0475 -0.0079
vn -0.9996 0.0284 -0.0089
vn -0.4441 0.0868 -0.8918
vn -0.1166 -0.0218 -0.9929
vn -0.4157 -0.0001 -0.9095
vn 0.3098 0.0647 -0.9486
vn 0.1878 -0.0360 -0.9816
vn -0.1164 -0.0218 -0.9930
vn 0.3096 0.0647 -0.9486
vn 0.9998 -0.0165 0.0079
vn 0.9998 -0.0165 0.0078
vn -0.1345 0.1523 0.9791
vn -0.1436 0.1527 0.9778
vn -0.9953 0.0964 -0.0110
vn 0.0655 -0.1188 -0.9908
vn 0.0792 -0.1199 -0.9896
vn 0.9975 -0.0696 0.0077
vn 0.9975 -0.0696 0.0081
vn 0.4980 0.0530 0.8655
vn 0.4659 0.0799 0.8812
vn 0.4666 0.0793 0.8809
vn -0.3562 0.1587 0.9208
vn -0.3555 0.1588 0.9211
vn -0.9910 0.1097 0.0767
vn -0.9909 0.1093 0.0789
vn -0.1339 -0.1006 -0.9859
vn -0.3945 -0.0801 -0.9154
vn 0.1504 -0.1106 -0.9824
vn 0.9941 -0.0782 -0.0747
vn 0.9942 -0.0783 -0.0742
vn 0.4347 0.1052 0.8944
vn 0.4347 0.1051 0.8944
vn -0.4969 0.1435 0.8558
vn -0.4975 0.1435 0.8555
vn -0.9812 0.0919 0.1700
vn -0.9812 0.0919 0.1699
vn -0.4274 -0.1088 -0.8975
vn 0.2055 -0.1172 -0.9716
vn 0.9858 -0.0538 -0.1590
vn 0.8241 0.1689 -0.5406
vn 0.7991 0.1327 -0.5864
vn 0.8009 0.1352 -0.5833
vn 0.8234 0.1720 -0.5407
vn 0.9466 0.2346 0.2211
vn 0.9271 0.3252 0.1862
vn 0.9195 0.3518 0.1754
vn 0.4663 0.1548 0.8710
vn 0.3340 0.3023 0.8928
vn 0.3396 0.2966 0.8926
vn 0.4660 0.1568 0.8708
vn -0.8351 -0.1565 0.5273
vn -0.7652 -0.0733 0.6396
vn -0.7651 -0.0733 0.6397
vn -0.8351 -0.1565 0.5274
vn -0.9752 -0.2180 -0.0390
vn -0.9492 -0.3082 -0.0641
vn -0.9480 -0.3116 -0.0651
vn -0.3171 -0.1067 -0.9424
vn -0.2754 -0.2664 -0.9237
vn -0.2755 -0.2664 -0.9237
vn -0.3172 -0.1067 -0.9424
vn 0.6763 0.0321 -0.7359
vn 0.6758 0.0318 -0.7364
vn 0.9462 0.2907 0.1420
vn 0.9465 0.2899 0.1420
vn 0.2507 0.3071 0.9180
vn 0.2509 0.3066 0.9182
vn -0.6213 0.0382 0.7826
vn -0.6211 0.0383 0.7828
vn -0.9615 -0.2562 -0.0991
vn -0.9617 -0.2556 -0.0992
vn -0.3267 -0.2896 -0.8997
vn -0.3271 -0.2892 -0.8997
vn 0.5628 -0.0349 -0.8259
vn 0.9799 0.1408 0.1411
vn 0.3008 0.1766 0.9372
vn -0.5621 0.0650 0.8245
vn -0.9883 -0.1088 -0.1065
vn -0.4176 -0.1545 -0.8954
vn -0.2231 0.9738 -0.0430
vn -0.2229 0.9739 -0.0430
vn 0.1181 0.9929 0.0151
vn -0.2379 0.9626 0.1296
vn -0.2379 0.9626 0.1297
vn -0.3259 0.8107 0.4864
vn -0.2547 0.7248 0.6402
vn -0.1062 0.7635 0.6371
vn -0.2369 0.8506 0.4694
vn -0.0308 0.8239 0.5658
vn -0.0516 0.6402 0.7665
vn 0.0908 0.7070 0.7014
vn -0.1242 0.8882 0.4423
vn -0.1530 0.5808 0.7995
vn -0.3534 0.7070 -0.6126
vn -0.5079 0.5968 -0.6212
vn -0.5881 0.6380 -0.4971
vn -0.3911 0.7509 -0.5322
vn -0.5759 0.7113 -0.4028
vn -0.7082 0.4950 -0.5035
vn -0.7370 0.5746 -0.3559
vn -0.4323 0.7946 -0.4263
vn -0.6748 0.4289 -0.6006
vn 0.4488 0.5215 -0.7257
vn 0.3605 0.3704 -0.8561
vn 0.2082 0.4255 -0.8807
vn 0.3606 0.5756 -0.7339
vn 0.1346 0.5210 -0.8429
vn 0.1306 0.2422 -0.9614
vn -0.0120 0.3503 -0.9366
vn 0.2451 0.6344 -0.7331
vn 0.2288 0.1612 -0.9600
vn -0.8842 0.3374 0.3230
vn -0.9109 0.3876 0.1417
vn -0.9629 0.2589 0.0763
vn -0.9206 0.2478 0.3019
vn -0.9836 0.1448 0.1072
vn -0.9429 0.3176 -0.1000
vn -0.9823 0.1524 -0.1092
vn -0.9530 0.1342 0.2717
vn -0.8978 0.4308 -0.0916
vn -0.9118 0.1427 0.3850
vn -0.7555 -0.0095 0.6551
vn -0.8597 0.2022 0.4691
vn -0.7015 0.1119 0.7038
vn -0.6562 -0.2330 0.7177
vn -0.5559 -0.0964 0.8256
vn -0.7782 0.2730 0.5656
vn -0.7109 -0.3236 0.6244
vn -0.4915 -0.1982 0.8480
vn -0.6326 -0.0619 0.7720
vn -0.7400 -0.1775 0.6487
vn -0.5484 -0.3009 0.7802
vn -0.7376 -0.3326 0.5877
vn -0.8348 -0.0221 0.5501
vn -0.8783 -0.2048 0.4320
vn -0.6028 -0.4153 0.6813
vn -0.7737 0.1187 0.6224
vn -0.1403 0.0752 0.9872
vn -0.2903 0.1986 0.9361
vn -0.4453 0.0608 0.8933
vn -0.2242 -0.0448 0.9735
vn -0.4680 -0.1178 0.8758
vn -0.5642 0.1903 0.8034
vn -0.6533 -0.0226 0.7568
vn -0.3156 -0.1829 0.9311
vn -0.4719 0.3506 0.8089
vn 0.1598 -0.4535 -0.8768
vn 0.4564 -0.3352 -0.8242
vn 0.2393 -0.5103 -0.8260
vn 0.4950 -0.4399 -0.7493
vn 0.5640 -0.1295 -0.8156
vn 0.6658 -0.2468 -0.7041
vn 0.3346 -0.5723 -0.7487
vn 0.4795 -0.0438 -0.8765
vn 0.4795 -0.0438 -0.8764
vn -0.5001 -0.6179 0.6067
vn -0.6405 -0.5370 0.5491
vn -0.6719 -0.6109 0.4189
vn -0.5046 -0.6821 0.5292
vn -0.6227 -0.6996 0.3504
vn -0.7862 -0.4996 0.3637
vn -0.7585 -0.6077 0.2353
vn -0.5034 -0.7505 0.4282
vn -0.7920 -0.4105 0.4519
vn -0.8155 -0.0347 0.5777
vn -0.9010 0.0137 0.4336
vn -0.9236 -0.1970 0.3289
vn -0.8145 -0.2042 0.5430
vn -0.8495 -0.3950 0.3498
vn -0.9746 -0.1361 0.1777
vn -0.9104 -0.3906 0.1364
vn -0.7845 -0.3869 0.4847
vn -0.9758 0.0828 0.2026
vn -0.9073 0.0747 0.4138
vn -0.9619 0.1073 0.2516
vn -0.9779 -0.1229 0.1690
vn -0.9098 -0.1057 0.4014
vn -0.9164 -0.3276 0.2300
vn -0.9967 -0.0815 0.0046
vn -0.9365 -0.3506 0.0086
vn -0.8774 -0.3028 0.3721
vn -0.9889 0.1489 0.0010
vn 0.8835 -0.2991 0.3605
vn 0.8005 -0.3214 0.5058
vn 0.7249 -0.4949 0.4792
vn 0.8514 -0.4203 0.3138
vn 0.7103 -0.6052 0.3593
vn 0.6239 -0.4887 0.6099
vn 0.5646 -0.6595 0.4963
vn 0.7953 -0.5509 0.2528
vn 0.6508 -0.3371 0.6803
vn 0.4859 0.7454 0.4564
vn 0.6272 0.6194 0.4722
vn 0.6996 0.6299 0.3373
vn 0.5205 0.7709 0.3672
vn 0.6870 0.6882 0.2331
vn 0.8030 0.4758 0.3590
vn 0.8266 0.5266 0.1984
vn 0.5564 0.7916 0.2526
vn 0.7716 0.4308 0.4681
vn -0.9029 0.2427 0.3547
vn -0.8920 0.4411 0.0994
vn -0.9383 0.2177 0.2687
vn -0.9335 0.3575 0.0292
vn -0.7724 0.6350 0.0160
vn -0.8270 0.5482 -0.1247
vn -0.9712 0.1822 0.1537
vn -0.7228 0.6823 0.1099
vn -0.7229 0.6822 0.1099
vn -0.5405 0.3415 -0.7689
vn -0.5405 0.3414 -0.7689
vn -0.6549 0.4046 -0.6383
vn -0.6215 0.3862 -0.6816
vn -0.9091 -0.1443 -0.3908
vn -0.8588 -0.2105 -0.4670
vn -0.8424 -0.2290 -0.4877
vn -0.7230 0.4410 -0.5318
vn -0.7230 0.4409 -0.5319
vn -0.7788 -0.2913 -0.5556
vn -0.7850 -0.1614 -0.5981
vn -0.7267 -0.4607 -0.5096
vn -0.8359 -0.2210 -0.5024
vn -0.7434 -0.5298 -0.4081
vn -0.5109 -0.6643 -0.5456
vn -0.5745 -0.6958 -0.4310
vn -0.8862 -0.3003 -0.3528
vn -0.4537 -0.6304 -0.6298
vn 0.1549 0.6252 -0.7649
vn -0.0464 0.4730 -0.8798
vn -0.1291 0.5879 -0.7986
vn 0.0560 0.6937 -0.7181
vn -0.2407 0.6213 -0.7457
vn -0.2833 0.3880 -0.8771
vn -0.3644 0.4682 -0.8050
vn -0.0808 0.7685 -0.6347
vn -0.2130 0.3169 -0.9242
vn -0.5378 -0.3330 -0.7745
vn -0.2999 -0.2619 -0.9173
vn -0.2437 -0.4789 -0.8434
vn -0.4298 -0.5139 -0.7424
vn -0.0883 -0.6086 -0.7885
vn -0.0259 -0.3488 -0.9368
vn 0.0597 -0.5110 -0.8575
vn -0.2730 -0.7013 -0.6586
vn -0.1010 -0.1930 -0.9760
vn -0.4667 0.6574 -0.5916
vn -0.6332 0.5426 -0.5519
vn -0.6331 0.6287 -0.4517
vn -0.4970 0.7082 -0.5014
vn -0.6708 0.6505 -0.3561
vn -0.7635 0.4835 -0.4281
vn -0.7712 0.5415 -0.3347
vn -0.5287 0.7632 -0.3714
vn -0.7500 0.4309 -0.5018
vn 0.9315 -0.3121 0.1868
vn 0.8216 -0.2683 0.5030
vn 0.8652 -0.4126 0.2849
vn 0.7233 -0.3327 0.6052
vn 0.7421 -0.0226 0.6699
vn 0.6616 -0.1440 0.7359
vn 0.7437 -0.5314 0.4056
vn 0.7946 0.0784 0.6021
vn 0.7946 0.0785 0.6021
vn 0.8094 -0.4261 -0.4042
vn 0.9240 -0.3312 -0.1912
vn 0.8687 -0.4749 -0.1409
vn 0.7840 -0.5283 -0.3260
vn 0.8359 -0.5474 -0.0392
vn 0.9427 -0.3305 0.0461
vn 0.8919 -0.4395 0.1066
vn 0.7289 -0.6509 -0.2123
vn 0.9718 -0.2356 -0.0047
vn 0.8966 -0.0605 -0.4387
vn 0.9761 0.0413 -0.2133
vn 0.9761 -0.1177 -0.1826
vn 0.9108 -0.1739 -0.3745
vn 0.9736 -0.2093 -0.0914
vn 0.9996 0.0189 0.0226
vn 0.9919 -0.1076 0.0678
vn 0.9052 -0.3213 -0.2783
vn 0.9922 0.1235 -0.0153
vn 0.3562 -0.3048 -0.8833
vn 0.5722 -0.1880 -0.7983
vn 0.5859 -0.3372 -0.7369
vn 0.4051 -0.4077 -0.8183
vn 0.6418 -0.4115 -0.6472
vn 0.7485 -0.1785 -0.6386
vn 0.7679 -0.2925 -0.5699
vn 0.4597 -0.5346 -0.7092
vn 0.7221 -0.0815 -0.6870
vn 0.6974 -0.0861 -0.7115
vn 0.7881 -0.2102 -0.5785
vn 0.7690 -0.1807 -0.6131
vn 0.9793 0.1224 -0.1610
vn 0.9449 0.2261 -0.2368
vn 0.9357 0.2472 -0.2519
vn 0.8368 -0.3019 -0.4568
vn 0.8816 0.3449 -0.3221
vn -0.9292 -0.1208 0.3492
vn -0.8482 -0.4235 0.3180
vn -0.8728 -0.2068 0.4422
vn -0.7671 -0.5179 0.3785
vn -0.7943 -0.6002 0.0947
vn -0.7234 -0.6586 0.2073
vn -0.7684 -0.3180 0.5554
vn -0.8399 -0.5428 0.0011
vn 0.7138 0.6818 -0.1600
vn 0.7779 0.5075 -0.3705
vn 0.6742 0.5995 -0.4314
vn 0.6427 0.7284 -0.2376
vn 0.5975 0.6145 -0.5151
vn 0.7197 0.3810 -0.5804
vn 0.6289 0.4441 -0.6381
vn 0.5270 0.7779 -0.3424
vn 0.7842 0.3264 -0.5277
vn 0.5378 0.7993 -0.2681
vn 0.4461 0.7815 -0.4362
vn 0.3641 0.8557 -0.3678
vn 0.4509 0.8588 -0.2431
vn 0.2664 0.8935 -0.3615
vn 0.2929 0.7981 -0.5265
vn 0.2103 0.8516 -0.4801
vn 0.3284 0.9218 -0.2060
vn 0.3596 0.7459 -0.5607
vn -0.4501 -0.7693 -0.4535
vn -0.2745 -0.7192 -0.6383
vn -0.1945 -0.8194 -0.5392
vn -0.3539 -0.8435 -0.4041
vn -0.0788 -0.8621 -0.5006
vn -0.0458 -0.7090 -0.7037
vn 0.0379 -0.7794 -0.6254
vn -0.2153 -0.9202 -0.3270
vn -0.1147 -0.6409 -0.7590
vn 0.7455 0.6445 0.1697
vn 0.8559 0.5165 -0.0255
vn 0.7739 0.6257 -0.0977
vn 0.6975 0.7122 0.0790
vn 0.7231 0.6606 -0.2018
vn 0.8563 0.4514 -0.2510
vn 0.7847 0.5282 -0.3244
vn 0.6151 0.7871 -0.0466
vn 0.9045 0.3829 -0.1877
vn 0.9472 -0.1601 -0.2777
vn 0.9309 0.0363 -0.3634
vn 0.9308 0.0368 -0.3636
vn 0.4734 -0.3138 -0.8230
vn 0.3856 -0.1826 -0.9044
vn 0.4727 -0.3127 -0.8239
vn 0.8774 0.2170 -0.4278
vn 0.5470 -0.4362 -0.7145
vn -0.4699 -0.1165 -0.8750
vn -0.3468 0.0484 -0.9367
vn -0.3465 0.0489 -0.9368
vn -0.7808 0.4149 -0.4671
vn -0.6952 0.5682 -0.4402
vn -0.6953 0.5682 -0.4402
vn -0.7802 0.4163 -0.4669
vn -0.2183 0.1994 -0.9553
vn -0.8422 0.2468 -0.4793
vn 0.5321 -0.1686 -0.8297
vn 0.4806 0.0347 -0.8763
vn 0.4804 0.0353 -0.8763
vn -0.1914 -0.2596 -0.9466
vn -0.3001 -0.1191 -0.9464
vn -0.3001 -0.1191 -0.9465
vn -0.1924 -0.2584 -0.9467
vn 0.4130 0.2219 -0.8833
vn -0.0755 -0.3932 -0.9164
vn -0.0755 -0.3931 -0.9164
vn -0.3918 -0.1435 -0.9088
vn -0.3516 0.0662 -0.9338
vn -0.3515 0.0668 -0.9338
vn -0.3918 -0.1434 -0.9088
vn -0.8915 0.1246 -0.4355
vn -0.8787 0.2920 -0.3777
vn -0.8915 0.1261 -0.4351
vn -0.2998 0.2578 -0.9185
vn -0.8759 -0.0485 -0.4800
vn -0.8759 -0.0485 -0.4801
vn 0.8275 0.0072 -0.5614
vn 0.8213 0.2192 -0.5267
vn 0.8213 0.2198 -0.5265
vn 0.2267 0.1691 -0.9592
vn 0.1430 0.3239 -0.9352
vn 0.1429 0.3239 -0.9352
vn 0.2260 0.1705 -0.9591
vn 0.7818 0.4067 -0.4727
vn 0.3040 0.0074 -0.9526
vn 0.3041 0.0074 -0.9526
vn -0.8061 -0.1686 -0.5673
vn -0.8549 0.0347 -0.5177
vn -0.8549 0.0353 -0.5176
vn -0.8061 -0.1686 -0.5672
vn -0.9539 -0.2596 0.1507
vn -0.9584 -0.1191 0.2592
vn -0.9584 -0.1191 0.2593
vn -0.9541 -0.2584 0.1517
vn -0.8648 0.2219 -0.4505
vn -0.9187 -0.3932 0.0362
vn -0.9188 -0.3931 0.0361
vn -0.7559 0.0881 -0.6487
vn -0.7560 0.0881 -0.6486
vn -0.7559 0.0881 -0.6488
vn -0.9896 -0.0421 0.1373
vn -0.9460 0.1189 0.3016
vn -0.9459 0.1189 0.3018
vn -0.9885 -0.0323 0.1476
vn -0.7142 0.5557 -0.4255
vn -0.7142 0.5558 -0.4255
vn -0.7142 0.5557 -0.4256
vn -0.9803 -0.1953 -0.0284
vn -0.7762 -0.5018 0.3816
vn -0.7647 -0.3403 0.5471
vn -0.7640 -0.3361 0.5508
vn -0.7762 -0.5018 0.3817
vn -0.1318 -0.6878 0.7138
vn -0.0374 -0.5596 0.8279
vn -0.1287 -0.6840 0.7181
vn -0.7165 -0.1714 0.6762
vn -0.2200 -0.7885 0.5744
vn -0.5103 0.2057 -0.8350
vn -0.5735 0.4085 -0.7101
vn -0.5710 0.3983 -0.7179
vn -0.5102 0.2057 -0.8351
vn -0.9505 -0.2596 -0.1707
vn -0.9867 -0.1623 -0.0003
vn -0.9867 -0.1623 -0.0004
vn -0.9503 -0.2599 -0.1714
vn -0.6002 0.5659 -0.5652
vn -0.8735 -0.3491 -0.3394
vn -0.1913 0.9315 0.3094
vn -0.1389 0.8891 0.4361
vn 0.1073 0.9312 0.3484
vn 0.0315 0.9767 0.2121
vn -0.3712 0.7837 0.4981
vn -0.3529 0.7136 0.6052
vn 0.1726 0.8698 0.4622
vn 0.1726 0.8699 0.4621
vn -0.3835 0.8411 0.3814
vn -0.7780 -0.1508 -0.6099
vn -0.7779 -0.1507 -0.6100
vn -0.4972 -0.2122 -0.8413
vn -0.7000 -0.2935 -0.6511
vn -0.4247 -0.3611 -0.8302
vn -0.2486 -0.1238 -0.9607
vn -0.2266 -0.2814 -0.9324
vn -0.6067 -0.4227 -0.6733
vn -0.2640 0.0359 -0.9639
vn -0.2640 0.0358 -0.9639
vn -0.9137 -0.3417 -0.2200
vn -0.9137 -0.3416 -0.2200
vn -0.8132 -0.4692 -0.3444
vn -0.8072 -0.4751 -0.3503
vn -0.4853 -0.2444 -0.8395
vn -0.5897 -0.0557 -0.8057
vn -0.5846 -0.0664 -0.8086
vn -0.4854 -0.2444 -0.8394
vn -0.6710 -0.5819 -0.4595
vn -0.6593 0.1153 -0.7430
vn -0.3936 -0.5106 -0.7644
vn -0.3936 -0.5107 -0.7644
vn -0.2300 -0.5819 -0.7800
vn -0.2202 -0.5855 -0.7802
vn 0.3005 -0.1881 -0.9350
vn 0.1874 -0.0441 -0.9813
vn 0.1926 -0.0505 -0.9800
vn 0.3005 -0.1881 -0.9351
vn -0.0479 -0.6372 -0.7692
vn -0.0479 -0.6371 -0.7693
vn 0.0784 0.0890 -0.9929
vn 0.0785 0.0885 -0.9930
vn -0.3455 -0.2758 -0.8970
vn -0.3455 -0.2756 -0.8970
vn 0.0035 -0.1910 -0.9816
vn -0.2087 -0.3725 -0.9043
vn 0.1174 -0.3058 -0.9448
vn 0.2228 -0.0023 -0.9749
vn 0.2914 -0.1453 -0.9455
vn -0.0719 -0.4555 -0.8873
vn 0.1488 0.1404 -0.9789
vn 0.1488 0.1403 -0.9789
vn -0.7798 -0.6166 -0.1080
vn -0.7799 -0.6165 -0.1080
vn -0.6535 -0.6096 -0.4486
vn -0.6614 -0.7243 -0.1948
vn -0.5076 -0.7098 -0.4884
vn -0.5852 -0.4564 -0.6703
vn -0.4625 -0.5822 -0.6687
vn -0.5273 -0.8051 -0.2716
vn -0.6896 -0.3168 -0.6512
vn -0.6896 -0.3169 -0.6512
vn -0.1800 0.7849 0.5929
vn -0.1801 0.7848 0.5930
vn 0.0471 0.5883 0.8073
vn -0.0133 0.7920 0.6104
vn 0.2088 0.6000 0.7723
vn 0.1147 0.3372 0.9344
vn 0.2557 0.3957 0.8820
vn 0.1469 0.7780 0.6109
vn -0.0286 0.2703 0.9623
vn -0.5138 -0.7360 -0.4408
vn -0.5139 -0.7358 -0.4410
vn -0.2535 -0.7208 -0.6451
vn -0.3759 -0.8152 -0.4407
vn -0.1207 -0.7910 -0.5997
vn -0.1073 -0.5843 -0.8044
vn -0.0076 -0.6786 -0.7345
vn -0.2340 -0.8720 -0.4299
vn -0.2039 -0.4771 -0.8549
vn -0.8037 0.5044 -0.3156
vn -0.8037 0.5044 -0.3157
vn -0.6699 0.7318 -0.1254
vn -0.6999 0.6235 -0.3484
vn -0.5479 0.8165 -0.1821
vn -0.5917 0.7998 0.1010
vn -0.4913 0.8710 0.0051
vn -0.5831 0.7227 -0.3711
vn -0.6772 0.7098 0.1938
vn -0.7051 0.2334 0.6695
vn -0.6231 0.0967 0.7762
vn -0.5030 0.1928 0.8425
vn -0.6433 0.3494 0.6812
vn -0.2284 0.0880 0.9696
vn -0.3827 0.0061 0.9238
vn -0.2285 0.0881 0.9696
vn -0.5024 -0.0627 0.8624
vn -0.5567 0.4773 0.6800
vn -0.5567 0.4771 0.6801
vn 0.5496 0.4034 0.7316
vn 0.6749 0.2517 0.6937
vn 0.7502 0.3169 0.5803
vn 0.5639 0.4957 0.6605
vn 0.9193 0.1480 0.3647
vn 0.8536 0.1066 0.5099
vn 0.7826 0.0706 0.6185
vn 0.5709 0.5972 0.5634
vn -0.9776 0.0452 -0.2055
vn -0.9933 -0.0675 -0.0941
vn -0.9997 0.0174 0.0150
vn -0.9761 0.1458 -0.1612
vn -0.9902 0.1181 0.0740
vn -0.9813 -0.1282 0.1437
vn -0.9617 -0.0480 0.2697
vn -0.9805 -0.1933 0.0353
vn -0.9594 0.2612 -0.1068
vn 0.2072 -0.1846 -0.9607
vn 0.1198 -0.3163 -0.9411
vn -0.0035 -0.2588 -0.9659
vn 0.1442 -0.0976 -0.9847
vn -0.0810 -0.1724 -0.9817
vn -0.1019 -0.4155 -0.9039
vn -0.2413 -0.3584 -0.9018
vn 0.0170 -0.4561 -0.8898
vn 0.0683 0.0054 -0.9976
vn 0.6299 0.7063 -0.3230
vn 0.5913 0.7839 -0.1894
vn 0.6835 0.7221 -0.1067
vn 0.7107 0.6337 -0.3056
vn 0.7629 0.6423 -0.0743
vn 0.6038 0.7952 0.0557
vn 0.6799 0.7159 0.1588
vn 0.5294 0.8478 -0.0318
vn 0.7941 0.5391 -0.2806
vn 0.7762 -0.6119 0.1520
vn 0.8681 -0.4357 0.2378
vn 0.8184 -0.4471 0.3611
vn 0.7146 -0.6664 0.2128
vn 0.8124 -0.1757 0.5560
vn 0.8814 -0.2020 0.4270
vn 0.9220 -0.2196 0.3188
vn 0.6278 -0.7243 0.2851
vt 0.966382 8.503631
vt 0.966382 6.725045
vt 0.810921 6.725045
vt 0.810921 8.503631
vt 0.344539 8.503631
vt 0.344539 6.725048
vt 0.189079 6.725048
vt 0.189079 8.503631
vt 0.500000 8.503631
vt 0.500000 6.725048
vt 0.655461 8.503631
vt 0.655461 6.725048
vt 0.966382 4.946462
vt 0.810921 4.946462
vt 0.344539 4.946462
vt 0.189079 4.946462
vt 0.500000 4.946462
vt 0.655461 4.946462
vt 0.966382 3.167876
vt 0.810921 3.167876
vt 0.189079 3.167876
vt 0.033618 3.167878
vt 0.344539 3.167876
vt 0.500000 3.167876
vt 0.655461 3.167876
vt 0.966382 1.389293
vt 0.810921 1.389293
vt 0.189079 1.389293
vt 0.033618 1.389293
vt 0.344539 1.389293
vt 0.500000 1.389293
vt 0.655461 1.389293
vt 0.810921 -0.389293
vt 0.189079 -0.389293
vt 0.033618 -0.389292
vt 0.344539 -0.389293
vt 0.500000 -0.389293
vt 0.655461 -0.389293
vt 0.966382 -0.389294
vt 0.966382 -2.167878
vt 0.810921 -2.167878
vt 0.189079 -2.167876
vt 0.033618 -2.167876
vt 0.500000 -2.167877
vt 0.344539 -2.167877
vt 0.655461 -2.167877
vt 0.966382 -3.946462
vt 0.810921 -3.946462
vt 0.189079 -3.946462
vt 0.033618 -3.946462
vt 0.344539 -3.946462
vt 0.500000 -3.946462
vt 0.655461 -3.946462
vt 0.966382 -5.725047
vt 0.810921 -5.725047
vt 0.189079 -5.725045
vt 0.033618 -5.725045
vt 0.500000 -5.725046
vt 0.344539 -5.725046
vt 0.655461 -5.725046
vt 0.966382 -7.503632
vt 0.810921 -7.503630
vt 0.189079 -7.503630
vt 0.033618 -7.503630
vt 0.344539 -7.503630
vt 0.500000 -7.503630
vt 0.655461 -7.503630
vt 0.033618 6.725048
vt 0.033618 8.503633
vt 0.033618 4.946462
vt 0.000000 0.000000
vt 0.475004 0.000000
vt 0.581436 0.594393
vt 0.000000 0.491831
vt 0.494355 1.000000
vt 1.000000 0.474417
vt 1.000000 1.000000
vt 0.000000 1.000000
vt 1.000000 0.000000
vt 0.533479 0.000000
vt 0.447807 0.563622
vt 0.000000 0.448746
vt 0.515396 1.000000
vt 1.000000 0.474699
vt 0.509433 1.000000
vt 0.557025 0.488493
vt 0.943530 0.531260
vt 0.672370 1.000000
vt 0.124045 0.440587
vt 0.259966 0.000000
vt 0.602475 0.000000
vt 0.860970 0.000000
vt 0.189556 1.000000
vt 0.480173 0.000000
vt 0.499095 0.494221
vt 0.000000 0.504135
vt 0.518459 1.000000
vt 1.000000 0.484268
vt 0.532232 1.000000
vt 0.477364 0.470556
vt 1.000000 0.533264
vt 0.516556 0.000000
vt 0.000000 0.535225
s 1
usemtl trunk-01
f 2/1/1 14/2/2 23/3/3
f 2/1/1 23/3/3 13/4/4
f 6/5/5 17/6/6 15/7/7
f 6/5/5 15/7/7 3/8/8
f 9/9/9 19/10/10 16/6/11
f 9/9/9 16/6/11 5/5/9
f 10/11/12 20/12/13 18/10/14
f 10/11/12 18/10/14 7/9/12
f 11/4/15 22/3/16 21/12/17
f 14/2/2 24/13/18 34/14/19
f 14/2/2 34/14/19 23/3/3
f 17/6/6 28/15/20 26/16/21
f 17/6/6 26/16/21 15/7/7
f 19/10/10 30/17/22 27/15/23
f 19/10/10 27/15/23 16/6/11
f 20/12/13 31/18/24 29/17/25
f 20/12/13 29/17/25 18/10/14
f 22/3/16 33/18/26 21/12/17
f 24/13/18 35/19/27 46/20/28
f 24/13/18 46/20/28 34/14/19
f 25/16/29 37/21/30 36/22/31
f 28/15/20 40/23/32 38/21/33
f 28/15/20 38/21/33 26/16/21
f 30/17/22 44/24/34 39/23/35
f 30/17/22 39/23/35 27/15/23
f 31/18/24 42/24/36 29/17/25
f 32/14/24 45/20/37 43/25/36
f 35/19/27 47/26/38 57/27/39
f 35/19/27 57/27/39 46/20/28
f 37/21/30 49/28/40 48/29/41
f 37/21/30 48/29/41 36/22/31
f 40/23/32 52/30/42 50/28/43
f 40/23/32 50/28/43 38/21/33
f 44/24/34 54/31/44 51/30/45
f 44/24/34 51/30/45 39/23/35
f 41/25/46 55/32/47 53/31/48
f 45/20/37 56/32/49 43/25/36
f 47/26/38 66/33/50 57/27/39
f 49/28/40 58/34/51 68/35/52
f 49/28/40 68/35/52 48/29/41
f 52/30/42 61/36/53 59/34/54
f 52/30/42 59/34/54 50/28/43
f 54/31/44 63/37/55 60/36/56
f 54/31/44 60/36/56 51/30/45
f 55/32/47 64/38/57 62/37/58
f 55/32/47 62/37/58 53/31/48
f 57/27/39 66/33/50 65/38/59
f 67/39/60 69/40/61 80/41/62
f 58/34/51 73/42/63 70/43/64
f 58/34/51 70/43/64 68/35/52
f 61/36/53 72/42/65 59/34/54
f 63/37/55 76/44/66 71/45/67
f 63/37/55 71/45/67 60/36/56
f 64/38/57 77/46/68 75/44/69
f 64/38/57 75/44/69 62/37/58
f 66/33/50 79/41/70 78/46/71
f 66/33/50 78/46/71 65/38/59
f 69/40/61 81/47/72 92/48/73
f 69/40/61 92/48/73 80/41/62
f 73/42/63 84/49/74 82/50/75
f 73/42/63 82/50/75 70/43/64
f 74/45/76 86/51/77 83/49/78
f 76/44/66 88/52/79 85/51/80
f 76/44/66 85/51/80 71/45/67
f 77/46/68 89/53/81 87/52/82
f 77/46/68 87/52/82 75/44/69
f 79/41/70 90/53/83 78/46/71
f 81/47/72 93/54/84 104/55/85
f 81/47/72 104/55/85 92/48/73
f 84/49/74 98/56/86 94/57/87
f 84/49/74 94/57/87 82/50/75
f 86/51/77 96/56/88 83/49/78
f 88/52/79 100/58/89 95/59/90
f 88/52/79 95/59/90 85/51/80
f 89/53/81 101/60/91 99/58/92
f 89/53/81 99/58/92 87/52/82
f 91/48/93 103/55/94 102/60/95
f 93/54/84 105/61/96 116/62/96
f 93/54/84 116/62/96 104/55/85
f 98/56/86 234/63/97 106/64/97
f 98/56/86 106/64/97 94/57/87
s 0
f 97/59/98 108/65/98 233/63/98
s 1
f 100/58/89 112/66/99 107/65/99
f 100/58/89 107/65/99 95/59/90
f 101/60/91 113/67/100 110/66/100
f 101/60/91 110/66/100 99/58/92
f 103/55/94 115/62/101 114/67/102
f 103/55/94 114/67/102 102/60/95
f 119/1/103 132/2/104 140/3/105
f 119/1/103 140/3/105 128/4/106
f 120/8/107 134/7/108 131/68/109
f 120/8/107 131/68/109 117/69/107
f 121/5/110 135/6/111 133/7/112
s 0
f 124/9/113 136/6/113 122/5/113
s 1
f 129/11/114 138/12/115 137/10/116
f 129/11/114 137/10/116 126/9/114
f 130/4/117 141/3/118 139/12/119
f 132/2/104 144/13/120 155/14/121
f 132/2/104 155/14/121 140/3/105
f 134/7/108 147/16/122 143/70/122
f 134/7/108 143/70/122 131/68/109
f 135/6/111 148/15/123 145/16/124
f 135/6/111 145/16/124 133/7/112
f 138/12/115 153/18/125 151/17/125
f 138/12/115 151/17/125 137/10/116
f 141/3/118 156/14/126 154/18/127
f 141/3/118 154/18/127 139/12/119
f 144/13/120 158/19/128 167/20/129
f 144/13/120 167/20/129 155/14/121
f 146/16/130 162/21/131 157/22/132
f 146/16/130 157/22/132 142/70/133
f 148/15/123 160/21/134 145/16/124
f 149/17/135 163/24/136 161/23/134
f 152/18/137 165/25/138 164/24/139
f 152/18/137 164/24/139 150/17/137
f 156/14/126 167/20/129 166/25/140
f 156/14/126 166/25/140 154/18/127
f 158/19/128 170/27/141 167/20/129
f 162/21/131 172/28/142 168/29/143
f 162/21/131 168/29/143 157/22/132
f 159/23/144 173/30/145 171/28/146
f 163/24/136 175/31/147 174/30/148
f 163/24/136 174/30/148 161/23/134
f 165/25/138 177/32/149 176/31/150
f 165/25/138 176/31/150 164/24/139
f 167/20/129 170/27/141 178/32/151
f 167/20/129 178/32/151 166/25/140
f 169/26/152 290/39/153 191/33/154
f 172/28/142 182/34/155 286/35/156
f 172/28/142 286/35/156 168/29/143
f 173/30/145 187/36/157 181/34/157
f 173/30/145 181/34/157 171/28/146
f 175/31/147 291/37/158 188/36/158
f 175/31/147 188/36/158 174/30/148
f 177/32/149 281/38/159 296/37/159
f 177/32/149 296/37/159 176/31/150
f 170/27/141 192/33/160 282/38/161
f 170/27/141 282/38/161 178/32/151
f 290/39/153 194/40/162 203/41/163
f 290/39/153 203/41/163 191/33/154
f 184/34/164 196/42/165 193/43/166
f 184/34/164 193/43/166 288/35/164
f 185/36/167 197/45/168 195/42/168
f 185/36/167 195/42/168 179/34/169
f 292/37/170 200/44/171 198/45/172
f 292/37/170 198/45/172 189/36/170
f 279/38/173 201/46/174 199/44/175
f 279/38/173 199/44/175 294/37/176
f 192/33/160 204/41/177 202/46/178
f 192/33/160 202/46/178 282/38/161
f 194/40/162 213/48/179 203/41/163
f 196/42/165 206/49/180 212/50/179
f 196/42/165 212/50/179 193/43/166
f 197/45/168 207/51/181 205/49/181
f 197/45/168 205/49/181 195/42/168
f 200/44/171 208/51/182 198/45/172
f 201/46/174 210/53/183 209/52/182
f 201/46/174 209/52/182 199/44/175
f 204/41/177 215/48/184 211/53/185
f 204/41/177 211/53/185 202/46/178
f 214/47/186 217/54/187 225/55/188
f 206/49/180 219/56/189 216/57/190
f 206/49/180 216/57/190 212/50/179
f 207/51/181 220/59/191 218/56/192
f 207/51/181 218/56/192 205/49/181
f 209/52/182 222/58/193 221/59/194
f 210/53/183 223/60/195 222/58/193
f 210/53/183 222/58/193 209/52/182
f 215/48/184 226/55/196 224/60/197
f 215/48/184 224/60/197 211/53/185
f 217/54/187 228/61/198 237/62/199
f 217/54/187 237/62/199 225/55/188
f 219/56/189 230/63/200 227/64/201
f 219/56/189 227/64/201 216/57/190
f 220/59/191 109/65/202 229/63/203
f 220/59/191 229/63/203 218/56/192
f 222/58/193 231/66/204 111/65/204
f 222/58/193 111/65/204 221/59/194
f 223/60/195 235/67/205 232/66/205
f 223/60/195 232/66/205 222/58/193
f 226/55/196 238/62/206 236/67/206
f 226/55/196 236/67/206 224/60/197
f 241/1/207 255/19/208 266/20/209
f 241/1/207 266/20/209 254/4/210
f 242/8/211 258/21/212 256/22/213
f 246/5/214 260/23/215 257/21/216
f 246/5/214 257/21/216 240/8/217
f 248/9/218 262/24/219 259/23/220
f 248/9/218 259/23/220 243/5/221
f 247/11/222 263/25/223 261/24/224
f 251/4/225 265/20/226 264/25/227
f 251/4/225 264/25/227 249/11/228
f 255/19/208 267/40/229 278/41/230
f 255/19/208 278/41/230 266/20/209
f 258/21/212 270/42/231 268/43/232
f 258/21/212 268/43/232 256/22/213
f 260/23/215 272/45/233 269/42/234
f 260/23/215 269/42/234 257/21/216
f 262/24/219 274/44/235 271/45/236
f 262/24/219 271/45/236 259/23/220
f 263/25/223 275/46/237 273/44/238
f 263/25/223 273/44/238 261/24/224
f 265/20/226 277/41/239 276/46/240
f 265/20/226 276/46/240 264/25/227
f 267/40/229 280/61/241 295/62/241
f 267/40/229 295/62/241 278/41/230
f 270/42/231 285/63/242 283/64/242
f 270/42/231 283/64/242 268/43/232
f 272/45/233 289/65/243 284/63/243
f 272/45/233 284/63/243 269/42/234
f 274/44/235 183/66/244 287/65/244
f 274/44/235 287/65/244 271/45/236
f 275/46/237 186/67/245 180/66/245
f 275/46/237 180/66/245 273/44/238
f 277/41/239 293/62/246 190/67/246
f 277/41/239 190/67/246 276/46/240
s 0
f 253/4/247 250/11/247 245/5/247
f 252/4/248 244/5/248 239/8/248
s 1
f 127/11/249 125/9/249 123/5/249
f 127/11/249 123/5/249 118/69/249
f 8/9/250 4/5/250 1/1/250
f 8/9/250 1/1/250 12/11/251
usemtl branch-02
f 297/71/252 301/72/253 303/73/254
f 297/71/252 303/73/254 305/74/255
f 302/75/256 303/73/254 304/76/257
f 302/75/256 304/76/257 300/77/258
f 305/74/255 303/73/254 302/75/256
f 305/74/255 302/75/256 299/78/259
f 304/76/257 303/73/254 301/72/253
f 304/76/257 301/72/253 298/79/260
f 306/71/261 310/72/262 312/73/263
f 306/71/261 312/73/263 314/74/264
f 311/75/265 312/73/263 313/76/266
f 311/75/265 313/76/266 309/77/267
f 314/74/264 312/73/263 311/75/265
f 314/74/264 311/75/265 308/78/268
f 313/76/266 312/73/263 310/72/262
f 313/76/266 310/72/262 307/79/269
f 315/71/270 319/72/271 321/73/272
f 315/71/270 321/73/272 323/74/273
f 320/75/274 321/73/272 322/76/275
f 320/75/274 322/76/275 318/77/276
f 323/74/273 321/73/272 320/75/274
f 323/74/273 320/75/274 317/78/277
f 322/76/275 321/73/272 319/72/271
f 322/76/275 319/72/271 316/79/278
f 324/71/279 328/72/280 330/73/281
f 324/71/279 330/73/281 332/74/282
f 329/75/283 330/73/281 331/76/284
f 329/75/283 331/76/284 327/77/285
f 332/74/282 330/73/281 329/75/283
f 332/74/282 329/75/283 326/78/286
f 331/76/284 330/73/281 328/72/280
f 331/76/284 328/72/280 325/79/287
f 333/71/288 337/72/288 340/73/289
f 333/71/288 340/73/289 342/74/290
f 339/75/291 340/73/289 341/76/292
f 339/75/291 341/76/292 336/77/293
f 342/74/290 340/73/289 339/75/291
f 342/74/290 339/75/291 335/78/294
f 341/76/292 340/73/289 338/72/295
f 341/76/292 338/72/295 334/79/295
f 343/71/296 347/72/297 349/73/298
f 343/71/296 349/73/298 351/74/299
f 348/75/300 349/73/298 350/76/301
f 348/75/300 350/76/301 346/77/302
f 351/74/299 349/73/298 348/75/300
f 351/74/299 348/75/300 345/78/303
f 350/76/301 349/73/298 347/72/297
f 350/76/301 347/72/297 344/79/304
f 352/71/305 356/72/306 358/73/307
f 352/71/305 358/73/307 360/74/308
f 357/75/309 358/73/307 359/76/310
f 357/75/309 359/76/310 355/77/311
f 360/74/308 358/73/307 357/75/309
f 360/74/308 357/75/309 354/78/312
f 359/76/310 358/73/307 356/72/306
f 359/76/310 356/72/306 353/79/313
f 361/71/314 365/72/314 368/73/315
f 361/71/314 368/73/315 370/74/316
f 367/75/317 368/73/315 369/76/318
f 367/75/317 369/76/318 364/77/319
f 370/74/316 368/73/315 367/75/317
f 370/74/316 367/75/317 363/78/320
f 369/76/318 368/73/315 366/72/321
f 369/76/318 366/72/321 362/79/322
f 371/71/323 375/72/324 377/73/325
f 371/71/323 377/73/325 379/74/326
f 376/75/327 377/73/325 378/76/328
f 376/75/327 378/76/328 374/77/329
f 379/74/326 377/73/325 376/75/327
f 379/74/326 376/75/327 373/78/330
f 378/76/328 377/73/325 375/72/324
f 378/76/328 375/72/324 372/79/331
f 380/71/332 384/72/333 386/73/334
f 380/71/332 386/73/334 388/74/335
f 385/75/336 386/73/334 387/76/337
f 385/75/336 387/76/337 383/77/338
f 388/74/335 386/73/334 385/75/336
f 388/74/335 385/75/336 382/78/339
f 387/76/337 386/73/334 384/72/333
f 387/76/337 384/72/333 381/79/340
f 389/71/341 393/72/342 395/73/343
f 389/71/341 395/73/343 397/74/344
f 394/75/345 395/73/343 396/76/346
f 394/75/345 396/76/346 392/77/347
f 397/74/344 395/73/343 394/75/345
f 397/74/344 394/75/345 391/78/348
f 396/76/346 395/73/343 393/72/342
f 396/76/346 393/72/342 390/79/349
f 398/71/350 402/72/351 404/73/352
f 398/71/350 404/73/352 406/74/353
f 403/75/354 404/73/352 405/76/355
f 403/75/354 405/76/355 401/77/356
f 406/74/353 404/73/352 403/75/354
f 406/74/353 403/75/354 400/78/357
f 405/76/355 404/73/352 402/72/351
f 405/76/355 402/72/351 399/79/358
f 407/71/359 411/72/360 413/73/361
f 407/71/359 413/73/361 415/74/362
f 412/75/363 413/73/361 414/76/364
f 412/75/363 414/76/364 410/77/365
f 415/74/362 413/73/361 412/75/363
f 415/74/362 412/75/363 409/78/366
f 414/76/364 413/73/361 411/72/360
f 414/76/364 411/72/360 408/79/367
f 416/71/368 420/72/368 423/73/369
f 416/71/368 423/73/369 425/74/370
f 422/75/371 423/73/369 424/76/372
f 422/75/371 424/76/372 419/77/373
f 425/74/370 423/73/369 422/75/371
f 425/74/370 422/75/371 418/78/374
f 424/76/372 423/73/369 421/72/375
f 424/76/372 421/72/375 417/79/376
usemtl branch-01
f 426/71/377 431/80/378 435/81/379
f 426/71/377 435/81/379 436/82/380
f 432/83/381 434/81/382 437/84/383
f 432/83/381 437/84/383 429/77/381
f 436/82/380 435/81/379 433/83/384
f 436/82/380 433/83/384 428/78/385
f 437/84/383 434/81/382 430/80/386
f 437/84/383 430/80/386 427/79/386
f 438/71/387 442/80/387 445/81/388
f 438/71/387 445/81/388 446/82/389
f 444/83/390 445/81/388 447/84/391
f 444/83/390 447/84/391 441/77/392
f 446/82/389 445/81/388 444/83/390
f 446/82/389 444/83/390 440/78/393
f 447/84/391 445/81/388 443/80/394
f 447/84/391 443/80/394 439/79/394
f 448/71/395 452/80/396 454/81/397
f 448/71/395 454/81/397 455/82/398
f 453/83/399 454/81/397 456/84/400
f 453/83/399 456/84/400 451/77/401
f 455/82/398 454/81/397 453/83/399
f 455/82/398 453/83/399 450/78/402
f 456/84/400 454/81/397 452/80/396
f 456/84/400 452/80/396 449/79/403
f 457/71/404 461/80/405 463/81/406
f 457/71/404 463/81/406 464/82/407
f 462/83/408 463/81/406 465/84/409
f 462/83/408 465/84/409 460/77/410
f 464/82/407 463/81/406 462/83/408
f 464/82/407 462/83/408 459/78/411
f 465/84/409 463/81/406 461/80/405
f 465/84/409 461/80/405 458/79/412
f 466/71/413 470/80/414 472/81/415
f 466/71/413 472/81/415 473/82/416
f 471/83/417 472/81/415 474/84/418
f 471/83/417 474/84/418 469/77/419
f 473/82/416 472/81/415 471/83/417
f 473/82/416 471/83/417 468/78/420
f 474/84/418 472/81/415 470/80/414
f 474/84/418 470/80/414 467/79/421
f 475/71/422 480/80/422 482/81/423
f 475/71/422 482/81/423 483/82/424
f 481/83/425 482/81/423 484/84/426
f 481/83/425 484/84/426 478/77/427
f 483/82/424 482/81/423 481/83/425
f 483/82/424 481/83/425 477/78/428
f 484/84/426 482/81/423 479/80/429
f 484/84/426 479/80/429 476/79/430
f 485/71/431 489/80/432 491/81/433
f 485/71/431 491/81/433 492/82/434
f 490/83/435 491/81/433 493/84/436
f 490/83/435 493/84/436 488/77/437
f 492/82/434 491/81/433 490/83/435
f 492/82/434 490/83/435 487/78/438
f 493/84/436 491/81/433 489/80/432
f 493/84/436 489/80/432 486/79/439
f 494/71/440 498/80/441 500/81/442
f 494/71/440 500/81/442 501/82/443
f 499/83/444 500/81/442 502/84/445
f 499/83/444 502/84/445 497/77/446
f 501/82/443 500/81/442 499/83/444
f 501/82/443 499/83/444 496/78/447
f 502/84/445 500/81/442 498/80/441
f 502/84/445 498/80/441 495/79/448
f 503/71/449 507/80/450 509/81/451
f 503/71/449 509/81/451 510/82/452
f 508/83/453 509/81/451 511/84/454
f 508/83/453 511/84/454 506/77/455
f 510/82/452 509/81/451 508/83/453
f 510/82/452 508/83/453 505/78/456
f 511/84/454 509/81/451 507/80/450
f 511/84/454 507/80/450 504/79/457
f 512/71/458 516/80/458 520/81/459
f 512/71/458 520/81/459 522/82/460
f 519/83/461 521/81/462 523/84/463
f 519/83/461 523/84/463 515/77/461
f 522/82/460 520/81/459 518/83/464
f 522/82/460 518/83/464 514/78/464
f 523/84/463 521/81/462 517/80/465
f 523/84/463 517/80/465 513/79/465
f 524/71/466 528/80/466 531/81/467
f 524/71/466 531/81/467 532/82/468
f 530/83/469 531/81/467 533/84/470
f 530/83/469 533/84/470 527/77/471
f 532/82/468 531/81/467 530/83/469
f 532/82/468 530/83/469 526/78/472
f 533/84/470 531/81/467 529/80/473
f 533/84/470 529/80/473 525/79/473
f 534/71/474 538/80/475 540/81/476
f 534/71/474 540/81/476 541/82/477
f 539/83/478 540/81/476 542/84/479
f 539/83/478 542/84/479 537/77/480
f 541/82/477 540/81/476 539/83/478
f 541/82/477 539/83/478 536/78/481
f 542/84/479 540/81/476 538/80/475
f 542/84/479 538/80/475 535/79/482
f 543/71/483 547/80/484 549/81/485
f 543/71/483 549/81/485 550/82/486
f 548/83/487 549/81/485 551/84/488
f 548/83/487 551/84/488 546/77/489
f 550/82/486 549/81/485 548/83/487
f 550/82/486 548/83/487 545/78/490
f 551/84/488 549/81/485 547/80/484
f 551/84/488 547/80/484 544/79/491
f 552/71/492 556/80/493 558/81/494
f 552/71/492 558/81/494 559/82/495
f 557/83/496 558/81/494 560/84/497
f 557/83/496 560/84/497 555/77/498
f 559/82/495 558/81/494 557/83/496
f 559/82/495 557/83/496 554/78/499
f 560/84/497 558/81/494 556/80/493
f 560/84/497 556/80/493 553/79/500
f 561/71/501 565/80/502 567/81/503
f 561/71/501 567/81/503 568/82/504
f 566/83/505 567/81/503 569/84/506
f 566/83/505 569/84/506 564/77/507
f 568/82/504 567/81/503 566/83/505
f 568/82/504 566/83/505 563/78/508
f 569/84/506 567/81/503 565/80/502
f 569/84/506 565/80/502 562/79/509
usemtl branch-04
f 571/85/510 575/86/511 579/87/512
f 571/85/510 579/87/512 580/88/510
f 577/89/513 576/90/514 572/91/514
f 577/89/513 572/91/514 574/86/515
f 578/92/516 579/87/512 575/86/511
f 578/92/516 575/86/511 573/91/516
f 581/93/517 577/89/513 574/86/515
f 581/93/517 574/86/515 570/85/517
f 583/85/518 587/86/519 591/87/520
f 583/85/518 591/87/520 592/88/518
f 589/89/521 588/90/522 584/91/523
f 589/89/521 584/91/523 586/86/524
f 590/92/525 591/87/520 587/86/519
f 590/92/525 587/86/519 585/91/525
f 593/93/526 589/89/521 586/86/524
f 593/93/526 586/86/524 582/85/526
f 595/85/527 599/86/528 603/87/529
f 595/85/527 603/87/529 604/88/527
f 601/89/530 600/90/531 596/91/532
f 601/89/530 596/91/532 598/86/533
f 602/92/534 603/87/529 599/86/528
f 602/92/534 599/86/528 597/91/534
f 605/93/535 601/89/530 598/86/533
f 605/93/535 598/86/533 594/85/536
f 607/85/537 611/86/538 615/87/539
f 607/85/537 615/87/539 616/88/540
f 613/89/541 612/90/542 608/91/542
f 613/89/541 608/91/542 610/86/543
f 614/92/544 615/87/539 611/86/538
f 614/92/544 611/86/538 609/91/544
f 617/93/545 613/89/541 610/86/543
f 617/93/545 610/86/543 606/85/546
f 619/85/547 623/86/548 627/87/549
f 619/85/547 627/87/549 628/88/547
f 625/89/550 624/90/551 620/91/552
f 625/89/550 620/91/552 622/86/553
f 626/92/554 627/87/549 623/86/548
f 626/92/554 623/86/548 621/91/554
f 629/93/555 625/89/550 622/86/553
f 629/93/555 622/86/553 618/85/556
f 631/85/557 635/86/558 639/87/559
f 631/85/557 639/87/559 640/88/560
f 637/89/561 636/90/562 632/91/563
f 637/89/561 632/91/563 634/86/564
f 638/92/565 639/87/559 635/86/558
f 638/92/565 635/86/558 633/91/565
f 641/93/566 637/89/561 634/86/564
f 641/93/566 634/86/564 630/85/567
f 643/85/568 647/86/569 652/87/570
f 643/85/568 652/87/570 654/88/569
f 650/89/571 649/90/572 644/91/573
f 650/89/571 644/91/573 646/86/574
f 651/92/575 653/87/576 648/86/577
f 651/92/575 648/86/577 645/91/577
f 655/93/578 650/89/571 646/86/574
f 655/93/578 646/86/574 642/85/578
f 656/85/579 660/86/580 665/87/581
f 656/85/579 665/87/581 666/88/582
f 663/89/583 662/90/584 659/91/584
f 663/89/583 659/91/584 661/86/585
f 664/92/586 665/87/581 660/86/580
f 664/92/586 660/86/580 658/91/586
f 667/93/587 663/89/583 661/86/585
f 667/93/587 661/86/585 657/85/587
f 669/85/588 673/86/589 677/87/590
f 669/85/588 677/87/590 678/88/591
f 675/89/592 674/90/593 670/91/594
f 675/89/592 670/91/594 672/86/595
f 676/92/596 677/87/590 673/86/589
f 676/92/596 673/86/589 671/91/596
f 679/93/597 675/89/592 672/86/595
f 679/93/597 672/86/595 668/85/597
f 680/85/598 683/86/599 687/87/600
f 680/85/598 687/87/600 688/88/601
f 685/89/602 684/90/603 681/91/603
f 685/89/602 681/91/603 683/86/599
f 686/92/604 687/87/600 683/86/599
f 686/92/604 683/86/599 682/91/605
f 689/93/606 685/89/602 683/86/599
f 689/93/606 683/86/599 680/85/598
usemtl branch-05
f 690/71/607 694/94/608 699/95/609
f 690/71/607 699/95/609 698/96/610
f 696/97/611 699/95/609 697/98/612
f 696/97/611 697/98/612 693/77/613
f 698/96/610 699/95/609 696/97/611
f 698/96/610 696/97/611 692/78/614
f 697/98/612 699/95/609 695/94/615
f 697/98/612 695/94/615 691/79/616
f 700/71/617 704/94/618 710/95/619
f 700/71/617 710/95/619 709/96/620
f 707/97/621 711/95/622 708/98/623
f 707/97/621 708/98/623 703/77/624
f 709/96/620 710/95/619 706/97/625
f 709/96/620 706/97/625 702/78/625
f 708/98/623 711/95/622 705/94/626
f 708/98/623 705/94/626 701/79/626
f 712/71/627 716/94/628 722/95/629
f 712/71/627 722/95/629 721/96/630
f 719/97/631 723/95/632 720/98/633
f 719/97/631 720/98/633 715/77/634
f 721/96/630 722/95/629 718/97/635
f 721/96/630 718/97/635 714/78/636
f 720/98/633 723/95/632 717/94/637
f 720/98/633 717/94/637 713/79/638
f 724/71/639 728/94/640 733/95/641
f 724/71/639 733/95/641 732/96/642
f 730/97/643 733/95/641 731/98/644
f 730/97/643 731/98/644 727/77/645
f 732/96/642 733/95/641 730/97/643
f 732/96/642 730/97/643 726/78/646
f 731/98/644 733/95/641 729/94/647
f 731/98/644 729/94/647 725/79/648
f 734/71/649 738/94/650 743/95/651
f 734/71/649 743/95/651 742/96/652
f 740/97/653 743/95/651 741/98/654
f 740/97/653 741/98/654 737/77/655
f 742/96/652 743/95/651 740/97/653
f 742/96/652 740/97/653 736/78/656
f 741/98/654 743/95/651 739/94/657
f 741/98/654 739/94/657 735/79/658
f 744/71/659 748/94/660 753/95/661
f 744/71/659 753/95/661 752/96/662
f 750/97/663 753/95/661 751/98/664
f 750/97/663 751/98/664 747/77/665
f 752/96/662 753/95/661 750/97/663
f 752/96/662 750/97/663 746/78/666
f 751/98/664 753/95/661 749/94/667
f 751/98/664 749/94/667 745/79/667
f 754/71/668 758/94/669 763/95/670
f 754/71/668 763/95/670 762/96/671
f 760/97/672 763/95/670 761/98/673
f 760/97/672 761/98/673 757/77/674
f 762/96/671 763/95/670 760/97/672
f 762/96/671 760/97/672 756/78/675
f 761/98/673 763/95/670 759/94/676
f 761/98/673 759/94/676 755/79/676
f 764/71/677 768/94/678 773/95/679
f 764/71/677 773/95/679 772/96/680
f 770/97/681 773/95/679 771/98/682
f 770/97/681 771/98/682 767/77/683
f 772/96/680 773/95/679 770/97/681
f 772/96/680 770/97/681 766/78/684
f 771/98/682 773/95/679 769/94/685
f 771/98/682 769/94/685 765/79/685
usemtl branch-03
f 777/77/686 778/99/687 781/100/688
f 777/77/686 781/100/688 783/101/689
f 780/102/690 781/100/688 782/103/691
f 780/102/690 782/103/691 774/71/692
f 782/103/691 781/100/688 778/99/687
f 782/103/691 778/99/687 776/78/693
f 783/101/689 781/100/688 779/102/694
f 783/101/689 779/102/694 775/79/695
f 787/77/696 788/99/697 791/100/698
f 787/77/696 791/100/698 793/101/699
f 790/102/700 791/100/698 792/103/701
f 790/102/700 792/103/701 784/71/700
f 792/103/701 791/100/698 788/99/697
f 792/103/701 788/99/697 786/78/702
f 793/101/699 791/100/698 789/102/703
f 793/101/699 789/102/703 785/79/703
f 797/77/704 798/99/705 800/100/706
f 797/77/704 800/100/706 802/101/707
f 799/102/708 800/100/706 801/103/709
f 799/102/708 801/103/709 794/71/710
f 801/103/709 800/100/706 798/99/705
f 801/103/709 798/99/705 796/78/711
f 802/101/707 800/100/706 799/102/708
f 802/101/707 799/102/708 795/79/712
f 806/77/713 807/99/714 809/100/715
f 806/77/713 809/100/715 811/101/716
f 808/102/717 809/100/715 810/103/718
f 808/102/717 810/103/718 803/71/719
f 810/103/718 809/100/715 807/99/714
f 810/103/718 807/99/714 805/78/720
f 811/101/716 809/100/715 808/102/717
f 811/101/716 808/102/717 804/79/721
f 815/77/722 816/99/723 818/100/724
f 815/77/722 818/100/724 820/101/725
f 817/102/726 818/100/724 819/103/727
f 817/102/726 819/103/727 812/71/728
f 819/103/727 818/100/724 816/99/723
f 819/103/727 816/99/723 814/78/729
f 820/101/725 818/100/724 817/102/726
f 820/101/725 817/102/726 813/79/730
f 824/77/731 825/99/732 828/100/733
f 824/77/731 828/100/733 830/101/734
f 827/102/735 828/100/733 829/103/736
f 827/102/735 829/103/736 821/71/735
f 829/103/736 828/100/733 825/99/732
f 829/103/736 825/99/732 823/78/737
f 830/101/734 828/100/733 826/102/738
f 830/101/734 826/102/738 822/79/738
