# Blender 5.1.0
# www.blender.org
mtllib Tree-01-3.mtl
o Tree-01-3
v 9.591905 -0.006729 16.052795
v 9.591905 -0.006729 16.052795
v 10.083964 6.434803 15.796521
v 10.083964 6.434803 15.796521
v 10.083964 6.434803 15.796521
v 10.073522 6.436287 15.801310
v 10.073522 6.436287 15.801310
v 10.073522 6.436287 15.801310
v 10.073522 6.436287 15.801310
v 10.070388 6.436610 15.792619
v 10.070388 6.436610 15.792619
v 10.070388 6.436610 15.792619
v 10.080060 6.434857 15.788887
v 10.080060 6.434857 15.788887
v 10.080060 6.434857 15.788887
v 10.080060 6.434857 15.788887
v 10.084905 5.758967 15.794341
v 10.084905 5.758967 15.794341
v 10.070520 5.758759 15.802707
v 10.070520 5.758759 15.802707
v 10.056273 5.752329 15.792959
v 10.056273 5.752329 15.792959
v 10.056273 5.752329 15.792959
v 10.067010 5.754344 15.780725
v 10.067010 5.754344 15.780725
v 10.075541 5.756322 15.781137
v 10.075541 5.756322 15.781137
v 10.292754 5.349802 15.828485
v 10.292754 5.349802 15.828485
v 10.292754 5.349802 15.828485
v 10.282630 5.346537 15.844937
v 10.282630 5.346537 15.844937
v 10.282630 5.346537 15.844937
v 10.254407 5.341966 15.826662
v 10.254407 5.341966 15.826662
v 10.254407 5.341966 15.826662
v 10.254407 5.341966 15.826662
v 10.264531 5.345232 15.810210
v 10.264531 5.345232 15.810210
v 10.264531 5.345232 15.810210
v 10.286592 5.347963 15.821461
v 10.286592 5.347963 15.821461
v 10.278830 5.042671 15.761566
v 10.278830 5.042671 15.761566
v 10.252535 5.045465 15.784760
v 10.252535 5.045465 15.784760
v 10.252535 5.045465 15.784760
v 10.252535 5.045465 15.784760
v 10.233300 5.048913 15.763529
v 10.233300 5.048913 15.763529
v 10.245808 5.047926 15.743205
v 10.245808 5.047926 15.743205
v 10.271213 5.044256 15.747203
v 10.149198 4.404178 15.853178
v 10.149198 4.404178 15.853178
v 10.149198 4.404178 15.853178
v 10.120428 4.416124 15.885038
v 10.120428 4.416124 15.885038
v 10.107013 4.420707 15.884534
v 10.107013 4.420707 15.884534
v 10.083783 4.426522 15.850721
v 10.083783 4.426522 15.850721
v 10.115635 4.416038 15.814900
v 10.115635 4.416038 15.814900
v 9.743109 3.580821 15.975277
v 9.743109 3.580821 15.975277
v 9.743109 3.580821 15.975277
v 9.743109 3.580821 15.975277
v 9.743109 3.580821 15.975277
v 9.743109 3.580821 15.975277
v 9.695339 3.596919 15.973497
v 9.695339 3.596919 15.973497
v 9.695339 3.596919 15.973497
v 9.695339 3.596919 15.973497
v 9.695339 3.596919 15.973497
v 9.695339 3.596919 15.973497
v 9.745808 3.579178 15.887969
v 9.745808 3.579178 15.887969
v 9.661484 3.078796 15.882937
v 9.661484 3.078796 15.882937
v 9.643138 3.076770 15.947512
v 9.643138 3.076770 15.947512
v 9.583593 3.082759 15.945139
v 9.583593 3.082759 15.945139
v 9.572492 3.084085 15.914834
v 9.572492 3.084085 15.914834
v 9.588161 3.087139 15.841596
v 9.588161 3.087139 15.841596
v 9.647705 3.081149 15.843968
v 9.647705 3.081149 15.843968
v 9.655808 2.281487 15.942058
v 9.655808 2.281487 15.942058
v 9.582013 2.281748 15.938998
v 9.582013 2.281748 15.938998
v 9.582013 2.281748 15.938998
v 9.587309 2.280582 15.811184
v 9.587309 2.280582 15.811184
v 9.661104 2.280321 15.814244
v 9.661104 2.280321 15.814244
v 9.661104 2.280321 15.814244
v 9.661104 2.280321 15.814244
v 9.694024 1.253154 15.921692
v 9.694024 1.253154 15.921692
v 9.646830 1.254565 15.996137
v 9.646830 1.254565 15.996137
v 9.558760 1.255882 15.992476
v 9.558760 1.255882 15.992476
v 9.539145 1.251377 15.936299
v 9.565079 1.254375 15.839924
v 9.565079 1.254375 15.839924
v 9.653149 1.253059 15.843585
v 9.653149 1.253059 15.843585
v 9.752974 -0.006729 15.898703
v 9.752974 -0.006729 15.898703
v 9.675492 -0.006729 16.017893
v 9.675492 -0.006729 16.017893
v 9.490618 -0.006729 15.834228
v 9.490618 -0.006729 15.834228
v 9.505260 -0.006729 15.770204
v 9.505260 -0.006729 15.770204
v 9.687030 -0.006729 15.726088
v 9.687030 -0.006729 15.726088
v 9.565725 6.617419 16.837399
v 9.565725 6.617419 16.837399
v 9.565725 6.617419 16.837399
v 9.565725 6.617419 16.837399
v 9.574970 6.614087 16.845936
v 9.574970 6.614087 16.845936
v 9.574970 6.614087 16.845936
v 9.574970 6.614087 16.845936
v 9.562449 6.613874 16.849485
v 9.562449 6.613874 16.849485
v 9.562449 6.613874 16.849485
v 9.562449 6.613874 16.849485
v 9.560460 6.616167 16.842613
v 9.560460 6.616167 16.842613
v 9.560460 6.616167 16.842613
v 9.560460 6.616167 16.842613
v 9.499518 5.590426 16.509336
v 9.499518 5.590426 16.509336
v 9.505845 5.591619 16.511684
v 9.505845 5.591619 16.511684
v 9.510105 5.584182 16.529940
v 9.510105 5.584182 16.529940
v 9.503492 5.581195 16.536005
v 9.503492 5.581195 16.536005
v 9.482058 5.580876 16.533499
v 9.482058 5.580876 16.533499
v 9.477551 5.586486 16.518087
v 9.477551 5.586486 16.518087
v 9.693689 4.831511 16.133017
v 9.693689 4.831511 16.133017
v 9.720878 4.832624 16.141069
v 9.720878 4.832624 16.141069
v 9.728183 4.825118 16.167442
v 9.728183 4.825118 16.167442
v 9.708300 4.816499 16.185762
v 9.708300 4.816499 16.185762
v 9.681112 4.815386 16.177710
v 9.681112 4.815386 16.177710
v 9.673807 4.822893 16.151337
v 9.673807 4.822893 16.151337
v 9.698038 3.595274 15.886194
v 9.698038 3.595274 15.886194
v 9.698038 3.595274 15.886194
v 9.698038 3.595274 15.886194
v 9.698038 3.595274 15.886194
v 9.756539 3.595031 15.896066
v 9.756539 3.595031 15.896066
v 9.768343 3.571950 15.932512
v 9.768343 3.571950 15.932512
v 9.768343 3.571950 15.932512
v 9.768343 3.571950 15.932512
v 9.768343 3.571950 15.932512
v 9.672805 3.604145 15.928956
v 9.672805 3.604145 15.928956
v 9.672805 3.604145 15.928956
v 9.672805 3.604145 15.928956
v 9.672805 3.604145 15.928956
v 9.672805 3.604145 15.928956
v 9.172539 1.652071 18.452391
v 10.930070 0.459014 17.276524
v 8.689980 2.924069 16.440533
v 10.447511 1.731012 15.264665
v 10.154528 1.236432 17.960522
v 9.625397 2.402618 15.889399
v 10.174350 1.988294 16.693724
v 10.747173 1.109733 16.342922
v 8.981918 2.325639 17.484064
v 7.646214 2.862385 14.257159
v 7.630145 1.356970 15.958249
v 9.634527 3.676703 14.996589
v 9.618458 2.171288 16.697680
v 7.534070 2.281550 15.182997
v 9.579303 2.993224 15.890830
v 8.629261 2.714451 15.899307
v 8.540738 1.785294 16.345905
v 8.590948 3.305510 14.658236
v 10.513079 3.529700 12.760748
v 8.869665 1.746822 13.997275
v 10.890085 4.943285 15.299975
v 9.246671 3.160407 16.536503
v 9.508404 2.844255 13.283085
v 9.976296 4.134939 15.881845
v 9.375494 3.625920 14.871149
v 8.978430 2.467953 15.181587
v 10.627374 4.276194 13.988976
v 11.571886 6.849037 15.250304
v 9.782071 7.311627 15.358182
v 11.146084 5.099864 15.686373
v 9.356269 5.562454 15.794251
v 10.741850 7.108736 15.464194
v 10.270388 5.346629 15.813285
v 10.314626 6.150756 15.867059
v 9.586362 6.494293 15.615945
v 11.368855 6.001428 15.516413
v 7.096705 2.258554 17.669512
v 9.878117 0.915212 17.223131
v 8.286798 5.214709 16.188740
v 11.068211 3.871368 15.742359
v 8.529607 1.736339 17.804890
v 8.529607 1.736339 17.804890
v 9.712347 4.603044 16.125237
v 9.623817 3.444658 17.159567
v 10.477669 2.353914 16.629314
v 7.717499 3.749270 17.051516
v 11.531070 4.086837 14.563786
v 10.321798 5.575799 16.303253
v 10.136429 2.481031 14.968785
v 8.927157 3.969992 16.708254
v 11.124842 4.708016 15.580644
v 9.614703 3.178163 15.914930
v 10.303855 3.842049 16.161415
v 9.712772 4.787047 16.555023
v 10.898535 3.269723 14.823488
v 12.305007 6.126278 16.293913
v 8.696846 6.500023 17.949886
v 11.465129 3.729376 15.004890
v 7.856967 4.103121 16.660864
v 10.730665 6.086199 17.433676
v 9.744546 3.815693 15.983303
v 9.960836 4.524423 17.130766
v 8.342051 5.294814 17.448841
v 11.936232 4.878323 15.772054
v 9.892402 6.177830 13.842590
v 13.381673 4.342076 16.864197
v 7.848591 3.414283 14.523758
v 11.337862 1.578529 17.545362
v 11.728913 5.110054 14.952101
v 9.654553 2.418195 15.870130
v 11.031011 3.112920 15.413825
v 12.468084 2.969752 17.085438
v 8.944051 4.756475 14.074189
v 11.255872 2.673526 16.937851
v 11.058830 1.568128 15.602084
v 9.691334 3.367200 16.594599
v 9.494291 2.261801 15.258832
v 11.233862 2.252439 16.206749
v 9.626310 2.867781 15.890550
v 10.341120 2.631610 15.782039
v 10.338983 1.929749 15.409016
v 10.509110 3.047707 16.738359
v 12.531710 2.733861 15.385893
v 11.648868 4.645963 14.849663
v 10.035160 1.760647 16.025873
v 9.152317 3.672750 15.489645
v 12.147554 3.724630 15.367464
v 12.147554 3.724630 15.367464
v 9.614645 2.743235 15.867680
v 10.598266 3.416729 15.882823
v 10.475473 4.210069 15.227201
v 11.315004 2.281400 15.775668
v 7.467890 4.466017 13.481387
v 7.769651 2.309193 14.002192
v 9.944164 5.295682 15.482514
v 10.245927 3.138860 16.003319
v 7.390970 3.346040 14.023977
v 7.390970 3.346040 14.023977
v 9.992064 4.197928 15.870708
v 9.992064 4.197928 15.870708
v 8.569396 4.023092 15.320242
v 8.569396 4.023092 15.320242
v 8.506302 4.847704 14.460407
v 8.870691 2.712624 15.034972
v 7.826530 6.334131 15.613582
v 7.413048 4.668664 14.049964
v 10.010620 4.759252 16.713484
v 9.597138 3.093785 15.149866
v 7.413787 5.321475 14.962489
v 7.413787 5.321475 14.962489
v 9.710581 3.844706 15.990419
v 8.525612 4.476629 15.863660
v 8.747824 5.589413 16.163183
v 8.389703 3.882216 14.629372
v 9.161379 2.960477 13.416625
v 8.200445 1.556751 14.704763
v 10.241570 3.884042 15.228871
v 9.280637 2.480316 16.517012
v 8.467856 2.358372 14.128807
v 9.664477 3.226958 15.904078
v 9.013472 3.117244 15.059973
v 9.590754 3.419835 14.237510
v 8.656608 2.041089 15.572854
v 7.869179 5.022472 17.622137
v 10.044023 5.971920 14.890614
v 8.640779 2.685046 17.424023
v 10.815622 3.634495 14.692498
v 8.735166 5.470987 15.910487
v 9.628569 3.148151 15.901097
v 8.746998 4.025562 15.828132
v 8.125381 3.955813 17.455368
v 10.318223 4.844199 14.716949
v 7.364033 2.124353 13.330311
v 6.111181 2.654360 16.508493
v 10.360766 3.209080 14.330742
v 9.107914 3.739086 17.508924
v 6.620629 2.662331 14.953664
v 9.681107 3.597709 15.936129
v 8.356619 3.433644 15.187206
v 8.685843 2.689229 13.757173
v 7.510247 3.249146 16.960821
v 8.516689 5.862119 14.669271
v 9.926238 7.051925 15.210596
v 9.448503 4.334748 15.600024
v 10.858051 5.524553 16.141350
v 9.388550 6.451368 14.745843
v 9.388550 6.451368 14.745843
v 10.229218 4.927391 15.783016
v 9.889441 5.451980 15.053323
v 8.971528 5.162797 15.021998
v 10.406087 6.312649 15.586017
v 7.717717 6.558725 16.256453
v 9.535482 7.389157 15.639546
v 8.696759 4.773468 16.738106
v 10.514524 5.603899 16.121201
v 8.650646 6.934682 15.728606
v 9.616976 5.171131 16.330246
v 9.017108 5.803373 15.893034
v 8.145793 5.737075 16.411772
v 9.988714 6.520711 15.805997
v 8.347524 6.979858 16.908789
v 9.654921 7.503785 16.731831
v 8.860107 5.660826 16.790541
v 10.167504 6.184752 16.613583
v 9.022413 7.267570 16.671862
v 9.523720 5.934569 16.634859
v 9.181142 6.485852 16.505707
v 8.570633 6.390460 16.812109
v 9.891178 6.880209 16.631100
v 8.241626 5.932570 16.912617
v 6.655585 3.481732 18.032133
v 10.338852 3.799709 15.214555
v 8.752811 1.348872 16.334072
v 7.619510 4.619810 17.815628
v 7.619510 4.619810 17.815628
v 9.622751 2.534164 15.929880
v 9.117653 3.623397 17.008661
v 9.251300 4.973839 16.244194
v 7.721233 2.467611 17.321749
v 12.062508 2.605042 14.264201
v 10.401212 1.222423 13.686490
v 10.528966 3.615693 16.255369
v 8.867670 2.233074 15.677658
v 11.089916 2.038798 13.794143
v 9.633687 2.980618 15.884393
v 10.298454 2.864738 14.835677
v 11.347919 3.111008 15.108194
v 9.646228 1.755799 14.581045
v 10.803119 3.526128 12.653371
v 7.808259 3.090370 13.952057
v 11.733743 4.729276 15.203156
v 8.738883 4.293518 16.501841
v 9.137391 3.511121 13.262272
v 10.159426 4.603066 15.834528
v 9.863751 4.401529 14.520607
v 11.199912 4.132586 13.771894
v 8.228736 3.729552 15.136176
v 13.086282 3.660158 15.013371
v 11.037563 2.347683 13.823044
v 11.216075 5.195216 16.539675
v 9.167356 3.882742 15.349348
v 11.991679 3.146308 14.175753
v 10.159426 4.603066 15.834528
v 11.111778 4.273852 14.974985
v 12.246529 4.406031 15.636291
v 10.149261 3.134681 14.484179
v 10.060202 5.754620 15.788527
v 10.060202 5.754620 15.788527
v 9.491263 7.039024 16.142658
v 9.491263 7.039024 16.142658
v 9.666697 6.416855 15.857141
v 9.666697 6.416855 15.857141
v 9.316314 6.767931 16.564865
v 9.405843 6.132680 16.402172
v 9.863690 7.231298 16.087948
v 10.201374 6.655055 15.701989
v 10.270577 5.877066 15.727278
v 9.830846 5.504822 16.110407
v 10.078069 6.416324 15.800691
v 10.078069 6.416324 15.800691
v 10.041700 7.202803 15.426192
v 10.041700 7.202803 15.426192
v 9.994088 6.853025 15.663370
v 9.994088 6.853025 15.663370
v 10.333784 7.231157 15.553251
v 10.358901 6.930327 15.813081
v 9.974604 7.100688 15.203083
v 9.860962 6.682679 15.370005
v 10.020226 6.360144 15.672959
v 10.308772 6.464954 15.954265
v 9.557970 6.575656 16.832542
v 9.557970 6.575656 16.832542
v 9.715819 7.342605 17.037819
v 9.715819 7.342605 17.037819
v 9.574881 7.003118 16.893602
v 9.574881 7.003118 16.893602
v 9.630684 7.247975 17.306057
v 9.467382 6.922486 17.241659
v 9.929789 7.331555 16.938438
v 9.858814 6.971548 16.712301
v 9.677659 6.577054 16.759451
v 9.437375 6.509910 17.054773
v 9.557758 5.286643 16.391966
v 9.557758 5.286643 16.391966
v 10.447072 6.786607 16.969868
v 10.447072 6.786607 16.969868
v 9.977921 6.028940 16.875891
v 9.977921 6.028940 16.875891
v 10.986250 6.441927 16.758924
v 10.705694 5.658115 16.652842
v 10.121599 7.105249 16.687349
v 9.430527 6.433418 16.520401
v 9.344344 5.481560 16.258677
v 10.038956 4.948683 16.316177
v 10.037789 4.292561 15.893579
v 10.037789 4.292561 15.893579
v 10.883302 5.405785 16.048914
v 10.883302 5.405785 16.048914
v 10.441487 4.894383 16.162895
v 10.441487 4.894383 16.162895
v 10.441487 4.894383 16.162895
v 11.301674 4.982820 15.917521
v 11.013463 4.410734 16.021351
v 10.635075 5.649007 15.702761
v 10.015679 5.230702 15.730129
v 10.015679 5.230702 15.730129
v 9.874477 4.453577 15.720544
v 10.409986 3.918399 15.893071
v 9.794720 3.757058 15.937288
v 11.333640 2.012135 17.617781
v 11.333640 2.012135 17.617781
v 10.664168 2.753349 16.635340
v 11.947111 2.852816 17.725901
v 11.529543 3.732414 16.837917
v 10.677661 1.638410 17.915052
v 9.649368 2.206754 16.930193
v 9.400806 3.495048 16.086248
v 10.420611 4.470635 15.934296
v 10.578417 6.912234 16.742142
v 9.997216 7.397888 15.757884
v 10.455882 5.775683 16.253698
v 9.874681 6.261336 15.269442
v 10.121599 7.132016 16.367863
v 10.121599 7.132016 16.367863
v 10.074143 6.021405 15.787889
v 9.881805 6.843259 15.552368
v 10.459635 6.334956 16.527441
v 9.974547 6.573799 16.149609
v 11.106468 4.615598 16.779066
v 10.254616 5.593786 16.317215
v 10.571956 3.807660 16.053749
v 9.720102 4.785849 15.591898
v 10.534463 5.037194 16.756001
v 10.534463 5.037194 16.756001
v 10.056578 4.293049 15.904191
v 10.056578 4.293049 15.904191
v 9.944358 5.187352 16.028652
v 10.784731 4.192860 16.477140
v 10.184957 4.635972 16.473194
v 10.184957 4.635972 16.473194
v 10.139679 5.967035 17.849966
v 7.889831 3.716368 18.862598
v 10.656944 4.299125 15.292138
v 8.407097 2.048458 16.304771
v 9.401197 4.654489 18.580410
v 9.401197 4.654489 18.580410
v 9.645137 3.027364 15.927624
v 8.248163 2.835516 17.700962
v 10.510091 5.051824 16.638802
v 9.759463 3.689115 17.439163
v 11.224762 5.495669 13.895012
v 10.390581 6.879300 15.010057
v 10.556848 4.102208 15.124447
v 9.722667 5.485840 16.239492
v 10.214989 4.850325 15.779782
v 11.019588 6.236263 14.607760
v 11.019588 6.236263 14.607760
v 10.861160 5.540451 15.217207
v 10.941541 4.758365 14.598032
v 10.108551 6.144716 15.710595
v 8.023912 5.133759 14.542980
v 8.755451 6.468390 15.811874
v 9.583019 3.592242 15.265506
v 10.314558 4.926872 16.534401
v 10.049341 4.344761 15.852103
v 8.571938 5.916421 15.002261
v 8.571938 5.916421 15.002261
v 9.369757 5.189627 15.185476
v 8.914362 4.339380 14.865154
v 9.642756 5.676985 16.132734
v 11.669476 2.095024 14.151936
v 9.715559 0.681203 14.153069
v 10.722588 3.405069 15.943273
v 8.768671 1.991247 15.944407
v 9.631470 2.723255 15.860361
v 10.547034 1.520913 13.967916
v 10.116314 2.278009 14.710065
v 11.125457 2.847584 15.049971
v 9.173456 1.431112 15.047687
v 12.632590 3.487251 15.566441
v 12.280926 3.884465 17.307446
v 10.463128 4.744359 14.841422
v 10.111465 5.141572 16.582428
v 10.214989 4.850325 15.779782
v 12.316158 3.459355 16.491720
v 12.316158 3.459355 16.491720
v 11.235543 3.908145 16.096487
v 11.427098 4.083405 15.186932
v 11.079760 4.478275 16.929344
vn 0.8434 0.0017 -0.5372
vn 0.7929 0.1597 -0.5880
vn 0.7934 0.1584 -0.5877
vn 0.8435 0.0017 -0.5372
vn 0.4681 -0.0012 0.8837
vn 0.5544 0.1737 0.8139
vn 0.5722 0.2163 0.7911
vn -0.5659 0.0042 0.8244
vn -0.5369 -0.0974 0.8380
vn -0.5424 -0.0798 0.8363
vn -0.9403 0.0196 0.3398
vn -0.6161 0.0168 -0.7875
vn -0.6814 -0.1907 -0.7066
vn -0.6817 -0.1921 -0.7059
vn 0.0456 0.0111 -0.9989
vn 0.1971 0.0520 -0.9790
vn 0.1977 0.0522 -0.9789
vn 0.7804 0.2093 -0.5892
vn 0.7886 0.1935 -0.5836
vn 0.6294 0.3846 0.6752
vn 0.6293 0.3846 0.6753
vn -0.5247 -0.1454 0.8388
vn -0.5185 -0.1463 0.8425
vn -0.7099 -0.3881 -0.5877
vn 0.3226 0.1488 -0.9348
vn 0.3237 0.1459 -0.9348
vn 0.8536 -0.0793 -0.5148
vn 0.6645 -0.0458 -0.7459
vn 0.7241 -0.1909 0.6628
vn 0.7150 -0.1134 0.6898
vn 0.7151 -0.1138 0.6897
vn 0.7241 -0.1909 0.6627
vn -0.7492 0.0892 0.6563
vn -0.5248 -0.1454 0.8387
vn -0.7552 0.0924 0.6489
vn -0.8440 0.1691 -0.5089
vn -0.8101 0.1307 -0.5715
vn -0.8105 0.1311 -0.5709
vn 0.4293 -0.0090 -0.9031
vn 0.4468 -0.2310 -0.8643
vn 0.7279 -0.1599 0.6668
vn 0.7271 -0.1551 0.6688
vn 0.0155 0.1542 0.9879
vn 0.0074 0.1308 0.9914
vn 0.0074 0.1307 0.9914
vn -0.7480 0.3468 0.5659
vn -0.7482 0.3507 0.5632
vn -0.7570 0.1979 -0.6227
vn -0.7545 0.2109 -0.6214
vn 0.4514 -0.2296 -0.8623
vn 0.7878 -0.4048 -0.4642
vn 0.8526 -0.2800 -0.4412
vn 0.8540 -0.2768 -0.4405
vn 0.7410 -0.2746 0.6128
vn -0.0007 0.1077 0.9942
vn -0.7487 0.4258 0.5081
vn -0.7302 0.3129 -0.6074
vn 0.2135 -0.0832 -0.9734
vn 0.2115 -0.0813 -0.9740
vn 0.9937 -0.0894 -0.0677
vn 0.9268 -0.0583 -0.3711
vn 0.8998 -0.2160 0.3791
vn 0.9617 -0.1069 0.2524
vn 0.9937 -0.0894 -0.0676
vn -0.0479 -0.0450 0.9978
vn -0.0445 -0.0262 0.9987
vn -0.0444 -0.0262 0.9987
vn -0.0480 -0.0450 0.9978
vn -0.8923 0.1657 0.4199
vn -0.9921 0.0954 0.0816
vn -0.9194 0.0841 0.3843
vn -0.8923 0.1657 0.4200
vn -0.9193 0.2070 -0.3346
vn -0.9696 0.1025 -0.2222
vn -0.9921 0.0955 0.0816
vn -0.9193 0.2071 -0.3347
vn 0.0483 0.0570 -0.9972
vn 0.0483 0.0569 -0.9972
vn 0.9838 0.0167 0.1783
vn 0.9822 0.0166 0.1873
vn 0.9839 0.0168 0.1782
vn -0.0413 0.0228 0.9989
vn -0.9942 0.0127 -0.1072
vn -0.9926 0.0125 -0.1209
vn 0.0419 0.0042 -0.9991
vn 0.0420 0.0042 -0.9991
vn 0.8858 -0.0201 -0.4636
vn 0.9041 0.0192 -0.4268
vn 0.9038 0.0184 -0.4275
vn 0.9152 0.0303 0.4019
vn 0.9156 0.0303 0.4010
vn 0.0682 0.0450 0.9967
vn 0.0712 0.0448 0.9965
vn -0.9946 0.0315 0.0993
vn -0.9310 0.0190 0.3644
vn -0.9808 0.0438 -0.1902
vn -0.0548 0.0238 -0.9982
vn -0.0546 0.0237 -0.9982
vn 0.9185 0.0557 -0.3914
vn 0.8406 0.0289 0.5410
vn 0.8405 0.0289 0.5410
vn 0.1792 0.0364 0.9831
vn 0.1793 0.0364 0.9831
vn -0.9153 -0.0011 0.4028
vn -0.9681 0.0583 -0.2438
vn -0.1475 0.0748 -0.9862
vn -0.4801 0.2967 -0.8255
vn -0.5308 0.2649 -0.8050
vn -0.5274 0.2671 -0.8065
vn -0.4798 0.2998 -0.8246
vn 0.2887 0.2744 -0.9173
vn 0.2644 0.3670 -0.8918
vn 0.2566 0.3941 -0.8825
vn 0.9024 0.0775 -0.4239
vn 0.9367 0.2108 -0.2795
vn 0.9361 0.2056 -0.2854
vn 0.9026 0.0795 -0.4231
vn 0.4679 -0.2836 0.8370
vn 0.5926 -0.2103 0.7776
vn 0.4680 -0.2836 0.8370
vn -0.1072 -0.2832 0.9531
vn -0.1421 -0.3673 0.9192
vn -0.1434 -0.3704 0.9177
vn -0.9609 -0.0098 0.2766
vn -0.9604 -0.1671 0.2231
vn -0.9604 -0.1671 0.2230
vn -0.6968 0.1752 -0.6955
vn -0.6974 0.1749 -0.6950
vn 0.2170 0.3399 -0.9151
vn 0.2169 0.3391 -0.9154
vn 0.9588 0.2062 -0.1954
vn 0.9589 0.2058 -0.1956
vn 0.7542 -0.1074 0.6478
vn 0.7544 -0.1073 0.6475
vn -0.1709 -0.3123 0.9345
vn -0.1708 -0.3117 0.9347
vn -0.9416 -0.1969 0.2730
vn -0.9416 -0.1965 0.2734
vn -0.7991 0.1118 -0.5907
vn 0.1990 0.1942 -0.9606
vn 0.9638 0.0785 -0.2550
vn 0.8015 -0.0818 0.5923
vn 0.8015 -0.0819 0.5923
vn -0.1611 -0.1676 0.9726
vn -0.9246 -0.0705 0.3744
vn 0.0683 0.9522 0.2978
vn 0.0682 0.9522 0.2977
vn 0.1428 0.9890 -0.0387
vn 0.5125 0.7411 0.4336
vn 0.6652 0.6512 0.3653
vn 0.6757 0.7032 0.2212
vn 0.5048 0.7900 0.3479
vn 0.6144 0.7751 0.1472
vn 0.8005 0.5764 0.1642
vn 0.7508 0.6601 0.0247
vn 0.4887 0.8395 0.2377
vn 0.8220 0.5059 0.2615
vn -0.5349 0.7506 0.3878
vn -0.5637 0.6312 0.5328
vn -0.4389 0.6503 0.6201
vn -0.4514 0.7811 0.4315
vn -0.3359 0.7118 0.6168
vn -0.4681 0.5007 0.7282
vn -0.3132 0.5586 0.7680
vn -0.3427 0.8079 0.4795
vn -0.5711 0.4501 0.6865
vn -0.6333 0.6784 -0.3723
vn -0.7860 0.5408 -0.2994
vn -0.8015 0.5811 -0.1414
vn -0.6328 0.7226 -0.2784
vn -0.7489 0.6602 -0.0580
vn -0.9104 0.4051 -0.0837
vn -0.8686 0.4906 0.0699
vn -0.6225 0.7667 -0.1569
vn -0.9220 0.3369 -0.1906
vn 0.3243 0.2272 0.9183
vn 0.1497 0.2978 0.9428
vn 0.0667 0.1749 0.9823
vn 0.2908 0.1385 0.9467
vn 0.0823 0.0566 0.9950
vn -0.1000 0.2568 0.9613
vn -0.1311 0.0915 0.9871
vn 0.2454 0.0276 0.9690
vn -0.0757 0.3709 0.9256
vn 0.0205 0.3576 0.9337
vn 0.0205 0.3577 0.9336
vn 0.3601 0.3589 0.8611
vn 0.0751 0.4496 0.8901
vn 0.3555 0.4857 0.7986
vn 0.5464 0.1950 0.8145
vn 0.5956 0.3633 0.7164
vn 0.1421 0.5563 0.8187
vn 0.4985 0.0718 0.8639
vn 0.4985 0.0719 0.8639
vn 0.7572 -0.3936 0.5213
vn 0.6929 -0.2616 0.6720
vn 0.5432 -0.3643 0.7564
vn 0.6684 -0.4882 0.5611
vn 0.4577 -0.5052 0.7316
vn 0.4639 -0.2047 0.8619
vn 0.3137 -0.3675 0.8755
vn 0.5476 -0.5885 0.5948
vn 0.5636 -0.0731 0.8228
vn 0.5505 -0.4327 0.7139
vn 0.3757 -0.3969 0.8375
vn 0.2388 -0.5834 0.7763
vn 0.4908 -0.5781 0.6518
vn 0.2341 -0.7367 0.6343
vn 0.0569 -0.5078 0.8596
vn -0.0147 -0.7107 0.7033
vn 0.4051 -0.7245 0.5576
vn 0.1116 -0.3189 0.9412
vn 0.3217 -0.3346 -0.8858
vn 0.4596 -0.3829 -0.8014
vn 0.4030 -0.5512 -0.7306
vn 0.2547 -0.4469 -0.8575
vn 0.2660 -0.6402 -0.7207
vn 0.5310 -0.5693 -0.6277
vn 0.3893 -0.7201 -0.5744
vn 0.1717 -0.5667 -0.8058
vn 0.6262 -0.4312 -0.6496
vn 0.5069 0.7480 -0.4283
vn 0.5126 0.6334 -0.5797
vn 0.3783 0.6597 -0.6494
vn 0.4197 0.7827 -0.4597
vn 0.2788 0.7242 -0.6307
vn 0.3880 0.5135 -0.7654
vn 0.2314 0.5777 -0.7828
vn 0.3067 0.8146 -0.4922
vn 0.4937 0.4582 -0.7391
vn 0.2827 0.1066 0.9533
vn 0.0511 0.3321 0.9419
vn 0.1915 0.0877 0.9776
vn -0.0311 0.2530 0.9670
vn 0.0003 0.5454 0.8382
vn -0.1531 0.4696 0.8695
vn 0.0707 0.0620 0.9956
vn 0.1030 0.5869 0.8031
vn -0.7431 0.3949 0.5402
vn -0.6107 0.4323 0.6635
vn -0.6544 0.4221 0.6273
vn -0.4440 -0.1608 0.8815
vn -0.5255 -0.2130 0.8237
vn -0.5476 -0.2274 0.8052
vn -0.5035 0.4498 0.7377
vn -0.6199 -0.2757 0.7346
vn -0.6463 -0.1423 0.7497
vn -0.5930 -0.4452 0.6709
vn -0.5610 -0.2171 0.7989
vn -0.5017 -0.5277 0.6854
vn -0.6448 -0.6259 0.4386
vn -0.5378 -0.6764 0.5033
vn -0.4247 -0.3182 0.8476
vn -0.7216 -0.5776 0.3815
vn -0.6744 0.7268 -0.1300
vn -0.8157 0.5758 0.0547
vn -0.7245 0.6730 0.1488
vn -0.6238 0.7812 -0.0246
vn -0.6729 0.6910 0.2642
vn -0.8336 0.4737 0.2841
vn -0.7557 0.5379 0.3737
vn -0.5377 0.8345 0.1204
vn -0.8862 0.4146 0.2069
vn -0.9088 -0.0559 -0.4136
vn -0.7568 -0.0174 -0.6534
vn -0.7380 -0.2511 -0.6264
vn -0.8559 -0.2596 -0.4473
vn -0.6201 -0.4209 -0.6621
vn -0.5626 -0.1602 -0.8111
vn -0.5009 -0.3493 -0.7919
vn -0.7399 -0.4900 -0.4609
vn -0.5986 0.0132 -0.8009
vn -0.2732 0.8489 -0.4525
vn -0.3370 0.9036 -0.2643
vn -0.2104 0.9414 -0.2638
vn -0.1799 0.8904 -0.4181
vn -0.1287 0.9704 -0.2044
vn -0.2943 0.9518 -0.0863
vn -0.1892 0.9796 -0.0677
vn -0.0516 0.9299 -0.3642
vn -0.3788 0.9200 -0.1011
vn 0.1862 -0.2631 -0.9466
vn 0.5004 -0.2680 -0.8232
vn 0.2682 -0.3799 -0.8853
vn 0.5894 -0.3516 -0.7273
vn 0.6929 -0.0520 -0.7192
vn 0.7399 -0.1864 -0.6463
vn 0.3680 -0.5218 -0.7696
vn 0.6404 0.0605 -0.7656
vn -0.4190 -0.3102 -0.8534
vn -0.1912 -0.2348 -0.9531
vn -0.1615 -0.3873 -0.9077
vn -0.3552 -0.4230 -0.8336
vn -0.0710 -0.4744 -0.8774
vn 0.0450 -0.2627 -0.9638
vn 0.0893 -0.3819 -0.9199
vn -0.2600 -0.5629 -0.7846
vn 0.0075 -0.1602 -0.9871
vn -0.4043 0.0623 -0.9125
vn -0.1648 0.1403 -0.9763
vn -0.1540 -0.0208 -0.9879
vn -0.3541 -0.0570 -0.9335
vn -0.0751 -0.1231 -0.9895
vn 0.0672 0.0901 -0.9937
vn 0.0961 -0.0413 -0.9945
vn -0.2772 -0.2154 -0.9364
vn 0.0423 0.1979 -0.9793
vn 0.6366 0.2715 0.7218
vn 0.6364 0.2715 0.7220
vn 0.6533 -0.0412 0.7560
vn 0.7248 0.1813 0.6646
vn 0.7061 -0.1517 0.6917
vn 0.4723 -0.2485 0.8457
vn 0.5675 -0.3164 0.7601
vn 0.8231 0.0525 0.5655
vn 0.3862 -0.1889 0.9029
vn -0.0859 0.7801 -0.6197
vn -0.3145 0.6393 -0.7017
vn -0.3646 0.7235 -0.5862
vn -0.1577 0.8255 -0.5420
vn -0.4460 0.7377 -0.5069
vn -0.5369 0.5301 -0.6563
vn -0.5871 0.5871 -0.5574
vn -0.2561 0.8710 -0.4193
vn -0.4907 0.4787 -0.7280
vn -0.1430 0.8665 -0.4782
vn -0.3157 0.8634 -0.3936
vn -0.2420 0.9215 -0.3037
vn -0.1144 0.9154 -0.3859
vn -0.2351 0.9505 -0.2030
vn -0.4096 0.8794 -0.2426
vn -0.3603 0.9200 -0.1544
vn -0.0749 0.9634 -0.2575
vn -0.4471 0.8374 -0.3144
vn 0.2351 0.7154 -0.6580
vn 0.0291 0.6220 -0.7825
vn -0.0327 0.7262 -0.6867
vn 0.1512 0.7848 -0.6010
vn -0.1333 0.7643 -0.6309
vn -0.2015 0.5796 -0.7896
vn -0.2677 0.6532 -0.7083
vn 0.0329 0.8603 -0.5088
vn -0.1450 0.5120 -0.8467
vn -0.2549 -0.0528 -0.9655
vn -0.3162 0.1510 -0.9366
vn -0.3163 0.1516 -0.9365
vn -0.2548 -0.0528 -0.9655
vn -0.8346 -0.1711 -0.5236
vn -0.9029 -0.0376 -0.4283
vn -0.9028 -0.0376 -0.4284
vn -0.8354 -0.1699 -0.5228
vn -0.3600 0.3339 -0.8711
vn -0.7390 -0.3005 -0.6030
vn -0.7390 -0.3004 -0.6030
vn -0.9019 -0.0395 0.4302
vn -0.9374 0.1407 0.3186
vn -0.9374 0.1412 0.3182
vn -0.4450 0.4115 0.7954
vn -0.3957 0.5661 0.7231
vn -0.4446 0.4129 0.7949
vn -0.9317 0.3019 0.2019
vn -0.4805 0.2422 0.8429
vn -0.5205 0.1396 -0.8424
vn -0.4601 0.3445 -0.8183
vn -0.4599 0.3450 -0.8182
vn -0.5205 0.1397 -0.8424
vn -0.9204 0.3055 -0.2440
vn -0.8811 0.4494 -0.1476
vn -0.9202 0.3069 -0.2432
vn -0.3851 0.5202 -0.7623
vn -0.9306 0.1504 -0.3336
vn -0.9306 0.1504 -0.3337
vn -0.6175 -0.1549 0.7712
vn -0.5453 0.0364 0.8374
vn -0.5451 0.0369 0.8376
vn 0.0767 -0.3467 0.9348
vn 0.2016 -0.2218 0.9540
vn 0.2015 -0.2218 0.9540
vn 0.0778 -0.3456 0.9351
vn -0.4559 0.2123 0.8643
vn -0.0518 -0.4617 0.8855
vn -0.6644 0.1131 0.7388
vn -0.6643 0.1131 0.7389
vn -0.6640 0.1131 0.7391
vn -0.6643 0.1131 0.7388
vn 0.0888 -0.1326 0.9872
vn 0.2734 0.0091 0.9619
vn 0.1003 -0.1241 0.9872
vn -0.3835 0.5505 0.7415
vn -0.3836 0.5505 0.7415
vn -0.0940 -0.2625 0.9603
vn 0.2591 -0.4192 -0.8701
vn 0.3359 -0.5114 -0.7910
vn 0.1178 -0.6547 -0.7466
vn 0.0467 -0.5418 -0.8392
vn 0.5318 -0.3372 -0.7768
vn 0.6155 -0.3825 -0.6891
vn 0.6154 -0.3825 -0.6891
vn 0.1787 -0.7409 -0.6474
vn 0.1786 -0.7409 -0.6474
vn 0.4383 -0.2857 -0.8522
vn -0.6564 -0.1298 0.7431
vn -0.6565 -0.1296 0.7431
vn -0.8815 -0.1404 0.4509
vn -0.7115 -0.2600 0.6528
vn -0.8858 -0.2836 0.3673
vn -0.9783 -0.0195 0.2063
vn -0.9689 -0.1772 0.1729
vn -0.7455 -0.3780 0.5489
vn -0.9624 0.1378 0.2342
vn -0.2992 -0.3781 0.8761
vn -0.2992 -0.3780 0.8761
vn -0.4340 -0.4810 0.7618
vn -0.4403 -0.4856 0.7552
vn -0.8831 -0.1716 0.4367
vn -0.8308 0.0030 0.5566
vn -0.8347 -0.0068 0.5506
vn -0.5560 -0.5674 0.6074
vn -0.5560 -0.5673 0.6075
vn -0.7504 0.1591 0.6416
vn 0.8652 -0.2252 0.4481
vn 0.8652 -0.2252 0.4480
vn 0.7253 -0.5253 0.4450
vn 0.8744 -0.3439 0.3424
vn 0.7308 -0.6074 0.3114
vn 0.5302 -0.6769 0.5106
vn 0.5731 -0.7299 0.3725
vn 0.8622 -0.4501 0.2326
vn 0.4750 -0.6085 0.6357
vn 0.4751 -0.6085 0.6357
vn 0.6627 0.0938 0.7430
vn 0.7550 -0.0488 0.6539
vn 0.8377 0.0467 0.5441
vn 0.6912 0.2117 0.6909
vn 0.9624 -0.0526 0.2664
vn 0.9004 -0.1393 0.4122
vn 0.8259 -0.2085 0.5239
vn 0.7095 0.3446 0.6147
vn 0.7095 0.3445 0.6147
vn 0.7985 0.3472 -0.4917
vn 0.7475 0.2113 -0.6297
vn 0.6464 0.2958 -0.7034
vn 0.7401 0.4487 -0.5010
vn 0.4190 0.1685 -0.8922
vn 0.5550 0.1043 -0.8253
vn 0.6552 0.0497 -0.7538
vn 0.6567 0.5619 -0.5030
vn -0.6200 0.5633 -0.5461
vn -0.5019 0.6700 -0.5470
vn -0.4333 0.6185 -0.6555
vn -0.6076 0.4887 -0.6261
vn -0.4047 0.5402 -0.7378
vn -0.2766 0.7306 -0.6242
vn -0.1808 0.6678 -0.7221
vn -0.3522 0.7706 -0.5312
vn -0.5838 0.3941 -0.7098
vn -0.6577 -0.7045 0.2667
vn -0.6392 -0.7667 0.0602
vn -0.5313 -0.8440 0.0738
vn -0.5867 -0.7386 0.3320
vn -0.3510 -0.9151 -0.1985
vn -0.4860 -0.8545 -0.1835
vn -0.5846 -0.7936 -0.1688
vn -0.4902 -0.7701 0.4081
vt 0.966382 8.503631
vt 0.966382 6.725045
vt 0.810921 6.725045
vt 0.810921 8.503631
vt 0.189079 8.503631
vt 0.189079 6.725048
vt 0.033618 6.725048
vt 0.033618 8.503633
vt 0.344539 8.503631
vt 0.344539 6.725048
vt 0.500000 8.503631
vt 0.655461 8.503631
vt 0.655461 6.725048
vt 0.500000 6.725048
vt 0.966382 4.946462
vt 0.810921 4.946462
vt 0.189079 4.946462
vt 0.033618 4.946462
vt 0.344539 4.946462
vt 0.655461 4.946462
vt 0.500000 4.946462
vt 0.966382 3.167876
vt 0.810921 3.167876
vt 0.189079 3.167876
vt 0.033618 3.167878
vt 0.500000 3.167876
vt 0.344539 3.167876
vt 0.655461 3.167876
vt 0.810921 1.389293
vt 0.189079 1.389293
vt 0.033618 1.389293
vt 0.344539 1.389293
vt 0.500000 1.389293
vt 0.655461 1.389293
vt 0.966382 1.389293
vt 0.966382 -0.389294
vt 0.810921 -0.389293
vt 0.189079 -0.389293
vt 0.033618 -0.389292
vt 0.344539 -0.389293
vt 0.500000 -0.389293
vt 0.655461 -0.389293
vt 0.966382 -2.167878
vt 0.810921 -2.167878
vt 0.189079 -2.167876
vt 0.033618 -2.167876
vt 0.344539 -2.167877
vt 0.500000 -2.167877
vt 0.655461 -2.167877
vt 0.810921 -3.946462
vt 0.189079 -3.946462
vt 0.033618 -3.946462
vt 0.344539 -3.946462
vt 0.655461 -3.946462
vt 0.500000 -3.946462
vt 0.966382 -3.946462
vt 0.966382 -5.725047
vt 0.810921 -5.725047
vt 0.189079 -5.725045
vt 0.033618 -5.725045
vt 0.344539 -5.725046
vt 0.500000 -5.725046
vt 0.655461 -5.725046
vt 0.966382 -7.503632
vt 0.810921 -7.503630
vt 0.189079 -7.503630
vt 0.033618 -7.503630
vt 0.344539 -7.503630
vt 0.500000 -7.503630
vt 0.655461 -7.503630
vt 0.000000 0.000000
vt 0.475004 0.000000
vt 0.581436 0.594393
vt 0.000000 0.491831
vt 0.494355 1.000000
vt 1.000000 0.474417
vt 1.000000 1.000000
vt 0.000000 1.000000
vt 1.000000 0.000000
vt 0.533479 0.000000
vt 0.447807 0.563622
vt 0.000000 0.448746
vt 0.515396 1.000000
vt 1.000000 0.474699
vt 0.509433 1.000000
vt 0.557025 0.488493
vt 0.943530 0.531260
vt 0.672370 1.000000
vt 0.124045 0.440587
vt 0.259966 0.000000
vt 0.602475 0.000000
vt 0.860970 0.000000
vt 0.189556 1.000000
vt 0.480173 0.000000
vt 0.499095 0.494221
vt 0.000000 0.504135
vt 0.518459 1.000000
vt 1.000000 0.484268
vt 0.532232 1.000000
vt 0.477364 0.470556
vt 1.000000 0.533264
vt 0.516556 0.000000
vt 0.000000 0.535225
s 1
usemtl trunk-01-1
f 5/1/1 18/2/2 27/3/3
f 5/1/1 27/3/3 16/4/4
f 9/5/5 20/6/6 17/7/7
f 9/5/5 17/7/7 4/8/5
f 7/9/8 23/10/9 19/6/10
s 0
f 10/11/11 21/10/11 6/9/11
s 1
f 13/12/12 24/13/13 22/14/14
f 13/12/12 22/14/14 11/11/12
f 14/4/15 26/3/16 25/13/17
f 18/2/2 30/15/18 42/16/19
f 18/2/2 42/16/19 27/3/3
f 20/6/6 32/17/20 28/18/21
f 20/6/6 28/18/21 17/7/7
f 23/10/9 36/19/22 31/17/23
f 23/10/9 31/17/23 19/6/10
f 24/13/13 39/20/24 35/21/24
f 24/13/13 35/21/24 22/14/14
f 26/3/16 41/16/25 40/20/26
f 26/3/16 40/20/26 25/13/17
f 30/15/18 44/22/27 53/23/28
f 30/15/18 53/23/28 42/16/19
f 33/17/29 48/24/30 43/25/31
f 33/17/29 43/25/31 29/18/32
f 36/19/22 45/24/33 31/17/23
f 37/21/34 50/26/35 46/27/33
f 38/20/36 51/28/37 49/26/38
f 38/20/36 49/26/38 34/21/36
f 41/16/25 53/23/28 52/28/39
f 41/16/25 52/28/39 40/20/26
f 44/22/27 54/29/40 53/23/28
f 48/24/30 58/30/41 55/31/42
f 48/24/30 55/31/42 43/25/31
f 47/27/43 60/32/44 57/30/45
f 50/26/35 62/33/46 59/32/47
f 50/26/35 59/32/47 46/27/33
f 51/28/37 63/34/48 61/33/49
f 51/28/37 61/33/49 49/26/38
f 53/23/28 54/29/40 64/34/50
f 53/23/28 64/34/50 52/28/39
f 56/35/51 172/36/52 78/37/53
f 58/30/41 68/38/54 170/39/54
f 58/30/41 170/39/54 55/31/42
f 60/32/44 76/40/55 67/38/55
f 60/32/44 67/38/55 57/30/45
f 62/33/46 179/41/56 73/40/56
f 62/33/46 73/40/56 59/32/47
f 63/34/48 165/42/57 180/41/57
f 63/34/48 180/41/57 61/33/49
f 54/29/40 77/37/58 167/42/59
f 54/29/40 167/42/59 64/34/50
f 172/36/52 80/43/60 90/44/61
f 172/36/52 90/44/61 78/37/53
f 70/38/62 82/45/63 79/46/64
f 70/38/62 79/46/64 173/39/62
f 75/40/65 84/47/66 81/45/67
f 75/40/65 81/45/67 66/38/68
f 177/41/69 86/48/70 83/47/71
f 177/41/69 83/47/71 72/40/72
f 163/42/73 87/49/74 85/48/75
f 163/42/73 85/48/75 176/41/76
f 77/37/58 89/44/77 88/49/78
f 77/37/58 88/49/78 167/42/59
f 80/43/60 101/50/79 90/44/61
f 82/45/63 92/51/80 100/52/81
f 82/45/63 100/52/81 79/46/64
f 84/47/66 95/53/82 91/51/82
f 84/47/66 91/51/82 81/45/67
f 86/48/70 93/53/83 83/47/71
f 87/49/74 96/54/84 94/55/83
f 87/49/74 94/55/83 85/48/75
f 89/44/77 98/50/85 97/54/86
f 89/44/77 97/54/86 88/49/78
f 99/56/87 102/57/88 112/58/89
f 92/51/80 105/59/90 103/60/91
f 92/51/80 103/60/91 100/52/81
f 95/53/82 107/61/92 104/59/93
f 95/53/82 104/59/93 91/51/82
f 94/55/83 108/62/94 106/61/95
f 96/54/84 109/63/96 108/62/94
f 96/54/84 108/62/94 94/55/83
f 98/50/85 111/58/97 110/63/98
f 98/50/85 110/63/98 97/54/86
f 102/57/88 114/64/99 122/65/99
f 102/57/88 122/65/99 112/58/89
f 105/59/90 116/66/100 113/67/101
f 105/59/90 113/67/101 103/60/91
f 107/61/92 2/68/102 115/66/103
f 107/61/92 115/66/103 104/59/93
f 108/62/94 118/69/104 1/68/104
f 108/62/94 1/68/104 106/61/95
f 109/63/96 119/70/105 117/69/105
f 109/63/96 117/69/105 108/62/94
f 111/58/97 121/65/106 120/70/106
f 111/58/97 120/70/106 110/63/98
f 123/1/107 139/22/108 150/23/109
f 123/1/107 150/23/109 136/4/110
f 125/5/111 141/24/112 140/25/113
f 130/9/114 144/27/115 142/24/116
f 130/9/114 142/24/116 126/5/117
f 134/11/118 146/26/119 143/27/119
f 134/11/118 143/27/119 129/9/120
f 132/12/121 148/28/122 145/26/123
f 135/4/124 149/23/125 147/28/126
f 135/4/124 147/28/126 131/12/124
f 139/22/108 151/43/127 162/44/128
f 139/22/108 162/44/128 150/23/109
f 141/24/112 153/45/129 152/46/130
f 141/24/112 152/46/130 140/25/113
f 144/27/115 156/47/131 154/45/132
f 144/27/115 154/45/132 142/24/116
f 146/26/119 158/48/133 155/47/134
f 146/26/119 155/47/134 143/27/119
f 148/28/122 160/49/135 157/48/136
f 148/28/122 157/48/136 145/26/123
f 149/23/125 161/44/137 159/49/138
f 149/23/125 159/49/138 147/28/126
f 151/43/127 164/64/139 178/65/139
f 151/43/127 178/65/139 162/44/128
f 153/45/129 168/66/140 166/67/140
f 153/45/129 166/67/140 152/46/130
f 156/47/131 174/68/141 169/66/141
f 156/47/131 169/66/141 154/45/132
f 158/48/133 69/69/142 171/68/143
f 158/48/133 171/68/143 155/47/134
f 160/49/135 74/70/144 65/69/144
f 160/49/135 65/69/144 157/48/136
f 161/44/137 175/65/145 71/70/145
f 161/44/137 71/70/145 159/49/138
s 0
f 138/4/146 133/12/146 128/9/146
f 137/4/147 127/9/147 124/5/147
s 1
f 15/12/148 12/11/148 8/9/148
f 15/12/148 8/9/148 3/8/148
usemtl branch-02-1
f 181/71/149 185/72/150 187/73/151
f 181/71/149 187/73/151 189/74/152
f 186/75/153 187/73/151 188/76/154
f 186/75/153 188/76/154 184/77/155
f 189/74/152 187/73/151 186/75/153
f 189/74/152 186/75/153 183/78/156
f 188/76/154 187/73/151 185/72/150
f 188/76/154 185/72/150 182/79/157
f 190/71/158 194/72/159 196/73/160
f 190/71/158 196/73/160 198/74/161
f 195/75/162 196/73/160 197/76/163
f 195/75/162 197/76/163 193/77/164
f 198/74/161 196/73/160 195/75/162
f 198/74/161 195/75/162 192/78/165
f 197/76/163 196/73/160 194/72/159
f 197/76/163 194/72/159 191/79/166
f 199/71/167 203/72/168 205/73/169
f 199/71/167 205/73/169 207/74/170
f 204/75/171 205/73/169 206/76/172
f 204/75/171 206/76/172 202/77/173
f 207/74/170 205/73/169 204/75/171
f 207/74/170 204/75/171 201/78/174
f 206/76/172 205/73/169 203/72/168
f 206/76/172 203/72/168 200/79/175
f 208/71/176 212/72/177 214/73/178
f 208/71/176 214/73/178 216/74/179
f 213/75/180 214/73/178 215/76/181
f 213/75/180 215/76/181 211/77/182
f 216/74/179 214/73/178 213/75/180
f 216/74/179 213/75/180 210/78/183
f 215/76/181 214/73/178 212/72/177
f 215/76/181 212/72/177 209/79/184
f 217/71/185 221/72/186 224/73/187
f 217/71/185 224/73/187 226/74/188
f 223/75/189 224/73/187 225/76/190
f 223/75/189 225/76/190 220/77/191
f 226/74/188 224/73/187 223/75/189
f 226/74/188 223/75/189 219/78/192
f 225/76/190 224/73/187 222/72/193
f 225/76/190 222/72/193 218/79/194
f 227/71/195 231/72/196 233/73/197
f 227/71/195 233/73/197 235/74/198
f 232/75/199 233/73/197 234/76/200
f 232/75/199 234/76/200 230/77/201
f 235/74/198 233/73/197 232/75/199
f 235/74/198 232/75/199 229/78/202
f 234/76/200 233/73/197 231/72/196
f 234/76/200 231/72/196 228/79/203
f 236/71/204 240/72/205 242/73/206
f 236/71/204 242/73/206 244/74/207
f 241/75/208 242/73/206 243/76/209
f 241/75/208 243/76/209 239/77/210
f 244/74/207 242/73/206 241/75/208
f 244/74/207 241/75/208 238/78/211
f 243/76/209 242/73/206 240/72/205
f 243/76/209 240/72/205 237/79/212
f 245/71/213 249/72/214 251/73/215
f 245/71/213 251/73/215 253/74/216
f 250/75/217 251/73/215 252/76/218
f 250/75/217 252/76/218 248/77/219
f 253/74/216 251/73/215 250/75/217
f 253/74/216 250/75/217 247/78/220
f 252/76/218 251/73/215 249/72/214
f 252/76/218 249/72/214 246/79/221
f 254/71/222 258/72/223 260/73/224
f 254/71/222 260/73/224 262/74/225
f 259/75/226 260/73/224 261/76/227
f 259/75/226 261/76/227 257/77/228
f 262/74/225 260/73/224 259/75/226
f 262/74/225 259/75/226 256/78/229
f 261/76/227 260/73/224 258/72/223
f 261/76/227 258/72/223 255/79/230
f 263/71/231 268/72/231 270/73/232
f 263/71/231 270/73/232 272/74/233
f 269/75/234 270/73/232 271/76/235
f 269/75/234 271/76/235 266/77/236
f 272/74/233 270/73/232 269/75/234
f 272/74/233 269/75/234 265/78/237
f 271/76/235 270/73/232 267/72/238
f 271/76/235 267/72/238 264/79/238
usemtl branch-01-1
f 273/71/239 277/80/239 281/81/240
f 273/71/239 281/81/240 283/82/241
f 280/83/242 282/81/243 284/84/244
f 280/83/242 284/84/244 276/77/242
f 283/82/241 281/81/240 279/83/245
f 283/82/241 279/83/245 275/78/245
f 284/84/244 282/81/243 278/80/246
f 284/84/244 278/80/246 274/79/246
f 285/71/247 290/80/247 292/81/248
f 285/71/247 292/81/248 293/82/249
f 291/83/250 292/81/248 294/84/251
f 291/83/250 294/84/251 288/77/252
f 293/82/249 292/81/248 291/83/250
f 293/82/249 291/83/250 287/78/253
f 294/84/251 292/81/248 289/80/254
f 294/84/251 289/80/254 286/79/254
f 295/71/255 299/80/256 301/81/257
f 295/71/255 301/81/257 302/82/258
f 300/83/259 301/81/257 303/84/260
f 300/83/259 303/84/260 298/77/261
f 302/82/258 301/81/257 300/83/259
f 302/82/258 300/83/259 297/78/262
f 303/84/260 301/81/257 299/80/256
f 303/84/260 299/80/256 296/79/263
f 304/71/264 308/80/265 310/81/266
f 304/71/264 310/81/266 311/82/267
f 309/83/268 310/81/266 312/84/269
f 309/83/268 312/84/269 307/77/270
f 311/82/267 310/81/266 309/83/268
f 311/82/267 309/83/268 306/78/271
f 312/84/269 310/81/266 308/80/265
f 312/84/269 308/80/265 305/79/272
f 313/71/273 317/80/274 319/81/275
f 313/71/273 319/81/275 320/82/276
f 318/83/277 319/81/275 321/84/278
f 318/83/277 321/84/278 316/77/279
f 320/82/276 319/81/275 318/83/277
f 320/82/276 318/83/277 315/78/280
f 321/84/278 319/81/275 317/80/274
f 321/84/278 317/80/274 314/79/281
f 322/71/282 326/80/282 329/81/283
f 322/71/282 329/81/283 330/82/284
f 328/83/285 329/81/283 331/84/286
f 328/83/285 331/84/286 325/77/287
f 330/82/284 329/81/283 328/83/285
f 330/82/284 328/83/285 324/78/288
f 331/84/286 329/81/283 327/80/289
f 331/84/286 327/80/289 323/79/289
f 332/71/290 336/80/291 338/81/292
f 332/71/290 338/81/292 339/82/293
f 337/83/294 338/81/292 340/84/295
f 337/83/294 340/84/295 335/77/296
f 339/82/293 338/81/292 337/83/294
f 339/82/293 337/83/294 334/78/297
f 340/84/295 338/81/292 336/80/291
f 340/84/295 336/80/291 333/79/298
f 341/71/299 345/80/300 347/81/301
f 341/71/299 347/81/301 348/82/302
f 346/83/303 347/81/301 349/84/304
f 346/83/303 349/84/304 344/77/305
f 348/82/302 347/81/301 346/83/303
f 348/82/302 346/83/303 343/78/306
f 349/84/304 347/81/301 345/80/300
f 349/84/304 345/80/300 342/79/307
f 350/71/308 355/80/309 357/81/310
f 350/71/308 357/81/310 358/82/311
f 356/83/312 357/81/310 359/84/313
f 356/83/312 359/84/313 353/77/314
f 358/82/311 357/81/310 356/83/312
f 358/82/311 356/83/312 352/78/315
f 359/84/313 357/81/310 354/80/316
f 359/84/313 354/80/316 351/79/316
f 360/71/317 364/80/318 366/81/319
f 360/71/317 366/81/319 367/82/320
f 365/83/321 366/81/319 368/84/322
f 365/83/321 368/84/322 363/77/323
f 367/82/320 366/81/319 365/83/321
f 367/82/320 365/83/321 362/78/324
f 368/84/322 366/81/319 364/80/318
f 368/84/322 364/80/318 361/79/325
f 369/71/326 373/80/327 375/81/328
f 369/71/326 375/81/328 376/82/329
f 374/83/330 375/81/328 377/84/331
f 374/83/330 377/84/331 372/77/332
f 376/82/329 375/81/328 374/83/330
f 376/82/329 374/83/330 371/78/333
f 377/84/331 375/81/328 373/80/327
f 377/84/331 373/80/327 370/79/334
f 378/71/335 382/80/336 384/81/337
f 378/71/335 384/81/337 385/82/338
f 383/83/339 384/81/337 386/84/340
f 383/83/339 386/84/340 381/77/341
f 385/82/338 384/81/337 383/83/339
f 385/82/338 383/83/339 380/78/342
f 386/84/340 384/81/337 382/80/336
f 386/84/340 382/80/336 379/79/343
usemtl branch-04-1
f 388/85/344 392/86/345 396/87/346
f 388/85/344 396/87/346 397/88/347
f 394/89/348 393/90/349 389/91/350
f 394/89/348 389/91/350 391/86/351
f 395/92/352 396/87/346 392/86/345
f 395/92/352 392/86/345 390/91/352
f 398/93/353 394/89/348 391/86/351
f 398/93/353 391/86/351 387/85/354
f 399/85/355 403/86/356 408/87/357
f 399/85/355 408/87/357 409/88/355
f 406/89/358 405/90/359 402/91/359
f 406/89/358 402/91/359 404/86/360
f 407/92/361 408/87/357 403/86/356
f 407/92/361 403/86/356 401/91/361
f 410/93/362 406/89/358 404/86/360
f 410/93/362 404/86/360 400/85/362
f 412/85/363 416/86/364 420/87/365
f 412/85/363 420/87/365 421/88/366
f 418/89/367 417/90/368 413/91/368
f 418/89/367 413/91/368 415/86/369
f 419/92/370 420/87/365 416/86/364
f 419/92/370 416/86/364 414/91/370
f 422/93/371 418/89/367 415/86/369
f 422/93/371 415/86/369 411/85/372
f 423/85/373 427/86/374 432/87/375
f 423/85/373 432/87/375 433/88/373
f 430/89/376 429/90/377 426/91/378
f 430/89/376 426/91/378 428/86/379
f 431/92/380 432/87/375 427/86/374
f 431/92/380 427/86/374 425/91/380
f 434/93/381 430/89/376 428/86/379
f 434/93/381 428/86/379 424/85/381
f 435/85/382 439/86/383 445/87/384
f 435/85/382 445/87/384 447/88/385
f 443/89/386 442/90/387 438/91/387
f 443/89/386 438/91/387 441/86/388
f 444/92/389 446/87/389 440/86/389
f 444/92/389 440/86/389 437/91/390
f 448/93/391 443/89/386 441/86/388
f 448/93/391 441/86/388 436/85/391
f 449/85/392 452/86/393 456/87/394
f 449/85/392 456/87/394 457/88/395
f 454/89/396 453/90/397 451/91/398
f 454/89/396 451/91/398 452/86/393
f 455/92/399 456/87/394 452/86/393
f 455/92/399 452/86/393 450/91/400
f 458/93/401 454/89/396 452/86/393
f 458/93/401 452/86/393 449/85/392
usemtl branch-05-1
f 459/71/402 464/94/403 468/95/404
f 459/71/402 468/95/404 467/96/405
f 465/97/406 468/95/404 466/98/407
f 465/97/406 466/98/407 462/77/408
f 467/96/405 468/95/404 465/97/406
f 467/96/405 465/97/406 461/78/409
f 466/98/407 468/95/404 463/94/410
f 466/98/407 463/94/410 460/79/410
f 469/71/411 474/94/412 480/95/413
f 469/71/411 480/95/413 478/96/414
f 475/97/415 479/95/416 477/98/417
f 475/97/415 477/98/417 472/77/415
f 478/96/414 480/95/413 476/97/418
f 478/96/414 476/97/418 471/78/419
f 477/98/417 479/95/416 473/94/420
f 477/98/417 473/94/420 470/79/420
f 481/71/421 486/94/422 490/95/423
f 481/71/421 490/95/423 489/96/424
f 487/97/425 490/95/423 488/98/426
f 487/97/425 488/98/426 484/77/427
f 489/96/424 490/95/423 487/97/425
f 489/96/424 487/97/425 483/78/428
f 488/98/426 490/95/423 485/94/429
f 488/98/426 485/94/429 482/79/430
usemtl branch-03-1
f 494/77/431 495/99/432 498/100/433
f 494/77/431 498/100/433 500/101/434
f 497/102/435 498/100/433 499/103/436
f 497/102/435 499/103/436 491/71/435
f 499/103/436 498/100/433 495/99/432
f 499/103/436 495/99/432 493/78/437
f 500/101/434 498/100/433 496/102/438
f 500/101/434 496/102/438 492/79/439
f 504/77/440 505/99/441 508/100/442
f 504/77/440 508/100/442 510/101/443
f 506/102/444 508/100/442 509/103/445
f 506/102/444 509/103/445 501/71/444
f 509/103/445 508/100/442 505/99/441
f 509/103/445 505/99/441 503/78/446
f 510/101/443 508/100/442 507/102/447
f 510/101/443 507/102/447 502/79/447
f 514/77/448 515/99/449 517/100/450
f 514/77/448 517/100/450 519/101/451
f 516/102/452 517/100/450 518/103/453
f 516/102/452 518/103/453 511/71/454
f 518/103/453 517/100/450 515/99/449
f 518/103/453 515/99/449 513/78/455
f 519/101/451 517/100/450 516/102/452
f 519/101/451 516/102/452 512/79/456
f 523/77/457 524/99/458 527/100/459
f 523/77/457 527/100/459 529/101/460
f 526/102/461 527/100/459 528/103/462
f 526/102/461 528/103/462 520/71/461
f 528/103/462 527/100/459 524/99/458
f 528/103/462 524/99/458 522/78/463
f 529/101/460 527/100/459 525/102/464
f 529/101/460 525/102/464 521/79/464
