# Blender 5.1.0
# www.blender.org
mtllib Clover-02.mtl
o Clover-02
v 3.651670 0.006658 17.656452
v 3.651670 0.006658 17.656452
v 3.651670 0.006658 16.047871
v 3.651670 0.006658 16.047871
v 2.043089 0.006658 17.656452
v 2.043089 0.006658 17.656452
v 2.043089 0.006658 16.047871
v 2.043089 0.006658 16.047871
v 2.938385 0.050662 16.936039
v 2.938385 0.050662 16.936039
v 2.938385 0.050662 16.936039
v 2.938385 0.050662 16.936039
vn 0.0616 0.9981 -0.0000
vn -0.0491 0.9988 -0.0000
vn -0.0000 0.9981 0.0610
vn -0.0000 0.9988 -0.0495
vt 0.000000 0.000000
vt 1.000000 0.000000
vt 0.447856 0.443425
vt 0.000000 1.000000
vt 1.000000 1.000000
s 0
usemtl clover-02
f 2/1/1 4/2/1 12/3/1
f 5/4/2 9/3/2 7/5/2
f 10/3/3 6/4/3 1/1/3
f 8/5/4 11/3/4 3/2/4
