# Blender 5.1.0
# www.blender.org
mtllib Bush-04.mtl
o Bush-04
v 5.015952 -0.079619 4.606959
v 5.606120 -0.079619 5.435220
v 4.966994 0.689004 4.538250
v 5.606120 0.729979 5.435220
v 5.404867 -0.079619 4.954231
v 5.404867 -0.079619 4.954231
v 5.380388 0.709491 4.919877
v 5.380388 0.709491 4.919877
v 4.689722 -0.100018 5.046634
v 5.700005 -0.100018 4.929835
v 4.605912 0.865523 5.056323
v 5.700005 0.916995 4.929835
v 5.181747 -0.100018 4.874781
v 5.181747 -0.100018 4.874781
v 5.139842 0.891259 4.879626
v 5.139842 0.891259 4.879626
v 4.763830 -0.100018 4.754476
v 5.526227 -0.100018 5.427576
v 4.763830 0.833037 4.754476
v 5.526227 0.833037 5.427576
v 5.082670 -0.100018 5.161657
v 5.082670 -0.100018 5.161657
v 5.082670 0.833037 5.161658
v 5.082670 0.833037 5.161658
v 5.634278 -0.100018 4.928050
v 4.736238 -0.100018 5.405374
v 5.634278 0.843622 4.928050
v 4.736238 0.843622 5.405374
v 5.242284 -0.100018 5.273999
v 5.242284 -0.100018 5.273999
v 5.242283 0.843622 5.273999
v 5.242283 0.843622 5.273999
v 5.208367 -0.079619 4.564984
v 5.102607 -0.079619 5.576483
v 5.208367 0.663144 4.564984
v 5.102606 0.663144 5.576482
v 5.610419 -0.079619 5.297924
v 4.700555 -0.079619 4.843543
v 5.610419 0.671570 5.297924
v 4.700555 0.671570 4.843543
v 5.170651 -0.100018 4.577342
v 5.301662 -0.100018 5.585880
v 5.170651 0.916995 4.577342
v 5.301662 0.916995 5.585880
v 5.538979 -0.079619 4.739950
v 4.793644 -0.079619 5.431896
v 5.538979 0.729978 4.739950
v 4.793644 0.729978 5.431896
v 4.701914 0.033935 4.717346
v 4.723181 0.206739 5.532928
v 5.066269 0.212480 4.670016
v 5.125155 0.403718 5.480711
v 5.259156 0.380024 5.012973
v 5.259156 0.380024 5.012973
v 4.711707 0.030859 5.092904
v 4.711707 0.030859 5.092904
v 5.672729 0.786377 4.861821
v 4.880322 0.786377 4.601861
v 5.586699 0.485205 5.124056
v 4.785409 0.454110 4.891171
v 5.187064 0.333672 5.139093
v 5.187064 0.333672 5.139093
v 5.329868 0.786377 4.601114
v 5.329868 0.786377 4.601114
v 5.094519 0.116829 5.699538
v 5.772696 0.246612 5.231863
v 4.860032 0.269343 5.401832
v 5.513999 0.414874 4.903420
v 5.047031 0.404444 5.041728
v 5.047031 0.404444 5.041728
v 5.483398 0.085666 5.498259
v 5.483398 0.085666 5.498259
v 4.705378 0.739162 4.669371
v 4.812808 0.739163 5.496382
v 5.019004 0.480606 4.628630
v 5.158816 0.453910 5.451435
v 5.225116 0.350515 4.980042
v 5.225116 0.350515 4.980042
v 4.651387 0.722730 5.110487
v 4.651387 0.722730 5.110487
v 5.695668 0.073851 4.851713
v 4.983374 0.262199 4.479139
v 5.590356 0.269113 5.172722
v 4.854835 0.476925 4.836433
v 5.211492 0.467447 5.168101
v 5.211492 0.467447 5.168101
v 5.373924 0.056620 4.601399
v 5.373924 0.056620 4.601399
v 5.109669 0.729501 5.668822
v 5.764812 0.729501 5.152803
v 4.927216 0.446790 5.437179
v 5.563520 0.417601 4.897242
v 5.130036 0.304546 5.088572
v 5.130036 0.304546 5.088572
v 5.472010 0.662343 5.532457
v 5.472010 0.662343 5.532457
v 5.244864 -0.100018 4.577805
v 4.850641 -0.100018 5.515303
v 5.244864 0.916995 4.577805
v 4.850641 0.916995 5.515303
v 4.935597 -0.100018 4.999392
v 4.935597 -0.100018 4.999392
v 4.935597 0.916995 4.999392
v 4.935597 0.916995 4.999392
v 5.664192 -0.079619 5.000189
v 4.671922 -0.079619 5.223157
v 5.664192 0.729978 5.000189
v 4.671922 0.729978 5.223157
vn -0.9191 -0.0056 0.3940
vn -0.6726 0.0172 0.7398
vn -0.6726 0.0173 0.7398
vn -0.0970 -0.0044 0.9953
vn -0.0971 -0.0044 0.9953
vn 0.3214 0.0136 0.9469
vn 0.3213 0.0136 0.9469
vn -0.5142 -0.0000 0.8577
vn -0.7873 -0.0000 0.6165
vn -0.2513 -0.0000 -0.9679
vn -0.6617 -0.0000 -0.7498
vn -0.9946 -0.0000 -0.1040
vn 0.4468 -0.0000 -0.8946
vn -0.9917 -0.0000 0.1288
vn -0.6804 -0.0000 -0.7329
vn 0.5059 -0.8609 0.0544
vn 0.5058 -0.8609 0.0544
vn 0.5087 -0.8239 0.2498
vn 0.3442 -0.7305 -0.5898
vn 0.3443 -0.7305 -0.5898
vn 0.0910 -0.7353 -0.6716
vn 0.0910 -0.7354 -0.6715
vn 0.0909 -0.7353 -0.6716
vn -0.2070 -0.9018 -0.3793
vn -0.2070 -0.9018 -0.3794
vn -0.0623 -0.8719 -0.4857
vn -0.0624 -0.8719 -0.4857
vn -0.5838 -0.8110 -0.0379
vn -0.5502 -0.8164 0.1752
vn -0.3724 -0.8149 0.4441
vn -0.3723 -0.8149 0.4441
vn -0.3723 -0.8150 0.4441
vn -0.3722 -0.8150 0.4441
vn -0.4659 -0.7939 0.3908
vn 0.2089 -0.7855 0.5826
vn 0.2089 -0.7854 0.5827
vn 0.4895 -0.7877 0.3740
vn 0.4896 -0.7877 0.3740
vn -0.9867 -0.0000 -0.1625
vn -0.8063 -0.0000 -0.5915
vn -0.2192 -0.0000 -0.9757
vt 0.500000 0.000000
vt 1.000000 0.000000
vt 1.000000 1.000000
vt 0.500000 1.000000
vt 0.000000 0.000000
vt 0.000000 1.000000
vt 0.000000 0.510166
vt 0.449704 0.263710
vt 0.460477 1.000000
vt 1.000000 0.459592
vt 0.470851 1.000000
vt 0.473875 1.000000
vt 0.506543 1.000000
vt 0.490245 1.000000
vt 0.517017 1.000000
s 1
usemtl shrubbery-1-01
f 5/1/1 2/2/1 4/3/1
f 5/1/1 4/3/1 7/4/1
f 1/5/2 6/1/2 8/4/2
f 1/5/2 8/4/2 3/6/3
f 13/1/4 10/2/5 12/3/5
f 13/1/4 12/3/5 15/4/4
f 9/5/6 14/1/7 16/4/7
f 9/5/6 16/4/7 11/6/7
s 0
usemtl shrubbery-1-02
f 22/1/8 18/2/8 20/3/8
f 22/1/8 20/3/8 24/4/8
f 17/5/9 21/1/9 23/4/9
f 17/5/9 23/4/9 19/6/9
f 30/1/10 26/2/10 28/3/10
f 30/1/10 28/3/10 32/4/10
f 25/5/11 29/1/11 31/4/11
f 25/5/11 31/4/11 27/6/11
f 33/5/12 34/2/12 36/3/12
f 33/5/12 36/3/12 35/6/12
f 37/5/13 38/2/13 40/3/13
f 37/5/13 40/3/13 39/6/13
usemtl shrubbery-1-03
f 41/5/14 42/2/14 44/3/14
f 41/5/14 44/3/14 43/6/14
f 45/5/15 46/2/15 48/3/15
f 45/5/15 48/3/15 47/6/15
s 1
f 51/7/16 53/8/17 55/9/17
f 51/7/16 55/9/17 49/6/17
f 56/9/18 54/8/18 52/10/18
f 56/9/18 52/10/18 50/3/18
f 59/7/19 62/8/19 64/11/19
f 59/7/19 64/11/19 57/6/20
f 63/11/21 61/8/22 60/10/21
f 63/11/21 60/10/21 58/3/23
f 67/7/24 69/8/25 71/12/24
f 67/7/24 71/12/24 65/6/24
f 72/12/26 70/8/27 68/10/27
f 72/12/26 68/10/27 66/3/27
f 75/7/28 77/8/28 79/13/28
f 75/7/28 79/13/28 73/6/28
f 80/13/29 78/8/29 76/10/29
f 80/13/29 76/10/29 74/3/29
f 83/7/30 86/8/31 88/14/32
f 83/7/30 88/14/32 81/6/33
f 87/14/34 85/8/34 84/10/34
f 87/14/34 84/10/34 82/3/34
f 91/7/35 93/8/35 95/15/35
f 91/7/35 95/15/35 89/6/36
f 96/15/37 94/8/37 92/10/37
f 96/15/37 92/10/37 90/3/38
s 0
usemtl shrubbery-1-04
f 101/1/39 98/2/39 100/3/39
f 101/1/39 100/3/39 103/4/39
f 97/5/40 102/1/40 104/4/40
f 97/5/40 104/4/40 99/6/40
f 105/5/41 106/2/41 108/3/41
f 105/5/41 108/3/41 107/6/41
