# Blender 5.1.0
# www.blender.org
mtllib Tree-01-1.mtl
o Tree-01-1
v 9.859076 6.544237 3.946485
v 9.859076 6.544237 3.946485
v 9.859076 6.544237 3.946485
v 9.865239 6.542469 3.950450
v 9.865239 6.542469 3.950450
v 9.865239 6.542469 3.950450
v 9.864639 6.540700 3.957755
v 9.864639 6.540700 3.957755
v 9.864639 6.540700 3.957755
v 9.857856 6.542469 3.954179
v 9.857856 6.542469 3.954179
v 9.857856 6.542469 3.954179
v 9.857856 6.542469 3.954179
v 9.764679 5.784075 3.748224
v 9.764679 5.784075 3.748224
v 9.775982 5.780529 3.755479
v 9.775982 5.780529 3.755479
v 9.775135 5.778754 3.769230
v 9.775135 5.778754 3.769230
v 9.762985 5.780526 3.775726
v 9.762985 5.780526 3.775726
v 9.751682 5.784072 3.768472
v 9.751682 5.784072 3.768472
v 9.635584 5.433179 3.741165
v 9.635584 5.433179 3.741165
v 9.635584 5.433179 3.741165
v 9.666171 5.425576 3.742125
v 9.666171 5.425576 3.742125
v 9.665790 5.426338 3.760310
v 9.665790 5.426338 3.760310
v 9.635202 5.433941 3.759350
v 9.635202 5.433941 3.759350
v 9.635202 5.433941 3.759350
v 9.635202 5.433941 3.759350
v 9.571881 5.101831 3.773229
v 9.571881 5.101831 3.773229
v 9.591878 5.099468 3.762613
v 9.591878 5.099468 3.762613
v 9.610527 5.094132 3.774526
v 9.610527 5.094132 3.774526
v 9.589182 5.093525 3.807670
v 9.589182 5.093525 3.807670
v 9.589182 5.093525 3.807670
v 9.589182 5.093525 3.807670
v 9.570533 5.098861 3.795757
v 9.570533 5.098861 3.795757
v 9.475973 4.673886 3.593534
v 9.475973 4.673886 3.593534
v 9.503035 4.675581 3.580623
v 9.503035 4.675581 3.580623
v 9.527636 4.668532 3.596337
v 9.527636 4.668532 3.596337
v 9.525176 4.659787 3.624961
v 9.525176 4.659787 3.624961
v 9.488543 4.658092 3.620710
v 9.488543 4.658092 3.620710
v 9.488543 4.658092 3.620710
v 9.544991 3.243920 3.233906
v 9.544991 3.243920 3.233906
v 9.591437 3.239065 3.266306
v 9.591437 3.239065 3.266306
v 9.586795 3.221628 3.320204
v 9.586795 3.221628 3.320204
v 9.509659 3.209045 3.326139
v 9.509659 3.209045 3.326139
v 9.489259 3.213900 3.309302
v 9.489259 3.213900 3.309302
v 9.489259 3.213900 3.309302
v 9.576910 2.800379 3.073217
v 9.576910 2.800379 3.073217
v 9.635692 2.810781 3.047454
v 9.635692 2.810781 3.047454
v 9.635692 2.810781 3.047454
v 9.635692 2.810781 3.047454
v 9.683414 2.786391 3.146494
v 9.683414 2.786391 3.146494
v 9.624634 2.775990 3.172257
v 9.624634 2.775990 3.172257
v 9.571382 2.782984 3.135619
v 9.571382 2.782984 3.135619
v 9.475529 1.731731 2.905516
v 9.475529 1.731731 2.905516
v 9.550282 1.733322 2.870684
v 9.550282 1.733322 2.870684
v 9.617804 1.726985 2.917636
v 9.617804 1.726985 2.917636
v 9.610573 1.719058 2.999421
v 9.610573 1.719058 2.999421
v 9.535818 1.717468 3.034258
v 9.535818 1.717468 3.034258
v 9.535818 1.717468 3.034258
v 9.535818 1.717468 3.034258
v 9.486418 1.219599 2.875622
v 9.486418 1.219599 2.875622
v 9.595059 1.210362 2.859745
v 9.595059 1.210362 2.859745
v 9.595059 1.210362 2.859745
v 9.595059 1.210362 2.859745
v 9.631604 1.203178 2.976398
v 9.631604 1.203178 2.976398
v 9.551283 1.204205 3.014129
v 9.551283 1.204205 3.014129
v 9.478689 1.212415 2.963741
v 9.478689 1.212415 2.963741
v 9.313261 0.000000 2.725386
v 9.313261 0.000000 2.725386
v 9.476933 0.000000 2.737571
v 9.476933 0.000000 2.737571
v 9.468347 0.000000 2.832408
v 9.468347 0.000000 2.832408
v 9.468347 0.000000 2.832408
v 9.468347 0.000000 2.832408
v 9.382216 0.000000 2.873734
v 9.382216 0.000000 2.873734
v 9.304674 0.000000 2.820223
v 9.304674 0.000000 2.820223
v 9.147077 6.422642 2.121478
v 9.147077 6.422642 2.121478
v 9.147077 6.422642 2.121478
v 9.136538 6.423199 2.126255
v 9.136538 6.423199 2.126255
v 9.136538 6.423199 2.126255
v 9.136538 6.423199 2.126255
v 9.133374 6.422443 2.117600
v 9.133374 6.422443 2.117600
v 9.133374 6.422443 2.117600
v 9.143184 6.421611 2.113908
v 9.143184 6.421611 2.113908
v 9.143184 6.421611 2.113908
v 9.143184 6.421611 2.113908
v 9.231916 5.754068 2.172170
v 9.231916 5.754068 2.172170
v 9.217683 5.752746 2.180688
v 9.217683 5.752746 2.180688
v 9.204328 5.743852 2.171637
v 9.204328 5.743852 2.171637
v 9.204328 5.743852 2.171637
v 9.214713 5.746207 2.159161
v 9.214713 5.746207 2.159161
v 9.222933 5.749250 2.159320
v 9.222933 5.749250 2.159320
v 9.489011 5.377732 2.235857
v 9.489011 5.377732 2.235857
v 9.489011 5.377732 2.235857
v 9.479397 5.374551 2.252628
v 9.479397 5.374551 2.252628
v 9.479397 5.374551 2.252628
v 9.451931 5.365095 2.235088
v 9.451931 5.365095 2.235088
v 9.451931 5.365095 2.235088
v 9.451931 5.365095 2.235088
v 9.461545 5.368277 2.218318
v 9.461545 5.368277 2.218318
v 9.461545 5.368277 2.218318
v 9.483114 5.374595 2.229068
v 9.483114 5.374595 2.229068
v 9.513223 5.066915 2.193335
v 9.513223 5.066915 2.193335
v 9.486820 5.068260 2.216537
v 9.486820 5.068260 2.216537
v 9.486820 5.068260 2.216537
v 9.486820 5.068260 2.216537
v 9.467273 5.067616 2.195320
v 9.467273 5.067616 2.195320
v 9.479774 5.066579 2.174995
v 9.479774 5.066579 2.174995
v 9.505445 5.066406 2.178979
v 9.464010 4.426547 2.336087
v 9.464010 4.426547 2.336087
v 9.464010 4.426547 2.336087
v 9.434030 4.437325 2.367239
v 9.434030 4.437325 2.367239
v 9.420149 4.440159 2.366530
v 9.420149 4.440159 2.366530
v 9.396324 4.440366 2.332632
v 9.396324 4.440366 2.332632
v 9.429174 4.431103 2.297382
v 9.429174 4.431103 2.297382
v 9.163481 3.571544 2.526834
v 9.163481 3.571544 2.526834
v 9.163481 3.571544 2.526834
v 9.163481 3.571544 2.526834
v 9.163481 3.571544 2.526834
v 9.163481 3.571544 2.526834
v 9.114079 3.581420 2.524344
v 9.114079 3.581420 2.524344
v 9.114079 3.581420 2.524344
v 9.114079 3.581420 2.524344
v 9.114079 3.581420 2.524344
v 9.114079 3.581420 2.524344
v 9.166225 3.563351 2.439897
v 9.166225 3.563351 2.439897
v 9.144672 3.057563 2.474989
v 9.144672 3.057563 2.474989
v 9.126822 3.058394 2.539727
v 9.126822 3.058394 2.539727
v 9.066991 3.056769 2.537570
v 9.066991 3.056769 2.537570
v 9.055762 3.054312 2.507382
v 9.055762 3.054312 2.507382
v 9.070816 3.053481 2.433956
v 9.070816 3.053481 2.433956
v 9.130647 3.055107 2.436114
v 9.130647 3.055107 2.436114
v 9.238126 2.272857 2.596367
v 9.238126 2.272857 2.596367
v 9.164864 2.263749 2.594135
v 9.164864 2.263749 2.594135
v 9.164864 2.263749 2.594135
v 9.170063 2.253147 2.466753
v 9.170063 2.253147 2.466753
v 9.243324 2.262256 2.468985
v 9.243324 2.262256 2.468985
v 9.243324 2.262256 2.468985
v 9.243324 2.262256 2.468985
v 9.403687 1.258773 2.656084
v 9.403687 1.258773 2.656084
v 9.356800 1.260218 2.730722
v 9.356800 1.260218 2.730722
v 9.269242 1.250342 2.727970
v 9.269242 1.250342 2.727970
v 9.250252 1.239020 2.672545
v 9.275460 1.237575 2.575942
v 9.275460 1.237575 2.575942
v 9.363018 1.247451 2.578694
v 9.363018 1.247451 2.578694
v 9.574100 0.000000 2.727580
v 9.574100 0.000000 2.727580
v 9.523579 0.000000 2.808615
v 9.523579 0.000000 2.808615
v 9.399391 0.000000 2.684062
v 9.399391 0.000000 2.684062
v 9.399391 0.000000 2.684062
v 9.399391 0.000000 2.684062
v 9.408616 0.000000 2.640563
v 9.408616 0.000000 2.640563
v 9.528971 0.000000 2.610410
v 9.528971 0.000000 2.610410
v 8.611806 6.621478 3.150700
v 8.611806 6.621478 3.150700
v 8.611806 6.621478 3.150700
v 8.611806 6.621478 3.150700
v 8.621406 6.619999 3.159365
v 8.621406 6.619999 3.159365
v 8.621406 6.619999 3.159365
v 8.609013 6.618521 3.163064
v 8.609013 6.618521 3.163064
v 8.609013 6.618521 3.163064
v 8.609013 6.618521 3.163064
v 8.606745 6.619999 3.156055
v 8.606745 6.619999 3.156055
v 8.606745 6.619999 3.156055
v 8.673105 5.571486 2.904766
v 8.673105 5.571486 2.904766
v 8.679238 5.573634 2.906940
v 8.679238 5.573634 2.906940
v 8.684418 5.568248 2.925673
v 8.684418 5.568248 2.925673
v 8.678237 5.564955 2.932027
v 8.678237 5.564955 2.932027
v 8.657003 5.561790 2.929798
v 8.657003 5.561790 2.929798
v 8.651812 5.565565 2.914047
v 8.651812 5.565565 2.914047
v 8.959409 4.815052 2.586791
v 8.959409 4.815052 2.586791
v 8.986261 4.820150 2.594423
v 8.986261 4.820150 2.594423
v 8.994483 4.815713 2.621218
v 8.994483 4.815713 2.621218
v 8.975853 4.806177 2.640381
v 8.975853 4.806177 2.640381
v 8.949000 4.801078 2.632750
v 8.949000 4.801078 2.632750
v 8.940779 4.805516 2.605955
v 8.940779 4.805516 2.605955
v 9.116825 3.573227 2.437412
v 9.116825 3.573227 2.437412
v 9.116825 3.573227 2.437412
v 9.116825 3.573227 2.437412
v 9.116825 3.573227 2.437412
v 9.174919 3.580999 2.446607
v 9.174919 3.580999 2.446607
v 9.189553 3.562509 2.484611
v 9.189553 3.562509 2.484611
v 9.189553 3.562509 2.484611
v 9.189553 3.562509 2.484611
v 9.189553 3.562509 2.484611
v 9.090752 3.582261 2.479633
v 9.090752 3.582261 2.479633
v 9.090752 3.582261 2.479633
v 9.090752 3.582261 2.479633
v 9.090752 3.582261 2.479633
v 9.090752 3.582261 2.479633
v 8.605757 1.422402 5.048444
v 10.621071 0.797304 4.607097
v 8.587248 2.625926 3.259329
v 10.602563 2.000828 2.817982
v 9.632746 1.275454 4.944693
v 9.615066 2.384754 3.089051
v 9.892892 2.046178 3.920340
v 10.634098 1.415196 3.791438
v 8.618784 2.061946 4.202119
v 7.670289 1.343040 1.315047
v 6.798120 2.269171 3.099311
v 9.537530 2.438370 1.659238
v 8.665361 3.364502 3.443502
v 7.183940 1.931437 2.050282
v 9.073766 2.963381 2.490496
v 8.142418 2.801736 2.353505
v 7.661425 2.835267 3.227469
v 8.565777 1.928896 1.448680
v 10.041101 2.273946 0.427177
v 7.605844 2.866391 0.563153
v 10.514565 3.770355 2.386829
v 8.079309 4.362801 2.522805
v 8.918035 2.727504 0.345092
v 9.325924 4.141111 2.387695
v 8.967649 3.819918 1.405163
v 7.841003 3.630168 1.446958
v 10.284661 3.064577 1.344429
v 9.673963 6.906708 0.968441
v 9.147367 7.304460 2.628410
v 9.657176 5.167913 1.379755
v 9.130581 5.565664 3.039724
v 9.579311 7.109089 1.803034
v 9.467191 5.370627 2.221226
v 9.639651 6.128825 2.261658
v 9.188046 6.483754 2.837967
v 9.715068 6.055784 1.185374
v 6.655414 3.005344 2.957116
v 8.662947 2.410980 4.433760
v 8.047092 4.815801 1.793823
v 10.054625 4.221437 3.270467
v 7.535502 2.875049 3.819641
v 9.006277 4.590752 2.596698
v 8.516640 4.011469 3.416290
v 9.300188 3.317454 3.932278
v 7.316551 3.944048 2.436122
v 9.806470 5.127355 1.216817
v 10.565074 4.973734 3.283997
v 8.639201 3.275841 1.507581
v 9.397806 3.122219 3.574761
v 10.325404 4.949839 2.132765
v 9.085969 3.152600 2.499658
v 9.841221 3.747995 2.471993
v 10.060919 4.062637 3.401302
v 9.282721 4.183533 1.338880
v 9.078479 6.805447 2.244575
v 10.545444 7.185382 3.777771
v 8.776898 4.818274 3.025561
v 10.243864 5.198210 4.558757
v 9.917165 6.922378 2.852850
v 9.566283 4.977352 3.729218
v 10.009341 5.730015 3.382719
v 10.446754 6.222755 4.110742
v 8.975193 5.807922 2.590592
v 9.923339 4.803585 5.075280
v 8.071697 5.007418 3.990428
v 10.523562 3.210738 3.751529
v 8.671921 3.414571 2.666677
v 8.958103 4.772892 4.682284
v 9.569424 3.253817 3.270561
v 9.048150 3.744177 3.879399
v 8.329642 4.211852 3.400684
v 10.191340 3.979692 4.463049
v 10.992542 5.064841 2.977997
v 11.209973 3.996944 4.837930
v 9.394687 3.736357 2.402031
v 9.612118 2.668461 4.261964
v 11.229675 4.440284 3.778475
v 9.562729 3.155370 3.283951
v 10.411846 3.441653 3.566628
v 10.493799 3.329992 4.538716
v 10.249162 4.374212 2.668370
v 9.300014 6.207285 2.001667
v 9.221188 5.668474 4.140776
v 9.084064 4.078348 1.457461
v 9.005239 3.539537 3.596569
v 9.462977 5.935214 3.021072
v 9.135760 3.804685 2.516443
v 9.489103 4.599329 2.927968
v 9.181435 4.653423 3.883634
v 9.257427 5.155085 1.735064
v 9.462279 6.117911 2.651736
v 9.062371 5.804729 4.746734
v 9.644213 3.988079 2.368075
v 9.244304 3.674897 4.463073
v 9.464122 5.985145 3.685872
v 9.533286 3.840493 3.421394
v 9.685577 4.698857 3.771939
v 9.208688 4.799305 4.624363
v 9.612651 5.075473 2.524606
v 9.674807 6.061113 0.530659
v 11.315580 5.777330 3.893643
v 8.280643 2.597532 0.918589
v 9.921418 2.313749 4.281572
v 10.737175 5.804749 1.979759
v 9.219796 2.402246 2.513994
v 10.313121 3.617020 2.447721
v 10.742702 4.096117 4.031279
v 9.078958 4.319023 0.674365
v 11.224959 2.582275 4.127688
v 11.036137 1.626251 2.755110
v 9.711328 3.268796 3.857742
v 9.522505 2.312772 2.485163
v 11.203525 2.236259 3.391026
v 9.648861 2.845084 3.140891
v 10.339210 2.630424 3.015663
v 10.339398 1.985766 2.600550
v 10.502178 2.954245 3.968036
v 11.079482 3.323412 1.095000
v 10.613223 4.685709 2.768041
v 9.317262 2.094535 1.604518
v 8.851003 3.456833 3.277559
v 10.975319 3.861408 2.011230
v 9.139835 2.718637 2.486574
v 9.973583 3.187297 2.590918
v 9.813897 4.068577 3.047785
v 10.250011 2.684376 1.384179
v 7.942380 3.057085 -0.308625
v 6.706687 2.401623 2.198613
v 10.043135 4.431945 1.086160
v 8.807441 3.776483 3.593397
v 7.122828 2.951361 1.013690
v 9.333728 4.204486 2.371484
v 8.283727 3.978687 1.572755
v 8.836017 3.748705 0.312613
v 7.653740 3.130606 2.855945
v 7.695027 4.575173 0.446455
v 6.590427 3.380826 2.104713
v 9.690679 4.353857 1.616398
v 8.586079 3.159510 3.274657
v 7.055131 4.140164 1.442983
v 9.098474 3.829747 2.521673
v 8.233834 4.280386 2.050335
v 8.575078 4.537723 1.005701
v 7.521922 3.339025 2.695095
v 8.991373 1.777278 0.856946
v 7.337222 2.393406 1.634220
v 9.983533 2.820809 2.141222
v 8.329382 3.436936 2.918497
v 8.105143 2.255846 1.144769
v 9.129282 3.206162 2.484446
v 8.803022 2.911799 1.699978
v 9.435446 2.291425 1.394444
v 7.807018 2.935668 2.204175
v 8.054693 5.908287 3.707311
v 8.541111 5.812042 0.892589
v 8.976429 3.213537 3.958740
v 9.462847 3.117292 1.144018
v 8.040774 5.767641 2.161520
v 9.103436 3.123533 2.488049
v 8.298640 4.185222 2.508816
v 8.384645 4.671700 3.806613
v 8.893101 4.504903 0.998113
v 6.756398 2.075121 0.537227
v 6.641761 1.530575 3.506132
v 9.240963 3.747119 0.939834
v 9.126327 3.202573 3.908740
v 6.513820 2.030034 2.159085
v 9.099805 3.577488 2.487192
v 7.778034 3.216510 2.162230
v 7.815815 2.900529 0.729527
v 7.764410 2.401068 3.709143
v 8.040679 6.243695 1.886827
v 9.396794 6.249722 0.787427
v 8.816266 5.000234 2.836701
v 10.172381 5.006261 1.737301
v 8.682667 6.125565 1.199160
v 9.478345 4.948444 2.224310
v 8.938076 5.326579 1.747329
v 8.363788 5.648561 2.282120
v 9.739470 5.621481 1.206676
v 7.723393 7.009786 2.922109
v 8.207805 6.424554 1.149305
v 8.667125 5.505503 3.676568
v 9.151536 4.920271 1.903764
v 7.815251 6.594179 1.964975
v 8.841435 5.157100 2.757723
v 8.171649 5.713283 2.532928
v 8.095915 6.303102 3.257187
v 8.603671 5.678117 1.503885
v 8.015179 7.194082 3.597794
v 8.331434 7.216531 2.265623
v 8.548482 5.936685 3.703210
v 8.864738 5.959134 2.371039
v 8.058147 7.154253 2.856383
v 8.654592 5.924819 3.002715
v 8.230466 6.401955 3.005208
v 8.216013 6.613976 3.635696
v 8.545244 6.603435 2.306049
v 9.071409 6.759074 4.855760
v 8.215711 6.486328 3.273627
v 10.082552 5.274097 4.564879
v 9.226852 5.001351 2.982746
v 8.485174 6.514266 4.099012
v 9.582835 5.088601 3.788942
v 9.024007 5.620775 4.140836
v 9.485452 6.062307 4.751941
v 8.655101 5.750337 3.162860
v 8.218981 5.837556 5.374909
v 7.961860 6.462688 3.055553
v 9.751652 4.083047 4.732109
v 9.494532 4.708179 2.412753
v 7.889293 6.019206 4.117996
v 9.532038 4.336543 3.527862
v 8.620277 4.854603 3.938648
v 8.847843 5.003758 5.080462
v 8.629173 5.582308 2.744288
v 9.229508 5.196485 4.480838
v 7.499191 4.616350 2.474954
v 10.549053 2.872473 4.014715
v 8.818736 2.292337 2.008832
v 8.138038 4.763823 3.591614
v 9.581079 2.517750 3.062717
v 8.894530 3.404562 3.646266
v 9.770119 4.115900 4.327021
v 8.072887 3.474599 2.310286
v 10.923472 1.707507 1.523580
v 9.398868 2.385572 0.211597
v 9.866242 2.524023 3.174140
v 8.341638 3.202087 1.862157
v 10.218030 2.254103 0.793816
v 9.129282 2.957126 2.484446
v 9.839581 2.804947 1.812493
v 10.482066 2.130489 2.255128
v 8.930767 2.831018 0.985776
v 9.229030 2.196601 0.305289
v 7.409471 4.298459 -0.025044
v 10.304015 3.480055 2.550417
v 8.484457 5.581913 2.220084
v 8.442281 3.449927 -0.044097
v 9.449439 4.623074 2.301827
v 9.352046 4.099461 1.110291
v 9.767719 2.812951 1.259788
v 7.977327 4.949028 0.986531
v 9.237390 6.463655 4.893716
v 8.067034 5.402157 4.658472
v 10.160722 5.676030 3.854091
v 8.990366 4.614532 3.618847
v 8.668975 5.808205 4.892213
v 9.582835 5.088601 3.788942
v 9.334663 5.383487 4.426171
v 9.668853 6.082924 4.465136
v 8.522845 5.000371 4.203764
v 11.572937 3.768910 1.799258
v 9.934417 2.828625 0.922480
v 10.288938 5.047152 2.827966
v 8.650416 4.106867 1.951188
v 10.709848 3.401111 1.167389
v 9.449439 4.623074 2.301827
v 10.135406 4.309778 1.690259
v 11.000123 4.383470 2.210658
v 9.328354 3.477282 1.359447
v 9.207941 5.746254 2.166995
v 9.207941 5.746254 2.166995
v 8.394638 6.870660 2.332336
v 8.394638 6.870660 2.332336
v 8.672100 6.249028 2.296149
v 8.672100 6.249028 2.296149
v 8.719912 6.967392 2.716516
v 9.036682 6.419261 2.799146
v 8.430213 6.967392 1.937826
v 8.699539 6.310177 1.715855
v 9.201864 5.790016 1.928928
v 9.434592 5.790016 2.554483
v 9.143533 6.403966 2.127148
v 9.143533 6.403966 2.127148
v 8.966984 7.150920 1.783288
v 8.966984 7.150920 1.783288
v 9.081382 6.835286 2.019077
v 9.081382 6.835286 2.019077
v 9.195484 7.071983 1.591668
v 9.367545 6.775137 1.764599
v 8.728496 7.094984 1.768845
v 8.743021 6.743948 2.046533
v 8.999903 6.380421 2.134173
v 9.375055 6.361944 1.991838
v 9.733768 5.661814 3.754240
v 9.733768 5.661814 3.754240
v 9.270268 6.856011 4.312943
v 9.270268 6.856011 4.312943
v 9.430805 6.212193 4.156588
v 9.430805 6.212193 4.156588
v 9.770539 6.936830 4.390093
v 10.040992 6.366624 4.293442
v 9.047230 6.936830 3.981306
v 9.080123 6.252385 3.691142
v 9.577512 5.698377 3.572924
v 10.158579 5.698377 3.901320
v 9.858327 6.541332 3.948641
v 9.858327 6.541332 3.948641
v 9.829653 7.203585 3.959279
v 9.829653 7.203585 3.959279
v 9.868563 6.888091 4.018679
v 9.868563 6.888091 4.018679
v 10.006148 7.182542 3.793341
v 10.095070 6.893736 3.813664
v 9.638040 7.200673 3.933002
v 9.593032 6.859455 4.011458
v 9.743471 6.541403 3.947442
v 10.039188 6.526837 3.835245
v 8.609291 6.578825 3.149214
v 8.609291 6.578825 3.149214
v 8.586468 7.351395 3.260514
v 8.586468 7.351395 3.260514
v 8.528674 6.975026 3.250693
v 8.528674 6.975026 3.250693
v 8.818871 7.298115 3.419209
v 8.817561 6.944090 3.463120
v 8.572776 7.389200 3.036256
v 8.473823 6.999617 2.929877
v 8.584263 6.602898 3.018453
v 8.781962 6.529725 3.326097
v 8.768433 5.268917 2.810876
v 8.768433 5.268917 2.810876
v 9.451046 6.783215 3.428447
v 9.451046 6.783215 3.428447
v 9.261690 5.966822 3.216567
v 9.261690 5.966822 3.216567
v 9.575981 6.885696 2.798858
v 9.468239 6.162650 2.450973
v 9.018778 6.885696 3.692982
v 8.652963 6.017789 3.635538
v 8.530232 5.315279 2.998978
v 8.977859 5.315279 2.280688
v 9.367385 4.305557 2.386359
v 9.367385 4.305557 2.386359
v 10.093243 5.487834 2.554992
v 10.093243 5.487834 2.554992
v 9.841424 4.854379 2.561484
v 9.841424 4.854379 2.561484
v 10.201126 5.414267 2.059307
v 10.024166 4.811515 1.945308
v 9.770804 5.674520 2.720650
v 9.375684 5.057319 2.849816
v 9.188582 4.409930 2.511914
v 9.534278 4.200857 1.980628
v 9.536476 4.516567 3.564492
v 9.536476 4.516567 3.564492
v 10.958075 5.524588 3.280013
v 10.958075 5.524588 3.280013
v 10.349348 4.915626 3.302677
v 10.349348 4.915626 3.302677
v 10.526418 5.902374 2.979312
v 9.874657 5.434850 2.893478
v 11.082808 5.512840 3.779740
v 10.520666 4.795358 4.010450
v 9.635485 4.481441 3.851823
v 9.188512 4.794371 3.208804
v 9.522931 3.945437 3.439852
v 9.522931 3.945437 3.439852
v 10.716612 5.308066 4.373156
v 10.716612 5.308066 4.373156
v 10.213516 4.508435 4.063993
v 10.213516 4.508435 4.063993
v 11.089900 5.280223 3.726198
v 10.755377 4.524868 3.296988
v 10.247227 5.643369 4.517221
v 9.494195 4.888366 4.316509
v 9.246093 4.124919 3.565564
v 9.923050 3.833188 2.930099
v 9.592876 3.749252 3.423089
v 9.592876 3.749252 3.423089
v 11.546131 3.162781 2.448630
v 11.546131 3.162781 2.448630
v 10.713503 3.643188 2.988553
v 10.713503 3.643188 2.988553
v 11.542649 2.581131 3.039360
v 10.814676 2.891463 3.702658
v 11.263726 3.146917 1.852907
v 10.265312 3.743156 2.162900
v 9.443771 3.785374 3.062787
v 9.667843 3.330853 4.015917
v 9.644450 7.271019 2.316161
v 8.469161 7.086321 2.457285
v 9.784701 6.126616 1.986424
v 8.609411 5.941918 2.127549
v 9.109481 7.140263 2.573482
v 9.109481 7.140263 2.573482
v 9.188650 6.011826 2.145347
v 8.546346 6.518852 2.357403
v 9.724577 6.680592 2.210728
v 9.169033 6.553310 2.493704
v 10.189620 5.359652 2.667303
v 9.162199 5.279824 3.278343
v 9.878254 4.400436 2.018449
v 8.850833 4.320608 2.629489
v 9.785610 5.211133 3.096515
v 9.785610 5.211133 3.096515
v 9.385991 4.309200 2.396687
v 9.039596 4.780546 3.006966
v 10.061301 4.840735 2.383752
v 9.650229 4.688756 2.845083
v 9.263585 5.676635 3.621618
v 8.113365 5.596807 3.296109
v 9.563567 4.910053 2.749599
v 8.413346 4.830225 2.424090
v 8.684575 5.493458 3.595206
v 8.684575 5.493458 3.595206
v 8.955143 4.803137 2.639597
v 8.250212 5.179882 2.914793
v 9.406251 5.243716 3.223662
v 8.799726 5.051563 3.213246
v 8.935393 7.060027 3.731683
v 8.021828 7.066851 3.386274
v 9.134735 6.271748 3.188874
v 8.221169 6.278572 2.843466
v 8.449076 6.974318 3.690093
v 8.449076 6.974318 3.690093
v 8.639533 6.235029 3.066012
v 8.103332 6.657041 3.162611
v 9.020605 6.634087 3.497891
v 8.510070 6.547067 3.468072
v 10.306024 6.391862 4.436351
v 8.949857 5.627615 5.298601
v 10.143325 5.199232 3.123379
v 8.787159 4.434984 3.985629
v 9.842783 5.856782 4.996997
v 9.842783 5.856782 4.996997
v 9.525239 4.726949 3.636749
v 8.930360 4.997029 4.709023
v 10.284286 5.736696 3.821461
v 9.816546 5.181494 4.426689
v 9.092094 1.739549 5.176331
v 11.090901 2.301850 4.831992
v 8.610871 2.230680 3.184953
v 10.609678 2.792981 2.840614
v 9.981400 2.328333 5.122509
v 9.981400 2.328333 5.122509
v 9.615292 2.666426 3.056879
v 10.835630 2.640254 3.902812
v 8.826891 2.089391 4.208176
v 9.751459 2.717102 4.179180
v 9.639215 5.364921 5.081914
v 7.389665 3.912094 4.963419
v 10.700362 3.882398 3.113432
v 8.450812 2.429571 2.994937
v 8.715314 4.399921 5.336678
v 8.715314 4.399921 5.336678
v 9.604761 3.008200 3.192992
v 7.952844 3.109802 4.108464
v 10.224299 4.531766 4.189496
v 9.263567 3.526164 4.493948
v 10.015756 2.610605 5.858475
v 10.790664 1.461317 3.772040
v 8.943780 4.404007 4.472466
v 9.718689 3.254719 2.386031
v 10.743910 2.262208 4.876795
v 10.743910 2.262208 4.876795
v 9.506620 3.900193 3.399860
v 10.383866 2.393989 3.107203
v 9.589539 3.579980 5.166209
v 10.380017 3.213218 4.160889
v 9.326063 5.894721 0.557197
v 10.281943 6.562618 1.840801
v 8.895252 4.556758 1.574197
v 9.851132 5.224655 2.857800
v 9.473786 4.870198 2.227277
v 9.974083 6.146807 1.153727
v 9.818070 5.440342 1.545678
v 9.146231 5.148040 1.079636
v 10.102876 5.818609 2.361279
v 7.313081 5.118643 2.190284
v 8.733485 6.155679 1.364573
v 8.627188 3.854079 2.862632
v 10.047592 4.891114 2.036920
v 9.372305 4.355342 2.340817
v 8.022778 5.542304 1.581741
v 8.572363 4.845484 1.831159
v 8.008521 4.404961 2.490259
v 9.426361 5.444534 1.663324
v 10.906706 6.654136 2.948071
v 10.284433 7.003584 4.538358
v 9.893665 5.237277 2.863012
v 9.271393 5.586726 4.453300
v 9.627789 5.377583 3.745010
v 10.729647 6.733670 3.848226
v 10.356125 5.998163 3.788810
v 10.412002 5.862577 2.928432
v 9.791640 6.214857 4.518845
v 9.000118 6.438926 4.019420
v 7.801731 6.438928 3.605446
v 9.315713 5.617567 3.105819
v 8.117326 5.617568 2.691846
v 8.664010 5.570412 2.925678
v 8.350397 6.334691 3.894415
v 8.529123 5.891317 3.529213
v 9.158937 5.965021 3.559664
v 7.959946 5.966688 3.147436
v 11.061108 1.581861 1.267993
v 9.004251 0.819173 0.912724
v 10.266442 3.033319 2.752786
v 8.209587 2.270631 2.397516
v 9.159000 2.700377 2.480650
v 9.970514 1.349220 0.900900
v 9.661851 2.150136 1.513331
v 10.626534 2.411794 2.002295
v 8.571251 1.646176 1.644210
v 10.788680 4.830008 3.686755
v 10.903366 3.616408 2.453283
v 9.361614 5.463756 2.930531
v 9.476299 4.250155 1.697059
v 9.473786 4.870198 2.227277
v 10.960949 4.318852 2.946236
v 10.346614 4.727782 2.582331
v 10.062064 5.207282 3.247999
v 10.179489 3.992379 2.016064
vn -0.8742 0.2243 -0.4306
vn -0.8859 0.2726 -0.3754
vn -0.8860 0.2733 -0.3746
vn -0.8743 0.2243 -0.4305
vn 0.5652 0.1418 -0.8127
vn 0.3838 0.0551 -0.9218
vn 0.3824 0.0545 -0.9224
vn 0.5652 0.1417 -0.8127
vn 0.9907 -0.1279 0.0466
vn 0.9763 -0.2133 0.0370
vn 0.9763 -0.2133 0.0369
vn 0.1030 -0.2446 0.9641
vn 0.1081 -0.1589 0.9814
vn 0.1080 -0.1596 0.9813
vn -0.5628 -0.1214 0.8176
vn -0.5373 0.0124 0.8433
vn -0.5378 0.0103 0.8430
vn -0.9502 0.2566 -0.1770
vn -0.9504 0.2562 -0.1762
vn 0.2040 -0.0731 -0.9762
vn 0.2038 -0.0728 -0.9763
vn 0.9520 -0.2192 0.2135
vn 0.9522 -0.2200 0.2118
vn 0.0465 0.0368 0.9982
vn 0.0590 0.0321 0.9977
vn -0.5019 0.1447 0.8527
vn -0.9836 0.1414 0.1123
vn -0.9835 0.1413 0.1126
vn -0.4685 0.0046 -0.8835
vn -0.4436 0.2273 -0.8669
vn -0.4442 0.2240 -0.8675
vn 0.4111 0.0572 -0.9098
vn 0.4095 0.0557 -0.9106
vn 0.9135 -0.2109 0.3479
vn 0.9135 -0.2110 0.3479
vn -0.5264 -0.0093 0.8502
vn -0.5405 -0.0109 0.8413
vn -0.9506 0.0169 0.3099
vn -0.9450 -0.0045 0.3270
vn -0.5910 0.2871 -0.7539
vn -0.5922 0.2861 -0.7533
vn 0.5706 0.2147 -0.7927
vn 0.9699 -0.1334 0.2039
vn 0.9702 -0.1322 0.2031
vn -0.0897 -0.3754 0.9225
vn -0.0172 -0.2800 0.9598
vn -0.0300 -0.2970 0.9544
vn -0.5683 -0.2102 0.7955
vn -0.6241 -0.2776 0.7304
vn -0.7176 0.1662 -0.6763
vn -0.7186 0.1650 -0.6756
vn 0.5639 0.3148 -0.7635
vn 0.5633 0.3196 -0.7620
vn 0.9890 0.1374 -0.0554
vn 0.9885 0.1395 -0.0581
vn 0.1530 -0.2449 0.9574
vn 0.1519 -0.2445 0.9577
vn -0.6178 -0.2909 0.7306
vn -0.9827 -0.1368 -0.1252
vn -0.9946 -0.0525 0.0890
vn -0.9951 -0.0552 0.0823
vn -0.5606 0.1938 -0.8051
vn -0.5629 0.1940 -0.8034
vn 0.5474 0.4250 -0.7210
vn 0.9703 0.1163 -0.2123
vn 0.9704 0.1145 -0.2125
vn 0.3428 -0.2194 0.9134
vn 0.3437 -0.2186 0.9133
vn -0.5849 -0.2371 0.7757
vn -0.5847 -0.2291 0.7782
vn -0.9658 0.0235 0.2583
vn -0.9656 0.0236 0.2591
vn -0.3439 0.1011 -0.9335
vn -0.3447 0.1019 -0.9332
vn 0.5743 0.0880 -0.8139
vn 0.5741 0.0772 -0.8151
vn 0.5741 0.0773 -0.8151
vn 0.9831 -0.0014 -0.1829
vn 0.9832 -0.0014 -0.1828
vn 0.4224 -0.0874 0.9022
vn 0.4226 -0.0874 0.9021
vn -0.5711 -0.0588 0.8188
vn -0.9931 0.0871 0.0784
vn -0.9929 0.0855 0.0825
vn -0.2688 0.0991 -0.9581
vn -0.2686 0.0946 -0.9586
vn 0.5738 0.0662 -0.8163
vn 0.9892 -0.0441 -0.1399
vn 0.9891 -0.0475 -0.1396
vn 0.4242 -0.0937 0.9007
vn -0.5733 -0.0493 0.8179
vn -0.5714 -0.0316 0.8200
vn -0.5715 -0.0325 0.8200
vn -0.9852 0.1505 -0.0819
vn -0.9852 0.1505 -0.0820
vn -0.2705 0.1682 -0.9479
vn 0.5677 0.0276 -0.8227
vn 0.9859 -0.1002 -0.1337
vn 0.4224 -0.1636 0.8915
vn -0.5695 -0.0157 0.8218
vn -0.5696 -0.0157 0.8218
vn 0.8359 0.0635 -0.5452
vn 0.7660 0.2095 -0.6077
vn 0.7667 0.2083 -0.6073
vn 0.4660 0.1265 0.8757
vn 0.5298 0.3047 0.7915
vn 0.5422 0.3472 0.7652
vn -0.5608 -0.0006 0.8280
vn -0.5193 -0.0965 0.8491
vn -0.5270 -0.0799 0.8461
vn -0.9349 -0.0701 0.3479
vn -0.6147 -0.1218 -0.7793
vn -0.6535 -0.3288 -0.6818
vn -0.6537 -0.3301 -0.6810
vn 0.0423 -0.0623 -0.9972
vn 0.1876 -0.0016 -0.9822
vn 0.1882 -0.0013 -0.9821
vn 0.7474 0.2570 -0.6126
vn 0.7576 0.2428 -0.6059
vn 0.5778 0.5116 0.6359
vn -0.5013 -0.1424 0.8535
vn -0.4950 -0.1422 0.8572
vn -0.6572 -0.5181 -0.5474
vn 0.3002 0.1132 -0.9471
vn 0.3016 0.1105 -0.9470
vn 0.8561 -0.0136 -0.5166
vn 0.6639 -0.0221 -0.7475
vn 0.7432 -0.0469 0.6674
vn 0.7246 0.0307 0.6885
vn 0.7247 0.0304 0.6883
vn -0.7534 0.0475 0.6558
vn -0.7598 0.0494 0.6483
vn -0.7535 0.0475 0.6558
vn -0.8593 0.0227 -0.5110
vn -0.8210 -0.0160 -0.5707
vn -0.8213 -0.0157 -0.5702
vn 0.4258 -0.0272 -0.9044
vn 0.4707 -0.2416 -0.8486
vn 0.7432 -0.0155 0.6689
vn 0.7418 -0.0106 0.6706
vn -0.0022 0.2325 0.9726
vn -0.0073 0.2086 0.9780
vn -0.0074 0.2085 0.9780
vn -0.7844 0.2953 0.5454
vn -0.7851 0.2989 0.5425
vn -0.7767 0.0529 -0.6276
vn -0.7759 0.0662 -0.6274
vn 0.4750 -0.2395 -0.8468
vn 0.8312 -0.3397 -0.4401
vn 0.8801 -0.2064 -0.4275
vn 0.8811 -0.2030 -0.4271
vn 0.7703 -0.1316 0.6239
vn -0.0125 0.1851 0.9826
vn -0.7949 0.3687 0.4818
vn -0.7950 0.3687 0.4817
vn -0.7643 0.1712 -0.6217
vn 0.2207 -0.1329 -0.9663
vn 0.2185 -0.1312 -0.9670
vn 0.9970 0.0290 -0.0718
vn 0.9262 0.0276 -0.3760
vn 0.9202 -0.0725 0.3846
vn 0.9679 0.0331 0.2490
vn 0.9970 0.0290 -0.0717
vn -0.0403 0.0284 0.9988
vn -0.0392 0.0475 0.9981
vn -0.0404 0.0284 0.9988
vn -0.9053 0.0868 0.4158
vn -0.9961 -0.0218 0.0853
vn -0.9221 -0.0001 0.3869
vn -0.9384 0.0647 -0.3394
vn -0.9752 -0.0360 -0.2185
vn -0.9961 -0.0218 0.0851
vn -0.9384 0.0647 -0.3393
vn 0.0393 -0.0165 -0.9991
vn 0.9744 0.1523 0.1652
vn 0.9728 0.1527 0.1742
vn -0.0423 0.0964 0.9944
vn -0.9882 -0.1188 -0.0966
vn -0.9867 -0.1199 -0.1102
vn 0.0390 -0.0696 -0.9968
vn 0.0391 -0.0696 -0.9968
vn 0.8808 0.0530 -0.4706
vn 0.8954 0.0799 -0.4379
vn 0.8951 0.0793 -0.4387
vn 0.9092 0.1587 0.3849
vn 0.9095 0.1588 0.3843
vn 0.0456 0.1097 0.9929
vn 0.0477 0.1093 0.9929
vn -0.9896 -0.1006 0.1028
vn -0.9273 -0.0801 0.3656
vn -0.9772 -0.1106 -0.1812
vn -0.0435 -0.0782 -0.9960
vn -0.0430 -0.0783 -0.9960
vn 0.9076 0.1052 -0.4064
vn 0.9076 0.1051 -0.4064
vn 0.8396 0.1435 0.5240
vn 0.8395 0.1435 0.5240
vn 0.1391 0.0919 0.9860
vn -0.9105 -0.1088 0.3990
vn -0.9647 -0.1172 -0.2359
vn -0.1280 -0.0538 -0.9903
vn -0.5145 0.1689 -0.8407
vn -0.5610 0.1327 -0.8171
vn -0.5578 0.1352 -0.8189
vn -0.5145 0.1721 -0.8400
vn 0.2508 0.2346 -0.9392
vn 0.2153 0.3252 -0.9208
vn 0.2042 0.3518 -0.9135
vn 0.8851 0.1548 -0.4388
vn 0.9028 0.3023 -0.3058
vn 0.9028 0.2966 -0.3114
vn 0.8851 0.1568 -0.4382
vn 0.5008 -0.1565 0.8513
vn 0.6153 -0.0733 0.7849
vn 0.6154 -0.0733 0.7848
vn -0.0697 -0.2180 0.9734
vn -0.0939 -0.3082 0.9467
vn -0.0948 -0.3116 0.9455
vn -0.9519 -0.1066 0.2873
vn -0.9319 -0.2664 0.2462
vn -0.9319 -0.2664 0.2463
vn -0.7143 0.0321 -0.6991
vn -0.7148 0.0318 -0.6986
vn 0.1717 0.2907 -0.9413
vn 0.1717 0.2899 -0.9415
vn 0.9255 0.3071 -0.2218
vn 0.9256 0.3066 -0.2220
vn 0.7627 0.0382 0.6456
vn 0.7629 0.0383 0.6454
vn -0.1293 -0.2562 0.9579
vn -0.1293 -0.2556 0.9581
vn -0.9095 -0.2896 0.2983
vn -0.9095 -0.2892 0.2986
vn -0.8077 -0.0349 -0.5885
vn 0.1718 0.1408 -0.9750
vn 0.9462 0.1766 -0.2712
vn 0.8065 0.0650 0.5877
vn 0.8064 0.0650 0.5878
vn -0.1375 -0.1088 0.9845
vn -0.9081 -0.1545 0.3893
vn -0.0500 0.9739 0.2216
vn 0.0188 0.9929 -0.1176
vn 0.0189 0.9929 -0.1176
vn 0.1222 0.9626 0.2418
vn 0.1221 0.9626 0.2418
vn 0.1571 0.7773 0.6091
vn 0.3397 0.7261 0.5978
vn 0.3878 0.7937 0.4687
vn 0.1691 0.8324 0.5278
vn 0.3418 0.8597 0.3796
vn 0.5490 0.6999 0.4569
vn 0.5336 0.7864 0.3112
vn 0.1818 0.8889 0.4205
vn 0.5502 0.6252 0.5535
vn -0.3137 0.6160 -0.7226
vn -0.4127 0.6994 -0.5836
vn -0.3111 0.7954 -0.5201
vn -0.2365 0.6737 -0.7002
vn -0.1951 0.8239 -0.5322
vn -0.4129 0.8331 -0.3680
vn -0.2601 0.9032 -0.3415
vn -0.1384 0.7357 -0.6630
vn -0.5153 0.7679 -0.3805
vn 0.3318 0.6580 -0.6760
vn 0.1485 0.7046 -0.6939
vn 0.1258 0.8049 -0.5799
vn 0.3395 0.7230 -0.6017
vn 0.1877 0.8521 -0.4886
vn -0.0607 0.8045 -0.5909
vn -0.0216 0.8924 -0.4507
vn 0.3441 0.7933 -0.5023
vn -0.0877 0.7268 -0.6812
vn 0.9936 0.0834 0.0765
vn 0.9566 0.1466 0.2518
vn 0.9424 0.0177 0.3340
vn 0.9937 -0.0091 0.1116
vn 0.9436 -0.1008 0.3155
vn 0.8688 0.0994 0.4851
vn 0.8568 -0.0683 0.5111
vn 0.9805 -0.1229 0.1534
vn 0.8619 0.2181 0.4577
vn -0.4935 0.6486 0.5795
vn -0.3634 0.6030 0.7102
vn -0.2451 0.6947 0.6762
vn -0.4324 0.7183 0.5450
vn -0.2158 0.7760 0.5927
vn -0.1211 0.6073 0.7852
vn -0.0326 0.7198 0.6934
vn -0.3511 0.7945 0.4955
vn -0.1827 0.5155 0.8372
vn 0.7265 -0.4524 -0.5172
vn 0.8169 -0.4583 -0.3502
vn 0.7603 -0.5844 -0.2835
vn 0.6825 -0.5381 -0.4947
vn 0.6777 -0.6685 -0.3063
vn 0.8286 -0.5483 -0.1133
vn 0.7250 -0.6821 -0.0956
vn 0.6192 -0.6363 -0.4602
vn 0.8882 -0.4423 -0.1242
vn 0.5742 -0.3064 -0.7592
vn 0.7187 -0.2607 -0.6446
vn 0.7356 -0.3856 -0.5570
vn 0.5720 -0.3964 -0.7181
vn 0.6820 -0.4919 -0.5412
vn 0.8487 -0.3058 -0.4315
vn 0.8085 -0.4587 -0.3687
vn 0.5618 -0.5018 -0.6577
vn 0.8624 -0.1904 -0.4690
vn -0.2650 -0.6173 0.7408
vn -0.4408 -0.5966 0.6707
vn -0.4462 -0.7001 0.5575
vn -0.2504 -0.6916 0.6775
vn -0.3726 -0.7788 0.5045
vn -0.6039 -0.6360 0.4804
vn -0.5425 -0.7527 0.3730
vn -0.2287 -0.7740 0.5904
vn -0.6372 -0.5408 0.5492
vn 0.6817 -0.4524 -0.5750
vn 0.7288 -0.5443 -0.4155
vn 0.6287 -0.6605 -0.4105
vn 0.6134 -0.5217 -0.5930
vn 0.5344 -0.7003 -0.4732
vn 0.6649 -0.7094 -0.2338
vn 0.5293 -0.8004 -0.2814
vn 0.5211 -0.6000 -0.6070
vn 0.7505 -0.6313 -0.1955
vn 0.9855 0.0187 -0.1687
vn 0.9998 -0.0090 0.0188
vn 0.9864 -0.1612 0.0334
vn 0.9802 -0.0793 -0.1812
vn 0.9658 -0.2565 -0.0367
vn 0.9625 -0.1606 0.2187
vn 0.9325 -0.3200 0.1675
vn 0.9606 -0.1989 -0.1941
vn 0.9669 -0.0431 0.2516
vn 0.9875 0.1577 0.0030
vn 0.9695 0.1521 0.1920
vn 0.9746 0.0021 0.2239
vn 0.9982 0.0594 0.0026
vn 0.9811 -0.1020 0.1644
vn 0.9161 0.0180 0.4006
vn 0.9186 -0.1486 0.3662
vn 0.9980 -0.0625 0.0023
vn 0.8979 0.1375 0.4181
vn 0.7380 -0.2865 -0.6110
vn 0.8435 -0.2887 -0.4530
vn 0.8146 -0.4269 -0.3927
vn 0.7107 -0.3798 -0.5922
vn 0.7448 -0.5219 -0.4158
vn 0.8918 -0.3917 -0.2263
vn 0.8134 -0.5419 -0.2115
vn 0.6676 -0.4894 -0.5610
vn 0.9323 -0.2767 -0.2330
vn 0.5018 0.7838 -0.3658
vn 0.5075 0.6823 -0.5262
vn 0.3730 0.7136 -0.5931
vn 0.4143 0.8205 -0.3939
vn 0.2732 0.7758 -0.5688
vn 0.3830 0.5776 -0.7209
vn 0.2260 0.6422 -0.7324
vn 0.3010 0.8545 -0.4233
vn 0.4890 0.5209 -0.6996
vn 0.6520 -0.6279 0.4249
vn 0.6397 -0.5110 0.5741
vn 0.5150 -0.5608 0.6483
vn 0.5739 -0.6778 0.4595
vn 0.4292 -0.6435 0.6338
vn 0.4996 -0.4130 0.7615
vn 0.3587 -0.5054 0.7848
vn 0.4700 -0.7301 0.4961
vn 0.5920 -0.3391 0.7311
vn -0.5017 0.8093 -0.3054
vn -0.6144 0.7856 -0.0726
vn -0.4832 0.8746 -0.0397
vn -0.4132 0.8790 -0.2381
vn -0.4009 0.9147 0.0515
vn -0.5931 0.7881 0.1645
vn -0.4828 0.8501 0.2102
vn -0.2836 0.9485 -0.1414
vn -0.6765 0.7259 0.1243
vn -0.1817 0.9545 0.2365
vn -0.2932 0.8464 0.4446
vn -0.1385 0.8604 0.4904
vn -0.0735 0.9478 0.3104
vn -0.0465 0.8194 0.5714
vn -0.2703 0.7167 0.6429
vn -0.1447 0.7088 0.6904
vn 0.0734 0.9131 0.4011
vn -0.3708 0.7134 0.5947
vn 0.1312 0.6052 -0.7852
vn -0.0797 0.7215 -0.6878
vn 0.0410 0.7934 -0.6073
vn 0.1942 0.6849 -0.7023
vn 0.0745 0.8613 -0.5026
vn -0.1810 0.8416 -0.5089
vn -0.0942 0.9004 -0.4247
vn 0.2733 0.7733 -0.5721
vn -0.2506 0.7812 -0.5718
vn -0.9784 -0.1919 0.0767
vn -0.9568 -0.2288 -0.1795
vn -0.9195 -0.3744 -0.1193
vn -0.9444 -0.3184 0.0820
vn -0.8615 -0.4878 -0.1410
vn -0.8635 -0.3537 -0.3595
vn -0.8175 -0.4753 -0.3253
vn -0.8733 -0.4794 0.0869
vn -0.8899 -0.2478 -0.3830
vn -0.6433 0.7552 -0.1260
vn -0.6545 0.7442 0.1333
vn -0.5283 0.8423 0.1072
vn -0.5414 0.8345 -0.1027
vn -0.4205 0.8937 0.1566
vn -0.5430 0.7667 0.3425
vn -0.4290 0.8378 0.3378
vn -0.3903 0.9181 -0.0685
vn -0.6303 0.6971 0.3417
vn -0.6699 -0.5863 -0.4555
vn -0.4751 -0.6205 -0.6239
vn -0.4460 -0.7340 -0.5122
vn -0.6125 -0.6860 -0.3927
vn -0.3579 -0.8127 -0.4598
vn -0.2551 -0.7008 -0.6662
vn -0.2098 -0.7899 -0.5762
vn -0.5188 -0.8012 -0.2981
vn -0.2892 -0.6172 -0.7317
vn -0.9264 -0.3566 0.1209
vn -0.8778 -0.4664 -0.1095
vn -0.8182 -0.5749 -0.0051
vn -0.8693 -0.4652 0.1671
vn -0.7380 -0.6747 0.0116
vn -0.7484 -0.6190 -0.2384
vn -0.6827 -0.7116 -0.1662
vn -0.7692 -0.5982 0.2245
vn -0.7926 -0.5336 -0.2950
vn -0.9632 -0.2685 0.0090
vn -0.9234 -0.2941 -0.2465
vn -0.8786 -0.4386 -0.1888
vn -0.9198 -0.3922 0.0123
vn -0.8107 -0.5463 -0.2106
vn -0.8101 -0.4046 -0.4243
vn -0.7568 -0.5236 -0.3913
vn -0.8367 -0.5474 0.0163
vn -0.8433 -0.3003 -0.4458
vn -0.6208 -0.3983 0.6753
vn -0.7519 -0.4696 0.4627
vn -0.6467 -0.5911 0.4820
vn -0.5570 -0.5110 0.6547
vn -0.5855 -0.6899 0.4256
vn -0.7588 -0.5965 0.2614
vn -0.6698 -0.6972 0.2556
vn -0.4565 -0.6483 0.6094
vn -0.8223 -0.5048 0.2626
vn -0.7938 -0.5820 0.1765
vn -0.8323 -0.5488 -0.0783
vn -0.7328 -0.6765 -0.0736
vn -0.7188 -0.6818 0.1363
vn -0.6481 -0.7488 -0.1391
vn -0.7555 -0.5818 -0.3012
vn -0.6634 -0.6788 -0.3149
vn -0.5988 -0.7970 0.0787
vn -0.8216 -0.4933 -0.2857
vn -0.4869 -0.2923 0.8231
vn -0.6599 -0.3782 0.6493
vn -0.5568 -0.5025 0.6614
vn -0.4321 -0.4098 0.8033
vn -0.5113 -0.6098 0.6056
vn -0.7106 -0.5247 0.4687
vn -0.6278 -0.6300 0.4571
vn -0.3471 -0.5562 0.7550
vn -0.7696 -0.4301 0.4719
vn 0.7011 0.7100 -0.0666
vn 0.5215 0.8259 -0.2142
vn 0.4814 0.8741 -0.0649
vn 0.6372 0.7701 0.0309
vn 0.3882 0.9215 0.0110
vn 0.3053 0.9237 -0.2315
vn 0.2511 0.9612 -0.1141
vn 0.5343 0.8299 0.1607
vn 0.3458 0.8800 -0.3257
vn 0.7360 0.2229 -0.6392
vn 0.5961 0.4394 -0.6720
vn 0.6898 0.4763 -0.5452
vn 0.7893 0.2909 -0.5407
vn 0.7059 0.5531 -0.4425
vn 0.5065 0.6392 -0.5788
vn 0.5665 0.6800 -0.4655
vn 0.8394 0.3744 -0.3939
vn 0.4497 0.5965 -0.6648
vn 0.4453 -0.3216 0.8356
vn 0.2789 -0.5192 0.8079
vn 0.4051 -0.5660 0.7180
vn 0.5207 -0.3946 0.7570
vn 0.4461 -0.6429 0.6226
vn 0.2039 -0.7050 0.6793
vn 0.2937 -0.7515 0.5907
vn 0.6077 -0.4818 0.6313
vn 0.1266 -0.6566 0.7436
vn 0.2982 0.6521 -0.6970
vn 0.0850 0.5675 -0.8190
vn 0.0277 0.6871 -0.7260
vn 0.2142 0.7364 -0.6418
vn -0.0766 0.7386 -0.6698
vn -0.1522 0.5474 -0.8229
vn -0.2170 0.6337 -0.7425
vn 0.0958 0.8293 -0.5505
vn -0.0963 0.4683 -0.8783
vn -0.6931 -0.7124 -0.1094
vn -0.8293 -0.5464 -0.1171
vn -0.8296 -0.5459 -0.1172
vn -0.6931 -0.7125 -0.1095
vn -0.6394 -0.4898 0.5927
vn -0.6954 -0.3279 0.6394
vn -0.6400 -0.4884 0.5932
vn -0.9214 -0.3698 -0.1195
vn -0.5623 -0.6377 0.5266
vn -0.5623 -0.6377 0.5265
vn 0.0114 0.2433 0.9699
vn -0.0645 0.4317 0.8997
vn -0.0648 0.4322 0.8994
vn 0.0114 0.2434 0.9699
vn 0.6155 0.4855 0.6208
vn 0.6035 0.6183 0.5035
vn 0.6155 0.4867 0.6199
vn -0.1323 0.5886 0.7975
vn 0.6080 0.3358 0.7194
vn 0.6079 0.3358 0.7195
vn -0.6311 -0.6540 0.4171
vn -0.7325 -0.4773 0.4854
vn -0.7328 -0.4768 0.4855
vn -0.1272 -0.4146 0.9011
vn -0.1326 -0.2471 0.9599
vn -0.1273 -0.4132 0.9017
vn -0.7964 -0.2937 0.5286
vn -0.1177 -0.5705 0.8128
vn -0.0066 -0.1990 0.9800
vn -0.0476 0.0111 0.9988
vn -0.0478 0.0117 0.9988
vn 0.6474 0.0640 0.7595
vn 0.6632 0.2341 0.7109
vn 0.6633 0.2341 0.7108
vn 0.6476 0.0655 0.7591
vn -0.0838 0.2054 0.9751
vn 0.6106 -0.1098 0.7843
vn -0.9614 -0.2340 0.1448
vn -0.9889 -0.0209 0.1469
vn -0.9889 -0.0203 0.1469
vn -0.6188 -0.0822 0.7813
vn -0.5688 0.0842 0.8181
vn -0.6184 -0.0807 0.7817
vn -0.9737 0.1776 0.1428
vn -0.6494 -0.2476 0.7190
vn 0.3896 -0.6540 0.6485
vn 0.4535 -0.4773 0.7527
vn 0.4536 -0.4768 0.7529
vn 0.3897 -0.6540 0.6484
vn 0.8948 -0.4146 0.1657
vn 0.9533 -0.2471 0.1737
vn 0.9533 -0.2471 0.1736
vn 0.8954 -0.4132 0.1658
vn 0.4940 -0.2937 0.8184
vn 0.8070 -0.5705 0.1524
vn 0.8070 -0.5705 0.1525
vn 0.2823 -0.5057 0.8152
vn 0.3744 -0.3195 0.8705
vn 0.3746 -0.3190 0.8706
vn 0.2824 -0.5057 0.8152
vn 0.8171 -0.4885 0.3061
vn 0.9019 -0.3364 0.2709
vn 0.9019 -0.3364 0.2710
vn 0.8180 -0.4872 0.3058
vn 0.4442 -0.1337 0.8859
vn 0.7054 -0.6264 0.3318
vn 0.7053 -0.6264 0.3318
vn 0.3635 -0.9003 -0.2393
vn 0.5515 -0.7965 -0.2478
vn 0.5519 -0.7962 -0.2478
vn 0.2382 -0.4885 -0.8394
vn 0.3405 -0.3474 -0.8737
vn 0.2391 -0.4873 -0.8399
vn 0.7031 -0.6675 -0.2453
vn 0.1272 -0.6153 -0.7780
vn 0.1272 -0.6154 -0.7779
vn -0.1053 -0.6788 0.7267
vn -0.0068 -0.5309 0.8474
vn -0.0066 -0.5304 0.8477
vn 0.5654 -0.7104 0.4191
vn 0.6822 -0.5793 0.4462
vn 0.6821 -0.5793 0.4462
vn 0.5665 -0.7093 0.4194
vn 0.0848 -0.3717 0.9245
vn 0.4294 -0.8200 0.3783
vn 0.4294 -0.8200 0.3784
vn 0.1142 0.9919 0.0562
vn 0.2886 0.9553 -0.0641
vn 0.2890 0.9551 -0.0645
vn 0.1144 0.9918 0.0562
vn 0.5267 0.6409 0.5585
vn 0.6674 0.5453 0.5072
vn 0.5280 0.6401 0.5581
vn 0.4383 0.8820 -0.1731
vn 0.3678 0.7169 0.5923
vn 0.4585 -0.0849 0.8846
vn 0.4584 -0.0848 0.8847
vn 0.1589 -0.2922 0.9431
vn 0.4347 -0.2498 0.8652
vn 0.1630 -0.4456 0.8803
vn -0.1291 -0.3211 0.9382
vn -0.0731 -0.4623 0.8837
vn 0.4004 -0.4014 0.8237
vn -0.1815 -0.1722 0.9682
vn 0.7293 -0.4497 0.5156
vn 0.7293 -0.4496 0.5158
vn 0.4336 -0.6265 0.6477
vn 0.6568 -0.5927 0.4662
vn 0.3715 -0.7467 0.5517
vn 0.1707 -0.6168 0.7683
vn 0.1608 -0.7349 0.6588
vn 0.5699 -0.7142 0.4064
vn 0.1760 -0.4833 0.8576
vn 0.1747 -0.6261 0.7599
vn 0.1746 -0.6261 0.7600
vn -0.1159 -0.7899 0.6022
vn 0.1676 -0.7468 0.6436
vn -0.0840 -0.8804 0.4668
vn -0.3869 -0.7738 0.5016
vn -0.3088 -0.8657 0.3940
vn 0.1564 -0.8428 0.5150
vn -0.4544 -0.6625 0.5954
vn 0.0181 -0.4688 0.8831
vn 0.0179 -0.4687 0.8832
vn -0.2813 -0.6217 0.7310
vn 0.0014 -0.6093 0.7930
vn -0.2535 -0.7422 0.6204
vn -0.5382 -0.5910 0.6009
vn -0.4671 -0.7132 0.5226
vn -0.0145 -0.7279 0.6855
vn -0.5948 -0.4543 0.6632
vn -0.5948 -0.4544 0.6632
vn 0.8638 -0.3522 0.3602
vn 0.8638 -0.3522 0.3604
vn 0.6368 -0.6312 0.4428
vn 0.8266 -0.4914 0.2743
vn 0.5997 -0.7343 0.3182
vn 0.3922 -0.7255 0.5655
vn 0.4035 -0.8089 0.4276
vn 0.7691 -0.6119 0.1846
vn 0.3708 -0.6239 0.6880
vn 0.3708 -0.6240 0.6879
vn -0.4918 0.7618 0.4216
vn -0.4917 0.7618 0.4218
vn -0.2227 0.9433 0.2462
vn -0.4885 0.8302 0.2685
vn -0.2442 0.9661 0.0832
vn 0.0595 0.9795 0.1922
vn -0.0124 0.9987 0.0487
vn -0.4724 0.8739 0.1145
vn 0.1292 0.9352 0.3297
vn 0.5857 -0.3530 0.7296
vn 0.5856 -0.3530 0.7297
vn 0.3878 -0.6539 0.6496
vn 0.6174 -0.4792 0.6238
vn 0.4350 -0.7386 0.5150
vn 0.1298 -0.7800 0.6122
vn 0.2223 -0.8404 0.4943
vn 0.6316 -0.5876 0.5058
vn 0.0346 -0.6998 0.7135
vn 0.0347 -0.6998 0.7135
vn 0.7393 0.5687 0.3605
vn 0.7394 0.5686 0.3605
vn 0.8326 0.5539 0.0038
vn 0.7024 0.6723 0.2339
vn 0.7492 0.6551 -0.0977
vn 0.8877 0.3970 -0.2331
vn 0.8025 0.5232 -0.2868
vn 0.6482 0.7540 0.1063
vn 0.9496 0.2611 -0.1737
vn 0.8354 -0.5387 -0.1096
vn 0.7560 -0.6148 -0.2248
vn 0.7851 -0.5261 -0.3269
vn 0.8825 -0.4466 -0.1472
vn 0.8226 -0.4266 -0.3759
vn 0.6559 -0.6068 -0.4490
vn 0.6582 -0.5040 -0.5593
vn 0.6426 -0.6823 -0.3486
vn 0.9241 -0.3323 -0.1889
vn 0.1333 -0.5283 -0.8385
vn 0.0237 -0.6271 -0.7786
vn -0.0876 -0.5589 -0.8246
vn 0.0868 -0.4440 -0.8918
vn -0.1482 -0.4696 -0.8703
vn -0.2111 -0.6647 -0.7166
vn -0.3372 -0.5850 -0.7376
vn -0.1014 -0.7199 -0.6866
vn 0.0311 -0.3387 -0.9404
vn 0.5680 -0.6158 0.5460
vn 0.6279 -0.6637 0.4064
vn 0.7244 -0.5652 0.3946
vn 0.6193 -0.5258 0.5831
vn 0.7799 -0.4649 0.4192
vn 0.7641 -0.6103 0.2089
vn 0.8523 -0.4936 0.1731
vn 0.6766 -0.6977 0.2354
vn 0.6697 -0.4126 0.6175
vn -0.3327 -0.8357 0.4368
vn -0.1832 -0.8529 0.4888
vn -0.1954 -0.7742 0.6020
vn -0.3913 -0.7704 0.5033
vn -0.2446 -0.6966 0.6745
vn -0.0031 -0.7723 0.6352
vn 0.0025 -0.6682 0.7440
vn -0.0078 -0.8462 0.5328
vn -0.4536 -0.6823 0.5733
vn -0.3321 0.6930 -0.6399
vn -0.1911 0.7634 -0.6170
vn -0.1207 0.6917 -0.7120
vn -0.3262 0.6153 -0.7176
vn -0.1002 0.6059 -0.7892
vn 0.0522 0.7579 -0.6503
vn 0.1433 0.6682 -0.7300
vn -0.0252 0.8199 -0.5720
vn -0.3143 0.5151 -0.7974
vn 0.4436 0.5305 -0.7223
vn 0.4317 0.6535 -0.6218
vn 0.5482 0.6290 -0.5512
vn 0.5339 0.4707 -0.7024
vn 0.6416 0.5685 -0.5150
vn 0.5045 0.7587 -0.4121
vn 0.6126 0.7260 -0.3124
vn 0.4049 0.7729 -0.4886
vn 0.6311 0.3937 -0.6684
vt 0.966382 8.503631
vt 0.966382 6.725045
vt 0.810921 6.725045
vt 0.810921 8.503631
vt 0.344539 8.503631
vt 0.344539 6.725048
vt 0.189079 6.725048
vt 0.189079 8.503631
vt 0.500000 8.503631
vt 0.500000 6.725048
vt 0.655461 8.503631
vt 0.655461 6.725048
vt 0.966382 4.946462
vt 0.810921 4.946462
vt 0.344539 4.946462
vt 0.189079 4.946462
vt 0.500000 4.946462
vt 0.655461 4.946462
vt 0.966382 3.167876
vt 0.810921 3.167876
vt 0.189079 3.167876
vt 0.033618 3.167878
vt 0.344539 3.167876
vt 0.500000 3.167876
vt 0.655461 3.167876
vt 0.966382 1.389293
vt 0.810921 1.389293
vt 0.189079 1.389293
vt 0.033618 1.389293
vt 0.344539 1.389293
vt 0.500000 1.389293
vt 0.655461 1.389293
vt 0.810921 -0.389293
vt 0.189079 -0.389293
vt 0.033618 -0.389292
vt 0.344539 -0.389293
vt 0.500000 -0.389293
vt 0.655461 -0.389293
vt 0.966382 -0.389294
vt 0.966382 -2.167878
vt 0.810921 -2.167878
vt 0.189079 -2.167876
vt 0.033618 -2.167876
vt 0.500000 -2.167877
vt 0.344539 -2.167877
vt 0.655461 -2.167877
vt 0.966382 -3.946462
vt 0.810921 -3.946462
vt 0.189079 -3.946462
vt 0.033618 -3.946462
vt 0.344539 -3.946462
vt 0.500000 -3.946462
vt 0.655461 -3.946462
vt 0.966382 -5.725047
vt 0.810921 -5.725047
vt 0.189079 -5.725045
vt 0.033618 -5.725045
vt 0.500000 -5.725046
vt 0.344539 -5.725046
vt 0.655461 -5.725046
vt 0.966382 -7.503632
vt 0.810921 -7.503630
vt 0.189079 -7.503630
vt 0.033618 -7.503630
vt 0.344539 -7.503630
vt 0.500000 -7.503630
vt 0.655461 -7.503630
vt 0.033618 6.725048
vt 0.033618 8.503633
vt 0.033618 4.946462
vt 0.000000 0.000000
vt 0.475004 0.000000
vt 0.581436 0.594393
vt 0.000000 0.491831
vt 0.494355 1.000000
vt 1.000000 0.474417
vt 1.000000 1.000000
vt 0.000000 1.000000
vt 1.000000 0.000000
vt 0.533479 0.000000
vt 0.447807 0.563622
vt 0.000000 0.448746
vt 0.515396 1.000000
vt 1.000000 0.474699
vt 0.509433 1.000000
vt 0.557025 0.488493
vt 0.943530 0.531260
vt 0.672370 1.000000
vt 0.124045 0.440587
vt 0.259966 0.000000
vt 0.602475 0.000000
vt 0.860970 0.000000
vt 0.189556 1.000000
vt 0.480173 0.000000
vt 0.499095 0.494221
vt 0.000000 0.504135
vt 0.518459 1.000000
vt 1.000000 0.484268
vt 0.532232 1.000000
vt 0.477364 0.470556
vt 1.000000 0.533264
vt 0.516556 0.000000
vt 0.000000 0.535225
s 1
usemtl trunk-01-1
f 1/1/1 14/2/2 22/3/3
f 1/1/1 22/3/3 10/4/4
f 5/5/5 16/6/6 15/7/7
f 5/5/5 15/7/7 3/8/8
f 9/9/9 19/10/10 17/6/11
f 9/9/9 17/6/11 6/5/9
f 12/11/12 21/12/13 18/10/14
f 12/11/12 18/10/14 7/9/12
f 11/4/15 23/3/16 20/12/17
f 14/2/2 24/13/18 31/14/19
f 14/2/2 31/14/19 22/3/3
f 16/6/6 27/15/20 26/16/21
f 16/6/6 26/16/21 15/7/7
f 19/10/10 30/17/22 28/15/23
f 19/10/10 28/15/23 17/6/11
f 21/12/13 33/18/24 29/17/25
f 21/12/13 29/17/25 18/10/14
f 23/3/16 32/18/26 20/12/17
f 24/13/18 35/19/27 45/20/28
f 24/13/18 45/20/28 31/14/19
f 25/16/29 37/21/30 36/22/31
f 27/15/20 39/23/32 38/21/33
f 27/15/20 38/21/33 26/16/21
f 30/17/22 44/24/34 40/23/35
f 30/17/22 40/23/35 28/15/23
f 33/18/24 41/24/36 29/17/25
f 34/14/24 46/20/37 42/25/36
f 35/19/27 47/26/38 55/27/39
f 35/19/27 55/27/39 45/20/28
f 37/21/30 49/28/40 48/29/41
f 37/21/30 48/29/41 36/22/31
f 39/23/32 51/30/42 50/28/42
f 39/23/32 50/28/42 38/21/33
f 44/24/34 54/31/43 52/30/44
f 44/24/34 52/30/44 40/23/35
f 43/25/45 57/32/46 53/31/47
f 46/20/37 56/32/48 42/25/36
f 47/26/38 68/33/49 55/27/39
f 49/28/40 58/34/50 67/35/51
f 49/28/40 67/35/51 48/29/41
f 51/30/42 60/36/52 59/34/53
f 51/30/42 59/34/53 50/28/42
f 54/31/43 63/37/54 61/36/55
f 54/31/43 61/36/55 52/30/44
f 57/32/46 65/38/56 62/37/57
f 57/32/46 62/37/57 53/31/47
f 55/27/39 68/33/49 64/38/58
f 66/39/59 69/40/60 79/41/61
f 58/34/50 71/42/62 70/43/63
f 58/34/50 70/43/63 67/35/51
f 60/36/52 72/42/64 59/34/53
f 63/37/54 76/44/65 74/45/66
f 63/37/54 74/45/66 61/36/55
f 65/38/56 78/46/67 75/44/68
f 65/38/56 75/44/68 62/37/57
f 68/33/49 80/41/69 77/46/70
f 68/33/49 77/46/70 64/38/58
f 69/40/60 81/47/71 89/48/72
f 69/40/60 89/48/72 79/41/61
f 71/42/62 83/49/73 82/50/74
f 71/42/62 82/50/74 70/43/63
f 73/45/75 85/51/76 84/49/77
f 76/44/65 88/52/78 86/51/79
f 76/44/65 86/51/79 74/45/66
f 78/46/67 92/53/80 87/52/81
f 78/46/67 87/52/81 75/44/68
f 80/41/69 91/53/82 77/46/70
f 81/47/71 93/54/83 103/55/84
f 81/47/71 103/55/84 89/48/72
f 83/49/73 95/56/85 94/57/86
f 83/49/73 94/57/86 82/50/74
f 85/51/76 97/56/87 84/49/77
f 88/52/78 100/58/88 98/59/89
f 88/52/78 98/59/89 86/51/79
f 92/53/80 102/60/90 99/58/90
f 92/53/80 99/58/90 87/52/81
f 90/48/91 104/55/92 101/60/93
f 93/54/83 105/61/94 115/62/95
f 93/54/83 115/62/95 103/55/84
f 95/56/85 233/63/96 106/64/96
f 95/56/85 106/64/96 94/57/86
f 96/59/97 107/65/97 234/63/97
f 100/58/88 112/66/98 108/65/98
f 100/58/88 108/65/98 98/59/89
f 102/60/90 114/67/99 111/66/99
f 102/60/90 111/66/99 99/58/90
f 104/55/92 116/62/100 113/67/101
f 104/55/92 113/67/101 101/60/93
f 119/1/102 132/2/103 141/3/104
f 119/1/102 141/3/104 130/4/102
f 123/8/105 134/7/106 131/68/107
f 123/8/105 131/68/107 118/69/105
f 121/5/108 137/6/109 133/7/110
s 0
f 124/9/111 135/6/111 120/5/111
s 1
f 127/11/112 138/12/113 136/10/114
f 127/11/112 136/10/114 125/9/112
f 129/4/115 140/3/116 139/12/117
f 132/2/103 144/13/118 156/14/119
f 132/2/103 156/14/119 141/3/104
f 134/7/106 146/16/120 142/70/120
f 134/7/106 142/70/120 131/68/107
f 137/6/109 150/15/121 145/16/122
f 137/6/109 145/16/122 133/7/110
f 138/12/113 153/18/123 149/17/123
f 138/12/113 149/17/123 136/10/114
f 140/3/116 155/14/124 154/18/125
f 140/3/116 154/18/125 139/12/117
f 144/13/118 158/19/126 167/20/127
f 144/13/118 167/20/127 156/14/119
f 147/16/128 162/21/129 157/22/130
f 147/16/128 157/22/130 143/70/128
f 150/15/121 159/21/131 145/16/122
f 151/17/121 164/24/132 160/23/133
f 152/18/134 165/25/135 163/24/136
f 152/18/134 163/24/136 148/17/134
f 155/14/124 167/20/127 166/25/137
f 155/14/124 166/25/137 154/18/125
f 158/19/126 168/27/138 167/20/127
f 162/21/129 172/28/139 169/29/140
f 162/21/129 169/29/140 157/22/130
f 161/23/141 174/30/142 171/28/143
f 164/24/132 175/31/144 173/30/145
f 164/24/132 173/30/145 160/23/133
f 165/25/135 177/32/146 176/31/147
f 165/25/135 176/31/147 163/24/136
f 167/20/127 168/27/138 178/32/148
f 167/20/127 178/32/148 166/25/137
f 170/26/149 286/39/150 192/33/151
f 172/28/139 182/34/152 284/35/152
f 172/28/139 284/35/152 169/29/140
f 174/30/142 190/36/153 181/34/153
f 174/30/142 181/34/153 171/28/143
f 175/31/144 293/37/154 187/36/155
f 175/31/144 187/36/155 173/30/145
f 177/32/146 279/38/156 294/37/156
f 177/32/146 294/37/156 176/31/147
f 168/27/138 191/33/157 281/38/158
f 168/27/138 281/38/158 178/32/148
f 286/39/150 194/40/159 204/41/160
f 286/39/150 204/41/160 192/33/151
f 184/34/161 196/42/162 193/43/163
f 184/34/161 193/43/163 287/35/161
f 189/36/164 198/45/165 195/42/165
f 189/36/164 195/42/165 180/34/166
f 291/37/167 199/44/168 197/45/169
f 291/37/167 197/45/169 186/36/167
f 277/38/170 201/46/171 200/44/172
f 277/38/170 200/44/172 289/37/173
f 191/33/157 203/41/174 202/46/174
f 191/33/157 202/46/174 281/38/158
f 194/40/159 215/48/175 204/41/160
f 196/42/162 206/49/176 214/50/175
f 196/42/162 214/50/175 193/43/163
f 198/45/165 209/51/177 205/49/177
f 198/45/165 205/49/177 195/42/165
f 199/44/168 207/51/178 197/45/169
f 201/46/171 210/53/179 208/52/178
f 201/46/171 208/52/178 200/44/172
f 203/41/174 212/48/180 211/53/181
f 203/41/174 211/53/181 202/46/174
f 213/47/182 216/54/183 226/55/184
f 206/49/176 219/56/185 217/57/186
f 206/49/176 217/57/186 214/50/175
f 209/51/177 221/59/187 218/56/188
f 209/51/177 218/56/188 205/49/177
f 208/52/178 222/58/189 220/59/190
f 210/53/179 223/60/191 222/58/189
f 210/53/179 222/58/189 208/52/178
f 212/48/180 225/55/192 224/60/193
f 212/48/180 224/60/193 211/53/181
f 216/54/183 228/61/194 238/62/195
f 216/54/183 238/62/195 226/55/184
f 219/56/185 230/63/196 227/64/197
f 219/56/185 227/64/197 217/57/186
f 221/59/187 110/65/198 229/63/198
f 221/59/187 229/63/198 218/56/188
f 222/58/189 232/66/199 109/65/199
f 222/58/189 109/65/199 220/59/190
f 223/60/191 235/67/200 231/66/200
f 223/60/191 231/66/200 222/58/189
f 225/55/192 237/62/201 236/67/201
f 225/55/192 236/67/201 224/60/193
f 239/1/202 253/19/203 264/20/204
f 239/1/202 264/20/204 251/4/205
f 241/8/206 255/21/207 254/22/208
f 245/5/209 258/23/210 256/21/211
f 245/5/209 256/21/211 242/8/212
f 249/9/213 260/24/214 257/23/215
f 249/9/213 257/23/215 244/5/213
f 247/11/216 262/25/217 259/24/218
f 250/4/219 263/20/220 261/25/221
f 250/4/219 261/25/221 246/11/219
f 253/19/203 265/40/222 276/41/223
f 253/19/203 276/41/223 264/20/204
f 255/21/207 267/42/224 266/43/225
f 255/21/207 266/43/225 254/22/208
f 258/23/210 270/45/226 268/42/227
f 258/23/210 268/42/227 256/21/211
f 260/24/214 272/44/228 269/45/229
f 260/24/214 269/45/229 257/23/215
f 262/25/217 274/46/230 271/44/231
f 262/25/217 271/44/231 259/24/218
f 263/20/220 275/41/232 273/46/233
f 263/20/220 273/46/233 261/25/221
f 265/40/222 278/61/234 292/62/234
f 265/40/222 292/62/234 276/41/223
f 267/42/224 282/63/235 280/64/235
f 267/42/224 280/64/235 266/43/225
f 270/45/226 288/65/236 283/63/236
f 270/45/226 283/63/236 268/42/227
f 272/44/228 183/66/237 285/65/238
f 272/44/228 285/65/238 269/45/229
f 274/46/230 188/67/239 179/66/239
f 274/46/230 179/66/239 271/44/231
f 275/41/232 290/62/240 185/67/240
f 275/41/232 185/67/240 273/46/233
s 0
f 252/4/241 248/11/241 243/5/241
f 252/4/241 243/5/241 240/8/241
s 1
f 128/11/242 126/9/242 122/5/243
f 128/11/242 122/5/243 117/69/242
f 8/9/244 4/5/244 2/1/244
f 8/9/244 2/1/244 13/11/245
usemtl branch-02-1
f 295/71/246 299/72/247 301/73/248
f 295/71/246 301/73/248 303/74/249
f 300/75/250 301/73/248 302/76/251
f 300/75/250 302/76/251 298/77/252
f 303/74/249 301/73/248 300/75/250
f 303/74/249 300/75/250 297/78/253
f 302/76/251 301/73/248 299/72/247
f 302/76/251 299/72/247 296/79/254
f 304/71/255 308/72/256 310/73/257
f 304/71/255 310/73/257 312/74/258
f 309/75/259 310/73/257 311/76/260
f 309/75/259 311/76/260 307/77/261
f 312/74/258 310/73/257 309/75/259
f 312/74/258 309/75/259 306/78/262
f 311/76/260 310/73/257 308/72/256
f 311/76/260 308/72/256 305/79/263
f 313/71/264 317/72/265 319/73/266
f 313/71/264 319/73/266 321/74/267
f 318/75/268 319/73/266 320/76/269
f 318/75/268 320/76/269 316/77/270
f 321/74/267 319/73/266 318/75/268
f 321/74/267 318/75/268 315/78/271
f 320/76/269 319/73/266 317/72/265
f 320/76/269 317/72/265 314/79/272
f 322/71/273 326/72/274 328/73/275
f 322/71/273 328/73/275 330/74/276
f 327/75/277 328/73/275 329/76/278
f 327/75/277 329/76/278 325/77/279
f 330/74/276 328/73/275 327/75/277
f 330/74/276 327/75/277 324/78/280
f 329/76/278 328/73/275 326/72/274
f 329/76/278 326/72/274 323/79/281
f 331/71/282 335/72/283 337/73/284
f 331/71/282 337/73/284 339/74/285
f 336/75/286 337/73/284 338/76/287
f 336/75/286 338/76/287 334/77/288
f 339/74/285 337/73/284 336/75/286
f 339/74/285 336/75/286 333/78/289
f 338/76/287 337/73/284 335/72/283
f 338/76/287 335/72/283 332/79/290
f 340/71/291 344/72/292 346/73/293
f 340/71/291 346/73/293 348/74/294
f 345/75/295 346/73/293 347/76/296
f 345/75/295 347/76/296 343/77/297
f 348/74/294 346/73/293 345/75/295
f 348/74/294 345/75/295 342/78/298
f 347/76/296 346/73/293 344/72/292
f 347/76/296 344/72/292 341/79/299
f 349/71/300 353/72/301 355/73/302
f 349/71/300 355/73/302 357/74/303
f 354/75/304 355/73/302 356/76/305
f 354/75/304 356/76/305 352/77/306
f 357/74/303 355/73/302 354/75/304
f 357/74/303 354/75/304 351/78/307
f 356/76/305 355/73/302 353/72/301
f 356/76/305 353/72/301 350/79/308
f 358/71/309 362/72/310 364/73/311
f 358/71/309 364/73/311 366/74/312
f 363/75/313 364/73/311 365/76/314
f 363/75/313 365/76/314 361/77/315
f 366/74/312 364/73/311 363/75/313
f 366/74/312 363/75/313 360/78/316
f 365/76/314 364/73/311 362/72/310
f 365/76/314 362/72/310 359/79/317
f 367/71/318 371/72/319 373/73/320
f 367/71/318 373/73/320 375/74/321
f 372/75/322 373/73/320 374/76/323
f 372/75/322 374/76/323 370/77/324
f 375/74/321 373/73/320 372/75/322
f 375/74/321 372/75/322 369/78/325
f 374/76/323 373/73/320 371/72/319
f 374/76/323 371/72/319 368/79/326
f 376/71/327 380/72/328 382/73/329
f 376/71/327 382/73/329 384/74/330
f 381/75/331 382/73/329 383/76/332
f 381/75/331 383/76/332 379/77/333
f 384/74/330 382/73/329 381/75/331
f 384/74/330 381/75/331 378/78/334
f 383/76/332 382/73/329 380/72/328
f 383/76/332 380/72/328 377/79/335
f 385/71/336 389/72/337 391/73/338
f 385/71/336 391/73/338 393/74/339
f 390/75/340 391/73/338 392/76/341
f 390/75/340 392/76/341 388/77/342
f 393/74/339 391/73/338 390/75/340
f 393/74/339 390/75/340 387/78/343
f 392/76/341 391/73/338 389/72/337
f 392/76/341 389/72/337 386/79/344
f 394/71/345 398/72/346 400/73/347
f 394/71/345 400/73/347 402/74/348
f 399/75/349 400/73/347 401/76/350
f 399/75/349 401/76/350 397/77/351
f 402/74/348 400/73/347 399/75/349
f 402/74/348 399/75/349 396/78/352
f 401/76/350 400/73/347 398/72/346
f 401/76/350 398/72/346 395/79/353
f 403/71/354 407/72/355 409/73/356
f 403/71/354 409/73/356 411/74/357
f 408/75/358 409/73/356 410/76/359
f 408/75/358 410/76/359 406/77/360
f 411/74/357 409/73/356 408/75/358
f 411/74/357 408/75/358 405/78/361
f 410/76/359 409/73/356 407/72/355
f 410/76/359 407/72/355 404/79/362
f 412/71/363 416/72/364 418/73/365
f 412/71/363 418/73/365 420/74/366
f 417/75/367 418/73/365 419/76/368
f 417/75/367 419/76/368 415/77/369
f 420/74/366 418/73/365 417/75/367
f 420/74/366 417/75/367 414/78/370
f 419/76/368 418/73/365 416/72/364
f 419/76/368 416/72/364 413/79/371
usemtl branch-01-1
f 421/71/372 425/80/373 427/81/374
f 421/71/372 427/81/374 428/82/375
f 426/83/376 427/81/374 429/84/377
f 426/83/376 429/84/377 424/77/378
f 428/82/375 427/81/374 426/83/376
f 428/82/375 426/83/376 423/78/379
f 429/84/377 427/81/374 425/80/373
f 429/84/377 425/80/373 422/79/380
f 430/71/381 434/80/382 436/81/383
f 430/71/381 436/81/383 437/82/384
f 435/83/385 436/81/383 438/84/386
f 435/83/385 438/84/386 433/77/387
f 437/82/384 436/81/383 435/83/385
f 437/82/384 435/83/385 432/78/388
f 438/84/386 436/81/383 434/80/382
f 438/84/386 434/80/382 431/79/389
f 439/71/390 443/80/391 445/81/392
f 439/71/390 445/81/392 446/82/393
f 444/83/394 445/81/392 447/84/395
f 444/83/394 447/84/395 442/77/396
f 446/82/393 445/81/392 444/83/394
f 446/82/393 444/83/394 441/78/397
f 447/84/395 445/81/392 443/80/391
f 447/84/395 443/80/391 440/79/398
f 448/71/399 452/80/400 454/81/401
f 448/71/399 454/81/401 455/82/402
f 453/83/403 454/81/401 456/84/404
f 453/83/403 456/84/404 451/77/405
f 455/82/402 454/81/401 453/83/403
f 455/82/402 453/83/403 450/78/406
f 456/84/404 454/81/401 452/80/400
f 456/84/404 452/80/400 449/79/407
f 457/71/408 461/80/409 463/81/410
f 457/71/408 463/81/410 464/82/411
f 462/83/412 463/81/410 465/84/413
f 462/83/412 465/84/413 460/77/414
f 464/82/411 463/81/410 462/83/412
f 464/82/411 462/83/412 459/78/415
f 465/84/413 463/81/410 461/80/409
f 465/84/413 461/80/409 458/79/416
f 466/71/417 470/80/418 472/81/419
f 466/71/417 472/81/419 473/82/420
f 471/83/421 472/81/419 474/84/422
f 471/83/421 474/84/422 469/77/423
f 473/82/420 472/81/419 471/83/421
f 473/82/420 471/83/421 468/78/424
f 474/84/422 472/81/419 470/80/418
f 474/84/422 470/80/418 467/79/425
f 475/71/426 479/80/427 481/81/428
f 475/71/426 481/81/428 482/82/429
f 480/83/430 481/81/428 483/84/431
f 480/83/430 483/84/431 478/77/432
f 482/82/429 481/81/428 480/83/430
f 482/82/429 480/83/430 477/78/433
f 483/84/431 481/81/428 479/80/427
f 483/84/431 479/80/427 476/79/434
f 484/71/435 488/80/436 490/81/437
f 484/71/435 490/81/437 491/82/438
f 489/83/439 490/81/437 492/84/440
f 489/83/439 492/84/440 487/77/441
f 491/82/438 490/81/437 489/83/439
f 491/82/438 489/83/439 486/78/442
f 492/84/440 490/81/437 488/80/436
f 492/84/440 488/80/436 485/79/443
f 493/71/444 497/80/445 499/81/446
f 493/71/444 499/81/446 500/82/447
f 498/83/448 499/81/446 501/84/449
f 498/83/448 501/84/449 496/77/450
f 500/82/447 499/81/446 498/83/448
f 500/82/447 498/83/448 495/78/451
f 501/84/449 499/81/446 497/80/445
f 501/84/449 497/80/445 494/79/452
f 502/71/453 506/80/454 508/81/455
f 502/71/453 508/81/455 509/82/456
f 507/83/457 508/81/455 510/84/458
f 507/83/457 510/84/458 505/77/459
f 509/82/456 508/81/455 507/83/457
f 509/82/456 507/83/457 504/78/460
f 510/84/458 508/81/455 506/80/454
f 510/84/458 506/80/454 503/79/461
f 511/71/462 515/80/463 517/81/464
f 511/71/462 517/81/464 518/82/465
f 516/83/466 517/81/464 519/84/467
f 516/83/466 519/84/467 514/77/468
f 518/82/465 517/81/464 516/83/466
f 518/82/465 516/83/466 513/78/469
f 519/84/467 517/81/464 515/80/463
f 519/84/467 515/80/463 512/79/470
f 520/71/471 524/80/472 526/81/473
f 520/71/471 526/81/473 527/82/474
f 525/83/475 526/81/473 528/84/476
f 525/83/475 528/84/476 523/77/477
f 527/82/474 526/81/473 525/83/475
f 527/82/474 525/83/475 522/78/478
f 528/84/476 526/81/473 524/80/472
f 528/84/476 524/80/472 521/79/479
f 529/71/480 533/80/481 535/81/482
f 529/71/480 535/81/482 536/82/483
f 534/83/484 535/81/482 537/84/485
f 534/83/484 537/84/485 532/77/486
f 536/82/483 535/81/482 534/83/484
f 536/82/483 534/83/484 531/78/487
f 537/84/485 535/81/482 533/80/481
f 537/84/485 533/80/481 530/79/488
f 538/71/489 542/80/490 544/81/491
f 538/71/489 544/81/491 545/82/492
f 543/83/493 544/81/491 546/84/494
f 543/83/493 546/84/494 541/77/495
f 545/82/492 544/81/491 543/83/493
f 545/82/492 543/83/493 540/78/496
f 546/84/494 544/81/491 542/80/490
f 546/84/494 542/80/490 539/79/497
f 547/71/498 551/80/499 553/81/500
f 547/71/498 553/81/500 554/82/501
f 552/83/502 553/81/500 555/84/503
f 552/83/502 555/84/503 550/77/504
f 554/82/501 553/81/500 552/83/502
f 554/82/501 552/83/502 549/78/505
f 555/84/503 553/81/500 551/80/499
f 555/84/503 551/80/499 548/79/506
usemtl branch-04-1
f 556/85/507 560/86/508 565/87/509
f 556/85/507 565/87/509 566/88/510
f 563/89/511 562/90/512 559/91/512
f 563/89/511 559/91/512 561/86/513
f 564/92/514 565/87/509 560/86/508
f 564/92/514 560/86/508 558/91/514
f 567/93/515 563/89/511 561/86/513
f 567/93/515 561/86/513 557/85/516
f 568/85/517 572/86/518 577/87/519
f 568/85/517 577/87/519 578/88/520
f 575/89/521 574/90/522 571/91/522
f 575/89/521 571/91/522 573/86/523
f 576/92/524 577/87/519 572/86/518
f 576/92/524 572/86/518 570/91/524
f 579/93/525 575/89/521 573/86/523
f 579/93/525 573/86/523 569/85/526
f 580/85/527 584/86/528 589/87/529
f 580/85/527 589/87/529 590/88/527
f 587/89/530 586/90/531 583/91/531
f 587/89/530 583/91/531 585/86/532
f 588/92/533 589/87/529 584/86/528
f 588/92/533 584/86/528 582/91/533
f 591/93/534 587/89/530 585/86/532
f 591/93/534 585/86/532 581/85/534
f 592/85/535 596/86/536 601/87/537
f 592/85/535 601/87/537 602/88/535
f 599/89/538 598/90/539 595/91/540
f 599/89/538 595/91/540 597/86/541
f 600/92/542 601/87/537 596/86/536
f 600/92/542 596/86/536 594/91/542
f 603/93/543 599/89/538 597/86/541
f 603/93/543 597/86/541 593/85/543
f 604/85/544 608/86/545 613/87/546
f 604/85/544 613/87/546 614/88/544
f 611/89/547 610/90/548 607/91/548
f 611/89/547 607/91/548 609/86/549
f 612/92/550 613/87/546 608/86/545
f 612/92/550 608/86/545 606/91/550
f 615/93/551 611/89/547 609/86/549
f 615/93/551 609/86/549 605/85/551
f 616/85/552 620/86/553 625/87/554
f 616/85/552 625/87/554 626/88/555
f 623/89/556 622/90/557 619/91/558
f 623/89/556 619/91/558 621/86/559
f 624/92/560 625/87/554 620/86/553
f 624/92/560 620/86/553 618/91/560
f 627/93/561 623/89/556 621/86/559
f 627/93/561 621/86/559 617/85/562
f 628/85/563 632/86/564 637/87/565
f 628/85/563 637/87/565 638/88/566
f 635/89/567 634/90/568 631/91/569
f 635/89/567 631/91/569 633/86/570
f 636/92/571 637/87/565 632/86/564
f 636/92/571 632/86/564 630/91/571
f 639/93/572 635/89/567 633/86/570
f 639/93/572 633/86/570 629/85/573
f 641/85/574 645/86/575 649/87/576
f 641/85/574 649/87/576 650/88/574
f 647/89/577 646/90/578 642/91/578
f 647/89/577 642/91/578 644/86/579
f 648/92/580 649/87/576 645/86/575
f 648/92/580 645/86/575 643/91/580
f 651/93/581 647/89/577 644/86/579
f 651/93/581 644/86/579 640/85/582
f 652/85/583 656/86/584 661/87/585
f 652/85/583 661/87/585 662/88/583
f 659/89/586 658/90/587 655/91/588
f 659/89/586 655/91/588 657/86/589
f 660/92/590 661/87/585 656/86/584
f 660/92/590 656/86/584 654/91/590
f 663/93/591 659/89/586 657/86/589
f 663/93/591 657/86/589 653/85/592
f 664/85/593 668/86/594 673/87/595
f 664/85/593 673/87/595 674/88/596
f 671/89/597 670/90/598 667/91/598
f 671/89/597 667/91/598 669/86/599
f 672/92/600 673/87/595 668/86/594
f 672/92/600 668/86/594 666/91/600
f 675/93/601 671/89/597 669/86/599
f 675/93/601 669/86/599 665/85/601
usemtl branch-05-1
f 676/71/602 681/94/603 685/95/604
f 676/71/602 685/95/604 684/96/605
f 682/97/606 685/95/604 683/98/607
f 682/97/606 683/98/607 679/77/608
f 684/96/605 685/95/604 682/97/606
f 684/96/605 682/97/606 678/78/609
f 683/98/607 685/95/604 680/94/610
f 683/98/607 680/94/610 677/79/610
f 686/71/611 691/94/612 695/95/613
f 686/71/611 695/95/613 694/96/614
f 692/97/615 695/95/613 693/98/616
f 692/97/615 693/98/616 689/77/617
f 694/96/614 695/95/613 692/97/615
f 694/96/614 692/97/615 688/78/618
f 693/98/616 695/95/613 690/94/619
f 693/98/616 690/94/619 687/79/619
f 696/71/620 701/94/621 705/95/622
f 696/71/620 705/95/622 704/96/623
f 702/97/624 705/95/622 703/98/625
f 702/97/624 703/98/625 699/77/626
f 704/96/623 705/95/622 702/97/624
f 704/96/623 702/97/624 698/78/627
f 703/98/625 705/95/622 700/94/628
f 703/98/625 700/94/628 697/79/628
f 706/71/629 711/94/630 715/95/631
f 706/71/629 715/95/631 714/96/632
f 712/97/633 715/95/631 713/98/634
f 712/97/633 713/98/634 709/77/635
f 714/96/632 715/95/631 712/97/633
f 714/96/632 712/97/633 708/78/636
f 713/98/634 715/95/631 710/94/637
f 713/98/634 710/94/637 707/79/638
f 716/71/639 721/94/640 725/95/641
f 716/71/639 725/95/641 724/96/642
f 722/97/643 725/95/641 723/98/644
f 722/97/643 723/98/644 719/77/645
f 724/96/642 725/95/641 722/97/643
f 724/96/642 722/97/643 718/78/646
f 723/98/644 725/95/641 720/94/647
f 723/98/644 720/94/647 717/79/648
f 726/71/649 730/94/650 735/95/651
f 726/71/649 735/95/651 734/96/652
f 732/97/653 735/95/651 733/98/654
f 732/97/653 733/98/654 729/77/655
f 734/96/652 735/95/651 732/97/653
f 734/96/652 732/97/653 728/78/656
f 733/98/654 735/95/651 731/94/657
f 733/98/654 731/94/657 727/79/657
f 736/71/658 741/94/659 745/95/660
f 736/71/658 745/95/660 744/96/661
f 742/97/662 745/95/660 743/98/663
f 742/97/662 743/98/663 739/77/664
f 744/96/661 745/95/660 742/97/662
f 744/96/661 742/97/662 738/78/665
f 743/98/663 745/95/660 740/94/666
f 743/98/663 740/94/666 737/79/667
f 746/71/668 750/94/669 755/95/670
f 746/71/668 755/95/670 754/96/671
f 752/97/672 755/95/670 753/98/673
f 752/97/672 753/98/673 749/77/674
f 754/96/671 755/95/670 752/97/672
f 754/96/671 752/97/672 748/78/675
f 753/98/673 755/95/670 751/94/676
f 753/98/673 751/94/676 747/79/676
usemtl branch-03-1
f 759/77/677 760/99/678 762/100/679
f 759/77/677 762/100/679 764/101/680
f 761/102/681 762/100/679 763/103/682
f 761/102/681 763/103/682 756/71/683
f 763/103/682 762/100/679 760/99/678
f 763/103/682 760/99/678 758/78/684
f 764/101/680 762/100/679 761/102/681
f 764/101/680 761/102/681 757/79/685
f 768/77/686 769/99/687 771/100/688
f 768/77/686 771/100/688 773/101/689
f 770/102/690 771/100/688 772/103/691
f 770/102/690 772/103/691 765/71/692
f 772/103/691 771/100/688 769/99/687
f 772/103/691 769/99/687 767/78/693
f 773/101/689 771/100/688 770/102/690
f 773/101/689 770/102/690 766/79/694
f 777/77/695 778/99/696 780/100/697
f 777/77/695 780/100/697 782/101/698
f 779/102/699 780/100/697 781/103/700
f 779/102/699 781/103/700 774/71/701
f 781/103/700 780/100/697 778/99/696
f 781/103/700 778/99/696 776/78/702
f 782/101/698 780/100/697 779/102/699
f 782/101/698 779/102/699 775/79/703
f 786/77/704 787/99/705 789/100/706
f 786/77/704 789/100/706 791/101/707
f 788/102/708 789/100/706 790/103/709
f 788/102/708 790/103/709 783/71/710
f 790/103/709 789/100/706 787/99/705
f 790/103/709 787/99/705 785/78/711
f 791/101/707 789/100/706 788/102/708
f 791/101/707 788/102/708 784/79/712
f 795/77/713 796/99/714 798/100/715
f 795/77/713 798/100/715 800/101/716
f 797/102/717 798/100/715 799/103/718
f 797/102/717 799/103/718 792/71/719
f 799/103/718 798/100/715 796/99/714
f 799/103/718 796/99/714 794/78/720
f 800/101/716 798/100/715 797/102/717
f 800/101/716 797/102/717 793/79/721
f 804/77/722 805/99/723 807/100/724
f 804/77/722 807/100/724 809/101/725
f 806/102/726 807/100/724 808/103/727
f 806/102/726 808/103/727 801/71/728
f 808/103/727 807/100/724 805/99/723
f 808/103/727 805/99/723 803/78/729
f 809/101/725 807/100/724 806/102/726
f 809/101/725 806/102/726 802/79/730
