<?xml version="1.0" encoding="utf-8"?>
<COLLADA xmlns="http://www.collada.org/2005/11/COLLADASchema" version="1.4.1" xmlns:xsi="http://www.w3.org/2001/XMLSchema-instance">
  <asset>
    <contributor>
      <author>Blender User</author>
      <authoring_tool>Blender 3.6.23 commit date:2025-06-16, commit time:11:52, hash:e467db79ca8c</authoring_tool>
    </contributor>
    <created>2025-12-13T22:32:29</created>
    <modified>2025-12-13T22:32:29</modified>
    <unit name="meter" meter="1"/>
    <up_axis>Z_UP</up_axis>
  </asset>
  <library_cameras>
    <camera id="Camera-camera" name="Camera.002">
      <optics>
        <technique_common>
          <perspective>
            <xfov sid="xfov">39.59775</xfov>
            <aspect_ratio>1.777778</aspect_ratio>
            <znear sid="znear">0.1</znear>
            <zfar sid="zfar">100</zfar>
          </perspective>
        </technique_common>
      </optics>
      <extra>
        <technique profile="blender">
          <shiftx sid="shiftx" type="float">0</shiftx>
          <shifty sid="shifty" type="float">0</shifty>
          <dof_distance sid="dof_distance" type="float">10</dof_distance>
        </technique>
      </extra>
    </camera>
    <camera id="Camera_001-camera" name="Camera.001">
      <optics>
        <technique_common>
          <perspective>
            <xfov sid="xfov">39.59775</xfov>
            <aspect_ratio>1.777778</aspect_ratio>
            <znear sid="znear">0.1</znear>
            <zfar sid="zfar">100</zfar>
          </perspective>
        </technique_common>
      </optics>
      <extra>
        <technique profile="blender">
          <shiftx sid="shiftx" type="float">0</shiftx>
          <shifty sid="shifty" type="float">0</shifty>
          <dof_distance sid="dof_distance" type="float">0</dof_distance>
        </technique>
      </extra>
    </camera>
  </library_cameras>
  <library_lights>
    <light id="env_light_002-light" name="env_light.002">
      <technique_common>
        <point>
          <color sid="color">1 1 1</color>
          <constant_attenuation>1</constant_attenuation>
          <linear_attenuation>0</linear_attenuation>
          <quadratic_attenuation>0.001599967</quadratic_attenuation>
        </point>
      </technique_common>
      <extra>
        <technique profile="blender">
          <type sid="type" type="int">0</type>
          <flag sid="flag" type="int">0</flag>
          <mode sid="mode" type="int">1</mode>
          <gamma sid="blender_gamma" type="float">1</gamma>
          <red sid="red" type="float">1</red>
          <green sid="green" type="float">1</green>
          <blue sid="blue" type="float">1</blue>
          <shadow_r sid="blender_shadow_r" type="float">0</shadow_r>
          <shadow_g sid="blender_shadow_g" type="float">0</shadow_g>
          <shadow_b sid="blender_shadow_b" type="float">0</shadow_b>
          <energy sid="blender_energy" type="float">1</energy>
          <dist sid="blender_dist" type="float">25</dist>
          <spotsize sid="spotsize" type="float">45</spotsize>
          <spotblend sid="spotblend" type="float">0.15</spotblend>
          <att1 sid="att1" type="float">0</att1>
          <att2 sid="att2" type="float">1</att2>
          <falloff_type sid="falloff_type" type="int">2</falloff_type>
          <clipsta sid="clipsta" type="float">0.04999995</clipsta>
          <clipend sid="clipend" type="float">40</clipend>
          <bias sid="bias" type="float">1</bias>
          <bufsize sid="bufsize" type="int">512</bufsize>
          <samp sid="samp" type="int">3</samp>
          <buffers sid="buffers" type="int">1</buffers>
          <radius sid="radius" type="float">0</radius>
          <area_shape sid="area_shape" type="int">0</area_shape>
          <area_size sid="area_size" type="float">0.25</area_size>
          <area_sizey sid="area_sizey" type="float">0.25</area_sizey>
          <area_sizez sid="area_sizez" type="float">0.25</area_sizez>
        </technique>
      </extra>
    </light>
  </library_lights>
  <library_effects>
    <effect id="rock_moss_set_02-effect">
      <profile_COMMON>
        <newparam sid="rock_moss_set_02_diff_4k_jpg-surface">
          <surface type="2D">
            <init_from>rock_moss_set_02_diff_4k_jpg</init_from>
          </surface>
        </newparam>
        <newparam sid="rock_moss_set_02_diff_4k_jpg-sampler">
          <sampler2D>
            <source>rock_moss_set_02_diff_4k_jpg-surface</source>
          </sampler2D>
        </newparam>
        <technique sid="common">
          <lambert>
            <emission>
              <color sid="emission">0 0 0 1</color>
            </emission>
            <diffuse>
              <texture texture="rock_moss_set_02_diff_4k_jpg-sampler" texcoord="moss_rock_11_001-mesh-map-0"/>
            </diffuse>
            <index_of_refraction>
              <float sid="ior">1.45</float>
            </index_of_refraction>
          </lambert>
        </technique>
      </profile_COMMON>
    </effect>
  </library_effects>
  <library_images>
    <image id="rock_moss_set_02_diff_4k_jpg" name="rock_moss_set_02_diff_4k_jpg">
      <init_from>rock_moss_set_02_diff_4k.jpg</init_from>
    </image>
  </library_images>
  <library_materials>
    <material id="rock_moss_set_02-material" name="rock_moss_set_02">
      <instance_effect url="#rock_moss_set_02-effect"/>
    </material>
  </library_materials>
  <library_geometries>
    <geometry id="moss_rock_11_001-mesh" name="moss_rock_11_001">
      <mesh>
        <source id="moss_rock_11_001-mesh-positions">
          <float_array id="moss_rock_11_001-mesh-positions-array" count="306">-0.7227868 -0.7603195 0.2661514 -0.7382829 -0.6693915 0.001958191 -0.8163931 -0.5131438 0.4361549 -0.8135384 0.601915 0.2200999 -0.8897039 0.3765074 0.16717 -0.8020334 0.4741743 0.2857049 -0.8157252 0.3080458 0.2961915 0.7995491 -0.4015108 0.3299955 0.4514657 -0.3699978 0.60202 0.4618315 -0.06327241 0.6639097 0.5152634 -0.270997 0.6518557 0.2435801 -0.07814699 0.03077667 0.2999781 -0.4673628 0.05706763 -0.007700264 -0.5351126 0.004255771 0.4312885 -0.193361 0.08681541 0.4875119 -0.3910861 0.3122039 0.08577114 -0.4556859 0.5136298 0.9809478 0.212885 0.4513517 0.4907668 0.1077499 0.6494447 0.4492726 0.1711172 0.65798 -0.5221295 0.3967407 0.08692461 -0.0971083 0.7080619 0.3568521 -0.3069761 0.6743416 0.2528433 -0.1716751 0.6790612 0.4268367 0.03793102 0.6091241 0.1083309 -0.09931093 0.5929096 0.01838082 -0.5061569 0.6271337 0.05406767 -0.5036746 0.7679396 0.2570095 -0.03861695 0.6834122 0.411275 0.556837 -0.01603114 0.03095543 0.1130393 -0.1957142 0.7441881 -0.2725574 0.009539365 0.03903639 0.2564707 0.2932581 -3.63516e-5 0.4398965 0.2485398 0.052805 1.129258 -0.03167498 0.4820753 0.8391078 -0.1618575 0.6345436 1.096201 -0.1919938 0.5358876 0.7562921 -0.2892149 0.6231567 -0.408726 0.6828544 0.4526189 -0.374967 0.7520824 0.4170421 -0.2962472 0.5539334 0.4733383 -0.4310014 0.4559393 0.5037083 -0.8507215 0.1301736 0.4408302 -0.6780294 -0.6583972 0.5185431 -0.09065234 -0.4723258 0.688274 -0.4107424 -0.6928916 0.4415645 -0.3415634 -0.5976398 0.6006906 -0.3892126 -0.5341455 0.6496214 0.7548775 -0.3486716 0.02899354 0.9550859 -0.3560196 0.04932051 1.020825 0.06411421 0.3858174 0.8528288 0.05168938 0.1846192 0.7811422 0.3990811 0.4004065 1.117153 -0.07568877 0.2805714 1.044088 -0.2214642 0.05902808 0.792141 -0.4327372 0.06900495 -0.5956895 -0.6784384 -0.01688665 -0.3537304 -0.6994693 0.002252459 0.1566571 -0.5347577 0.03754854 -0.05530959 -0.6006075 0.3177337 0.0246551 -0.4933192 0.3227075 -0.09474951 -0.6478837 0.02740633 -0.4890971 -0.7115595 0.1084044 -0.6508773 -0.7609446 0.04142409 -0.7859507 -0.3897092 0.05129247 0.5701736 0.3501307 0.5127773 0.351502 0.3916182 0.521934 0.2960578 0.4967527 0.4628455 0.2108451 0.6154592 0.3785858 0.1179259 0.3044155 0.5965479 -0.9609722 0.06140464 0.3888044 -0.7710741 -0.4670596 0.5476442 -0.0968163 -0.3892572 0.7334886 0.1536273 -0.3542092 0.6969196 0.6039363 0.3923597 0.2502319 0.4821605 0.2647309 0.1857226 0.6853815 0.128461 0.2100557 0.4806576 0.3496662 0.224309 0.4867553 -0.4449396 0.02729958 0.5645895 -0.455226 0.2586963 -0.6958776 0.684977 0.08840185 -0.6323187 0.7454912 0.2614652 -0.03793793 -0.03539758 0.7133142 -0.9652295 -0.2770453 0.4439347 0.1271737 0.4952601 0.01251637 0.6364318 0.4294936 0.4281538 0.5408052 0.3489777 0.3326697 0.4813848 0.422769 0.319117 0.438115 0.4417706 0.4098483 0.4738922 0.3887295 0.4456067 0.3648402 0.433044 0.3471852 0.134352 0.5504119 0.196205 0.4295113 0.2707958 0.1075913 0.3891057 0.4876974 0.3128338 0.09497278 0.6828799 0.3524782 -1.029384 0.08490425 0.2097947 -0.9427954 -0.3002337 0.1598955 -0.9043125 -0.2852836 0.116311 -1.060511 -0.1059252 0.1789845 -1.051103 0.2142733 0.2352001 -1.057624 -0.1446967 0.2902222 0.6920276 -0.4567597 -0.0166167</float_array>
          <technique_common>
            <accessor source="#moss_rock_11_001-mesh-positions-array" count="102" stride="3">
              <param name="X" type="float"/>
              <param name="Y" type="float"/>
              <param name="Z" type="float"/>
            </accessor>
          </technique_common>
        </source>
        <source id="moss_rock_11_001-mesh-normals">
          <float_array id="moss_rock_11_001-mesh-normals-array" count="306">-0.2511536 0.1421806 -0.957448 -0.5875809 -0.3623083 -0.7235202 -0.6295017 -0.1796477 -0.755946 -0.4518252 -0.8855937 0.1076005 -0.8293831 -0.4816595 0.2830689 -0.8318171 0.49297 0.2550703 -0.3142895 0.5873852 -0.7457887 -0.7992868 0.1828137 -0.5724683 -0.6477206 0.1969114 0.7359919 -0.8746829 0.3128018 0.3702499 -0.4965795 0.3292869 0.8031058 0.09564507 -0.2823811 0.9545224 0.2386968 -0.6726514 0.7004027 0.3147972 0.04667085 0.9480109 -0.1053587 -0.9942069 0.02126485 0.1449413 -0.8148098 0.5613173 -0.2798216 -0.9560276 0.08781301 0.1664476 0.0480346 0.9848796 -0.09488075 -0.02808141 -0.9950925 0.3448325 -0.6837618 -0.6430867 0.05031788 -0.004727125 -0.9987221 0.2553449 -0.8010534 -0.5413988 0.2852758 -0.5011042 -0.8170143 -0.1548628 -0.6105995 -0.7766504 0.1617774 -0.5697975 0.805704 0.3425788 -0.8961762 0.2819717 0.1607281 0.2662341 0.9504135 0.7475149 0.6173942 0.2450429 0.548912 0.8357974 0.0117591 0.1846932 0.07672357 0.979797 0.184545 0.6535285 0.7340596 0.03544098 0.6208171 -0.783154 -0.08995389 0.0140596 -0.9958468 -0.1096132 0.4509174 -0.8858096 0.154426 0.987881 0.0156148 0.3565933 0.9273285 -0.1135923 -0.07874566 0.9723034 -0.2200574 0.3629662 0.8255657 -0.4320844 0.3485086 0.9297698 0.1186169 0.2071387 0.6503961 0.7308067 0.1915766 0.5747449 0.7955921 -0.0121324 0.2876051 0.9576722 0.464204 0.7922293 0.3960903 0.4415103 0.6468778 -0.6217859 0.2218256 0.1300202 -0.9663789 0.1884315 0.1743751 -0.9664817 -0.1480789 0.1863344 0.9712632 -0.0169571 0.4479656 0.8938901 -0.1557852 -0.1702238 0.9730132 0.2604975 0.4900653 -0.8318516 0.8326824 0.2808488 0.4772464 0.7490472 -0.3829206 0.5406479 0.2866762 -0.943829 0.1643285 -0.02500766 0.8622621 0.5058445 -0.325542 0.380253 0.8656963 -0.2712866 0.2915077 0.9172933 0.6102771 -0.7748239 0.164954 0.3656169 -0.5612698 0.7424961 0.1321815 -0.9436275 0.303472 0.1692917 -0.7502363 0.6391291 0.07118964 -0.2348541 0.9694203 -0.419245 -0.6725422 0.6098531 -0.470413 -0.1123018 0.8752714 -0.1438781 -0.2901682 0.9460981 0.7088322 0.02337098 -0.70499 0.5345154 -0.6019338 -0.5932698 0.2158818 0.08797085 -0.9724487 0.3738966 0.5274205 -0.7629083 0.6957187 0.5447122 -0.4682567 0.8924821 0.2638621 -0.3658589 0.4367875 -0.8761243 0.2040168 0.3590449 -0.8025356 -0.4764696 0.05893379 -0.6698096 -0.7401905 0.07876294 -0.3416603 -0.9365173 0.1453281 -0.9893156 -0.01159274 -0.1277404 -0.8695152 -0.4771015 -0.2512365 -0.07289475 -0.9651769 -0.8648002 0.03833007 -0.5006511 -0.05926656 0.9285429 0.3664637 0.156051 0.9141451 0.3741486 0.1465449 0.6861674 0.71253 0.5398997 0.6214337 0.5677399 -0.7540152 -0.2344395 0.6135955 -0.6864261 0.2697688 0.6753104 0.3307209 0.4787877 -0.8132565 0.1124365 0.7235383 -0.6810657 0.4917816 0.7156886 -0.4959242 0.6192029 0.5266849 -0.5824009 0.3100084 0.6707056 -0.6738314 0.319479 -0.8993932 -0.2983708 0.1388567 -0.6810709 -0.7189307 -0.4548948 0.8504315 0.2642672 0.03698134 0.9112601 -0.4101675 0.4784818 0.8779929 -0.01355808 0.5912318 0.7897506 -0.1635212 0.02755939 0.7892749 0.6134212 0.3363052 0.6317626 0.6984088 0.5155522 0.7700647 -0.3757747 -0.7937442 -0.08750993 -0.601924 -0.9141603 0.3936721 -0.09660911 -0.9567632 -0.2024919 0.2088096 -0.6113066 -0.6252073 -0.4852012</float_array>
          <technique_common>
            <accessor source="#moss_rock_11_001-mesh-normals-array" count="102" stride="3">
              <param name="X" type="float"/>
              <param name="Y" type="float"/>
              <param name="Z" type="float"/>
            </accessor>
          </technique_common>
        </source>
        <source id="moss_rock_11_001-mesh-map-0">
          <float_array id="moss_rock_11_001-mesh-map-0-array" count="1200">0.08742231 0.3771321 0.06154656 0.3711768 0.09915214 0.3726053 0.06154656 0.3711768 0.05405324 0.3556792 0.09915214 0.3726053 0.1935241 0.5452728 0.1786234 0.5212231 0.2051281 0.5320706 0.3119142 0.5438336 0.3220637 0.5474514 0.29285 0.5566549 0.3119142 0.5438336 0.29285 0.5566549 0.2988427 0.5432716 0.29285 0.5566549 0.2860974 0.545185 0.2988427 0.5432716 0.2860974 0.545185 0.2660525 0.5348495 0.2988427 0.5432716 0.2445261 0.4075282 0.2455667 0.3855581 0.2595387 0.3790768 0.2060748 0.3898629 0.2307353 0.4074841 0.2093205 0.3969976 0.2455667 0.3855581 0.2307353 0.4074841 0.2060748 0.3898629 0.2455667 0.3855581 0.2445261 0.4075282 0.2307353 0.4074841 0.2595387 0.3790768 0.2613791 0.411392 0.2445261 0.4075282 0.05657595 0.4871751 0.0381847 0.4647749 0.07102918 0.4723275 0.07102918 0.4723275 0.03828376 0.4512096 0.04558759 0.4364286 0.05657595 0.4871751 0.03393566 0.4820045 0.0381847 0.4647749 0.03393566 0.4820045 0.02697229 0.473608 0.0381847 0.4647749 0.2093205 0.3969976 0.1987283 0.4164999 0.1885961 0.4060068 0.1987283 0.4164999 0.2316598 0.4386556 0.2132491 0.438651 0.2842853 0.4164738 0.2992941 0.3771284 0.3100728 0.3872925 0.2842853 0.4164738 0.2738699 0.4114423 0.2992941 0.3771284 0.3100728 0.3872925 0.3052706 0.4096624 0.2842853 0.4164738 0.2738699 0.4114423 0.2613791 0.411392 0.2595387 0.3790768 0.1418988 0.4707865 0.1007206 0.4375578 0.1615126 0.4377817 0.1685419 0.4869853 0.1700688 0.4661423 0.1779334 0.4537118 0.1420248 0.4842127 0.1685419 0.4869853 0.1543383 0.5038707 0.1420248 0.4842127 0.1418988 0.4707865 0.1615126 0.4377817 0.1700688 0.4661423 0.1685419 0.4869853 0.1420248 0.4842127 0.1420248 0.4842127 0.1779334 0.4537118 0.1700688 0.4661423 0.3277686 0.4711878 0.323264 0.4832102 0.310993 0.4910079 0.3277686 0.4711878 0.310993 0.4910079 0.3265537 0.4473941 0.09471219 0.5049815 0.06626099 0.5025995 0.104531 0.492903 0.2640501 0.4621679 0.2842853 0.4164738 0.2961587 0.4480949 0.2738699 0.4114423 0.2842853 0.4164738 0.2640501 0.4621679 0.2640501 0.4621679 0.2458988 0.4441467 0.2738699 0.4114423 0.1235876 0.4842225 0.104531 0.492903 0.1007206 0.4375578 0.06626099 0.5025995 0.1007206 0.4375578 0.104531 0.492903 0.06626099 0.5025995 0.07102918 0.4723275 0.1007206 0.4375578 0.2770079 0.3531487 0.2992941 0.3771284 0.2738699 0.4114423 0.2738699 0.4114423 0.2595387 0.3790768 0.2770079 0.3531487 0.2595414 0.3549654 0.2595387 0.3790768 0.2455667 0.3855581 0.2455667 0.3855581 0.2203291 0.3721845 0.2595414 0.3549654 0.2770079 0.3531487 0.2595387 0.3790768 0.2595414 0.3549654 0.3274671 0.5030072 0.3204393 0.5022231 0.323264 0.4832102 0.3204393 0.5022231 0.310993 0.4910079 0.323264 0.4832102 0.310993 0.4910079 0.2988749 0.500963 0.2961587 0.4480949 0.2988749 0.500963 0.2640501 0.4621679 0.2961587 0.4480949 0.1978622 0.4535923 0.2169822 0.4609978 0.1943725 0.4713109 0.2169822 0.4609978 0.2038956 0.4807594 0.1858749 0.4910581 0.2267223 0.4606614 0.2038956 0.4807594 0.2169822 0.4609978 0.2038956 0.4807594 0.198574 0.5118541 0.1858749 0.4910581 0.1858749 0.4910581 0.198574 0.5118541 0.1786234 0.5212231 0.1786234 0.5212231 0.198574 0.5118541 0.2051281 0.5320706 0.198574 0.5118541 0.2132933 0.5229788 0.2051281 0.5320706 0.198574 0.5118541 0.2038956 0.4807594 0.2106707 0.4862896 0.2132933 0.5229788 0.198574 0.5118541 0.2106707 0.4862896 0.03372681 0.5380349 0.0263397 0.5269699 0.03281372 0.5115444 0.03372681 0.5380349 0.02188038 0.545462 0.0263397 0.5269699 0.06592094 0.5339897 0.06239932 0.5592792 0.03372681 0.5380349 0.06592094 0.5339897 0.09402769 0.549992 0.07540696 0.5604637 0.07540696 0.5604637 0.06239932 0.5592792 0.06592094 0.5339897 0.0467661 0.557547 0.06239932 0.5592792 0.05705988 0.5699369 0.05705988 0.5699369 0.06239932 0.5592792 0.07540696 0.5604637 0.02188038 0.545462 0.03372681 0.5380349 0.0467661 0.557547 0.0467661 0.557547 0.03372681 0.5380349 0.06239932 0.5592792 0.2770079 0.3531487 0.2595414 0.3549654 0.2498921 0.3351981 0.2595414 0.3549654 0.2203291 0.3721845 0.2251119 0.3493343 0.04558759 0.4364286 0.01950955 0.4330919 0.02066797 0.4264193 0.04558759 0.4364286 0.02066797 0.4264193 0.04019212 0.42562 0.04019212 0.42562 0.0125181 0.3907616 0.0465393 0.4003956 0.02066797 0.4264193 0.0125181 0.3907616 0.04019212 0.42562 0.04558759 0.4364286 0.0465393 0.4003956 0.08742231 0.3771321 0.08742231 0.3771321 0.0465393 0.4003956 0.05501383 0.3822057 0.03972756 0.3871206 0.05501383 0.3822057 0.0465393 0.4003956 0.05501383 0.3822057 0.06154656 0.3711768 0.08742231 0.3771321 0.03972756 0.3871206 0.03201752 0.3669385 0.0492326 0.3727262 0.06154656 0.3711768 0.05501383 0.3822057 0.0492326 0.3727262 0.03972756 0.3871206 0.0492326 0.3727262 0.05501383 0.3822057 0.06154656 0.3711768 0.0492326 0.3727262 0.05405324 0.3556792 0.0465393 0.4003956 0.0125181 0.3907616 0.03972756 0.3871206 0.0125181 0.3907616 0.03201752 0.3669385 0.03972756 0.3871206 0.04019212 0.42562 0.0465393 0.4003956 0.04558759 0.4364286 0.1342108 0.4222521 0.1007206 0.4375578 0.1352066 0.3741084 0.07102918 0.4723275 0.04558759 0.4364286 0.1007206 0.4375578 0.08742231 0.3771321 0.1352066 0.3741084 0.1007206 0.4375578 0.04558759 0.4364286 0.08742231 0.3771321 0.1007206 0.4375578 0.3129472 0.416491 0.3052706 0.4096624 0.3149598 0.4024997 0.3052706 0.4096624 0.3129472 0.416491 0.3075879 0.4301745 0.3075879 0.4301745 0.2842853 0.4164738 0.3052706 0.4096624 0.3075879 0.4301745 0.315536 0.4366713 0.2961587 0.4480949 0.2842853 0.4164738 0.3075879 0.4301745 0.2961587 0.4480949 0.315536 0.4366713 0.3265537 0.4473941 0.310993 0.4910079 0.315536 0.4366713 0.310993 0.4910079 0.2961587 0.4480949 0.2298024 0.5451553 0.2660525 0.5348495 0.2582668 0.5479269 0.2132933 0.5229788 0.2298024 0.5451553 0.2051281 0.5320706 0.2316598 0.4386556 0.2307353 0.4074841 0.2445261 0.4075282 0.2093205 0.3969976 0.2307353 0.4074841 0.1987283 0.4164999 0.1987283 0.4164999 0.2307353 0.4074841 0.2316598 0.4386556 0.2613791 0.411392 0.2458988 0.4441467 0.2316598 0.4386556 0.2738699 0.4114423 0.2458988 0.4441467 0.2613791 0.411392 0.2613791 0.411392 0.2316598 0.4386556 0.2445261 0.4075282 0.2132491 0.438651 0.2316598 0.4386556 0.2267223 0.4606614 0.09402769 0.549992 0.07893341 0.5262708 0.101005 0.5320922 0.09402769 0.549992 0.06592094 0.5339897 0.07893341 0.5262708 0.09822326 0.5079426 0.09624344 0.5178343 0.09471219 0.5049815 0.09624344 0.5178343 0.07893341 0.5262708 0.09471219 0.5049815 0.1068145 0.5210894 0.07893341 0.5262708 0.09624344 0.5178343 0.101005 0.5320922 0.07893341 0.5262708 0.1068145 0.5210894 0.1068145 0.5210894 0.09624344 0.5178343 0.09822326 0.5079426 0.06626099 0.5025995 0.09471219 0.5049815 0.07893341 0.5262708 0.06626099 0.5025995 0.07893341 0.5262708 0.06592094 0.5339897 0.06626099 0.5025995 0.03393566 0.4820045 0.05657595 0.4871751 0.06592094 0.5339897 0.03281372 0.5115444 0.06626099 0.5025995 0.03372681 0.5380349 0.03281372 0.5115444 0.06592094 0.5339897 0.02067631 0.5107766 0.03281372 0.5115444 0.0263397 0.5269699 0.2251119 0.3493343 0.2203291 0.3721845 0.2057204 0.3654103 0.02067631 0.5107766 0.01390099 0.4944015 0.02688455 0.4998757 0.03393566 0.4820045 0.01390099 0.4944015 0.02625274 0.4824324 0.03393566 0.4820045 0.02688455 0.4998757 0.01390099 0.4944015 0.1919363 0.3917315 0.2060748 0.3898629 0.2093205 0.3969976 0.2455667 0.3855581 0.2060748 0.3898629 0.2203291 0.3721845 0.1779334 0.4537118 0.1420248 0.4842127 0.1615126 0.4377817 0.1833854 0.4373517 0.1779334 0.4537118 0.1615126 0.4377817 0.1833854 0.4373517 0.1615126 0.4377817 0.1717309 0.4238358 0.3262116 0.5296734 0.3220637 0.5474514 0.3119142 0.5438336 0.1615126 0.4377817 0.155277 0.3947464 0.1717309 0.4238358 0.1007206 0.4375578 0.1342108 0.4222521 0.1615126 0.4377817 0.1342108 0.4222521 0.155277 0.3947464 0.1615126 0.4377817 0.3204393 0.5022231 0.2988749 0.500963 0.310993 0.4910079 0.2988749 0.500963 0.3204393 0.5022231 0.3262116 0.5296734 0.2988427 0.5432716 0.2988749 0.500963 0.3262116 0.5296734 0.2988749 0.500963 0.2988427 0.5432716 0.2660525 0.5348495 0.3119142 0.5438336 0.2988427 0.5432716 0.3262116 0.5296734 0.07102918 0.4723275 0.0381847 0.4647749 0.03828376 0.4512096 0.03828376 0.4512096 0.01950955 0.4330919 0.04558759 0.4364286 0.03828376 0.4512096 0.02221894 0.4503473 0.01950955 0.4330919 0.3330498 0.5166585 0.3262116 0.5296734 0.3274671 0.5030072 0.3274671 0.5030072 0.3262116 0.5296734 0.3204393 0.5022231 0.2458988 0.4441467 0.2640501 0.4621679 0.2316598 0.4386556 0.2316598 0.4386556 0.2640501 0.4621679 0.2267223 0.4606614 0.2298024 0.5451553 0.2132933 0.5229788 0.2106707 0.4862896 0.2640501 0.4621679 0.2298024 0.5451553 0.2106707 0.4862896 0.2988749 0.500963 0.2298024 0.5451553 0.2640501 0.4621679 0.2988749 0.500963 0.2660525 0.5348495 0.2298024 0.5451553 0.2132491 0.438651 0.2169822 0.4609978 0.1943418 0.4362944 0.1978622 0.4535923 0.1943418 0.4362944 0.2169822 0.4609978 0.2106707 0.4862896 0.2267223 0.4606614 0.2640501 0.4621679 0.2169822 0.4609978 0.2132491 0.438651 0.2267223 0.4606614 0.2106707 0.4862896 0.2038956 0.4807594 0.2267223 0.4606614 0.1235876 0.4842225 0.1418988 0.4707865 0.1420248 0.4842127 0.3149598 0.4024997 0.3052706 0.4096624 0.3100728 0.3872925 0.1068145 0.5210894 0.1086313 0.5316889 0.101005 0.5320922 0.1266539 0.5219775 0.1141328 0.5272947 0.1068145 0.5210894 0.1068145 0.5210894 0.1141328 0.5272947 0.1086313 0.5316889 0.3230745 0.4167175 0.3129472 0.416491 0.3149598 0.4024997 0.3230745 0.4167175 0.3169869 0.4207667 0.3129472 0.416491 0.3230745 0.4167175 0.3250696 0.4272153 0.3169869 0.4207667 0.3250696 0.4272153 0.3217618 0.4272625 0.3169869 0.4207667 0.1141328 0.5272947 0.1081482 0.5440636 0.1086313 0.5316889 0.3169869 0.4207667 0.3217618 0.4272625 0.3129472 0.416491 0.1235876 0.4842225 0.1381077 0.4993785 0.1266539 0.5219775 0.09822326 0.5079426 0.104531 0.492903 0.1235876 0.4842225 0.1068145 0.5210894 0.09822326 0.5079426 0.1266539 0.5219775 0.1420248 0.4842127 0.1543383 0.5038707 0.1381077 0.4993785 0.1266539 0.5219775 0.1381077 0.4993785 0.1543383 0.5038707 0.1543383 0.5038707 0.1452791 0.5160883 0.1266539 0.5219775 0.3265537 0.4473941 0.3306567 0.4582648 0.3277686 0.4711878 0.1543383 0.5038707 0.1685419 0.4869853 0.1681884 0.4969413 0.3250696 0.4272153 0.315536 0.4366713 0.3217618 0.4272625 0.3129472 0.416491 0.3217618 0.4272625 0.3075879 0.4301745 0.3217618 0.4272625 0.315536 0.4366713 0.3075879 0.4301745 0.101005 0.5320922 0.1081482 0.5440636 0.09402769 0.549992 0.1081482 0.5440636 0.101005 0.5320922 0.1086313 0.5316889 0.1235876 0.4842225 0.1420248 0.4842127 0.1381077 0.4993785 0.1235876 0.4842225 0.1266539 0.5219775 0.09822326 0.5079426 0.315536 0.4366713 0.3250696 0.4272153 0.3265537 0.4473941 0.1352066 0.3741084 0.155277 0.3947464 0.1342108 0.4222521 0.08742231 0.3771321 0.09915214 0.3726053 0.1352066 0.3741084 0.1352066 0.3741084 0.09915214 0.3726053 0.1211438 0.3651317 0.2860974 0.545185 0.2724761 0.5631849 0.2582668 0.5479269 0.2860974 0.545185 0.2582668 0.5479269 0.2660525 0.5348495 0.155277 0.3947464 0.1352066 0.3741084 0.147787 0.3760053 0.2611533 0.5664902 0.2582668 0.5479269 0.2724761 0.5631849 0.2611533 0.5664902 0.2429078 0.5691293 0.239718 0.5602244 0.09915214 0.3726053 0.1011586 0.3646951 0.1211438 0.3651317 0.2177931 0.564601 0.239718 0.5602244 0.2429078 0.5691293 0.2051281 0.5320706 0.2298024 0.5451553 0.239718 0.5602244 0.1935241 0.5452728 0.2051281 0.5320706 0.2177931 0.564601 0.239718 0.5602244 0.2177931 0.564601 0.2051281 0.5320706 0.2860974 0.545185 0.29285 0.5566549 0.2724761 0.5631849 0.2611533 0.5664902 0.239718 0.5602244 0.2582668 0.5479269 0.2582668 0.5479269 0.239718 0.5602244 0.2298024 0.5451553 0.09822326 0.5079426 0.09471219 0.5049815 0.104531 0.492903 0.05657595 0.4871751 0.07102918 0.4723275 0.06626099 0.5025995 0.1235876 0.4842225 0.1007206 0.4375578 0.1418988 0.4707865 0.3303913 0.4801267 0.323264 0.4832102 0.3277686 0.4711878 0.186132 0.4725508 0.1822357 0.4835709 0.1685419 0.4869853 0.1779334 0.4537118 0.186132 0.4725508 0.1685419 0.4869853 0.06626099 0.5025995 0.03281372 0.5115444 0.02688455 0.4998757 0.06626099 0.5025995 0.02688455 0.4998757 0.03393566 0.4820045 0.03281372 0.5115444 0.02067631 0.5107766 0.02688455 0.4998757</float_array>
          <technique_common>
            <accessor source="#moss_rock_11_001-mesh-map-0-array" count="600" stride="2">
              <param name="S" type="float"/>
              <param name="T" type="float"/>
            </accessor>
          </technique_common>
        </source>
        <vertices id="moss_rock_11_001-mesh-vertices">
          <input semantic="POSITION" source="#moss_rock_11_001-mesh-positions"/>
        </vertices>
        <triangles material="rock_moss_set_02-material" count="200">
          <input semantic="VERTEX" source="#moss_rock_11_001-mesh-vertices" offset="0"/>
          <input semantic="NORMAL" source="#moss_rock_11_001-mesh-normals" offset="1"/>
          <input semantic="TEXCOORD" source="#moss_rock_11_001-mesh-map-0" offset="2" set="0"/>
          <p>64 0 0 1 1 1 97 2 2 1 1 3 0 3 4 97 2 5 97 2 6 0 3 7 2 4 8 3 5 9 80 6 10 4 7 11 3 5 12 4 7 13 5 8 14 4 7 15 6 9 16 5 8 17 6 9 18 42 10 19 5 8 20 10 11 21 37 12 22 35 13 23 79 14 24 8 15 25 15 16 26 37 12 27 8 15 28 79 14 29 37 12 30 10 11 31 8 15 32 35 13 33 9 17 34 10 11 35 14 18 36 12 19 37 11 20 38 11 20 39 58 21 40 13 22 41 14 18 42 78 23 43 12 19 44 78 23 45 15 16 46 12 19 47 15 16 48 58 21 49 12 19 50 58 21 51 73 24 52 16 25 53 19 26 54 17 27 55 52 28 56 19 26 57 18 29 58 17 27 59 52 28 60 65 30 61 19 26 62 18 29 63 9 17 64 35 13 65 25 31 66 31 32 67 26 33 68 21 34 69 22 35 70 27 36 71 24 37 72 21 34 73 94 38 74 24 37 75 25 31 76 26 33 77 22 35 78 21 34 79 24 37 80 24 37 81 27 36 82 22 35 83 28 39 84 23 40 85 40 41 86 28 39 87 40 41 88 68 42 89 33 43 90 29 44 91 32 45 92 82 46 93 19 26 94 69 47 95 18 29 96 19 26 97 82 46 98 82 46 99 30 48 100 18 29 101 84 49 102 32 45 103 31 32 104 29 44 105 31 32 106 32 45 107 29 44 108 11 20 109 31 32 110 34 50 111 17 27 112 18 29 113 18 29 114 35 13 115 34 50 116 36 51 117 35 13 118 37 12 119 37 12 120 7 52 121 36 51 122 34 50 123 35 13 124 36 51 125 39 53 126 38 54 127 23 40 128 38 54 129 40 41 130 23 40 131 40 41 132 41 55 133 69 47 134 41 55 135 82 46 136 69 47 137 59 56 138 44 57 139 45 58 140 44 57 141 46 59 142 45 58 143 72 60 144 46 59 145 44 57 146 46 59 147 43 61 148 45 58 149 45 58 150 43 61 151 0 3 152 0 3 153 43 61 154 2 4 155 43 61 156 71 62 157 2 4 158 43 61 159 46 59 160 47 63 161 71 62 162 43 61 163 47 63 164 54 64 165 49 65 166 48 66 167 54 64 168 36 51 169 49 65 170 51 67 171 50 68 172 54 64 173 51 67 174 52 28 175 17 27 176 17 27 177 50 68 178 51 67 179 53 69 180 50 68 181 34 50 182 34 50 183 50 68 184 17 27 185 36 51 186 54 64 187 53 69 188 53 69 189 54 64 190 50 68 191 34 50 192 36 51 193 53 69 194 36 51 195 7 52 196 49 65 197 13 22 198 60 70 199 59 56 200 13 22 201 59 56 202 61 71 203 61 71 204 45 58 205 57 72 206 59 56 207 45 58 208 61 71 209 13 22 210 57 72 211 64 0 212 64 0 213 57 72 214 56 73 215 62 74 216 56 73 217 57 72 218 56 73 219 1 1 220 64 0 221 62 74 222 0 3 223 63 75 224 1 1 225 56 73 226 63 75 227 62 74 228 63 75 229 56 73 230 1 1 231 63 75 232 0 3 233 57 72 234 45 58 235 62 74 236 45 58 237 0 3 238 62 74 239 61 71 240 57 72 241 13 22 242 20 76 243 31 32 244 95 77 245 11 20 246 13 22 247 31 32 248 64 0 249 95 77 250 31 32 251 13 22 252 64 0 253 31 32 254 89 78 255 65 30 256 85 79 257 65 30 258 89 78 259 66 80 260 66 80 261 19 26 262 65 30 263 66 80 264 67 81 265 69 47 266 19 26 267 66 80 268 69 47 269 67 81 270 68 42 271 40 41 272 67 81 273 40 41 274 69 47 275 83 82 276 42 10 277 70 83 278 71 62 279 83 82 280 2 4 281 73 24 282 8 15 283 10 11 284 15 16 285 8 15 286 58 21 287 58 21 288 8 15 289 73 24 290 9 17 291 30 48 292 73 24 293 18 29 294 30 48 295 9 17 296 9 17 297 73 24 298 10 11 299 16 25 300 73 24 301 72 60 302 52 28 303 76 84 304 74 85 305 52 28 306 51 67 307 76 84 308 92 86 309 75 87 310 33 43 311 75 87 312 76 84 313 33 43 314 77 88 315 76 84 316 75 87 317 74 85 318 76 84 319 77 88 320 77 88 321 75 87 322 92 86 323 29 44 324 33 43 325 76 84 326 29 44 327 76 84 328 51 67 329 29 44 330 78 23 331 14 18 332 51 67 333 48 66 334 29 44 335 54 64 336 48 66 337 51 67 338 55 89 339 48 66 340 49 65 341 49 65 342 7 52 343 55 89 344 55 89 345 7 52 346 101 90 347 78 23 348 7 52 349 79 14 350 78 23 351 101 90 352 7 52 353 78 23 354 79 14 355 15 16 356 37 12 357 79 14 358 7 52 359 27 36 360 24 37 361 26 33 362 81 91 363 27 36 364 26 33 365 81 91 366 26 33 367 80 6 368 81 91 369 80 6 370 3 5 371 26 33 372 4 7 373 80 6 374 31 32 375 20 76 376 26 33 377 20 76 378 4 7 379 26 33 380 38 54 381 41 55 382 40 41 383 41 55 384 38 54 385 81 91 386 5 8 387 41 55 388 81 91 389 41 55 390 5 8 391 42 10 392 3 5 393 5 8 394 81 91 395 11 20 396 12 19 397 58 21 398 58 21 399 60 70 400 13 22 401 58 21 402 16 25 403 60 70 404 27 36 405 81 91 406 39 53 407 39 53 408 81 91 409 38 54 410 30 48 411 82 46 412 73 24 413 73 24 414 82 46 415 72 60 416 83 82 417 71 62 418 47 63 419 82 46 420 83 82 421 47 63 422 41 55 423 83 82 424 82 46 425 41 55 426 42 10 427 83 82 428 16 25 429 44 57 430 60 70 431 59 56 432 60 70 433 44 57 434 47 63 435 72 60 436 82 46 437 44 57 438 16 25 439 72 60 440 47 63 441 46 59 442 72 60 443 84 49 444 25 31 445 24 37 446 85 79 447 65 30 448 52 28 449 77 88 450 86 92 451 74 85 452 93 93 453 87 94 454 77 88 455 77 88 456 87 94 457 86 92 458 87 94 459 89 78 460 85 79 461 87 94 462 88 95 463 89 78 464 87 94 465 93 93 466 88 95 467 93 93 468 90 96 469 88 95 470 87 94 471 85 79 472 86 92 473 88 95 474 90 96 475 89 78 476 84 49 477 91 97 478 93 93 479 92 86 480 32 45 481 84 49 482 77 88 483 92 86 484 93 93 485 24 37 486 94 38 487 91 97 488 93 93 489 91 97 490 94 38 491 94 38 492 68 42 493 93 93 494 68 42 495 94 38 496 28 39 497 94 38 498 21 34 499 28 39 500 93 93 501 67 81 502 90 96 503 89 78 504 90 96 505 66 80 506 90 96 507 67 81 508 66 80 509 74 85 510 85 79 511 52 28 512 85 79 513 74 85 514 86 92 515 84 49 516 24 37 517 91 97 518 84 49 519 93 93 520 92 86 521 67 81 522 93 93 523 68 42 524 95 77 525 4 7 526 20 76 527 64 0 528 97 2 529 95 77 530 95 77 531 97 2 532 98 98 533 6 9 534 99 99 535 70 83 536 6 9 537 70 83 538 42 10 539 4 7 540 95 77 541 99 99 542 95 77 543 70 83 544 99 99 545 95 77 546 98 98 547 100 100 548 97 2 549 96 101 550 98 98 551 96 101 552 100 100 553 98 98 554 2 4 555 83 82 556 100 100 557 97 2 558 2 4 559 96 101 560 100 100 561 96 101 562 2 4 563 6 9 564 4 7 565 99 99 566 95 77 567 100 100 568 70 83 569 70 83 570 100 100 571 83 82 572 92 86 573 33 43 574 32 45 575 14 18 576 11 20 577 29 44 578 84 49 579 31 32 580 25 31 581 21 34 582 23 40 583 28 39 584 39 53 585 23 40 586 21 34 587 27 36 588 39 53 589 21 34 590 29 44 591 48 66 592 101 90 593 29 44 594 101 90 595 78 23 596 48 66 597 55 89 598 101 90 599</p>
        </triangles>
      </mesh>
    </geometry>
  </library_geometries>
  <library_visual_scenes>
    <visual_scene id="Scene" name="Scene">
      <node id="Camera" name="Camera" type="NODE">
        <matrix sid="transform">0.6859207 -0.3240135 0.6515582 -137.4208 0.7276763 0.3054209 -0.6141704 -439.4539 -4.01133e-9 0.8953956 0.4452714 -152.0023 0 0 0 1</matrix>
        <instance_camera url="#Camera-camera"/>
      </node>
      <node id="LandscapeComponent_159_002_001_001" name="LandscapeComponent_159_002_001.001" type="NODE">
        <matrix sid="transform">1 0 0 682.8285 0 1 0 36.82507 0 0 1 405.7423 0 0 0 1</matrix>
      </node>
      <node id="Looks" name="Looks" type="NODE">
        <matrix sid="transform">1 0 0 0 0 1 0 0 0 0 1 0 0 0 0 1</matrix>
      </node>
      <node id="Camera_001" name="Camera.001" type="NODE">
        <matrix sid="transform">0.6859207 -0.3240134 0.6515582 7.358891 0.7276763 0.3054209 -0.6141704 -6.925791 -5.60925e-8 0.8953956 0.4452714 4.958309 0 0 0 1</matrix>
        <instance_camera url="#Camera_001-camera"/>
      </node>
      <node id="root_005" name="root.005" type="NODE">
        <matrix sid="transform">1 0 0 3.341463 0 1 0 -2.107076 0 0 1 6.219612 0 0 0 1</matrix>
        <node id="_materials_003" name="_materials.003" type="NODE">
          <matrix sid="transform">1 0 0 0 0 1 0 0 0 0 1 0 0 0 0 1</matrix>
        </node>
        <node id="env_light_002" name="env_light.002" type="NODE">
          <matrix sid="transform">0.6188404 -5.78016e-8 -0.7855167 0 -0.7855167 2.73531e-9 -0.6188404 0 3.79186e-8 1 -4.37114e-8 0 0 0 0 1</matrix>
          <instance_light url="#env_light_002-light"/>
        </node>
        <node id="moss_rock_11_001" name="moss_rock_11_001" type="NODE">
          <matrix sid="transform">1 0 0 3.33057 0 1 0 -2.223288 0 0 1 -2.46372 0 0 0 1</matrix>
          <instance_geometry url="#moss_rock_11_001-mesh" name="moss_rock_11_001">
            <bind_material>
              <technique_common>
                <instance_material symbol="rock_moss_set_02-material" target="#rock_moss_set_02-material">
                  <bind_vertex_input semantic="moss_rock_11_001-mesh-map-0" input_semantic="TEXCOORD" input_set="0"/>
                </instance_material>
              </technique_common>
            </bind_material>
          </instance_geometry>
        </node>
      </node>
    </visual_scene>
  </library_visual_scenes>
  <scene>
    <instance_visual_scene url="#Scene"/>
  </scene>
</COLLADA>