# Blender 5.1.0
# www.blender.org
mtllib Bush-05.mtl
o Bush-05
v 2.430126 1.891936 22.902321
v 2.430126 1.891936 22.902321
v 2.430126 1.891936 22.902321
v 2.431309 1.891221 22.907646
v 2.431309 1.891221 22.907646
v 2.431309 1.891221 22.907646
v 2.426932 1.890506 22.910336
v 2.426932 1.890506 22.910336
v 2.426932 1.890506 22.910336
v 2.425192 1.891221 22.904802
v 2.425192 1.891221 22.904802
v 2.425192 1.891221 22.904802
v 2.425192 1.891221 22.904802
v 2.488214 1.584473 22.763395
v 2.488214 1.584473 22.763395
v 2.490394 1.583038 22.773155
v 2.490394 1.583038 22.773155
v 2.482308 1.582321 22.778385
v 2.482308 1.582321 22.778385
v 2.472042 1.583038 22.773857
v 2.472042 1.583038 22.773857
v 2.469862 1.584472 22.764097
v 2.469862 1.584472 22.764097
v 2.421300 1.442546 22.683546
v 2.421300 1.442546 22.683546
v 2.421300 1.442546 22.683546
v 2.437549 1.439470 22.702168
v 2.437549 1.439470 22.702168
v 2.427261 1.439779 22.709524
v 2.427261 1.439779 22.709524
v 2.411012 1.442854 22.690903
v 2.411012 1.442854 22.690903
v 2.411012 1.442854 22.690903
v 2.411012 1.442854 22.690903
v 2.368581 1.308525 22.658970
v 2.368581 1.308525 22.658970
v 2.368581 1.308525 22.658970
v 2.385435 1.307569 22.666454
v 2.385435 1.307569 22.666454
v 2.385435 1.307569 22.666454
v 2.385435 1.307569 22.666454
v 2.389064 1.305411 22.682533
v 2.389064 1.305411 22.682533
v 2.389064 1.305411 22.682533
v 2.358985 1.305166 22.683641
v 2.358985 1.305166 22.683641
v 2.358985 1.305166 22.683641
v 2.358985 1.305166 22.683641
v 2.355356 1.307324 22.667562
v 2.355356 1.307324 22.667562
v 2.355356 1.307324 22.667562
v 2.415550 1.135434 22.526888
v 2.415550 1.135434 22.526888
v 2.415550 1.135434 22.526888
v 2.437552 1.136119 22.537624
v 2.437552 1.136119 22.537624
v 2.437552 1.136119 22.537624
v 2.442340 1.133268 22.558834
v 2.442340 1.133268 22.558834
v 2.442340 1.133268 22.558834
v 2.425128 1.129731 22.569307
v 2.425128 1.129731 22.569307
v 2.425128 1.129731 22.569307
v 2.425128 1.129731 22.569307
v 2.407385 1.129045 22.545710
v 2.407385 1.129045 22.545710
v 2.407385 1.129045 22.545710
v 2.652722 0.557054 22.418009
v 2.652722 0.557054 22.418009
v 2.660248 0.555090 22.459192
v 2.660248 0.555090 22.459192
v 2.660248 0.555090 22.459192
v 2.660248 0.555090 22.459192
v 2.627830 0.548037 22.478907
v 2.627830 0.548037 22.478907
v 2.627830 0.548037 22.478907
v 2.582222 0.542948 22.435431
v 2.582222 0.542948 22.435431
v 2.580360 0.544912 22.416254
v 2.580360 0.544912 22.416254
v 2.580360 0.544912 22.416254
v 2.580360 0.544912 22.416254
v 2.759288 0.377654 22.370005
v 2.759288 0.377654 22.370005
v 2.759288 0.377654 22.370005
v 2.805815 0.381861 22.394278
v 2.805815 0.381861 22.394278
v 2.805815 0.381861 22.394278
v 2.805815 0.381861 22.394278
v 2.777109 0.371997 22.464014
v 2.777109 0.371997 22.464014
v 2.730582 0.367790 22.439743
v 2.730582 0.367790 22.439743
v 2.730582 0.367790 22.439743
v 2.721672 0.370619 22.392738
v 2.721672 0.370619 22.392738
v 2.721672 0.370619 22.392738
v 2.721672 0.370619 22.392738
v 2.800203 -0.001008 22.249914
v 2.800203 -0.001008 22.249914
v 2.851125 -0.000465 22.275246
v 2.851125 -0.000465 22.275246
v 2.860432 -0.002629 22.325739
v 2.860432 -0.002629 22.325739
v 2.818816 -0.005336 22.350901
v 2.818816 -0.005336 22.350901
v 2.767890 -0.005879 22.325569
v 2.767890 -0.005879 22.325569
v 2.767890 -0.005879 22.325569
v 3.050924 1.842755 21.716991
v 3.050924 1.842755 21.716991
v 3.050924 1.842755 21.716991
v 3.042495 1.842980 21.712706
v 3.042495 1.842980 21.712706
v 3.042495 1.842980 21.712706
v 3.042495 1.842980 21.712706
v 3.045555 1.842674 21.707211
v 3.045555 1.842674 21.707211
v 3.045555 1.842674 21.707211
v 3.052984 1.842337 21.711515
v 3.052984 1.842337 21.711515
v 3.052984 1.842337 21.711515
v 3.052984 1.842337 21.711515
v 3.069376 1.572336 21.788675
v 3.069376 1.572336 21.788675
v 3.069376 1.572336 21.788675
v 3.069376 1.572336 21.788675
v 3.056846 1.571801 21.783749
v 3.056846 1.571801 21.783749
v 3.056846 1.571801 21.783749
v 3.054535 1.568204 21.772017
v 3.054535 1.568204 21.772017
v 3.054535 1.568204 21.772017
v 3.054535 1.568204 21.772017
v 3.067147 1.569156 21.773001
v 3.067147 1.569156 21.773001
v 3.067147 1.569156 21.773001
v 3.071569 1.570388 21.777964
v 3.071569 1.570388 21.777964
v 3.071569 1.570388 21.777964
v 3.175131 1.420119 21.968395
v 3.175131 1.420119 21.968395
v 3.175131 1.420119 21.968395
v 3.160562 1.418832 21.969664
v 3.160562 1.418832 21.969664
v 3.160562 1.418832 21.969664
v 3.155214 1.415008 21.945986
v 3.155214 1.415008 21.945986
v 3.155214 1.415008 21.945986
v 3.155214 1.415008 21.945986
v 3.169782 1.416294 21.944717
v 3.169782 1.416294 21.944717
v 3.169782 1.416294 21.944717
v 3.175658 1.418850 21.962051
v 3.175658 1.418850 21.962051
v 3.211979 1.294402 21.965084
v 3.211979 1.294402 21.965084
v 3.211979 1.294402 21.965084
v 3.184636 1.294946 21.959032
v 3.184636 1.294946 21.959032
v 3.184636 1.294946 21.959032
v 3.184636 1.294946 21.959032
v 3.184636 1.294946 21.959032
v 3.185670 1.294686 21.938538
v 3.185670 1.294686 21.938538
v 3.185670 1.294686 21.938538
v 3.203793 1.294267 21.937510
v 3.203793 1.294267 21.937510
v 3.203793 1.294267 21.937510
v 3.215669 1.294196 21.954462
v 3.215669 1.294196 21.954462
v 3.215669 1.294196 21.954462
v 3.105867 1.035392 21.995306
v 3.105867 1.035392 21.995306
v 3.105867 1.035392 21.995306
v 3.072154 1.039752 21.990438
v 3.072154 1.039752 21.990438
v 3.064931 1.040898 21.981874
v 3.064931 1.040898 21.981874
v 3.070647 1.040982 21.953543
v 3.070647 1.040982 21.953543
v 3.108205 1.037235 21.958410
v 3.108205 1.037235 21.958410
v 2.835274 0.689568 21.895830
v 2.835274 0.689568 21.895830
v 2.835274 0.689568 21.895830
v 2.835274 0.689568 21.895830
v 2.835274 0.689568 21.895830
v 2.835274 0.689568 21.895830
v 2.809551 0.693563 21.865360
v 2.809551 0.693563 21.865360
v 2.809551 0.693563 21.865360
v 2.809551 0.693563 21.865360
v 2.809551 0.693563 21.865360
v 2.809551 0.693563 21.865360
v 2.884961 0.686254 21.861206
v 2.884961 0.686254 21.861206
v 2.884961 0.686254 21.861206
v 2.853688 0.481678 21.863001
v 2.853688 0.481678 21.863001
v 2.808017 0.482014 21.879368
v 2.808017 0.482014 21.879368
v 2.776387 0.481357 21.842825
v 2.776387 0.481357 21.842825
v 2.786957 0.480363 21.823545
v 2.786957 0.480363 21.823545
v 2.835909 0.480027 21.801889
v 2.835909 0.480027 21.801889
v 2.867538 0.480684 21.838432
v 2.867538 0.480684 21.838432
v 2.840377 0.000000 21.961931
v 2.840377 0.000000 21.961931
v 2.807487 -0.003110 21.924297
v 2.807487 -0.003110 21.924297
v 2.807487 -0.003110 21.924297
v 2.869497 -0.006731 21.882059
v 2.869497 -0.006731 21.882059
v 2.902387 -0.003620 21.919691
v 2.902387 -0.003620 21.919691
v 2.902387 -0.003620 21.919691
v 2.186861 1.923178 21.827383
v 2.186861 1.923178 21.827383
v 2.186861 1.923178 21.827383
v 2.186861 1.923178 21.827383
v 2.187325 1.922580 21.836718
v 2.187325 1.922580 21.836718
v 2.187325 1.922580 21.836718
v 2.187325 1.922580 21.836718
v 2.178477 1.921982 21.830877
v 2.178477 1.921982 21.830877
v 2.178477 1.921982 21.830877
v 2.178477 1.921982 21.830877
v 2.181116 1.922580 21.826603
v 2.181116 1.922580 21.826603
v 2.181116 1.922580 21.826603
v 2.181116 1.922580 21.826603
v 2.356789 1.498487 21.761328
v 2.356789 1.498487 21.761328
v 2.358949 1.499356 21.765888
v 2.358949 1.499356 21.765888
v 2.358949 1.499356 21.765888
v 2.351409 1.497177 21.776787
v 2.351409 1.497177 21.776787
v 2.351409 1.497177 21.776787
v 2.344496 1.495845 21.775755
v 2.334082 1.494565 21.762177
v 2.334082 1.494565 21.762177
v 2.334082 1.494565 21.762177
v 2.339963 1.496092 21.752514
v 2.339963 1.496092 21.752514
v 2.339963 1.496092 21.752514
v 2.690086 1.192531 21.799265
v 2.690086 1.192531 21.799265
v 2.700588 1.194593 21.818445
v 2.700588 1.194593 21.818445
v 2.690249 1.192799 21.834518
v 2.690249 1.192799 21.834518
v 2.669408 1.188942 21.831413
v 2.669408 1.188942 21.831413
v 2.658905 1.186879 21.812233
v 2.658905 1.186879 21.812233
v 2.669244 1.188674 21.796160
v 2.669244 1.188674 21.796160
v 2.859236 0.690249 21.830738
v 2.859236 0.690249 21.830738
v 2.859236 0.690249 21.830738
v 2.859236 0.690249 21.830738
v 2.859236 0.690249 21.830738
v 2.859236 0.690249 21.830738
v 2.886012 0.693393 21.869183
v 2.886012 0.693393 21.869183
v 2.872979 0.685914 21.893751
v 2.872979 0.685914 21.893751
v 2.872979 0.685914 21.893751
v 2.872979 0.685914 21.893751
v 2.872979 0.685914 21.893751
v 2.821532 0.693903 21.832815
v 2.821532 0.693903 21.832815
v 2.821532 0.693903 21.832815
v 2.821532 0.693903 21.832815
v 2.821532 0.693903 21.832815
v 2.821532 0.693903 21.832815
v 2.650130 0.021861 20.455610
v 1.166163 0.153212 20.687883
v 3.545722 0.391387 21.754398
v 2.028294 0.611364 21.986671
v 1.986279 0.011945 20.473108
v 2.806192 0.443584 21.827227
v 2.356297 0.375971 21.194374
v 1.582515 0.389997 21.275007
v 3.115065 0.010882 21.064922
v 4.773657 0.182373 21.465260
v 3.082361 0.302114 19.794792
v 3.783519 0.740244 22.782652
v 2.092222 1.027389 21.112185
v 4.089839 0.234798 20.622526
v 3.001503 0.919941 21.934563
v 3.418464 0.764266 21.187752
v 2.650025 0.672299 20.404375
v 4.324632 0.398170 22.097555
v 3.979002 2.038545 21.549959
v 2.770138 2.199424 21.928593
v 3.741841 1.335253 21.711510
v 2.532977 1.496132 22.090141
v 3.464540 2.120403 21.841665
v 3.171265 1.417245 21.949291
v 3.243474 1.723915 22.068893
v 2.676318 1.867472 22.040228
v 3.881329 1.694372 21.664925
v 1.249020 0.435431 20.465425
v 1.940026 0.002198 22.190866
v 2.433569 1.297611 20.949661
v 3.124575 0.864377 22.675102
v 1.433876 0.270246 21.348400
v 2.710310 1.101808 21.831318
v 2.094986 0.769607 21.871382
v 2.457142 0.423933 22.440426
v 1.786100 0.872368 20.723711
v 3.914051 1.318849 21.732492
v 3.184609 1.256713 23.046591
v 3.112510 0.569965 21.158392
v 2.383067 0.507829 22.472490
v 3.691134 1.247048 22.423658
v 2.807809 0.520118 21.838318
v 3.237495 0.760937 22.276701
v 2.843003 0.888201 22.795177
v 3.559059 0.937100 21.471392
v 2.945064 1.997588 21.727463
v 2.900186 2.151261 23.240835
v 2.346783 1.193835 21.873535
v 2.301905 1.347507 23.386909
v 3.068086 2.044883 22.480787
v 2.389896 1.258177 22.637274
v 2.825001 1.562607 22.756697
v 2.661507 1.761907 23.320919
v 2.696635 1.594118 21.810247
v 1.839801 1.187893 23.411400
v 1.425161 1.270337 21.855860
v 2.902728 0.543633 23.216860
v 2.488088 0.626077 21.661320
v 1.528043 1.175478 22.672474
v 2.645812 0.561057 22.447853
v 2.022406 0.759393 22.391251
v 1.893515 0.948554 21.763556
v 2.326135 0.854652 23.315706
v 3.740157 1.416167 23.288574
v 2.683973 0.915666 24.337549
v 3.094237 0.793535 21.907225
v 2.038053 0.293034 22.956202
v 3.376858 1.123450 23.839127
v 2.634715 0.521238 22.449446
v 2.992989 0.655413 23.172201
v 2.420833 0.603080 23.698572
v 3.466409 1.092484 22.625782
v 3.201227 1.755649 21.758125
v 1.972481 1.537716 22.603346
v 3.384351 0.894555 21.402502
v 2.155606 0.676623 22.247723
v 2.725677 1.645604 22.280380
v 2.825822 0.783867 21.874979
v 2.791609 1.105278 22.257113
v 2.093180 1.127157 22.472416
v 3.325614 1.330065 21.621561
v 2.929984 1.719500 22.125925
v 1.549529 1.592827 22.761471
v 3.187003 0.858045 22.115999
v 1.806549 0.731372 22.751543
v 2.357874 1.665800 22.558340
v 2.542394 0.798350 22.489233
v 2.431673 1.145534 22.726164
v 1.697621 1.186162 22.797596
v 1.697621 1.186162 22.797596
v 3.082938 1.297864 22.162481
v 4.436200 1.931456 21.279585
v 3.319640 1.798453 24.037495
v 3.300778 0.308148 20.504684
v 2.184218 0.175145 23.262594
v 4.180991 1.811303 22.713266
v 2.873283 0.216622 21.924017
v 3.610894 0.785960 22.646706
v 2.867060 1.010503 23.708557
v 3.965121 1.114975 20.937725
v 3.129520 0.272563 24.005974
v 3.890923 0.037805 23.212280
v 2.340622 0.594321 22.830660
v 3.102025 0.146253 22.036964
v 3.588963 0.208167 23.635159
v 2.761258 0.395736 22.441093
v 3.280547 0.295129 22.857117
v 3.547245 0.138210 22.656628
v 2.772556 0.446898 23.429884
v 4.971333 0.628038 22.531345
v 3.600528 1.266518 23.018053
v 3.523846 0.135791 21.561138
v 2.153042 0.690569 22.047846
v 4.316729 0.880185 22.902246
v 2.844614 0.344592 21.864950
v 3.307639 0.564243 22.490910
v 2.912732 0.977281 22.601479
v 4.258314 0.328535 22.098524
v 3.694511 0.154970 21.070848
v 2.310545 0.201824 20.387043
v 3.521377 0.380597 22.236010
v 2.137410 0.638310 21.552202
v 3.026745 0.144286 20.649021
v 2.840003 0.541782 21.857777
v 3.104491 0.418656 21.318426
v 3.638409 0.283118 21.576256
v 2.250435 0.428640 20.922297
v 1.572734 1.634713 21.727646
v 3.399523 1.595785 20.843456
v 1.939084 0.544765 22.381613
v 3.765873 0.505837 21.497423
v 2.421779 1.577826 21.074636
v 2.823824 0.508361 21.843880
v 2.370780 0.937783 21.373104
v 1.698722 1.134549 21.965624
v 3.534154 1.067085 21.097157
v 2.573962 1.770376 20.960011
v 3.927258 1.772814 21.309347
v 2.473051 1.267432 21.818222
v 3.826347 1.269870 22.167557
v 3.307284 1.722596 21.055649
v 3.175677 1.246485 21.957224
v 3.143612 1.399429 21.436432
v 2.532157 1.529662 21.317364
v 3.882913 1.518708 21.688349
v 1.826131 2.080237 21.202789
v 3.074386 1.843528 20.751965
v 1.925769 1.471799 22.079662
v 3.174023 1.235089 21.628839
v 2.406973 1.912136 20.858309
v 2.530626 1.330880 21.800272
v 2.287743 1.555840 21.307507
v 1.844807 1.794405 21.564463
v 3.095062 1.541616 21.135681
v 1.611750 2.154780 21.658430
v 2.523550 2.163860 21.291210
v 1.845915 1.646199 22.020100
v 2.757715 1.655279 21.652880
v 2.046216 2.138670 21.374800
v 2.292346 1.641400 21.791149
v 2.058276 1.834387 21.539526
v 1.700929 1.920144 21.793880
v 2.618448 1.915880 21.435444
v 1.494066 1.978832 22.812326
v 1.901425 1.868514 21.642691
v 2.210016 1.378202 23.293371
v 2.617375 1.267884 22.123734
v 1.591831 1.879814 22.147469
v 2.365882 1.303174 22.672049
v 1.864271 1.518423 22.485909
v 1.778759 1.697010 23.015682
v 2.203875 1.570827 21.858248
v 0.738681 1.606105 22.521036
v 1.883009 1.858952 21.400509
v 1.935793 0.896456 23.165991
v 3.080121 1.149304 22.045462
v 1.254388 1.679576 21.800402
v 2.482702 0.998988 22.532894
v 1.754824 1.208529 22.161064
v 1.246877 1.268857 22.772860
v 2.421621 1.502864 21.668222
v 1.594486 1.561661 22.825891
v 1.789042 1.280483 20.588179
v 2.771538 0.435265 23.534895
v 2.966094 0.154087 21.297184
v 1.467461 1.351959 21.602316
v 2.767390 0.263339 22.368105
v 1.928503 0.693157 22.169657
v 2.052046 1.037926 23.134933
v 2.275560 0.727102 20.915417
v 4.356865 0.162799 22.525864
v 4.247524 0.326224 21.070417
v 2.862092 0.265876 22.584459
v 2.752751 0.540134 21.129013
v 4.374274 0.294538 21.801245
v 2.840003 0.441054 21.857777
v 3.602092 0.379502 22.000662
v 3.709271 0.264745 22.568020
v 3.561658 0.390047 21.114452
v 4.136064 0.267346 20.975410
v 3.293043 0.979103 19.711975
v 3.459238 0.636783 22.606028
v 2.616217 1.515942 21.342592
v 3.889935 0.624181 20.340031
v 3.116859 1.114882 21.972336
v 3.744495 0.895866 21.398407
v 3.894651 0.357748 21.718967
v 3.035467 1.251221 20.498117
v 1.564092 1.859343 22.927036
v 1.052372 1.429998 22.131710
v 2.646823 1.540772 23.043484
v 2.135103 1.111427 22.248158
v 1.253075 1.594233 22.587791
v 2.365882 1.303174 22.672049
v 1.876574 1.422447 22.789982
v 2.038326 1.705349 23.005318
v 1.554444 1.267487 22.213600
v 4.789557 0.714553 23.195290
v 4.310959 0.273861 21.640490
v 3.312672 1.313638 22.806114
v 2.834075 0.872946 21.251314
v 4.646644 0.542173 22.294128
v 3.116859 1.114882 21.972336
v 3.945681 0.968046 22.150291
v 4.161212 1.002584 22.998703
v 3.645059 0.577873 21.433310
v 3.059087 1.569175 21.772230
v 2.521252 2.023965 21.356686
v 2.521252 2.023965 21.356686
v 2.693531 1.772533 21.506884
v 2.486794 2.063091 21.710693
v 2.614790 1.841387 21.933865
v 2.759408 2.063091 21.213337
v 3.030186 1.797266 21.281202
v 3.187691 1.586876 21.669317
v 2.968688 1.586876 22.068867
v 3.045836 1.835201 21.717243
v 3.045836 1.835201 21.717243
v 3.139544 2.137322 21.468653
v 3.139544 2.137322 21.468653
v 3.071631 2.009657 21.635143
v 3.071631 2.009657 21.635143
v 3.371102 2.105395 21.524855
v 3.369661 1.985329 21.699480
v 3.016706 2.114698 21.320555
v 2.870780 1.972713 21.445024
v 2.963143 1.825678 21.634609
v 3.247845 1.818204 21.798733
v 2.467920 1.535022 22.747488
v 1.903995 2.018040 22.704393
v 1.903995 2.018040 22.704393
v 2.078723 1.757634 22.734818
v 2.135702 2.050729 23.034595
v 2.337645 1.820097 23.155399
v 1.965423 2.050729 22.433205
v 2.144278 1.773891 22.331779
v 2.482678 1.549810 22.578779
v 2.619471 1.549810 23.061903
v 2.428516 1.890762 22.902769
v 2.428516 1.890762 22.902769
v 2.406888 2.158623 22.890123
v 2.406888 2.158623 22.890123
v 2.395316 2.031015 22.938078
v 2.395316 2.031015 22.938078
v 2.395316 2.031015 22.938078
v 2.395316 2.031015 22.938078
v 2.595682 2.150112 22.926056
v 2.633204 2.033299 22.987507
v 2.633204 2.033299 22.987507
v 2.316326 2.157446 22.765015
v 2.248153 2.019433 22.770926
v 2.248153 2.019433 22.770926
v 2.366167 1.890790 22.833845
v 2.590586 1.884899 22.963217
v 2.186303 1.905926 21.825264
v 2.186303 1.905926 21.825264
v 2.112099 2.218408 21.858089
v 2.112099 2.218408 21.858089
v 2.085834 2.066178 21.819563
v 2.085834 2.066178 21.819563
v 2.085834 2.066178 21.819563
v 2.085834 2.066178 21.819563
v 2.151653 2.196858 22.062727
v 2.126599 2.053665 22.080259
v 2.126599 2.053665 22.080259
v 2.228871 2.233700 21.756399
v 2.233538 2.076124 21.653082
v 2.233538 2.076124 21.653082
v 2.245039 1.915663 21.755817
v 2.183007 1.886067 22.001904
v 2.461119 1.376107 21.778954
v 2.493363 1.988596 22.443180
v 2.493363 1.988596 22.443180
v 2.506902 1.658389 22.242006
v 2.910826 2.030047 22.255018
v 3.044514 1.737595 22.045738
v 2.109601 2.030047 22.296000
v 1.940740 1.679004 22.054115
v 2.226189 1.394859 21.715506
v 2.869849 1.394859 21.682585
v 3.024993 0.986455 21.958710
v 3.329765 1.464652 22.461456
v 3.329765 1.464652 22.461456
v 3.188011 1.208438 22.314148
v 3.188011 1.208438 22.314148
v 3.663662 1.434896 22.318985
v 3.629755 1.191101 22.166018
v 3.061057 1.540161 22.338463
v 2.772698 1.290521 22.156952
v 2.772698 1.290521 22.156952
v 2.857314 1.028671 21.904560
v 3.341413 0.944107 21.888910
v 2.464839 1.071803 22.550817
v 3.402430 1.479518 23.279051
v 3.402430 1.479518 23.279051
v 3.055903 1.233210 22.925869
v 3.332259 1.632321 22.896484
v 3.022252 1.443222 22.472414
v 3.193913 1.474766 23.561783
v 2.757644 1.184566 23.323124
v 2.359918 1.057595 22.729639
v 2.471058 1.184166 22.195175
v 2.526482 0.840797 22.490763
v 2.685985 1.479433 23.765810
v 2.685985 1.479433 23.765810
v 2.564693 1.104662 23.269110
v 3.338756 1.466383 23.710821
v 3.401721 1.112364 23.272469
v 2.295070 1.636582 23.511421
v 1.945243 1.282728 22.894606
v 2.269760 0.924917 22.360418
v 3.108200 0.788188 22.520605
v 2.574147 0.761446 22.525440
v 4.441654 0.486579 23.402815
v 3.565605 0.711736 23.088995
v 4.060086 0.381376 23.685905
v 3.171340 0.359418 23.503954
v 4.644684 0.479144 22.919966
v 3.810897 0.758589 22.380583
v 2.710736 0.778376 22.248383
v 2.241102 0.565351 22.863695
v 3.215904 2.185899 22.094486
v 2.492892 2.111194 21.453196
v 3.475590 1.723021 22.040510
v 2.752578 1.648316 21.399221
v 2.779795 2.133011 21.883114
v 2.779795 2.133011 21.883114
v 3.060503 1.676592 21.751711
v 2.590593 1.881669 21.457518
v 3.318295 1.947088 22.098246
v 2.856680 1.895606 21.885317
v 3.320395 1.412806 22.565712
v 2.418081 1.380518 22.208502
v 3.509167 1.024831 22.109598
v 2.606852 0.992543 21.752390
v 2.860873 1.352734 22.504047
v 3.029476 0.987929 21.974100
v 2.501214 1.178574 22.022278
v 3.407141 1.202919 22.371004
v 2.925943 1.141448 22.318531
v 2.283462 1.541017 22.412073
v 1.832813 1.508728 21.591095
v 2.931316 1.230956 22.227079
v 2.480667 1.198668 21.406101
v 1.980437 1.466926 22.056128
v 2.658479 1.187712 21.818747
v 2.119217 1.340094 21.513580
v 2.582280 1.365914 22.331085
v 2.255294 1.288193 21.965418
v 2.042407 2.100559 22.262468
v 1.732623 2.103319 21.574171
v 2.452597 1.781723 22.154825
v 2.142814 1.784483 21.466530
v 1.798647 2.065892 21.955410
v 2.249005 1.766871 21.808578
v 1.901293 1.937562 21.529438
v 2.218725 1.928278 22.215721
v 1.955155 1.893081 21.899145
v 2.403846 1.830305 23.372887
v 1.181951 1.521189 22.924610
v 3.042237 1.347921 22.728350
v 1.820341 1.038805 22.280073
v 1.838987 1.613881 23.330757
v 1.838987 1.613881 23.330757
v 2.418625 1.156896 22.574257
v 1.498000 1.266136 22.667095
v 2.732693 1.565310 23.103479
v 2.140659 1.340747 23.077263
v 1.508505 0.325960 23.729261
v 3.013961 0.050846 23.340317
v 1.679866 1.016484 22.571045
v 3.185322 0.573967 22.182100
v 2.406704 0.191815 23.752434
v 2.406704 0.191815 23.752434
v 2.539697 0.822497 22.464367
v 3.152252 0.242555 22.845655
v 1.651126 0.699204 23.212696
v 2.594347 0.557987 23.261827
v 4.016048 1.629226 21.171188
v 3.829098 1.899371 22.275995
v 3.216069 1.088059 21.338713
v 3.029118 1.358204 22.443520
v 3.171532 1.214836 21.955746
v 4.040974 1.731187 21.806030
v 3.738161 1.445443 21.876564
v 3.627851 1.327215 21.281956
v 3.442405 1.598441 22.386400
v 2.117214 1.461966 20.747231
v 3.600628 1.381036 20.736200
v 2.276850 1.083345 21.984526
v 3.760263 1.002415 21.973495
v 3.052928 1.006592 21.942642
v 2.853767 1.345714 20.661928
v 2.854535 1.130101 21.201141
v 2.192880 1.234826 21.383272
v 3.675996 1.154677 21.369858
v 3.558211 1.936387 23.110003
v 2.335472 2.077729 23.402575
v 3.049566 1.363309 22.471031
v 1.826827 1.504651 22.763605
v 2.414893 1.420059 22.680506
v 2.962203 1.968556 23.379959
v 2.790206 1.671065 23.132662
v 3.297685 1.616225 22.807102
v 2.075925 1.758712 23.100866
v 1.918455 1.849341 22.421038
v 1.490408 1.849342 21.534468
v 2.597919 1.517125 22.228001
v 2.169872 1.517126 21.341431
v 2.340209 1.498052 21.764631
v 1.631276 1.807181 21.981844
v 1.931726 1.627849 21.935999
v 2.260385 1.657660 22.323895
v 1.831040 1.658334 21.437693
v 4.582517 0.102536 22.485586
v 3.894686 0.041007 20.926781
v 3.184406 0.354694 22.721668
v 2.496576 0.251438 21.162861
v 2.858407 0.337207 21.873894
v 4.315823 0.120105 21.640306
v 3.733242 0.279930 21.790623
v 3.863365 0.267189 22.598761
v 3.178230 0.061444 21.039513
v 3.070194 1.196000 23.568760
v 3.935213 0.627211 23.051804
v 2.648606 1.493024 22.218189
v 3.513625 0.924235 21.701233
v 3.171532 1.214836 21.955746
v 3.655255 0.956432 23.329792
v 3.498400 1.148088 22.729847
v 2.890027 1.372820 22.855135
v 3.755800 0.803421 22.340813
vn -0.1365 0.3915 -0.9100
vn -0.1773 0.4616 -0.8692
vn -0.1828 0.4707 -0.8632
vn -0.1366 0.3914 -0.9100
vn 0.9500 0.2585 -0.1749
vn 0.9319 0.1347 -0.3369
vn 0.9085 0.0712 -0.4119
vn 0.9500 0.2585 -0.1750
vn 0.5397 -0.2476 0.8046
vn 0.5215 -0.3841 0.7619
vn 0.5184 -0.4008 0.7554
vn -0.6177 -0.3930 0.6812
vn -0.6491 -0.2446 0.7203
vn -0.6431 -0.2802 0.7127
vn -0.6177 -0.3929 0.6812
vn -0.9579 -0.2226 0.1813
vn -0.9716 0.0670 0.2269
vn -0.9764 -0.0361 0.2128
vn -0.3747 0.4586 -0.8058
vn -0.3950 0.4465 -0.8029
vn 0.8372 -0.1136 -0.5350
vn 0.8383 -0.1421 -0.5263
vn 0.3426 -0.3865 0.8563
vn 0.3620 -0.4051 0.8396
vn -0.7174 0.1089 0.6881
vn -0.6934 0.0143 0.7204
vn -0.9334 0.2603 0.2468
vn -0.6842 0.2707 -0.6772
vn -0.6701 0.2794 -0.6877
vn 0.4062 0.0078 -0.9137
vn 0.8385 -0.1934 -0.5094
vn 0.2248 -0.3791 0.8977
vn 0.2227 -0.3688 0.9024
vn -0.9000 0.3247 0.2908
vn -0.9101 0.3307 0.2498
vn -0.9000 0.3248 0.2907
vn -0.8625 -0.0110 -0.5059
vn -0.8528 0.0299 -0.5214
vn 0.3339 0.6282 -0.7027
vn 0.3339 0.6282 -0.7028
vn 0.9079 0.3906 -0.1525
vn 0.9115 0.3820 -0.1524
vn 0.9125 0.3796 -0.1523
vn 0.2442 -0.4894 0.8372
vn -0.8969 -0.3978 0.1932
vn -0.6762 -0.4395 0.5913
vn -0.6659 -0.4634 0.5847
vn -0.9143 -0.3736 0.1562
vn -0.8833 -0.1643 -0.4390
vn 0.0983 0.2228 -0.9699
vn 0.1334 0.2947 -0.9462
vn 0.1192 0.2658 -0.9566
vn 0.0981 0.2228 -0.9699
vn 0.8463 0.5162 -0.1313
vn 0.8404 0.5262 -0.1296
vn 0.5119 0.0451 0.8579
vn 0.5122 0.0452 0.8577
vn -0.6034 -0.3817 0.7002
vn -0.5789 -0.3983 0.7115
vn -0.9531 -0.2960 0.0622
vn -0.8746 -0.4794 0.0718
vn -0.8732 -0.4821 0.0719
vn -0.4630 -0.2611 -0.8470
vn 0.3096 0.3291 -0.8921
vn 0.2761 0.3324 -0.9018
vn 0.7419 0.6624 -0.1040
vn 0.6920 0.4564 0.5593
vn 0.7668 0.2467 0.5926
vn 0.7835 0.1714 0.5973
vn 0.6920 0.4565 0.5592
vn -0.4671 -0.3845 0.7962
vn -0.4566 -0.3656 0.8111
vn -0.7654 -0.6388 0.0783
vn -0.8169 0.0483 -0.5748
vn -0.8169 0.0483 -0.5747
vn 0.4184 0.3151 -0.8519
vn 0.4183 0.3151 -0.8519
vn 0.9706 0.1685 -0.1717
vn 0.8053 -0.0393 0.5916
vn -0.4205 -0.3031 0.8552
vn -0.4204 -0.3031 0.8552
vn -0.9729 -0.1507 0.1754
vn 0.9639 0.1256 0.2349
vn 0.9639 0.1257 0.2349
vn -0.3959 0.2115 0.8936
vn -0.9811 -0.0012 0.1936
vn -0.9668 -0.1235 0.2235
vn -0.9554 -0.1778 0.2358
vn -0.8682 -0.1407 -0.4758
vn 0.2557 -0.2070 -0.9443
vn 0.2556 -0.2070 -0.9444
vn 0.2557 -0.2069 -0.9444
vn 0.7554 -0.1064 -0.6466
vn 0.8513 0.0206 -0.5242
vn 0.8149 -0.0332 -0.5787
vn 0.8116 0.5839 0.0193
vn 0.8993 0.4177 0.1294
vn 0.8858 0.4512 0.1086
vn -0.1402 0.7191 0.6806
vn -0.1403 0.7191 0.6806
vn -0.9332 -0.2636 0.2442
vn -0.9366 -0.2425 0.2529
vn 0.0532 -0.7319 -0.6793
vn 0.8653 0.2206 -0.4501
vn 0.8780 0.1787 -0.4441
vn 0.9374 0.2787 0.2088
vn -0.1115 -0.0825 0.9903
vn -0.1375 0.0572 0.9888
vn -0.1360 0.0489 0.9895
vn -0.1114 -0.0825 0.9903
vn -0.9709 -0.2392 -0.0118
vn -0.9333 -0.2636 0.2441
vn -0.9691 -0.2425 -0.0458
vn -0.9709 -0.2392 -0.0119
vn -0.0711 0.0414 -0.9966
vn -0.0059 -0.0260 -0.9996
vn -0.0026 -0.0294 -0.9996
vn 0.8438 0.2807 -0.4573
vn 0.8439 0.2807 -0.4573
vn 0.8904 -0.3280 0.3156
vn 0.8776 -0.4126 -0.2440
vn 0.9280 -0.3679 0.0595
vn -0.1029 -0.0705 0.9922
vn -0.1257 0.0288 0.9916
vn -0.6823 0.3778 0.6260
vn -0.6974 0.3358 0.6331
vn -0.6928 0.3490 0.6310
vn -0.9040 0.4085 -0.1264
vn -0.8365 0.5202 -0.1725
vn -0.8362 0.5206 -0.1726
vn 0.0636 0.0473 -0.9969
vn 0.0644 0.1521 -0.9863
vn 0.8744 -0.4136 -0.2537
vn 0.9075 -0.3822 -0.1744
vn 0.7616 -0.5872 0.2742
vn 0.8555 -0.3817 0.3500
vn 0.8624 -0.3594 0.3566
vn -0.0637 -0.2296 0.9712
vn -0.0637 -0.2295 0.9712
vn -0.7072 0.3062 0.6372
vn -0.7538 0.6210 -0.2148
vn 0.0643 0.2950 -0.9533
vn 0.8355 -0.4405 -0.3284
vn 0.8356 -0.4404 -0.3283
vn 0.8934 0.0001 0.4492
vn 0.8927 0.0051 0.4506
vn 0.2079 -0.1346 0.9689
vn 0.3531 0.0190 0.9354
vn 0.3509 0.0166 0.9363
vn 0.2078 -0.1346 0.9689
vn -0.7576 0.0486 0.6509
vn -0.7561 0.0550 0.6521
vn -0.7577 0.0486 0.6508
vn -0.9023 0.1731 -0.3948
vn -0.8991 0.0248 -0.4371
vn -0.8985 0.0188 -0.4386
vn -0.2570 0.1214 -0.9588
vn -0.3827 -0.0311 -0.9233
vn -0.3904 -0.0412 -0.9197
vn -0.2570 0.1213 -0.9588
vn 0.7599 0.0062 -0.6501
vn 0.7576 -0.0247 -0.6523
vn 0.7576 -0.0250 -0.6522
vn 0.7599 0.0062 -0.6500
vn 0.8646 0.1430 0.4816
vn 0.4763 0.1643 0.8638
vn -0.7545 0.0614 0.6534
vn -0.7546 0.0613 0.6534
vn -0.8717 -0.1352 -0.4710
vn -0.4953 -0.1859 -0.8486
vn 0.7544 -0.0555 -0.6540
vn 0.7545 -0.0555 -0.6540
vn 0.3437 0.2803 -0.8963
vn 0.3009 0.2125 -0.9297
vn 0.3190 0.2409 -0.9166
vn 0.8008 0.3910 -0.4538
vn 0.7239 0.5303 -0.4413
vn 0.7326 0.5168 -0.4430
vn 0.8866 0.3008 0.3513
vn 0.8866 0.3007 0.3514
vn 0.8867 0.3007 0.3513
vn -0.3696 -0.2636 0.8910
vn -0.5477 -0.3804 0.7452
vn -0.2354 -0.0906 0.9677
vn -0.3590 -0.2603 0.8963
vn -0.3697 -0.2636 0.8910
vn -0.6988 -0.4604 0.5475
vn -0.8190 -0.2125 -0.5330
vn -0.8191 -0.2125 -0.5328
vn -0.8190 -0.2124 -0.5331
vn 0.1079 0.0181 -0.9940
vn 0.1740 0.0779 -0.9817
vn 0.7572 0.4131 -0.5060
vn 0.7288 0.4832 -0.4851
vn 0.5473 0.6957 0.4653
vn 0.6704 0.5435 0.5051
vn 0.6893 0.5145 0.5100
vn -0.0993 0.0573 0.9934
vn -0.0635 0.0832 0.9945
vn -0.7276 -0.4365 0.5292
vn -0.7547 -0.3619 0.5472
vn -0.5762 -0.6815 -0.4511
vn -0.7532 -0.4883 -0.4407
vn -0.7308 -0.5184 -0.4441
vn 0.0177 -0.0625 -0.9979
vn 0.8051 0.2400 -0.5425
vn 0.8050 0.2400 -0.5425
vn 0.7788 0.3418 0.5259
vn -0.0178 0.1159 0.9931
vn -0.7971 -0.1861 0.5744
vn -0.8615 -0.3013 -0.4087
vn -0.1125 0.9912 0.0691
vn -0.1126 0.9912 0.0691
vn 0.0566 0.9976 -0.0393
vn -0.0691 0.9865 0.1485
vn -0.0690 0.9865 0.1486
vn 0.1905 0.9126 -0.3617
vn 0.0836 0.9129 -0.3995
vn 0.1151 0.9286 -0.3528
vn 0.1897 0.8965 -0.4004
vn 0.1478 0.9187 -0.3662
vn 0.0328 0.9307 -0.3644
vn 0.0734 0.9639 -0.2561
vn 0.1888 0.8849 -0.4258
vn 0.0101 0.9064 -0.4223
vn 0.4175 0.8935 -0.1654
vn 0.3747 0.8895 -0.2614
vn 0.3208 0.9237 -0.2097
vn 0.3955 0.9110 -0.1173
vn 0.3023 0.9447 -0.1275
vn 0.2694 0.9167 -0.2950
vn 0.2017 0.9585 -0.2014
vn 0.3735 0.9249 -0.0716
vn 0.3209 0.8731 -0.3671
vn 0.5214 0.1626 0.8377
vn 0.3837 0.2470 0.8898
vn 0.2666 0.0506 0.9625
vn 0.4992 0.0076 0.8665
vn 0.2616 -0.1837 0.9475
vn 0.0916 0.1225 0.9882
vn 0.0693 -0.1237 0.9899
vn 0.4389 -0.2346 0.8674
vn 0.1095 0.3799 0.9185
vn -0.6936 0.6728 0.2574
vn -0.7095 0.6040 0.3632
vn -0.6203 0.6347 0.4609
vn -0.6373 0.7242 0.2633
vn -0.5120 0.7446 0.4283
vn -0.5802 0.5744 0.5774
vn -0.4908 0.6766 0.5489
vn -0.5242 0.8076 0.2701
vn -0.6985 0.3907 0.5995
vn 0.6926 -0.7086 0.1346
vn 0.6246 -0.7214 0.2990
vn 0.5155 -0.8082 0.2848
vn 0.6046 -0.7888 0.1110
vn 0.4450 -0.8749 0.1912
vn 0.4348 -0.7977 0.4179
vn 0.3367 -0.8829 0.3273
vn 0.5159 -0.8521 0.0879
vn 0.5128 -0.7053 0.4894
vn 0.8466 -0.5185 -0.1204
vn 0.8808 -0.4718 0.0391
vn 0.7872 -0.5991 0.1466
vn 0.7712 -0.6303 -0.0895
vn 0.6633 -0.7430 0.0889
vn 0.7734 -0.5590 0.2989
vn 0.6337 -0.7213 0.2797
vn 0.6692 -0.7412 -0.0529
vn 0.8809 -0.3627 0.3042
vn -0.5264 -0.8134 0.2474
vn -0.5753 -0.8098 0.1154
vn -0.4895 -0.8707 0.0474
vn -0.4524 -0.8675 0.2069
vn -0.3887 -0.9187 0.0693
vn -0.5238 -0.8491 -0.0684
vn -0.3945 -0.9150 -0.0845
vn -0.3802 -0.9096 0.1677
vn -0.6206 -0.7823 -0.0542
vn 0.7063 -0.7044 0.0701
vn 0.5701 -0.7983 0.1942
vn 0.5091 -0.8528 0.1161
vn 0.6371 -0.7707 0.0086
vn 0.4746 -0.8798 0.0251
vn 0.3846 -0.8949 0.2264
vn 0.3290 -0.9370 0.1177
vn 0.5719 -0.8192 -0.0436
vn 0.4210 -0.8551 0.3026
vn 0.7478 0.0376 0.6629
vn 0.5697 -0.0223 0.8216
vn 0.5501 -0.2764 0.7880
vn 0.7459 -0.1965 0.6364
vn 0.5928 -0.4533 0.6657
vn 0.3650 -0.2766 0.8890
vn 0.3587 -0.5486 0.7552
vn 0.7136 -0.3798 0.5887
vn 0.3508 -0.0824 0.9328
vn 0.5705 0.3030 0.7634
vn 0.3884 0.2850 0.8763
vn 0.3802 0.0150 0.9248
vn 0.5968 0.0845 0.7979
vn 0.4633 -0.1831 0.8671
vn 0.2177 -0.2712 0.9376
vn 0.2177 -0.2711 0.9376
vn 0.5946 -0.1238 0.7944
vn 0.1647 0.2494 0.9543
vn 0.8576 -0.5056 0.0941
vn 0.8056 -0.5179 0.2878
vn 0.6910 -0.6610 0.2925
vn 0.7664 -0.6372 0.0811
vn 0.6072 -0.7724 0.1864
vn 0.6137 -0.6499 0.4483
vn 0.4934 -0.7941 0.3550
vn 0.6698 -0.7394 0.0680
vn 0.6953 -0.5040 0.5124
vn 0.2677 0.9620 0.0541
vn 0.3280 0.9447 0.0042
vn 0.3521 0.9307 -0.0988
vn 0.2842 0.9587 0.0074
vn 0.3322 0.9327 -0.1401
vn 0.3956 0.9037 -0.1638
vn 0.3614 0.9004 -0.2421
vn 0.3043 0.9511 -0.0527
vn 0.4275 0.9002 -0.0826
vn 0.0179 -0.8250 0.5649
vn -0.0552 -0.7493 0.6599
vn -0.1716 -0.7511 0.6375
vn -0.0153 -0.8596 0.5107
vn -0.2152 -0.8132 0.5407
vn -0.2765 -0.6340 0.7222
vn -0.3203 -0.7037 0.6342
vn -0.0769 -0.9122 0.4025
vn -0.2126 -0.5284 0.8219
vn 0.2733 0.9084 -0.3163
vn 0.2224 0.9064 -0.3591
vn 0.2366 0.9401 -0.2453
vn 0.2785 0.9425 -0.1847
vn 0.2219 0.9626 -0.1556
vn 0.1848 0.9313 -0.3140
vn 0.1651 0.9613 -0.2203
vn 0.2791 0.9563 -0.0872
vn 0.1977 0.9040 -0.3790
vn -0.6254 -0.3655 -0.6894
vn -0.3810 -0.4153 -0.8260
vn -0.4043 -0.5845 -0.7035
vn -0.5628 -0.5598 -0.6081
vn -0.2912 -0.7353 -0.6120
vn -0.1718 -0.5854 -0.7923
vn -0.1594 -0.7117 -0.6842
vn -0.4644 -0.7396 -0.4871
vn -0.1798 -0.4307 -0.8844
vn -0.0079 -0.7936 -0.6084
vn 0.1573 -0.8059 -0.5708
vn 0.1011 -0.8732 -0.4767
vn -0.0191 -0.8602 -0.5096
vn 0.1139 -0.9222 -0.3695
vn 0.2528 -0.8618 -0.4398
vn 0.2129 -0.9084 -0.3598
vn -0.0324 -0.9256 -0.3770
vn 0.2950 -0.7980 -0.5255
vn -0.5673 -0.6099 -0.5533
vn -0.3256 -0.7219 -0.6107
vn -0.3787 -0.7883 -0.4849
vn -0.5190 -0.7378 -0.4315
vn -0.3022 -0.8759 -0.3762
vn -0.1653 -0.8302 -0.5324
vn -0.1680 -0.8896 -0.4248
vn -0.4587 -0.8343 -0.3059
vn -0.1606 -0.7651 -0.6236
vn -0.5331 -0.4859 -0.6926
vn -0.3055 -0.5076 -0.8056
vn -0.3111 -0.6572 -0.6865
vn -0.4705 -0.6417 -0.6057
vn -0.2061 -0.7786 -0.5926
vn -0.0952 -0.6437 -0.7593
vn -0.0855 -0.7493 -0.6566
vn -0.3764 -0.7940 -0.4774
vn -0.1039 -0.5009 -0.8593
vn -0.7682 -0.6395 0.0308
vn -0.6477 -0.7342 -0.2035
vn -0.5907 -0.8013 -0.0944
vn -0.6434 -0.7634 0.0567
vn -0.4670 -0.8814 -0.0707
vn -0.4822 -0.8286 -0.2844
vn -0.3994 -0.8915 -0.2137
vn -0.5240 -0.8482 0.0770
vn -0.5472 -0.7642 -0.3414
vn -0.4464 -0.8231 -0.3511
vn -0.3268 -0.7957 -0.5100
vn -0.2529 -0.8616 -0.4401
vn -0.3651 -0.8787 -0.3076
vn -0.1549 -0.9047 -0.3969
vn -0.1277 -0.8113 -0.5705
vn -0.0820 -0.8636 -0.4975
vn -0.2521 -0.9361 -0.2454
vn -0.1851 -0.7312 -0.6565
vn -0.8427 -0.4910 0.2209
vn -0.7694 -0.6368 -0.0503
vn -0.7003 -0.7107 0.0664
vn -0.7131 -0.6637 0.2258
vn -0.5681 -0.8198 0.0718
vn -0.6272 -0.7637 -0.1529
vn -0.5205 -0.8486 -0.0947
vn -0.5964 -0.7712 0.2226
vn -0.6981 -0.6891 -0.1944
vn 0.1577 0.9720 0.1744
vn 0.1283 0.9880 0.0864
vn 0.0978 0.9869 0.1284
vn 0.0964 0.9763 0.1939
vn 0.0843 0.9887 0.1243
vn 0.1164 0.9925 0.0363
vn 0.1287 0.9900 0.0570
vn 0.0210 0.9760 0.2166
vn 0.1040 0.9945 0.0152
vn 0.8714 0.4822 0.0902
vn 0.6804 0.7308 -0.0539
vn 0.7019 0.7038 0.1098
vn 0.7904 0.5737 0.2145
vn 0.6101 0.7708 0.1836
vn 0.5400 0.8402 -0.0490
vn 0.4789 0.8762 0.0546
vn 0.7135 0.6313 0.3039
vn 0.5740 0.8109 -0.1136
vn -0.3506 -0.4993 0.7923
vn -0.3632 -0.7466 0.5575
vn -0.2604 -0.7310 0.6308
vn -0.2236 -0.6184 0.7534
vn -0.1601 -0.7909 0.5906
vn -0.3016 -0.8508 0.4304
vn -0.1961 -0.8879 0.4161
vn -0.1274 -0.6923 0.7102
vn -0.3556 -0.8269 0.4357
vn 0.5031 0.8402 -0.2024
vn 0.5107 0.7841 -0.3526
vn 0.4118 0.8349 -0.3652
vn 0.4327 0.8782 -0.2036
vn 0.3195 0.8646 -0.3878
vn 0.3950 0.7598 -0.5164
vn 0.3254 0.8099 -0.4880
vn 0.2993 0.9324 -0.2025
vn 0.4986 0.6680 -0.5524
vn -0.3813 -0.8991 -0.2150
vn -0.5509 -0.7685 -0.3254
vn -0.2880 -0.7865 -0.5464
vn -0.2030 -0.8926 -0.4027
vn -0.6617 -0.7491 -0.0308
vn -0.8280 -0.5591 -0.0427
vn -0.8280 -0.5592 -0.0427
vn -0.3766 -0.6148 -0.6930
vn -0.3766 -0.6147 -0.6930
vn -0.5281 -0.8489 -0.0219
vn -0.6702 0.3931 0.6296
vn -0.6182 0.5888 0.5207
vn -0.5872 0.6608 0.4675
vn -0.6701 0.3933 0.6296
vn -0.1196 0.6926 0.7113
vn -0.0459 0.8127 0.5809
vn -0.0460 0.8126 0.5809
vn -0.1262 0.6801 0.7222
vn -0.5113 0.7844 0.3512
vn -0.1980 0.5250 0.8277
vn -0.5227 -0.8375 0.1594
vn -0.7195 -0.6730 0.1714
vn -0.6871 -0.7085 -0.1613
vn -0.4894 -0.8644 -0.1157
vn -0.6190 -0.6476 0.4444
vn -0.7415 -0.4038 0.5358
vn -0.8310 -0.5212 -0.1944
vn -0.5202 -0.7691 0.3714
vn -0.6986 -0.3276 0.6361
vn -0.6986 -0.3275 0.6361
vn -0.6987 -0.3278 0.6359
vn -0.6987 -0.3276 0.6360
vn -0.1755 0.3866 0.9054
vn -0.1755 0.3867 0.9054
vn -0.7368 0.3398 0.5845
vn -0.7369 0.3397 0.5845
vn -0.2618 -0.1869 0.9469
vn -0.2618 -0.1869 0.9468
vn -0.2618 -0.1870 0.9468
vn -0.6584 -0.4371 -0.6127
vn -0.6585 -0.4371 -0.6127
vn -0.6585 -0.4370 -0.6127
vn -0.9714 0.1560 0.1791
vn -0.6849 0.3423 -0.6432
vn -0.6849 0.3423 -0.6433
vn -0.8973 -0.4392 0.0444
vn -0.8973 -0.4392 0.0443
vn 0.0116 -0.8378 0.5459
vn 0.0366 -0.6636 0.7472
vn -0.2667 -0.6795 0.6834
vn -0.2048 -0.8272 0.5232
vn 0.3185 -0.6594 0.6810
vn 0.3823 -0.4439 0.8105
vn 0.3823 -0.4439 0.8104
vn -0.3215 -0.4636 0.8257
vn -0.3215 -0.4637 0.8256
vn 0.2503 -0.8031 0.5407
vn -0.1832 -0.7783 0.6006
vn 0.0310 -0.7404 0.6714
vn -0.3701 -0.7030 0.6073
vn 0.1892 -0.6951 0.6936
vn 0.2599 -0.5626 0.7848
vn -0.4131 -0.2228 0.8830
vn -0.4130 -0.2228 0.8831
vn -0.4130 -0.2228 0.8830
vn 0.0926 -0.8303 0.5495
vn 0.3876 -0.9058 -0.1712
vn 0.5367 -0.8368 -0.1084
vn 0.3317 -0.9306 0.1549
vn 0.2297 -0.9717 0.0548
vn 0.5912 -0.7306 -0.3417
vn 0.7630 -0.5530 -0.3347
vn 0.4172 -0.8759 0.2422
vn 0.4887 -0.8047 -0.3372
vn -0.2648 -0.9024 0.3400
vn -0.2845 -0.8071 0.5174
vn -0.4914 -0.7583 0.4284
vn -0.4311 -0.8482 0.3077
vn -0.0072 -0.8621 0.5066
vn 0.0185 -0.7891 0.6139
vn -0.5635 -0.5616 0.6059
vn -0.0380 -0.9300 0.3656
vn -0.0890 0.9550 0.2828
vn 0.0089 0.9510 0.3090
vn 0.1178 0.9887 0.0932
vn 0.0103 0.9976 0.0686
vn -0.1227 0.8662 0.4843
vn -0.0451 0.8578 0.5120
vn 0.1222 0.9514 0.2827
vn 0.2268 0.9669 0.1173
vn -0.1749 0.8686 0.4636
vn -0.4093 -0.1428 0.9011
vn -0.5661 -0.4323 0.7019
vn -0.3839 -0.4256 0.8195
vn -0.4623 -0.6390 0.6148
vn -0.7176 -0.4734 0.5109
vn -0.5820 -0.6676 0.4643
vn -0.3478 -0.5959 0.7238
vn -0.7985 -0.2912 0.5269
vn -0.0033 -0.6708 0.7417
vn -0.2246 -0.6956 0.6824
vn -0.1931 -0.7935 0.5771
vn -0.0037 -0.7945 0.6073
vn -0.1519 -0.8869 0.4362
vn -0.3622 -0.7969 0.4835
vn -0.2811 -0.8772 0.3892
vn -0.0039 -0.8777 0.4791
vn -0.4464 -0.6816 0.5797
vn -0.3532 -0.8044 0.4776
vn -0.4497 -0.8541 0.2613
vn -0.3535 -0.9056 0.2345
vn -0.2593 -0.8915 0.3715
vn -0.2405 -0.9540 0.1788
vn -0.4073 -0.9117 0.0541
vn -0.2906 -0.9562 0.0360
vn -0.1939 -0.9352 0.2964
vn -0.5097 -0.8575 0.0701
vn -0.5369 -0.6706 0.5119
vn -0.6505 -0.7079 0.2752
vn -0.5487 -0.8017 0.2371
vn -0.4390 -0.8023 0.4045
vn -0.4105 -0.8929 0.1848
vn -0.5923 -0.8051 0.0319
vn -0.4567 -0.8893 0.0251
vn -0.3608 -0.8759 0.3204
vn -0.7150 -0.6981 0.0380
vn 0.1722 -0.5754 0.7996
vn 0.1721 -0.5753 0.7996
vn 0.0282 -0.7969 0.6035
vn 0.1974 -0.7481 0.6335
vn 0.0748 -0.8863 0.4571
vn -0.1635 -0.8660 0.4725
vn -0.0714 -0.9229 0.3783
vn 0.2070 -0.8301 0.5178
vn -0.2381 -0.8047 0.5439
vn -0.2380 -0.8047 0.5439
vn 0.0939 0.7876 0.6090
vn 0.3916 0.7812 0.4862
vn 0.1388 0.8588 0.4932
vn 0.3802 0.8590 0.3429
vn 0.5731 0.7201 0.3913
vn 0.5449 0.7792 0.3098
vn 0.1814 0.9128 0.3658
vn 0.6092 0.5866 0.5337
vn 0.6091 0.5866 0.5337
vn 0.4391 -0.7901 0.4276
vn 0.4463 -0.8395 0.3100
vn 0.5765 -0.7602 0.2996
vn 0.5146 -0.7203 0.4651
vn 0.6637 -0.6941 0.2788
vn 0.5496 -0.8279 0.1119
vn 0.6561 -0.7521 0.0625
vn 0.4450 -0.8821 0.1542
vn 0.6295 -0.5806 0.5164
vn 0.0403 -0.9771 -0.2088
vn -0.0393 -0.9805 -0.1927
vn -0.0653 -0.9583 -0.2783
vn 0.0608 -0.9612 -0.2692
vn -0.0613 -0.9353 -0.3484
vn -0.1781 -0.9525 -0.2469
vn -0.2090 -0.9195 -0.3328
vn -0.1492 -0.9744 -0.1682
vn 0.0907 -0.9300 -0.3563
vn -0.0839 -0.8079 0.5833
vn -0.0014 -0.8419 0.5396
vn 0.0644 -0.7703 0.6344
vn -0.0891 -0.7498 0.6556
vn 0.1131 -0.7038 0.7013
vn 0.2046 -0.8144 0.5431
vn 0.2736 -0.7395 0.6150
vn 0.1294 -0.8787 0.4595
vn -0.0968 -0.6233 0.7760
vn -0.3262 -0.9442 0.0452
vn -0.2922 -0.9458 0.1415
vn -0.3811 -0.9036 0.1956
vn -0.4073 -0.9118 0.0517
vn -0.4587 -0.8678 0.1913
vn -0.3149 -0.9046 0.2872
vn -0.4010 -0.8374 0.3714
vn -0.2572 -0.9383 0.2311
vn -0.4896 -0.8700 0.0582
vn 0.1158 0.9555 -0.2714
vn 0.1058 0.9789 -0.1746
vn 0.1316 0.9813 -0.1404
vn 0.1038 0.9589 -0.2641
vn 0.1678 0.9765 -0.1351
vn 0.1619 0.9863 -0.0330
vn 0.2344 0.9714 -0.0384
vn 0.0892 0.9956 -0.0274
vn 0.0829 0.9644 -0.2512
vn 0.6351 0.7567 -0.1553
vn 0.5281 0.8432 -0.1008
vn 0.5745 0.8185 -0.0015
vn 0.6910 0.7152 -0.1048
vn 0.5911 0.8032 0.0737
vn 0.3983 0.9160 0.0476
vn 0.3982 0.9047 0.1516
vn 0.3952 0.9178 -0.0375
vn 0.7721 0.6352 -0.0198
vt 0.966382 8.503631
vt 0.966382 6.725045
vt 0.810921 6.725045
vt 0.810921 8.503631
vt 0.344539 8.503631
vt 0.344539 6.725048
vt 0.189079 6.725048
vt 0.189079 8.503631
vt 0.500000 8.503631
vt 0.500000 6.725048
vt 0.655461 8.503631
vt 0.655461 6.725048
vt 0.966382 4.946462
vt 0.810921 4.946462
vt 0.344539 4.946462
vt 0.189079 4.946462
vt 0.500000 4.946462
vt 0.655461 4.946462
vt 0.966382 3.167876
vt 0.810921 3.167876
vt 0.189079 3.167876
vt 0.033618 3.167878
vt 0.344539 3.167876
vt 0.500000 3.167876
vt 0.655461 3.167876
vt 0.966382 1.389293
vt 0.810921 1.389293
vt 0.189079 1.389293
vt 0.033618 1.389293
vt 0.344539 1.389293
vt 0.500000 1.389293
vt 0.655461 1.389293
vt 0.810921 -0.389293
vt 0.189079 -0.389293
vt 0.033618 -0.389292
vt 0.344539 -0.389293
vt 0.500000 -0.389293
vt 0.655461 -0.389293
vt 0.966382 -0.389294
vt 0.966382 -2.167878
vt 0.810921 -2.167878
vt 0.189079 -2.167876
vt 0.033618 -2.167876
vt 0.500000 -2.167877
vt 0.344539 -2.167877
vt 0.655461 -2.167877
vt 0.966382 -3.946462
vt 0.810921 -3.946462
vt 0.189079 -3.946462
vt 0.033618 -3.946462
vt 0.344539 -3.946462
vt 0.500000 -3.946462
vt 0.655461 -3.946462
vt 0.033618 6.725048
vt 0.033618 8.503633
vt 0.033618 4.946462
vt 0.966382 -7.503632
vt 0.810921 -7.503630
vt 0.189079 -7.503630
vt 0.033618 -7.503630
vt 0.344539 -7.503630
vt 0.500000 -7.503630
vt 0.655461 -7.503630
vt 0.000000 0.000000
vt 0.475004 0.000000
vt 0.581436 0.594393
vt 0.000000 0.491831
vt 0.494355 1.000000
vt 1.000000 0.474417
vt 1.000000 1.000000
vt 0.000000 1.000000
vt 1.000000 0.000000
vt 0.533479 0.000000
vt 0.447807 0.563622
vt 0.000000 0.448746
vt 0.515396 1.000000
vt 1.000000 0.474699
vt 0.509433 1.000000
vt 0.557025 0.488493
vt 0.943530 0.531260
vt 0.672370 1.000000
vt 0.124045 0.440587
vt 0.259966 0.000000
vt 0.602475 0.000000
vt 0.860970 0.000000
vt 0.189556 1.000000
vt 0.480173 0.000000
vt 0.499095 0.494221
vt 0.000000 0.504135
vt 0.518459 1.000000
vt 1.000000 0.484268
vt 0.532232 1.000000
vt 0.477364 0.470556
vt 1.000000 0.533264
vt 0.516556 0.000000
vt 0.000000 0.535225
s 1
usemtl trunk-01
f 1/1/1 14/2/2 23/3/3
f 1/1/1 23/3/3 12/4/4
f 6/5/5 17/6/6 15/7/7
f 6/5/5 15/7/7 3/8/8
f 9/9/9 19/10/10 16/6/11
f 9/9/9 16/6/11 5/5/9
f 11/11/12 21/12/13 18/10/14
f 11/11/12 18/10/14 7/9/15
f 10/4/16 22/3/17 20/12/18
f 14/2/2 24/13/19 34/14/20
f 14/2/2 34/14/20 23/3/3
f 17/6/6 28/15/21 26/16/22
f 17/6/6 26/16/22 15/7/7
f 19/10/10 30/17/23 27/15/24
f 19/10/10 27/15/24 16/6/11
f 21/12/13 32/18/25 29/17/26
f 21/12/13 29/17/26 18/10/14
f 22/3/17 31/18/27 20/12/18
f 24/13/19 35/19/28 51/20/29
f 24/13/19 51/20/29 34/14/20
s 0
f 25/16/30 39/21/30 37/22/30
s 1
f 28/15/21 43/23/31 40/21/31
f 28/15/21 40/21/31 26/16/22
f 30/17/23 48/24/32 42/23/33
f 30/17/23 42/23/33 27/15/24
f 32/18/25 45/24/34 29/17/26
f 33/14/25 50/20/35 46/25/36
f 35/19/28 52/26/37 66/27/38
f 35/19/28 66/27/38 51/20/29
f 38/21/39 56/28/39 54/29/40
f 38/21/39 54/29/40 36/22/39
f 44/23/41 60/30/42 57/28/43
f 44/23/41 57/28/43 41/21/41
f 48/24/32 62/31/44 58/30/44
f 48/24/32 58/30/44 42/23/33
f 47/25/45 67/32/46 61/31/47
f 49/20/48 67/32/46 47/25/45
f 52/26/37 79/33/49 66/27/38
f 55/28/50 68/34/51 82/35/52
f 55/28/50 82/35/52 53/29/53
f 60/30/42 73/36/54 69/34/55
f 60/30/42 69/34/55 57/28/43
s 0
f 63/31/56 75/37/56 70/36/56
f 64/31/57 71/36/57 59/30/57
s 1
f 67/32/46 78/38/58 74/37/59
f 67/32/46 74/37/59 61/31/47
f 65/27/60 80/33/61 77/38/62
f 81/39/63 84/40/63 98/41/63
f 68/34/51 86/42/64 85/43/65
f 68/34/51 85/43/65 82/35/52
f 73/36/54 87/42/66 69/34/55
f 76/37/67 91/44/68 88/45/69
f 76/37/67 88/45/69 72/36/70
f 78/38/58 94/46/71 90/44/72
f 78/38/58 90/44/72 74/37/59
f 80/33/61 97/41/73 93/46/73
f 80/33/61 93/46/73 77/38/62
f 83/40/74 99/47/75 108/48/75
f 83/40/74 108/48/75 96/41/74
f 86/42/64 101/49/76 100/50/77
f 86/42/64 100/50/77 85/43/65
s 0
f 89/45/78 104/51/78 102/49/78
s 1
f 91/44/68 106/52/79 103/51/79
f 91/44/68 103/51/79 88/45/69
f 94/46/71 109/53/80 105/52/81
f 94/46/71 105/52/81 90/44/72
s 0
f 95/41/82 107/53/82 92/46/82
s 1
f 112/1/83 127/2/83 140/3/83
f 112/1/83 140/3/83 123/4/84
f 115/8/85 129/7/85 124/54/85
f 115/8/85 124/54/85 110/55/85
f 113/5/86 131/6/87 128/7/88
s 0
f 117/9/89 132/6/89 114/5/89
s 1
f 121/11/90 136/12/91 134/10/91
f 121/11/90 134/10/91 119/9/92
f 122/4/93 139/3/94 137/12/95
f 126/2/96 143/13/97 155/14/98
f 126/2/96 155/14/98 138/3/96
f 130/7/99 145/16/99 141/56/99
f 130/7/99 141/56/99 125/54/100
f 131/6/87 147/15/101 144/16/102
f 131/6/87 144/16/102 128/7/88
f 135/12/103 152/18/103 150/17/103
f 135/12/103 150/17/103 133/10/103
f 139/3/94 154/14/104 153/18/105
f 139/3/94 153/18/105 137/12/95
f 143/13/97 158/19/106 172/20/106
f 143/13/97 172/20/106 155/14/98
f 146/16/107 163/21/108 156/22/109
f 146/16/107 156/22/109 142/56/110
f 147/15/101 159/21/111 144/16/102
f 148/17/112 164/24/113 160/23/114
f 151/18/115 167/25/116 166/24/117
f 151/18/115 166/24/117 149/17/115
f 154/14/104 170/20/118 168/25/119
f 154/14/104 168/25/119 153/18/105
f 157/19/120 175/27/121 171/20/122
f 163/21/108 177/28/123 173/29/124
f 163/21/108 173/29/124 156/22/109
f 162/23/125 179/30/126 176/28/127
f 165/24/128 180/31/129 178/30/130
f 165/24/128 178/30/130 161/23/128
f 167/25/116 182/32/131 181/31/132
f 167/25/116 181/31/132 166/24/117
f 171/20/122 175/27/121 183/32/133
f 171/20/122 183/32/133 169/25/134
f 174/26/135 276/39/136 198/33/137
f 177/28/123 187/34/138 272/35/139
f 177/28/123 272/35/139 173/29/124
f 179/30/126 195/36/140 186/34/140
f 179/30/126 186/34/140 176/28/127
f 180/31/129 279/37/141 194/36/141
f 180/31/129 194/36/141 178/30/130
f 182/32/131 266/38/142 282/37/142
f 182/32/131 282/37/142 181/31/132
f 175/27/121 197/33/143 269/38/144
f 175/27/121 269/38/144 183/32/133
f 276/39/136 200/40/145 210/41/146
f 276/39/136 210/41/146 198/33/137
f 189/34/147 202/42/148 199/43/149
f 189/34/147 199/43/149 274/35/150
f 193/36/151 204/45/152 201/42/152
f 193/36/151 201/42/152 185/34/153
f 277/37/154 205/44/155 203/45/156
f 277/37/154 203/45/156 190/36/154
f 264/38/157 207/46/158 206/44/159
f 264/38/157 206/44/159 280/37/160
f 196/33/161 209/41/162 208/46/163
f 196/33/161 208/46/163 267/38/164
f 200/40/145 220/48/165 210/41/146
f 202/42/148 212/49/166 218/50/166
f 202/42/148 218/50/166 199/43/149
f 204/45/152 214/51/167 211/49/168
f 204/45/152 211/49/168 201/42/152
f 205/44/155 213/51/169 203/45/156
f 207/46/158 216/53/170 215/52/170
f 207/46/158 215/52/170 206/44/159
f 209/41/162 219/48/171 217/53/172
f 209/41/162 217/53/172 208/46/163
f 222/1/173 237/19/174 251/20/175
f 222/1/173 251/20/175 236/4/173
f 223/8/176 240/21/177 238/22/178
f 228/5/179 244/23/180 241/21/180
f 228/5/179 241/21/180 224/8/181
f 230/9/182 245/24/183 242/23/184
f 230/9/182 242/23/184 225/5/185
f 231/11/186 247/25/187 245/24/183
f 233/4/188 249/20/188 246/25/189
f 233/4/188 246/25/189 229/11/190
f 237/19/174 252/40/191 263/41/192
f 237/19/174 263/41/192 251/20/175
f 240/21/177 255/42/193 253/43/194
f 240/21/177 253/43/194 238/22/178
f 243/23/195 257/45/196 254/42/197
f 243/23/195 254/42/197 239/21/195
f 245/24/183 259/44/198 256/45/199
f 245/24/183 256/45/199 242/23/184
f 247/25/187 261/46/200 258/44/201
f 247/25/187 258/44/201 245/24/183
f 250/20/202 262/41/203 260/46/204
f 250/20/202 260/46/204 248/25/202
f 252/40/191 265/57/205 281/58/205
f 252/40/191 281/58/205 263/41/192
f 255/42/193 271/59/206 268/60/207
f 255/42/193 268/60/207 253/43/194
f 257/45/196 275/61/208 270/59/208
f 257/45/196 270/59/208 254/42/197
f 259/44/198 188/62/209 273/61/209
f 259/44/198 273/61/209 256/45/199
f 261/46/200 192/63/210 184/62/210
f 261/46/200 184/62/210 258/44/201
f 262/41/203 278/58/211 191/63/211
f 262/41/203 191/63/211 260/46/204
f 234/4/212 232/11/212 226/5/212
s 0
f 235/4/213 227/5/213 221/8/213
s 1
f 120/11/214 118/9/214 116/5/214
f 120/11/214 116/5/214 111/55/214
f 8/9/215 4/5/215 2/1/216
f 8/9/215 2/1/216 13/11/216
usemtl branch-02-1
f 283/64/217 287/65/218 289/66/219
f 283/64/217 289/66/219 291/67/220
f 288/68/221 289/66/219 290/69/222
f 288/68/221 290/69/222 286/70/223
f 291/67/220 289/66/219 288/68/221
f 291/67/220 288/68/221 285/71/224
f 290/69/222 289/66/219 287/65/218
f 290/69/222 287/65/218 284/72/225
f 292/64/226 296/65/227 298/66/228
f 292/64/226 298/66/228 300/67/229
f 297/68/230 298/66/228 299/69/231
f 297/68/230 299/69/231 295/70/232
f 300/67/229 298/66/228 297/68/230
f 300/67/229 297/68/230 294/71/233
f 299/69/231 298/66/228 296/65/227
f 299/69/231 296/65/227 293/72/234
f 301/64/235 305/65/236 307/66/237
f 301/64/235 307/66/237 309/67/238
f 306/68/239 307/66/237 308/69/240
f 306/68/239 308/69/240 304/70/241
f 309/67/238 307/66/237 306/68/239
f 309/67/238 306/68/239 303/71/242
f 308/69/240 307/66/237 305/65/236
f 308/69/240 305/65/236 302/72/243
f 310/64/244 314/65/245 316/66/246
f 310/64/244 316/66/246 318/67/247
f 315/68/248 316/66/246 317/69/249
f 315/68/248 317/69/249 313/70/250
f 318/67/247 316/66/246 315/68/248
f 318/67/247 315/68/248 312/71/251
f 317/69/249 316/66/246 314/65/245
f 317/69/249 314/65/245 311/72/252
f 319/64/253 323/65/254 325/66/255
f 319/64/253 325/66/255 327/67/256
f 324/68/257 325/66/255 326/69/258
f 324/68/257 326/69/258 322/70/259
f 327/67/256 325/66/255 324/68/257
f 327/67/256 324/68/257 321/71/260
f 326/69/258 325/66/255 323/65/254
f 326/69/258 323/65/254 320/72/261
f 328/64/262 332/65/263 334/66/264
f 328/64/262 334/66/264 336/67/265
f 333/68/266 334/66/264 335/69/267
f 333/68/266 335/69/267 331/70/268
f 336/67/265 334/66/264 333/68/266
f 336/67/265 333/68/266 330/71/269
f 335/69/267 334/66/264 332/65/263
f 335/69/267 332/65/263 329/72/270
f 337/64/271 341/65/272 343/66/273
f 337/64/271 343/66/273 345/67/274
f 342/68/275 343/66/273 344/69/276
f 342/68/275 344/69/276 340/70/277
f 345/67/274 343/66/273 342/68/275
f 345/67/274 342/68/275 339/71/278
f 344/69/276 343/66/273 341/65/272
f 344/69/276 341/65/272 338/72/279
f 346/64/280 350/65/281 352/66/282
f 346/64/280 352/66/282 354/67/283
f 351/68/284 352/66/282 353/69/285
f 351/68/284 353/69/285 349/70/286
f 354/67/283 352/66/282 351/68/284
f 354/67/283 351/68/284 348/71/287
f 353/69/285 352/66/282 350/65/281
f 353/69/285 350/65/281 347/72/288
f 355/64/289 359/65/290 361/66/291
f 355/64/289 361/66/291 363/67/292
f 360/68/293 361/66/291 362/69/294
f 360/68/293 362/69/294 358/70/295
f 363/67/292 361/66/291 360/68/293
f 363/67/292 360/68/293 357/71/296
f 362/69/294 361/66/291 359/65/290
f 362/69/294 359/65/290 356/72/297
f 364/64/298 368/65/299 370/66/300
f 364/64/298 370/66/300 373/67/301
f 369/68/302 370/66/300 372/69/303
f 369/68/302 372/69/303 367/70/304
f 373/67/301 370/66/300 369/68/302
f 373/67/301 369/68/302 366/71/305
f 371/69/306 370/66/300 368/65/299
f 371/69/306 368/65/299 365/72/306
f 374/64/307 378/65/308 380/66/309
f 374/64/307 380/66/309 382/67/310
f 379/68/311 380/66/309 381/69/312
f 379/68/311 381/69/312 377/70/313
f 382/67/310 380/66/309 379/68/311
f 382/67/310 379/68/311 376/71/314
f 381/69/312 380/66/309 378/65/308
f 381/69/312 378/65/308 375/72/315
f 383/64/316 387/65/317 389/66/318
f 383/64/316 389/66/318 391/67/319
f 388/68/320 389/66/318 390/69/321
f 388/68/320 390/69/321 386/70/322
f 391/67/319 389/66/318 388/68/320
f 391/67/319 388/68/320 385/71/323
f 390/69/321 389/66/318 387/65/317
f 390/69/321 387/65/317 384/72/324
f 392/64/325 396/65/326 398/66/327
f 392/64/325 398/66/327 400/67/328
f 397/68/329 398/66/327 399/69/330
f 397/68/329 399/69/330 395/70/331
f 400/67/328 398/66/327 397/68/329
f 400/67/328 397/68/329 394/71/332
f 399/69/330 398/66/327 396/65/326
f 399/69/330 396/65/326 393/72/333
usemtl branch-01-1
f 401/64/334 405/73/335 407/74/336
f 401/64/334 407/74/336 408/75/337
f 406/76/338 407/74/336 409/77/339
f 406/76/338 409/77/339 404/70/340
f 408/75/337 407/74/336 406/76/338
f 408/75/337 406/76/338 403/71/341
f 409/77/339 407/74/336 405/73/335
f 409/77/339 405/73/335 402/72/342
f 410/64/343 414/73/344 416/74/345
f 410/64/343 416/74/345 417/75/346
f 415/76/347 416/74/345 418/77/348
f 415/76/347 418/77/348 413/70/349
f 417/75/346 416/74/345 415/76/347
f 417/75/346 415/76/347 412/71/350
f 418/77/348 416/74/345 414/73/344
f 418/77/348 414/73/344 411/72/351
f 419/64/352 423/73/353 425/74/354
f 419/64/352 425/74/354 426/75/355
f 424/76/356 425/74/354 427/77/357
f 424/76/356 427/77/357 422/70/358
f 426/75/355 425/74/354 424/76/356
f 426/75/355 424/76/356 421/71/359
f 427/77/357 425/74/354 423/73/353
f 427/77/357 423/73/353 420/72/360
f 428/64/361 432/73/362 434/74/363
f 428/64/361 434/74/363 435/75/364
f 433/76/365 434/74/363 436/77/366
f 433/76/365 436/77/366 431/70/367
f 435/75/364 434/74/363 433/76/365
f 435/75/364 433/76/365 430/71/368
f 436/77/366 434/74/363 432/73/362
f 436/77/366 432/73/362 429/72/369
f 437/64/370 441/73/371 443/74/372
f 437/64/370 443/74/372 444/75/373
f 442/76/374 443/74/372 445/77/375
f 442/76/374 445/77/375 440/70/376
f 444/75/373 443/74/372 442/76/374
f 444/75/373 442/76/374 439/71/377
f 445/77/375 443/74/372 441/73/371
f 445/77/375 441/73/371 438/72/378
f 446/64/379 450/73/380 452/74/381
f 446/64/379 452/74/381 453/75/382
f 451/76/383 452/74/381 454/77/384
f 451/76/383 454/77/384 449/70/385
f 453/75/382 452/74/381 451/76/383
f 453/75/382 451/76/383 448/71/386
f 454/77/384 452/74/381 450/73/380
f 454/77/384 450/73/380 447/72/387
f 455/64/388 459/73/389 461/74/390
f 455/64/388 461/74/390 462/75/391
f 460/76/392 461/74/390 463/77/393
f 460/76/392 463/77/393 458/70/394
f 462/75/391 461/74/390 460/76/392
f 462/75/391 460/76/392 457/71/395
f 463/77/393 461/74/390 459/73/389
f 463/77/393 459/73/389 456/72/396
f 464/64/397 468/73/398 470/74/399
f 464/64/397 470/74/399 471/75/400
f 469/76/401 470/74/399 472/77/402
f 469/76/401 472/77/402 467/70/403
f 471/75/400 470/74/399 469/76/401
f 471/75/400 469/76/401 466/71/404
f 472/77/402 470/74/399 468/73/398
f 472/77/402 468/73/398 465/72/405
f 473/64/406 477/73/407 479/74/408
f 473/64/406 479/74/408 480/75/409
f 478/76/410 479/74/408 481/77/411
f 478/76/410 481/77/411 476/70/412
f 480/75/409 479/74/408 478/76/410
f 480/75/409 478/76/410 475/71/413
f 481/77/411 479/74/408 477/73/407
f 481/77/411 477/73/407 474/72/414
f 482/64/415 486/73/416 488/74/417
f 482/64/415 488/74/417 489/75/418
f 487/76/419 488/74/417 490/77/420
f 487/76/419 490/77/420 485/70/421
f 489/75/418 488/74/417 487/76/419
f 489/75/418 487/76/419 484/71/422
f 490/77/420 488/74/417 486/73/416
f 490/77/420 486/73/416 483/72/423
f 491/64/424 495/73/425 497/74/426
f 491/64/424 497/74/426 498/75/427
f 496/76/428 497/74/426 499/77/429
f 496/76/428 499/77/429 494/70/430
f 498/75/427 497/74/426 496/76/428
f 498/75/427 496/76/428 493/71/431
f 499/77/429 497/74/426 495/73/425
f 499/77/429 495/73/425 492/72/432
f 500/64/433 504/73/434 506/74/435
f 500/64/433 506/74/435 507/75/436
f 505/76/437 506/74/435 508/77/438
f 505/76/437 508/77/438 503/70/439
f 507/75/436 506/74/435 505/76/437
f 507/75/436 505/76/437 502/71/440
f 508/77/438 506/74/435 504/73/434
f 508/77/438 504/73/434 501/72/441
usemtl branch-04-1
f 509/78/442 512/79/443 516/80/444
f 509/78/442 516/80/444 517/81/445
f 514/82/446 513/83/447 510/84/448
f 514/82/446 510/84/448 512/79/443
f 515/85/449 516/80/444 512/79/443
f 515/85/449 512/79/443 511/84/450
f 518/86/451 514/82/446 512/79/443
f 518/86/451 512/79/443 509/78/442
f 519/78/452 523/79/453 528/80/454
f 519/78/452 528/80/454 529/81/455
f 526/82/456 525/83/457 522/84/458
f 526/82/456 522/84/458 524/79/459
f 527/85/460 528/80/454 523/79/453
f 527/85/460 523/79/453 521/84/460
f 530/86/461 526/82/456 524/79/459
f 530/86/461 524/79/459 520/78/461
f 531/78/462 534/79/463 538/80/464
f 531/78/462 538/80/464 539/81/465
f 536/82/466 535/83/467 533/84/467
f 536/82/466 533/84/467 534/79/463
f 537/85/468 538/80/464 534/79/463
f 537/85/468 534/79/463 532/84/468
f 540/86/469 536/82/466 534/79/463
f 540/86/469 534/79/463 531/78/462
f 541/78/470 546/79/471 554/80/472
f 541/78/470 554/80/472 555/81/473
f 551/82/474 549/83/475 544/84/474
f 551/82/474 544/84/474 548/79/474
f 552/85/476 553/80/476 545/79/476
f 552/85/476 545/79/476 543/84/477
f 556/86/478 550/82/478 547/79/479
f 556/86/478 547/79/479 542/78/480
f 558/78/481 564/79/482 570/80/481
f 558/78/481 570/80/481 571/81/483
f 566/82/484 565/83/484 559/84/484
f 566/82/484 559/84/484 561/79/484
f 568/85/485 569/80/485 563/79/485
f 568/85/485 563/79/485 560/84/486
f 572/86/487 567/82/487 562/79/487
f 572/86/487 562/79/487 557/78/488
f 573/78/489 576/79/490 580/80/491
f 573/78/489 580/80/491 581/81/492
f 578/82/493 577/83/494 575/84/495
f 578/82/493 575/84/495 576/79/490
f 579/85/496 580/80/491 576/79/490
f 579/85/496 576/79/490 574/84/497
f 582/86/498 578/82/493 576/79/490
f 582/86/498 576/79/490 573/78/489
f 583/78/499 587/79/500 592/80/501
f 583/78/499 592/80/501 593/81/501
f 589/82/502 588/83/503 585/84/503
f 589/82/502 585/84/503 587/79/500
f 590/85/504 591/80/505 586/79/504
f 590/85/504 586/79/504 584/84/506
f 594/86/507 589/82/502 587/79/500
f 594/86/507 587/79/500 583/78/499
f 595/78/508 598/79/509 602/80/510
f 595/78/508 602/80/510 603/81/511
f 600/82/512 599/83/513 597/84/513
f 600/82/512 597/84/513 598/79/509
f 601/85/514 602/80/510 598/79/509
f 601/85/514 598/79/509 596/84/514
f 604/86/515 600/82/512 598/79/509
f 604/86/515 598/79/509 595/78/508
f 605/78/516 608/79/517 612/80/518
f 605/78/516 612/80/518 613/81/519
f 610/82/520 609/83/521 607/84/521
f 610/82/520 607/84/521 608/79/517
f 611/85/522 612/80/518 608/79/517
f 611/85/522 608/79/517 606/84/522
f 614/86/523 610/82/520 608/79/517
f 614/86/523 608/79/517 605/78/516
f 615/78/524 617/79/525 621/80/526
f 615/78/524 621/80/526 622/81/527
f 619/82/528 618/83/529 616/84/530
f 619/82/528 616/84/530 617/79/525
f 620/85/531 621/80/526 617/79/525
f 620/85/531 617/79/525 616/84/530
f 623/86/532 619/82/528 617/79/525
f 623/86/532 617/79/525 615/78/524
usemtl branch-05-1
f 624/64/533 629/87/533 633/88/534
f 624/64/533 633/88/534 632/89/535
f 630/90/536 633/88/534 631/91/537
f 630/90/536 631/91/537 627/70/538
f 632/89/535 633/88/534 630/90/536
f 632/89/535 630/90/536 626/71/539
f 631/91/537 633/88/534 628/87/540
f 631/91/537 628/87/540 625/72/540
f 634/64/541 638/87/542 642/88/543
f 634/64/541 642/88/543 641/89/544
f 639/90/545 642/88/543 640/91/546
f 639/90/545 640/91/546 637/70/547
f 641/89/544 642/88/543 639/90/545
f 641/89/544 639/90/545 636/71/548
f 640/91/546 642/88/543 638/87/542
f 640/91/546 638/87/542 635/72/549
f 643/64/550 647/87/551 651/88/552
f 643/64/550 651/88/552 650/89/553
f 648/90/554 651/88/552 649/91/555
f 648/90/554 649/91/555 646/70/556
f 650/89/553 651/88/552 648/90/554
f 650/89/553 648/90/554 645/71/557
f 649/91/555 651/88/552 647/87/551
f 649/91/555 647/87/551 644/72/558
f 652/64/559 656/87/560 660/88/561
f 652/64/559 660/88/561 659/89/562
f 657/90/563 660/88/561 658/91/564
f 657/90/563 658/91/564 655/70/565
f 659/89/562 660/88/561 657/90/563
f 659/89/562 657/90/563 654/71/566
f 658/91/564 660/88/561 656/87/560
f 658/91/564 656/87/560 653/72/567
f 661/64/568 666/87/569 670/88/570
f 661/64/568 670/88/570 669/89/571
f 667/90/572 670/88/570 668/91/573
f 667/90/572 668/91/573 664/70/574
f 669/89/571 670/88/570 667/90/572
f 669/89/571 667/90/572 663/71/575
f 668/91/573 670/88/570 665/87/576
f 668/91/573 665/87/576 662/72/577
f 671/64/578 675/87/578 680/88/579
f 671/64/578 680/88/579 679/89/580
f 677/90/581 680/88/579 678/91/582
f 677/90/581 678/91/582 674/70/583
f 679/89/580 680/88/579 677/90/581
f 679/89/580 677/90/581 673/71/584
f 678/91/582 680/88/579 676/87/585
f 678/91/582 676/87/585 672/72/586
usemtl branch-03-1
f 684/70/587 685/92/588 687/93/589
f 684/70/587 687/93/589 689/94/590
f 686/95/591 687/93/589 688/96/592
f 686/95/591 688/96/592 681/64/593
f 688/96/592 687/93/589 685/92/588
f 688/96/592 685/92/588 683/71/594
f 689/94/590 687/93/589 686/95/591
f 689/94/590 686/95/591 682/72/595
f 693/70/596 694/92/597 696/93/598
f 693/70/596 696/93/598 698/94/599
f 695/95/600 696/93/598 697/96/601
f 695/95/600 697/96/601 690/64/602
f 697/96/601 696/93/598 694/92/597
f 697/96/601 694/92/597 692/71/603
f 698/94/599 696/93/598 695/95/600
f 698/94/599 695/95/600 691/72/604
f 702/70/605 703/92/606 705/93/607
f 702/70/605 705/93/607 707/94/608
f 704/95/609 705/93/607 706/96/610
f 704/95/609 706/96/610 699/64/611
f 706/96/610 705/93/607 703/92/606
f 706/96/610 703/92/606 701/71/612
f 707/94/608 705/93/607 704/95/609
f 707/94/608 704/95/609 700/72/613
f 711/70/614 712/92/615 714/93/616
f 711/70/614 714/93/616 716/94/617
f 713/95/618 714/93/616 715/96/619
f 713/95/618 715/96/619 708/64/620
f 715/96/619 714/93/616 712/92/615
f 715/96/619 712/92/615 710/71/621
f 716/94/617 714/93/616 713/95/618
f 716/94/617 713/95/618 709/72/622
f 720/70/623 721/92/624 723/93/625
f 720/70/623 723/93/625 725/94/626
f 722/95/627 723/93/625 724/96/628
f 722/95/627 724/96/628 717/64/629
f 724/96/628 723/93/625 721/92/624
f 724/96/628 721/92/624 719/71/630
f 725/94/626 723/93/625 722/95/627
f 725/94/626 722/95/627 718/72/631
f 729/70/632 730/92/633 732/93/634
f 729/70/632 732/93/634 734/94/635
f 731/95/636 732/93/634 733/96/637
f 731/95/636 733/96/637 726/64/638
f 733/96/637 732/93/634 730/92/633
f 733/96/637 730/92/633 728/71/639
f 734/94/635 732/93/634 731/95/636
f 734/94/635 731/95/636 727/72/640
