# Blender 5.1.0
# www.blender.org
mtllib Flowers-01.mtl
o Flowers-01
v 2.423650 0.016379 13.003014
v 2.423650 0.016379 13.003014
v 2.492006 0.016379 14.611595
v 2.492006 0.016379 14.611595
v 1.970707 0.016379 14.073125
v 1.970707 0.016379 14.073125
v 2.390471 0.047596 14.084043
v 2.390471 0.047596 14.084043
v 2.390471 0.047596 14.084043
v 2.390471 0.047596 14.084043
v 3.579288 0.016379 14.173227
v 3.579288 0.016379 14.173227
v 1.970707 0.016379 13.524207
v 1.970707 0.016379 13.524207
v 3.579288 0.016379 13.735244
v 3.579288 0.016379 13.735244
v 2.448170 0.087347 13.553485
v 2.448170 0.087347 13.553485
v 2.448170 0.087347 13.553485
v 2.448170 0.087347 13.553485
v 3.062629 0.016379 13.003014
v 3.062629 0.016379 13.003014
v 3.147445 0.112587 14.200283
v 3.147445 0.112587 14.200283
v 3.147445 0.112587 14.200283
v 3.147445 0.112587 14.200283
v 3.047483 0.049360 13.473598
v 3.047483 0.049360 13.473598
v 3.047483 0.049360 13.473598
v 3.047483 0.049360 13.473598
v 3.084926 0.016379 14.611595
v 3.084926 0.016379 14.611595
vn 0.0240 0.9945 -0.1015
vn 0.2255 0.9405 0.2543
vn -0.1145 0.9930 0.0304
vn -0.1144 0.9930 0.0305
vn 0.1484 0.9867 -0.0663
vn -0.1387 0.9830 -0.1205
vn -0.0194 0.9996 -0.0180
vn 0.0944 0.9933 -0.0666
vn -0.0594 0.9888 0.1367
vn -0.0759 0.9944 0.0734
vt 0.281579 1.000000
vt 0.296823 0.657791
vt 0.669396 0.707454
vt 0.678811 1.000000
vt 1.000000 0.272518
vt 0.731539 0.255699
vt 0.692672 0.000000
vt 0.000000 0.334749
vt 0.260954 0.327961
vt 0.000000 0.675992
vt 1.000000 0.589091
vt 0.324074 0.000000
s 1
usemtl flowers-01.001
f 2/1/1 20/2/1 28/3/1
f 2/1/1 28/3/1 21/4/1
s 0
f 12/5/2 26/6/2 32/7/2
s 1
f 5/8/3 7/9/3 18/2/4
f 5/8/3 18/2/4 14/10/3
f 16/11/5 30/3/5 25/6/5
f 16/11/5 25/6/5 11/5/5
s 0
f 13/10/6 17/2/6 1/1/6
s 1
f 24/6/7 27/3/7 19/2/7
f 24/6/7 19/2/7 10/9/7
s 0
f 22/4/8 29/3/8 15/11/8
s 1
f 31/7/9 23/6/9 9/9/9
f 31/7/9 9/9/9 4/12/9
s 0
f 6/8/10 3/12/10 8/9/10
