# Blender 5.1.0
# www.blender.org
mtllib Tree-02-4.mtl
o Tree-02-4
v 15.862759 4.466189 21.999620
v 15.862759 4.466189 21.999620
v 15.862759 4.466189 21.999620
v 15.862342 4.467640 22.010082
v 15.862342 4.467640 22.010082
v 15.862342 4.467640 22.010082
v 15.862342 4.467640 22.010082
v 15.853987 4.467956 22.009043
v 15.853987 4.467956 22.009043
v 15.853987 4.467956 22.009043
v 15.854945 4.466243 21.999645
v 15.854945 4.466243 21.999645
v 15.854945 4.466243 21.999645
v 15.854945 4.466243 21.999645
v 15.861376 3.805737 21.997957
v 15.861376 3.805737 21.997957
v 15.862239 3.805535 22.013096
v 15.862239 3.805535 22.013096
v 15.848441 3.799249 22.020653
v 15.848441 3.799249 22.020653
v 15.848441 3.799249 22.020653
v 15.842930 3.801219 22.006882
v 15.842930 3.801219 22.006882
v 15.846784 3.803152 22.000118
v 15.846784 3.803152 22.000118
v 15.974858 3.405885 21.843157
v 15.974858 3.405885 21.843157
v 15.974858 3.405885 21.843157
v 15.984050 3.402695 21.858170
v 15.984050 3.402695 21.858170
v 15.984050 3.402695 21.858170
v 15.957559 3.398228 21.873564
v 15.957559 3.398228 21.873564
v 15.957559 3.398228 21.873564
v 15.957559 3.398228 21.873564
v 15.948367 3.401419 21.858551
v 15.948367 3.401419 21.858551
v 15.948367 3.401419 21.858551
v 15.966609 3.404088 21.845266
v 15.966609 3.404088 21.845266
v 15.914741 3.105745 21.826866
v 15.914741 3.105745 21.826866
v 15.922740 3.108475 21.857800
v 15.922740 3.108475 21.857800
v 15.922740 3.108475 21.857800
v 15.922740 3.108475 21.857800
v 15.897553 3.111845 21.864670
v 15.897553 3.111845 21.864670
v 15.886200 3.110880 21.846123
v 15.886200 3.110880 21.846123
v 15.899927 3.107294 21.827129
v 15.935704 2.481784 21.969988
v 15.935704 2.481784 21.969988
v 15.935704 2.481784 21.969988
v 15.949724 2.493459 22.006508
v 15.949724 2.493459 22.006508
v 15.943781 2.497937 22.017199
v 15.943781 2.497937 22.017199
v 15.906724 2.503620 22.022125
v 15.906724 2.503620 22.022125
v 15.890758 2.493374 21.981470
v 15.890758 2.493374 21.981470
v 15.867399 1.677168 22.350317
v 15.867399 1.677168 22.350317
v 15.867399 1.677168 22.350317
v 15.867399 1.677168 22.350317
v 15.867399 1.677168 22.350317
v 15.867399 1.677168 22.350317
v 15.846248 1.692899 22.388399
v 15.846248 1.692899 22.388399
v 15.846248 1.692899 22.388399
v 15.846248 1.692899 22.388399
v 15.846248 1.692899 22.388399
v 15.846248 1.692899 22.388399
v 15.797571 1.675562 22.312109
v 15.797571 1.675562 22.312109
v 15.758698 1.186570 22.378550
v 15.758698 1.186570 22.378550
v 15.803599 1.184590 22.420094
v 15.803599 1.184590 22.420094
v 15.777108 1.190443 22.467497
v 15.777108 1.190443 22.467497
v 15.747905 1.191739 22.464018
v 15.694860 1.194723 22.421074
v 15.694860 1.194723 22.421074
v 15.721351 1.188870 22.373671
v 15.721351 1.188870 22.373671
v 15.804395 0.407409 22.407549
v 15.804395 0.407409 22.407549
v 15.804395 0.407409 22.407549
v 15.771467 0.407664 22.466249
v 15.771467 0.407664 22.466249
v 15.771467 0.407664 22.466249
v 15.702725 0.406269 22.350523
v 15.702725 0.406269 22.350523
v 15.702725 0.406269 22.350523
v 15.702725 0.406269 22.350523
v 15.702725 0.406269 22.350523
v 15.702725 0.406269 22.350523
v 15.862343 -0.001608 22.426006
v 15.813219 0.000000 22.513557
v 15.813219 0.000000 22.513557
v 15.746058 0.000000 22.504513
v 16.494734 4.644650 22.850082
v 16.494734 4.644650 22.850082
v 16.494734 4.644650 22.850082
v 16.494734 4.644650 22.850082
v 16.505484 4.641393 22.846092
v 16.505484 4.641393 22.846092
v 16.505484 4.641393 22.846092
v 16.505484 4.641393 22.846092
v 16.503204 4.641185 22.857731
v 16.503204 4.641185 22.857731
v 16.503204 4.641185 22.857731
v 16.503204 4.641185 22.857731
v 16.496798 4.643425 22.856512
v 16.496798 4.643425 22.856512
v 16.496798 4.643425 22.856512
v 16.496798 4.643425 22.856512
v 16.200861 3.641032 22.768549
v 16.200861 3.641032 22.768549
v 16.205378 3.642198 22.764378
v 16.205378 3.642198 22.764378
v 16.221968 3.634930 22.768446
v 16.221968 3.634930 22.768446
v 16.224169 3.632012 22.776321
v 16.224169 3.632012 22.776321
v 16.213291 3.631699 22.792704
v 16.213291 3.631699 22.792704
v 16.198910 3.637182 22.790009
v 16.198910 3.637182 22.790009
v 15.975183 2.899392 22.455542
v 15.975183 2.899392 22.455542
v 15.992940 2.900479 22.436771
v 15.992940 2.900479 22.436771
v 16.017384 2.893143 22.441715
v 16.017384 2.893143 22.441715
v 16.024067 2.884721 22.465429
v 16.024067 2.884721 22.465429
v 16.006310 2.883633 22.484198
v 16.006310 2.883633 22.484198
v 15.981867 2.890969 22.479256
v 15.981867 2.890969 22.479256
v 15.776423 1.691293 22.350193
v 15.776423 1.691293 22.350193
v 15.776423 1.691293 22.350193
v 15.776423 1.691293 22.350193
v 15.776423 1.691293 22.350193
v 15.808577 1.691055 22.306730
v 15.808577 1.691055 22.306730
v 15.843060 1.668500 22.312174
v 15.843060 1.668500 22.312174
v 15.843060 1.668500 22.312174
v 15.843060 1.668500 22.312174
v 15.843060 1.668500 22.312174
v 15.800760 1.699962 22.388334
v 15.800760 1.699962 22.388334
v 15.800760 1.699962 22.388334
v 15.800760 1.699962 22.388334
v 15.800760 1.699962 22.388334
v 15.800760 1.699962 22.388334
v 15.669796 0.406524 22.409222
v 15.669796 0.406524 22.409222
v 15.669796 0.406524 22.409222
v 15.661559 0.000000 22.428488
v 15.661559 0.000000 22.428488
v 15.703638 0.000000 22.333300
v 15.703638 0.000000 22.333300
v 15.783436 0.000000 22.323698
v 15.783436 0.000000 22.323698
v 15.862346 0.000000 22.426008
v 14.315702 1.826285 20.943148
v 14.540863 0.625882 22.214600
v 15.821252 2.763352 21.445795
v 16.046412 1.562949 22.717247
v 14.323437 1.363847 21.653124
v 15.887675 2.218676 22.122313
v 15.161653 1.880648 22.173391
v 15.224080 1.104154 22.486235
v 15.024679 2.321374 21.224028
v 15.996612 4.913308 20.647154
v 15.421195 5.313090 21.972626
v 16.181623 3.189542 21.179546
v 15.606208 3.589325 22.505016
v 15.847363 5.137706 21.321573
v 15.953295 3.402784 21.855074
v 15.996927 4.183701 21.815519
v 15.547785 4.506101 22.239222
v 16.126997 4.076459 20.923229
v 16.113317 1.047664 24.345154
v 16.642632 0.162098 22.696384
v 15.615601 3.079672 23.236374
v 16.144915 2.194106 21.587605
v 16.584209 0.702702 23.597094
v 16.584209 0.702702 23.597094
v 15.976556 2.676127 22.437180
v 16.523071 1.877769 22.791096
v 16.475166 1.149794 22.181345
v 15.938200 2.071096 23.810968
v 15.448864 2.290397 20.133764
v 16.418842 3.833656 21.936932
v 15.182490 0.559548 21.565125
v 16.152470 2.102807 23.368292
v 16.138172 2.937708 20.931131
v 15.765407 1.283676 22.429773
v 16.268837 2.003471 21.925768
v 16.363977 2.985687 22.597488
v 15.390416 1.411891 20.818974
v 16.439987 4.092909 21.034506
v 17.363186 3.703134 23.478970
v 15.310383 2.170515 21.194590
v 16.233582 1.780740 23.639055
v 17.116663 3.750529 22.083891
v 17.116663 3.750529 22.083891
v 15.874511 1.906695 22.352470
v 16.737043 2.438601 22.348398
v 16.901789 2.741927 23.519958
v 15.960020 3.097498 21.077765
v 14.709888 3.044056 21.663378
v 17.324640 1.839600 20.596720
v 14.506074 1.153252 23.020237
v 17.120827 -0.051203 21.953579
v 15.822796 2.342479 20.967327
v 15.740283 0.499258 22.407251
v 15.875015 0.985196 21.506392
v 17.187557 0.902071 21.181187
v 14.568657 2.073002 22.270599
v 16.737673 0.850117 21.825226
v 15.990288 0.158085 21.574797
v 16.134016 1.293084 22.562431
v 15.386629 0.601053 22.312002
v 16.351362 0.586351 21.643620
v 15.750381 0.980359 22.410286
v 15.887568 0.828780 22.004236
v 15.694110 0.388556 21.904940
v 16.430840 1.088602 22.167915
v 16.553381 0.917904 20.741550
v 15.978810 2.260131 21.097939
v 15.950783 0.175126 22.202465
v 15.376212 1.517353 22.558853
v 16.413622 1.599639 20.980869
v 15.726984 0.858647 22.410330
v 16.102516 1.336893 21.944075
v 15.734588 1.921564 21.812931
v 16.299280 0.566606 21.482307
v 13.884776 2.502967 22.815907
v 14.274036 1.004836 22.794329
v 15.649452 3.043387 22.025373
v 16.038713 1.545256 22.003798
v 14.169929 1.723582 23.004784
v 14.169929 1.723582 23.004784
v 15.885132 2.280230 22.104908
v 15.885132 2.280230 22.104908
v 15.193534 2.172482 22.722294
v 15.193534 2.172482 22.722294
v 14.700381 2.751548 22.522484
v 15.135975 1.267580 22.481771
v 15.135990 3.603633 23.323227
v 14.136708 2.475031 23.108931
v 16.360134 2.553733 22.422802
v 15.360852 1.425131 22.208506
v 14.649738 2.919740 23.365088
v 14.649738 2.919740 23.365088
v 15.866301 1.935046 22.383011
v 15.462992 2.358866 23.001602
v 15.699656 3.107459 22.966963
v 14.732467 1.951045 22.730373
v 14.492682 1.177006 22.531658
v 15.091482 0.422886 23.069780
v 15.466583 1.684242 22.066027
v 16.065384 0.930122 22.604149
v 14.816360 0.853807 22.910423
v 15.777117 1.331360 22.384851
v 15.317376 1.267949 22.675650
v 14.931011 1.428836 22.350767
v 15.555116 0.688425 22.877438
v 16.207634 2.717588 23.925753
v 15.313249 3.345152 21.968384
v 16.320375 0.948094 23.380936
v 15.425991 1.575658 21.423567
v 15.510498 3.014380 22.971468
v 15.759886 1.254347 22.412800
v 15.473666 1.932717 22.904442
v 16.190899 1.911906 23.708790
v 15.297924 2.493284 21.737900
v 14.392879 0.364131 22.865866
v 14.994586 1.695037 24.118101
v 15.541981 0.963384 21.759920
v 16.143688 2.294290 23.012156
v 14.620851 1.172163 23.488022
v 15.810013 1.693673 22.384560
v 15.142116 1.474756 22.720488
v 14.880064 0.663041 22.355536
v 15.510954 2.010175 23.578751
v 14.369753 3.892633 22.758644
v 15.324891 4.980034 21.896362
v 15.468379 2.450337 22.394066
v 16.423517 3.537737 21.531782
v 14.771125 4.433637 22.135933
v 14.771125 4.433637 22.135933
v 15.911716 2.993089 21.876043
v 15.221474 3.496108 21.873423
v 14.829652 3.233443 22.545250
v 15.812557 4.283141 21.672384
v 17.725353 4.303396 23.044874
v 16.311596 5.004977 23.581684
v 16.826618 2.913800 22.257095
v 15.412863 3.615381 22.793907
v 16.984032 4.580170 23.476002
v 16.103806 3.231281 22.599251
v 16.608976 3.658411 23.102461
v 17.325994 3.649981 22.735659
v 15.889002 4.314825 23.253023
v 16.705870 5.198597 23.235676
v 15.731805 4.926760 23.497702
v 16.798197 4.141191 22.625036
v 15.824132 3.869354 22.887062
v 16.223103 5.001091 23.465199
v 16.312851 3.977343 22.800682
v 16.388258 4.386175 23.170780
v 16.758587 4.708028 22.989117
v 15.787171 4.408387 23.235912
v 15.923693 2.762454 23.364544
v 16.089540 1.207166 24.501295
v 15.605184 1.457293 21.858315
v 15.771030 -0.097995 22.995066
v 16.211586 1.929716 23.938286
v 15.780876 0.654336 22.429403
v 16.178299 1.324912 22.965654
v 15.841791 2.175843 22.678625
v 16.000746 0.586661 23.776060
v 14.666038 2.102148 20.971840
v 14.569895 1.874916 22.556215
v 15.999072 2.738628 21.132105
v 15.902929 2.511396 22.716480
v 14.560050 2.101688 21.828812
v 15.924775 2.676147 21.953997
v 15.275607 2.577049 21.792850
v 15.247492 2.424724 21.047352
v 15.185569 2.214842 22.635967
v 16.289368 2.044456 20.103588
v 15.061145 1.175219 20.898983
v 16.609438 3.067265 21.569742
v 15.381214 2.198028 22.365137
v 15.519988 1.706473 20.471130
v 15.924775 2.676147 21.953997
v 15.713774 2.458580 21.183659
v 16.398066 2.541917 20.744141
v 15.177361 1.700091 21.577196
v 15.846465 3.801489 22.015644
v 15.846465 3.801489 22.015644
v 15.916257 5.031850 22.616356
v 15.916257 5.031850 22.616356
v 15.765259 4.435316 22.355139
v 15.765259 4.435316 22.355139
v 16.157372 4.788264 22.909861
v 16.064953 4.183607 22.761959
v 16.008486 5.205157 22.319260
v 15.842004 4.646786 21.897079
v 15.876795 3.911798 21.836039
v 15.996401 3.576889 22.310495
v 15.863722 4.448133 22.006145
v 15.863722 4.448133 22.006145
v 15.551102 5.212859 21.870855
v 15.551102 5.212859 21.870855
v 15.719156 4.869464 22.004669
v 15.719156 4.869464 22.004669
v 15.748705 5.236804 21.706026
v 15.958071 4.939670 21.794390
v 15.365984 5.124029 21.836405
v 15.460707 4.717950 21.992935
v 15.750686 4.399317 22.000538
v 16.058142 4.489913 21.895798
v 16.487591 4.603839 22.854391
v 16.487591 4.603839 22.854391
v 16.728533 5.346282 22.814650
v 16.728533 5.346282 22.814650
v 16.554888 5.014591 22.864492
v 16.554888 5.014591 22.864492
v 16.891148 5.263940 22.971706
v 16.768568 4.948069 23.066187
v 16.737028 5.335742 22.624750
v 16.528898 4.982715 22.594837
v 16.479639 4.604566 22.741928
v 16.603451 4.546884 23.020653
v 16.129524 3.344165 22.672825
v 16.129524 3.344165 22.672825
v 17.416893 4.277516 22.550468
v 17.416893 4.277516 22.550468
v 16.890854 3.706158 22.682888
v 16.890854 3.706158 22.682888
v 17.344278 4.171841 22.002464
v 16.869982 3.604464 21.984346
v 17.230505 4.627995 22.793652
v 16.606657 4.136841 23.092508
v 16.036497 3.537630 22.843390
v 16.127895 3.171180 22.207794
v 15.922578 2.372709 22.077190
v 15.922578 2.372709 22.077190
v 16.363880 3.406229 21.475315
v 16.363880 3.406229 21.475315
v 16.273426 2.929183 21.858698
v 16.273426 2.929183 21.858698
v 16.439808 3.016836 21.110758
v 16.403938 2.484138 21.373127
v 16.013115 3.634853 21.540834
v 15.788462 3.244526 22.028967
v 15.731238 2.523435 22.139746
v 16.074018 2.026954 21.794245
v 15.857819 1.849396 22.292721
v 17.217484 0.782592 21.730480
v 16.542028 1.341970 21.883436
v 17.588940 1.304172 22.016674
v 17.080452 1.960792 22.209949
v 16.963573 0.299231 21.799925
v 16.094578 0.676924 21.950350
v 15.695091 1.553817 22.307549
v 16.197477 2.361130 22.481674
v 16.129524 3.344165 22.672825
v 16.129524 3.344165 22.672825
v 15.822125 4.469177 23.819008
v 15.822125 4.469177 23.819008
v 15.850130 3.832342 23.325430
v 15.850130 3.832342 23.325430
v 16.324450 4.286446 24.012247
v 16.464838 3.644209 23.633711
v 15.729537 4.811787 23.517603
v 15.661142 4.257290 22.854918
v 16.042110 3.539365 22.498615
v 16.520029 3.117335 22.895987
v 16.782438 4.961354 21.995941
v 15.847923 5.388021 22.055485
v 16.333609 3.846181 21.899975
v 15.399095 4.272848 21.959518
v 16.339466 5.154757 22.186363
v 16.339466 5.154757 22.186363
v 15.851707 4.062201 22.004057
v 15.632386 4.844360 22.060062
v 16.558014 4.395477 21.999466
v 16.102409 4.606818 22.208799
v 16.730394 2.589560 21.726828
v 16.226862 3.251949 22.074434
v 16.171698 2.043891 21.821651
v 15.668167 2.706280 22.169258
v 16.551208 2.876393 22.036158
v 16.551208 2.876393 22.036158
v 15.938956 2.373185 22.066301
v 15.976051 2.977847 22.165281
v 16.468813 2.304453 21.820312
v 16.292149 2.605981 22.150091
v 16.994123 3.105519 22.667833
v 16.921448 1.587208 24.218155
v 15.721893 1.992946 21.660769
v 15.649218 0.474635 23.211090
v 17.189238 2.222943 23.292303
v 17.189238 2.222943 23.292303
v 15.788271 1.136310 22.410280
v 16.377907 0.999993 23.692625
v 16.426521 2.495390 22.121664
v 16.656797 1.579149 22.772976
v 14.919210 3.475868 20.470274
v 15.416692 4.672969 21.477589
v 15.563241 2.271333 21.396904
v 16.060722 3.468435 22.404217
v 15.903214 2.917778 21.886271
v 15.342410 4.114814 20.887253
v 15.342410 4.114814 20.887253
v 15.716667 3.512324 21.227409
v 15.318598 2.837940 20.932226
v 15.814730 4.037393 21.937777
v 14.748586 2.887779 22.716120
v 15.552783 3.674754 22.673296
v 15.489264 1.980726 22.131552
v 16.293461 2.767701 22.088728
v 15.893650 2.423720 22.050699
v 15.111759 3.347656 22.565659
v 15.111759 3.347656 22.565659
v 15.400268 2.919111 22.222237
v 15.127829 2.419857 22.361021
v 15.930601 3.208583 22.319410
v 16.119316 1.837725 21.051313
v 16.924433 2.083890 21.687963
v 15.493863 2.822044 21.511335
v 16.298979 3.068209 22.147987
v 15.903214 2.917778 21.886271
v 16.492859 1.886892 21.459949
v 16.143888 2.297865 21.694992
v 15.770627 2.338898 21.323772
v 16.576992 2.583174 21.959480
vn -0.0973 0.0016 -0.9953
vn -0.1651 0.1478 -0.9751
vn -0.1664 0.1506 -0.9745
vn -0.0972 0.0016 -0.9953
vn 0.9998 -0.0011 -0.0174
vn 0.9780 0.1648 -0.1278
vn 0.9674 0.2021 -0.1525
vn 0.9998 -0.0011 -0.0173
vn 0.4790 0.0039 0.8778
vn 0.5051 -0.0930 0.8580
vn 0.5001 -0.0727 0.8629
vn -0.1228 0.0182 0.9923
vn -0.9811 0.0156 0.1928
vn -0.9411 -0.1774 0.2880
vn -0.9393 -0.1826 0.2904
vn -0.9811 0.0157 0.1929
vn -0.8701 0.0104 -0.4928
vn -0.7854 0.0479 -0.6171
vn -0.7815 0.0495 -0.6220
vn -0.1736 0.1974 -0.9648
vn -0.1634 0.1801 -0.9700
vn 0.8957 0.3621 -0.2580
vn 0.5114 -0.1356 0.8486
vn 0.5173 -0.1370 0.8448
vn -0.8538 -0.3655 0.3706
vn -0.6883 0.1383 -0.7121
vn -0.6881 0.1367 -0.7126
vn -0.0723 -0.0754 -0.9945
vn -0.3630 -0.0435 -0.9308
vn 0.9210 -0.1784 -0.3464
vn 0.9395 -0.1064 -0.3256
vn 0.9396 -0.1057 -0.3255
vn 0.2454 0.0854 0.9656
vn 0.5113 -0.1356 0.8487
vn 0.2371 0.0847 0.9678
vn 0.2453 0.0854 0.9657
vn -0.8375 0.1580 0.5232
vn -0.8774 0.1220 0.4640
vn -0.8768 0.1225 0.4650
vn -0.8374 0.1580 0.5232
vn -0.6121 -0.0060 -0.7907
vn -0.5719 -0.2163 -0.7913
vn 0.9263 -0.1470 -0.3469
vn 0.9261 -0.1478 -0.3472
vn 0.8893 0.1440 0.4341
vn 0.8883 0.1227 0.4425
vn 0.8883 0.1214 0.4430
vn 0.1675 0.3255 0.9306
vn 0.1641 0.3307 0.9294
vn -0.8998 0.1876 0.3938
vn -0.8986 0.1954 0.3929
vn -0.5655 -0.2147 -0.7963
vn -0.0579 -0.3816 -0.9225
vn -0.0070 -0.2614 -0.9652
vn -0.0071 -0.2616 -0.9652
vn 0.8862 -0.2573 -0.3852
vn 0.8868 0.1005 0.4510
vn 0.1155 0.4018 0.9084
vn -0.8778 0.2937 0.3785
vn -0.7743 -0.0742 -0.6285
vn -0.7695 -0.0805 -0.6336
vn 0.3903 -0.0835 -0.9169
vn 0.0883 -0.0549 -0.9946
vn 0.7476 -0.2021 -0.6326
vn 0.6609 -0.0998 -0.7438
vn 0.3904 -0.0835 -0.9168
vn 0.7477 -0.2021 -0.6326
vn 0.8682 -0.0420 0.4945
vn 0.8704 -0.0246 0.4918
vn 0.8704 -0.0243 0.4917
vn -0.0295 0.1548 0.9875
vn -0.3761 0.0892 0.9223
vn -0.0738 0.0782 0.9942
vn -0.7165 0.1936 0.6702
vn -0.6379 0.0962 0.7641
vn -0.7166 0.1936 0.6701
vn -0.8676 0.0530 -0.4945
vn -0.8675 0.0533 -0.4946
vn 0.6025 0.0595 -0.7959
vn 0.6114 0.0630 -0.7888
vn 0.6025 0.0597 -0.7959
vn 0.8704 0.0699 0.4874
vn 0.8702 0.0700 0.4878
vn -0.5389 0.0413 0.8414
vn -0.5623 0.0390 0.8260
vn -0.5388 0.0413 0.8414
vn -0.8857 0.0208 -0.4638
vn -0.8856 0.0209 -0.4639
vn 0.8638 0.1443 0.4827
vn 0.8640 0.1444 0.4823
vn -0.3695 0.0937 0.9245
vn -0.1328 0.1008 0.9860
vn -0.5799 0.0812 0.8106
vn -0.9589 0.2783 0.0547
vn -0.9625 0.2486 0.1087
vn -0.9624 0.2498 0.1066
vn -0.6906 0.2571 -0.6759
vn -0.6816 0.3451 -0.6452
vn -0.6775 0.3723 -0.6343
vn 0.0305 0.0723 -0.9969
vn 0.1799 0.2011 -0.9629
vn 0.1661 0.1893 -0.9678
vn 0.0306 0.0723 -0.9969
vn 0.9633 -0.2658 -0.0386
vn 0.9641 -0.1948 -0.1805
vn 0.9646 -0.1985 -0.1735
vn 0.8055 -0.2655 0.5298
vn 0.7617 -0.3460 0.5478
vn 0.7601 -0.3487 0.5483
vn -0.1883 -0.0092 0.9821
vn -0.2351 -0.1527 0.9599
vn -0.2376 -0.1606 0.9580
vn -0.9386 0.1654 0.3029
vn -0.9365 0.1622 0.3108
vn -0.7227 0.3207 -0.6123
vn -0.7233 0.3192 -0.6123
vn 0.2597 0.1908 -0.9467
vn 0.2617 0.1956 -0.9451
vn 0.9192 -0.0997 -0.3811
vn 0.9203 -0.1008 -0.3779
vn 0.7606 -0.2935 0.5790
vn 0.7606 -0.2938 0.5790
vn -0.1858 -0.1872 0.9646
vn -0.1812 -0.1817 0.9665
vn -0.8892 0.1043 0.4455
vn -0.7684 0.1815 -0.6137
vn 0.2090 0.0732 -0.9752
vn 0.8914 -0.0764 -0.4468
vn 0.7958 -0.1565 0.5850
vn -0.0847 -0.0658 0.9942
vn 0.3158 0.9456 0.0788
vn 0.3156 0.9456 0.0787
vn 0.0323 0.9874 -0.1551
vn 0.0322 0.9874 -0.1551
vn -0.8989 0.0070 -0.4381
vn -0.1194 0.0418 -0.9920
vn 0.6114 0.0631 -0.7888
vn 0.6565 0.1195 -0.7448
vn 0.6024 0.0597 -0.7960
vn -0.6383 0.6515 0.4101
vn -0.6351 0.5109 0.5793
vn -0.4994 0.5577 0.6631
vn -0.5508 0.6985 0.4569
vn -0.4027 0.6388 0.6555
vn -0.4951 0.3819 0.7804
vn -0.3354 0.4669 0.8182
vn -0.4376 0.7436 0.5055
vn -0.5929 0.3176 0.7400
vn 0.9698 0.2071 0.1291
vn 0.9117 0.2745 0.3056
vn 0.9088 0.1687 0.3815
vn 0.9766 0.1347 0.1679
vn 0.9256 0.0734 0.3714
vn 0.8146 0.2495 0.5236
vn 0.8223 0.1077 0.5587
vn 0.9758 0.0444 0.2140
vn 0.8002 0.3391 0.4946
vn 0.8498 0.3379 0.4046
vn 0.9378 0.3395 0.0732
vn 0.8401 0.4237 0.3386
vn 0.8890 0.4545 0.0566
vn 0.9779 0.1764 -0.1125
vn 0.9207 0.3345 -0.2013
vn 0.8149 0.5217 0.2525
vn 0.9959 0.0724 -0.0539
vn 0.8208 -0.3703 -0.4349
vn 0.9210 -0.2438 -0.3039
vn 0.9271 -0.3438 -0.1490
vn 0.8206 -0.4578 -0.3421
vn 0.8772 -0.4704 -0.0956
vn 0.9813 -0.1890 -0.0377
vn 0.9357 -0.3388 0.0988
vn 0.8044 -0.5474 -0.2308
vn 0.9881 -0.0802 -0.1316
vn 0.7193 -0.3482 -0.6011
vn 0.7194 -0.3482 -0.6010
vn 0.7639 -0.5587 -0.3231
vn 0.6558 -0.4786 -0.5838
vn 0.6340 -0.6837 -0.3613
vn 0.8441 -0.5252 -0.1078
vn 0.6911 -0.7164 -0.0957
vn 0.5588 -0.6244 -0.5458
vn 0.9268 -0.3581 -0.1128
vn -0.6504 -0.3154 -0.6911
vn -0.5141 -0.3623 -0.7775
vn -0.4785 -0.5255 -0.7035
vn -0.6586 -0.4166 -0.6266
vn -0.5318 -0.6109 -0.5865
vn -0.3250 -0.5440 -0.7736
vn -0.3462 -0.6902 -0.6354
vn -0.6556 -0.5344 -0.5335
vn -0.2985 -0.4108 -0.8615
vn -0.1593 0.7249 -0.6702
vn -0.2958 0.6052 -0.7391
vn -0.4169 0.6360 -0.6494
vn -0.2304 0.7609 -0.6066
vn -0.4463 0.7013 -0.5559
vn -0.5134 0.4862 -0.7071
vn -0.6041 0.5499 -0.5767
vn -0.3123 0.7936 -0.5222
vn -0.4426 0.4345 -0.7844
vn 0.9412 0.0574 0.3329
vn 0.8815 0.2686 0.3884
vn 0.8123 0.2520 0.5259
vn 0.9057 0.0338 0.4225
vn 0.7848 0.1647 0.5975
vn 0.7232 0.4482 0.5254
vn 0.6524 0.3677 0.6627
vn 0.8519 0.0052 0.5237
vn 0.7576 0.4933 0.4274
vn 0.1551 0.3529 0.9227
vn 0.3227 0.3885 0.8631
vn 0.2794 0.3804 0.8816
vn 0.5828 -0.1329 0.8017
vn 0.4957 -0.1801 0.8496
vn 0.4674 -0.1943 0.8624
vn 0.5829 -0.1328 0.8016
vn 0.4434 0.4070 0.7986
vn 0.4434 0.4069 0.7987
vn 0.3730 -0.2384 0.8967
vn 0.3730 -0.2383 0.8967
vn 0.3727 -0.1391 0.9175
vn 0.3311 -0.4241 0.8429
vn 0.4526 -0.2064 0.8675
vn 0.3828 -0.5070 0.7723
vn 0.1099 -0.5963 0.7952
vn 0.2153 -0.6457 0.7326
vn 0.5622 -0.3033 0.7694
vn 0.0198 -0.5468 0.8371
vn -0.1968 0.7039 0.6825
vn -0.0166 0.5472 0.8368
vn 0.0818 0.6506 0.7550
vn -0.0834 0.7605 0.6440
vn 0.2028 0.6683 0.7157
vn 0.2078 0.4459 0.8706
vn 0.3070 0.5098 0.8037
vn 0.0708 0.8156 0.5743
vn 0.1282 0.3908 0.9115
vn -0.7835 -0.0707 0.6174
vn -0.9262 -0.0314 0.3756
vn -0.8985 -0.2286 0.3747
vn -0.7914 -0.2368 0.5636
vn -0.8875 -0.3673 0.2783
vn -0.9807 -0.1357 0.1410
vn -0.9490 -0.2981 0.1025
vn -0.7679 -0.4308 0.4740
vn -0.9855 0.0005 0.1696
vn -0.7849 0.4778 -0.3945
vn -0.7303 0.6209 -0.2850
vn -0.6578 0.6414 -0.3949
vn -0.7166 0.5191 -0.4660
vn -0.5747 0.6902 -0.4398
vn -0.6070 0.7518 -0.2576
vn -0.5347 0.7740 -0.3391
vn -0.6098 0.5658 -0.5550
vn -0.6637 0.7249 -0.1843
vn -0.7512 -0.2455 -0.6127
vn -0.7512 -0.2456 -0.6127
vn -0.5133 -0.2479 -0.8216
vn -0.6661 -0.3502 -0.6586
vn -0.4057 -0.3243 -0.8545
vn -0.3450 -0.0495 -0.9373
vn -0.2640 -0.1702 -0.9494
vn -0.5369 -0.4741 -0.6978
vn -0.4012 0.0421 -0.9150
vn 0.3347 -0.5085 0.7933
vn 0.0940 -0.4353 0.8954
vn 0.0629 -0.5682 0.8205
vn 0.2675 -0.6036 0.7511
vn -0.0238 -0.6349 0.7722
vn -0.1432 -0.4348 0.8891
vn -0.1930 -0.5347 0.8227
vn 0.1703 -0.7172 0.6757
vn -0.1036 -0.3537 0.9296
vn 0.5490 -0.2776 0.7883
vn 0.3208 -0.3653 0.8739
vn 0.3723 -0.4797 0.7945
vn 0.5590 -0.3746 0.7397
vn 0.3480 -0.5737 0.7415
vn 0.1264 -0.5057 0.8534
vn 0.1563 -0.6009 0.7839
vn 0.5616 -0.5105 0.6511
vn 0.1007 -0.4225 0.9008
vn 0.9447 0.2317 -0.2321
vn 0.9956 0.0271 -0.0896
vn 0.9712 -0.0372 -0.2353
vn 0.9324 0.1553 -0.3263
vn 0.9433 -0.1408 -0.3007
vn 0.9748 -0.2157 -0.0562
vn 0.9468 -0.2744 -0.1684
vn 0.8893 0.0390 -0.4556
vn 0.9861 -0.1602 0.0447
vn -0.5187 0.8484 -0.1056
vn -0.5226 0.8455 0.1095
vn -0.3991 0.9133 0.0819
vn -0.4169 0.9047 -0.0882
vn -0.2985 0.9461 0.1255
vn -0.4224 0.8621 0.2799
vn -0.3121 0.9089 0.2765
vn -0.2721 0.9602 -0.0631
vn -0.5081 0.8147 0.2796
vn -0.4933 0.6913 -0.5280
vn -0.7055 0.5927 -0.3885
vn -0.6462 0.7053 -0.2915
vn -0.4835 0.7659 -0.4238
vn -0.6437 0.7453 -0.1736
vn -0.8162 0.5486 -0.1811
vn -0.7761 0.6254 -0.0807
vn -0.4576 0.8462 -0.2729
vn -0.8373 0.4827 -0.2566
vn -0.9831 -0.0305 -0.1805
vn -0.9830 0.1371 -0.1223
vn -0.9820 0.1465 -0.1190
vn -0.8549 -0.1529 0.4958
vn -0.8040 -0.0391 0.5933
vn -0.8041 -0.0391 0.5933
vn -0.8526 -0.1465 0.5016
vn -0.9526 0.2981 -0.0612
vn -0.9526 0.2981 -0.0613
vn -0.8835 -0.2582 0.3908
vn -0.0405 -0.0115 0.9991
vn -0.1542 0.1460 0.9772
vn -0.1430 0.1303 0.9811
vn 0.5152 0.3965 0.7598
vn 0.4853 0.5278 0.6971
vn 0.5167 0.3885 0.7630
vn -0.2454 0.2742 0.9298
vn 0.5347 0.2457 0.8085
vn 0.5347 0.2456 0.8086
vn -0.9846 0.1584 0.0745
vn -0.9409 0.3373 0.0295
vn -0.9439 0.3288 0.0317
vn -0.6316 0.2868 0.7203
vn -0.5389 0.4105 0.7356
vn -0.6305 0.2885 0.7206
vn -0.8735 0.4867 -0.0117
vn -0.7092 0.1559 0.6875
vn -0.7093 0.1559 0.6874
vn 0.2588 -0.5690 0.7805
vn 0.4223 -0.4433 0.7907
vn 0.4329 -0.4339 0.7901
vn 0.6271 -0.7689 0.1248
vn 0.7529 -0.6561 0.0527
vn 0.7529 -0.6561 0.0526
vn 0.6298 -0.7669 0.1234
vn 0.5658 -0.3007 0.7677
vn 0.4800 -0.8558 0.1928
vn 0.3908 0.1107 0.9138
vn 0.4687 0.3133 0.8259
vn 0.4759 0.3353 0.8131
vn 0.9137 -0.1103 0.3911
vn 0.9755 0.0181 0.2191
vn 0.9250 -0.0929 0.3685
vn 0.5217 0.5029 0.6891
vn 0.5217 0.5029 0.6892
vn 0.8213 -0.2191 0.5268
vn 0.8212 -0.2191 0.5269
vn -0.2459 0.3495 -0.9041
vn -0.1460 0.2724 -0.9510
vn -0.2889 0.0811 -0.9539
vn -0.4040 0.1803 -0.8968
vn 0.0093 0.4374 -0.8992
vn 0.1302 0.3867 -0.9130
vn -0.0487 0.1804 -0.9824
vn -0.1922 0.0009 -0.9814
vn -0.1026 0.4775 -0.8726
vn -0.8926 -0.4482 -0.0485
vn -0.9481 -0.3088 0.0754
vn -0.9511 -0.2969 0.0853
vn -0.8926 -0.4482 -0.0484
vn -0.5146 -0.6491 0.5602
vn -0.4874 -0.5348 0.6902
vn -0.4875 -0.5348 0.6902
vn -0.5140 -0.6457 0.5647
vn -0.9678 -0.1577 0.1963
vn -0.9678 -0.1577 0.1962
vn -0.5260 -0.7422 0.4153
vn 0.3554 -0.1257 0.9262
vn 0.0085 -0.1244 0.9922
vn 0.2561 -0.2345 0.9378
vn -0.0536 -0.2439 0.9683
vn -0.2481 -0.0085 0.9687
vn -0.2693 -0.1437 0.9523
vn 0.1612 -0.3288 0.9305
vn -0.2241 0.1168 0.9675
vn -0.2241 0.1169 0.9675
vn 0.6441 -0.3495 0.6804
vn 0.6441 -0.3496 0.6804
vn 0.3247 -0.2395 0.9150
vn 0.4721 -0.4533 0.7560
vn 0.1585 -0.3582 0.9201
vn 0.1293 -0.0065 0.9916
vn 0.0044 -0.1618 0.9868
vn 0.3002 -0.5284 0.7942
vn 0.2399 0.1368 0.9611
vn 0.7945 -0.2147 -0.5680
vn 0.7947 -0.2147 -0.5678
vn 0.7377 -0.5032 -0.4502
vn 0.7109 -0.3227 -0.6248
vn 0.6250 -0.5846 -0.5173
vn 0.7154 -0.6502 -0.2559
vn 0.6150 -0.7028 -0.3575
vn 0.6074 -0.4274 -0.6696
vn 0.8023 -0.5793 -0.1437
vn 0.9570 0.0883 -0.2765
vn 0.9180 -0.0406 -0.3946
vn 0.8625 0.0466 -0.5039
vn 0.9255 0.1948 -0.3247
vn 0.6889 -0.0383 -0.7238
vn 0.7866 -0.1158 -0.6065
vn 0.6890 -0.0383 -0.7238
vn 0.8461 -0.1734 -0.5040
vn 0.8764 0.3067 -0.3714
vn 0.8764 0.3066 -0.3714
vn -0.0854 0.3263 -0.9414
vn -0.2332 0.1957 -0.9525
vn -0.3373 0.2798 -0.8988
vn -0.1217 0.4251 -0.8969
vn -0.6009 0.1622 -0.7827
vn -0.4771 0.1014 -0.8730
vn -0.3753 0.0539 -0.9253
vn -0.1605 0.5296 -0.8329
vn -0.3081 -0.4354 0.8459
vn -0.4418 -0.4699 0.7642
vn -0.4035 -0.5728 0.7135
vn -0.2383 -0.4953 0.8354
vn -0.3406 -0.6424 0.6865
vn -0.5594 -0.5839 0.5884
vn -0.5236 -0.6835 0.5086
vn -0.5814 -0.4946 0.6460
vn -0.1475 -0.5647 0.8120
vt 0.966382 8.503631
vt 0.966382 6.725045
vt 0.810921 6.725045
vt 0.810921 8.503631
vt 0.189079 8.503631
vt 0.189079 6.725048
vt 0.033618 6.725048
vt 0.033618 8.503633
vt 0.344539 8.503631
vt 0.344539 6.725048
vt 0.500000 8.503631
vt 0.655461 8.503631
vt 0.655461 6.725048
vt 0.500000 6.725048
vt 0.966382 4.946462
vt 0.810921 4.946462
vt 0.189079 4.946462
vt 0.033618 4.946462
vt 0.344539 4.946462
vt 0.655461 4.946462
vt 0.500000 4.946462
vt 0.966382 3.167876
vt 0.810921 3.167876
vt 0.189079 3.167876
vt 0.033618 3.167878
vt 0.500000 3.167876
vt 0.344539 3.167876
vt 0.655461 3.167876
vt 0.810921 1.389293
vt 0.189079 1.389293
vt 0.033618 1.389293
vt 0.344539 1.389293
vt 0.500000 1.389293
vt 0.655461 1.389293
vt 0.966382 1.389293
vt 0.966382 -0.389294
vt 0.810921 -0.389293
vt 0.189079 -0.389293
vt 0.033618 -0.389292
vt 0.344539 -0.389293
vt 0.500000 -0.389293
vt 0.655461 -0.389293
vt 0.966382 -2.167878
vt 0.810921 -2.167878
vt 0.189079 -2.167876
vt 0.033618 -2.167876
vt 0.344539 -2.167877
vt 0.500000 -2.167877
vt 0.655461 -2.167877
vt 0.810921 -3.946462
vt 0.189079 -3.946462
vt 0.033618 -3.946462
vt 0.344539 -3.946462
vt 0.655461 -3.946462
vt 0.500000 -3.946462
vt 0.344539 -5.725046
vt 0.189079 -5.725045
vt 0.500000 -5.725046
vt 0.655461 -5.725046
vt 0.966382 -7.503632
vt 0.810921 -7.503630
vt 0.189079 -7.503630
vt 0.033618 -7.503630
vt 0.344539 -7.503630
vt 0.500000 -7.503630
vt 0.655461 -7.503630
vt 0.000000 0.000000
vt 0.475004 0.000000
vt 0.581436 0.594393
vt 0.000000 0.491831
vt 0.494355 1.000000
vt 1.000000 0.474417
vt 1.000000 1.000000
vt 0.000000 1.000000
vt 1.000000 0.000000
vt 0.533479 0.000000
vt 0.447807 0.563622
vt 0.000000 0.448746
vt 0.515396 1.000000
vt 1.000000 0.474699
vt 0.509433 1.000000
vt 0.557025 0.488493
vt 0.943530 0.531260
vt 0.672370 1.000000
vt 0.124045 0.440587
vt 0.259966 0.000000
vt 0.602475 0.000000
vt 0.860970 0.000000
vt 0.189556 1.000000
vt 0.480173 0.000000
vt 0.499095 0.494221
vt 0.000000 0.504135
vt 0.518459 1.000000
vt 1.000000 0.484268
vt 0.532232 1.000000
vt 0.477364 0.470556
vt 1.000000 0.533264
vt 0.516556 0.000000
vt 0.000000 0.535225
s 1
usemtl trunk-01
f 1/1/1 15/2/2 25/3/3
f 1/1/1 25/3/3 13/4/4
f 7/5/5 18/6/6 16/7/7
f 7/5/5 16/7/7 3/8/8
f 6/9/9 21/10/10 17/6/11
s 0
f 9/11/12 20/10/12 4/9/12
s 1
f 11/12/13 22/13/14 19/14/15
f 11/12/13 19/14/15 8/11/16
f 12/4/17 24/3/18 23/13/19
f 15/2/2 26/15/20 40/16/21
f 15/2/2 40/16/21 25/3/3
f 18/6/6 30/17/22 27/18/22
f 18/6/6 27/18/22 16/7/7
f 21/10/10 34/19/23 29/17/24
f 21/10/10 29/17/24 17/6/11
f 22/13/14 36/20/25 32/21/25
f 22/13/14 32/21/25 19/14/15
f 24/3/18 39/16/26 38/20/27
f 24/3/18 38/20/27 23/13/19
f 26/15/20 41/22/28 51/23/29
f 26/15/20 51/23/29 40/16/21
f 31/17/30 46/24/31 42/25/32
f 31/17/30 42/25/32 28/18/30
f 34/19/23 43/24/33 29/17/24
f 35/21/34 48/26/35 44/27/36
f 37/20/37 49/28/38 47/26/39
f 37/20/37 47/26/39 33/21/40
f 39/16/26 51/23/29 50/28/41
f 39/16/26 50/28/41 38/20/27
f 41/22/28 52/29/42 51/23/29
f 46/24/31 56/30/43 54/31/44
f 46/24/31 54/31/44 42/25/32
f 45/27/45 58/32/46 55/30/47
f 48/26/35 60/33/48 57/32/49
f 48/26/35 57/32/49 44/27/36
f 49/28/38 61/34/50 59/33/51
f 49/28/38 59/33/51 47/26/39
f 51/23/29 52/29/42 62/34/52
f 51/23/29 62/34/52 50/28/41
f 53/35/53 151/36/54 76/37/55
f 56/30/43 66/38/56 154/39/56
f 56/30/43 154/39/56 54/31/44
f 58/32/46 74/40/57 67/38/57
f 58/32/46 67/38/57 55/30/47
f 60/33/48 161/41/58 71/40/58
f 60/33/48 71/40/58 57/32/49
f 61/34/50 145/42/59 157/41/59
f 61/34/50 157/41/59 59/33/51
f 52/29/42 75/37/60 146/42/61
f 52/29/42 146/42/61 62/34/52
f 151/36/54 78/43/62 87/44/63
f 151/36/54 87/44/63 76/37/55
f 63/38/64 79/45/65 77/46/66
f 63/38/64 77/46/66 153/39/67
f 73/40/68 82/47/69 80/45/70
f 73/40/68 80/45/70 65/38/68
f 160/41/71 83/48/72 81/47/73
f 160/41/71 81/47/73 70/40/71
f 148/42/74 85/49/75 83/48/72
f 148/42/74 83/48/72 158/41/76
f 75/37/60 86/44/77 84/49/78
f 75/37/60 84/49/78 146/42/61
f 78/43/62 99/50/79 87/44/63
f 79/45/65 88/51/80 97/52/81
f 79/45/65 97/52/81 77/46/66
f 82/47/69 93/53/82 90/51/83
f 82/47/69 90/51/83 80/45/70
f 83/48/72 91/53/84 81/47/73
f 85/49/75 164/54/85 92/55/86
f 85/49/75 92/55/86 83/48/72
f 86/44/77 95/50/87 163/54/88
f 86/44/77 163/54/88 84/49/78
f 93/53/82 102/56/89 100/57/90
f 93/53/82 100/57/90 90/51/83
f 92/55/86 103/58/91 101/56/92
f 164/54/85 166/59/93 103/58/91
f 164/54/85 103/58/91 92/55/86
f 104/1/94 120/22/95 130/23/96
f 104/1/94 130/23/96 116/4/94
f 105/5/97 122/24/98 121/25/99
f 108/9/100 124/27/101 123/24/102
f 108/9/100 123/24/102 106/5/103
f 115/11/104 127/26/105 125/27/106
f 115/11/104 125/27/106 111/9/104
f 114/12/107 129/28/108 126/26/109
f 117/4/110 131/23/111 128/28/112
f 117/4/110 128/28/112 112/12/110
f 120/22/95 132/43/113 142/44/114
f 120/22/95 142/44/114 130/23/96
f 122/24/98 134/45/115 133/46/116
f 122/24/98 133/46/116 121/25/99
f 124/27/101 136/47/117 135/45/118
f 124/27/101 135/45/118 123/24/102
f 127/26/105 139/48/119 137/47/120
f 127/26/105 137/47/120 125/27/106
f 129/28/108 141/49/121 138/48/122
f 129/28/108 138/48/122 126/26/109
f 131/23/111 143/44/123 140/49/124
f 131/23/111 140/49/124 128/28/112
f 132/43/113 144/60/125 156/61/125
f 132/43/113 156/61/125 142/44/114
f 134/45/115 149/62/126 147/63/126
f 134/45/115 147/63/126 133/46/116
f 136/47/117 152/64/127 150/62/127
f 136/47/117 150/62/127 135/45/118
f 139/48/119 68/65/128 155/64/128
f 139/48/119 155/64/128 137/47/120
f 141/49/121 72/66/129 64/65/129
f 141/49/121 64/65/129 138/48/122
f 143/44/123 159/61/130 69/66/130
f 143/44/123 69/66/130 140/49/124
s 0
f 119/4/131 113/12/131 110/9/131
f 118/4/132 109/9/132 107/5/132
s 1
f 14/12/133 10/11/133 5/9/134
f 14/12/133 5/9/134 2/8/134
f 94/53/87 167/56/135 165/57/135
f 94/53/87 165/57/135 162/51/88
s 0
f 96/55/136 169/58/136 168/56/136
s 1
f 89/54/137 171/59/138 170/58/138
f 89/54/137 170/58/138 98/55/139
usemtl branch-2-02
f 172/67/140 176/68/141 178/69/142
f 172/67/140 178/69/142 180/70/143
f 177/71/144 178/69/142 179/72/145
f 177/71/144 179/72/145 175/73/146
f 180/70/143 178/69/142 177/71/144
f 180/70/143 177/71/144 174/74/147
f 179/72/145 178/69/142 176/68/141
f 179/72/145 176/68/141 173/75/148
f 181/67/149 185/68/150 187/69/151
f 181/67/149 187/69/151 189/70/152
f 186/71/153 187/69/151 188/72/154
f 186/71/153 188/72/154 184/73/155
f 189/70/152 187/69/151 186/71/153
f 189/70/152 186/71/153 183/74/156
f 188/72/154 187/69/151 185/68/150
f 188/72/154 185/68/150 182/75/157
f 190/67/158 194/68/158 197/69/159
f 190/67/158 197/69/159 199/70/160
f 196/71/161 197/69/159 198/72/162
f 196/71/161 198/72/162 193/73/163
f 199/70/160 197/69/159 196/71/161
f 199/70/160 196/71/161 192/74/164
f 198/72/162 197/69/159 195/68/165
f 198/72/162 195/68/165 191/75/165
f 200/67/166 204/68/167 206/69/168
f 200/67/166 206/69/168 208/70/169
f 205/71/170 206/69/168 207/72/171
f 205/71/170 207/72/171 203/73/172
f 208/70/169 206/69/168 205/71/170
f 208/70/169 205/71/170 202/74/173
f 207/72/171 206/69/168 204/68/167
f 207/72/171 204/68/167 201/75/174
f 209/67/175 213/68/176 216/69/177
f 209/67/175 216/69/177 218/70/178
f 215/71/179 216/69/177 217/72/180
f 215/71/179 217/72/180 212/73/181
f 218/70/178 216/69/177 215/71/179
f 218/70/178 215/71/179 211/74/182
f 217/72/180 216/69/177 214/68/183
f 217/72/180 214/68/183 210/75/183
f 219/67/184 223/68/185 225/69/186
f 219/67/184 225/69/186 227/70/187
f 224/71/188 225/69/186 226/72/189
f 224/71/188 226/72/189 222/73/190
f 227/70/187 225/69/186 224/71/188
f 227/70/187 224/71/188 221/74/191
f 226/72/189 225/69/186 223/68/185
f 226/72/189 223/68/185 220/75/192
f 228/67/193 232/68/194 234/69/195
f 228/67/193 234/69/195 236/70/196
f 233/71/197 234/69/195 235/72/198
f 233/71/197 235/72/198 231/73/199
f 236/70/196 234/69/195 233/71/197
f 236/70/196 233/71/197 230/74/200
f 235/72/198 234/69/195 232/68/194
f 235/72/198 232/68/194 229/75/201
f 237/67/202 241/68/203 243/69/204
f 237/67/202 243/69/204 245/70/205
f 242/71/206 243/69/204 244/72/207
f 242/71/206 244/72/207 240/73/208
f 245/70/205 243/69/204 242/71/206
f 245/70/205 242/71/206 239/74/209
f 244/72/207 243/69/204 241/68/203
f 244/72/207 241/68/203 238/75/210
usemtl branch-2-01
f 246/67/211 250/76/211 254/77/212
f 246/67/211 254/77/212 256/78/213
f 253/79/214 255/77/215 257/80/216
f 253/79/214 257/80/216 249/73/217
f 256/78/213 254/77/212 252/79/218
f 256/78/213 252/79/218 248/74/219
f 257/80/216 255/77/215 251/76/220
f 257/80/216 251/76/220 247/75/221
f 258/67/222 263/76/222 265/77/223
f 258/67/222 265/77/223 266/78/224
f 264/79/225 265/77/223 267/80/226
f 264/79/225 267/80/226 261/73/227
f 266/78/224 265/77/223 264/79/225
f 266/78/224 264/79/225 260/74/228
f 267/80/226 265/77/223 262/76/229
f 267/80/226 262/76/229 259/75/229
f 268/67/230 272/76/231 274/77/232
f 268/67/230 274/77/232 275/78/233
f 273/79/234 274/77/232 276/80/235
f 273/79/234 276/80/235 271/73/236
f 275/78/233 274/77/232 273/79/234
f 275/78/233 273/79/234 270/74/237
f 276/80/235 274/77/232 272/76/231
f 276/80/235 272/76/231 269/75/238
f 277/67/239 281/76/240 283/77/241
f 277/67/239 283/77/241 284/78/242
f 282/79/243 283/77/241 285/80/244
f 282/79/243 285/80/244 280/73/245
f 284/78/242 283/77/241 282/79/243
f 284/78/242 282/79/243 279/74/246
f 285/80/244 283/77/241 281/76/240
f 285/80/244 281/76/240 278/75/247
f 286/67/248 290/76/249 292/77/250
f 286/67/248 292/77/250 293/78/251
f 291/79/252 292/77/250 294/80/253
f 291/79/252 294/80/253 289/73/254
f 293/78/251 292/77/250 291/79/252
f 293/78/251 291/79/252 288/74/255
f 294/80/253 292/77/250 290/76/249
f 294/80/253 290/76/249 287/75/256
f 295/67/257 299/76/258 302/77/259
f 295/67/257 302/77/259 303/78/260
f 301/79/261 302/77/259 304/80/262
f 301/79/261 304/80/262 298/73/263
f 303/78/260 302/77/259 301/79/261
f 303/78/260 301/79/261 297/74/264
f 304/80/262 302/77/259 300/76/265
f 304/80/262 300/76/265 296/75/265
f 305/67/266 309/76/267 311/77/268
f 305/67/266 311/77/268 312/78/269
f 310/79/270 311/77/268 313/80/271
f 310/79/270 313/80/271 308/73/272
f 312/78/269 311/77/268 310/79/270
f 312/78/269 310/79/270 307/74/273
f 313/80/271 311/77/268 309/76/267
f 313/80/271 309/76/267 306/75/274
f 314/67/275 318/76/276 320/77/277
f 314/67/275 320/77/277 321/78/278
f 319/79/279 320/77/277 322/80/280
f 319/79/279 322/80/280 317/73/281
f 321/78/278 320/77/277 319/79/279
f 321/78/278 319/79/279 316/74/282
f 322/80/280 320/77/277 318/76/276
f 322/80/280 318/76/276 315/75/283
f 323/67/284 327/76/285 329/77/286
f 323/67/284 329/77/286 330/78/287
f 328/79/288 329/77/286 331/80/289
f 328/79/288 331/80/289 326/73/290
f 330/78/287 329/77/286 328/79/288
f 330/78/287 328/79/288 325/74/291
f 331/80/289 329/77/286 327/76/285
f 331/80/289 327/76/285 324/75/292
f 332/67/293 336/76/294 338/77/295
f 332/67/293 338/77/295 339/78/296
f 337/79/297 338/77/295 340/80/298
f 337/79/297 340/80/298 335/73/299
f 339/78/296 338/77/295 337/79/297
f 339/78/296 337/79/297 334/74/300
f 340/80/298 338/77/295 336/76/294
f 340/80/298 336/76/294 333/75/301
f 341/67/302 345/76/303 347/77/304
f 341/67/302 347/77/304 348/78/305
f 346/79/306 347/77/304 349/80/307
f 346/79/306 349/80/307 344/73/308
f 348/78/305 347/77/304 346/79/306
f 348/78/305 346/79/306 343/74/309
f 349/80/307 347/77/304 345/76/303
f 349/80/307 345/76/303 342/75/310
usemtl branch-2-04
f 350/81/311 354/82/312 359/83/313
f 350/81/311 359/83/313 360/84/311
f 357/85/314 356/86/315 353/87/316
f 357/85/314 353/87/316 355/82/317
f 358/88/318 359/83/313 354/82/312
f 358/88/318 354/82/312 352/87/319
f 361/89/320 357/85/314 355/82/317
f 361/89/320 355/82/317 351/81/320
f 362/81/321 366/82/322 371/83/323
f 362/81/321 371/83/323 372/84/321
f 369/85/324 368/86/325 365/87/325
f 369/85/324 365/87/325 367/82/326
f 370/88/327 371/83/323 366/82/322
f 370/88/327 366/82/322 364/87/327
f 373/89/328 369/85/324 367/82/326
f 373/89/328 367/82/326 363/81/329
f 374/81/330 378/82/331 383/83/332
f 374/81/330 383/83/332 384/84/330
f 381/85/333 380/86/334 377/87/334
f 381/85/333 377/87/334 379/82/335
f 382/88/336 383/83/332 378/82/331
f 382/88/336 378/82/331 376/87/336
f 385/89/337 381/85/333 379/82/335
f 385/89/337 379/82/335 375/81/338
f 386/81/339 390/82/340 395/83/341
f 386/81/339 395/83/341 396/84/339
f 393/85/342 392/86/343 389/87/344
f 393/85/342 389/87/344 391/82/345
f 394/88/346 395/83/341 390/82/340
f 394/88/346 390/82/340 388/87/346
f 397/89/347 393/85/342 391/82/345
f 397/89/347 391/82/345 387/81/347
f 398/81/348 402/82/349 407/83/350
f 398/81/348 407/83/350 408/84/348
f 405/85/351 404/86/352 401/87/352
f 405/85/351 401/87/352 403/82/353
f 406/88/354 407/83/350 402/82/349
f 406/88/354 402/82/349 400/87/355
f 409/89/356 405/85/351 403/82/353
f 409/89/356 403/82/353 399/81/357
f 410/81/358 412/82/359 416/83/360
f 410/81/358 416/83/360 417/84/361
f 414/85/362 413/86/363 411/87/364
f 414/85/362 411/87/364 412/82/359
f 415/88/365 416/83/360 412/82/359
f 415/88/365 412/82/359 411/87/364
f 418/89/366 414/85/362 412/82/359
f 418/89/366 412/82/359 410/81/358
f 419/81/367 423/82/368 428/83/369
f 419/81/367 428/83/369 429/84/370
f 426/85/371 425/86/372 422/87/373
f 426/85/371 422/87/373 424/82/374
f 427/88/375 428/83/369 423/82/368
f 427/88/375 423/82/368 421/87/376
f 430/89/377 426/85/371 424/82/374
f 430/89/377 424/82/374 420/81/377
usemtl branch-2-05
f 431/67/378 436/90/378 440/91/379
f 431/67/378 440/91/379 439/92/380
f 437/93/381 440/91/379 438/94/382
f 437/93/381 438/94/382 434/73/383
f 439/92/380 440/91/379 437/93/381
f 439/92/380 437/93/381 433/74/384
f 438/94/382 440/91/379 435/90/385
f 438/94/382 435/90/385 432/75/386
f 441/67/387 446/90/388 450/91/389
f 441/67/387 450/91/389 449/92/390
f 447/93/391 450/91/389 448/94/392
f 447/93/391 448/94/392 444/73/393
f 449/92/390 450/91/389 447/93/391
f 449/92/390 447/93/391 443/74/394
f 448/94/392 450/91/389 445/90/395
f 448/94/392 445/90/395 442/75/395
f 451/67/396 455/90/397 460/91/398
f 451/67/396 460/91/398 459/92/399
f 457/93/400 460/91/398 458/94/401
f 457/93/400 458/94/401 454/73/402
f 459/92/399 460/91/398 457/93/400
f 459/92/399 457/93/400 453/74/403
f 458/94/401 460/91/398 456/90/404
f 458/94/401 456/90/404 452/75/404
usemtl branch-2-03
f 464/73/405 465/95/406 468/96/407
f 464/73/405 468/96/407 470/97/408
f 466/98/409 468/96/407 469/99/410
f 466/98/409 469/99/410 461/67/411
f 469/99/410 468/96/407 465/95/406
f 469/99/410 465/95/406 463/74/412
f 470/97/408 468/96/407 467/98/413
f 470/97/408 467/98/413 462/75/414
f 474/73/415 475/95/416 478/96/417
f 474/73/415 478/96/417 480/97/418
f 476/98/419 478/96/417 479/99/420
f 476/98/419 479/99/420 471/67/419
f 479/99/420 478/96/417 475/95/416
f 479/99/420 475/95/416 473/74/421
f 480/97/418 478/96/417 477/98/422
f 480/97/418 477/98/422 472/75/422
f 484/73/423 485/95/424 487/96/425
f 484/73/423 487/96/425 489/97/426
f 486/98/427 487/96/425 488/99/428
f 486/98/427 488/99/428 481/67/429
f 488/99/428 487/96/425 485/95/424
f 488/99/428 485/95/424 483/74/430
f 489/97/426 487/96/425 486/98/427
f 489/97/426 486/98/427 482/75/431
