# Blender 5.1.0
# www.blender.org
mtllib Tree-02-2.mtl
o Tree-02-2
v 17.134995 6.898310 8.899949
v 17.134995 6.898310 8.899949
v 17.134995 6.898310 8.899949
v 17.140007 6.896296 8.894604
v 17.140007 6.896296 8.894604
v 17.140007 6.896296 8.894604
v 17.147085 6.894281 8.896511
v 17.147085 6.894281 8.896511
v 17.147085 6.894281 8.896511
v 17.142344 6.896296 8.902538
v 17.142344 6.896296 8.902538
v 17.142344 6.896296 8.902538
v 17.142344 6.896296 8.902538
v 16.922956 6.032538 8.957026
v 16.922956 6.032538 8.957026
v 16.932131 6.028498 8.947218
v 16.932131 6.028498 8.947218
v 16.945505 6.026477 8.950532
v 16.945505 6.026477 8.950532
v 16.949703 6.028496 8.963655
v 16.949703 6.028496 8.963655
v 16.940527 6.032535 8.973463
v 16.940527 6.032535 8.973463
v 16.892721 5.632892 9.082729
v 16.892721 5.632892 9.082729
v 16.892721 5.632892 9.082729
v 16.899185 5.624232 9.052818
v 16.899185 5.624232 9.052818
v 16.917004 5.625099 9.056475
v 16.917004 5.625099 9.056475
v 16.910540 5.633759 9.086386
v 16.910540 5.633759 9.086386
v 16.910540 5.633759 9.086386
v 16.910540 5.633759 9.086386
v 16.912766 5.255509 9.151172
v 16.912766 5.255509 9.151172
v 16.905933 5.252817 9.129588
v 16.905933 5.252817 9.129588
v 16.921015 5.246741 9.113394
v 16.921015 5.246741 9.113394
v 16.949764 5.246049 9.140369
v 16.949764 5.246049 9.140369
v 16.949764 5.246049 9.140369
v 16.949764 5.246049 9.140369
v 16.934681 5.252126 9.156563
v 16.934681 5.252126 9.156563
v 16.718716 4.768109 9.213085
v 16.718716 4.768109 9.213085
v 16.710899 4.770040 9.184138
v 16.710899 4.770040 9.184138
v 16.730795 4.762011 9.162776
v 16.730795 4.762011 9.162776
v 16.758505 4.752051 9.170360
v 16.758505 4.752051 9.170360
v 16.747715 4.750120 9.205625
v 16.747715 4.750120 9.205625
v 16.747715 4.750120 9.205625
v 16.377441 3.139476 9.080315
v 16.377441 3.139476 9.080315
v 16.417690 3.133947 9.040476
v 16.417690 3.133947 9.040476
v 16.469868 3.114087 9.054767
v 16.469868 3.114087 9.054767
v 16.461786 3.099757 9.131708
v 16.461786 3.099757 9.131708
v 16.441545 3.105286 9.148736
v 16.441545 3.105286 9.148736
v 16.441545 3.105286 9.148736
v 16.225149 2.634314 9.019927
v 16.225149 2.634314 9.019927
v 16.210415 2.646161 8.957462
v 16.210415 2.646161 8.957462
v 16.210415 2.646161 8.957462
v 16.210415 2.646161 8.957462
v 16.316441 2.618382 8.928391
v 16.316441 2.618382 8.928391
v 16.331175 2.606536 8.990856
v 16.331175 2.606536 8.990856
v 16.285530 2.614502 9.036624
v 16.285530 2.614502 9.036624
v 16.041910 1.417198 9.089388
v 16.041910 1.417198 9.089388
v 16.021135 1.419010 9.009577
v 16.021135 1.419010 9.009577
v 16.079500 1.411793 8.951634
v 16.079500 1.411793 8.951634
v 16.158638 1.402764 8.973503
v 16.158638 1.402764 8.973503
v 16.179417 1.400953 9.053316
v 16.179417 1.400953 9.053316
v 16.179417 1.400953 9.053316
v 16.179417 1.400953 9.053316
v 16.014471 0.833915 9.073284
v 16.014471 0.833915 9.073284
v 16.018456 0.823395 8.963561
v 16.018456 0.823395 8.963561
v 16.018456 0.823395 8.963561
v 16.018456 0.823395 8.963561
v 16.139788 0.815213 8.948663
v 16.139788 0.815213 8.948663
v 16.162407 0.816382 9.034473
v 16.162407 0.816382 9.034473
v 16.099749 0.825733 9.096785
v 16.099749 0.825733 9.096785
v 15.835459 0.000000 9.216494
v 15.835459 0.000000 9.216494
v 15.876973 0.000000 9.057705
v 15.876973 0.000000 9.057705
v 15.968704 0.000000 9.083261
v 15.968704 0.000000 9.083261
v 15.968704 0.000000 9.083261
v 15.968704 0.000000 9.083261
v 15.993813 0.000000 9.175434
v 15.993813 0.000000 9.175434
v 15.927190 0.000000 9.242050
v 15.927190 0.000000 9.242050
v 15.211478 6.759822 9.270991
v 15.211478 6.759822 9.270991
v 15.211478 6.759822 9.270991
v 15.214274 6.760456 9.282219
v 15.214274 6.760456 9.282219
v 15.214274 6.760456 9.282219
v 15.214274 6.760456 9.282219
v 15.205192 6.759595 9.283770
v 15.205192 6.759595 9.283770
v 15.205192 6.759595 9.283770
v 15.203330 6.758647 9.273455
v 15.203330 6.758647 9.273455
v 15.203330 6.758647 9.273455
v 15.203330 6.758647 9.273455
v 15.276645 5.998362 9.196691
v 15.276645 5.998362 9.196691
v 15.282455 5.996856 9.212228
v 15.282455 5.996856 9.212228
v 15.271142 5.986727 9.223730
v 15.271142 5.986727 9.223730
v 15.271142 5.986727 9.223730
v 15.260745 5.989408 9.211265
v 15.260745 5.989408 9.211265
v 15.262384 5.992876 9.203208
v 15.262384 5.992876 9.203208
v 15.385673 5.569741 8.955305
v 15.385673 5.569741 8.955305
v 15.385673 5.569741 8.955305
v 15.400433 5.566118 8.967788
v 15.400433 5.566118 8.967788
v 15.400433 5.566118 8.967788
v 15.378225 5.555348 8.991638
v 15.378225 5.555348 8.991638
v 15.378225 5.555348 8.991638
v 15.378225 5.555348 8.991638
v 15.363465 5.558971 8.979156
v 15.363465 5.558971 8.979156
v 15.363465 5.558971 8.979156
v 15.377931 5.566168 8.959880
v 15.377931 5.566168 8.959880
v 15.348216 5.215742 8.923820
v 15.348216 5.215742 8.923820
v 15.366274 5.217274 8.953975
v 15.366274 5.217274 8.953975
v 15.366274 5.217274 8.953975
v 15.366274 5.217274 8.953975
v 15.341878 5.216539 8.969373
v 15.341878 5.216539 8.969373
v 15.324142 5.215359 8.953409
v 15.324142 5.215359 8.953409
v 15.332692 5.215162 8.928879
v 15.479747 4.486406 8.997979
v 15.479747 4.486406 8.997979
v 15.479747 4.486406 8.997979
v 15.504978 4.498682 9.033089
v 15.504978 4.498682 9.033089
v 15.501777 4.501910 9.046614
v 15.501777 4.501910 9.046614
v 15.464136 4.502146 9.063931
v 15.464136 4.502146 9.063931
v 15.435392 4.491596 9.025260
v 15.435392 4.491596 9.025260
v 15.613141 3.512617 9.327992
v 15.613141 3.512617 9.327992
v 15.613141 3.512617 9.327992
v 15.613141 3.512617 9.327992
v 15.613141 3.512617 9.327992
v 15.613141 3.512617 9.327992
v 15.601778 3.523865 9.376133
v 15.601778 3.523865 9.376133
v 15.601778 3.523865 9.376133
v 15.601778 3.523865 9.376133
v 15.601778 3.523865 9.376133
v 15.601778 3.523865 9.376133
v 15.528127 3.503286 9.309607
v 15.528127 3.503286 9.309607
v 15.558753 2.927229 9.337137
v 15.558753 2.927229 9.337137
v 15.619208 2.928175 9.366376
v 15.619208 2.928175 9.366376
v 15.606292 2.926324 9.424836
v 15.606292 2.926324 9.424836
v 15.574574 2.923526 9.430433
v 15.574574 2.923526 9.430433
v 15.505069 2.922580 9.402379
v 15.505069 2.922580 9.402379
v 15.517985 2.924431 9.343919
v 15.517985 2.924431 9.343919
v 15.695001 2.033503 9.267118
v 15.695001 2.033503 9.267118
v 15.679587 2.023130 9.338775
v 15.679587 2.023130 9.338775
v 15.679587 2.023130 9.338775
v 15.555233 2.011055 9.310678
v 15.555233 2.011055 9.310678
v 15.570646 2.021429 9.239021
v 15.570646 2.021429 9.239021
v 15.570646 2.021429 9.239021
v 15.570646 2.021429 9.239021
v 15.783608 0.878531 9.115047
v 15.783608 0.878531 9.115047
v 15.848562 0.880177 9.174632
v 15.848562 0.880177 9.174632
v 15.830058 0.868928 9.260256
v 15.830058 0.868928 9.260256
v 15.772116 0.856034 9.268935
v 15.681646 0.854388 9.226710
v 15.681646 0.854388 9.226710
v 15.700150 0.865636 9.141086
v 15.700150 0.865636 9.141086
v 15.884678 0.000000 8.960331
v 15.884678 0.000000 8.960331
v 15.955267 0.000000 9.024644
v 15.955267 0.000000 9.024644
v 15.810352 0.000000 9.124321
v 15.810352 0.000000 9.124321
v 15.810352 0.000000 9.124321
v 15.810352 0.000000 9.124321
v 15.769231 0.000000 9.107399
v 15.769231 0.000000 9.107399
v 15.761288 0.000000 8.983580
v 15.761288 0.000000 8.983580
v 16.127234 6.986282 9.983173
v 16.127234 6.986282 9.983173
v 16.127234 6.986282 9.983173
v 16.127234 6.986282 9.983173
v 16.137489 6.984598 9.975294
v 16.137489 6.984598 9.975294
v 16.137489 6.984598 9.975294
v 16.137489 6.984598 9.975294
v 16.138891 6.982915 9.988152
v 16.138891 6.982915 9.988152
v 16.138891 6.982915 9.988152
v 16.138891 6.982915 9.988152
v 16.131588 6.984598 9.989118
v 16.131588 6.984598 9.989118
v 16.131588 6.984598 9.989118
v 16.131588 6.984598 9.989118
v 15.896396 5.790414 9.878508
v 15.896396 5.790414 9.878508
v 15.899641 5.792861 9.872868
v 15.899641 5.792861 9.872868
v 15.919001 5.786725 9.871153
v 15.919001 5.786725 9.871153
v 15.924135 5.782976 9.878379
v 15.924135 5.782976 9.878379
v 15.918112 5.779371 9.898861
v 15.918112 5.779371 9.898861
v 15.901683 5.783669 9.901126
v 15.901683 5.783669 9.901126
v 15.635295 4.928887 9.539533
v 15.635295 4.928887 9.539533
v 15.647646 4.934694 9.514498
v 15.647646 4.934694 9.514498
v 15.675485 4.929640 9.511246
v 15.675485 4.929640 9.511246
v 15.690972 4.918779 9.533028
v 15.690972 4.918779 9.533028
v 15.678621 4.912972 9.558062
v 15.678621 4.912972 9.558062
v 15.650783 4.918026 9.561315
v 15.650783 4.918026 9.561315
v 15.516768 3.514534 9.357749
v 15.516768 3.514534 9.357749
v 15.516768 3.514534 9.357749
v 15.516768 3.514534 9.357749
v 15.516768 3.514534 9.357749
v 15.536294 3.523386 9.302267
v 15.536294 3.523386 9.302267
v 15.576315 3.502328 9.294729
v 15.576315 3.502328 9.294729
v 15.576315 3.502328 9.294729
v 15.576315 3.502328 9.294729
v 15.576315 3.502328 9.294729
v 15.553592 3.524824 9.391011
v 15.553592 3.524824 9.391011
v 15.553592 3.524824 9.391011
v 15.553592 3.524824 9.391011
v 15.553592 3.524824 9.391011
v 15.553592 3.524824 9.391011
v 18.333385 1.663370 9.622649
v 17.681379 0.557711 8.007882
v 16.543802 2.637315 9.831138
v 15.891796 1.531656 8.216371
v 18.081434 1.293397 8.750375
v 16.247608 2.160947 8.985252
v 16.995264 1.880775 8.616895
v 16.850439 1.068327 8.073864
v 17.471548 2.191664 9.691774
v 13.954721 2.344254 10.740332
v 15.478549 1.047212 10.871671
v 14.775745 3.405289 9.292445
v 16.299574 2.108248 9.423784
v 14.749621 1.851658 10.918327
v 15.561213 2.819963 9.409675
v 15.457581 2.444656 10.165650
v 15.890293 1.589223 10.220937
v 14.381091 2.905312 10.064919
v 13.276941 3.482027 8.265019
v 14.129891 1.852252 9.516990
v 15.124601 4.916968 8.446270
v 15.977551 3.287193 9.698240
v 13.592201 2.818480 9.031947
v 15.505594 4.161316 9.143108
v 14.708160 3.587826 9.412911
v 14.978329 2.567614 9.656862
v 14.157139 4.222888 8.408845
v 14.884363 7.386864 7.763098
v 14.643789 7.665680 9.582785
v 15.414373 5.395539 8.068386
v 15.173800 5.674355 9.888072
v 14.929023 7.581806 8.641085
v 15.367345 5.561649 8.974123
v 15.347618 6.478651 9.027294
v 14.944957 6.740516 9.731882
v 15.195496 6.427312 7.917575
v 16.835114 3.691066 12.485433
v 16.105703 1.288220 10.953112
v 15.875991 5.866787 10.311815
v 15.146581 3.463941 8.779495
v 16.793886 2.537543 11.626977
v 16.793886 2.537543 11.626977
v 15.653495 4.673425 9.495222
v 16.394234 3.565151 10.065768
v 15.746175 2.316614 9.881054
v 16.460295 4.757290 11.374919
v 14.478614 4.207417 7.382274
v 15.833763 5.871182 9.035966
v 14.801288 2.238376 8.645058
v 16.156437 3.902139 10.298749
v 15.346040 4.941573 8.027989
v 15.572426 3.035469 9.399325
v 15.863892 3.902641 8.840971
v 16.056837 4.919472 9.591317
v 14.708342 3.221160 7.958969
v 15.014854 6.343559 8.140542
v 16.841579 7.794217 9.544784
v 15.899851 4.379665 8.553317
v 17.726576 5.830322 9.957559
v 16.027483 7.070050 8.589226
v 16.868467 5.113735 9.148736
v 16.865726 6.087536 8.806587
v 17.306778 6.874220 9.672304
v 15.496134 5.389536 8.274241
v 18.420486 3.932957 10.714323
v 16.944036 5.795598 10.326305
v 17.210842 2.270944 9.166553
v 15.734392 4.133584 8.778537
v 17.579805 4.727084 10.724892
v 16.417904 3.150748 9.062898
v 16.590399 3.863780 9.921991
v 16.326561 4.978756 9.652986
v 17.781301 3.086754 10.014951
v 16.141483 4.299372 6.153838
v 18.086855 5.857012 8.043060
v 15.385476 2.349967 8.171371
v 17.330847 3.907606 10.060594
v 17.248316 4.859394 6.977342
v 16.429867 3.038625 9.071894
v 17.154543 3.720289 8.317575
v 17.785372 4.875911 8.977098
v 15.827682 3.283493 7.122667
v 15.502403 5.546110 7.687823
v 16.098248 5.918957 10.581844
v 15.185378 3.616931 7.944699
v 15.781223 3.989778 10.838721
v 16.046223 5.672146 9.013871
v 15.597919 3.778148 9.353378
v 16.133152 4.523637 9.435058
v 16.029434 4.987746 10.688499
v 15.429275 4.581068 7.798727
v 16.515697 5.693341 7.683446
v 16.545753 5.693526 10.601220
v 16.424652 3.820544 7.684476
v 16.454708 3.820729 10.602249
v 16.795740 5.689660 9.066662
v 16.559740 3.818931 9.125654
v 16.960812 4.573440 9.375593
v 16.585705 4.803861 10.600852
v 16.555292 4.771045 7.683084
v 13.288464 6.267441 9.082168
v 17.020098 4.962669 6.010102
v 13.888062 2.927532 10.904061
v 17.619696 1.622761 7.831996
v 14.791010 5.422990 7.368530
v 15.610671 2.180867 9.270282
v 15.325146 3.116304 7.917734
v 17.220091 3.307870 6.794852
v 13.497649 4.553441 9.897468
v 17.624702 2.790146 7.533381
v 16.391342 1.396805 7.368516
v 16.956516 3.320414 9.077253
v 15.723157 1.927072 8.912390
v 16.945784 2.246834 7.379060
v 16.304695 2.685230 8.961366
v 16.341713 2.510055 8.217405
v 16.045227 1.685455 8.077176
v 17.266521 3.088578 8.268574
v 15.584405 2.840746 6.876377
v 14.859130 4.503986 7.694191
v 15.840691 1.673726 8.933380
v 15.115416 3.336965 9.751194
v 15.432489 3.730832 7.278792
v 15.569276 2.541215 9.343982
v 15.664155 3.295490 8.599839
v 15.040969 3.981630 8.674433
v 15.771597 2.298530 7.892503
v 13.464547 4.038709 10.635199
v 14.027249 2.340976 10.319510
v 15.129934 5.100344 9.202279
v 15.692636 3.402610 8.886591
v 13.921918 3.151033 10.672208
v 13.921918 3.151033 10.672208
v 15.491057 4.233494 9.132507
v 15.491057 4.233494 9.132507
v 14.938818 3.909346 10.056900
v 14.938818 3.909346 10.056900
v 14.259985 4.520631 10.055048
v 14.866993 2.850574 9.703587
v 14.827922 5.869702 11.074387
v 13.644206 4.160803 11.029673
v 16.146952 4.743504 9.336869
v 14.963237 3.034606 9.292156
v 14.327881 4.834143 11.221125
v 14.327881 4.834143 11.221125
v 15.596336 3.806693 9.391000
v 15.278481 4.246117 10.382903
v 15.460058 5.326408 10.346889
v 14.311481 3.587428 10.258258
v 13.355433 2.570037 9.371415
v 14.453939 1.153697 10.272033
v 15.007293 3.769567 8.810864
v 16.105799 2.353227 9.711482
v 13.923382 1.940184 10.026366
v 15.565279 3.096473 9.353978
v 14.745748 2.838765 9.773656
v 14.091165 3.146800 9.173270
v 15.232418 1.762458 10.060542
v 15.675669 4.747244 12.065371
v 15.427665 6.371502 8.749155
v 15.869372 2.177488 11.080576
v 15.621368 3.801745 7.764361
v 15.151249 5.586653 10.315330
v 15.564160 3.002364 9.380049
v 14.966198 3.977327 10.059746
v 15.642592 3.585783 11.629291
v 15.396914 5.143161 8.287649
v 13.585564 2.803899 10.843221
v 15.656530 1.783823 11.367971
v 14.479012 3.969889 9.064507
v 16.549980 2.949813 9.589257
v 14.726369 2.426027 11.230382
v 15.562661 3.519387 9.383467
v 15.081465 3.304406 10.269165
v 13.997508 3.378031 10.077843
v 16.091911 2.389363 10.557169
v 13.899721 5.792449 10.540967
v 14.549029 7.380114 9.387420
v 15.120751 4.286722 9.630635
v 15.770061 5.874388 8.477088
v 14.062619 6.585969 9.765558
v 14.062619 6.585969 9.765558
v 15.372391 5.080812 8.963712
v 14.547561 5.558275 9.222564
v 14.391498 5.100397 10.083489
v 15.071232 6.648617 8.905214
v 15.253107 6.607617 11.680643
v 14.870656 7.743630 9.882502
v 16.067213 4.777578 10.616186
v 15.684763 5.913591 8.818046
v 14.854639 7.115030 10.714692
v 15.782137 5.318456 9.686409
v 15.189819 5.906907 10.263417
v 15.558929 5.756212 11.200928
v 15.196268 6.844049 9.375115
v 15.956788 7.229484 11.226481
v 15.950621 7.987920 9.972842
v 16.057898 5.805001 10.561615
v 16.051731 6.563437 9.307976
v 15.809106 7.627330 10.555246
v 15.989397 6.192836 9.914389
v 15.750452 6.754042 10.285949
v 15.957973 6.588183 10.927378
v 15.953434 7.309603 9.656466
v 17.969200 6.351304 10.715458
v 16.744156 7.525906 9.719302
v 17.625250 4.661336 9.602240
v 16.400206 5.835938 8.606084
v 17.174931 6.919837 10.304294
v 16.930199 5.240440 9.143232
v 16.972795 5.819965 9.858961
v 17.771784 5.575160 10.252711
v 16.536844 6.705502 9.228493
v 17.595795 5.259858 11.872910
v 17.270529 7.397604 10.302761
v 16.975607 3.269852 9.912693
v 16.650341 5.407598 8.342544
v 17.104570 6.427402 11.129527
v 17.104570 6.427402 11.129527
v 16.664238 4.383898 9.146086
v 16.527279 5.144450 10.235060
v 17.220261 4.375145 11.022118
v 16.876709 6.461430 9.401744
v 17.606012 5.903337 10.610313
v 16.745497 3.356988 12.619404
v 16.502123 3.702825 7.987463
v 15.641607 1.156478 9.996554
v 17.493895 4.372435 11.662202
v 17.493895 4.372435 11.662202
v 16.215574 2.312419 9.013929
v 17.224575 3.211565 9.995758
v 17.216824 4.863083 9.427224
v 16.330050 2.258436 11.368107
v 14.659075 2.633080 7.211465
v 14.098209 1.172791 8.298553
v 15.922526 3.505867 8.767155
v 15.361660 2.045577 9.854243
v 14.209159 1.985785 7.850075
v 15.565279 2.812838 9.353978
v 14.848067 2.708803 8.680965
v 15.179922 3.065056 7.927529
v 14.650808 1.628326 9.055397
v 13.477471 3.908582 8.184232
v 14.011875 3.386377 10.227464
v 15.198107 4.909016 7.931316
v 15.732512 4.386810 9.974548
v 13.695993 3.785533 9.322310
v 15.443420 4.710237 9.006130
v 14.566439 4.519273 9.043377
v 14.229226 4.405122 8.085443
v 14.807828 3.909953 10.122443
v 18.612381 5.974607 9.619033
v 17.316549 6.591239 10.496484
v 17.590389 4.989822 8.643260
v 16.294558 5.606454 9.520711
v 17.938049 6.155045 10.192656
v 16.930199 5.240440 9.143232
v 17.486698 5.427676 9.652412
v 18.158958 5.487236 9.213452
v 16.836720 6.077286 10.066305
v 15.258042 4.101345 6.390022
v 14.096707 2.525109 7.777372
v 16.124718 5.449787 8.296569
v 14.963383 3.873551 9.683919
v 14.455581 3.421456 7.118046
v 15.443420 4.710237 9.006130
v 14.896390 4.446039 8.064026
v 15.590982 4.755724 7.241875
v 14.450879 3.215594 8.678622
v 15.267230 5.989462 9.219335
v 15.267230 5.989462 9.219335
v 15.391452 7.388233 9.977640
v 15.391452 7.388233 9.977640
v 15.202680 6.686299 9.687953
v 15.202680 6.686299 9.687953
v 15.803118 7.096191 10.194754
v 15.721692 6.378478 10.009571
v 15.381200 7.652370 9.624407
v 15.116587 7.015982 9.163083
v 15.230303 6.151522 9.015884
v 15.569248 5.704718 9.474070
v 15.216415 6.738551 9.275498
v 15.216415 6.738551 9.275498
v 14.764866 7.585763 9.329230
v 14.764866 7.585763 9.329230
v 15.024248 7.206351 9.380312
v 15.024248 7.206351 9.380312
v 14.935694 7.670277 9.069283
v 15.224637 7.358290 9.058560
v 14.544925 7.441187 9.344040
v 14.731096 6.969281 9.439803
v 15.087009 6.655613 9.303225
v 15.400930 6.839652 9.082501
v 16.923298 5.893291 8.988512
v 16.923298 5.893291 8.988512
v 17.418922 7.365730 9.414837
v 17.418922 7.365730 9.414837
v 17.131849 6.633805 9.351663
v 17.131849 6.633805 9.351663
v 17.890589 7.104401 9.329759
v 17.753525 6.369332 9.277811
v 17.168411 7.592626 9.138756
v 16.709311 6.907136 8.990335
v 16.754700 6.033301 8.848996
v 17.334856 5.641089 9.002438
v 17.136982 6.895001 8.901073
v 17.136982 6.895001 8.901073
v 17.083921 7.675125 8.883319
v 17.083921 7.675125 8.883319
v 17.147810 7.308598 8.952112
v 17.147810 7.308598 8.952112
v 17.230772 7.644986 8.680157
v 17.336582 7.308921 8.697753
v 16.884037 7.663727 8.895635
v 16.867487 7.265437 9.002122
v 17.020018 6.891279 8.923136
v 17.298567 6.876225 8.750032
v 16.125319 6.937703 9.985377
v 16.125319 6.937703 9.985377
v 16.276947 7.842455 9.950433
v 16.276947 7.842455 9.950433
v 16.145575 7.427157 10.025893
v 16.145575 7.427157 10.025893
v 16.535145 7.748003 10.071310
v 16.476913 7.352514 10.184385
v 16.216490 7.851192 9.722252
v 16.018551 7.415255 9.712460
v 16.073582 6.949552 9.855435
v 16.329571 6.866656 10.135849
v 15.821247 5.445808 9.767800
v 15.821247 5.445808 9.767800
v 16.388292 7.312930 9.163078
v 16.388292 7.312930 9.163078
v 16.292652 6.384815 9.523332
v 16.292652 6.384815 9.523332
v 16.306149 6.981553 8.560906
v 16.232887 6.049451 8.731727
v 16.024912 7.600644 9.465436
v 15.811924 6.731411 10.038995
v 15.635331 5.623349 9.973809
v 15.861261 5.126004 9.247160
v 15.511761 4.348608 9.102086
v 15.511761 4.348608 9.102086
v 15.695430 5.735818 8.423083
v 15.695430 5.735818 8.423083
v 15.783872 5.107716 8.820282
v 15.783872 5.107716 8.820282
v 15.678807 5.306393 7.944793
v 15.789104 4.630641 8.183398
v 15.290094 5.943715 8.630401
v 15.254532 5.387690 9.195888
v 15.298640 4.491432 9.248345
v 15.610910 3.979444 8.697566
v 16.701067 4.588933 9.148335
v 16.701067 4.588933 9.148335
v 16.622759 6.224473 7.474515
v 16.622759 6.224473 7.474515
v 16.806379 5.275995 8.130934
v 16.806379 5.275995 8.130934
v 15.780865 5.933145 7.457348
v 15.741812 4.967453 8.012840
v 16.917189 6.795058 7.865637
v 17.328592 5.991758 8.711163
v 16.921227 4.913027 9.356524
v 16.008368 4.220613 9.028528
v 16.576029 3.938456 9.139167
v 16.576029 3.938456 9.139167
v 17.701406 5.753861 7.882035
v 17.701406 5.753861 7.882035
v 17.381599 4.901296 8.668053
v 17.381599 4.901296 8.668053
v 17.696938 5.092348 7.341711
v 17.452599 4.146807 7.934797
v 17.165474 6.172783 7.886591
v 16.641094 5.473941 8.816332
v 16.292902 4.210660 9.182927
v 16.719851 3.342699 8.745201
v 16.572161 3.715014 9.067345
v 16.256533 3.022956 6.984950
v 16.256533 3.022956 6.984950
v 16.451910 3.525376 7.940064
v 16.943298 2.573625 7.091546
v 17.317978 2.934653 7.970286
v 15.641601 2.976577 7.050205
v 15.557487 3.568691 8.096031
v 16.194349 3.724870 9.093703
v 17.240061 3.401161 9.126913
v 16.174515 7.452456 9.007584
v 15.063356 7.829142 9.452956
v 15.787807 6.110791 8.917578
v 14.676648 6.487475 9.362950
v 15.708912 7.602038 9.411362
v 15.708912 7.602038 9.411362
v 15.242455 6.291930 9.234405
v 14.897520 7.169543 9.469283
v 16.001354 6.766040 9.023124
v 15.525628 6.932795 9.455974
v 16.527527 4.942750 8.249666
v 15.834375 5.883239 9.106093
v 15.806693 3.891959 8.555839
v 15.113543 4.832448 9.412266
v 16.367006 5.335092 8.850525
v 16.367006 5.335092 8.850525
v 15.525277 4.352757 9.085647
v 15.525277 4.352757 9.085647
v 15.539658 5.355681 9.314182
v 16.219397 4.394004 8.464838
v 16.070827 4.808397 9.098589
v 16.070827 4.808397 9.098589
v 17.138226 5.334985 9.776303
v 16.324461 6.386191 9.954720
v 16.120998 4.407421 9.349790
v 15.307233 5.458627 9.528206
v 16.719561 5.757713 10.107252
v 16.719561 5.757713 10.107252
v 15.686465 4.915317 9.553254
v 15.686465 4.915317 9.553254
v 15.823043 5.911123 9.825549
v 16.616451 4.841056 9.639953
v 16.189571 5.284338 10.004017
v 16.189571 5.284338 10.004017
v 17.074638 7.068372 10.138944
v 16.283882 7.786469 10.091008
v 16.471069 6.184842 9.892015
v 15.680312 6.902938 9.844080
v 16.668070 7.388864 10.278300
v 16.668070 7.388864 10.278300
v 16.048939 6.546144 9.940619
v 15.983117 7.350931 10.022652
v 16.761740 6.615154 10.066538
v 16.343399 6.955462 10.224323
v 18.293871 5.675576 8.161157
v 17.625299 6.699903 9.744771
v 17.032614 4.383999 8.272720
v 16.364042 5.408326 9.856336
v 18.158794 5.976168 9.095444
v 18.158794 5.976168 9.095444
v 16.770111 4.828543 9.172422
v 17.073174 6.014097 9.853651
v 17.717669 4.963101 8.273170
v 17.601788 5.275987 9.254400
v 18.037876 2.813970 9.725941
v 17.808167 1.227705 8.664021
v 16.308336 3.218830 9.633845
v 16.078627 1.632565 8.571925
v 17.986732 2.240915 8.986023
v 17.986732 2.240915 8.986023
v 16.216005 2.481751 8.979226
v 16.989267 1.483271 8.546862
v 17.184929 3.078574 9.605738
v 17.152739 2.491109 8.822717
v 19.018909 3.901620 9.148051
v 17.177536 5.224222 10.673236
v 17.273855 2.318524 8.099551
v 15.432481 3.641126 9.624736
v 18.198404 4.242197 10.154156
v 18.198404 4.242197 10.154156
v 16.347984 2.871007 9.014142
v 16.352549 4.364674 10.251840
v 18.159590 3.009068 8.707269
v 17.328167 3.359736 9.781100
v 18.126101 1.750123 9.668673
v 18.005672 2.798413 7.408391
v 16.489979 3.222950 10.282439
v 16.369551 4.271241 8.022159
v 18.303045 2.519799 8.666057
v 18.303045 2.519799 8.666057
v 16.533751 3.886926 9.147995
v 17.287413 3.595670 7.731711
v 17.376574 2.578045 10.004622
v 17.591879 3.380653 8.961756
v 13.519524 5.736119 7.634355
v 14.387994 7.376676 8.873115
v 14.830683 4.083277 8.402614
v 15.699152 5.723833 9.641375
v 15.374487 4.991694 8.968729
v 14.148458 6.661501 8.068246
v 14.148458 6.661501 8.068246
v 14.829790 5.861980 8.268801
v 14.280613 4.877120 7.977774
v 15.146419 6.520876 9.215136
v 13.765516 4.891115 10.921732
v 15.000228 6.611959 10.576678
v 14.889016 3.439044 9.359232
v 16.123728 5.159888 9.014177
v 15.467854 4.405309 9.089032
v 14.230203 5.891383 10.552176
v 14.230203 5.891383 10.552176
v 14.616022 5.201422 9.726062
v 14.309889 4.150566 10.022501
v 15.542488 5.874198 9.680610
v 17.118031 6.278300 7.414974
v 16.847828 7.479918 8.573740
v 16.960625 4.924453 8.460564
v 16.690424 6.126071 9.619330
v 16.895098 5.569571 9.091090
v 17.151495 6.911335 8.044031
v 17.182438 6.233910 8.507264
v 17.090712 5.557745 7.984631
v 16.820728 6.762011 9.141331
v 17.354776 6.075359 10.178192
v 16.522329 7.229764 10.262513
v 16.369682 5.191340 9.783156
v 15.537235 6.345743 9.867476
v 15.915324 5.789190 9.891226
v 16.899786 6.635068 10.361431
v 16.455236 6.153870 10.248459
v 16.819309 5.590167 10.012713
v 15.988807 6.746324 10.097736
v 14.938323 1.738830 7.433654
v 14.125065 0.913341 8.940907
v 16.063374 2.882329 8.523488
v 15.250114 2.056840 10.030742
v 15.566907 2.520419 9.324064
v 14.377594 1.483599 8.208626
v 14.862125 2.147439 8.660414
v 15.494209 2.407176 8.015774
v 14.678818 1.579356 9.520891
v 16.868601 5.277581 6.633584
v 17.258358 3.490431 7.469296
v 15.257575 6.005603 8.585133
v 15.647332 4.218453 9.420844
v 15.374487 4.991694 8.968729
v 16.869822 4.215756 6.930006
v 16.869822 4.215756 6.930006
v 15.987276 4.552710 7.741755
v 15.940504 5.621617 7.633599
v 16.333525 3.833112 8.465554
vn -0.5846 0.1981 0.7868
vn -0.5334 0.2415 0.8106
vn -0.5328 0.2421 0.8109
vn -0.5845 0.1981 0.7868
vn -0.6990 0.1247 -0.7042
vn -0.8424 0.0453 -0.5370
vn -0.8335 0.0512 -0.5502
vn -0.6990 0.1247 -0.7041
vn 0.2249 -0.1125 -0.9679
vn 0.2134 -0.1900 -0.9583
vn 0.2138 -0.1869 -0.9588
vn 0.9736 -0.2163 0.0732
vn 0.9874 -0.1417 0.0709
vn 0.9877 -0.1391 0.0710
vn 0.9736 -0.2163 0.0731
vn 0.7038 -0.1068 0.7024
vn 0.7315 0.0062 0.6818
vn 0.7331 0.0141 0.6800
vn -0.3477 0.2268 0.9098
vn -0.3489 0.2274 0.9092
vn -0.9236 -0.0655 -0.3777
vn -0.9245 -0.0626 -0.3761
vn 0.3818 -0.1944 -0.9036
vn 0.3827 -0.1940 -0.9033
vn 0.9910 0.0282 0.1309
vn 0.9917 0.0320 0.1242
vn 0.7499 0.1274 0.6491
vn -0.0699 0.1252 0.9897
vn -0.0639 0.1235 0.9903
vn -0.9535 0.0040 0.3013
vn -0.9375 0.2056 0.2809
vn -0.9391 0.1963 0.2822
vn -0.8160 0.0565 -0.5752
vn -0.8258 0.0442 -0.5622
vn 0.5094 -0.1864 -0.8401
vn 0.5095 -0.1863 -0.8401
vn 0.7384 -0.0155 0.6741
vn 0.9910 0.0282 0.1308
vn 0.7311 -0.0036 0.6823
vn 0.7385 -0.0155 0.6741
vn 0.1292 0.0196 0.9914
vn 0.1545 -0.0081 0.9880
vn -0.8573 0.2572 0.4459
vn -0.8560 0.2539 0.4504
vn -0.6803 0.1894 -0.7080
vn -0.6803 0.1898 -0.7079
vn 0.3724 -0.1120 -0.9213
vn 0.3809 -0.1236 -0.9163
vn 0.9060 -0.3350 0.2588
vn 0.9492 -0.2490 0.1926
vn 0.9427 -0.2639 0.2040
vn 0.6834 -0.1855 0.7061
vn 0.6116 -0.2442 0.7525
vn -0.7965 0.1450 0.5870
vn -0.7976 0.1472 0.5849
vn -0.6559 0.2821 -0.7001
vn -0.6555 0.2833 -0.7001
vn 0.1162 0.1262 -0.9852
vn 0.1280 0.1184 -0.9847
vn 0.9759 -0.2176 0.0190
vn 0.9762 -0.2154 0.0260
vn 0.6129 -0.2611 0.7458
vn -0.3011 -0.1204 0.9460
vn -0.1028 -0.0500 0.9934
vn -0.0913 -0.0459 0.9948
vn -0.8948 0.1712 0.4123
vn -0.8972 0.1709 0.4072
vn -0.6234 0.3811 -0.6827
vn -0.0340 0.0990 -0.9945
vn -0.0336 0.1056 -0.9938
vn 0.9656 -0.1925 -0.1749
vn 0.9657 -0.1949 -0.1717
vn 0.6605 -0.2133 0.7199
vn 0.6642 -0.2015 0.7199
vn 0.0802 0.0207 0.9966
vn -0.9813 0.0894 0.1706
vn -0.9812 0.0895 0.1708
vn -0.6976 0.0773 -0.7123
vn -0.6987 0.0677 -0.7122
vn -0.6987 0.0680 -0.7122
vn -0.0020 -0.0011 -1.0000
vn -0.0030 -0.0014 -1.0000
vn 0.9644 -0.0767 -0.2529
vn 0.9644 -0.0770 -0.2531
vn 0.7026 -0.0517 0.7097
vn -0.0995 0.1206 0.9877
vn -0.0942 0.1171 0.9886
vn -0.9869 0.1349 0.0884
vn -0.9875 0.1308 0.0884
vn -0.6997 0.0582 -0.7121
vn 0.0396 -0.0660 -0.9970
vn 0.0399 -0.0728 -0.9966
vn 0.9585 -0.1312 -0.2532
vn 0.9588 -0.1287 -0.2533
vn 0.7012 -0.0433 0.7116
vn 0.7031 -0.0325 0.7103
vn 0.7032 -0.0333 0.7102
vn -0.2513 0.2172 0.9432
vn -0.2514 0.2172 0.9432
vn -0.9662 0.2419 0.0885
vn -0.9662 0.2420 0.0886
vn -0.7065 0.0406 -0.7065
vn 0.0439 -0.1463 -0.9883
vn 0.0438 -0.1463 -0.9883
vn 0.9386 -0.2376 -0.2501
vn 0.7051 -0.0230 0.7087
vn -0.3855 0.0558 -0.9210
vn -0.4595 0.1807 -0.8696
vn -0.4652 0.1910 -0.8644
vn -0.3856 0.0558 -0.9210
vn 0.9471 0.1113 -0.3010
vn 0.8798 0.2777 -0.3859
vn 0.8629 0.3083 -0.4004
vn 0.9471 0.1113 -0.3009
vn 0.7132 -0.0006 0.7010
vn 0.7438 -0.0899 0.6624
vn 0.7364 -0.0663 0.6733
vn 0.1736 -0.0615 0.9829
vn -0.8789 -0.1072 0.4648
vn -0.7989 -0.2915 0.5261
vn -0.7940 -0.3004 0.5286
vn -0.8790 -0.1072 0.4647
vn -0.9736 -0.0547 -0.2217
vn -0.9346 -0.0038 -0.3556
vn -0.9289 0.0020 -0.3703
vn -0.4746 0.2322 -0.8490
vn -0.4605 0.2120 -0.8620
vn 0.7526 0.4633 -0.4678
vn 0.7527 0.4633 -0.4678
vn 0.7511 -0.1244 0.6483
vn 0.7558 -0.1265 0.6424
vn -0.6782 -0.4696 0.5653
vn -0.8783 0.0973 -0.4681
vn -0.8786 0.0987 -0.4673
vn -0.3540 -0.0113 -0.9352
vn -0.6143 -0.0199 -0.7888
vn 0.7908 -0.0412 -0.6107
vn 0.8079 0.0266 -0.5887
vn 0.8080 0.0271 -0.5886
vn 0.7910 -0.0397 -0.6105
vn 0.5083 0.0415 0.8602
vn 0.7511 -0.1244 0.6484
vn 0.5005 0.0441 0.8646
vn -0.6577 0.0199 0.7530
vn -0.7098 -0.0143 0.7042
vn -0.7087 -0.0135 0.7054
vn -0.8128 -0.0239 -0.5820
vn -0.7557 -0.2137 -0.6191
vn 0.7934 -0.0094 -0.6087
vn 0.7920 -0.0138 -0.6104
vn 0.9622 0.2054 0.1787
vn 0.9653 0.1848 0.1844
vn 0.9655 0.1834 0.1848
vn 0.3986 0.2623 0.8788
vn 0.3959 0.2653 0.8791
vn -0.7577 0.0504 0.6507
vn -0.7576 0.0547 0.6504
vn -0.7517 -0.2115 -0.6246
vn -0.2867 -0.3023 -0.9091
vn -0.2631 -0.1824 -0.9474
vn -0.2627 -0.1804 -0.9479
vn 0.7542 -0.1157 -0.6464
vn 0.9681 0.1631 0.1904
vn 0.3357 0.3289 0.8827
vn -0.7520 0.1508 0.6417
vn -0.9146 -0.1139 -0.3880
vn -0.9101 -0.1201 -0.3966
vn 0.1094 0.0254 -0.9937
vn -0.2024 0.0249 -0.9790
vn 0.5446 -0.0637 -0.8362
vn 0.4200 0.0288 -0.9071
vn 0.1096 0.0254 -0.9937
vn 0.5447 -0.0637 -0.8362
vn 0.9752 0.0249 0.2199
vn 0.9749 0.0418 0.2187
vn 0.9749 0.0417 0.2188
vn 0.2459 0.0763 0.9663
vn -0.0957 -0.0194 0.9952
vn 0.2145 0.0007 0.9767
vn -0.5033 0.0568 0.8622
vn -0.3906 -0.0319 0.9200
vn -0.0958 -0.0194 0.9952
vn -0.5034 0.0568 0.8622
vn -0.9756 -0.0144 -0.2189
vn -0.9757 -0.0145 -0.2188
vn 0.3411 0.1343 -0.9304
vn 0.3470 0.1342 -0.9282
vn 0.3411 0.1344 -0.9304
vn 0.9715 0.0853 0.2213
vn 0.9717 0.0843 0.2207
vn -0.2750 -0.1048 0.9557
vn -0.2871 -0.1053 0.9521
vn -0.9740 -0.0606 -0.2183
vn -0.9739 -0.0617 -0.2185
vn -0.3041 0.0466 -0.9515
vn -0.2707 0.0995 -0.9575
vn -0.2711 0.0990 -0.9574
vn 0.5388 0.1786 -0.8233
vn 0.5399 0.1788 -0.8225
vn 0.9831 0.1210 0.1371
vn 0.9835 0.1214 0.1340
vn -0.0771 -0.1226 0.9895
vn 0.1933 -0.0994 0.9761
vn -0.3532 -0.1294 0.9266
vn -0.9869 -0.0839 -0.1375
vn -0.9868 -0.0840 -0.1385
vn -0.2380 0.1498 -0.9597
vn -0.2380 0.1497 -0.9597
vn 0.6594 0.2033 -0.7238
vn 0.9904 0.1306 0.0449
vn 0.9904 0.1306 0.0448
vn 0.2302 -0.1555 0.9606
vn -0.4024 -0.1684 0.8999
vn -0.4023 -0.1684 0.8999
vn -0.9955 -0.0773 -0.0543
vn -0.9227 0.1488 0.3555
vn -0.9074 0.1180 0.4033
vn -0.9072 0.1176 0.4039
vn -0.9228 0.1488 0.3554
vn -0.8841 0.2073 -0.4188
vn -0.8778 0.2869 -0.3836
vn -0.8736 0.3171 -0.3692
vn -0.2727 0.1363 -0.9524
vn -0.1327 0.2744 -0.9524
vn -0.1487 0.2594 -0.9543
vn -0.2727 0.1362 -0.9524
vn 0.9303 -0.1378 -0.3399
vn 0.8803 -0.0602 -0.4706
vn 0.8863 -0.0681 -0.4580
vn 0.9303 -0.1378 -0.3400
vn 0.9501 -0.1925 0.2455
vn 0.9233 -0.2763 0.2668
vn 0.9237 -0.2753 0.2666
vn 0.1111 -0.0938 0.9894
vn 0.0756 -0.2324 0.9697
vn 0.0730 -0.2421 0.9675
vn 0.1110 -0.0938 0.9894
vn -0.8214 0.0316 0.5695
vn -0.8124 0.0252 0.5826
vn -0.9023 0.2630 -0.3417
vn -0.9044 0.2550 -0.3421
vn -0.0523 0.2711 -0.9611
vn -0.0503 0.2762 -0.9598
vn 0.7706 0.0347 -0.6364
vn 0.7752 0.0323 -0.6309
vn 0.9264 -0.2243 0.3025
vn 0.9249 -0.2311 0.3018
vn 0.1274 -0.2609 0.9569
vn 0.1321 -0.2548 0.9579
vn -0.7247 -0.0306 0.6884
vn -0.7247 -0.0307 0.6884
vn -0.9301 0.1239 -0.3457
vn -0.0964 0.1556 -0.9831
vn 0.7240 0.0571 -0.6875
vn 0.7239 0.0571 -0.6875
vn 0.9448 -0.0957 0.3133
vn 0.2196 -0.1360 0.9661
vn 0.2197 -0.1360 0.9660
vn 0.2360 0.9665 0.1008
vn 0.2362 0.9665 0.1008
vn -0.1277 0.9908 -0.0452
vn 0.2928 0.9523 -0.0862
vn 0.4570 0.7724 -0.4411
vn 0.4082 0.6758 -0.6137
vn 0.2559 0.7250 -0.6394
vn 0.3588 0.8191 -0.4476
vn 0.1662 0.7911 -0.5887
vn 0.2271 0.5884 -0.7760
vn 0.0632 0.6596 -0.7489
vn 0.2374 0.8616 -0.4486
vn 0.3315 0.5309 -0.7799
vn 0.2296 0.6596 0.7157
vn 0.3867 0.5419 0.7462
vn 0.4898 0.5935 0.6386
vn 0.2920 0.7086 0.6423
vn 0.4997 0.6702 0.5487
vn 0.6002 0.4443 0.6651
vn 0.6710 0.5247 0.5238
vn 0.3595 0.7544 0.5492
vn 0.5443 0.3848 0.7454
vn -0.5596 0.5136 0.6504
vn -0.4845 0.3625 0.7962
vn -0.3401 0.4240 0.8394
vn -0.4658 0.5678 0.6787
vn -0.2651 0.5157 0.8147
vn -0.2845 0.2450 0.9268
vn -0.1281 0.3424 0.9308
vn -0.3532 0.6200 0.7006
vn -0.3770 0.1801 0.9085
vn 0.9449 0.3001 -0.1307
vn 0.9355 0.3479 0.0621
vn 0.9651 0.2288 0.1275
vn 0.9707 0.2180 -0.1009
vn 0.9866 0.1274 0.1021
vn 0.9100 0.2864 0.2999
vn 0.9396 0.1342 0.3149
vn 0.9909 0.1181 -0.0644
vn 0.8770 0.3865 0.2853
vn 0.9748 0.1256 -0.1842
vn 0.8767 -0.0077 -0.4809
vn 0.9404 0.1831 -0.2867
vn 0.8419 0.1117 -0.5280
vn 0.8018 -0.2130 -0.5583
vn 0.7186 -0.0847 -0.6902
vn 0.8877 0.2417 -0.3918
vn 0.8369 -0.2876 -0.4658
vn 0.6826 -0.2251 -0.6953
vn 0.8115 -0.0949 -0.5765
vn 0.8732 -0.2119 -0.4388
vn 0.7244 -0.3241 -0.6085
vn 0.8521 -0.3506 -0.3885
vn 0.9421 -0.0570 -0.3306
vn 0.9551 -0.2260 -0.1918
vn 0.7528 -0.4211 -0.5059
vn 0.9093 0.0548 -0.4126
vn 0.3459 0.0660 -0.9359
vn 0.4956 0.1850 -0.8486
vn 0.6232 0.0509 -0.7804
vn 0.4303 -0.0469 -0.9015
vn 0.6351 -0.1074 -0.7649
vn 0.7180 0.1801 -0.6724
vn 0.7985 -0.0199 -0.6017
vn 0.5071 -0.1611 -0.8467
vn 0.6412 0.3122 -0.7010
vn -0.3497 -0.4080 0.8434
vn -0.5129 -0.2355 0.8255
vn -0.6261 -0.3033 0.7183
vn -0.4265 -0.4660 0.7752
vn -0.6450 -0.4066 0.6471
vn -0.7200 -0.1082 0.6855
vn -0.8052 -0.2182 0.5514
vn -0.5045 -0.5225 0.6874
vn -0.6540 -0.0384 0.7555
vn 0.6363 -0.6170 -0.4631
vn 0.7651 -0.5322 -0.3625
vn 0.7593 -0.6098 -0.2271
vn 0.6247 -0.6822 -0.3800
vn 0.6973 -0.6953 -0.1739
vn 0.8587 -0.4902 -0.1493
vn 0.8041 -0.5942 -0.0175
vn 0.6022 -0.7476 -0.2800
vn 0.8800 -0.4139 -0.2329
vn 0.9185 -0.0909 -0.3848
vn 0.9747 -0.0476 -0.2183
vn 0.9629 -0.2418 -0.1196
vn 0.9046 -0.2424 -0.3507
vn 0.8980 -0.4125 -0.1532
vn 0.9839 -0.1739 0.0417
vn 0.9108 -0.4063 0.0737
vn 0.8630 -0.4046 -0.3026
vn 0.9998 0.0125 0.0151
vn 0.9748 0.0656 -0.2130
vn 0.9947 0.0951 -0.0382
vn 0.9929 -0.1125 0.0374
vn 0.9753 -0.0922 -0.2006
vn 0.9561 -0.2917 -0.0280
vn 0.9760 -0.0696 0.2062
vn 0.9304 -0.3123 0.1921
vn 0.9462 -0.2687 -0.1803
vn 0.9692 0.1311 0.2084
vn -0.7934 -0.3220 -0.5165
vn -0.6847 -0.3439 -0.6426
vn -0.6151 -0.5093 -0.6019
vn -0.7755 -0.4271 -0.4650
vn -0.6254 -0.6102 -0.4864
vn -0.4865 -0.5010 -0.7158
vn -0.4535 -0.6623 -0.5964
vn -0.7366 -0.5530 -0.3894
vn -0.4984 -0.3582 -0.7895
vn -0.4402 0.7259 -0.5285
vn -0.5748 0.5929 -0.5640
vn -0.6680 0.6035 -0.4354
vn -0.4967 0.7496 -0.4374
vn -0.6781 0.6587 -0.3260
vn -0.7571 0.4471 -0.4763
vn -0.8138 0.4890 -0.3141
vn -0.5551 0.7657 -0.3248
vn -0.7046 0.4102 -0.5791
vn 0.9770 0.1906 -0.0955
vn 0.9151 0.4032 0.0038
vn 0.9143 0.3727 0.1585
vn 0.9866 0.1633 0.0040
vn 0.9341 0.2768 0.2253
vn 0.8018 0.5590 0.2113
vn 0.8052 0.4659 0.3669
vn 0.9847 0.1310 0.1153
vn 0.7865 0.6075 0.1115
vn 0.3709 0.3039 0.8775
vn 0.3709 0.3039 0.8776
vn 0.5089 0.3597 0.7821
vn 0.4792 0.3481 0.8057
vn 0.8079 -0.1270 0.5754
vn 0.7483 -0.1827 0.6377
vn 0.7209 -0.2055 0.6619
vn 0.6080 0.3962 0.6880
vn 0.6080 0.3961 0.6881
vn 0.6502 -0.2583 0.7145
vn 0.6430 -0.1421 0.7526
vn 0.6429 -0.1421 0.7526
vn 0.6133 -0.4220 0.6677
vn 0.7117 -0.1927 0.6755
vn 0.6521 -0.4932 0.5758
vn 0.4095 -0.6168 0.6722
vn 0.4990 -0.6479 0.5755
vn 0.8000 -0.2664 0.5376
vn 0.3256 -0.5806 0.7462
vn 0.3257 -0.5806 0.7462
vn -0.3280 0.5754 0.7492
vn -0.1364 0.4196 0.8974
vn -0.0479 0.5450 0.8371
vn -0.2124 0.6495 0.7301
vn 0.0742 0.5802 0.8111
vn 0.0885 0.3428 0.9352
vn 0.1910 0.4218 0.8863
vn -0.0593 0.7256 0.6855
vn 0.0132 0.2815 0.9595
vn -0.9415 -0.0100 0.3369
vn -0.9964 0.0631 0.0561
vn -0.9880 -0.1489 0.0410
vn -0.9504 -0.1912 0.2454
vn -0.9526 -0.2946 -0.0760
vn -0.9805 -0.0272 -0.1947
vn -0.9455 -0.2036 -0.2543
vn -0.9139 -0.3840 0.1315
vn -0.9834 0.1110 -0.1434
vn -0.0109 0.7675 0.6409
vn 0.2004 0.7046 0.6808
vn 0.2137 0.7925 0.5712
vn 0.0430 0.8290 0.5576
vn 0.2840 0.8235 0.4912
vn 0.3864 0.6828 0.6201
vn 0.4211 0.7408 0.5233
vn 0.1131 0.8925 0.4366
vn 0.3563 0.6320 0.6882
vn -0.8809 -0.2771 -0.3837
vn -0.8809 -0.2771 -0.3836
vn -0.7041 -0.2426 -0.6674
vn -0.7938 -0.3769 -0.4773
vn -0.5937 -0.3098 -0.7427
vn -0.5898 -0.0124 -0.8075
vn -0.4924 -0.1267 -0.8611
vn -0.6631 -0.4825 -0.5723
vn -0.6499 0.0690 -0.7569
vn -0.8953 -0.3822 0.2289
vn -0.9568 -0.2901 -0.0191
vn -0.9004 -0.4327 -0.0457
vn -0.8612 -0.4843 0.1544
vn -0.8530 -0.5050 -0.1316
vn -0.9261 -0.2877 -0.2441
vn -0.8687 -0.3947 -0.2993
vn -0.7969 -0.6015 0.0564
vn -0.9570 -0.2082 -0.2019
vn -0.9694 -0.0531 0.2395
vn -0.9991 0.0411 -0.0109
vn -0.9941 -0.1049 -0.0281
vn -0.9724 -0.1595 0.1702
vn -0.9760 -0.1919 -0.1033
vn -0.9729 0.0240 -0.2302
vn -0.9564 -0.0946 -0.2762
vn -0.9549 -0.2854 0.0818
vn -0.9748 0.1086 -0.1949
vn -0.5405 -0.2705 0.7966
vn -0.7401 -0.1595 0.6533
vn -0.7364 -0.3035 0.6047
vn -0.5823 -0.3711 0.7233
vn -0.7697 -0.3771 0.5152
vn -0.8685 -0.1504 0.4723
vn -0.8796 -0.2594 0.3988
vn -0.6197 -0.4855 0.6166
vn -0.8516 -0.0716 0.5193
vn -0.8327 -0.0757 0.5486
vn -0.8327 -0.0756 0.5486
vn -0.9704 -0.0082 0.2413
vn -0.8884 -0.1670 0.4276
vn -0.9902 -0.0811 0.1139
vn -0.9725 0.2261 0.0560
vn -0.9930 0.1076 -0.0496
vn -0.9241 -0.2677 0.2726
vn -0.9427 0.3071 0.1304
vn 0.9837 -0.1062 -0.1453
vn 0.9837 -0.1062 -0.1452
vn 0.9128 -0.3866 -0.1316
vn 0.9540 -0.1772 -0.2419
vn 0.8529 -0.4812 -0.2023
vn 0.8296 -0.5539 0.0710
vn 0.7912 -0.6093 -0.0525
vn 0.8786 -0.2825 -0.3851
vn 0.8503 -0.4935 0.1826
vn -0.7443 0.6650 0.0615
vn -0.8341 0.4835 0.2655
vn -0.7383 0.5826 0.3398
vn -0.6834 0.7119 0.1618
vn -0.6744 0.5924 0.4408
vn -0.8041 0.3618 0.4718
vn -0.7215 0.4179 0.5520
vn -0.5849 0.7568 0.2918
vn -0.8565 0.3166 0.4077
vn -0.5737 0.8042 0.1555
vn -0.5101 0.7831 0.3557
vn -0.4077 0.8626 0.2997
vn -0.4762 0.8668 0.1482
vn -0.3033 0.8992 0.3154
vn -0.3684 0.7935 0.4843
vn -0.2677 0.8488 0.4560
vn -0.3368 0.9318 0.1353
vn -0.4443 0.7421 0.5019
vn 0.3702 -0.7265 0.5789
vn 0.1383 -0.6713 0.7282
vn 0.0839 -0.7864 0.6120
vn 0.2830 -0.8110 0.5120
vn -0.0261 -0.8337 0.5517
vn -0.1082 -0.6594 0.7440
vn -0.1824 -0.7376 0.6502
vn 0.1575 -0.8999 0.4067
vn -0.0506 -0.5913 0.8049
vn -0.7166 0.6363 -0.2858
vn -0.8591 0.5023 -0.0981
vn -0.7868 0.6170 -0.0160
vn -0.6859 0.7058 -0.1771
vn -0.7546 0.6485 0.1002
vn -0.8924 0.4355 0.1184
vn -0.8347 0.5075 0.2138
vn -0.6288 0.7769 -0.0326
vn -0.9246 0.3779 0.0471
vn -0.9874 -0.1410 0.0716
vn -0.9881 0.0196 0.1525
vn -0.9853 0.0449 0.1649
vn -0.6486 -0.2870 0.7049
vn -0.5701 -0.1610 0.8057
vn -0.5701 -0.1610 0.8056
vn -0.6400 -0.2719 0.7186
vn -0.9532 0.1915 0.2341
vn -0.7010 -0.3917 0.5960
vn -0.7011 -0.3916 0.5959
vn 0.2749 -0.1025 0.9560
vn 0.1306 0.0537 0.9900
vn 0.1523 0.0308 0.9879
vn 0.6742 0.3814 0.6324
vn 0.6096 0.5184 0.5997
vn 0.6796 0.3677 0.6348
vn 0.0117 0.1759 0.9843
vn 0.7271 0.2182 0.6510
vn -0.6977 -0.1485 0.7008
vn -0.6583 0.0193 0.7525
vn -0.6513 0.0421 0.7576
vn -0.0199 -0.2377 0.9711
vn 0.0936 -0.1047 0.9901
vn 0.0937 -0.1047 0.9901
vn -0.0072 -0.2231 0.9748
vn -0.5936 0.1960 0.7805
vn -0.1219 -0.3515 0.9282
vn 0.1915 -0.1262 0.9733
vn 0.1455 0.0618 0.9874
vn 0.1476 0.0539 0.9876
vn 0.7808 0.1101 0.6150
vn 0.7868 0.2589 0.5603
vn 0.7810 0.1113 0.6146
vn 0.0998 0.2281 0.9685
vn 0.7550 -0.0426 0.6544
vn 0.7549 -0.0426 0.6544
vn -0.9274 0.0064 0.3739
vn -0.9189 0.1953 0.3428
vn -0.9191 0.1936 0.3432
vn -0.9274 0.0063 0.3739
vn -0.4276 0.1454 0.8922
vn -0.3414 0.2879 0.8947
vn -0.4222 0.1550 0.8931
vn -0.8808 0.3641 0.3028
vn -0.8808 0.3641 0.3027
vn -0.4984 0.0065 0.8669
vn 0.6703 -0.1485 0.7271
vn 0.7236 0.0193 0.6899
vn 0.7290 0.0421 0.6832
vn 0.9694 -0.2377 0.0615
vn 0.9932 -0.1047 -0.0510
vn 0.9932 -0.1048 -0.0510
vn 0.9736 -0.2231 0.0490
vn 0.7544 0.1960 0.6265
vn 0.9221 -0.3515 0.1616
vn 0.9221 -0.3515 0.1617
vn 0.6024 0.0774 0.7944
vn 0.6346 0.2947 0.7145
vn 0.6364 0.3240 0.7000
vn 0.9949 -0.0485 0.0886
vn 0.9900 0.1045 -0.0951
vn 0.9985 -0.0179 0.0520
vn 0.6309 0.5062 0.5880
vn 0.9564 -0.1723 0.2359
vn 0.8646 -0.4539 -0.2154
vn 0.8755 -0.3164 -0.3651
vn 0.8735 -0.2883 -0.3922
vn 0.2997 -0.6455 -0.7025
vn 0.2195 -0.5100 -0.8317
vn 0.2931 -0.6345 -0.7152
vn 0.8460 -0.1510 -0.5113
vn 0.3633 -0.7476 -0.5560
vn 0.3632 -0.7476 -0.5561
vn 0.3240 0.1815 0.9285
vn 0.4138 0.3557 0.8380
vn 0.4212 0.3712 0.8275
vn 0.8922 -0.2371 0.3844
vn 0.9673 -0.1429 0.2094
vn 0.9060 -0.2237 0.3594
vn 0.4855 0.5162 0.7056
vn 0.7932 -0.3109 0.5236
vn 0.2798 0.9355 -0.2159
vn 0.2522 0.8963 -0.3647
vn -0.0300 0.9418 -0.3347
vn 0.0173 0.9859 -0.1666
vn 0.5136 0.7705 -0.3774
vn 0.5143 0.7032 -0.4910
vn -0.0715 0.8767 -0.4756
vn 0.5029 0.8282 -0.2473
vn 0.6331 -0.1325 0.7626
vn 0.6332 -0.1326 0.7626
vn 0.3120 -0.1904 0.9308
vn 0.5485 -0.2654 0.7929
vn 0.2535 -0.3249 0.9111
vn 0.0408 -0.1028 0.9939
vn 0.0248 -0.2494 0.9681
vn 0.4603 -0.3790 0.8028
vn 0.0546 0.0312 0.9980
vn 0.0545 0.0315 0.9980
vn 0.8582 -0.3042 0.4136
vn 0.8582 -0.3041 0.4136
vn 0.7474 -0.4174 0.5169
vn 0.7240 -0.4367 0.5340
vn 0.2991 -0.2161 0.9294
vn 0.3980 -0.0630 0.9152
vn 0.4081 -0.0462 0.9118
vn 0.2992 -0.2161 0.9294
vn 0.5818 -0.5320 0.6152
vn 0.4883 0.1014 0.8668
vn 0.4883 0.1013 0.8668
vn 0.2302 -0.4623 0.8563
vn 0.2302 -0.4624 0.8563
vn 0.0703 -0.5292 0.8456
vn 0.0411 -0.5395 0.8410
vn -0.4933 -0.1658 0.8539
vn -0.3991 -0.0488 0.9156
vn -0.3876 -0.0352 0.9211
vn -0.4932 -0.1659 0.8540
vn -0.1215 -0.5874 0.8001
vn -0.2867 0.0778 0.9549
vn 0.1495 -0.2440 0.9582
vn 0.1496 -0.2441 0.9581
vn -0.2078 -0.1733 0.9627
vn 0.0029 -0.3386 0.9409
vn -0.3026 -0.2831 0.9101
vn -0.4184 0.0081 0.9082
vn -0.4857 -0.1279 0.8647
vn -0.1201 -0.4098 0.9042
vn -0.3530 0.1236 0.9274
vn -0.3530 0.1235 0.9274
vn 0.7739 -0.5666 0.2829
vn 0.5678 -0.5685 0.5953
vn 0.6389 -0.6827 0.3546
vn 0.4228 -0.6694 0.6109
vn 0.4470 -0.4037 0.7982
vn 0.3236 -0.5322 0.7823
vn 0.4963 -0.7661 0.4084
vn 0.5428 -0.2815 0.7913
vn 0.3248 0.7438 -0.5841
vn 0.3251 0.7435 -0.5844
vn 0.1303 0.5503 -0.8247
vn 0.1503 0.7514 -0.6425
vn -0.0420 0.5558 -0.8303
vn 0.0903 0.2985 -0.9501
vn -0.0649 0.3538 -0.9331
vn -0.0157 0.7360 -0.6768
vn 0.2332 0.2394 -0.9425
vn 0.2332 0.2393 -0.9425
vn 0.4371 -0.6901 0.5768
vn 0.4371 -0.6903 0.5766
vn 0.1218 -0.6815 0.7216
vn 0.2927 -0.7801 0.5530
vn -0.0021 -0.7555 0.6552
vn -0.0637 -0.5299 0.8457
vn -0.1562 -0.6299 0.7608
vn 0.1518 -0.8425 0.5169
vn 0.0192 -0.4303 0.9025
vn 0.7407 0.4564 0.4931
vn 0.7408 0.4564 0.4929
vn 0.6666 0.6924 0.2762
vn 0.6442 0.5690 0.5111
vn 0.5401 0.7822 0.3106
vn 0.6455 0.7631 0.0311
vn 0.5295 0.8413 0.1087
vn 0.5239 0.6763 0.5178
vn 0.7473 0.6626 -0.0493
vn 0.7473 0.6627 -0.0493
vn 0.8358 0.2066 -0.5086
vn 0.7675 0.0748 -0.6367
vn 0.6711 0.1712 -0.7214
vn 0.7788 0.3198 -0.5397
vn 0.4286 0.0774 -0.9002
vn 0.5787 0.0001 -0.8155
vn 0.4285 0.0774 -0.9002
vn 0.6735 -0.0551 -0.7371
vn 0.7065 0.4303 -0.5620
vn -0.3900 0.3610 -0.8471
vn -0.5250 0.2127 -0.8241
vn -0.6175 0.2840 -0.7335
vn -0.4262 0.4546 -0.7821
vn -0.8235 0.1303 -0.5522
vn -0.7211 0.0915 -0.6868
vn -0.8236 0.1303 -0.5520
vn -0.6346 0.0620 -0.7703
vn -0.4581 0.5472 -0.7005
vn 0.9123 0.0397 0.4075
vn 0.9539 -0.0680 0.2922
vn 0.9809 0.0144 0.1941
vn 0.9227 0.1360 0.3607
vn 0.9816 0.1152 0.1524
vn 0.9901 -0.1180 0.0764
vn 0.9973 -0.0421 -0.0605
vn 0.9700 -0.1705 0.1733
vn 0.9224 0.2312 0.3095
vn -0.4070 -0.1627 0.8988
vn -0.3122 -0.2902 0.9046
vn -0.1990 -0.2335 0.9518
vn -0.3442 -0.0793 0.9355
vn -0.1400 -0.1403 0.9802
vn -0.1021 -0.3753 0.9213
vn 0.0460 -0.3194 0.9465
vn -0.2096 -0.4104 0.8875
vn -0.2775 0.0048 0.9607
vn -0.6810 0.6923 0.2386
vn -0.6160 0.7808 0.1042
vn -0.6922 0.7217 -0.0017
vn -0.7602 0.6187 0.1980
vn -0.7702 0.6362 -0.0456
vn -0.5828 0.7985 -0.1505
vn -0.6403 0.7160 -0.2782
vn -0.5251 0.8499 -0.0444
vn -0.8329 0.5321 0.1524
vn -0.7961 -0.5421 -0.2691
vn -0.8537 -0.3673 -0.3692
vn -0.7841 -0.3921 -0.4811
vn -0.7280 -0.6028 -0.3266
vn -0.7265 -0.1440 -0.6719
vn -0.8179 -0.1635 -0.5517
vn -0.8738 -0.1757 -0.4534
vn -0.6385 -0.6643 -0.3885
vn -0.6385 -0.6644 -0.3885
vt 0.966382 8.503631
vt 0.966382 6.725045
vt 0.810921 6.725045
vt 0.810921 8.503631
vt 0.344539 8.503631
vt 0.344539 6.725048
vt 0.189079 6.725048
vt 0.189079 8.503631
vt 0.500000 8.503631
vt 0.500000 6.725048
vt 0.655461 8.503631
vt 0.655461 6.725048
vt 0.966382 4.946462
vt 0.810921 4.946462
vt 0.344539 4.946462
vt 0.189079 4.946462
vt 0.500000 4.946462
vt 0.655461 4.946462
vt 0.966382 3.167876
vt 0.810921 3.167876
vt 0.189079 3.167876
vt 0.033618 3.167878
vt 0.344539 3.167876
vt 0.500000 3.167876
vt 0.655461 3.167876
vt 0.966382 1.389293
vt 0.810921 1.389293
vt 0.189079 1.389293
vt 0.033618 1.389293
vt 0.344539 1.389293
vt 0.500000 1.389293
vt 0.655461 1.389293
vt 0.810921 -0.389293
vt 0.189079 -0.389293
vt 0.033618 -0.389292
vt 0.344539 -0.389293
vt 0.500000 -0.389293
vt 0.655461 -0.389293
vt 0.966382 -0.389294
vt 0.966382 -2.167878
vt 0.810921 -2.167878
vt 0.189079 -2.167876
vt 0.033618 -2.167876
vt 0.500000 -2.167877
vt 0.344539 -2.167877
vt 0.655461 -2.167877
vt 0.966382 -3.946462
vt 0.810921 -3.946462
vt 0.189079 -3.946462
vt 0.033618 -3.946462
vt 0.344539 -3.946462
vt 0.500000 -3.946462
vt 0.655461 -3.946462
vt 0.966382 -5.725047
vt 0.810921 -5.725047
vt 0.189079 -5.725045
vt 0.033618 -5.725045
vt 0.500000 -5.725046
vt 0.344539 -5.725046
vt 0.655461 -5.725046
vt 0.966382 -7.503632
vt 0.810921 -7.503630
vt 0.189079 -7.503630
vt 0.033618 -7.503630
vt 0.344539 -7.503630
vt 0.500000 -7.503630
vt 0.655461 -7.503630
vt 0.033618 6.725048
vt 0.033618 8.503633
vt 0.033618 4.946462
vt 0.000000 0.000000
vt 0.475004 0.000000
vt 0.581436 0.594393
vt 0.000000 0.491831
vt 0.494355 1.000000
vt 1.000000 0.474417
vt 1.000000 1.000000
vt 0.000000 1.000000
vt 1.000000 0.000000
vt 0.533479 0.000000
vt 0.447807 0.563622
vt 0.000000 0.448746
vt 0.515396 1.000000
vt 1.000000 0.474699
vt 0.509433 1.000000
vt 0.557025 0.488493
vt 0.943530 0.531260
vt 0.672370 1.000000
vt 0.124045 0.440587
vt 0.259966 0.000000
vt 0.602475 0.000000
vt 0.860970 0.000000
vt 0.189556 1.000000
vt 0.480173 0.000000
vt 0.499095 0.494221
vt 0.000000 0.504135
vt 0.518459 1.000000
vt 1.000000 0.484268
vt 0.532232 1.000000
vt 0.477364 0.470556
vt 1.000000 0.533264
vt 0.516556 0.000000
vt 0.000000 0.535225
s 1
usemtl trunk-01
f 2/1/1 15/2/2 22/3/3
f 2/1/1 22/3/3 10/4/4
f 4/5/5 16/6/6 14/7/7
f 4/5/5 14/7/7 1/8/8
f 7/9/9 18/10/10 17/6/11
f 7/9/9 17/6/11 5/5/9
f 13/11/12 21/12/13 19/10/14
f 13/11/12 19/10/14 9/9/15
f 12/4/16 23/3/17 20/12/18
f 15/2/2 26/13/19 31/14/20
f 15/2/2 31/14/20 22/3/3
f 16/6/6 27/15/21 25/16/22
f 16/6/6 25/16/22 14/7/7
f 18/10/10 29/17/23 28/15/24
f 18/10/10 28/15/24 17/6/11
f 21/12/13 33/18/25 30/17/26
f 21/12/13 30/17/26 19/10/14
f 23/3/17 32/18/27 20/12/18
f 26/13/19 36/19/28 45/20/29
f 26/13/19 45/20/29 31/14/20
f 24/16/30 37/21/31 35/22/32
f 27/15/21 39/23/33 38/21/34
f 27/15/21 38/21/34 25/16/22
f 29/17/23 41/24/35 40/23/36
f 29/17/23 40/23/36 28/15/24
f 33/18/25 42/24/37 30/17/26
f 34/14/38 46/20/39 43/25/40
f 36/19/28 48/26/41 55/27/42
f 36/19/28 55/27/42 45/20/29
f 37/21/31 49/28/43 47/29/44
f 37/21/31 47/29/44 35/22/32
f 39/23/33 51/30/45 50/28/46
f 39/23/33 50/28/46 38/21/34
f 41/24/35 53/31/47 52/30/48
f 41/24/35 52/30/48 40/23/36
f 44/25/49 57/32/50 54/31/51
f 46/20/39 56/32/52 43/25/40
f 48/26/41 68/33/53 55/27/42
f 49/28/43 58/34/54 66/35/55
f 49/28/43 66/35/55 47/29/44
f 51/30/45 60/36/56 59/34/57
f 51/30/45 59/34/57 50/28/46
f 53/31/47 62/37/58 61/36/59
f 53/31/47 61/36/59 52/30/48
f 57/32/50 65/38/60 63/37/61
f 57/32/50 63/37/61 54/31/51
f 55/27/42 68/33/53 64/38/62
f 67/39/63 70/40/64 79/41/65
f 58/34/54 71/42/66 69/43/67
f 58/34/54 69/43/67 66/35/55
f 60/36/56 73/42/68 59/34/57
f 62/37/58 75/44/69 74/45/70
f 62/37/58 74/45/70 61/36/59
f 65/38/60 78/46/71 76/44/72
f 65/38/60 76/44/72 63/37/61
f 68/33/53 80/41/73 77/46/74
f 68/33/53 77/46/74 64/38/62
f 70/40/64 82/47/75 89/48/75
f 70/40/64 89/48/75 79/41/65
f 71/42/66 83/49/76 81/50/77
f 71/42/66 81/50/77 69/43/67
f 72/45/78 85/51/79 84/49/80
f 75/44/69 87/52/81 86/51/82
f 75/44/69 86/51/82 74/45/70
f 78/46/71 92/53/83 88/52/84
f 78/46/71 88/52/84 76/44/72
f 80/41/73 91/53/85 77/46/74
f 82/47/75 94/54/86 103/55/87
f 82/47/75 103/55/87 89/48/75
f 83/49/76 95/56/88 93/57/89
f 83/49/76 93/57/89 81/50/77
f 85/51/79 97/56/90 84/49/80
f 87/52/81 99/58/91 98/59/92
f 87/52/81 98/59/92 86/51/82
f 92/53/83 102/60/93 100/58/94
f 92/53/83 100/58/94 88/52/84
f 90/48/95 104/55/96 101/60/97
f 94/54/86 106/61/98 115/62/99
f 94/54/86 115/62/99 103/55/87
f 95/56/88 231/63/100 105/64/101
f 95/56/88 105/64/101 93/57/89
s 0
f 96/59/102 107/65/102 232/63/102
s 1
f 99/58/91 109/66/103 108/65/104
f 99/58/91 108/65/104 98/59/92
f 102/60/93 114/67/105 111/66/105
f 102/60/93 111/66/105 100/58/94
f 104/55/96 116/62/106 113/67/106
f 104/55/96 113/67/106 101/60/97
f 117/1/107 131/2/108 141/3/109
f 117/1/107 141/3/109 129/4/110
f 123/8/111 134/7/112 132/68/113
f 123/8/111 132/68/113 119/69/114
f 122/5/115 137/6/116 133/7/117
s 0
f 126/9/118 136/6/118 121/5/118
s 1
f 128/11/119 139/12/120 135/10/121
f 128/11/119 135/10/121 124/9/122
f 127/4/123 140/3/124 138/12/125
f 131/2/108 142/13/126 156/14/127
f 131/2/108 156/14/127 141/3/109
f 134/7/112 145/16/128 143/70/129
f 134/7/112 143/70/129 132/68/113
f 137/6/116 150/15/130 146/16/131
f 137/6/116 146/16/131 133/7/117
f 139/12/120 153/18/132 148/17/132
f 139/12/120 148/17/132 135/10/121
f 140/3/124 155/14/133 152/18/134
f 140/3/124 152/18/134 138/12/125
f 142/13/126 157/19/135 167/20/136
f 142/13/126 167/20/136 156/14/127
f 147/16/137 161/21/138 158/22/139
f 147/16/137 158/22/139 144/70/140
f 150/15/130 159/21/141 146/16/131
f 151/17/142 164/24/143 160/23/141
f 154/18/144 166/25/145 163/24/146
f 154/18/144 163/24/146 149/17/144
f 155/14/133 167/20/136 165/25/147
f 155/14/133 165/25/147 152/18/134
f 157/19/135 168/27/148 167/20/136
f 161/21/138 171/28/149 170/29/150
f 161/21/138 170/29/150 158/22/139
f 162/23/151 174/30/152 172/28/153
f 164/24/143 176/31/154 173/30/155
f 164/24/143 173/30/155 160/23/141
f 166/25/145 177/32/156 175/31/157
f 166/25/145 175/31/157 163/24/146
f 167/20/136 168/27/148 178/32/158
f 167/20/136 178/32/158 165/25/147
f 169/26/159 286/39/160 192/33/161
f 171/28/149 181/34/162 290/35/162
f 171/28/149 290/35/162 170/29/150
f 174/30/152 189/36/163 183/34/163
f 174/30/152 183/34/163 172/28/153
f 176/31/154 296/37/164 187/36/164
f 176/31/154 187/36/164 173/30/155
f 177/32/156 281/38/165 291/37/165
f 177/32/156 291/37/165 175/31/157
f 168/27/148 191/33/166 280/38/167
f 168/27/148 280/38/167 178/32/158
f 286/39/160 194/40/168 204/41/169
f 286/39/160 204/41/169 192/33/161
f 179/34/170 195/42/171 193/43/172
f 179/34/170 193/43/172 288/35/173
f 190/36/174 198/45/175 196/42/176
f 190/36/174 196/42/176 184/34/174
f 295/37/177 199/44/178 197/45/179
f 295/37/177 197/45/179 186/36/177
f 283/38/180 202/46/181 200/44/182
f 283/38/180 200/44/182 293/37/183
f 191/33/166 203/41/184 201/46/185
f 191/33/166 201/46/185 280/38/167
f 194/40/168 215/48/186 204/41/169
f 195/42/171 205/49/187 214/50/188
f 195/42/171 214/50/188 193/43/172
f 198/45/175 209/51/189 206/49/190
f 198/45/175 206/49/190 196/42/176
f 199/44/178 207/51/191 197/45/179
f 202/46/181 211/53/192 208/52/191
f 202/46/181 208/52/191 200/44/182
f 203/41/184 212/48/193 210/53/194
f 203/41/184 210/53/194 201/46/185
f 213/47/195 216/54/196 226/55/197
f 205/49/187 218/56/198 217/57/199
f 205/49/187 217/57/199 214/50/188
f 209/51/189 221/59/200 219/56/201
f 209/51/189 219/56/201 206/49/190
f 208/52/191 222/58/202 220/59/203
f 211/53/192 224/60/204 222/58/202
f 211/53/192 222/58/202 208/52/191
f 212/48/193 225/55/205 223/60/206
f 212/48/193 223/60/206 210/53/194
f 216/54/196 227/61/207 238/62/208
f 216/54/196 238/62/208 226/55/197
f 218/56/198 229/63/209 228/64/209
f 218/56/198 228/64/209 217/57/199
f 221/59/200 112/65/210 230/63/211
f 221/59/200 230/63/211 219/56/201
f 222/58/202 234/66/212 110/65/212
f 222/58/202 110/65/212 220/59/203
f 224/60/204 236/67/213 233/66/214
f 224/60/204 233/66/214 222/58/202
f 225/55/205 237/62/215 235/67/215
f 225/55/205 235/67/215 223/60/206
f 239/1/216 255/19/217 265/20/218
f 239/1/216 265/20/218 251/4/219
f 240/8/220 257/21/221 256/22/222
f 243/5/223 259/23/224 258/21/225
f 243/5/223 258/21/225 241/8/226
f 249/9/227 261/24/228 260/23/229
f 249/9/227 260/23/229 246/5/230
f 250/11/231 264/25/232 262/24/233
f 252/4/234 266/20/235 263/25/236
f 252/4/234 263/25/236 247/11/237
f 255/19/217 268/40/238 277/41/239
f 255/19/217 277/41/239 265/20/218
f 257/21/221 269/42/240 267/43/241
f 257/21/221 267/43/241 256/22/222
f 259/23/224 271/45/242 270/42/243
f 259/23/224 270/42/243 258/21/225
f 261/24/228 273/44/244 272/45/245
f 261/24/228 272/45/245 260/23/229
f 264/25/232 276/46/246 274/44/247
f 264/25/232 274/44/247 262/24/233
f 266/20/235 278/41/248 275/46/249
f 266/20/235 275/46/249 263/25/236
f 268/40/238 282/61/250 292/62/251
f 268/40/238 292/62/251 277/41/239
f 269/42/240 284/63/252 279/64/252
f 269/42/240 279/64/252 267/43/241
f 271/45/242 287/65/253 285/63/253
f 271/45/242 285/63/253 270/42/243
f 273/44/244 180/66/254 289/65/255
f 273/44/244 289/65/255 272/45/245
f 276/46/246 188/67/256 182/66/256
f 276/46/246 182/66/256 274/44/247
f 278/41/248 294/62/257 185/67/258
f 278/41/248 185/67/258 275/46/249
s 0
f 253/4/259 248/11/259 244/5/259
f 254/4/260 245/5/260 242/8/260
s 1
f 130/11/261 125/9/261 120/5/261
f 130/11/261 120/5/261 118/69/261
f 8/9/262 6/5/262 3/1/262
f 8/9/262 3/1/262 11/11/262
usemtl branch-2-02
f 297/71/263 301/72/264 303/73/265
f 297/71/263 303/73/265 305/74/266
f 302/75/267 303/73/265 304/76/268
f 302/75/267 304/76/268 300/77/269
f 305/74/266 303/73/265 302/75/267
f 305/74/266 302/75/267 299/78/270
f 304/76/268 303/73/265 301/72/264
f 304/76/268 301/72/264 298/79/271
f 306/71/272 310/72/273 312/73/274
f 306/71/272 312/73/274 314/74/275
f 311/75/276 312/73/274 313/76/277
f 311/75/276 313/76/277 309/77/278
f 314/74/275 312/73/274 311/75/276
f 314/74/275 311/75/276 308/78/279
f 313/76/277 312/73/274 310/72/273
f 313/76/277 310/72/273 307/79/280
f 315/71/281 319/72/282 321/73/283
f 315/71/281 321/73/283 323/74/284
f 320/75/285 321/73/283 322/76/286
f 320/75/285 322/76/286 318/77/287
f 323/74/284 321/73/283 320/75/285
f 323/74/284 320/75/285 317/78/288
f 322/76/286 321/73/283 319/72/282
f 322/76/286 319/72/282 316/79/289
f 324/71/290 328/72/291 330/73/292
f 324/71/290 330/73/292 332/74/293
f 329/75/294 330/73/292 331/76/295
f 329/75/294 331/76/295 327/77/296
f 332/74/293 330/73/292 329/75/294
f 332/74/293 329/75/294 326/78/297
f 331/76/295 330/73/292 328/72/291
f 331/76/295 328/72/291 325/79/298
f 333/71/299 338/72/299 340/73/300
f 333/71/299 340/73/300 342/74/301
f 339/75/302 340/73/300 341/76/303
f 339/75/302 341/76/303 336/77/304
f 342/74/301 340/73/300 339/75/302
f 342/74/301 339/75/302 335/78/305
f 341/76/303 340/73/300 337/72/306
f 341/76/303 337/72/306 334/79/306
f 343/71/307 347/72/308 349/73/309
f 343/71/307 349/73/309 351/74/310
f 348/75/311 349/73/309 350/76/312
f 348/75/311 350/76/312 346/77/313
f 351/74/310 349/73/309 348/75/311
f 351/74/310 348/75/311 345/78/314
f 350/76/312 349/73/309 347/72/308
f 350/76/312 347/72/308 344/79/315
f 352/71/316 356/72/317 358/73/318
f 352/71/316 358/73/318 360/74/319
f 357/75/320 358/73/318 359/76/321
f 357/75/320 359/76/321 355/77/322
f 360/74/319 358/73/318 357/75/320
f 360/74/319 357/75/320 354/78/323
f 359/76/321 358/73/318 356/72/317
f 359/76/321 356/72/317 353/79/324
f 361/71/325 365/72/326 367/73/327
f 361/71/325 367/73/327 369/74/328
f 366/75/329 367/73/327 368/76/330
f 366/75/329 368/76/330 364/77/331
f 369/74/328 367/73/327 366/75/329
f 369/74/328 366/75/329 363/78/332
f 368/76/330 367/73/327 365/72/326
f 368/76/330 365/72/326 362/79/333
f 370/71/334 374/72/335 376/73/336
f 370/71/334 376/73/336 378/74/337
f 375/75/338 376/73/336 377/76/339
f 375/75/338 377/76/339 373/77/340
f 378/74/337 376/73/336 375/75/338
f 378/74/337 375/75/338 372/78/341
f 377/76/339 376/73/336 374/72/335
f 377/76/339 374/72/335 371/79/342
f 379/71/343 383/72/344 385/73/345
f 379/71/343 385/73/345 387/74/346
f 384/75/347 385/73/345 386/76/348
f 384/75/347 386/76/348 382/77/349
f 387/74/346 385/73/345 384/75/347
f 387/74/346 384/75/347 381/78/350
f 386/76/348 385/73/345 383/72/344
f 386/76/348 383/72/344 380/79/351
f 388/71/352 392/72/353 394/73/354
f 388/71/352 394/73/354 396/74/355
f 393/75/356 394/73/354 395/76/357
f 393/75/356 395/76/357 391/77/358
f 396/74/355 394/73/354 393/75/356
f 396/74/355 393/75/356 390/78/359
f 395/76/357 394/73/354 392/72/353
f 395/76/357 392/72/353 389/79/360
f 397/71/361 401/72/362 403/73/363
f 397/71/361 403/73/363 405/74/364
f 402/75/365 403/73/363 404/76/366
f 402/75/365 404/76/366 400/77/367
f 405/74/364 403/73/363 402/75/365
f 405/74/364 402/75/365 399/78/368
f 404/76/366 403/73/363 401/72/362
f 404/76/366 401/72/362 398/79/369
f 406/71/370 410/72/371 412/73/372
f 406/71/370 412/73/372 414/74/373
f 411/75/374 412/73/372 413/76/375
f 411/75/374 413/76/375 409/77/376
f 414/74/373 412/73/372 411/75/374
f 414/74/373 411/75/374 408/78/377
f 413/76/375 412/73/372 410/72/371
f 413/76/375 410/72/371 407/79/378
f 415/71/379 419/72/380 421/73/381
f 415/71/379 421/73/381 423/74/382
f 420/75/383 421/73/381 422/76/384
f 420/75/383 422/76/384 418/77/385
f 423/74/382 421/73/381 420/75/383
f 423/74/382 420/75/383 417/78/386
f 422/76/384 421/73/381 419/72/380
f 422/76/384 419/72/380 416/79/387
usemtl branch-2-01
f 424/71/388 428/80/389 432/81/390
f 424/71/388 432/81/390 434/82/391
f 431/83/392 433/81/393 435/84/394
f 431/83/392 435/84/394 427/77/392
f 434/82/391 432/81/390 430/83/395
f 434/82/391 430/83/395 426/78/396
f 435/84/394 433/81/393 429/80/397
f 435/84/394 429/80/397 425/79/397
f 436/71/398 441/80/399 443/81/400
f 436/71/398 443/81/400 444/82/401
f 442/83/402 443/81/400 445/84/403
f 442/83/402 445/84/403 439/77/404
f 444/82/401 443/81/400 442/83/402
f 444/82/401 442/83/402 438/78/405
f 445/84/403 443/81/400 440/80/406
f 445/84/403 440/80/406 437/79/407
f 446/71/408 450/80/409 452/81/410
f 446/71/408 452/81/410 453/82/411
f 451/83/412 452/81/410 454/84/413
f 451/83/412 454/84/413 449/77/414
f 453/82/411 452/81/410 451/83/412
f 453/82/411 451/83/412 448/78/415
f 454/84/413 452/81/410 450/80/409
f 454/84/413 450/80/409 447/79/416
f 455/71/417 459/80/418 461/81/419
f 455/71/417 461/81/419 462/82/420
f 460/83/421 461/81/419 463/84/422
f 460/83/421 463/84/422 458/77/423
f 462/82/420 461/81/419 460/83/421
f 462/82/420 460/83/421 457/78/424
f 463/84/422 461/81/419 459/80/418
f 463/84/422 459/80/418 456/79/425
f 464/71/426 468/80/427 470/81/428
f 464/71/426 470/81/428 471/82/429
f 469/83/430 470/81/428 472/84/431
f 469/83/430 472/84/431 467/77/432
f 471/82/429 470/81/428 469/83/430
f 471/82/429 469/83/430 466/78/433
f 472/84/431 470/81/428 468/80/427
f 472/84/431 468/80/427 465/79/434
f 473/71/435 477/80/436 480/81/437
f 473/71/435 480/81/437 481/82/438
f 479/83/439 480/81/437 482/84/440
f 479/83/439 482/84/440 476/77/441
f 481/82/438 480/81/437 479/83/439
f 481/82/438 479/83/439 475/78/442
f 482/84/440 480/81/437 478/80/443
f 482/84/440 478/80/443 474/79/443
f 483/71/444 487/80/445 489/81/446
f 483/71/444 489/81/446 490/82/447
f 488/83/448 489/81/446 491/84/449
f 488/83/448 491/84/449 486/77/450
f 490/82/447 489/81/446 488/83/448
f 490/82/447 488/83/448 485/78/451
f 491/84/449 489/81/446 487/80/445
f 491/84/449 487/80/445 484/79/452
f 492/71/453 496/80/454 498/81/455
f 492/71/453 498/81/455 499/82/456
f 497/83/457 498/81/455 500/84/458
f 497/83/457 500/84/458 495/77/459
f 499/82/456 498/81/455 497/83/457
f 499/82/456 497/83/457 494/78/460
f 500/84/458 498/81/455 496/80/454
f 500/84/458 496/80/454 493/79/461
f 501/71/462 505/80/463 507/81/464
f 501/71/462 507/81/464 508/82/465
f 506/83/466 507/81/464 509/84/467
f 506/83/466 509/84/467 504/77/468
f 508/82/465 507/81/464 506/83/466
f 508/82/465 506/83/466 503/78/469
f 509/84/467 507/81/464 505/80/463
f 509/84/467 505/80/463 502/79/470
f 510/71/471 515/80/472 517/81/473
f 510/71/471 517/81/473 518/82/474
f 516/83/475 517/81/473 519/84/476
f 516/83/475 519/84/476 513/77/477
f 518/82/474 517/81/473 516/83/475
f 518/82/474 516/83/475 512/78/478
f 519/84/476 517/81/473 514/80/479
f 519/84/476 514/80/479 511/79/479
f 520/71/480 525/80/481 527/81/482
f 520/71/480 527/81/482 528/82/483
f 526/83/484 527/81/482 529/84/485
f 526/83/484 529/84/485 523/77/486
f 528/82/483 527/81/482 526/83/484
f 528/82/483 526/83/484 522/78/487
f 529/84/485 527/81/482 524/80/488
f 529/84/485 524/80/488 521/79/488
f 530/71/489 534/80/490 536/81/491
f 530/71/489 536/81/491 537/82/492
f 535/83/493 536/81/491 538/84/494
f 535/83/493 538/84/494 533/77/495
f 537/82/492 536/81/491 535/83/493
f 537/82/492 535/83/493 532/78/496
f 538/84/494 536/81/491 534/80/490
f 538/84/494 534/80/490 531/79/497
f 539/71/498 543/80/499 545/81/500
f 539/71/498 545/81/500 546/82/501
f 544/83/502 545/81/500 547/84/503
f 544/83/502 547/84/503 542/77/504
f 546/82/501 545/81/500 544/83/502
f 546/82/501 544/83/502 541/78/505
f 547/84/503 545/81/500 543/80/499
f 547/84/503 543/80/499 540/79/506
f 548/71/507 552/80/508 554/81/509
f 548/71/507 554/81/509 555/82/510
f 553/83/511 554/81/509 556/84/512
f 553/83/511 556/84/512 551/77/513
f 555/82/510 554/81/509 553/83/511
f 555/82/510 553/83/511 550/78/514
f 556/84/512 554/81/509 552/80/508
f 556/84/512 552/80/508 549/79/515
f 557/71/516 561/80/517 563/81/518
f 557/71/516 563/81/518 564/82/519
f 562/83/520 563/81/518 565/84/521
f 562/83/520 565/84/521 560/77/522
f 564/82/519 563/81/518 562/83/520
f 564/82/519 562/83/520 559/78/523
f 565/84/521 563/81/518 561/80/517
f 565/84/521 561/80/517 558/79/524
usemtl branch-2-04
f 566/85/525 570/86/526 575/87/527
f 566/85/525 575/87/527 576/88/525
f 573/89/528 572/90/529 569/91/530
f 573/89/528 569/91/530 571/86/531
f 574/92/532 575/87/527 570/86/526
f 574/92/532 570/86/526 568/91/532
f 577/93/533 573/89/528 571/86/531
f 577/93/533 571/86/531 567/85/534
f 578/85/535 582/86/536 587/87/537
f 578/85/535 587/87/537 588/88/535
f 585/89/538 584/90/539 581/91/539
f 585/89/538 581/91/539 583/86/540
f 586/92/541 587/87/537 582/86/536
f 586/92/541 582/86/536 580/91/541
f 589/93/542 585/89/538 583/86/540
f 589/93/542 583/86/540 579/85/542
f 590/85/543 594/86/544 599/87/545
f 590/85/543 599/87/545 600/88/543
f 597/89/546 596/90/547 593/91/548
f 597/89/546 593/91/548 595/86/549
f 598/92/550 599/87/545 594/86/544
f 598/92/550 594/86/544 592/91/550
f 601/93/551 597/89/546 595/86/549
f 601/93/551 595/86/549 591/85/551
f 602/85/552 606/86/553 611/87/554
f 602/85/552 611/87/554 612/88/552
f 609/89/555 608/90/556 605/91/556
f 609/89/555 605/91/556 607/86/557
f 610/92/558 611/87/554 606/86/553
f 610/92/558 606/86/553 604/91/558
f 613/93/559 609/89/555 607/86/557
f 613/93/559 607/86/557 603/85/560
f 614/85/561 618/86/562 623/87/563
f 614/85/561 623/87/563 624/88/564
f 621/89/565 620/90/566 617/91/566
f 621/89/565 617/91/566 619/86/567
f 622/92/568 623/87/563 618/86/562
f 622/92/568 618/86/562 616/91/569
f 625/93/570 621/89/565 619/86/567
f 625/93/570 619/86/567 615/85/570
f 626/85/571 630/86/572 635/87/573
f 626/85/571 635/87/573 636/88/571
f 633/89/574 632/90/575 629/91/576
f 633/89/574 629/91/576 631/86/577
f 634/92/578 635/87/573 630/86/572
f 634/92/578 630/86/572 628/91/578
f 637/93/579 633/89/574 631/86/577
f 637/93/579 631/86/577 627/85/580
f 638/85/581 642/86/582 647/87/583
f 638/85/581 647/87/583 648/88/581
f 645/89/584 644/90/585 641/91/585
f 645/89/584 641/91/585 643/86/586
f 646/92/587 647/87/583 642/86/582
f 646/92/587 642/86/582 640/91/587
f 649/93/588 645/89/584 643/86/586
f 649/93/588 643/86/586 639/85/588
f 651/85/589 655/86/590 659/87/591
f 651/85/589 659/87/591 660/88/589
f 657/89/592 656/90/593 652/91/593
f 657/89/592 652/91/593 654/86/594
f 658/92/595 659/87/591 655/86/590
f 658/92/595 655/86/590 653/91/595
f 661/93/596 657/89/592 654/86/594
f 661/93/596 654/86/594 650/85/597
f 662/85/598 666/86/599 671/87/600
f 662/85/598 671/87/600 672/88/598
f 669/89/601 668/90/602 665/91/602
f 669/89/601 665/91/602 667/86/603
f 670/92/604 671/87/600 666/86/599
f 670/92/604 666/86/599 664/91/604
f 673/93/605 669/89/601 667/86/603
f 673/93/605 667/86/603 663/85/605
f 674/85/606 677/86/607 681/87/608
f 674/85/606 681/87/608 682/88/609
f 679/89/610 678/90/611 676/91/611
f 679/89/610 676/91/611 677/86/607
f 680/92/612 681/87/608 677/86/607
f 680/92/612 677/86/607 675/91/612
f 683/93/613 679/89/610 677/86/607
f 683/93/613 677/86/607 674/85/606
usemtl branch-2-05
f 684/71/614 689/94/615 693/95/616
f 684/71/614 693/95/616 692/96/617
f 690/97/618 693/95/616 691/98/619
f 690/97/618 691/98/619 687/77/620
f 692/96/617 693/95/616 690/97/618
f 692/96/617 690/97/618 686/78/621
f 691/98/619 693/95/616 688/94/622
f 691/98/619 688/94/622 685/79/623
f 694/71/624 699/94/625 705/95/626
f 694/71/624 705/95/626 703/96/627
f 700/97/628 704/95/629 702/98/630
f 700/97/628 702/98/630 697/77/631
f 703/96/627 705/95/626 701/97/632
f 703/96/627 701/97/632 696/78/632
f 702/98/630 704/95/629 698/94/633
f 702/98/630 698/94/633 695/79/634
f 706/71/635 711/94/636 717/95/637
f 706/71/635 717/95/637 715/96/638
f 712/97/639 716/95/640 714/98/641
f 712/97/639 714/98/641 709/77/642
f 715/96/638 717/95/637 713/97/643
f 715/96/638 713/97/643 708/78/643
f 714/98/641 716/95/640 710/94/644
f 714/98/641 710/94/644 707/79/644
f 718/71/645 723/94/646 727/95/647
f 718/71/645 727/95/647 726/96/648
f 724/97/649 727/95/647 725/98/650
f 724/97/649 725/98/650 721/77/651
f 726/96/648 727/95/647 724/97/649
f 726/96/648 724/97/649 720/78/652
f 725/98/650 727/95/647 722/94/653
f 725/98/650 722/94/653 719/79/654
f 728/71/655 733/94/655 737/95/656
f 728/71/655 737/95/656 736/96/657
f 734/97/658 737/95/656 735/98/659
f 734/97/658 735/98/659 731/77/660
f 736/96/657 737/95/656 734/97/658
f 736/96/657 734/97/658 730/78/661
f 735/98/659 737/95/656 732/94/662
f 735/98/659 732/94/662 729/79/662
f 738/71/663 743/94/664 747/95/665
f 738/71/663 747/95/665 746/96/666
f 744/97/667 747/95/665 745/98/668
f 744/97/667 745/98/668 741/77/669
f 746/96/666 747/95/665 744/97/667
f 746/96/666 744/97/667 740/78/670
f 745/98/668 747/95/665 742/94/671
f 745/98/668 742/94/671 739/79/672
f 748/71/673 753/94/674 757/95/675
f 748/71/673 757/95/675 756/96/676
f 754/97/677 757/95/675 755/98/678
f 754/97/677 755/98/678 751/77/679
f 756/96/676 757/95/675 754/97/677
f 756/96/676 754/97/677 750/78/680
f 755/98/678 757/95/675 752/94/681
f 755/98/678 752/94/681 749/79/681
f 758/71/682 762/94/683 767/95/684
f 758/71/682 767/95/684 766/96/685
f 764/97/686 767/95/684 765/98/687
f 764/97/686 765/98/687 761/77/688
f 766/96/685 767/95/684 764/97/686
f 766/96/685 764/97/686 760/78/689
f 765/98/687 767/95/684 763/94/690
f 765/98/687 763/94/690 759/79/691
usemtl branch-2-03
f 771/77/692 772/99/693 775/100/694
f 771/77/692 775/100/694 777/101/695
f 773/102/696 775/100/694 776/103/697
f 773/102/696 776/103/697 768/71/698
f 776/103/697 775/100/694 772/99/693
f 776/103/697 772/99/693 770/78/699
f 777/101/695 775/100/694 774/102/700
f 777/101/695 774/102/700 769/79/700
f 781/77/701 782/99/702 785/100/703
f 781/77/701 785/100/703 787/101/704
f 783/102/705 785/100/703 786/103/706
f 783/102/705 786/103/706 778/71/707
f 786/103/706 785/100/703 782/99/702
f 786/103/706 782/99/702 780/78/708
f 787/101/704 785/100/703 784/102/709
f 787/101/704 784/102/709 779/79/709
f 791/77/710 792/99/711 794/100/712
f 791/77/710 794/100/712 796/101/713
f 793/102/714 794/100/712 795/103/715
f 793/102/714 795/103/715 788/71/716
f 795/103/715 794/100/712 792/99/711
f 795/103/715 792/99/711 790/78/717
f 796/101/713 794/100/712 793/102/714
f 796/101/713 793/102/714 789/79/718
f 800/77/719 801/99/720 803/100/721
f 800/77/719 803/100/721 805/101/722
f 802/102/723 803/100/721 804/103/724
f 802/102/723 804/103/724 797/71/725
f 804/103/724 803/100/721 801/99/720
f 804/103/724 801/99/720 799/78/726
f 805/101/722 803/100/721 802/102/723
f 805/101/722 802/102/723 798/79/727
f 809/77/728 810/99/729 812/100/730
f 809/77/728 812/100/730 814/101/731
f 811/102/732 812/100/730 813/103/733
f 811/102/732 813/103/733 806/71/734
f 813/103/733 812/100/730 810/99/729
f 813/103/733 810/99/729 808/78/735
f 814/101/731 812/100/730 811/102/732
f 814/101/731 811/102/732 807/79/736
f 818/77/737 819/99/738 822/100/739
f 818/77/737 822/100/739 824/101/740
f 820/102/741 822/100/739 823/103/742
f 820/102/741 823/103/742 815/71/741
f 823/103/742 822/100/739 819/99/738
f 823/103/742 819/99/738 817/78/743
f 824/101/740 822/100/739 821/102/744
f 824/101/740 821/102/744 816/79/745
